<?xml version="1.0"?>
<!DOCTYPE lmms-project>
<lmms-project version="20" type="song" creatorversion="1.3.0-alpha.1.102+g89fc6c960" creator="LMMS">
  <head mastervol="100" timesig_numerator="4" timesig_denominator="4" masterpitch="0">
    <bpm scale_type="linear" value="117" id="22481"/>
  </head>
  <song>
    <trackcontainer width="720" type="song" visible="1" y="5" height="425" minimized="0" maximized="1" x="6">
      <track muted="0" type="5" mutedBeforeSolo="0" solo="0" name="Master volume">
        <automationtrack/>
        <automationpattern pos="0" mute="0" name="Master>Volume" tens="1" len="42240" prog="1">
          <time pos="0" value="1" outValue="1"/>
          <time pos="41856" value="0.999" outValue="0.999"/>
          <time pos="42240" value="0" outValue="0"/>
          <object id="21510"/>
        </automationpattern>
      </track>
      <track muted="0" type="0" mutedBeforeSolo="0" solo="0" name="Helm">
        <instrumenttrack vol="180" pan="0" fxch="1" lastkey="127" basenote="69" firstkey="0" enablecc="0" pitch="0" pitchrange="2" usemasterpitch="1">
          <midicontrollers cc67="0" cc0="0" cc19="0" cc66="0" cc1="0" cc31="0" cc59="0" cc40="0" cc84="0" cc56="0" cc21="0" cc121="0" cc27="0" cc12="0" cc79="0" cc83="0" cc115="0" cc124="0" cc92="0" cc23="0" cc77="0" cc86="0" cc13="0" cc127="0" cc60="0" cc96="0" cc126="0" cc103="0" cc61="0" cc93="0" cc89="0" cc10="0" cc81="0" cc54="0" cc52="0" cc45="0" cc48="0" cc85="0" cc90="0" cc8="0" cc78="0" cc43="0" cc14="0" cc80="0" cc102="0" cc69="0" cc120="0" cc33="0" cc119="0" cc5="0" cc29="0" cc20="0" cc91="0" cc99="0" cc4="0" cc15="0" cc7="0" cc87="0" cc18="0" cc9="0" cc50="0" cc58="0" cc55="0" cc36="0" cc65="0" cc109="0" cc57="0" cc30="0" cc46="0" cc25="0" cc106="0" cc38="0" cc73="0" cc114="0" cc42="0" cc3="0" cc122="0" cc28="0" cc70="0" cc6="0" cc51="0" cc72="0" cc95="0" cc104="0" cc37="0" cc123="0" cc26="0" cc94="0" cc74="0" cc17="0" cc32="0" cc16="0" cc22="0" cc107="0" cc49="0" cc47="0" cc100="0" cc34="0" cc62="0" cc53="0" cc11="0" cc35="0" cc97="0" cc98="0" cc105="0" cc2="0" cc71="0" cc117="0" cc82="0" cc108="0" cc24="0" cc88="0" cc101="0" cc44="0" cc111="0" cc112="0" cc125="0" cc68="0" cc63="0" cc76="0" cc64="0" cc41="0" cc110="0" cc113="0" cc116="0" cc75="0" cc39="0" cc118="0"/>
          <instrument name="vestige">
            <vestige chunk="ew0KICAibGljZW5zZSI6ICJQYXRjaCAoYykgYnkgLiAgVGhpcyBwYXRjaCBpcyBsaWNlbnNlZCB1bmRlciBhIENyZWF0aXZlIENvbW1vbnMgQXR0cmlidXRpb24gNC4wIEludGVybmF0aW9uYWwgTGljZW5zZS4gIFlvdSBzaG91bGQgaGF2ZSByZWNlaXZlZCBhIGNvcHkgb2YgdGhlIGxpY2Vuc2UgYWxvbmcgd2l0aCB0aGlzIHdvcmsuICBJZiBub3QsIHNlZSA8aHR0cDovL2NyZWF0aXZlY29tbW9ucy5vcmcvbGljZW5zZXMvYnkvNC4wLz4uIiwNCiAgInN5bnRoX3ZlcnNpb24iOiAiMC45LjAiLA0KICAicGF0Y2hfbmFtZSI6ICIiLA0KICAiZm9sZGVyX25hbWUiOiAiIiwNCiAgImF1dGhvciI6ICIiLA0KICAic2V0dGluZ3MiOiB7DQogICAgImFtcF9hdHRhY2siOiAwLjEwOTU0NTAwMDAwMDAwMDAwMzQ4LA0KICAgICJhbXBfZGVjYXkiOiAxLjUsDQogICAgImFtcF9yZWxlYXNlIjogMC40MTE3NjQ3MDU4ODIzNTI5NzcxLA0KICAgICJhbXBfc3VzdGFpbiI6IDEsDQogICAgImFycF9mcmVxdWVuY3kiOiAyLA0KICAgICJhcnBfZ2F0ZSI6IDAuNSwNCiAgICAiYXJwX29jdGF2ZXMiOiAxLA0KICAgICJhcnBfb24iOiAwLA0KICAgICJhcnBfcGF0dGVybiI6IDAsDQogICAgImFycF9zeW5jIjogMSwNCiAgICAiYXJwX3RlbXBvIjogOSwNCiAgICAiYmVhdHNfcGVyX21pbnV0ZSI6IDEuOTQ5OTk5OTk5OTk5OTk5OTU1NiwNCiAgICAiY3Jvc3NfbW9kdWxhdGlvbiI6IDAsDQogICAgImN1dG9mZiI6IDI4LA0KICAgICJkZWxheV9kcnlfd2V0IjogMC41LA0KICAgICJkZWxheV9mZWVkYmFjayI6IDAuNDAwMDAwMDAwMDAwMDAwMDIyMiwNCiAgICAiZGVsYXlfZnJlcXVlbmN5IjogMiwNCiAgICAiZGVsYXlfb24iOiAwLA0KICAgICJkZWxheV9zeW5jIjogMSwNCiAgICAiZGVsYXlfdGVtcG8iOiA5LA0KICAgICJkaXN0b3J0aW9uX2RyaXZlIjogMCwNCiAgICAiZGlzdG9ydGlvbl9taXgiOiAxLA0KICAgICJkaXN0b3J0aW9uX29uIjogMCwNCiAgICAiZGlzdG9ydGlvbl90eXBlIjogMCwNCiAgICAiZmlsX2F0dGFjayI6IDAsDQogICAgImZpbF9kZWNheSI6IDAuNjQ3MDU4ODIzNTI5NDExNzk3MzYsDQogICAgImZpbF9lbnZfZGVwdGgiOiAwLA0KICAgICJmaWxfcmVsZWFzZSI6IDEuNSwNCiAgICAiZmlsX3N1c3RhaW4iOiAwLA0KICAgICJmaWx0ZXJfYmxlbmQiOiAwLA0KICAgICJmaWx0ZXJfZHJpdmUiOiAwLA0KICAgICJmaWx0ZXJfb24iOiAxLA0KICAgICJmaWx0ZXJfc2hlbGYiOiAwLA0KICAgICJmaWx0ZXJfc3R5bGUiOiAwLA0KICAgICJmb3JtYW50X29uIjogMCwNCiAgICAiZm9ybWFudF94IjogMC41LA0KICAgICJmb3JtYW50X3kiOiAwLjUsDQogICAgImtleXRyYWNrIjogMCwNCiAgICAibGVnYXRvIjogMCwNCiAgICAibW9kX2F0dGFjayI6IDAsDQogICAgIm1vZF9kZWNheSI6IDEuNSwNCiAgICAibW9kX3JlbGVhc2UiOiAxLjUsDQogICAgIm1vZF9zdXN0YWluIjogMC41LA0KICAgICJtb25vX2xmb18xX2FtcGxpdHVkZSI6IDEsDQogICAgIm1vbm9fbGZvXzFfZnJlcXVlbmN5IjogMSwNCiAgICAibW9ub19sZm9fMV9yZXRyaWdnZXIiOiAyLA0KICAgICJtb25vX2xmb18xX3N5bmMiOiAxLA0KICAgICJtb25vX2xmb18xX3RlbXBvIjogNiwNCiAgICAibW9ub19sZm9fMV93YXZlZm9ybSI6IDAsDQogICAgIm1vbm9fbGZvXzJfYW1wbGl0dWRlIjogMSwNCiAgICAibW9ub19sZm9fMl9mcmVxdWVuY3kiOiAxLA0KICAgICJtb25vX2xmb18yX3JldHJpZ2dlciI6IDIsDQogICAgIm1vbm9fbGZvXzJfc3luYyI6IDEsDQogICAgIm1vbm9fbGZvXzJfdGVtcG8iOiA3LA0KICAgICJtb25vX2xmb18yX3dhdmVmb3JtIjogMCwNCiAgICAibm9pc2Vfdm9sdW1lIjogMCwNCiAgICAibnVtX3N0ZXBzIjogOCwNCiAgICAib3NjXzFfdHJhbnNwb3NlIjogMCwNCiAgICAib3NjXzFfdHVuZSI6IDAsDQogICAgIm9zY18xX3VuaXNvbl9kZXR1bmUiOiAxMCwNCiAgICAib3NjXzFfdW5pc29uX3ZvaWNlcyI6IDUsDQogICAgIm9zY18xX3ZvbHVtZSI6IDAuNTQ3NzIyNTU3NDk5OTk5OTg0NjQsDQogICAgIm9zY18xX3dhdmVmb3JtIjogMCwNCiAgICAib3NjXzJfdHJhbnNwb3NlIjogMCwNCiAgICAib3NjXzJfdHVuZSI6IDAsDQogICAgIm9zY18yX3VuaXNvbl9kZXR1bmUiOiAxMCwNCiAgICAib3NjXzJfdW5pc29uX3ZvaWNlcyI6IDMsDQogICAgIm9zY18yX3ZvbHVtZSI6IDAuNTQ3NzIyNTU3NDk5OTk5OTg0NjQsDQogICAgIm9zY18yX3dhdmVmb3JtIjogMCwNCiAgICAib3NjX2ZlZWRiYWNrX2Ftb3VudCI6IDAsDQogICAgIm9zY19mZWVkYmFja190cmFuc3Bvc2UiOiAwLA0KICAgICJvc2NfZmVlZGJhY2tfdHVuZSI6IDAsDQogICAgInBpdGNoX2JlbmRfcmFuZ2UiOiAyLA0KICAgICJwb2x5X2xmb19hbXBsaXR1ZGUiOiAxLA0KICAgICJwb2x5X2xmb19mcmVxdWVuY3kiOiAxLA0KICAgICJwb2x5X2xmb19zeW5jIjogMSwNCiAgICAicG9seV9sZm9fdGVtcG8iOiA3LA0KICAgICJwb2x5X2xmb193YXZlZm9ybSI6IDAsDQogICAgInBvbHlwaG9ueSI6IDQsDQogICAgInBvcnRhbWVudG8iOiAtNywNCiAgICAicG9ydGFtZW50b190eXBlIjogMCwNCiAgICAicmVzb25hbmNlIjogMCwNCiAgICAicmV2ZXJiX2RhbXBpbmciOiAwLjUsDQogICAgInJldmVyYl9kcnlfd2V0IjogMC41LA0KICAgICJyZXZlcmJfZmVlZGJhY2siOiAwLjkwMDAwMDAwMDAwMDAwMDAyMjIsDQogICAgInJldmVyYl9vbiI6IDEsDQogICAgInN0ZXBfZnJlcXVlbmN5IjogMiwNCiAgICAic3RlcF9zZXFfMDAiOiAwLA0KICAgICJzdGVwX3NlcV8wMSI6IDAsDQogICAgInN0ZXBfc2VxXzAyIjogMCwNCiAgICAic3RlcF9zZXFfMDMiOiAwLA0KICAgICJzdGVwX3NlcV8wNCI6IDAsDQogICAgInN0ZXBfc2VxXzA1IjogMCwNCiAgICAic3RlcF9zZXFfMDYiOiAwLA0KICAgICJzdGVwX3NlcV8wNyI6IDAsDQogICAgInN0ZXBfc2VxXzA4IjogMCwNCiAgICAic3RlcF9zZXFfMDkiOiAwLA0KICAgICJzdGVwX3NlcV8xMCI6IDAsDQogICAgInN0ZXBfc2VxXzExIjogMCwNCiAgICAic3RlcF9zZXFfMTIiOiAwLA0KICAgICJzdGVwX3NlcV8xMyI6IDAsDQogICAgInN0ZXBfc2VxXzE0IjogMCwNCiAgICAic3RlcF9zZXFfMTUiOiAwLA0KICAgICJzdGVwX3NlcV8xNiI6IDAsDQogICAgInN0ZXBfc2VxXzE3IjogMCwNCiAgICAic3RlcF9zZXFfMTgiOiAwLA0KICAgICJzdGVwX3NlcV8xOSI6IDAsDQogICAgInN0ZXBfc2VxXzIwIjogMCwNCiAgICAic3RlcF9zZXFfMjEiOiAwLA0KICAgICJzdGVwX3NlcV8yMiI6IDAsDQogICAgInN0ZXBfc2VxXzIzIjogMCwNCiAgICAic3RlcF9zZXFfMjQiOiAwLA0KICAgICJzdGVwX3NlcV8yNSI6IDAsDQogICAgInN0ZXBfc2VxXzI2IjogMCwNCiAgICAic3RlcF9zZXFfMjciOiAwLA0KICAgICJzdGVwX3NlcV8yOCI6IDAsDQogICAgInN0ZXBfc2VxXzI5IjogMCwNCiAgICAic3RlcF9zZXFfMzAiOiAwLA0KICAgICJzdGVwX3NlcV8zMSI6IDAsDQogICAgInN0ZXBfc2VxdWVuY2VyX3JldHJpZ2dlciI6IDIsDQogICAgInN0ZXBfc2VxdWVuY2VyX3N5bmMiOiAxLA0KICAgICJzdGVwX3NlcXVlbmNlcl90ZW1wbyI6IDcsDQogICAgInN0ZXBfc21vb3RoaW5nIjogMCwNCiAgICAic3R1dHRlcl9mcmVxdWVuY3kiOiAzLA0KICAgICJzdHV0dGVyX29uIjogMCwNCiAgICAic3R1dHRlcl9yZXNhbXBsZV9mcmVxdWVuY3kiOiAxLA0KICAgICJzdHV0dGVyX3Jlc2FtcGxlX3N5bmMiOiAxLA0KICAgICJzdHV0dGVyX3Jlc2FtcGxlX3RlbXBvIjogNiwNCiAgICAic3R1dHRlcl9zb2Z0bmVzcyI6IDAuMjAwMDAwMDAwMDAwMDAwMDExMSwNCiAgICAic3R1dHRlcl9zeW5jIjogMSwNCiAgICAic3R1dHRlcl90ZW1wbyI6IDgsDQogICAgInN1Yl9vY3RhdmUiOiAwLA0KICAgICJzdWJfc2h1ZmZsZSI6IDAsDQogICAgInN1Yl92b2x1bWUiOiAwLA0KICAgICJzdWJfd2F2ZWZvcm0iOiAyLA0KICAgICJ1bmlzb25fMV9oYXJtb25pemUiOiAwLA0KICAgICJ1bmlzb25fMl9oYXJtb25pemUiOiAwLA0KICAgICJ2ZWxvY2l0eV90cmFjayI6IDAsDQogICAgInZvbHVtZSI6IDAsDQogICAgIm1vZHVsYXRpb25zIjogWw0KICAgICAgew0KICAgICAgICAic291cmNlIjogImZpbF9lbnZlbG9wZSIsDQogICAgICAgICJkZXN0aW5hdGlvbiI6ICJjdXRvZmYiLA0KICAgICAgICAiYW1vdW50IjogNDIuMjY1MjA5ODk0MzE4MTMyOTENCiAgICAgIH0sDQogICAgICB7DQogICAgICAgICJzb3VyY2UiOiAidmVsb2NpdHkiLA0KICAgICAgICAiZGVzdGluYXRpb24iOiAidm9sdW1lIiwNCiAgICAgICAgImFtb3VudCI6IDAuOTk5OTQ5Mjc2MjY5MTQ4NzU2ODUNCiAgICAgIH0NCiAgICBdDQogIH0NCn0A" guivisible="0" plugin="uservst:helm64.dll" program="0">
              <key/>
            </vestige>
          </instrument>
          <eldata fcut="14000" fres="0.5" fwet="0" ftype="0">
            <elvol lspd="0.1" latt="0" lspd_numerator="4" lspd_syncmode="0" sustain="0.5" hold="0.5" lamt="0" x100="0" att="0" rel="0.1" lpdel="0" userwavefile="" lspd_denominator="4" pdel="0" ctlenvamt="0" amt="0" lshp="0" dec="0.5"/>
            <elcut lspd="0.1" latt="0" lspd_numerator="4" lspd_syncmode="0" sustain="0.5" hold="0.5" lamt="0" x100="0" att="0" rel="0.1" lpdel="0" userwavefile="" lspd_denominator="4" pdel="0" ctlenvamt="0" amt="0" lshp="0" dec="0.5"/>
            <elres lspd="0.1" latt="0" lspd_numerator="4" lspd_syncmode="0" sustain="0.5" hold="0.5" lamt="0" x100="0" att="0" rel="0.1" lpdel="0" userwavefile="" lspd_denominator="4" pdel="0" ctlenvamt="0" amt="0" lshp="0" dec="0.5"/>
          </eldata>
          <chordcreator chord="0" chord-enabled="1" chordrange="5"/>
          <arpeggiator arpcycle="0" arpdir="0" arptime="200" arptime_syncmode="0" arprange="1" arp-enabled="0" arpgate="100" arprepeats="1" arpskip="0" arpmode="0" arp="0" arptime_denominator="4" arpmiss="0" arptime_numerator="4"/>
          <midiport inputcontroller="0" outputprogram="1" outputchannel="1" fixedoutputnote="-1" inputchannel="0" writable="0" fixedoutputvelocity="-1" fixedinputvelocity="-1" basevelocity="63" readable="0" outputcontroller="0"/>
          <fxchain numofeffects="0" enabled="0"/>
        </instrumenttrack>
        <pattern pos="0" steps="16" muted="0" type="1" name="">
          <note vol="74" pos="0" pan="0" key="49" len="11"/>
          <note vol="74" pos="0" pan="0" key="42" len="11"/>
          <note vol="69" pos="35" pan="0" key="49" len="12"/>
          <note vol="74" pos="71" pan="0" key="49" len="12"/>
          <note vol="74" pos="71" pan="0" key="42" len="12"/>
          <note vol="74" pos="95" pan="0" key="49" len="11"/>
          <note vol="74" pos="95" pan="0" key="42" len="11"/>
          <note vol="69" pos="131" pan="0" key="49" len="12"/>
          <note vol="74" pos="167" pan="0" key="49" len="12"/>
          <note vol="74" pos="167" pan="0" key="42" len="12"/>
          <note vol="74" pos="191" pan="0" key="49" len="12"/>
          <note vol="74" pos="191" pan="0" key="42" len="12"/>
          <note vol="69" pos="227" pan="0" key="49" len="12"/>
          <note vol="74" pos="263" pan="0" key="49" len="12"/>
          <note vol="74" pos="263" pan="0" key="42" len="12"/>
          <note vol="74" pos="287" pan="0" key="49" len="12"/>
          <note vol="74" pos="287" pan="0" key="42" len="12"/>
          <note vol="74" pos="311" pan="0" key="49" len="12"/>
          <note vol="74" pos="335" pan="0" key="50" len="12"/>
          <note vol="74" pos="335" pan="0" key="40" len="12"/>
          <note vol="63" pos="359" pan="0" key="47" len="12"/>
          <note vol="74" pos="383" pan="0" key="49" len="12"/>
          <note vol="74" pos="383" pan="0" key="42" len="12"/>
          <note vol="69" pos="419" pan="0" key="49" len="12"/>
          <note vol="74" pos="455" pan="0" key="49" len="12"/>
          <note vol="74" pos="455" pan="0" key="42" len="12"/>
          <note vol="74" pos="479" pan="0" key="49" len="12"/>
          <note vol="74" pos="479" pan="0" key="42" len="12"/>
          <note vol="69" pos="515" pan="0" key="49" len="12"/>
          <note vol="74" pos="551" pan="0" key="49" len="12"/>
          <note vol="74" pos="551" pan="0" key="42" len="12"/>
          <note vol="74" pos="575" pan="0" key="49" len="12"/>
          <note vol="74" pos="575" pan="0" key="42" len="12"/>
          <note vol="69" pos="611" pan="0" key="49" len="12"/>
          <note vol="74" pos="647" pan="0" key="49" len="12"/>
          <note vol="74" pos="647" pan="0" key="42" len="12"/>
          <note vol="74" pos="671" pan="0" key="49" len="12"/>
          <note vol="74" pos="671" pan="0" key="42" len="12"/>
          <note vol="69" pos="695" pan="0" key="49" len="12"/>
          <note vol="74" pos="719" pan="0" key="52" len="12"/>
          <note vol="74" pos="719" pan="0" key="43" len="12"/>
          <note vol="74" pos="743" pan="0" key="50" len="12"/>
          <note vol="63" pos="743" pan="0" key="47" len="12"/>
          <note vol="74" pos="767" pan="0" key="49" len="11"/>
          <note vol="74" pos="767" pan="0" key="42" len="11"/>
          <note vol="69" pos="803" pan="0" key="49" len="12"/>
          <note vol="74" pos="839" pan="0" key="49" len="12"/>
          <note vol="74" pos="839" pan="0" key="42" len="12"/>
          <note vol="74" pos="863" pan="0" key="49" len="12"/>
          <note vol="74" pos="863" pan="0" key="42" len="12"/>
          <note vol="69" pos="899" pan="0" key="49" len="12"/>
          <note vol="74" pos="935" pan="0" key="49" len="12"/>
          <note vol="74" pos="935" pan="0" key="42" len="12"/>
          <note vol="74" pos="959" pan="0" key="49" len="12"/>
          <note vol="74" pos="959" pan="0" key="42" len="12"/>
          <note vol="69" pos="995" pan="0" key="49" len="12"/>
          <note vol="74" pos="1031" pan="0" key="49" len="12"/>
          <note vol="74" pos="1031" pan="0" key="42" len="12"/>
          <note vol="74" pos="1055" pan="0" key="49" len="12"/>
          <note vol="74" pos="1055" pan="0" key="42" len="12"/>
          <note vol="74" pos="1079" pan="0" key="49" len="12"/>
          <note vol="74" pos="1103" pan="0" key="50" len="12"/>
          <note vol="74" pos="1103" pan="0" key="40" len="12"/>
          <note vol="63" pos="1127" pan="0" key="47" len="12"/>
          <note vol="74" pos="1151" pan="0" key="49" len="12"/>
          <note vol="74" pos="1151" pan="0" key="42" len="12"/>
          <note vol="69" pos="1187" pan="0" key="49" len="12"/>
          <note vol="74" pos="1223" pan="0" key="49" len="12"/>
          <note vol="74" pos="1223" pan="0" key="42" len="12"/>
          <note vol="74" pos="1247" pan="0" key="49" len="12"/>
          <note vol="74" pos="1247" pan="0" key="42" len="12"/>
          <note vol="69" pos="1283" pan="0" key="49" len="12"/>
          <note vol="74" pos="1319" pan="0" key="49" len="12"/>
          <note vol="74" pos="1319" pan="0" key="42" len="12"/>
          <note vol="74" pos="1343" pan="0" key="49" len="12"/>
          <note vol="74" pos="1343" pan="0" key="42" len="12"/>
          <note vol="69" pos="1379" pan="0" key="49" len="12"/>
          <note vol="74" pos="1415" pan="0" key="49" len="12"/>
          <note vol="74" pos="1415" pan="0" key="42" len="12"/>
          <note vol="74" pos="1439" pan="0" key="49" len="12"/>
          <note vol="74" pos="1439" pan="0" key="42" len="12"/>
          <note vol="69" pos="1463" pan="0" key="49" len="12"/>
          <note vol="74" pos="1487" pan="0" key="52" len="12"/>
          <note vol="74" pos="1487" pan="0" key="43" len="12"/>
          <note vol="74" pos="1511" pan="0" key="50" len="12"/>
          <note vol="63" pos="1511" pan="0" key="47" len="12"/>
          <note vol="73" pos="1535" pan="0" key="49" len="11"/>
          <note vol="73" pos="1535" pan="0" key="42" len="11"/>
          <note vol="68" pos="1571" pan="0" key="49" len="12"/>
          <note vol="73" pos="1607" pan="0" key="49" len="12"/>
          <note vol="73" pos="1607" pan="0" key="42" len="12"/>
          <note vol="73" pos="1631" pan="0" key="49" len="12"/>
          <note vol="73" pos="1631" pan="0" key="42" len="12"/>
          <note vol="68" pos="1667" pan="0" key="49" len="12"/>
          <note vol="73" pos="1703" pan="0" key="49" len="12"/>
          <note vol="73" pos="1703" pan="0" key="42" len="12"/>
          <note vol="73" pos="1727" pan="0" key="49" len="12"/>
          <note vol="73" pos="1727" pan="0" key="42" len="12"/>
          <note vol="68" pos="1763" pan="0" key="49" len="12"/>
          <note vol="73" pos="1799" pan="0" key="49" len="12"/>
          <note vol="73" pos="1799" pan="0" key="42" len="12"/>
          <note vol="73" pos="1823" pan="0" key="49" len="12"/>
          <note vol="73" pos="1823" pan="0" key="42" len="12"/>
          <note vol="73" pos="1847" pan="0" key="49" len="12"/>
          <note vol="73" pos="1871" pan="0" key="50" len="12"/>
          <note vol="73" pos="1871" pan="0" key="40" len="12"/>
          <note vol="62" pos="1895" pan="0" key="47" len="12"/>
          <note vol="73" pos="1919" pan="0" key="49" len="12"/>
          <note vol="73" pos="1919" pan="0" key="42" len="12"/>
          <note vol="68" pos="1955" pan="0" key="49" len="12"/>
          <note vol="73" pos="1991" pan="0" key="49" len="12"/>
          <note vol="73" pos="1991" pan="0" key="42" len="12"/>
          <note vol="73" pos="2015" pan="0" key="49" len="12"/>
          <note vol="73" pos="2015" pan="0" key="42" len="12"/>
          <note vol="68" pos="2051" pan="0" key="49" len="12"/>
          <note vol="73" pos="2087" pan="0" key="49" len="12"/>
          <note vol="73" pos="2087" pan="0" key="42" len="12"/>
          <note vol="73" pos="2111" pan="0" key="49" len="12"/>
          <note vol="73" pos="2111" pan="0" key="42" len="12"/>
          <note vol="68" pos="2147" pan="0" key="49" len="12"/>
          <note vol="73" pos="2183" pan="0" key="49" len="12"/>
          <note vol="73" pos="2183" pan="0" key="42" len="12"/>
          <note vol="73" pos="2207" pan="0" key="49" len="12"/>
          <note vol="73" pos="2207" pan="0" key="42" len="12"/>
          <note vol="68" pos="2231" pan="0" key="49" len="12"/>
          <note vol="73" pos="2255" pan="0" key="52" len="12"/>
          <note vol="73" pos="2255" pan="0" key="43" len="12"/>
          <note vol="73" pos="2279" pan="0" key="50" len="12"/>
          <note vol="62" pos="2279" pan="0" key="47" len="12"/>
          <note vol="73" pos="2303" pan="0" key="49" len="11"/>
          <note vol="73" pos="2303" pan="0" key="42" len="11"/>
          <note vol="68" pos="2339" pan="0" key="49" len="12"/>
          <note vol="73" pos="2375" pan="0" key="49" len="12"/>
          <note vol="73" pos="2375" pan="0" key="42" len="12"/>
          <note vol="73" pos="2399" pan="0" key="49" len="12"/>
          <note vol="73" pos="2399" pan="0" key="42" len="12"/>
          <note vol="68" pos="2435" pan="0" key="49" len="12"/>
          <note vol="73" pos="2471" pan="0" key="49" len="12"/>
          <note vol="73" pos="2471" pan="0" key="42" len="12"/>
          <note vol="73" pos="2495" pan="0" key="49" len="12"/>
          <note vol="73" pos="2495" pan="0" key="42" len="12"/>
          <note vol="68" pos="2531" pan="0" key="49" len="12"/>
          <note vol="73" pos="2567" pan="0" key="49" len="12"/>
          <note vol="73" pos="2567" pan="0" key="42" len="12"/>
          <note vol="73" pos="2591" pan="0" key="49" len="12"/>
          <note vol="73" pos="2591" pan="0" key="42" len="12"/>
          <note vol="73" pos="2615" pan="0" key="49" len="12"/>
          <note vol="73" pos="2639" pan="0" key="50" len="12"/>
          <note vol="73" pos="2639" pan="0" key="40" len="12"/>
          <note vol="62" pos="2663" pan="0" key="47" len="12"/>
          <note vol="73" pos="2687" pan="0" key="49" len="12"/>
          <note vol="73" pos="2687" pan="0" key="42" len="12"/>
          <note vol="68" pos="2723" pan="0" key="49" len="12"/>
          <note vol="73" pos="2759" pan="0" key="49" len="12"/>
          <note vol="73" pos="2759" pan="0" key="42" len="12"/>
          <note vol="73" pos="2783" pan="0" key="49" len="12"/>
          <note vol="73" pos="2783" pan="0" key="42" len="12"/>
          <note vol="68" pos="2819" pan="0" key="49" len="12"/>
          <note vol="73" pos="2855" pan="0" key="49" len="12"/>
          <note vol="73" pos="2855" pan="0" key="42" len="12"/>
          <note vol="73" pos="2879" pan="0" key="49" len="12"/>
          <note vol="73" pos="2879" pan="0" key="42" len="12"/>
          <note vol="68" pos="2915" pan="0" key="49" len="12"/>
          <note vol="73" pos="2951" pan="0" key="49" len="12"/>
          <note vol="73" pos="2951" pan="0" key="42" len="12"/>
          <note vol="73" pos="2975" pan="0" key="49" len="12"/>
          <note vol="73" pos="2975" pan="0" key="42" len="12"/>
          <note vol="68" pos="2999" pan="0" key="49" len="12"/>
          <note vol="73" pos="3023" pan="0" key="52" len="12"/>
          <note vol="73" pos="3023" pan="0" key="43" len="12"/>
          <note vol="73" pos="3047" pan="0" key="50" len="12"/>
          <note vol="62" pos="3047" pan="0" key="47" len="12"/>
          <note vol="73" pos="3071" pan="0" key="49" len="11"/>
          <note vol="73" pos="3071" pan="0" key="42" len="11"/>
          <note vol="68" pos="3107" pan="0" key="49" len="12"/>
          <note vol="73" pos="3143" pan="0" key="49" len="12"/>
          <note vol="73" pos="3143" pan="0" key="42" len="12"/>
          <note vol="73" pos="3167" pan="0" key="49" len="12"/>
          <note vol="73" pos="3167" pan="0" key="42" len="12"/>
          <note vol="68" pos="3203" pan="0" key="49" len="12"/>
          <note vol="73" pos="3239" pan="0" key="49" len="12"/>
          <note vol="73" pos="3239" pan="0" key="42" len="12"/>
          <note vol="73" pos="3263" pan="0" key="49" len="12"/>
          <note vol="73" pos="3263" pan="0" key="42" len="12"/>
          <note vol="68" pos="3299" pan="0" key="49" len="12"/>
          <note vol="73" pos="3335" pan="0" key="49" len="12"/>
          <note vol="73" pos="3335" pan="0" key="42" len="12"/>
          <note vol="73" pos="3359" pan="0" key="49" len="12"/>
          <note vol="73" pos="3359" pan="0" key="42" len="12"/>
          <note vol="73" pos="3383" pan="0" key="49" len="12"/>
          <note vol="73" pos="3407" pan="0" key="50" len="12"/>
          <note vol="73" pos="3407" pan="0" key="40" len="12"/>
          <note vol="62" pos="3431" pan="0" key="47" len="12"/>
          <note vol="73" pos="3455" pan="0" key="49" len="12"/>
          <note vol="73" pos="3455" pan="0" key="42" len="12"/>
          <note vol="68" pos="3491" pan="0" key="49" len="12"/>
          <note vol="73" pos="3527" pan="0" key="49" len="12"/>
          <note vol="73" pos="3527" pan="0" key="42" len="12"/>
          <note vol="73" pos="3551" pan="0" key="49" len="12"/>
          <note vol="73" pos="3551" pan="0" key="42" len="12"/>
          <note vol="68" pos="3587" pan="0" key="49" len="12"/>
          <note vol="73" pos="3623" pan="0" key="49" len="12"/>
          <note vol="73" pos="3623" pan="0" key="42" len="12"/>
          <note vol="73" pos="3647" pan="0" key="49" len="12"/>
          <note vol="73" pos="3647" pan="0" key="42" len="12"/>
          <note vol="68" pos="3683" pan="0" key="49" len="12"/>
          <note vol="73" pos="3719" pan="0" key="49" len="12"/>
          <note vol="73" pos="3719" pan="0" key="42" len="12"/>
          <note vol="73" pos="3743" pan="0" key="49" len="12"/>
          <note vol="73" pos="3743" pan="0" key="42" len="12"/>
          <note vol="68" pos="3767" pan="0" key="49" len="12"/>
          <note vol="73" pos="3791" pan="0" key="52" len="12"/>
          <note vol="73" pos="3791" pan="0" key="43" len="12"/>
          <note vol="73" pos="3815" pan="0" key="50" len="12"/>
          <note vol="62" pos="3815" pan="0" key="47" len="12"/>
          <note vol="73" pos="3839" pan="0" key="49" len="11"/>
          <note vol="73" pos="3839" pan="0" key="42" len="11"/>
          <note vol="68" pos="3875" pan="0" key="49" len="12"/>
          <note vol="73" pos="3911" pan="0" key="49" len="12"/>
          <note vol="73" pos="3911" pan="0" key="42" len="12"/>
          <note vol="73" pos="3935" pan="0" key="49" len="12"/>
          <note vol="73" pos="3935" pan="0" key="42" len="12"/>
          <note vol="68" pos="3971" pan="0" key="49" len="12"/>
          <note vol="73" pos="4007" pan="0" key="49" len="12"/>
          <note vol="73" pos="4007" pan="0" key="42" len="12"/>
          <note vol="73" pos="4031" pan="0" key="49" len="12"/>
          <note vol="73" pos="4031" pan="0" key="42" len="12"/>
          <note vol="68" pos="4067" pan="0" key="49" len="12"/>
          <note vol="73" pos="4103" pan="0" key="49" len="12"/>
          <note vol="73" pos="4103" pan="0" key="42" len="12"/>
          <note vol="73" pos="4127" pan="0" key="49" len="12"/>
          <note vol="73" pos="4127" pan="0" key="42" len="12"/>
          <note vol="73" pos="4151" pan="0" key="49" len="12"/>
          <note vol="73" pos="4175" pan="0" key="50" len="12"/>
          <note vol="73" pos="4175" pan="0" key="40" len="12"/>
          <note vol="62" pos="4199" pan="0" key="47" len="12"/>
          <note vol="73" pos="4223" pan="0" key="49" len="12"/>
          <note vol="73" pos="4223" pan="0" key="42" len="12"/>
          <note vol="68" pos="4259" pan="0" key="49" len="12"/>
          <note vol="73" pos="4295" pan="0" key="49" len="12"/>
          <note vol="73" pos="4295" pan="0" key="42" len="12"/>
          <note vol="73" pos="4319" pan="0" key="49" len="12"/>
          <note vol="73" pos="4319" pan="0" key="42" len="12"/>
          <note vol="68" pos="4355" pan="0" key="49" len="12"/>
          <note vol="73" pos="4391" pan="0" key="49" len="12"/>
          <note vol="73" pos="4391" pan="0" key="42" len="12"/>
          <note vol="73" pos="4415" pan="0" key="49" len="12"/>
          <note vol="73" pos="4415" pan="0" key="42" len="12"/>
          <note vol="68" pos="4451" pan="0" key="49" len="12"/>
          <note vol="73" pos="4487" pan="0" key="49" len="12"/>
          <note vol="73" pos="4487" pan="0" key="42" len="12"/>
          <note vol="73" pos="4511" pan="0" key="49" len="12"/>
          <note vol="73" pos="4511" pan="0" key="42" len="12"/>
          <note vol="68" pos="4535" pan="0" key="49" len="12"/>
          <note vol="73" pos="4559" pan="0" key="52" len="12"/>
          <note vol="73" pos="4559" pan="0" key="43" len="12"/>
          <note vol="73" pos="4583" pan="0" key="50" len="12"/>
          <note vol="62" pos="4583" pan="0" key="47" len="12"/>
          <note vol="74" pos="4607" pan="0" key="49" len="11"/>
          <note vol="74" pos="4607" pan="0" key="42" len="11"/>
          <note vol="69" pos="4643" pan="0" key="49" len="12"/>
          <note vol="74" pos="4679" pan="0" key="49" len="12"/>
          <note vol="74" pos="4679" pan="0" key="42" len="12"/>
          <note vol="74" pos="4703" pan="0" key="49" len="12"/>
          <note vol="74" pos="4703" pan="0" key="42" len="12"/>
          <note vol="69" pos="4739" pan="0" key="49" len="12"/>
          <note vol="74" pos="4775" pan="0" key="49" len="12"/>
          <note vol="74" pos="4775" pan="0" key="42" len="12"/>
          <note vol="74" pos="4799" pan="0" key="49" len="12"/>
          <note vol="74" pos="4799" pan="0" key="42" len="12"/>
          <note vol="69" pos="4835" pan="0" key="49" len="12"/>
          <note vol="74" pos="4871" pan="0" key="49" len="12"/>
          <note vol="74" pos="4871" pan="0" key="42" len="12"/>
          <note vol="74" pos="4895" pan="0" key="49" len="12"/>
          <note vol="74" pos="4895" pan="0" key="42" len="12"/>
          <note vol="74" pos="4919" pan="0" key="49" len="12"/>
          <note vol="74" pos="4943" pan="0" key="50" len="12"/>
          <note vol="74" pos="4943" pan="0" key="40" len="12"/>
          <note vol="63" pos="4967" pan="0" key="47" len="12"/>
          <note vol="74" pos="4991" pan="0" key="49" len="12"/>
          <note vol="74" pos="4991" pan="0" key="42" len="12"/>
          <note vol="69" pos="5027" pan="0" key="49" len="12"/>
          <note vol="74" pos="5063" pan="0" key="49" len="12"/>
          <note vol="74" pos="5063" pan="0" key="42" len="12"/>
          <note vol="74" pos="5087" pan="0" key="49" len="12"/>
          <note vol="74" pos="5087" pan="0" key="42" len="12"/>
          <note vol="69" pos="5123" pan="0" key="49" len="12"/>
          <note vol="74" pos="5159" pan="0" key="49" len="12"/>
          <note vol="74" pos="5159" pan="0" key="42" len="12"/>
          <note vol="74" pos="5183" pan="0" key="49" len="12"/>
          <note vol="74" pos="5183" pan="0" key="42" len="12"/>
          <note vol="69" pos="5219" pan="0" key="49" len="12"/>
          <note vol="74" pos="5255" pan="0" key="49" len="12"/>
          <note vol="74" pos="5255" pan="0" key="42" len="12"/>
          <note vol="74" pos="5279" pan="0" key="49" len="12"/>
          <note vol="74" pos="5279" pan="0" key="42" len="12"/>
          <note vol="69" pos="5303" pan="0" key="49" len="12"/>
          <note vol="74" pos="5327" pan="0" key="52" len="12"/>
          <note vol="74" pos="5327" pan="0" key="43" len="12"/>
          <note vol="74" pos="5351" pan="0" key="50" len="12"/>
          <note vol="63" pos="5351" pan="0" key="47" len="12"/>
          <note vol="73" pos="5375" pan="0" key="49" len="11"/>
          <note vol="73" pos="5375" pan="0" key="42" len="11"/>
          <note vol="68" pos="5411" pan="0" key="49" len="12"/>
          <note vol="73" pos="5447" pan="0" key="49" len="12"/>
          <note vol="73" pos="5447" pan="0" key="42" len="12"/>
          <note vol="73" pos="5471" pan="0" key="49" len="12"/>
          <note vol="73" pos="5471" pan="0" key="42" len="12"/>
          <note vol="68" pos="5507" pan="0" key="49" len="12"/>
          <note vol="73" pos="5543" pan="0" key="49" len="12"/>
          <note vol="73" pos="5543" pan="0" key="42" len="12"/>
          <note vol="73" pos="5567" pan="0" key="49" len="12"/>
          <note vol="73" pos="5567" pan="0" key="42" len="12"/>
          <note vol="68" pos="5603" pan="0" key="49" len="12"/>
          <note vol="73" pos="5639" pan="0" key="49" len="12"/>
          <note vol="73" pos="5639" pan="0" key="42" len="12"/>
          <note vol="73" pos="5663" pan="0" key="49" len="12"/>
          <note vol="73" pos="5663" pan="0" key="42" len="12"/>
          <note vol="73" pos="5687" pan="0" key="49" len="12"/>
          <note vol="73" pos="5711" pan="0" key="50" len="12"/>
          <note vol="73" pos="5711" pan="0" key="40" len="12"/>
          <note vol="62" pos="5735" pan="0" key="47" len="12"/>
          <note vol="73" pos="5759" pan="0" key="49" len="12"/>
          <note vol="73" pos="5759" pan="0" key="42" len="12"/>
          <note vol="68" pos="5795" pan="0" key="49" len="12"/>
          <note vol="73" pos="5831" pan="0" key="49" len="12"/>
          <note vol="73" pos="5831" pan="0" key="42" len="12"/>
          <note vol="73" pos="5855" pan="0" key="49" len="12"/>
          <note vol="73" pos="5855" pan="0" key="42" len="12"/>
          <note vol="68" pos="5891" pan="0" key="49" len="12"/>
          <note vol="73" pos="5927" pan="0" key="49" len="12"/>
          <note vol="73" pos="5927" pan="0" key="42" len="12"/>
          <note vol="73" pos="5951" pan="0" key="49" len="12"/>
          <note vol="73" pos="5951" pan="0" key="42" len="12"/>
          <note vol="68" pos="5987" pan="0" key="49" len="12"/>
          <note vol="73" pos="6023" pan="0" key="49" len="12"/>
          <note vol="73" pos="6023" pan="0" key="42" len="12"/>
          <note vol="73" pos="6047" pan="0" key="49" len="12"/>
          <note vol="73" pos="6047" pan="0" key="42" len="12"/>
          <note vol="68" pos="6071" pan="0" key="49" len="12"/>
          <note vol="73" pos="6095" pan="0" key="52" len="12"/>
          <note vol="73" pos="6095" pan="0" key="43" len="12"/>
          <note vol="73" pos="6119" pan="0" key="50" len="12"/>
          <note vol="62" pos="6119" pan="0" key="47" len="12"/>
          <note vol="73" pos="6143" pan="0" key="49" len="11"/>
          <note vol="73" pos="6143" pan="0" key="42" len="11"/>
          <note vol="68" pos="6179" pan="0" key="49" len="12"/>
          <note vol="73" pos="6215" pan="0" key="49" len="12"/>
          <note vol="73" pos="6215" pan="0" key="42" len="12"/>
          <note vol="73" pos="6239" pan="0" key="49" len="12"/>
          <note vol="73" pos="6239" pan="0" key="42" len="12"/>
          <note vol="68" pos="6275" pan="0" key="49" len="12"/>
          <note vol="73" pos="6311" pan="0" key="49" len="12"/>
          <note vol="73" pos="6311" pan="0" key="42" len="12"/>
          <note vol="73" pos="6335" pan="0" key="49" len="12"/>
          <note vol="73" pos="6335" pan="0" key="42" len="12"/>
          <note vol="68" pos="6371" pan="0" key="49" len="12"/>
          <note vol="73" pos="6407" pan="0" key="49" len="12"/>
          <note vol="73" pos="6407" pan="0" key="42" len="12"/>
          <note vol="73" pos="6431" pan="0" key="49" len="12"/>
          <note vol="73" pos="6431" pan="0" key="42" len="12"/>
          <note vol="73" pos="6455" pan="0" key="49" len="12"/>
          <note vol="73" pos="6479" pan="0" key="50" len="12"/>
          <note vol="73" pos="6479" pan="0" key="40" len="12"/>
          <note vol="62" pos="6503" pan="0" key="47" len="12"/>
          <note vol="73" pos="6527" pan="0" key="49" len="12"/>
          <note vol="73" pos="6527" pan="0" key="42" len="12"/>
          <note vol="68" pos="6563" pan="0" key="49" len="12"/>
          <note vol="73" pos="6599" pan="0" key="49" len="12"/>
          <note vol="73" pos="6599" pan="0" key="42" len="12"/>
          <note vol="73" pos="6623" pan="0" key="49" len="12"/>
          <note vol="73" pos="6623" pan="0" key="42" len="12"/>
          <note vol="68" pos="6659" pan="0" key="49" len="12"/>
          <note vol="73" pos="6695" pan="0" key="49" len="12"/>
          <note vol="73" pos="6695" pan="0" key="42" len="12"/>
          <note vol="73" pos="6719" pan="0" key="49" len="12"/>
          <note vol="73" pos="6719" pan="0" key="42" len="12"/>
          <note vol="68" pos="6755" pan="0" key="49" len="12"/>
          <note vol="73" pos="6791" pan="0" key="49" len="12"/>
          <note vol="73" pos="6791" pan="0" key="42" len="12"/>
          <note vol="73" pos="6815" pan="0" key="49" len="12"/>
          <note vol="73" pos="6815" pan="0" key="42" len="12"/>
          <note vol="68" pos="6839" pan="0" key="49" len="12"/>
          <note vol="73" pos="6863" pan="0" key="52" len="12"/>
          <note vol="73" pos="6863" pan="0" key="43" len="12"/>
          <note vol="73" pos="6887" pan="0" key="50" len="12"/>
          <note vol="62" pos="6887" pan="0" key="47" len="12"/>
          <note vol="73" pos="6911" pan="0" key="49" len="11"/>
          <note vol="73" pos="6911" pan="0" key="42" len="11"/>
          <note vol="68" pos="6947" pan="0" key="49" len="12"/>
          <note vol="73" pos="6983" pan="0" key="49" len="12"/>
          <note vol="73" pos="6983" pan="0" key="42" len="12"/>
          <note vol="73" pos="7007" pan="0" key="49" len="12"/>
          <note vol="73" pos="7007" pan="0" key="42" len="12"/>
          <note vol="68" pos="7043" pan="0" key="49" len="12"/>
          <note vol="73" pos="7079" pan="0" key="49" len="12"/>
          <note vol="73" pos="7079" pan="0" key="42" len="12"/>
          <note vol="73" pos="7103" pan="0" key="49" len="12"/>
          <note vol="73" pos="7103" pan="0" key="42" len="12"/>
          <note vol="68" pos="7139" pan="0" key="49" len="12"/>
          <note vol="73" pos="7175" pan="0" key="49" len="12"/>
          <note vol="73" pos="7175" pan="0" key="42" len="12"/>
          <note vol="73" pos="7199" pan="0" key="49" len="12"/>
          <note vol="73" pos="7199" pan="0" key="42" len="12"/>
          <note vol="73" pos="7223" pan="0" key="49" len="12"/>
          <note vol="73" pos="7247" pan="0" key="50" len="12"/>
          <note vol="73" pos="7247" pan="0" key="40" len="12"/>
          <note vol="62" pos="7271" pan="0" key="47" len="12"/>
          <note vol="73" pos="7295" pan="0" key="49" len="12"/>
          <note vol="73" pos="7295" pan="0" key="42" len="12"/>
          <note vol="68" pos="7331" pan="0" key="49" len="12"/>
          <note vol="73" pos="7367" pan="0" key="49" len="12"/>
          <note vol="73" pos="7367" pan="0" key="42" len="12"/>
          <note vol="73" pos="7391" pan="0" key="49" len="12"/>
          <note vol="73" pos="7391" pan="0" key="42" len="12"/>
          <note vol="68" pos="7427" pan="0" key="49" len="12"/>
          <note vol="73" pos="7463" pan="0" key="49" len="12"/>
          <note vol="73" pos="7463" pan="0" key="42" len="12"/>
          <note vol="73" pos="7487" pan="0" key="49" len="12"/>
          <note vol="73" pos="7487" pan="0" key="42" len="12"/>
          <note vol="68" pos="7523" pan="0" key="49" len="12"/>
          <note vol="73" pos="7559" pan="0" key="49" len="12"/>
          <note vol="73" pos="7559" pan="0" key="42" len="12"/>
          <note vol="73" pos="7583" pan="0" key="49" len="12"/>
          <note vol="73" pos="7583" pan="0" key="42" len="12"/>
          <note vol="68" pos="7607" pan="0" key="49" len="12"/>
          <note vol="73" pos="7631" pan="0" key="52" len="12"/>
          <note vol="73" pos="7631" pan="0" key="43" len="12"/>
          <note vol="73" pos="7655" pan="0" key="50" len="12"/>
          <note vol="62" pos="7655" pan="0" key="47" len="12"/>
          <note vol="74" pos="7679" pan="0" key="49" len="11"/>
          <note vol="74" pos="7679" pan="0" key="42" len="11"/>
          <note vol="69" pos="7715" pan="0" key="49" len="12"/>
          <note vol="74" pos="7751" pan="0" key="49" len="12"/>
          <note vol="74" pos="7751" pan="0" key="42" len="12"/>
          <note vol="74" pos="7775" pan="0" key="49" len="12"/>
          <note vol="74" pos="7775" pan="0" key="42" len="12"/>
          <note vol="69" pos="7811" pan="0" key="49" len="12"/>
          <note vol="74" pos="7847" pan="0" key="49" len="12"/>
          <note vol="74" pos="7847" pan="0" key="42" len="12"/>
          <note vol="74" pos="7871" pan="0" key="49" len="12"/>
          <note vol="74" pos="7871" pan="0" key="42" len="12"/>
          <note vol="69" pos="7907" pan="0" key="49" len="12"/>
          <note vol="74" pos="7943" pan="0" key="49" len="12"/>
          <note vol="74" pos="7943" pan="0" key="42" len="12"/>
          <note vol="74" pos="7967" pan="0" key="49" len="12"/>
          <note vol="74" pos="7967" pan="0" key="42" len="12"/>
          <note vol="74" pos="7991" pan="0" key="49" len="12"/>
          <note vol="74" pos="8015" pan="0" key="50" len="12"/>
          <note vol="74" pos="8015" pan="0" key="40" len="12"/>
          <note vol="63" pos="8039" pan="0" key="47" len="12"/>
          <note vol="74" pos="8063" pan="0" key="49" len="12"/>
          <note vol="74" pos="8063" pan="0" key="42" len="12"/>
          <note vol="69" pos="8099" pan="0" key="49" len="12"/>
          <note vol="74" pos="8135" pan="0" key="49" len="12"/>
          <note vol="74" pos="8135" pan="0" key="42" len="12"/>
          <note vol="74" pos="8159" pan="0" key="49" len="12"/>
          <note vol="74" pos="8159" pan="0" key="42" len="12"/>
          <note vol="69" pos="8195" pan="0" key="49" len="12"/>
          <note vol="74" pos="8231" pan="0" key="49" len="12"/>
          <note vol="74" pos="8231" pan="0" key="42" len="12"/>
          <note vol="74" pos="8255" pan="0" key="49" len="12"/>
          <note vol="74" pos="8255" pan="0" key="42" len="12"/>
          <note vol="69" pos="8291" pan="0" key="49" len="12"/>
          <note vol="74" pos="8327" pan="0" key="49" len="12"/>
          <note vol="74" pos="8327" pan="0" key="42" len="12"/>
          <note vol="74" pos="8351" pan="0" key="49" len="12"/>
          <note vol="74" pos="8351" pan="0" key="42" len="12"/>
          <note vol="69" pos="8375" pan="0" key="49" len="12"/>
          <note vol="74" pos="8399" pan="0" key="52" len="12"/>
          <note vol="74" pos="8399" pan="0" key="43" len="12"/>
          <note vol="74" pos="8423" pan="0" key="50" len="12"/>
          <note vol="63" pos="8423" pan="0" key="47" len="12"/>
          <note vol="74" pos="8447" pan="0" key="49" len="11"/>
          <note vol="74" pos="8447" pan="0" key="42" len="11"/>
          <note vol="69" pos="8483" pan="0" key="49" len="12"/>
          <note vol="74" pos="8519" pan="0" key="49" len="12"/>
          <note vol="74" pos="8519" pan="0" key="42" len="12"/>
          <note vol="74" pos="8543" pan="0" key="49" len="12"/>
          <note vol="74" pos="8543" pan="0" key="42" len="12"/>
          <note vol="69" pos="8579" pan="0" key="49" len="12"/>
          <note vol="74" pos="8615" pan="0" key="49" len="12"/>
          <note vol="74" pos="8615" pan="0" key="42" len="12"/>
          <note vol="74" pos="8639" pan="0" key="49" len="12"/>
          <note vol="74" pos="8639" pan="0" key="42" len="12"/>
          <note vol="69" pos="8675" pan="0" key="49" len="12"/>
          <note vol="74" pos="8711" pan="0" key="49" len="12"/>
          <note vol="74" pos="8711" pan="0" key="42" len="12"/>
          <note vol="74" pos="8735" pan="0" key="49" len="12"/>
          <note vol="74" pos="8735" pan="0" key="42" len="12"/>
          <note vol="74" pos="8759" pan="0" key="49" len="12"/>
          <note vol="74" pos="8783" pan="0" key="50" len="12"/>
          <note vol="74" pos="8783" pan="0" key="40" len="12"/>
          <note vol="63" pos="8807" pan="0" key="47" len="12"/>
          <note vol="74" pos="8831" pan="0" key="49" len="12"/>
          <note vol="74" pos="8831" pan="0" key="42" len="12"/>
          <note vol="69" pos="8867" pan="0" key="49" len="12"/>
          <note vol="74" pos="8903" pan="0" key="49" len="12"/>
          <note vol="74" pos="8903" pan="0" key="42" len="12"/>
          <note vol="74" pos="8927" pan="0" key="49" len="12"/>
          <note vol="74" pos="8927" pan="0" key="42" len="12"/>
          <note vol="69" pos="8963" pan="0" key="49" len="12"/>
          <note vol="74" pos="8999" pan="0" key="49" len="12"/>
          <note vol="74" pos="8999" pan="0" key="42" len="12"/>
          <note vol="74" pos="9023" pan="0" key="49" len="12"/>
          <note vol="74" pos="9023" pan="0" key="42" len="12"/>
          <note vol="69" pos="9059" pan="0" key="49" len="12"/>
          <note vol="74" pos="9095" pan="0" key="49" len="12"/>
          <note vol="74" pos="9095" pan="0" key="42" len="12"/>
          <note vol="74" pos="9119" pan="0" key="49" len="12"/>
          <note vol="74" pos="9119" pan="0" key="42" len="12"/>
          <note vol="69" pos="9143" pan="0" key="49" len="12"/>
          <note vol="74" pos="9167" pan="0" key="52" len="12"/>
          <note vol="74" pos="9167" pan="0" key="43" len="12"/>
          <note vol="74" pos="9191" pan="0" key="50" len="12"/>
          <note vol="63" pos="9191" pan="0" key="47" len="12"/>
          <note vol="74" pos="9215" pan="0" key="49" len="11"/>
          <note vol="74" pos="9215" pan="0" key="42" len="11"/>
          <note vol="69" pos="9251" pan="0" key="49" len="12"/>
          <note vol="74" pos="9287" pan="0" key="49" len="12"/>
          <note vol="74" pos="9287" pan="0" key="42" len="12"/>
          <note vol="74" pos="9311" pan="0" key="49" len="12"/>
          <note vol="74" pos="9311" pan="0" key="42" len="12"/>
          <note vol="69" pos="9347" pan="0" key="49" len="12"/>
          <note vol="74" pos="9383" pan="0" key="49" len="12"/>
          <note vol="74" pos="9383" pan="0" key="42" len="12"/>
          <note vol="74" pos="9407" pan="0" key="49" len="12"/>
          <note vol="74" pos="9407" pan="0" key="42" len="12"/>
          <note vol="69" pos="9443" pan="0" key="49" len="12"/>
          <note vol="74" pos="9479" pan="0" key="49" len="12"/>
          <note vol="74" pos="9479" pan="0" key="42" len="12"/>
          <note vol="74" pos="9503" pan="0" key="49" len="12"/>
          <note vol="74" pos="9503" pan="0" key="42" len="12"/>
          <note vol="74" pos="9527" pan="0" key="49" len="12"/>
          <note vol="74" pos="9551" pan="0" key="50" len="12"/>
          <note vol="74" pos="9551" pan="0" key="40" len="12"/>
          <note vol="63" pos="9575" pan="0" key="47" len="12"/>
          <note vol="74" pos="9599" pan="0" key="49" len="12"/>
          <note vol="74" pos="9599" pan="0" key="42" len="12"/>
          <note vol="69" pos="9635" pan="0" key="49" len="12"/>
          <note vol="74" pos="9671" pan="0" key="49" len="12"/>
          <note vol="74" pos="9671" pan="0" key="42" len="12"/>
          <note vol="74" pos="9695" pan="0" key="49" len="12"/>
          <note vol="74" pos="9695" pan="0" key="42" len="12"/>
          <note vol="69" pos="9731" pan="0" key="49" len="12"/>
          <note vol="74" pos="9767" pan="0" key="49" len="12"/>
          <note vol="74" pos="9767" pan="0" key="42" len="12"/>
          <note vol="74" pos="9791" pan="0" key="49" len="12"/>
          <note vol="74" pos="9791" pan="0" key="42" len="12"/>
          <note vol="69" pos="9827" pan="0" key="49" len="12"/>
          <note vol="74" pos="9863" pan="0" key="49" len="12"/>
          <note vol="74" pos="9863" pan="0" key="42" len="12"/>
          <note vol="74" pos="9887" pan="0" key="49" len="12"/>
          <note vol="74" pos="9887" pan="0" key="42" len="12"/>
          <note vol="69" pos="9911" pan="0" key="49" len="12"/>
          <note vol="74" pos="9935" pan="0" key="52" len="12"/>
          <note vol="74" pos="9935" pan="0" key="43" len="12"/>
          <note vol="74" pos="9959" pan="0" key="50" len="12"/>
          <note vol="63" pos="9959" pan="0" key="47" len="12"/>
          <note vol="74" pos="9983" pan="0" key="49" len="11"/>
          <note vol="74" pos="9983" pan="0" key="42" len="11"/>
          <note vol="69" pos="10019" pan="0" key="49" len="12"/>
          <note vol="74" pos="10055" pan="0" key="49" len="12"/>
          <note vol="74" pos="10055" pan="0" key="42" len="12"/>
          <note vol="74" pos="10079" pan="0" key="49" len="12"/>
          <note vol="74" pos="10079" pan="0" key="42" len="12"/>
          <note vol="69" pos="10115" pan="0" key="49" len="12"/>
          <note vol="74" pos="10151" pan="0" key="49" len="12"/>
          <note vol="74" pos="10151" pan="0" key="42" len="12"/>
          <note vol="74" pos="10175" pan="0" key="49" len="12"/>
          <note vol="74" pos="10175" pan="0" key="42" len="12"/>
          <note vol="69" pos="10211" pan="0" key="49" len="12"/>
          <note vol="74" pos="10247" pan="0" key="49" len="12"/>
          <note vol="74" pos="10247" pan="0" key="42" len="12"/>
          <note vol="74" pos="10271" pan="0" key="49" len="12"/>
          <note vol="74" pos="10271" pan="0" key="42" len="12"/>
          <note vol="74" pos="10295" pan="0" key="49" len="12"/>
          <note vol="74" pos="10319" pan="0" key="50" len="12"/>
          <note vol="74" pos="10319" pan="0" key="40" len="12"/>
          <note vol="63" pos="10343" pan="0" key="47" len="12"/>
          <note vol="74" pos="10367" pan="0" key="49" len="12"/>
          <note vol="74" pos="10367" pan="0" key="42" len="12"/>
          <note vol="69" pos="10403" pan="0" key="49" len="12"/>
          <note vol="74" pos="10439" pan="0" key="49" len="12"/>
          <note vol="74" pos="10439" pan="0" key="42" len="12"/>
          <note vol="74" pos="10463" pan="0" key="49" len="12"/>
          <note vol="74" pos="10463" pan="0" key="42" len="12"/>
          <note vol="69" pos="10499" pan="0" key="49" len="12"/>
          <note vol="74" pos="10535" pan="0" key="49" len="12"/>
          <note vol="74" pos="10535" pan="0" key="42" len="12"/>
          <note vol="74" pos="10559" pan="0" key="49" len="12"/>
          <note vol="74" pos="10559" pan="0" key="42" len="12"/>
          <note vol="69" pos="10595" pan="0" key="49" len="12"/>
          <note vol="74" pos="10631" pan="0" key="49" len="12"/>
          <note vol="74" pos="10631" pan="0" key="42" len="12"/>
          <note vol="74" pos="10655" pan="0" key="49" len="12"/>
          <note vol="74" pos="10655" pan="0" key="42" len="12"/>
          <note vol="69" pos="10679" pan="0" key="49" len="12"/>
          <note vol="74" pos="10703" pan="0" key="52" len="12"/>
          <note vol="74" pos="10703" pan="0" key="43" len="12"/>
          <note vol="74" pos="10727" pan="0" key="50" len="12"/>
          <note vol="63" pos="10727" pan="0" key="47" len="12"/>
          <note vol="74" pos="10751" pan="0" key="49" len="11"/>
          <note vol="74" pos="10751" pan="0" key="42" len="11"/>
          <note vol="69" pos="10787" pan="0" key="49" len="12"/>
          <note vol="74" pos="10823" pan="0" key="49" len="12"/>
          <note vol="74" pos="10823" pan="0" key="42" len="12"/>
          <note vol="74" pos="10847" pan="0" key="49" len="12"/>
          <note vol="74" pos="10847" pan="0" key="42" len="12"/>
          <note vol="69" pos="10883" pan="0" key="49" len="12"/>
          <note vol="74" pos="10919" pan="0" key="49" len="12"/>
          <note vol="74" pos="10919" pan="0" key="42" len="12"/>
          <note vol="74" pos="10943" pan="0" key="49" len="12"/>
          <note vol="74" pos="10943" pan="0" key="42" len="12"/>
          <note vol="69" pos="10979" pan="0" key="49" len="12"/>
          <note vol="74" pos="11015" pan="0" key="49" len="12"/>
          <note vol="74" pos="11015" pan="0" key="42" len="12"/>
          <note vol="74" pos="11039" pan="0" key="49" len="12"/>
          <note vol="74" pos="11039" pan="0" key="42" len="12"/>
          <note vol="74" pos="11063" pan="0" key="49" len="12"/>
          <note vol="74" pos="11087" pan="0" key="50" len="12"/>
          <note vol="74" pos="11087" pan="0" key="40" len="12"/>
          <note vol="63" pos="11111" pan="0" key="47" len="12"/>
          <note vol="74" pos="11135" pan="0" key="49" len="12"/>
          <note vol="74" pos="11135" pan="0" key="42" len="12"/>
          <note vol="69" pos="11171" pan="0" key="49" len="12"/>
          <note vol="74" pos="11207" pan="0" key="49" len="12"/>
          <note vol="74" pos="11207" pan="0" key="42" len="12"/>
          <note vol="74" pos="11231" pan="0" key="49" len="12"/>
          <note vol="74" pos="11231" pan="0" key="42" len="12"/>
          <note vol="69" pos="11267" pan="0" key="49" len="12"/>
          <note vol="74" pos="11303" pan="0" key="49" len="12"/>
          <note vol="74" pos="11303" pan="0" key="42" len="12"/>
          <note vol="74" pos="11327" pan="0" key="49" len="12"/>
          <note vol="74" pos="11327" pan="0" key="42" len="12"/>
          <note vol="69" pos="11363" pan="0" key="49" len="12"/>
          <note vol="74" pos="11399" pan="0" key="49" len="12"/>
          <note vol="74" pos="11399" pan="0" key="42" len="12"/>
          <note vol="74" pos="11423" pan="0" key="49" len="12"/>
          <note vol="74" pos="11423" pan="0" key="42" len="12"/>
          <note vol="69" pos="11447" pan="0" key="49" len="12"/>
          <note vol="74" pos="11471" pan="0" key="52" len="12"/>
          <note vol="74" pos="11471" pan="0" key="43" len="12"/>
          <note vol="74" pos="11495" pan="0" key="50" len="12"/>
          <note vol="63" pos="11495" pan="0" key="47" len="12"/>
          <note vol="74" pos="11519" pan="0" key="49" len="11"/>
          <note vol="74" pos="11519" pan="0" key="42" len="11"/>
          <note vol="69" pos="11555" pan="0" key="49" len="12"/>
          <note vol="74" pos="11591" pan="0" key="49" len="12"/>
          <note vol="74" pos="11591" pan="0" key="42" len="12"/>
          <note vol="74" pos="11615" pan="0" key="49" len="12"/>
          <note vol="74" pos="11615" pan="0" key="42" len="12"/>
          <note vol="69" pos="11651" pan="0" key="49" len="12"/>
          <note vol="74" pos="11687" pan="0" key="49" len="12"/>
          <note vol="74" pos="11687" pan="0" key="42" len="12"/>
          <note vol="74" pos="11711" pan="0" key="49" len="12"/>
          <note vol="74" pos="11711" pan="0" key="42" len="12"/>
          <note vol="69" pos="11747" pan="0" key="49" len="12"/>
          <note vol="74" pos="11783" pan="0" key="49" len="12"/>
          <note vol="74" pos="11783" pan="0" key="42" len="12"/>
          <note vol="74" pos="11807" pan="0" key="49" len="12"/>
          <note vol="74" pos="11807" pan="0" key="42" len="12"/>
          <note vol="74" pos="11831" pan="0" key="49" len="12"/>
          <note vol="74" pos="11855" pan="0" key="50" len="12"/>
          <note vol="74" pos="11855" pan="0" key="40" len="12"/>
          <note vol="63" pos="11879" pan="0" key="47" len="12"/>
          <note vol="74" pos="11903" pan="0" key="49" len="12"/>
          <note vol="74" pos="11903" pan="0" key="42" len="12"/>
          <note vol="69" pos="11939" pan="0" key="49" len="12"/>
          <note vol="74" pos="11975" pan="0" key="49" len="12"/>
          <note vol="74" pos="11975" pan="0" key="42" len="12"/>
          <note vol="74" pos="11999" pan="0" key="49" len="12"/>
          <note vol="74" pos="11999" pan="0" key="42" len="12"/>
          <note vol="69" pos="12035" pan="0" key="49" len="12"/>
          <note vol="74" pos="12071" pan="0" key="49" len="12"/>
          <note vol="74" pos="12071" pan="0" key="42" len="12"/>
          <note vol="74" pos="12095" pan="0" key="49" len="12"/>
          <note vol="74" pos="12095" pan="0" key="42" len="12"/>
          <note vol="69" pos="12131" pan="0" key="49" len="12"/>
          <note vol="74" pos="12167" pan="0" key="49" len="12"/>
          <note vol="74" pos="12167" pan="0" key="42" len="12"/>
          <note vol="74" pos="12191" pan="0" key="49" len="12"/>
          <note vol="74" pos="12191" pan="0" key="42" len="12"/>
          <note vol="69" pos="12215" pan="0" key="49" len="12"/>
          <note vol="74" pos="12239" pan="0" key="52" len="12"/>
          <note vol="74" pos="12239" pan="0" key="43" len="12"/>
          <note vol="74" pos="12263" pan="0" key="50" len="12"/>
          <note vol="63" pos="12263" pan="0" key="47" len="12"/>
          <note vol="74" pos="12287" pan="0" key="49" len="11"/>
          <note vol="74" pos="12287" pan="0" key="42" len="11"/>
          <note vol="69" pos="12323" pan="0" key="49" len="12"/>
          <note vol="74" pos="12359" pan="0" key="49" len="12"/>
          <note vol="74" pos="12359" pan="0" key="42" len="12"/>
          <note vol="74" pos="12383" pan="0" key="49" len="12"/>
          <note vol="74" pos="12383" pan="0" key="42" len="12"/>
          <note vol="69" pos="12419" pan="0" key="49" len="12"/>
          <note vol="74" pos="12455" pan="0" key="49" len="12"/>
          <note vol="74" pos="12455" pan="0" key="42" len="12"/>
          <note vol="74" pos="12479" pan="0" key="49" len="12"/>
          <note vol="74" pos="12479" pan="0" key="42" len="12"/>
          <note vol="69" pos="12515" pan="0" key="49" len="12"/>
          <note vol="74" pos="12551" pan="0" key="49" len="12"/>
          <note vol="74" pos="12551" pan="0" key="42" len="12"/>
          <note vol="74" pos="12575" pan="0" key="49" len="12"/>
          <note vol="74" pos="12575" pan="0" key="42" len="12"/>
          <note vol="74" pos="12599" pan="0" key="49" len="12"/>
          <note vol="74" pos="12623" pan="0" key="50" len="12"/>
          <note vol="74" pos="12623" pan="0" key="40" len="12"/>
          <note vol="63" pos="12647" pan="0" key="47" len="12"/>
          <note vol="74" pos="12671" pan="0" key="49" len="12"/>
          <note vol="74" pos="12671" pan="0" key="42" len="12"/>
          <note vol="69" pos="12707" pan="0" key="49" len="12"/>
          <note vol="74" pos="12743" pan="0" key="49" len="12"/>
          <note vol="74" pos="12743" pan="0" key="42" len="12"/>
          <note vol="74" pos="12767" pan="0" key="49" len="12"/>
          <note vol="74" pos="12767" pan="0" key="42" len="12"/>
          <note vol="69" pos="12803" pan="0" key="49" len="12"/>
          <note vol="74" pos="12839" pan="0" key="49" len="12"/>
          <note vol="74" pos="12839" pan="0" key="42" len="12"/>
          <note vol="74" pos="12863" pan="0" key="49" len="12"/>
          <note vol="74" pos="12863" pan="0" key="42" len="12"/>
          <note vol="69" pos="12899" pan="0" key="49" len="12"/>
          <note vol="74" pos="12935" pan="0" key="49" len="12"/>
          <note vol="74" pos="12935" pan="0" key="42" len="12"/>
          <note vol="74" pos="12959" pan="0" key="49" len="12"/>
          <note vol="74" pos="12959" pan="0" key="42" len="12"/>
          <note vol="69" pos="12983" pan="0" key="49" len="12"/>
          <note vol="74" pos="13007" pan="0" key="52" len="12"/>
          <note vol="74" pos="13007" pan="0" key="43" len="12"/>
          <note vol="74" pos="13031" pan="0" key="50" len="12"/>
          <note vol="63" pos="13031" pan="0" key="47" len="12"/>
          <note vol="74" pos="13055" pan="0" key="49" len="11"/>
          <note vol="74" pos="13055" pan="0" key="42" len="11"/>
          <note vol="69" pos="13091" pan="0" key="49" len="12"/>
          <note vol="74" pos="13127" pan="0" key="49" len="12"/>
          <note vol="74" pos="13127" pan="0" key="42" len="12"/>
          <note vol="74" pos="13151" pan="0" key="49" len="12"/>
          <note vol="74" pos="13151" pan="0" key="42" len="12"/>
          <note vol="69" pos="13187" pan="0" key="49" len="12"/>
          <note vol="74" pos="13223" pan="0" key="49" len="12"/>
          <note vol="74" pos="13223" pan="0" key="42" len="12"/>
          <note vol="74" pos="13247" pan="0" key="49" len="12"/>
          <note vol="74" pos="13247" pan="0" key="42" len="12"/>
          <note vol="69" pos="13283" pan="0" key="49" len="12"/>
          <note vol="74" pos="13319" pan="0" key="49" len="12"/>
          <note vol="74" pos="13319" pan="0" key="42" len="12"/>
          <note vol="74" pos="13343" pan="0" key="49" len="12"/>
          <note vol="74" pos="13343" pan="0" key="42" len="12"/>
          <note vol="74" pos="13367" pan="0" key="49" len="12"/>
          <note vol="74" pos="13391" pan="0" key="50" len="12"/>
          <note vol="74" pos="13391" pan="0" key="40" len="12"/>
          <note vol="63" pos="13415" pan="0" key="47" len="12"/>
          <note vol="74" pos="13439" pan="0" key="49" len="12"/>
          <note vol="74" pos="13439" pan="0" key="42" len="12"/>
          <note vol="69" pos="13475" pan="0" key="49" len="12"/>
          <note vol="74" pos="13511" pan="0" key="49" len="12"/>
          <note vol="74" pos="13511" pan="0" key="42" len="12"/>
          <note vol="74" pos="13535" pan="0" key="49" len="12"/>
          <note vol="74" pos="13535" pan="0" key="42" len="12"/>
          <note vol="69" pos="13571" pan="0" key="49" len="12"/>
          <note vol="74" pos="13607" pan="0" key="49" len="12"/>
          <note vol="74" pos="13607" pan="0" key="42" len="12"/>
          <note vol="74" pos="13631" pan="0" key="49" len="12"/>
          <note vol="74" pos="13631" pan="0" key="42" len="12"/>
          <note vol="69" pos="13667" pan="0" key="49" len="12"/>
          <note vol="74" pos="13703" pan="0" key="49" len="12"/>
          <note vol="74" pos="13703" pan="0" key="42" len="12"/>
          <note vol="74" pos="13727" pan="0" key="49" len="12"/>
          <note vol="74" pos="13727" pan="0" key="42" len="12"/>
          <note vol="69" pos="13751" pan="0" key="49" len="12"/>
          <note vol="74" pos="13775" pan="0" key="52" len="12"/>
          <note vol="74" pos="13775" pan="0" key="43" len="12"/>
          <note vol="74" pos="13799" pan="0" key="50" len="12"/>
          <note vol="63" pos="13799" pan="0" key="47" len="12"/>
          <note vol="74" pos="13823" pan="0" key="49" len="11"/>
          <note vol="74" pos="13823" pan="0" key="42" len="11"/>
          <note vol="69" pos="13859" pan="0" key="49" len="12"/>
          <note vol="74" pos="13895" pan="0" key="49" len="12"/>
          <note vol="74" pos="13895" pan="0" key="42" len="12"/>
          <note vol="74" pos="13919" pan="0" key="49" len="12"/>
          <note vol="74" pos="13919" pan="0" key="42" len="12"/>
          <note vol="69" pos="13955" pan="0" key="49" len="12"/>
          <note vol="74" pos="13991" pan="0" key="49" len="12"/>
          <note vol="74" pos="13991" pan="0" key="42" len="12"/>
          <note vol="74" pos="14015" pan="0" key="49" len="12"/>
          <note vol="74" pos="14015" pan="0" key="42" len="12"/>
          <note vol="69" pos="14051" pan="0" key="49" len="12"/>
          <note vol="74" pos="14087" pan="0" key="49" len="12"/>
          <note vol="74" pos="14087" pan="0" key="42" len="12"/>
          <note vol="74" pos="14111" pan="0" key="49" len="12"/>
          <note vol="74" pos="14111" pan="0" key="42" len="12"/>
          <note vol="74" pos="14135" pan="0" key="49" len="12"/>
          <note vol="74" pos="14159" pan="0" key="50" len="12"/>
          <note vol="74" pos="14159" pan="0" key="40" len="12"/>
          <note vol="63" pos="14183" pan="0" key="47" len="12"/>
          <note vol="74" pos="14207" pan="0" key="49" len="12"/>
          <note vol="74" pos="14207" pan="0" key="42" len="12"/>
          <note vol="69" pos="14243" pan="0" key="49" len="12"/>
          <note vol="74" pos="14279" pan="0" key="49" len="12"/>
          <note vol="74" pos="14279" pan="0" key="42" len="12"/>
          <note vol="74" pos="14303" pan="0" key="49" len="12"/>
          <note vol="74" pos="14303" pan="0" key="42" len="12"/>
          <note vol="69" pos="14339" pan="0" key="49" len="12"/>
          <note vol="74" pos="14375" pan="0" key="49" len="12"/>
          <note vol="74" pos="14375" pan="0" key="42" len="12"/>
          <note vol="74" pos="14399" pan="0" key="49" len="12"/>
          <note vol="74" pos="14399" pan="0" key="42" len="12"/>
          <note vol="69" pos="14435" pan="0" key="49" len="12"/>
          <note vol="74" pos="14471" pan="0" key="49" len="12"/>
          <note vol="74" pos="14471" pan="0" key="42" len="12"/>
          <note vol="74" pos="14495" pan="0" key="49" len="12"/>
          <note vol="74" pos="14495" pan="0" key="42" len="12"/>
          <note vol="69" pos="14519" pan="0" key="49" len="12"/>
          <note vol="74" pos="14543" pan="0" key="52" len="12"/>
          <note vol="74" pos="14543" pan="0" key="43" len="12"/>
          <note vol="74" pos="14567" pan="0" key="50" len="12"/>
          <note vol="63" pos="14567" pan="0" key="47" len="12"/>
          <note vol="74" pos="14591" pan="0" key="49" len="11"/>
          <note vol="74" pos="14591" pan="0" key="42" len="11"/>
          <note vol="69" pos="14627" pan="0" key="49" len="12"/>
          <note vol="74" pos="14663" pan="0" key="49" len="12"/>
          <note vol="74" pos="14663" pan="0" key="42" len="12"/>
          <note vol="74" pos="14687" pan="0" key="49" len="12"/>
          <note vol="74" pos="14687" pan="0" key="42" len="12"/>
          <note vol="69" pos="14723" pan="0" key="49" len="12"/>
          <note vol="74" pos="14759" pan="0" key="49" len="12"/>
          <note vol="74" pos="14759" pan="0" key="42" len="12"/>
          <note vol="74" pos="14783" pan="0" key="49" len="12"/>
          <note vol="74" pos="14783" pan="0" key="42" len="12"/>
          <note vol="69" pos="14819" pan="0" key="49" len="12"/>
          <note vol="74" pos="14855" pan="0" key="49" len="12"/>
          <note vol="74" pos="14855" pan="0" key="42" len="12"/>
          <note vol="74" pos="14879" pan="0" key="49" len="12"/>
          <note vol="74" pos="14879" pan="0" key="42" len="12"/>
          <note vol="74" pos="14903" pan="0" key="49" len="12"/>
          <note vol="74" pos="14927" pan="0" key="50" len="12"/>
          <note vol="74" pos="14927" pan="0" key="40" len="12"/>
          <note vol="63" pos="14951" pan="0" key="47" len="12"/>
          <note vol="74" pos="14975" pan="0" key="49" len="12"/>
          <note vol="74" pos="14975" pan="0" key="42" len="12"/>
          <note vol="69" pos="15011" pan="0" key="49" len="12"/>
          <note vol="74" pos="15047" pan="0" key="49" len="12"/>
          <note vol="74" pos="15047" pan="0" key="42" len="12"/>
          <note vol="74" pos="15071" pan="0" key="49" len="12"/>
          <note vol="74" pos="15071" pan="0" key="42" len="12"/>
          <note vol="69" pos="15107" pan="0" key="49" len="12"/>
          <note vol="74" pos="15143" pan="0" key="49" len="12"/>
          <note vol="74" pos="15143" pan="0" key="42" len="12"/>
          <note vol="74" pos="15167" pan="0" key="49" len="12"/>
          <note vol="74" pos="15167" pan="0" key="42" len="12"/>
          <note vol="69" pos="15203" pan="0" key="49" len="12"/>
          <note vol="74" pos="15239" pan="0" key="49" len="12"/>
          <note vol="74" pos="15239" pan="0" key="42" len="12"/>
          <note vol="74" pos="15263" pan="0" key="49" len="12"/>
          <note vol="74" pos="15263" pan="0" key="42" len="12"/>
          <note vol="69" pos="15287" pan="0" key="49" len="12"/>
          <note vol="74" pos="15311" pan="0" key="52" len="12"/>
          <note vol="74" pos="15311" pan="0" key="43" len="12"/>
          <note vol="74" pos="15335" pan="0" key="50" len="12"/>
          <note vol="63" pos="15335" pan="0" key="47" len="12"/>
          <note vol="74" pos="15359" pan="0" key="49" len="11"/>
          <note vol="74" pos="15359" pan="0" key="42" len="11"/>
          <note vol="69" pos="15395" pan="0" key="49" len="12"/>
          <note vol="74" pos="15431" pan="0" key="49" len="12"/>
          <note vol="74" pos="15431" pan="0" key="42" len="12"/>
          <note vol="74" pos="15455" pan="0" key="49" len="12"/>
          <note vol="74" pos="15455" pan="0" key="42" len="12"/>
          <note vol="69" pos="15491" pan="0" key="49" len="12"/>
          <note vol="74" pos="15527" pan="0" key="49" len="12"/>
          <note vol="74" pos="15527" pan="0" key="42" len="12"/>
          <note vol="74" pos="15551" pan="0" key="49" len="12"/>
          <note vol="74" pos="15551" pan="0" key="42" len="12"/>
          <note vol="69" pos="15587" pan="0" key="49" len="12"/>
          <note vol="74" pos="15623" pan="0" key="49" len="12"/>
          <note vol="74" pos="15623" pan="0" key="42" len="12"/>
          <note vol="74" pos="15647" pan="0" key="49" len="12"/>
          <note vol="74" pos="15647" pan="0" key="42" len="12"/>
          <note vol="74" pos="15671" pan="0" key="49" len="12"/>
          <note vol="74" pos="15695" pan="0" key="50" len="12"/>
          <note vol="74" pos="15695" pan="0" key="40" len="12"/>
          <note vol="63" pos="15719" pan="0" key="47" len="12"/>
          <note vol="74" pos="15743" pan="0" key="49" len="12"/>
          <note vol="74" pos="15743" pan="0" key="42" len="12"/>
          <note vol="69" pos="15779" pan="0" key="49" len="12"/>
          <note vol="74" pos="15815" pan="0" key="49" len="12"/>
          <note vol="74" pos="15815" pan="0" key="42" len="12"/>
          <note vol="74" pos="15839" pan="0" key="49" len="12"/>
          <note vol="74" pos="15839" pan="0" key="42" len="12"/>
          <note vol="69" pos="15875" pan="0" key="49" len="12"/>
          <note vol="74" pos="15911" pan="0" key="49" len="12"/>
          <note vol="74" pos="15911" pan="0" key="42" len="12"/>
          <note vol="74" pos="15935" pan="0" key="49" len="12"/>
          <note vol="74" pos="15935" pan="0" key="42" len="12"/>
          <note vol="69" pos="15971" pan="0" key="49" len="12"/>
          <note vol="74" pos="16007" pan="0" key="49" len="12"/>
          <note vol="74" pos="16007" pan="0" key="42" len="12"/>
          <note vol="74" pos="16031" pan="0" key="49" len="12"/>
          <note vol="74" pos="16031" pan="0" key="42" len="12"/>
          <note vol="69" pos="16055" pan="0" key="49" len="12"/>
          <note vol="74" pos="16079" pan="0" key="52" len="12"/>
          <note vol="74" pos="16079" pan="0" key="43" len="12"/>
          <note vol="74" pos="16103" pan="0" key="50" len="12"/>
          <note vol="63" pos="16103" pan="0" key="47" len="12"/>
          <note vol="74" pos="16127" pan="0" key="49" len="11"/>
          <note vol="74" pos="16127" pan="0" key="42" len="11"/>
          <note vol="69" pos="16163" pan="0" key="49" len="12"/>
          <note vol="74" pos="16199" pan="0" key="49" len="12"/>
          <note vol="74" pos="16199" pan="0" key="42" len="12"/>
          <note vol="74" pos="16223" pan="0" key="49" len="12"/>
          <note vol="74" pos="16223" pan="0" key="42" len="12"/>
          <note vol="69" pos="16259" pan="0" key="49" len="12"/>
          <note vol="74" pos="16295" pan="0" key="49" len="12"/>
          <note vol="74" pos="16295" pan="0" key="42" len="12"/>
          <note vol="74" pos="16319" pan="0" key="49" len="12"/>
          <note vol="74" pos="16319" pan="0" key="42" len="12"/>
          <note vol="69" pos="16355" pan="0" key="49" len="12"/>
          <note vol="74" pos="16391" pan="0" key="49" len="12"/>
          <note vol="74" pos="16391" pan="0" key="42" len="12"/>
          <note vol="74" pos="16415" pan="0" key="49" len="12"/>
          <note vol="74" pos="16415" pan="0" key="42" len="12"/>
          <note vol="74" pos="16439" pan="0" key="49" len="12"/>
          <note vol="74" pos="16463" pan="0" key="50" len="12"/>
          <note vol="74" pos="16463" pan="0" key="40" len="12"/>
          <note vol="63" pos="16487" pan="0" key="47" len="12"/>
          <note vol="74" pos="16511" pan="0" key="49" len="12"/>
          <note vol="74" pos="16511" pan="0" key="42" len="12"/>
          <note vol="69" pos="16547" pan="0" key="49" len="12"/>
          <note vol="74" pos="16583" pan="0" key="49" len="12"/>
          <note vol="74" pos="16583" pan="0" key="42" len="12"/>
          <note vol="74" pos="16607" pan="0" key="49" len="12"/>
          <note vol="74" pos="16607" pan="0" key="42" len="12"/>
          <note vol="69" pos="16643" pan="0" key="49" len="12"/>
          <note vol="74" pos="16679" pan="0" key="49" len="12"/>
          <note vol="74" pos="16679" pan="0" key="42" len="12"/>
          <note vol="74" pos="16703" pan="0" key="49" len="12"/>
          <note vol="74" pos="16703" pan="0" key="42" len="12"/>
          <note vol="69" pos="16739" pan="0" key="49" len="12"/>
          <note vol="74" pos="16775" pan="0" key="49" len="12"/>
          <note vol="74" pos="16775" pan="0" key="42" len="12"/>
          <note vol="74" pos="16799" pan="0" key="49" len="12"/>
          <note vol="74" pos="16799" pan="0" key="42" len="12"/>
          <note vol="69" pos="16823" pan="0" key="49" len="12"/>
          <note vol="74" pos="16847" pan="0" key="52" len="12"/>
          <note vol="74" pos="16847" pan="0" key="43" len="12"/>
          <note vol="74" pos="16871" pan="0" key="50" len="12"/>
          <note vol="63" pos="16871" pan="0" key="47" len="12"/>
        </pattern>
        <pattern pos="16896" steps="16" muted="0" type="1" name="">
          <note vol="74" pos="0" pan="0" key="49" len="11"/>
          <note vol="74" pos="0" pan="0" key="42" len="11"/>
          <note vol="69" pos="35" pan="0" key="49" len="12"/>
          <note vol="74" pos="71" pan="0" key="49" len="12"/>
          <note vol="74" pos="71" pan="0" key="42" len="12"/>
          <note vol="74" pos="95" pan="0" key="49" len="11"/>
          <note vol="74" pos="95" pan="0" key="42" len="11"/>
          <note vol="69" pos="131" pan="0" key="49" len="12"/>
          <note vol="74" pos="167" pan="0" key="49" len="12"/>
          <note vol="74" pos="167" pan="0" key="42" len="12"/>
          <note vol="74" pos="191" pan="0" key="49" len="12"/>
          <note vol="74" pos="191" pan="0" key="42" len="12"/>
          <note vol="69" pos="227" pan="0" key="49" len="12"/>
          <note vol="74" pos="263" pan="0" key="49" len="12"/>
          <note vol="74" pos="263" pan="0" key="42" len="12"/>
          <note vol="74" pos="287" pan="0" key="49" len="12"/>
          <note vol="74" pos="287" pan="0" key="42" len="12"/>
          <note vol="74" pos="311" pan="0" key="49" len="12"/>
          <note vol="74" pos="335" pan="0" key="50" len="12"/>
          <note vol="74" pos="335" pan="0" key="40" len="12"/>
          <note vol="63" pos="359" pan="0" key="47" len="12"/>
          <note vol="74" pos="383" pan="0" key="49" len="12"/>
          <note vol="74" pos="383" pan="0" key="42" len="12"/>
          <note vol="69" pos="419" pan="0" key="49" len="12"/>
          <note vol="74" pos="455" pan="0" key="49" len="12"/>
          <note vol="74" pos="455" pan="0" key="42" len="12"/>
          <note vol="74" pos="479" pan="0" key="49" len="12"/>
          <note vol="74" pos="479" pan="0" key="42" len="12"/>
          <note vol="69" pos="515" pan="0" key="49" len="12"/>
          <note vol="74" pos="551" pan="0" key="49" len="12"/>
          <note vol="74" pos="551" pan="0" key="42" len="12"/>
          <note vol="74" pos="575" pan="0" key="49" len="12"/>
          <note vol="74" pos="575" pan="0" key="42" len="12"/>
          <note vol="69" pos="611" pan="0" key="49" len="12"/>
          <note vol="74" pos="647" pan="0" key="49" len="12"/>
          <note vol="74" pos="647" pan="0" key="42" len="12"/>
          <note vol="74" pos="671" pan="0" key="49" len="12"/>
          <note vol="74" pos="671" pan="0" key="42" len="12"/>
          <note vol="69" pos="695" pan="0" key="49" len="12"/>
          <note vol="74" pos="719" pan="0" key="52" len="12"/>
          <note vol="74" pos="719" pan="0" key="43" len="12"/>
          <note vol="74" pos="743" pan="0" key="50" len="12"/>
          <note vol="63" pos="743" pan="0" key="47" len="12"/>
          <note vol="74" pos="767" pan="0" key="49" len="11"/>
          <note vol="74" pos="767" pan="0" key="42" len="11"/>
          <note vol="69" pos="803" pan="0" key="49" len="12"/>
          <note vol="74" pos="839" pan="0" key="49" len="12"/>
          <note vol="74" pos="839" pan="0" key="42" len="12"/>
          <note vol="74" pos="863" pan="0" key="49" len="12"/>
          <note vol="74" pos="863" pan="0" key="42" len="12"/>
          <note vol="69" pos="899" pan="0" key="49" len="12"/>
          <note vol="74" pos="935" pan="0" key="49" len="12"/>
          <note vol="74" pos="935" pan="0" key="42" len="12"/>
          <note vol="74" pos="959" pan="0" key="49" len="12"/>
          <note vol="74" pos="959" pan="0" key="42" len="12"/>
          <note vol="69" pos="995" pan="0" key="49" len="12"/>
          <note vol="74" pos="1031" pan="0" key="49" len="12"/>
          <note vol="74" pos="1031" pan="0" key="42" len="12"/>
          <note vol="74" pos="1055" pan="0" key="49" len="12"/>
          <note vol="74" pos="1055" pan="0" key="42" len="12"/>
          <note vol="74" pos="1079" pan="0" key="49" len="12"/>
          <note vol="74" pos="1103" pan="0" key="50" len="12"/>
          <note vol="74" pos="1103" pan="0" key="40" len="12"/>
          <note vol="63" pos="1127" pan="0" key="47" len="12"/>
          <note vol="74" pos="1151" pan="0" key="49" len="12"/>
          <note vol="74" pos="1151" pan="0" key="42" len="12"/>
          <note vol="69" pos="1187" pan="0" key="49" len="12"/>
          <note vol="74" pos="1223" pan="0" key="49" len="12"/>
          <note vol="74" pos="1223" pan="0" key="42" len="12"/>
          <note vol="74" pos="1247" pan="0" key="49" len="12"/>
          <note vol="74" pos="1247" pan="0" key="42" len="12"/>
          <note vol="69" pos="1283" pan="0" key="49" len="12"/>
          <note vol="74" pos="1319" pan="0" key="49" len="12"/>
          <note vol="74" pos="1319" pan="0" key="42" len="12"/>
          <note vol="74" pos="1343" pan="0" key="49" len="12"/>
          <note vol="74" pos="1343" pan="0" key="42" len="12"/>
          <note vol="69" pos="1379" pan="0" key="49" len="12"/>
          <note vol="74" pos="1415" pan="0" key="49" len="12"/>
          <note vol="74" pos="1415" pan="0" key="42" len="12"/>
          <note vol="74" pos="1439" pan="0" key="49" len="12"/>
          <note vol="74" pos="1439" pan="0" key="42" len="12"/>
          <note vol="69" pos="1463" pan="0" key="49" len="12"/>
          <note vol="74" pos="1487" pan="0" key="52" len="12"/>
          <note vol="74" pos="1487" pan="0" key="43" len="12"/>
          <note vol="74" pos="1511" pan="0" key="50" len="12"/>
          <note vol="63" pos="1511" pan="0" key="47" len="12"/>
          <note vol="73" pos="1535" pan="0" key="49" len="11"/>
          <note vol="73" pos="1535" pan="0" key="42" len="11"/>
          <note vol="68" pos="1571" pan="0" key="49" len="12"/>
          <note vol="73" pos="1607" pan="0" key="49" len="12"/>
          <note vol="73" pos="1607" pan="0" key="42" len="12"/>
          <note vol="73" pos="1631" pan="0" key="49" len="12"/>
          <note vol="73" pos="1631" pan="0" key="42" len="12"/>
          <note vol="68" pos="1667" pan="0" key="49" len="12"/>
          <note vol="73" pos="1703" pan="0" key="49" len="12"/>
          <note vol="73" pos="1703" pan="0" key="42" len="12"/>
          <note vol="73" pos="1727" pan="0" key="49" len="12"/>
          <note vol="73" pos="1727" pan="0" key="42" len="12"/>
          <note vol="68" pos="1763" pan="0" key="49" len="12"/>
          <note vol="73" pos="1799" pan="0" key="49" len="12"/>
          <note vol="73" pos="1799" pan="0" key="42" len="12"/>
          <note vol="73" pos="1823" pan="0" key="49" len="12"/>
          <note vol="73" pos="1823" pan="0" key="42" len="12"/>
          <note vol="73" pos="1847" pan="0" key="49" len="12"/>
          <note vol="73" pos="1871" pan="0" key="50" len="12"/>
          <note vol="73" pos="1871" pan="0" key="40" len="12"/>
          <note vol="62" pos="1895" pan="0" key="47" len="12"/>
          <note vol="73" pos="1919" pan="0" key="49" len="12"/>
          <note vol="73" pos="1919" pan="0" key="42" len="12"/>
          <note vol="68" pos="1955" pan="0" key="49" len="12"/>
          <note vol="73" pos="1991" pan="0" key="49" len="12"/>
          <note vol="73" pos="1991" pan="0" key="42" len="12"/>
          <note vol="73" pos="2015" pan="0" key="49" len="12"/>
          <note vol="73" pos="2015" pan="0" key="42" len="12"/>
          <note vol="68" pos="2051" pan="0" key="49" len="12"/>
          <note vol="73" pos="2087" pan="0" key="49" len="12"/>
          <note vol="73" pos="2087" pan="0" key="42" len="12"/>
          <note vol="73" pos="2111" pan="0" key="49" len="12"/>
          <note vol="73" pos="2111" pan="0" key="42" len="12"/>
          <note vol="68" pos="2147" pan="0" key="49" len="12"/>
          <note vol="73" pos="2183" pan="0" key="49" len="12"/>
          <note vol="73" pos="2183" pan="0" key="42" len="12"/>
          <note vol="73" pos="2207" pan="0" key="49" len="12"/>
          <note vol="73" pos="2207" pan="0" key="42" len="12"/>
          <note vol="68" pos="2231" pan="0" key="49" len="12"/>
          <note vol="73" pos="2255" pan="0" key="52" len="12"/>
          <note vol="73" pos="2255" pan="0" key="43" len="12"/>
          <note vol="73" pos="2279" pan="0" key="50" len="12"/>
          <note vol="62" pos="2279" pan="0" key="47" len="12"/>
          <note vol="73" pos="2303" pan="0" key="49" len="11"/>
          <note vol="73" pos="2303" pan="0" key="42" len="11"/>
          <note vol="68" pos="2339" pan="0" key="49" len="12"/>
          <note vol="73" pos="2375" pan="0" key="49" len="12"/>
          <note vol="73" pos="2375" pan="0" key="42" len="12"/>
          <note vol="73" pos="2399" pan="0" key="49" len="12"/>
          <note vol="73" pos="2399" pan="0" key="42" len="12"/>
          <note vol="68" pos="2435" pan="0" key="49" len="12"/>
          <note vol="73" pos="2471" pan="0" key="49" len="12"/>
          <note vol="73" pos="2471" pan="0" key="42" len="12"/>
          <note vol="73" pos="2495" pan="0" key="49" len="12"/>
          <note vol="73" pos="2495" pan="0" key="42" len="12"/>
          <note vol="68" pos="2531" pan="0" key="49" len="12"/>
          <note vol="73" pos="2567" pan="0" key="49" len="12"/>
          <note vol="73" pos="2567" pan="0" key="42" len="12"/>
          <note vol="73" pos="2591" pan="0" key="49" len="12"/>
          <note vol="73" pos="2591" pan="0" key="42" len="12"/>
          <note vol="73" pos="2615" pan="0" key="49" len="12"/>
          <note vol="73" pos="2639" pan="0" key="50" len="12"/>
          <note vol="73" pos="2639" pan="0" key="40" len="12"/>
          <note vol="62" pos="2663" pan="0" key="47" len="12"/>
          <note vol="73" pos="2687" pan="0" key="49" len="12"/>
          <note vol="73" pos="2687" pan="0" key="42" len="12"/>
          <note vol="68" pos="2723" pan="0" key="49" len="12"/>
          <note vol="73" pos="2759" pan="0" key="49" len="12"/>
          <note vol="73" pos="2759" pan="0" key="42" len="12"/>
          <note vol="73" pos="2783" pan="0" key="49" len="12"/>
          <note vol="73" pos="2783" pan="0" key="42" len="12"/>
          <note vol="68" pos="2819" pan="0" key="49" len="12"/>
          <note vol="73" pos="2855" pan="0" key="49" len="12"/>
          <note vol="73" pos="2855" pan="0" key="42" len="12"/>
          <note vol="73" pos="2879" pan="0" key="49" len="12"/>
          <note vol="73" pos="2879" pan="0" key="42" len="12"/>
          <note vol="68" pos="2915" pan="0" key="49" len="12"/>
          <note vol="73" pos="2951" pan="0" key="49" len="12"/>
          <note vol="73" pos="2951" pan="0" key="42" len="12"/>
          <note vol="73" pos="2975" pan="0" key="49" len="12"/>
          <note vol="73" pos="2975" pan="0" key="42" len="12"/>
          <note vol="68" pos="2999" pan="0" key="49" len="12"/>
          <note vol="73" pos="3023" pan="0" key="52" len="12"/>
          <note vol="73" pos="3023" pan="0" key="43" len="12"/>
          <note vol="73" pos="3047" pan="0" key="50" len="12"/>
          <note vol="62" pos="3047" pan="0" key="47" len="12"/>
          <note vol="73" pos="3071" pan="0" key="49" len="11"/>
          <note vol="73" pos="3071" pan="0" key="42" len="11"/>
          <note vol="68" pos="3107" pan="0" key="49" len="12"/>
          <note vol="73" pos="3143" pan="0" key="49" len="12"/>
          <note vol="73" pos="3143" pan="0" key="42" len="12"/>
          <note vol="73" pos="3167" pan="0" key="49" len="12"/>
          <note vol="73" pos="3167" pan="0" key="42" len="12"/>
          <note vol="68" pos="3203" pan="0" key="49" len="12"/>
          <note vol="73" pos="3239" pan="0" key="49" len="12"/>
          <note vol="73" pos="3239" pan="0" key="42" len="12"/>
          <note vol="73" pos="3263" pan="0" key="49" len="12"/>
          <note vol="73" pos="3263" pan="0" key="42" len="12"/>
          <note vol="68" pos="3299" pan="0" key="49" len="12"/>
          <note vol="73" pos="3335" pan="0" key="49" len="12"/>
          <note vol="73" pos="3335" pan="0" key="42" len="12"/>
          <note vol="73" pos="3359" pan="0" key="49" len="12"/>
          <note vol="73" pos="3359" pan="0" key="42" len="12"/>
          <note vol="73" pos="3383" pan="0" key="49" len="12"/>
          <note vol="73" pos="3407" pan="0" key="50" len="12"/>
          <note vol="73" pos="3407" pan="0" key="40" len="12"/>
          <note vol="62" pos="3431" pan="0" key="47" len="12"/>
          <note vol="73" pos="3455" pan="0" key="49" len="12"/>
          <note vol="73" pos="3455" pan="0" key="42" len="12"/>
          <note vol="68" pos="3491" pan="0" key="49" len="12"/>
          <note vol="73" pos="3527" pan="0" key="49" len="12"/>
          <note vol="73" pos="3527" pan="0" key="42" len="12"/>
          <note vol="73" pos="3551" pan="0" key="49" len="12"/>
          <note vol="73" pos="3551" pan="0" key="42" len="12"/>
          <note vol="68" pos="3587" pan="0" key="49" len="12"/>
          <note vol="73" pos="3623" pan="0" key="49" len="12"/>
          <note vol="73" pos="3623" pan="0" key="42" len="12"/>
          <note vol="73" pos="3647" pan="0" key="49" len="12"/>
          <note vol="73" pos="3647" pan="0" key="42" len="12"/>
          <note vol="68" pos="3683" pan="0" key="49" len="12"/>
          <note vol="73" pos="3719" pan="0" key="49" len="12"/>
          <note vol="73" pos="3719" pan="0" key="42" len="12"/>
          <note vol="73" pos="3743" pan="0" key="49" len="12"/>
          <note vol="73" pos="3743" pan="0" key="42" len="12"/>
          <note vol="68" pos="3767" pan="0" key="49" len="12"/>
          <note vol="73" pos="3791" pan="0" key="52" len="12"/>
          <note vol="73" pos="3791" pan="0" key="43" len="12"/>
          <note vol="73" pos="3815" pan="0" key="50" len="12"/>
          <note vol="62" pos="3815" pan="0" key="47" len="12"/>
          <note vol="73" pos="3839" pan="0" key="49" len="11"/>
          <note vol="73" pos="3839" pan="0" key="42" len="11"/>
          <note vol="68" pos="3875" pan="0" key="49" len="12"/>
          <note vol="73" pos="3911" pan="0" key="49" len="12"/>
          <note vol="73" pos="3911" pan="0" key="42" len="12"/>
          <note vol="73" pos="3935" pan="0" key="49" len="12"/>
          <note vol="73" pos="3935" pan="0" key="42" len="12"/>
          <note vol="68" pos="3971" pan="0" key="49" len="12"/>
          <note vol="73" pos="4007" pan="0" key="49" len="12"/>
          <note vol="73" pos="4007" pan="0" key="42" len="12"/>
          <note vol="73" pos="4031" pan="0" key="49" len="12"/>
          <note vol="73" pos="4031" pan="0" key="42" len="12"/>
          <note vol="68" pos="4067" pan="0" key="49" len="12"/>
          <note vol="73" pos="4103" pan="0" key="49" len="12"/>
          <note vol="73" pos="4103" pan="0" key="42" len="12"/>
          <note vol="73" pos="4127" pan="0" key="49" len="12"/>
          <note vol="73" pos="4127" pan="0" key="42" len="12"/>
          <note vol="73" pos="4151" pan="0" key="49" len="12"/>
          <note vol="73" pos="4175" pan="0" key="50" len="12"/>
          <note vol="73" pos="4175" pan="0" key="40" len="12"/>
          <note vol="62" pos="4199" pan="0" key="47" len="12"/>
          <note vol="73" pos="4223" pan="0" key="49" len="12"/>
          <note vol="73" pos="4223" pan="0" key="42" len="12"/>
          <note vol="68" pos="4259" pan="0" key="49" len="12"/>
          <note vol="73" pos="4295" pan="0" key="49" len="12"/>
          <note vol="73" pos="4295" pan="0" key="42" len="12"/>
          <note vol="73" pos="4319" pan="0" key="49" len="12"/>
          <note vol="73" pos="4319" pan="0" key="42" len="12"/>
          <note vol="68" pos="4355" pan="0" key="49" len="12"/>
          <note vol="73" pos="4391" pan="0" key="49" len="12"/>
          <note vol="73" pos="4391" pan="0" key="42" len="12"/>
          <note vol="73" pos="4415" pan="0" key="49" len="12"/>
          <note vol="73" pos="4415" pan="0" key="42" len="12"/>
          <note vol="68" pos="4451" pan="0" key="49" len="12"/>
          <note vol="73" pos="4487" pan="0" key="49" len="12"/>
          <note vol="73" pos="4487" pan="0" key="42" len="12"/>
          <note vol="73" pos="4511" pan="0" key="49" len="12"/>
          <note vol="73" pos="4511" pan="0" key="42" len="12"/>
          <note vol="68" pos="4535" pan="0" key="49" len="12"/>
          <note vol="73" pos="4559" pan="0" key="52" len="12"/>
          <note vol="73" pos="4559" pan="0" key="43" len="12"/>
          <note vol="73" pos="4583" pan="0" key="50" len="12"/>
          <note vol="62" pos="4583" pan="0" key="47" len="12"/>
          <note vol="74" pos="4607" pan="0" key="49" len="11"/>
          <note vol="74" pos="4607" pan="0" key="42" len="11"/>
          <note vol="69" pos="4643" pan="0" key="49" len="12"/>
          <note vol="74" pos="4679" pan="0" key="49" len="12"/>
          <note vol="74" pos="4679" pan="0" key="42" len="12"/>
          <note vol="74" pos="4703" pan="0" key="49" len="12"/>
          <note vol="74" pos="4703" pan="0" key="42" len="12"/>
          <note vol="69" pos="4739" pan="0" key="49" len="12"/>
          <note vol="74" pos="4775" pan="0" key="49" len="12"/>
          <note vol="74" pos="4775" pan="0" key="42" len="12"/>
          <note vol="74" pos="4799" pan="0" key="49" len="12"/>
          <note vol="74" pos="4799" pan="0" key="42" len="12"/>
          <note vol="69" pos="4835" pan="0" key="49" len="12"/>
          <note vol="74" pos="4871" pan="0" key="49" len="12"/>
          <note vol="74" pos="4871" pan="0" key="42" len="12"/>
          <note vol="74" pos="4895" pan="0" key="49" len="12"/>
          <note vol="74" pos="4895" pan="0" key="42" len="12"/>
          <note vol="74" pos="4919" pan="0" key="49" len="12"/>
          <note vol="74" pos="4943" pan="0" key="50" len="12"/>
          <note vol="74" pos="4943" pan="0" key="40" len="12"/>
          <note vol="63" pos="4967" pan="0" key="47" len="12"/>
          <note vol="74" pos="4991" pan="0" key="49" len="12"/>
          <note vol="74" pos="4991" pan="0" key="42" len="12"/>
          <note vol="69" pos="5027" pan="0" key="49" len="12"/>
          <note vol="74" pos="5063" pan="0" key="49" len="12"/>
          <note vol="74" pos="5063" pan="0" key="42" len="12"/>
          <note vol="74" pos="5087" pan="0" key="49" len="12"/>
          <note vol="74" pos="5087" pan="0" key="42" len="12"/>
          <note vol="69" pos="5123" pan="0" key="49" len="12"/>
          <note vol="74" pos="5159" pan="0" key="49" len="12"/>
          <note vol="74" pos="5159" pan="0" key="42" len="12"/>
          <note vol="74" pos="5183" pan="0" key="49" len="12"/>
          <note vol="74" pos="5183" pan="0" key="42" len="12"/>
          <note vol="69" pos="5219" pan="0" key="49" len="12"/>
          <note vol="74" pos="5255" pan="0" key="49" len="12"/>
          <note vol="74" pos="5255" pan="0" key="42" len="12"/>
          <note vol="74" pos="5279" pan="0" key="49" len="12"/>
          <note vol="74" pos="5279" pan="0" key="42" len="12"/>
          <note vol="69" pos="5303" pan="0" key="49" len="12"/>
          <note vol="74" pos="5327" pan="0" key="52" len="12"/>
          <note vol="74" pos="5327" pan="0" key="43" len="12"/>
          <note vol="74" pos="5351" pan="0" key="50" len="12"/>
          <note vol="63" pos="5351" pan="0" key="47" len="12"/>
          <note vol="73" pos="5375" pan="0" key="49" len="11"/>
          <note vol="73" pos="5375" pan="0" key="42" len="11"/>
          <note vol="68" pos="5411" pan="0" key="49" len="12"/>
          <note vol="73" pos="5447" pan="0" key="49" len="12"/>
          <note vol="73" pos="5447" pan="0" key="42" len="12"/>
          <note vol="73" pos="5471" pan="0" key="49" len="12"/>
          <note vol="73" pos="5471" pan="0" key="42" len="12"/>
          <note vol="68" pos="5507" pan="0" key="49" len="12"/>
          <note vol="73" pos="5543" pan="0" key="49" len="12"/>
          <note vol="73" pos="5543" pan="0" key="42" len="12"/>
          <note vol="73" pos="5567" pan="0" key="49" len="12"/>
          <note vol="73" pos="5567" pan="0" key="42" len="12"/>
          <note vol="68" pos="5603" pan="0" key="49" len="12"/>
          <note vol="73" pos="5639" pan="0" key="49" len="12"/>
          <note vol="73" pos="5639" pan="0" key="42" len="12"/>
          <note vol="73" pos="5663" pan="0" key="49" len="12"/>
          <note vol="73" pos="5663" pan="0" key="42" len="12"/>
          <note vol="73" pos="5687" pan="0" key="49" len="12"/>
          <note vol="73" pos="5711" pan="0" key="50" len="12"/>
          <note vol="73" pos="5711" pan="0" key="40" len="12"/>
          <note vol="62" pos="5735" pan="0" key="47" len="12"/>
          <note vol="73" pos="5759" pan="0" key="49" len="12"/>
          <note vol="73" pos="5759" pan="0" key="42" len="12"/>
          <note vol="68" pos="5795" pan="0" key="49" len="12"/>
          <note vol="73" pos="5831" pan="0" key="49" len="12"/>
          <note vol="73" pos="5831" pan="0" key="42" len="12"/>
          <note vol="73" pos="5855" pan="0" key="49" len="12"/>
          <note vol="73" pos="5855" pan="0" key="42" len="12"/>
          <note vol="68" pos="5891" pan="0" key="49" len="12"/>
          <note vol="73" pos="5927" pan="0" key="49" len="12"/>
          <note vol="73" pos="5927" pan="0" key="42" len="12"/>
          <note vol="73" pos="5951" pan="0" key="49" len="12"/>
          <note vol="73" pos="5951" pan="0" key="42" len="12"/>
          <note vol="68" pos="5987" pan="0" key="49" len="12"/>
          <note vol="73" pos="6023" pan="0" key="49" len="12"/>
          <note vol="73" pos="6023" pan="0" key="42" len="12"/>
          <note vol="73" pos="6047" pan="0" key="49" len="12"/>
          <note vol="73" pos="6047" pan="0" key="42" len="12"/>
          <note vol="68" pos="6071" pan="0" key="49" len="12"/>
          <note vol="73" pos="6095" pan="0" key="52" len="12"/>
          <note vol="73" pos="6095" pan="0" key="43" len="12"/>
          <note vol="73" pos="6119" pan="0" key="50" len="12"/>
          <note vol="62" pos="6119" pan="0" key="47" len="12"/>
          <note vol="73" pos="6143" pan="0" key="49" len="11"/>
          <note vol="73" pos="6143" pan="0" key="42" len="11"/>
          <note vol="68" pos="6179" pan="0" key="49" len="12"/>
          <note vol="73" pos="6215" pan="0" key="49" len="12"/>
          <note vol="73" pos="6215" pan="0" key="42" len="12"/>
          <note vol="73" pos="6239" pan="0" key="49" len="12"/>
          <note vol="73" pos="6239" pan="0" key="42" len="12"/>
          <note vol="68" pos="6275" pan="0" key="49" len="12"/>
          <note vol="73" pos="6311" pan="0" key="49" len="12"/>
          <note vol="73" pos="6311" pan="0" key="42" len="12"/>
          <note vol="73" pos="6335" pan="0" key="49" len="12"/>
          <note vol="73" pos="6335" pan="0" key="42" len="12"/>
          <note vol="68" pos="6371" pan="0" key="49" len="12"/>
          <note vol="73" pos="6407" pan="0" key="49" len="12"/>
          <note vol="73" pos="6407" pan="0" key="42" len="12"/>
          <note vol="73" pos="6431" pan="0" key="49" len="12"/>
          <note vol="73" pos="6431" pan="0" key="42" len="12"/>
          <note vol="73" pos="6455" pan="0" key="49" len="12"/>
          <note vol="73" pos="6479" pan="0" key="50" len="12"/>
          <note vol="73" pos="6479" pan="0" key="40" len="12"/>
          <note vol="62" pos="6503" pan="0" key="47" len="12"/>
          <note vol="73" pos="6527" pan="0" key="49" len="12"/>
          <note vol="73" pos="6527" pan="0" key="42" len="12"/>
          <note vol="68" pos="6563" pan="0" key="49" len="12"/>
          <note vol="73" pos="6599" pan="0" key="49" len="12"/>
          <note vol="73" pos="6599" pan="0" key="42" len="12"/>
          <note vol="73" pos="6623" pan="0" key="49" len="12"/>
          <note vol="73" pos="6623" pan="0" key="42" len="12"/>
          <note vol="68" pos="6659" pan="0" key="49" len="12"/>
          <note vol="73" pos="6695" pan="0" key="49" len="12"/>
          <note vol="73" pos="6695" pan="0" key="42" len="12"/>
          <note vol="73" pos="6719" pan="0" key="49" len="12"/>
          <note vol="73" pos="6719" pan="0" key="42" len="12"/>
          <note vol="68" pos="6755" pan="0" key="49" len="12"/>
          <note vol="73" pos="6791" pan="0" key="49" len="12"/>
          <note vol="73" pos="6791" pan="0" key="42" len="12"/>
          <note vol="73" pos="6815" pan="0" key="49" len="12"/>
          <note vol="73" pos="6815" pan="0" key="42" len="12"/>
          <note vol="68" pos="6839" pan="0" key="49" len="12"/>
          <note vol="73" pos="6863" pan="0" key="52" len="12"/>
          <note vol="73" pos="6863" pan="0" key="43" len="12"/>
          <note vol="73" pos="6887" pan="0" key="50" len="12"/>
          <note vol="62" pos="6887" pan="0" key="47" len="12"/>
          <note vol="73" pos="6911" pan="0" key="49" len="11"/>
          <note vol="73" pos="6911" pan="0" key="42" len="11"/>
          <note vol="68" pos="6947" pan="0" key="49" len="12"/>
          <note vol="73" pos="6983" pan="0" key="49" len="12"/>
          <note vol="73" pos="6983" pan="0" key="42" len="12"/>
          <note vol="73" pos="7007" pan="0" key="49" len="12"/>
          <note vol="73" pos="7007" pan="0" key="42" len="12"/>
          <note vol="68" pos="7043" pan="0" key="49" len="12"/>
          <note vol="73" pos="7079" pan="0" key="49" len="12"/>
          <note vol="73" pos="7079" pan="0" key="42" len="12"/>
          <note vol="73" pos="7103" pan="0" key="49" len="12"/>
          <note vol="73" pos="7103" pan="0" key="42" len="12"/>
          <note vol="68" pos="7139" pan="0" key="49" len="12"/>
          <note vol="73" pos="7175" pan="0" key="49" len="12"/>
          <note vol="73" pos="7175" pan="0" key="42" len="12"/>
          <note vol="73" pos="7199" pan="0" key="49" len="12"/>
          <note vol="73" pos="7199" pan="0" key="42" len="12"/>
          <note vol="73" pos="7223" pan="0" key="49" len="12"/>
          <note vol="73" pos="7247" pan="0" key="50" len="12"/>
          <note vol="73" pos="7247" pan="0" key="40" len="12"/>
          <note vol="62" pos="7271" pan="0" key="47" len="12"/>
          <note vol="73" pos="7295" pan="0" key="49" len="12"/>
          <note vol="73" pos="7295" pan="0" key="42" len="12"/>
          <note vol="68" pos="7331" pan="0" key="49" len="12"/>
          <note vol="73" pos="7367" pan="0" key="49" len="12"/>
          <note vol="73" pos="7367" pan="0" key="42" len="12"/>
          <note vol="73" pos="7391" pan="0" key="49" len="12"/>
          <note vol="73" pos="7391" pan="0" key="42" len="12"/>
          <note vol="68" pos="7427" pan="0" key="49" len="12"/>
          <note vol="73" pos="7463" pan="0" key="49" len="12"/>
          <note vol="73" pos="7463" pan="0" key="42" len="12"/>
          <note vol="73" pos="7487" pan="0" key="49" len="12"/>
          <note vol="73" pos="7487" pan="0" key="42" len="12"/>
          <note vol="68" pos="7523" pan="0" key="49" len="12"/>
          <note vol="73" pos="7559" pan="0" key="49" len="12"/>
          <note vol="73" pos="7559" pan="0" key="42" len="12"/>
          <note vol="73" pos="7583" pan="0" key="49" len="12"/>
          <note vol="73" pos="7583" pan="0" key="42" len="12"/>
          <note vol="68" pos="7607" pan="0" key="49" len="12"/>
          <note vol="73" pos="7631" pan="0" key="52" len="12"/>
          <note vol="73" pos="7631" pan="0" key="43" len="12"/>
          <note vol="73" pos="7655" pan="0" key="50" len="12"/>
          <note vol="62" pos="7655" pan="0" key="47" len="12"/>
          <note vol="74" pos="7679" pan="0" key="49" len="11"/>
          <note vol="74" pos="7679" pan="0" key="42" len="11"/>
          <note vol="69" pos="7715" pan="0" key="49" len="12"/>
          <note vol="74" pos="7751" pan="0" key="49" len="12"/>
          <note vol="74" pos="7751" pan="0" key="42" len="12"/>
          <note vol="74" pos="7775" pan="0" key="49" len="12"/>
          <note vol="74" pos="7775" pan="0" key="42" len="12"/>
          <note vol="69" pos="7811" pan="0" key="49" len="12"/>
          <note vol="74" pos="7847" pan="0" key="49" len="12"/>
          <note vol="74" pos="7847" pan="0" key="42" len="12"/>
          <note vol="74" pos="7871" pan="0" key="49" len="12"/>
          <note vol="74" pos="7871" pan="0" key="42" len="12"/>
          <note vol="69" pos="7907" pan="0" key="49" len="12"/>
          <note vol="74" pos="7943" pan="0" key="49" len="12"/>
          <note vol="74" pos="7943" pan="0" key="42" len="12"/>
          <note vol="74" pos="7967" pan="0" key="49" len="12"/>
          <note vol="74" pos="7967" pan="0" key="42" len="12"/>
          <note vol="74" pos="7991" pan="0" key="49" len="12"/>
          <note vol="74" pos="8015" pan="0" key="50" len="12"/>
          <note vol="74" pos="8015" pan="0" key="40" len="12"/>
          <note vol="63" pos="8039" pan="0" key="47" len="12"/>
          <note vol="74" pos="8063" pan="0" key="49" len="12"/>
          <note vol="74" pos="8063" pan="0" key="42" len="12"/>
          <note vol="69" pos="8099" pan="0" key="49" len="12"/>
          <note vol="74" pos="8135" pan="0" key="49" len="12"/>
          <note vol="74" pos="8135" pan="0" key="42" len="12"/>
          <note vol="74" pos="8159" pan="0" key="49" len="12"/>
          <note vol="74" pos="8159" pan="0" key="42" len="12"/>
          <note vol="69" pos="8195" pan="0" key="49" len="12"/>
          <note vol="74" pos="8231" pan="0" key="49" len="12"/>
          <note vol="74" pos="8231" pan="0" key="42" len="12"/>
          <note vol="74" pos="8255" pan="0" key="49" len="12"/>
          <note vol="74" pos="8255" pan="0" key="42" len="12"/>
          <note vol="69" pos="8291" pan="0" key="49" len="12"/>
          <note vol="74" pos="8327" pan="0" key="49" len="12"/>
          <note vol="74" pos="8327" pan="0" key="42" len="12"/>
          <note vol="74" pos="8351" pan="0" key="49" len="12"/>
          <note vol="74" pos="8351" pan="0" key="42" len="12"/>
          <note vol="69" pos="8375" pan="0" key="49" len="12"/>
          <note vol="74" pos="8399" pan="0" key="52" len="12"/>
          <note vol="74" pos="8399" pan="0" key="43" len="12"/>
          <note vol="74" pos="8423" pan="0" key="50" len="12"/>
          <note vol="63" pos="8423" pan="0" key="47" len="12"/>
          <note vol="74" pos="8447" pan="0" key="49" len="11"/>
          <note vol="74" pos="8447" pan="0" key="42" len="11"/>
          <note vol="69" pos="8483" pan="0" key="49" len="12"/>
          <note vol="74" pos="8519" pan="0" key="49" len="12"/>
          <note vol="74" pos="8519" pan="0" key="42" len="12"/>
          <note vol="74" pos="8543" pan="0" key="49" len="12"/>
          <note vol="74" pos="8543" pan="0" key="42" len="12"/>
          <note vol="69" pos="8579" pan="0" key="49" len="12"/>
          <note vol="74" pos="8615" pan="0" key="49" len="12"/>
          <note vol="74" pos="8615" pan="0" key="42" len="12"/>
          <note vol="74" pos="8639" pan="0" key="49" len="12"/>
          <note vol="74" pos="8639" pan="0" key="42" len="12"/>
          <note vol="69" pos="8675" pan="0" key="49" len="12"/>
          <note vol="74" pos="8711" pan="0" key="49" len="12"/>
          <note vol="74" pos="8711" pan="0" key="42" len="12"/>
          <note vol="74" pos="8735" pan="0" key="49" len="12"/>
          <note vol="74" pos="8735" pan="0" key="42" len="12"/>
          <note vol="74" pos="8759" pan="0" key="49" len="12"/>
          <note vol="74" pos="8783" pan="0" key="50" len="12"/>
          <note vol="74" pos="8783" pan="0" key="40" len="12"/>
          <note vol="63" pos="8807" pan="0" key="47" len="12"/>
          <note vol="74" pos="8831" pan="0" key="49" len="12"/>
          <note vol="74" pos="8831" pan="0" key="42" len="12"/>
          <note vol="69" pos="8867" pan="0" key="49" len="12"/>
          <note vol="74" pos="8903" pan="0" key="49" len="12"/>
          <note vol="74" pos="8903" pan="0" key="42" len="12"/>
          <note vol="74" pos="8927" pan="0" key="49" len="12"/>
          <note vol="74" pos="8927" pan="0" key="42" len="12"/>
          <note vol="69" pos="8963" pan="0" key="49" len="12"/>
          <note vol="74" pos="8999" pan="0" key="49" len="12"/>
          <note vol="74" pos="8999" pan="0" key="42" len="12"/>
          <note vol="74" pos="9023" pan="0" key="49" len="12"/>
          <note vol="74" pos="9023" pan="0" key="42" len="12"/>
          <note vol="69" pos="9059" pan="0" key="49" len="12"/>
          <note vol="74" pos="9095" pan="0" key="49" len="12"/>
          <note vol="74" pos="9095" pan="0" key="42" len="12"/>
          <note vol="74" pos="9119" pan="0" key="49" len="12"/>
          <note vol="74" pos="9119" pan="0" key="42" len="12"/>
          <note vol="69" pos="9143" pan="0" key="49" len="12"/>
          <note vol="74" pos="9167" pan="0" key="52" len="12"/>
          <note vol="74" pos="9167" pan="0" key="43" len="12"/>
          <note vol="74" pos="9191" pan="0" key="50" len="12"/>
          <note vol="63" pos="9191" pan="0" key="47" len="12"/>
          <note vol="74" pos="9215" pan="0" key="49" len="11"/>
          <note vol="74" pos="9215" pan="0" key="42" len="11"/>
          <note vol="69" pos="9251" pan="0" key="49" len="12"/>
          <note vol="74" pos="9287" pan="0" key="49" len="12"/>
          <note vol="74" pos="9287" pan="0" key="42" len="12"/>
          <note vol="74" pos="9311" pan="0" key="49" len="12"/>
          <note vol="74" pos="9311" pan="0" key="42" len="12"/>
          <note vol="69" pos="9347" pan="0" key="49" len="12"/>
          <note vol="74" pos="9383" pan="0" key="49" len="12"/>
          <note vol="74" pos="9383" pan="0" key="42" len="12"/>
          <note vol="74" pos="9407" pan="0" key="49" len="12"/>
          <note vol="74" pos="9407" pan="0" key="42" len="12"/>
          <note vol="69" pos="9443" pan="0" key="49" len="12"/>
          <note vol="74" pos="9479" pan="0" key="49" len="12"/>
          <note vol="74" pos="9479" pan="0" key="42" len="12"/>
          <note vol="74" pos="9503" pan="0" key="49" len="12"/>
          <note vol="74" pos="9503" pan="0" key="42" len="12"/>
          <note vol="74" pos="9527" pan="0" key="49" len="12"/>
          <note vol="74" pos="9551" pan="0" key="50" len="12"/>
          <note vol="74" pos="9551" pan="0" key="40" len="12"/>
          <note vol="63" pos="9575" pan="0" key="47" len="12"/>
          <note vol="74" pos="9599" pan="0" key="49" len="12"/>
          <note vol="74" pos="9599" pan="0" key="42" len="12"/>
          <note vol="69" pos="9635" pan="0" key="49" len="12"/>
          <note vol="74" pos="9671" pan="0" key="49" len="12"/>
          <note vol="74" pos="9671" pan="0" key="42" len="12"/>
          <note vol="74" pos="9695" pan="0" key="49" len="12"/>
          <note vol="74" pos="9695" pan="0" key="42" len="12"/>
          <note vol="69" pos="9731" pan="0" key="49" len="12"/>
          <note vol="74" pos="9767" pan="0" key="49" len="12"/>
          <note vol="74" pos="9767" pan="0" key="42" len="12"/>
          <note vol="74" pos="9791" pan="0" key="49" len="12"/>
          <note vol="74" pos="9791" pan="0" key="42" len="12"/>
          <note vol="69" pos="9827" pan="0" key="49" len="12"/>
          <note vol="74" pos="9863" pan="0" key="49" len="12"/>
          <note vol="74" pos="9863" pan="0" key="42" len="12"/>
          <note vol="74" pos="9887" pan="0" key="49" len="12"/>
          <note vol="74" pos="9887" pan="0" key="42" len="12"/>
          <note vol="69" pos="9911" pan="0" key="49" len="12"/>
          <note vol="74" pos="9935" pan="0" key="52" len="12"/>
          <note vol="74" pos="9935" pan="0" key="43" len="12"/>
          <note vol="74" pos="9959" pan="0" key="50" len="12"/>
          <note vol="63" pos="9959" pan="0" key="47" len="12"/>
          <note vol="74" pos="9983" pan="0" key="49" len="11"/>
          <note vol="74" pos="9983" pan="0" key="42" len="11"/>
          <note vol="69" pos="10019" pan="0" key="49" len="12"/>
          <note vol="74" pos="10055" pan="0" key="49" len="12"/>
          <note vol="74" pos="10055" pan="0" key="42" len="12"/>
          <note vol="74" pos="10079" pan="0" key="49" len="12"/>
          <note vol="74" pos="10079" pan="0" key="42" len="12"/>
          <note vol="69" pos="10115" pan="0" key="49" len="12"/>
          <note vol="74" pos="10151" pan="0" key="49" len="12"/>
          <note vol="74" pos="10151" pan="0" key="42" len="12"/>
          <note vol="74" pos="10175" pan="0" key="49" len="12"/>
          <note vol="74" pos="10175" pan="0" key="42" len="12"/>
          <note vol="69" pos="10211" pan="0" key="49" len="12"/>
          <note vol="74" pos="10247" pan="0" key="49" len="12"/>
          <note vol="74" pos="10247" pan="0" key="42" len="12"/>
          <note vol="74" pos="10271" pan="0" key="49" len="12"/>
          <note vol="74" pos="10271" pan="0" key="42" len="12"/>
          <note vol="74" pos="10295" pan="0" key="49" len="12"/>
          <note vol="74" pos="10319" pan="0" key="50" len="12"/>
          <note vol="74" pos="10319" pan="0" key="40" len="12"/>
          <note vol="63" pos="10343" pan="0" key="47" len="12"/>
          <note vol="74" pos="10367" pan="0" key="49" len="12"/>
          <note vol="74" pos="10367" pan="0" key="42" len="12"/>
          <note vol="69" pos="10403" pan="0" key="49" len="12"/>
          <note vol="74" pos="10439" pan="0" key="49" len="12"/>
          <note vol="74" pos="10439" pan="0" key="42" len="12"/>
          <note vol="74" pos="10463" pan="0" key="49" len="12"/>
          <note vol="74" pos="10463" pan="0" key="42" len="12"/>
          <note vol="69" pos="10499" pan="0" key="49" len="12"/>
          <note vol="74" pos="10535" pan="0" key="49" len="12"/>
          <note vol="74" pos="10535" pan="0" key="42" len="12"/>
          <note vol="74" pos="10559" pan="0" key="49" len="12"/>
          <note vol="74" pos="10559" pan="0" key="42" len="12"/>
          <note vol="69" pos="10595" pan="0" key="49" len="12"/>
          <note vol="74" pos="10631" pan="0" key="49" len="12"/>
          <note vol="74" pos="10631" pan="0" key="42" len="12"/>
          <note vol="74" pos="10655" pan="0" key="49" len="12"/>
          <note vol="74" pos="10655" pan="0" key="42" len="12"/>
          <note vol="69" pos="10679" pan="0" key="49" len="12"/>
          <note vol="74" pos="10703" pan="0" key="52" len="12"/>
          <note vol="74" pos="10703" pan="0" key="43" len="12"/>
          <note vol="74" pos="10727" pan="0" key="50" len="12"/>
          <note vol="63" pos="10727" pan="0" key="47" len="12"/>
          <note vol="74" pos="10751" pan="0" key="49" len="11"/>
          <note vol="74" pos="10751" pan="0" key="42" len="11"/>
          <note vol="69" pos="10787" pan="0" key="49" len="12"/>
          <note vol="74" pos="10823" pan="0" key="49" len="12"/>
          <note vol="74" pos="10823" pan="0" key="42" len="12"/>
          <note vol="74" pos="10847" pan="0" key="49" len="12"/>
          <note vol="74" pos="10847" pan="0" key="42" len="12"/>
          <note vol="69" pos="10883" pan="0" key="49" len="12"/>
          <note vol="74" pos="10919" pan="0" key="49" len="12"/>
          <note vol="74" pos="10919" pan="0" key="42" len="12"/>
          <note vol="74" pos="10943" pan="0" key="49" len="12"/>
          <note vol="74" pos="10943" pan="0" key="42" len="12"/>
          <note vol="69" pos="10979" pan="0" key="49" len="12"/>
          <note vol="74" pos="11015" pan="0" key="49" len="12"/>
          <note vol="74" pos="11015" pan="0" key="42" len="12"/>
          <note vol="74" pos="11039" pan="0" key="49" len="12"/>
          <note vol="74" pos="11039" pan="0" key="42" len="12"/>
          <note vol="74" pos="11063" pan="0" key="49" len="12"/>
          <note vol="74" pos="11087" pan="0" key="50" len="12"/>
          <note vol="74" pos="11087" pan="0" key="40" len="12"/>
          <note vol="63" pos="11111" pan="0" key="47" len="12"/>
          <note vol="74" pos="11135" pan="0" key="49" len="12"/>
          <note vol="74" pos="11135" pan="0" key="42" len="12"/>
          <note vol="69" pos="11171" pan="0" key="49" len="12"/>
          <note vol="74" pos="11207" pan="0" key="49" len="12"/>
          <note vol="74" pos="11207" pan="0" key="42" len="12"/>
          <note vol="74" pos="11231" pan="0" key="49" len="12"/>
          <note vol="74" pos="11231" pan="0" key="42" len="12"/>
          <note vol="69" pos="11267" pan="0" key="49" len="12"/>
          <note vol="74" pos="11303" pan="0" key="49" len="12"/>
          <note vol="74" pos="11303" pan="0" key="42" len="12"/>
          <note vol="74" pos="11327" pan="0" key="49" len="12"/>
          <note vol="74" pos="11327" pan="0" key="42" len="12"/>
          <note vol="69" pos="11363" pan="0" key="49" len="12"/>
          <note vol="74" pos="11399" pan="0" key="49" len="12"/>
          <note vol="74" pos="11399" pan="0" key="42" len="12"/>
          <note vol="74" pos="11423" pan="0" key="49" len="12"/>
          <note vol="74" pos="11423" pan="0" key="42" len="12"/>
          <note vol="69" pos="11447" pan="0" key="49" len="12"/>
          <note vol="74" pos="11471" pan="0" key="52" len="12"/>
          <note vol="74" pos="11471" pan="0" key="43" len="12"/>
          <note vol="74" pos="11495" pan="0" key="50" len="12"/>
          <note vol="63" pos="11495" pan="0" key="47" len="12"/>
          <note vol="74" pos="11519" pan="0" key="49" len="11"/>
          <note vol="74" pos="11519" pan="0" key="42" len="11"/>
          <note vol="69" pos="11555" pan="0" key="49" len="12"/>
          <note vol="74" pos="11591" pan="0" key="49" len="12"/>
          <note vol="74" pos="11591" pan="0" key="42" len="12"/>
          <note vol="74" pos="11615" pan="0" key="49" len="12"/>
          <note vol="74" pos="11615" pan="0" key="42" len="12"/>
          <note vol="69" pos="11651" pan="0" key="49" len="12"/>
          <note vol="74" pos="11687" pan="0" key="49" len="12"/>
          <note vol="74" pos="11687" pan="0" key="42" len="12"/>
          <note vol="74" pos="11711" pan="0" key="49" len="12"/>
          <note vol="74" pos="11711" pan="0" key="42" len="12"/>
          <note vol="69" pos="11747" pan="0" key="49" len="12"/>
          <note vol="74" pos="11783" pan="0" key="49" len="12"/>
          <note vol="74" pos="11783" pan="0" key="42" len="12"/>
          <note vol="74" pos="11807" pan="0" key="49" len="12"/>
          <note vol="74" pos="11807" pan="0" key="42" len="12"/>
          <note vol="74" pos="11831" pan="0" key="49" len="12"/>
          <note vol="74" pos="11855" pan="0" key="50" len="12"/>
          <note vol="74" pos="11855" pan="0" key="40" len="12"/>
          <note vol="63" pos="11879" pan="0" key="47" len="12"/>
          <note vol="74" pos="11903" pan="0" key="49" len="12"/>
          <note vol="74" pos="11903" pan="0" key="42" len="12"/>
          <note vol="69" pos="11939" pan="0" key="49" len="12"/>
          <note vol="74" pos="11975" pan="0" key="49" len="12"/>
          <note vol="74" pos="11975" pan="0" key="42" len="12"/>
          <note vol="74" pos="11999" pan="0" key="49" len="12"/>
          <note vol="74" pos="11999" pan="0" key="42" len="12"/>
          <note vol="69" pos="12035" pan="0" key="49" len="12"/>
          <note vol="74" pos="12071" pan="0" key="49" len="12"/>
          <note vol="74" pos="12071" pan="0" key="42" len="12"/>
          <note vol="74" pos="12095" pan="0" key="49" len="12"/>
          <note vol="74" pos="12095" pan="0" key="42" len="12"/>
          <note vol="69" pos="12131" pan="0" key="49" len="12"/>
          <note vol="74" pos="12167" pan="0" key="49" len="12"/>
          <note vol="74" pos="12167" pan="0" key="42" len="12"/>
          <note vol="74" pos="12191" pan="0" key="49" len="12"/>
          <note vol="74" pos="12191" pan="0" key="42" len="12"/>
          <note vol="69" pos="12215" pan="0" key="49" len="12"/>
          <note vol="74" pos="12239" pan="0" key="52" len="12"/>
          <note vol="74" pos="12239" pan="0" key="43" len="12"/>
          <note vol="74" pos="12263" pan="0" key="50" len="12"/>
          <note vol="63" pos="12263" pan="0" key="47" len="12"/>
          <note vol="74" pos="12287" pan="0" key="49" len="11"/>
          <note vol="74" pos="12287" pan="0" key="42" len="11"/>
          <note vol="69" pos="12323" pan="0" key="49" len="12"/>
          <note vol="74" pos="12359" pan="0" key="49" len="12"/>
          <note vol="74" pos="12359" pan="0" key="42" len="12"/>
          <note vol="74" pos="12383" pan="0" key="49" len="12"/>
          <note vol="74" pos="12383" pan="0" key="42" len="12"/>
          <note vol="69" pos="12419" pan="0" key="49" len="12"/>
          <note vol="74" pos="12455" pan="0" key="49" len="12"/>
          <note vol="74" pos="12455" pan="0" key="42" len="12"/>
          <note vol="74" pos="12479" pan="0" key="49" len="12"/>
          <note vol="74" pos="12479" pan="0" key="42" len="12"/>
          <note vol="69" pos="12515" pan="0" key="49" len="12"/>
          <note vol="74" pos="12551" pan="0" key="49" len="12"/>
          <note vol="74" pos="12551" pan="0" key="42" len="12"/>
          <note vol="74" pos="12575" pan="0" key="49" len="12"/>
          <note vol="74" pos="12575" pan="0" key="42" len="12"/>
          <note vol="74" pos="12599" pan="0" key="49" len="12"/>
          <note vol="74" pos="12623" pan="0" key="50" len="12"/>
          <note vol="74" pos="12623" pan="0" key="40" len="12"/>
          <note vol="63" pos="12647" pan="0" key="47" len="12"/>
          <note vol="74" pos="12671" pan="0" key="49" len="12"/>
          <note vol="74" pos="12671" pan="0" key="42" len="12"/>
          <note vol="69" pos="12707" pan="0" key="49" len="12"/>
          <note vol="74" pos="12743" pan="0" key="49" len="12"/>
          <note vol="74" pos="12743" pan="0" key="42" len="12"/>
          <note vol="74" pos="12767" pan="0" key="49" len="12"/>
          <note vol="74" pos="12767" pan="0" key="42" len="12"/>
          <note vol="69" pos="12803" pan="0" key="49" len="12"/>
          <note vol="74" pos="12839" pan="0" key="49" len="12"/>
          <note vol="74" pos="12839" pan="0" key="42" len="12"/>
          <note vol="74" pos="12863" pan="0" key="49" len="12"/>
          <note vol="74" pos="12863" pan="0" key="42" len="12"/>
          <note vol="69" pos="12899" pan="0" key="49" len="12"/>
          <note vol="74" pos="12935" pan="0" key="49" len="12"/>
          <note vol="74" pos="12935" pan="0" key="42" len="12"/>
          <note vol="74" pos="12959" pan="0" key="49" len="12"/>
          <note vol="74" pos="12959" pan="0" key="42" len="12"/>
          <note vol="69" pos="12983" pan="0" key="49" len="12"/>
          <note vol="74" pos="13007" pan="0" key="52" len="12"/>
          <note vol="74" pos="13007" pan="0" key="43" len="12"/>
          <note vol="74" pos="13031" pan="0" key="50" len="12"/>
          <note vol="63" pos="13031" pan="0" key="47" len="12"/>
          <note vol="74" pos="13055" pan="0" key="49" len="11"/>
          <note vol="74" pos="13055" pan="0" key="42" len="11"/>
          <note vol="69" pos="13091" pan="0" key="49" len="12"/>
          <note vol="74" pos="13127" pan="0" key="49" len="12"/>
          <note vol="74" pos="13127" pan="0" key="42" len="12"/>
          <note vol="74" pos="13151" pan="0" key="49" len="12"/>
          <note vol="74" pos="13151" pan="0" key="42" len="12"/>
          <note vol="69" pos="13187" pan="0" key="49" len="12"/>
          <note vol="74" pos="13223" pan="0" key="49" len="12"/>
          <note vol="74" pos="13223" pan="0" key="42" len="12"/>
          <note vol="74" pos="13247" pan="0" key="49" len="12"/>
          <note vol="74" pos="13247" pan="0" key="42" len="12"/>
          <note vol="69" pos="13283" pan="0" key="49" len="12"/>
          <note vol="74" pos="13319" pan="0" key="49" len="12"/>
          <note vol="74" pos="13319" pan="0" key="42" len="12"/>
          <note vol="74" pos="13343" pan="0" key="49" len="12"/>
          <note vol="74" pos="13343" pan="0" key="42" len="12"/>
          <note vol="74" pos="13367" pan="0" key="49" len="12"/>
          <note vol="74" pos="13391" pan="0" key="50" len="12"/>
          <note vol="74" pos="13391" pan="0" key="40" len="12"/>
          <note vol="63" pos="13415" pan="0" key="47" len="12"/>
          <note vol="74" pos="13439" pan="0" key="49" len="12"/>
          <note vol="74" pos="13439" pan="0" key="42" len="12"/>
          <note vol="69" pos="13475" pan="0" key="49" len="12"/>
          <note vol="74" pos="13511" pan="0" key="49" len="12"/>
          <note vol="74" pos="13511" pan="0" key="42" len="12"/>
          <note vol="74" pos="13535" pan="0" key="49" len="12"/>
          <note vol="74" pos="13535" pan="0" key="42" len="12"/>
          <note vol="69" pos="13571" pan="0" key="49" len="12"/>
          <note vol="74" pos="13607" pan="0" key="49" len="12"/>
          <note vol="74" pos="13607" pan="0" key="42" len="12"/>
          <note vol="74" pos="13631" pan="0" key="49" len="12"/>
          <note vol="74" pos="13631" pan="0" key="42" len="12"/>
          <note vol="69" pos="13667" pan="0" key="49" len="12"/>
          <note vol="74" pos="13703" pan="0" key="49" len="12"/>
          <note vol="74" pos="13703" pan="0" key="42" len="12"/>
          <note vol="74" pos="13727" pan="0" key="49" len="12"/>
          <note vol="74" pos="13727" pan="0" key="42" len="12"/>
          <note vol="69" pos="13751" pan="0" key="49" len="12"/>
          <note vol="74" pos="13775" pan="0" key="52" len="12"/>
          <note vol="74" pos="13775" pan="0" key="43" len="12"/>
          <note vol="74" pos="13799" pan="0" key="50" len="12"/>
          <note vol="63" pos="13799" pan="0" key="47" len="12"/>
          <note vol="74" pos="13823" pan="0" key="49" len="11"/>
          <note vol="74" pos="13823" pan="0" key="42" len="11"/>
          <note vol="69" pos="13859" pan="0" key="49" len="12"/>
          <note vol="74" pos="13895" pan="0" key="49" len="12"/>
          <note vol="74" pos="13895" pan="0" key="42" len="12"/>
          <note vol="74" pos="13919" pan="0" key="49" len="12"/>
          <note vol="74" pos="13919" pan="0" key="42" len="12"/>
          <note vol="69" pos="13955" pan="0" key="49" len="12"/>
          <note vol="74" pos="13991" pan="0" key="49" len="12"/>
          <note vol="74" pos="13991" pan="0" key="42" len="12"/>
          <note vol="74" pos="14015" pan="0" key="49" len="12"/>
          <note vol="74" pos="14015" pan="0" key="42" len="12"/>
          <note vol="69" pos="14051" pan="0" key="49" len="12"/>
          <note vol="74" pos="14087" pan="0" key="49" len="12"/>
          <note vol="74" pos="14087" pan="0" key="42" len="12"/>
          <note vol="74" pos="14111" pan="0" key="49" len="12"/>
          <note vol="74" pos="14111" pan="0" key="42" len="12"/>
          <note vol="74" pos="14135" pan="0" key="49" len="12"/>
          <note vol="74" pos="14159" pan="0" key="50" len="12"/>
          <note vol="74" pos="14159" pan="0" key="40" len="12"/>
          <note vol="63" pos="14183" pan="0" key="47" len="12"/>
          <note vol="74" pos="14207" pan="0" key="49" len="12"/>
          <note vol="74" pos="14207" pan="0" key="42" len="12"/>
          <note vol="69" pos="14243" pan="0" key="49" len="12"/>
          <note vol="74" pos="14279" pan="0" key="49" len="12"/>
          <note vol="74" pos="14279" pan="0" key="42" len="12"/>
          <note vol="74" pos="14303" pan="0" key="49" len="12"/>
          <note vol="74" pos="14303" pan="0" key="42" len="12"/>
          <note vol="69" pos="14339" pan="0" key="49" len="12"/>
          <note vol="74" pos="14375" pan="0" key="49" len="12"/>
          <note vol="74" pos="14375" pan="0" key="42" len="12"/>
          <note vol="74" pos="14399" pan="0" key="49" len="12"/>
          <note vol="74" pos="14399" pan="0" key="42" len="12"/>
          <note vol="69" pos="14435" pan="0" key="49" len="12"/>
          <note vol="74" pos="14471" pan="0" key="49" len="12"/>
          <note vol="74" pos="14471" pan="0" key="42" len="12"/>
          <note vol="74" pos="14495" pan="0" key="49" len="12"/>
          <note vol="74" pos="14495" pan="0" key="42" len="12"/>
          <note vol="69" pos="14519" pan="0" key="49" len="12"/>
          <note vol="74" pos="14543" pan="0" key="52" len="12"/>
          <note vol="74" pos="14543" pan="0" key="43" len="12"/>
          <note vol="74" pos="14567" pan="0" key="50" len="12"/>
          <note vol="63" pos="14567" pan="0" key="47" len="12"/>
          <note vol="74" pos="14591" pan="0" key="49" len="11"/>
          <note vol="74" pos="14591" pan="0" key="42" len="11"/>
          <note vol="69" pos="14627" pan="0" key="49" len="12"/>
          <note vol="74" pos="14663" pan="0" key="49" len="12"/>
          <note vol="74" pos="14663" pan="0" key="42" len="12"/>
          <note vol="74" pos="14687" pan="0" key="49" len="12"/>
          <note vol="74" pos="14687" pan="0" key="42" len="12"/>
          <note vol="69" pos="14723" pan="0" key="49" len="12"/>
          <note vol="74" pos="14759" pan="0" key="49" len="12"/>
          <note vol="74" pos="14759" pan="0" key="42" len="12"/>
          <note vol="74" pos="14783" pan="0" key="49" len="12"/>
          <note vol="74" pos="14783" pan="0" key="42" len="12"/>
          <note vol="69" pos="14819" pan="0" key="49" len="12"/>
          <note vol="74" pos="14855" pan="0" key="49" len="12"/>
          <note vol="74" pos="14855" pan="0" key="42" len="12"/>
          <note vol="74" pos="14879" pan="0" key="49" len="12"/>
          <note vol="74" pos="14879" pan="0" key="42" len="12"/>
          <note vol="74" pos="14903" pan="0" key="49" len="12"/>
          <note vol="74" pos="14927" pan="0" key="50" len="12"/>
          <note vol="74" pos="14927" pan="0" key="40" len="12"/>
          <note vol="63" pos="14951" pan="0" key="47" len="12"/>
          <note vol="74" pos="14975" pan="0" key="49" len="12"/>
          <note vol="74" pos="14975" pan="0" key="42" len="12"/>
          <note vol="69" pos="15011" pan="0" key="49" len="12"/>
          <note vol="74" pos="15047" pan="0" key="49" len="12"/>
          <note vol="74" pos="15047" pan="0" key="42" len="12"/>
          <note vol="74" pos="15071" pan="0" key="49" len="12"/>
          <note vol="74" pos="15071" pan="0" key="42" len="12"/>
          <note vol="69" pos="15107" pan="0" key="49" len="12"/>
          <note vol="74" pos="15143" pan="0" key="49" len="12"/>
          <note vol="74" pos="15143" pan="0" key="42" len="12"/>
          <note vol="74" pos="15167" pan="0" key="49" len="12"/>
          <note vol="74" pos="15167" pan="0" key="42" len="12"/>
          <note vol="69" pos="15203" pan="0" key="49" len="12"/>
          <note vol="74" pos="15239" pan="0" key="49" len="12"/>
          <note vol="74" pos="15239" pan="0" key="42" len="12"/>
          <note vol="74" pos="15263" pan="0" key="49" len="12"/>
          <note vol="74" pos="15263" pan="0" key="42" len="12"/>
          <note vol="69" pos="15287" pan="0" key="49" len="12"/>
          <note vol="74" pos="15311" pan="0" key="52" len="12"/>
          <note vol="74" pos="15311" pan="0" key="43" len="12"/>
          <note vol="74" pos="15335" pan="0" key="50" len="12"/>
          <note vol="63" pos="15335" pan="0" key="47" len="12"/>
          <note vol="74" pos="15359" pan="0" key="49" len="11"/>
          <note vol="74" pos="15359" pan="0" key="42" len="11"/>
          <note vol="69" pos="15395" pan="0" key="49" len="12"/>
          <note vol="74" pos="15431" pan="0" key="49" len="12"/>
          <note vol="74" pos="15431" pan="0" key="42" len="12"/>
          <note vol="74" pos="15455" pan="0" key="49" len="12"/>
          <note vol="74" pos="15455" pan="0" key="42" len="12"/>
          <note vol="69" pos="15491" pan="0" key="49" len="12"/>
          <note vol="74" pos="15527" pan="0" key="49" len="12"/>
          <note vol="74" pos="15527" pan="0" key="42" len="12"/>
          <note vol="74" pos="15551" pan="0" key="49" len="12"/>
          <note vol="74" pos="15551" pan="0" key="42" len="12"/>
          <note vol="69" pos="15587" pan="0" key="49" len="12"/>
          <note vol="74" pos="15623" pan="0" key="49" len="12"/>
          <note vol="74" pos="15623" pan="0" key="42" len="12"/>
          <note vol="74" pos="15647" pan="0" key="49" len="12"/>
          <note vol="74" pos="15647" pan="0" key="42" len="12"/>
          <note vol="74" pos="15671" pan="0" key="49" len="12"/>
          <note vol="74" pos="15695" pan="0" key="50" len="12"/>
          <note vol="74" pos="15695" pan="0" key="40" len="12"/>
          <note vol="63" pos="15719" pan="0" key="47" len="12"/>
          <note vol="74" pos="15743" pan="0" key="49" len="12"/>
          <note vol="74" pos="15743" pan="0" key="42" len="12"/>
          <note vol="69" pos="15779" pan="0" key="49" len="12"/>
          <note vol="74" pos="15815" pan="0" key="49" len="12"/>
          <note vol="74" pos="15815" pan="0" key="42" len="12"/>
          <note vol="74" pos="15839" pan="0" key="49" len="12"/>
          <note vol="74" pos="15839" pan="0" key="42" len="12"/>
          <note vol="69" pos="15875" pan="0" key="49" len="12"/>
          <note vol="74" pos="15911" pan="0" key="49" len="12"/>
          <note vol="74" pos="15911" pan="0" key="42" len="12"/>
          <note vol="74" pos="15935" pan="0" key="49" len="12"/>
          <note vol="74" pos="15935" pan="0" key="42" len="12"/>
          <note vol="69" pos="15971" pan="0" key="49" len="12"/>
          <note vol="74" pos="16007" pan="0" key="49" len="12"/>
          <note vol="74" pos="16007" pan="0" key="42" len="12"/>
          <note vol="74" pos="16031" pan="0" key="49" len="12"/>
          <note vol="74" pos="16031" pan="0" key="42" len="12"/>
          <note vol="69" pos="16055" pan="0" key="49" len="12"/>
          <note vol="74" pos="16079" pan="0" key="52" len="12"/>
          <note vol="74" pos="16079" pan="0" key="43" len="12"/>
          <note vol="74" pos="16103" pan="0" key="50" len="12"/>
          <note vol="63" pos="16103" pan="0" key="47" len="12"/>
          <note vol="74" pos="16127" pan="0" key="49" len="11"/>
          <note vol="74" pos="16127" pan="0" key="42" len="11"/>
          <note vol="69" pos="16163" pan="0" key="49" len="12"/>
          <note vol="74" pos="16199" pan="0" key="49" len="12"/>
          <note vol="74" pos="16199" pan="0" key="42" len="12"/>
          <note vol="74" pos="16223" pan="0" key="49" len="12"/>
          <note vol="74" pos="16223" pan="0" key="42" len="12"/>
          <note vol="69" pos="16259" pan="0" key="49" len="12"/>
          <note vol="74" pos="16295" pan="0" key="49" len="12"/>
          <note vol="74" pos="16295" pan="0" key="42" len="12"/>
          <note vol="74" pos="16319" pan="0" key="49" len="12"/>
          <note vol="74" pos="16319" pan="0" key="42" len="12"/>
          <note vol="69" pos="16355" pan="0" key="49" len="12"/>
          <note vol="74" pos="16391" pan="0" key="49" len="12"/>
          <note vol="74" pos="16391" pan="0" key="42" len="12"/>
          <note vol="74" pos="16415" pan="0" key="49" len="12"/>
          <note vol="74" pos="16415" pan="0" key="42" len="12"/>
          <note vol="74" pos="16439" pan="0" key="49" len="12"/>
          <note vol="74" pos="16463" pan="0" key="50" len="12"/>
          <note vol="74" pos="16463" pan="0" key="40" len="12"/>
          <note vol="63" pos="16487" pan="0" key="47" len="12"/>
          <note vol="74" pos="16511" pan="0" key="49" len="12"/>
          <note vol="74" pos="16511" pan="0" key="42" len="12"/>
          <note vol="69" pos="16547" pan="0" key="49" len="12"/>
          <note vol="74" pos="16583" pan="0" key="49" len="12"/>
          <note vol="74" pos="16583" pan="0" key="42" len="12"/>
          <note vol="74" pos="16607" pan="0" key="49" len="12"/>
          <note vol="74" pos="16607" pan="0" key="42" len="12"/>
          <note vol="69" pos="16643" pan="0" key="49" len="12"/>
          <note vol="74" pos="16679" pan="0" key="49" len="12"/>
          <note vol="74" pos="16679" pan="0" key="42" len="12"/>
          <note vol="74" pos="16703" pan="0" key="49" len="12"/>
          <note vol="74" pos="16703" pan="0" key="42" len="12"/>
          <note vol="69" pos="16739" pan="0" key="49" len="12"/>
          <note vol="74" pos="16775" pan="0" key="49" len="12"/>
          <note vol="74" pos="16775" pan="0" key="42" len="12"/>
          <note vol="74" pos="16799" pan="0" key="49" len="12"/>
          <note vol="74" pos="16799" pan="0" key="42" len="12"/>
          <note vol="69" pos="16823" pan="0" key="49" len="12"/>
          <note vol="74" pos="16847" pan="0" key="52" len="12"/>
          <note vol="74" pos="16847" pan="0" key="43" len="12"/>
          <note vol="74" pos="16871" pan="0" key="50" len="12"/>
          <note vol="63" pos="16871" pan="0" key="47" len="12"/>
        </pattern>
      </track>
      <track muted="0" type="0" mutedBeforeSolo="0" solo="0" name="Helm">
        <instrumenttrack vol="163.2" pan="0" fxch="1" lastkey="127" basenote="69" firstkey="0" enablecc="0" pitch="0" pitchrange="2" usemasterpitch="1">
          <midicontrollers cc67="0" cc0="0" cc19="0" cc66="0" cc1="0" cc31="0" cc59="0" cc40="0" cc84="0" cc56="0" cc21="0" cc121="0" cc27="0" cc12="0" cc79="0" cc83="0" cc115="0" cc124="0" cc92="0" cc23="0" cc77="0" cc86="0" cc13="0" cc127="0" cc60="0" cc96="0" cc126="0" cc103="0" cc61="0" cc93="0" cc89="0" cc10="0" cc81="0" cc54="0" cc52="0" cc45="0" cc48="0" cc85="0" cc90="0" cc8="0" cc78="0" cc43="0" cc14="0" cc80="0" cc102="0" cc69="0" cc120="0" cc33="0" cc119="0" cc5="0" cc29="0" cc20="0" cc91="0" cc99="0" cc4="0" cc15="0" cc7="0" cc87="0" cc18="0" cc9="0" cc50="0" cc58="0" cc55="0" cc36="0" cc65="0" cc109="0" cc57="0" cc30="0" cc46="0" cc25="0" cc106="0" cc38="0" cc73="0" cc114="0" cc42="0" cc3="0" cc122="0" cc28="0" cc70="0" cc6="0" cc51="0" cc72="0" cc95="0" cc104="0" cc37="0" cc123="0" cc26="0" cc94="0" cc74="0" cc17="0" cc32="0" cc16="0" cc22="0" cc107="0" cc49="0" cc47="0" cc100="0" cc34="0" cc62="0" cc53="0" cc11="0" cc35="0" cc97="0" cc98="0" cc105="0" cc2="0" cc71="0" cc117="0" cc82="0" cc108="0" cc24="0" cc88="0" cc101="0" cc44="0" cc111="0" cc112="0" cc125="0" cc68="0" cc63="0" cc76="0" cc64="0" cc41="0" cc110="0" cc113="0" cc116="0" cc75="0" cc39="0" cc118="0"/>
          <instrument name="vestige">
            <vestige chunk="ew0KICAibGljZW5zZSI6ICJQYXRjaCAoYykgYnkgLiAgVGhpcyBwYXRjaCBpcyBsaWNlbnNlZCB1bmRlciBhIENyZWF0aXZlIENvbW1vbnMgQXR0cmlidXRpb24gNC4wIEludGVybmF0aW9uYWwgTGljZW5zZS4gIFlvdSBzaG91bGQgaGF2ZSByZWNlaXZlZCBhIGNvcHkgb2YgdGhlIGxpY2Vuc2UgYWxvbmcgd2l0aCB0aGlzIHdvcmsuICBJZiBub3QsIHNlZSA8aHR0cDovL2NyZWF0aXZlY29tbW9ucy5vcmcvbGljZW5zZXMvYnkvNC4wLz4uIiwNCiAgInN5bnRoX3ZlcnNpb24iOiAiMC45LjAiLA0KICAicGF0Y2hfbmFtZSI6ICIiLA0KICAiZm9sZGVyX25hbWUiOiAiIiwNCiAgImF1dGhvciI6ICIiLA0KICAic2V0dGluZ3MiOiB7DQogICAgImFtcF9hdHRhY2siOiAwLjEwOTU0NTAwMDAwMDAwMDAwMzQ4LA0KICAgICJhbXBfZGVjYXkiOiAxLjUsDQogICAgImFtcF9yZWxlYXNlIjogMC4yOTk5OTk5OTk5OTk5OTk5ODg5LA0KICAgICJhbXBfc3VzdGFpbiI6IDEsDQogICAgImFycF9mcmVxdWVuY3kiOiAyLA0KICAgICJhcnBfZ2F0ZSI6IDAuNSwNCiAgICAiYXJwX29jdGF2ZXMiOiAxLA0KICAgICJhcnBfb24iOiAwLA0KICAgICJhcnBfcGF0dGVybiI6IDAsDQogICAgImFycF9zeW5jIjogMSwNCiAgICAiYXJwX3RlbXBvIjogOSwNCiAgICAiYmVhdHNfcGVyX21pbnV0ZSI6IDEuOTQ5OTk5OTk5OTk5OTk5OTU1NiwNCiAgICAiY3Jvc3NfbW9kdWxhdGlvbiI6IDAsDQogICAgImN1dG9mZiI6IDI4LA0KICAgICJkZWxheV9kcnlfd2V0IjogMC41LA0KICAgICJkZWxheV9mZWVkYmFjayI6IDAuNDAwMDAwMDAwMDAwMDAwMDIyMiwNCiAgICAiZGVsYXlfZnJlcXVlbmN5IjogMiwNCiAgICAiZGVsYXlfb24iOiAwLA0KICAgICJkZWxheV9zeW5jIjogMSwNCiAgICAiZGVsYXlfdGVtcG8iOiA5LA0KICAgICJkaXN0b3J0aW9uX2RyaXZlIjogMCwNCiAgICAiZGlzdG9ydGlvbl9taXgiOiAxLA0KICAgICJkaXN0b3J0aW9uX29uIjogMCwNCiAgICAiZGlzdG9ydGlvbl90eXBlIjogMCwNCiAgICAiZmlsX2F0dGFjayI6IDAsDQogICAgImZpbF9kZWNheSI6IDIsDQogICAgImZpbF9lbnZfZGVwdGgiOiAwLA0KICAgICJmaWxfcmVsZWFzZSI6IDEuNSwNCiAgICAiZmlsX3N1c3RhaW4iOiAwLA0KICAgICJmaWx0ZXJfYmxlbmQiOiAwLA0KICAgICJmaWx0ZXJfZHJpdmUiOiAwLA0KICAgICJmaWx0ZXJfb24iOiAxLA0KICAgICJmaWx0ZXJfc2hlbGYiOiAwLA0KICAgICJmaWx0ZXJfc3R5bGUiOiAwLA0KICAgICJmb3JtYW50X29uIjogMCwNCiAgICAiZm9ybWFudF94IjogMC41LA0KICAgICJmb3JtYW50X3kiOiAwLjUsDQogICAgImtleXRyYWNrIjogMCwNCiAgICAibGVnYXRvIjogMCwNCiAgICAibW9kX2F0dGFjayI6IDAsDQogICAgIm1vZF9kZWNheSI6IDEuNSwNCiAgICAibW9kX3JlbGVhc2UiOiAxLjUsDQogICAgIm1vZF9zdXN0YWluIjogMC41LA0KICAgICJtb25vX2xmb18xX2FtcGxpdHVkZSI6IDEsDQogICAgIm1vbm9fbGZvXzFfZnJlcXVlbmN5IjogMSwNCiAgICAibW9ub19sZm9fMV9yZXRyaWdnZXIiOiAyLA0KICAgICJtb25vX2xmb18xX3N5bmMiOiAxLA0KICAgICJtb25vX2xmb18xX3RlbXBvIjogNiwNCiAgICAibW9ub19sZm9fMV93YXZlZm9ybSI6IDAsDQogICAgIm1vbm9fbGZvXzJfYW1wbGl0dWRlIjogMSwNCiAgICAibW9ub19sZm9fMl9mcmVxdWVuY3kiOiAxLA0KICAgICJtb25vX2xmb18yX3JldHJpZ2dlciI6IDIsDQogICAgIm1vbm9fbGZvXzJfc3luYyI6IDEsDQogICAgIm1vbm9fbGZvXzJfdGVtcG8iOiA3LA0KICAgICJtb25vX2xmb18yX3dhdmVmb3JtIjogMCwNCiAgICAibm9pc2Vfdm9sdW1lIjogMCwNCiAgICAibnVtX3N0ZXBzIjogOCwNCiAgICAib3NjXzFfdHJhbnNwb3NlIjogMCwNCiAgICAib3NjXzFfdHVuZSI6IDAsDQogICAgIm9zY18xX3VuaXNvbl9kZXR1bmUiOiAxMCwNCiAgICAib3NjXzFfdW5pc29uX3ZvaWNlcyI6IDUsDQogICAgIm9zY18xX3ZvbHVtZSI6IDAuNTQ3NzIyNTU3NDk5OTk5OTg0NjQsDQogICAgIm9zY18xX3dhdmVmb3JtIjogMCwNCiAgICAib3NjXzJfdHJhbnNwb3NlIjogMCwNCiAgICAib3NjXzJfdHVuZSI6IDAsDQogICAgIm9zY18yX3VuaXNvbl9kZXR1bmUiOiAxMCwNCiAgICAib3NjXzJfdW5pc29uX3ZvaWNlcyI6IDMsDQogICAgIm9zY18yX3ZvbHVtZSI6IDAuNTQ3NzIyNTU3NDk5OTk5OTg0NjQsDQogICAgIm9zY18yX3dhdmVmb3JtIjogMCwNCiAgICAib3NjX2ZlZWRiYWNrX2Ftb3VudCI6IDAsDQogICAgIm9zY19mZWVkYmFja190cmFuc3Bvc2UiOiAwLA0KICAgICJvc2NfZmVlZGJhY2tfdHVuZSI6IDAsDQogICAgInBpdGNoX2JlbmRfcmFuZ2UiOiAyLA0KICAgICJwb2x5X2xmb19hbXBsaXR1ZGUiOiAxLA0KICAgICJwb2x5X2xmb19mcmVxdWVuY3kiOiAxLA0KICAgICJwb2x5X2xmb19zeW5jIjogMSwNCiAgICAicG9seV9sZm9fdGVtcG8iOiA3LA0KICAgICJwb2x5X2xmb193YXZlZm9ybSI6IDAsDQogICAgInBvbHlwaG9ueSI6IDQsDQogICAgInBvcnRhbWVudG8iOiAtNywNCiAgICAicG9ydGFtZW50b190eXBlIjogMCwNCiAgICAicmVzb25hbmNlIjogMCwNCiAgICAicmV2ZXJiX2RhbXBpbmciOiAwLjUsDQogICAgInJldmVyYl9kcnlfd2V0IjogMC41LA0KICAgICJyZXZlcmJfZmVlZGJhY2siOiAwLjkwMDAwMDAwMDAwMDAwMDAyMjIsDQogICAgInJldmVyYl9vbiI6IDEsDQogICAgInN0ZXBfZnJlcXVlbmN5IjogMiwNCiAgICAic3RlcF9zZXFfMDAiOiAwLA0KICAgICJzdGVwX3NlcV8wMSI6IDAsDQogICAgInN0ZXBfc2VxXzAyIjogMCwNCiAgICAic3RlcF9zZXFfMDMiOiAwLA0KICAgICJzdGVwX3NlcV8wNCI6IDAsDQogICAgInN0ZXBfc2VxXzA1IjogMCwNCiAgICAic3RlcF9zZXFfMDYiOiAwLA0KICAgICJzdGVwX3NlcV8wNyI6IDAsDQogICAgInN0ZXBfc2VxXzA4IjogMCwNCiAgICAic3RlcF9zZXFfMDkiOiAwLA0KICAgICJzdGVwX3NlcV8xMCI6IDAsDQogICAgInN0ZXBfc2VxXzExIjogMCwNCiAgICAic3RlcF9zZXFfMTIiOiAwLA0KICAgICJzdGVwX3NlcV8xMyI6IDAsDQogICAgInN0ZXBfc2VxXzE0IjogMCwNCiAgICAic3RlcF9zZXFfMTUiOiAwLA0KICAgICJzdGVwX3NlcV8xNiI6IDAsDQogICAgInN0ZXBfc2VxXzE3IjogMCwNCiAgICAic3RlcF9zZXFfMTgiOiAwLA0KICAgICJzdGVwX3NlcV8xOSI6IDAsDQogICAgInN0ZXBfc2VxXzIwIjogMCwNCiAgICAic3RlcF9zZXFfMjEiOiAwLA0KICAgICJzdGVwX3NlcV8yMiI6IDAsDQogICAgInN0ZXBfc2VxXzIzIjogMCwNCiAgICAic3RlcF9zZXFfMjQiOiAwLA0KICAgICJzdGVwX3NlcV8yNSI6IDAsDQogICAgInN0ZXBfc2VxXzI2IjogMCwNCiAgICAic3RlcF9zZXFfMjciOiAwLA0KICAgICJzdGVwX3NlcV8yOCI6IDAsDQogICAgInN0ZXBfc2VxXzI5IjogMCwNCiAgICAic3RlcF9zZXFfMzAiOiAwLA0KICAgICJzdGVwX3NlcV8zMSI6IDAsDQogICAgInN0ZXBfc2VxdWVuY2VyX3JldHJpZ2dlciI6IDIsDQogICAgInN0ZXBfc2VxdWVuY2VyX3N5bmMiOiAxLA0KICAgICJzdGVwX3NlcXVlbmNlcl90ZW1wbyI6IDcsDQogICAgInN0ZXBfc21vb3RoaW5nIjogMCwNCiAgICAic3R1dHRlcl9mcmVxdWVuY3kiOiAzLA0KICAgICJzdHV0dGVyX29uIjogMCwNCiAgICAic3R1dHRlcl9yZXNhbXBsZV9mcmVxdWVuY3kiOiAxLA0KICAgICJzdHV0dGVyX3Jlc2FtcGxlX3N5bmMiOiAxLA0KICAgICJzdHV0dGVyX3Jlc2FtcGxlX3RlbXBvIjogNiwNCiAgICAic3R1dHRlcl9zb2Z0bmVzcyI6IDAuMjAwMDAwMDAwMDAwMDAwMDExMSwNCiAgICAic3R1dHRlcl9zeW5jIjogMSwNCiAgICAic3R1dHRlcl90ZW1wbyI6IDgsDQogICAgInN1Yl9vY3RhdmUiOiAwLA0KICAgICJzdWJfc2h1ZmZsZSI6IDAsDQogICAgInN1Yl92b2x1bWUiOiAwLA0KICAgICJzdWJfd2F2ZWZvcm0iOiAyLA0KICAgICJ1bmlzb25fMV9oYXJtb25pemUiOiAwLA0KICAgICJ1bmlzb25fMl9oYXJtb25pemUiOiAwLA0KICAgICJ2ZWxvY2l0eV90cmFjayI6IDAsDQogICAgInZvbHVtZSI6IDAsDQogICAgIm1vZHVsYXRpb25zIjogWw0KICAgICAgew0KICAgICAgICAic291cmNlIjogInZlbG9jaXR5IiwNCiAgICAgICAgImRlc3RpbmF0aW9uIjogInZvbHVtZSIsDQogICAgICAgICJhbW91bnQiOiAwLjk5OTcyNzY4MTMwMzU0NTE2ODEzDQogICAgICB9LA0KICAgICAgew0KICAgICAgICAic291cmNlIjogImZpbF9lbnZlbG9wZSIsDQogICAgICAgICJkZXN0aW5hdGlvbiI6ICJjdXRvZmYiLA0KICAgICAgICAiYW1vdW50IjogNDIuMTg0NjU5NDUyOTA0NzI1MTg1DQogICAgICB9DQogICAgXQ0KICB9DQp9AA==" guivisible="0" plugin="uservst:helm64.dll" program="0">
              <key/>
            </vestige>
          </instrument>
          <eldata fcut="14000" fres="0.5" fwet="0" ftype="0">
            <elvol lspd="0.1" latt="0" lspd_numerator="4" lspd_syncmode="0" sustain="0.5" hold="0.5" lamt="0" x100="0" att="0" rel="0.1" lpdel="0" userwavefile="" lspd_denominator="4" pdel="0" ctlenvamt="0" amt="0" lshp="0" dec="0.5"/>
            <elcut lspd="0.1" latt="0" lspd_numerator="4" lspd_syncmode="0" sustain="0.5" hold="0.5" lamt="0" x100="0" att="0" rel="0.1" lpdel="0" userwavefile="" lspd_denominator="4" pdel="0" ctlenvamt="0" amt="0" lshp="0" dec="0.5"/>
            <elres lspd="0.1" latt="0" lspd_numerator="4" lspd_syncmode="0" sustain="0.5" hold="0.5" lamt="0" x100="0" att="0" rel="0.1" lpdel="0" userwavefile="" lspd_denominator="4" pdel="0" ctlenvamt="0" amt="0" lshp="0" dec="0.5"/>
          </eldata>
          <chordcreator chord="0" chord-enabled="1" chordrange="5"/>
          <arpeggiator arpcycle="0" arpdir="0" arptime="200" arptime_syncmode="0" arprange="1" arp-enabled="0" arpgate="100" arprepeats="1" arpskip="0" arpmode="0" arp="0" arptime_denominator="4" arpmiss="0" arptime_numerator="4"/>
          <midiport inputcontroller="0" outputprogram="1" outputchannel="1" fixedoutputnote="-1" inputchannel="0" writable="0" fixedoutputvelocity="-1" fixedinputvelocity="-1" basevelocity="63" readable="0" outputcontroller="0"/>
          <fxchain numofeffects="0" enabled="0"/>
        </instrumenttrack>
        <pattern pos="0" steps="16" muted="0" type="1" name="">
          <note vol="59" pos="0" pan="0" key="30" len="11"/>
          <note vol="48" pos="23" pan="0" key="30" len="12"/>
          <note vol="48" pos="35" pan="0" key="30" len="12"/>
          <note vol="48" pos="47" pan="0" key="30" len="12"/>
          <note vol="59" pos="71" pan="0" key="30" len="12"/>
          <note vol="48" pos="107" pan="0" key="30" len="12"/>
          <note vol="48" pos="119" pan="0" key="30" len="12"/>
          <note vol="59" pos="143" pan="0" key="30" len="12"/>
          <note vol="48" pos="155" pan="0" key="30" len="12"/>
          <note vol="48" pos="167" pan="0" key="30" len="12"/>
          <note vol="48" pos="179" pan="0" key="30" len="12"/>
          <note vol="59" pos="191" pan="0" key="30" len="12"/>
          <note vol="48" pos="215" pan="0" key="30" len="12"/>
          <note vol="48" pos="227" pan="0" key="30" len="12"/>
          <note vol="48" pos="239" pan="0" key="30" len="12"/>
          <note vol="59" pos="263" pan="0" key="30" len="12"/>
          <note vol="59" pos="299" pan="0" key="30" len="12"/>
          <note vol="59" pos="335" pan="0" key="30" len="12"/>
          <note vol="59" pos="359" pan="0" key="30" len="12"/>
          <note vol="59" pos="383" pan="0" key="30" len="12"/>
          <note vol="48" pos="407" pan="0" key="30" len="12"/>
          <note vol="48" pos="419" pan="0" key="30" len="12"/>
          <note vol="48" pos="431" pan="0" key="30" len="12"/>
          <note vol="59" pos="455" pan="0" key="30" len="12"/>
          <note vol="48" pos="491" pan="0" key="30" len="12"/>
          <note vol="48" pos="503" pan="0" key="30" len="12"/>
          <note vol="59" pos="527" pan="0" key="30" len="12"/>
          <note vol="48" pos="539" pan="0" key="30" len="12"/>
          <note vol="48" pos="551" pan="0" key="30" len="12"/>
          <note vol="48" pos="563" pan="0" key="30" len="12"/>
          <note vol="59" pos="575" pan="0" key="30" len="12"/>
          <note vol="48" pos="599" pan="0" key="30" len="12"/>
          <note vol="48" pos="611" pan="0" key="30" len="12"/>
          <note vol="48" pos="623" pan="0" key="30" len="12"/>
          <note vol="59" pos="647" pan="0" key="30" len="12"/>
          <note vol="59" pos="683" pan="0" key="30" len="12"/>
          <note vol="59" pos="719" pan="0" key="30" len="12"/>
          <note vol="59" pos="743" pan="0" key="30" len="12"/>
          <note vol="59" pos="767" pan="0" key="30" len="11"/>
          <note vol="48" pos="791" pan="0" key="30" len="12"/>
          <note vol="48" pos="803" pan="0" key="30" len="12"/>
          <note vol="48" pos="815" pan="0" key="30" len="12"/>
          <note vol="59" pos="839" pan="0" key="30" len="12"/>
          <note vol="48" pos="875" pan="0" key="30" len="12"/>
          <note vol="48" pos="887" pan="0" key="30" len="12"/>
          <note vol="59" pos="911" pan="0" key="30" len="12"/>
          <note vol="48" pos="923" pan="0" key="30" len="12"/>
          <note vol="48" pos="935" pan="0" key="30" len="12"/>
          <note vol="48" pos="947" pan="0" key="30" len="12"/>
          <note vol="59" pos="959" pan="0" key="30" len="12"/>
          <note vol="48" pos="983" pan="0" key="30" len="12"/>
          <note vol="48" pos="995" pan="0" key="30" len="12"/>
          <note vol="48" pos="1007" pan="0" key="30" len="12"/>
          <note vol="59" pos="1031" pan="0" key="30" len="12"/>
          <note vol="59" pos="1067" pan="0" key="30" len="12"/>
          <note vol="59" pos="1103" pan="0" key="30" len="12"/>
          <note vol="59" pos="1127" pan="0" key="30" len="12"/>
          <note vol="59" pos="1151" pan="0" key="30" len="12"/>
          <note vol="48" pos="1175" pan="0" key="30" len="12"/>
          <note vol="48" pos="1187" pan="0" key="30" len="12"/>
          <note vol="48" pos="1199" pan="0" key="30" len="12"/>
          <note vol="59" pos="1223" pan="0" key="30" len="12"/>
          <note vol="48" pos="1259" pan="0" key="30" len="12"/>
          <note vol="48" pos="1271" pan="0" key="30" len="12"/>
          <note vol="59" pos="1295" pan="0" key="30" len="12"/>
          <note vol="48" pos="1307" pan="0" key="30" len="12"/>
          <note vol="48" pos="1319" pan="0" key="30" len="12"/>
          <note vol="48" pos="1331" pan="0" key="30" len="12"/>
          <note vol="59" pos="1343" pan="0" key="30" len="12"/>
          <note vol="48" pos="1367" pan="0" key="30" len="12"/>
          <note vol="48" pos="1379" pan="0" key="30" len="12"/>
          <note vol="48" pos="1391" pan="0" key="30" len="12"/>
          <note vol="59" pos="1415" pan="0" key="30" len="12"/>
          <note vol="59" pos="1451" pan="0" key="30" len="12"/>
          <note vol="59" pos="1487" pan="0" key="30" len="12"/>
          <note vol="59" pos="1511" pan="0" key="30" len="12"/>
          <note vol="56" pos="1535" pan="0" key="30" len="11"/>
          <note vol="46" pos="1559" pan="0" key="30" len="12"/>
          <note vol="46" pos="1571" pan="0" key="30" len="12"/>
          <note vol="46" pos="1583" pan="0" key="30" len="12"/>
          <note vol="56" pos="1607" pan="0" key="30" len="12"/>
          <note vol="46" pos="1643" pan="0" key="30" len="12"/>
          <note vol="46" pos="1655" pan="0" key="30" len="12"/>
          <note vol="56" pos="1679" pan="0" key="30" len="12"/>
          <note vol="46" pos="1691" pan="0" key="30" len="12"/>
          <note vol="46" pos="1703" pan="0" key="30" len="12"/>
          <note vol="46" pos="1715" pan="0" key="30" len="12"/>
          <note vol="56" pos="1727" pan="0" key="30" len="12"/>
          <note vol="46" pos="1751" pan="0" key="30" len="12"/>
          <note vol="46" pos="1763" pan="0" key="30" len="12"/>
          <note vol="46" pos="1775" pan="0" key="30" len="12"/>
          <note vol="56" pos="1799" pan="0" key="30" len="12"/>
          <note vol="56" pos="1835" pan="0" key="30" len="12"/>
          <note vol="56" pos="1871" pan="0" key="30" len="12"/>
          <note vol="56" pos="1895" pan="0" key="30" len="12"/>
          <note vol="56" pos="1919" pan="0" key="30" len="12"/>
          <note vol="46" pos="1943" pan="0" key="30" len="12"/>
          <note vol="46" pos="1955" pan="0" key="30" len="12"/>
          <note vol="46" pos="1967" pan="0" key="30" len="12"/>
          <note vol="56" pos="1991" pan="0" key="30" len="12"/>
          <note vol="46" pos="2027" pan="0" key="30" len="12"/>
          <note vol="46" pos="2039" pan="0" key="30" len="12"/>
          <note vol="56" pos="2063" pan="0" key="30" len="12"/>
          <note vol="46" pos="2075" pan="0" key="30" len="12"/>
          <note vol="46" pos="2087" pan="0" key="30" len="12"/>
          <note vol="46" pos="2099" pan="0" key="30" len="12"/>
          <note vol="56" pos="2111" pan="0" key="30" len="12"/>
          <note vol="46" pos="2135" pan="0" key="30" len="12"/>
          <note vol="46" pos="2147" pan="0" key="30" len="12"/>
          <note vol="46" pos="2159" pan="0" key="30" len="12"/>
          <note vol="56" pos="2183" pan="0" key="30" len="12"/>
          <note vol="56" pos="2219" pan="0" key="30" len="12"/>
          <note vol="56" pos="2255" pan="0" key="30" len="12"/>
          <note vol="56" pos="2279" pan="0" key="30" len="12"/>
          <note vol="56" pos="2303" pan="0" key="30" len="11"/>
          <note vol="46" pos="2327" pan="0" key="30" len="12"/>
          <note vol="46" pos="2339" pan="0" key="30" len="12"/>
          <note vol="46" pos="2351" pan="0" key="30" len="12"/>
          <note vol="56" pos="2375" pan="0" key="30" len="12"/>
          <note vol="46" pos="2411" pan="0" key="30" len="12"/>
          <note vol="46" pos="2423" pan="0" key="30" len="12"/>
          <note vol="56" pos="2447" pan="0" key="30" len="12"/>
          <note vol="46" pos="2459" pan="0" key="30" len="12"/>
          <note vol="46" pos="2471" pan="0" key="30" len="12"/>
          <note vol="46" pos="2483" pan="0" key="30" len="12"/>
          <note vol="56" pos="2495" pan="0" key="30" len="12"/>
          <note vol="46" pos="2519" pan="0" key="30" len="12"/>
          <note vol="46" pos="2531" pan="0" key="30" len="12"/>
          <note vol="46" pos="2543" pan="0" key="30" len="12"/>
          <note vol="56" pos="2567" pan="0" key="30" len="12"/>
          <note vol="56" pos="2603" pan="0" key="30" len="12"/>
          <note vol="56" pos="2639" pan="0" key="30" len="12"/>
          <note vol="56" pos="2663" pan="0" key="30" len="12"/>
          <note vol="56" pos="2687" pan="0" key="30" len="12"/>
          <note vol="46" pos="2711" pan="0" key="30" len="12"/>
          <note vol="46" pos="2723" pan="0" key="30" len="12"/>
          <note vol="46" pos="2735" pan="0" key="30" len="12"/>
          <note vol="56" pos="2759" pan="0" key="30" len="12"/>
          <note vol="46" pos="2795" pan="0" key="30" len="12"/>
          <note vol="46" pos="2807" pan="0" key="30" len="12"/>
          <note vol="56" pos="2831" pan="0" key="30" len="12"/>
          <note vol="46" pos="2843" pan="0" key="30" len="12"/>
          <note vol="46" pos="2855" pan="0" key="30" len="12"/>
          <note vol="46" pos="2867" pan="0" key="30" len="12"/>
          <note vol="56" pos="2879" pan="0" key="30" len="12"/>
          <note vol="46" pos="2903" pan="0" key="30" len="12"/>
          <note vol="46" pos="2915" pan="0" key="30" len="12"/>
          <note vol="46" pos="2927" pan="0" key="30" len="12"/>
          <note vol="56" pos="2951" pan="0" key="30" len="12"/>
          <note vol="56" pos="2987" pan="0" key="30" len="12"/>
          <note vol="56" pos="3023" pan="0" key="30" len="12"/>
          <note vol="56" pos="3047" pan="0" key="30" len="12"/>
          <note vol="56" pos="3071" pan="0" key="30" len="11"/>
          <note vol="46" pos="3095" pan="0" key="30" len="12"/>
          <note vol="46" pos="3107" pan="0" key="30" len="12"/>
          <note vol="46" pos="3119" pan="0" key="30" len="12"/>
          <note vol="56" pos="3143" pan="0" key="30" len="12"/>
          <note vol="46" pos="3179" pan="0" key="30" len="12"/>
          <note vol="46" pos="3191" pan="0" key="30" len="12"/>
          <note vol="56" pos="3215" pan="0" key="30" len="12"/>
          <note vol="46" pos="3227" pan="0" key="30" len="12"/>
          <note vol="46" pos="3239" pan="0" key="30" len="12"/>
          <note vol="46" pos="3251" pan="0" key="30" len="12"/>
          <note vol="56" pos="3263" pan="0" key="30" len="12"/>
          <note vol="46" pos="3287" pan="0" key="30" len="12"/>
          <note vol="46" pos="3299" pan="0" key="30" len="12"/>
          <note vol="46" pos="3311" pan="0" key="30" len="12"/>
          <note vol="56" pos="3335" pan="0" key="30" len="12"/>
          <note vol="56" pos="3371" pan="0" key="30" len="12"/>
          <note vol="56" pos="3407" pan="0" key="30" len="12"/>
          <note vol="56" pos="3431" pan="0" key="30" len="12"/>
          <note vol="56" pos="3455" pan="0" key="30" len="12"/>
          <note vol="46" pos="3479" pan="0" key="30" len="12"/>
          <note vol="46" pos="3491" pan="0" key="30" len="12"/>
          <note vol="46" pos="3503" pan="0" key="30" len="12"/>
          <note vol="56" pos="3527" pan="0" key="30" len="12"/>
          <note vol="46" pos="3563" pan="0" key="30" len="12"/>
          <note vol="46" pos="3575" pan="0" key="30" len="12"/>
          <note vol="56" pos="3599" pan="0" key="30" len="12"/>
          <note vol="46" pos="3611" pan="0" key="30" len="12"/>
          <note vol="46" pos="3623" pan="0" key="30" len="12"/>
          <note vol="46" pos="3635" pan="0" key="30" len="12"/>
          <note vol="56" pos="3647" pan="0" key="30" len="12"/>
          <note vol="46" pos="3671" pan="0" key="30" len="12"/>
          <note vol="46" pos="3683" pan="0" key="30" len="12"/>
          <note vol="46" pos="3695" pan="0" key="30" len="12"/>
          <note vol="56" pos="3719" pan="0" key="30" len="12"/>
          <note vol="56" pos="3755" pan="0" key="30" len="12"/>
          <note vol="56" pos="3791" pan="0" key="30" len="12"/>
          <note vol="56" pos="3815" pan="0" key="30" len="12"/>
          <note vol="56" pos="3839" pan="0" key="30" len="11"/>
          <note vol="46" pos="3863" pan="0" key="30" len="12"/>
          <note vol="46" pos="3875" pan="0" key="30" len="12"/>
          <note vol="46" pos="3887" pan="0" key="30" len="12"/>
          <note vol="56" pos="3911" pan="0" key="30" len="12"/>
          <note vol="46" pos="3947" pan="0" key="30" len="12"/>
          <note vol="46" pos="3959" pan="0" key="30" len="12"/>
          <note vol="56" pos="3983" pan="0" key="30" len="12"/>
          <note vol="46" pos="3995" pan="0" key="30" len="12"/>
          <note vol="46" pos="4007" pan="0" key="30" len="12"/>
          <note vol="46" pos="4019" pan="0" key="30" len="12"/>
          <note vol="56" pos="4031" pan="0" key="30" len="12"/>
          <note vol="46" pos="4055" pan="0" key="30" len="12"/>
          <note vol="46" pos="4067" pan="0" key="30" len="12"/>
          <note vol="46" pos="4079" pan="0" key="30" len="12"/>
          <note vol="56" pos="4103" pan="0" key="30" len="12"/>
          <note vol="56" pos="4139" pan="0" key="30" len="12"/>
          <note vol="56" pos="4175" pan="0" key="30" len="12"/>
          <note vol="56" pos="4199" pan="0" key="30" len="12"/>
          <note vol="56" pos="4223" pan="0" key="30" len="12"/>
          <note vol="46" pos="4247" pan="0" key="30" len="12"/>
          <note vol="46" pos="4259" pan="0" key="30" len="12"/>
          <note vol="46" pos="4271" pan="0" key="30" len="12"/>
          <note vol="56" pos="4295" pan="0" key="30" len="12"/>
          <note vol="46" pos="4331" pan="0" key="30" len="12"/>
          <note vol="46" pos="4343" pan="0" key="30" len="12"/>
          <note vol="56" pos="4367" pan="0" key="30" len="12"/>
          <note vol="46" pos="4379" pan="0" key="30" len="12"/>
          <note vol="46" pos="4391" pan="0" key="30" len="12"/>
          <note vol="46" pos="4403" pan="0" key="30" len="12"/>
          <note vol="56" pos="4415" pan="0" key="30" len="12"/>
          <note vol="46" pos="4439" pan="0" key="30" len="12"/>
          <note vol="46" pos="4451" pan="0" key="30" len="12"/>
          <note vol="46" pos="4463" pan="0" key="30" len="12"/>
          <note vol="56" pos="4487" pan="0" key="30" len="12"/>
          <note vol="56" pos="4523" pan="0" key="30" len="12"/>
          <note vol="56" pos="4559" pan="0" key="30" len="12"/>
          <note vol="56" pos="4583" pan="0" key="30" len="12"/>
          <note vol="59" pos="4607" pan="0" key="30" len="11"/>
          <note vol="48" pos="4631" pan="0" key="30" len="12"/>
          <note vol="48" pos="4643" pan="0" key="30" len="12"/>
          <note vol="48" pos="4655" pan="0" key="30" len="12"/>
          <note vol="59" pos="4679" pan="0" key="30" len="12"/>
          <note vol="48" pos="4715" pan="0" key="30" len="12"/>
          <note vol="48" pos="4727" pan="0" key="30" len="12"/>
          <note vol="59" pos="4751" pan="0" key="30" len="12"/>
          <note vol="48" pos="4763" pan="0" key="30" len="12"/>
          <note vol="48" pos="4775" pan="0" key="30" len="12"/>
          <note vol="48" pos="4787" pan="0" key="30" len="12"/>
          <note vol="59" pos="4799" pan="0" key="30" len="12"/>
          <note vol="48" pos="4823" pan="0" key="30" len="12"/>
          <note vol="48" pos="4835" pan="0" key="30" len="12"/>
          <note vol="48" pos="4847" pan="0" key="30" len="12"/>
          <note vol="59" pos="4871" pan="0" key="30" len="12"/>
          <note vol="59" pos="4907" pan="0" key="30" len="12"/>
          <note vol="59" pos="4943" pan="0" key="30" len="12"/>
          <note vol="59" pos="4967" pan="0" key="30" len="12"/>
          <note vol="59" pos="4991" pan="0" key="30" len="12"/>
          <note vol="48" pos="5015" pan="0" key="30" len="12"/>
          <note vol="48" pos="5027" pan="0" key="30" len="12"/>
          <note vol="48" pos="5039" pan="0" key="30" len="12"/>
          <note vol="59" pos="5063" pan="0" key="30" len="12"/>
          <note vol="48" pos="5099" pan="0" key="30" len="12"/>
          <note vol="48" pos="5111" pan="0" key="30" len="12"/>
          <note vol="59" pos="5135" pan="0" key="30" len="12"/>
          <note vol="48" pos="5147" pan="0" key="30" len="12"/>
          <note vol="48" pos="5159" pan="0" key="30" len="12"/>
          <note vol="48" pos="5171" pan="0" key="30" len="12"/>
          <note vol="59" pos="5183" pan="0" key="30" len="12"/>
          <note vol="48" pos="5207" pan="0" key="30" len="12"/>
          <note vol="48" pos="5219" pan="0" key="30" len="12"/>
          <note vol="48" pos="5231" pan="0" key="30" len="12"/>
          <note vol="59" pos="5255" pan="0" key="30" len="12"/>
          <note vol="59" pos="5291" pan="0" key="30" len="12"/>
          <note vol="59" pos="5327" pan="0" key="30" len="12"/>
          <note vol="59" pos="5351" pan="0" key="30" len="12"/>
          <note vol="59" pos="5375" pan="0" key="30" len="11"/>
          <note vol="48" pos="5399" pan="0" key="30" len="12"/>
          <note vol="48" pos="5411" pan="0" key="30" len="12"/>
          <note vol="48" pos="5423" pan="0" key="30" len="12"/>
          <note vol="59" pos="5447" pan="0" key="30" len="12"/>
          <note vol="48" pos="5483" pan="0" key="30" len="12"/>
          <note vol="48" pos="5495" pan="0" key="30" len="12"/>
          <note vol="59" pos="5519" pan="0" key="30" len="12"/>
          <note vol="48" pos="5531" pan="0" key="30" len="12"/>
          <note vol="48" pos="5543" pan="0" key="30" len="12"/>
          <note vol="48" pos="5555" pan="0" key="30" len="12"/>
          <note vol="59" pos="5567" pan="0" key="30" len="12"/>
          <note vol="48" pos="5591" pan="0" key="30" len="12"/>
          <note vol="48" pos="5603" pan="0" key="30" len="12"/>
          <note vol="48" pos="5615" pan="0" key="30" len="12"/>
          <note vol="59" pos="5639" pan="0" key="30" len="12"/>
          <note vol="59" pos="5675" pan="0" key="30" len="12"/>
          <note vol="59" pos="5711" pan="0" key="30" len="12"/>
          <note vol="59" pos="5735" pan="0" key="30" len="12"/>
          <note vol="59" pos="5759" pan="0" key="30" len="12"/>
          <note vol="48" pos="5783" pan="0" key="30" len="12"/>
          <note vol="48" pos="5795" pan="0" key="30" len="12"/>
          <note vol="48" pos="5807" pan="0" key="30" len="12"/>
          <note vol="59" pos="5831" pan="0" key="30" len="12"/>
          <note vol="48" pos="5867" pan="0" key="30" len="12"/>
          <note vol="48" pos="5879" pan="0" key="30" len="12"/>
          <note vol="59" pos="5903" pan="0" key="30" len="12"/>
          <note vol="48" pos="5915" pan="0" key="30" len="12"/>
          <note vol="48" pos="5927" pan="0" key="30" len="12"/>
          <note vol="48" pos="5939" pan="0" key="30" len="12"/>
          <note vol="59" pos="5951" pan="0" key="30" len="12"/>
          <note vol="48" pos="5975" pan="0" key="30" len="12"/>
          <note vol="48" pos="5987" pan="0" key="30" len="12"/>
          <note vol="48" pos="5999" pan="0" key="30" len="12"/>
          <note vol="59" pos="6023" pan="0" key="30" len="12"/>
          <note vol="59" pos="6059" pan="0" key="30" len="12"/>
          <note vol="59" pos="6095" pan="0" key="30" len="12"/>
          <note vol="59" pos="6119" pan="0" key="30" len="12"/>
          <note vol="56" pos="6143" pan="0" key="30" len="11"/>
          <note vol="46" pos="6167" pan="0" key="30" len="12"/>
          <note vol="46" pos="6179" pan="0" key="30" len="12"/>
          <note vol="46" pos="6191" pan="0" key="30" len="12"/>
          <note vol="56" pos="6215" pan="0" key="30" len="12"/>
          <note vol="46" pos="6251" pan="0" key="30" len="12"/>
          <note vol="46" pos="6263" pan="0" key="30" len="12"/>
          <note vol="56" pos="6287" pan="0" key="30" len="12"/>
          <note vol="46" pos="6299" pan="0" key="30" len="12"/>
          <note vol="46" pos="6311" pan="0" key="30" len="12"/>
          <note vol="46" pos="6323" pan="0" key="30" len="12"/>
          <note vol="56" pos="6335" pan="0" key="30" len="12"/>
          <note vol="46" pos="6359" pan="0" key="30" len="12"/>
          <note vol="46" pos="6371" pan="0" key="30" len="12"/>
          <note vol="46" pos="6383" pan="0" key="30" len="12"/>
          <note vol="56" pos="6407" pan="0" key="30" len="12"/>
          <note vol="56" pos="6443" pan="0" key="30" len="12"/>
          <note vol="56" pos="6479" pan="0" key="30" len="12"/>
          <note vol="56" pos="6503" pan="0" key="30" len="12"/>
          <note vol="56" pos="6527" pan="0" key="30" len="12"/>
          <note vol="46" pos="6551" pan="0" key="30" len="12"/>
          <note vol="46" pos="6563" pan="0" key="30" len="12"/>
          <note vol="46" pos="6575" pan="0" key="30" len="12"/>
          <note vol="56" pos="6599" pan="0" key="30" len="12"/>
          <note vol="46" pos="6635" pan="0" key="30" len="12"/>
          <note vol="46" pos="6647" pan="0" key="30" len="12"/>
          <note vol="56" pos="6671" pan="0" key="30" len="12"/>
          <note vol="46" pos="6683" pan="0" key="30" len="12"/>
          <note vol="46" pos="6695" pan="0" key="30" len="12"/>
          <note vol="46" pos="6707" pan="0" key="30" len="12"/>
          <note vol="56" pos="6719" pan="0" key="30" len="12"/>
          <note vol="46" pos="6743" pan="0" key="30" len="12"/>
          <note vol="46" pos="6755" pan="0" key="30" len="12"/>
          <note vol="46" pos="6767" pan="0" key="30" len="12"/>
          <note vol="56" pos="6791" pan="0" key="30" len="12"/>
          <note vol="56" pos="6827" pan="0" key="30" len="12"/>
          <note vol="56" pos="6863" pan="0" key="30" len="12"/>
          <note vol="56" pos="6887" pan="0" key="30" len="12"/>
          <note vol="56" pos="6911" pan="0" key="30" len="11"/>
          <note vol="46" pos="6935" pan="0" key="30" len="12"/>
          <note vol="46" pos="6947" pan="0" key="30" len="12"/>
          <note vol="46" pos="6959" pan="0" key="30" len="12"/>
          <note vol="56" pos="6983" pan="0" key="30" len="12"/>
          <note vol="46" pos="7019" pan="0" key="30" len="12"/>
          <note vol="46" pos="7031" pan="0" key="30" len="12"/>
          <note vol="56" pos="7055" pan="0" key="30" len="12"/>
          <note vol="46" pos="7067" pan="0" key="30" len="12"/>
          <note vol="46" pos="7079" pan="0" key="30" len="12"/>
          <note vol="46" pos="7091" pan="0" key="30" len="12"/>
          <note vol="56" pos="7103" pan="0" key="30" len="12"/>
          <note vol="46" pos="7127" pan="0" key="30" len="12"/>
          <note vol="46" pos="7139" pan="0" key="30" len="12"/>
          <note vol="46" pos="7151" pan="0" key="30" len="12"/>
          <note vol="56" pos="7175" pan="0" key="30" len="12"/>
          <note vol="56" pos="7211" pan="0" key="30" len="12"/>
          <note vol="56" pos="7247" pan="0" key="30" len="12"/>
          <note vol="56" pos="7271" pan="0" key="30" len="12"/>
          <note vol="56" pos="7295" pan="0" key="30" len="12"/>
          <note vol="46" pos="7319" pan="0" key="30" len="12"/>
          <note vol="46" pos="7331" pan="0" key="30" len="12"/>
          <note vol="46" pos="7343" pan="0" key="30" len="12"/>
          <note vol="56" pos="7367" pan="0" key="30" len="12"/>
          <note vol="46" pos="7403" pan="0" key="30" len="12"/>
          <note vol="46" pos="7415" pan="0" key="30" len="12"/>
          <note vol="56" pos="7439" pan="0" key="30" len="12"/>
          <note vol="46" pos="7451" pan="0" key="30" len="12"/>
          <note vol="46" pos="7463" pan="0" key="30" len="12"/>
          <note vol="46" pos="7475" pan="0" key="30" len="12"/>
          <note vol="56" pos="7487" pan="0" key="30" len="12"/>
          <note vol="46" pos="7511" pan="0" key="30" len="12"/>
          <note vol="46" pos="7523" pan="0" key="30" len="12"/>
          <note vol="46" pos="7535" pan="0" key="30" len="12"/>
          <note vol="56" pos="7559" pan="0" key="30" len="12"/>
          <note vol="56" pos="7595" pan="0" key="30" len="12"/>
          <note vol="56" pos="7631" pan="0" key="30" len="12"/>
          <note vol="56" pos="7655" pan="0" key="30" len="12"/>
          <note vol="59" pos="7679" pan="0" key="30" len="11"/>
          <note vol="48" pos="7703" pan="0" key="30" len="12"/>
          <note vol="48" pos="7715" pan="0" key="30" len="12"/>
          <note vol="48" pos="7727" pan="0" key="30" len="12"/>
          <note vol="59" pos="7751" pan="0" key="30" len="12"/>
          <note vol="48" pos="7787" pan="0" key="30" len="12"/>
          <note vol="48" pos="7799" pan="0" key="30" len="12"/>
          <note vol="59" pos="7823" pan="0" key="30" len="12"/>
          <note vol="48" pos="7835" pan="0" key="30" len="12"/>
          <note vol="48" pos="7847" pan="0" key="30" len="12"/>
          <note vol="48" pos="7859" pan="0" key="30" len="12"/>
          <note vol="59" pos="7871" pan="0" key="30" len="12"/>
          <note vol="48" pos="7895" pan="0" key="30" len="12"/>
          <note vol="48" pos="7907" pan="0" key="30" len="12"/>
          <note vol="48" pos="7919" pan="0" key="30" len="12"/>
          <note vol="59" pos="7943" pan="0" key="30" len="12"/>
          <note vol="59" pos="7979" pan="0" key="30" len="12"/>
          <note vol="59" pos="8015" pan="0" key="30" len="12"/>
          <note vol="59" pos="8039" pan="0" key="30" len="12"/>
          <note vol="59" pos="8063" pan="0" key="30" len="12"/>
          <note vol="48" pos="8087" pan="0" key="30" len="12"/>
          <note vol="48" pos="8099" pan="0" key="30" len="12"/>
          <note vol="48" pos="8111" pan="0" key="30" len="12"/>
          <note vol="59" pos="8135" pan="0" key="30" len="12"/>
          <note vol="48" pos="8171" pan="0" key="30" len="12"/>
          <note vol="48" pos="8183" pan="0" key="30" len="12"/>
          <note vol="59" pos="8207" pan="0" key="30" len="12"/>
          <note vol="48" pos="8219" pan="0" key="30" len="12"/>
          <note vol="48" pos="8231" pan="0" key="30" len="12"/>
          <note vol="48" pos="8243" pan="0" key="30" len="12"/>
          <note vol="59" pos="8255" pan="0" key="30" len="12"/>
          <note vol="48" pos="8279" pan="0" key="30" len="12"/>
          <note vol="48" pos="8291" pan="0" key="30" len="12"/>
          <note vol="48" pos="8303" pan="0" key="30" len="12"/>
          <note vol="59" pos="8327" pan="0" key="30" len="12"/>
          <note vol="59" pos="8363" pan="0" key="30" len="12"/>
          <note vol="59" pos="8399" pan="0" key="30" len="12"/>
          <note vol="59" pos="8423" pan="0" key="30" len="12"/>
          <note vol="59" pos="8447" pan="0" key="30" len="11"/>
          <note vol="48" pos="8471" pan="0" key="30" len="12"/>
          <note vol="48" pos="8483" pan="0" key="30" len="12"/>
          <note vol="48" pos="8495" pan="0" key="30" len="12"/>
          <note vol="59" pos="8519" pan="0" key="30" len="12"/>
          <note vol="48" pos="8555" pan="0" key="30" len="12"/>
          <note vol="48" pos="8567" pan="0" key="30" len="12"/>
          <note vol="59" pos="8591" pan="0" key="30" len="12"/>
          <note vol="48" pos="8603" pan="0" key="30" len="12"/>
          <note vol="48" pos="8615" pan="0" key="30" len="12"/>
          <note vol="48" pos="8627" pan="0" key="30" len="12"/>
          <note vol="59" pos="8639" pan="0" key="30" len="12"/>
          <note vol="48" pos="8663" pan="0" key="30" len="12"/>
          <note vol="48" pos="8675" pan="0" key="30" len="12"/>
          <note vol="48" pos="8687" pan="0" key="30" len="12"/>
          <note vol="59" pos="8711" pan="0" key="30" len="12"/>
          <note vol="59" pos="8747" pan="0" key="30" len="12"/>
          <note vol="59" pos="8783" pan="0" key="30" len="12"/>
          <note vol="59" pos="8807" pan="0" key="30" len="12"/>
          <note vol="59" pos="8831" pan="0" key="30" len="12"/>
          <note vol="48" pos="8855" pan="0" key="30" len="12"/>
          <note vol="48" pos="8867" pan="0" key="30" len="12"/>
          <note vol="48" pos="8879" pan="0" key="30" len="12"/>
          <note vol="59" pos="8903" pan="0" key="30" len="12"/>
          <note vol="48" pos="8939" pan="0" key="30" len="12"/>
          <note vol="48" pos="8951" pan="0" key="30" len="12"/>
          <note vol="59" pos="8975" pan="0" key="30" len="12"/>
          <note vol="48" pos="8987" pan="0" key="30" len="12"/>
          <note vol="48" pos="8999" pan="0" key="30" len="12"/>
          <note vol="48" pos="9011" pan="0" key="30" len="12"/>
          <note vol="59" pos="9023" pan="0" key="30" len="12"/>
          <note vol="48" pos="9047" pan="0" key="30" len="12"/>
          <note vol="48" pos="9059" pan="0" key="30" len="12"/>
          <note vol="48" pos="9071" pan="0" key="30" len="12"/>
          <note vol="59" pos="9095" pan="0" key="30" len="12"/>
          <note vol="59" pos="9131" pan="0" key="30" len="12"/>
          <note vol="59" pos="9167" pan="0" key="30" len="12"/>
          <note vol="59" pos="9191" pan="0" key="30" len="12"/>
          <note vol="59" pos="9215" pan="0" key="30" len="11"/>
          <note vol="48" pos="9239" pan="0" key="30" len="12"/>
          <note vol="48" pos="9251" pan="0" key="30" len="12"/>
          <note vol="48" pos="9263" pan="0" key="30" len="12"/>
          <note vol="59" pos="9287" pan="0" key="30" len="12"/>
          <note vol="48" pos="9323" pan="0" key="30" len="12"/>
          <note vol="48" pos="9335" pan="0" key="30" len="12"/>
          <note vol="59" pos="9359" pan="0" key="30" len="12"/>
          <note vol="48" pos="9371" pan="0" key="30" len="12"/>
          <note vol="48" pos="9383" pan="0" key="30" len="12"/>
          <note vol="48" pos="9395" pan="0" key="30" len="12"/>
          <note vol="59" pos="9407" pan="0" key="30" len="12"/>
          <note vol="48" pos="9431" pan="0" key="30" len="12"/>
          <note vol="48" pos="9443" pan="0" key="30" len="12"/>
          <note vol="48" pos="9455" pan="0" key="30" len="12"/>
          <note vol="59" pos="9479" pan="0" key="30" len="12"/>
          <note vol="59" pos="9515" pan="0" key="30" len="12"/>
          <note vol="59" pos="9551" pan="0" key="30" len="12"/>
          <note vol="59" pos="9575" pan="0" key="30" len="12"/>
          <note vol="59" pos="9599" pan="0" key="30" len="12"/>
          <note vol="48" pos="9623" pan="0" key="30" len="12"/>
          <note vol="48" pos="9635" pan="0" key="30" len="12"/>
          <note vol="48" pos="9647" pan="0" key="30" len="12"/>
          <note vol="59" pos="9671" pan="0" key="30" len="12"/>
          <note vol="48" pos="9707" pan="0" key="30" len="12"/>
          <note vol="48" pos="9719" pan="0" key="30" len="12"/>
          <note vol="59" pos="9743" pan="0" key="30" len="12"/>
          <note vol="48" pos="9755" pan="0" key="30" len="12"/>
          <note vol="48" pos="9767" pan="0" key="30" len="12"/>
          <note vol="48" pos="9779" pan="0" key="30" len="12"/>
          <note vol="59" pos="9791" pan="0" key="30" len="12"/>
          <note vol="48" pos="9815" pan="0" key="30" len="12"/>
          <note vol="48" pos="9827" pan="0" key="30" len="12"/>
          <note vol="48" pos="9839" pan="0" key="30" len="12"/>
          <note vol="59" pos="9863" pan="0" key="30" len="12"/>
          <note vol="59" pos="9899" pan="0" key="30" len="12"/>
          <note vol="59" pos="9935" pan="0" key="30" len="12"/>
          <note vol="59" pos="9959" pan="0" key="30" len="12"/>
          <note vol="59" pos="9983" pan="0" key="30" len="11"/>
          <note vol="48" pos="10007" pan="0" key="30" len="12"/>
          <note vol="48" pos="10019" pan="0" key="30" len="12"/>
          <note vol="48" pos="10031" pan="0" key="30" len="12"/>
          <note vol="59" pos="10055" pan="0" key="30" len="12"/>
          <note vol="48" pos="10091" pan="0" key="30" len="12"/>
          <note vol="48" pos="10103" pan="0" key="30" len="12"/>
          <note vol="59" pos="10127" pan="0" key="30" len="12"/>
          <note vol="48" pos="10139" pan="0" key="30" len="12"/>
          <note vol="48" pos="10151" pan="0" key="30" len="12"/>
          <note vol="48" pos="10163" pan="0" key="30" len="12"/>
          <note vol="59" pos="10175" pan="0" key="30" len="12"/>
          <note vol="48" pos="10199" pan="0" key="30" len="12"/>
          <note vol="48" pos="10211" pan="0" key="30" len="12"/>
          <note vol="48" pos="10223" pan="0" key="30" len="12"/>
          <note vol="59" pos="10247" pan="0" key="30" len="12"/>
          <note vol="59" pos="10283" pan="0" key="30" len="12"/>
          <note vol="59" pos="10319" pan="0" key="30" len="12"/>
          <note vol="59" pos="10343" pan="0" key="30" len="12"/>
          <note vol="59" pos="10367" pan="0" key="30" len="12"/>
          <note vol="48" pos="10391" pan="0" key="30" len="12"/>
          <note vol="48" pos="10403" pan="0" key="30" len="12"/>
          <note vol="48" pos="10415" pan="0" key="30" len="12"/>
          <note vol="59" pos="10439" pan="0" key="30" len="12"/>
          <note vol="48" pos="10475" pan="0" key="30" len="12"/>
          <note vol="48" pos="10487" pan="0" key="30" len="12"/>
          <note vol="59" pos="10511" pan="0" key="30" len="12"/>
          <note vol="48" pos="10523" pan="0" key="30" len="12"/>
          <note vol="48" pos="10535" pan="0" key="30" len="12"/>
          <note vol="48" pos="10547" pan="0" key="30" len="12"/>
          <note vol="59" pos="10559" pan="0" key="30" len="12"/>
          <note vol="48" pos="10583" pan="0" key="30" len="12"/>
          <note vol="48" pos="10595" pan="0" key="30" len="12"/>
          <note vol="48" pos="10607" pan="0" key="30" len="12"/>
          <note vol="59" pos="10631" pan="0" key="30" len="12"/>
          <note vol="59" pos="10667" pan="0" key="30" len="12"/>
          <note vol="59" pos="10703" pan="0" key="30" len="12"/>
          <note vol="59" pos="10727" pan="0" key="30" len="12"/>
          <note vol="59" pos="10751" pan="0" key="30" len="11"/>
          <note vol="48" pos="10775" pan="0" key="30" len="12"/>
          <note vol="48" pos="10787" pan="0" key="30" len="12"/>
          <note vol="48" pos="10799" pan="0" key="30" len="12"/>
          <note vol="59" pos="10823" pan="0" key="30" len="12"/>
          <note vol="48" pos="10859" pan="0" key="30" len="12"/>
          <note vol="48" pos="10871" pan="0" key="30" len="12"/>
          <note vol="59" pos="10895" pan="0" key="30" len="12"/>
          <note vol="48" pos="10907" pan="0" key="30" len="12"/>
          <note vol="48" pos="10919" pan="0" key="30" len="12"/>
          <note vol="48" pos="10931" pan="0" key="30" len="12"/>
          <note vol="59" pos="10943" pan="0" key="30" len="12"/>
          <note vol="48" pos="10967" pan="0" key="30" len="12"/>
          <note vol="48" pos="10979" pan="0" key="30" len="12"/>
          <note vol="48" pos="10991" pan="0" key="30" len="12"/>
          <note vol="59" pos="11015" pan="0" key="30" len="12"/>
          <note vol="59" pos="11051" pan="0" key="30" len="12"/>
          <note vol="59" pos="11087" pan="0" key="30" len="12"/>
          <note vol="59" pos="11111" pan="0" key="30" len="12"/>
          <note vol="59" pos="11135" pan="0" key="30" len="12"/>
          <note vol="48" pos="11159" pan="0" key="30" len="12"/>
          <note vol="48" pos="11171" pan="0" key="30" len="12"/>
          <note vol="48" pos="11183" pan="0" key="30" len="12"/>
          <note vol="59" pos="11207" pan="0" key="30" len="12"/>
          <note vol="48" pos="11243" pan="0" key="30" len="12"/>
          <note vol="48" pos="11255" pan="0" key="30" len="12"/>
          <note vol="59" pos="11279" pan="0" key="30" len="12"/>
          <note vol="48" pos="11291" pan="0" key="30" len="12"/>
          <note vol="48" pos="11303" pan="0" key="30" len="12"/>
          <note vol="48" pos="11315" pan="0" key="30" len="12"/>
          <note vol="59" pos="11327" pan="0" key="30" len="12"/>
          <note vol="48" pos="11351" pan="0" key="30" len="12"/>
          <note vol="48" pos="11363" pan="0" key="30" len="12"/>
          <note vol="48" pos="11375" pan="0" key="30" len="12"/>
          <note vol="59" pos="11399" pan="0" key="30" len="12"/>
          <note vol="59" pos="11435" pan="0" key="30" len="12"/>
          <note vol="59" pos="11471" pan="0" key="30" len="12"/>
          <note vol="59" pos="11495" pan="0" key="30" len="12"/>
          <note vol="59" pos="11519" pan="0" key="30" len="11"/>
          <note vol="48" pos="11543" pan="0" key="30" len="12"/>
          <note vol="48" pos="11555" pan="0" key="30" len="12"/>
          <note vol="48" pos="11567" pan="0" key="30" len="12"/>
          <note vol="59" pos="11591" pan="0" key="30" len="12"/>
          <note vol="48" pos="11627" pan="0" key="30" len="12"/>
          <note vol="48" pos="11639" pan="0" key="30" len="12"/>
          <note vol="59" pos="11663" pan="0" key="30" len="12"/>
          <note vol="48" pos="11675" pan="0" key="30" len="12"/>
          <note vol="48" pos="11687" pan="0" key="30" len="12"/>
          <note vol="48" pos="11699" pan="0" key="30" len="12"/>
          <note vol="59" pos="11711" pan="0" key="30" len="12"/>
          <note vol="48" pos="11735" pan="0" key="30" len="12"/>
          <note vol="48" pos="11747" pan="0" key="30" len="12"/>
          <note vol="48" pos="11759" pan="0" key="30" len="12"/>
          <note vol="59" pos="11783" pan="0" key="30" len="12"/>
          <note vol="59" pos="11819" pan="0" key="30" len="12"/>
          <note vol="59" pos="11855" pan="0" key="30" len="12"/>
          <note vol="59" pos="11879" pan="0" key="30" len="12"/>
          <note vol="59" pos="11903" pan="0" key="30" len="12"/>
          <note vol="48" pos="11927" pan="0" key="30" len="12"/>
          <note vol="48" pos="11939" pan="0" key="30" len="12"/>
          <note vol="48" pos="11951" pan="0" key="30" len="12"/>
          <note vol="59" pos="11975" pan="0" key="30" len="12"/>
          <note vol="48" pos="12011" pan="0" key="30" len="12"/>
          <note vol="48" pos="12023" pan="0" key="30" len="12"/>
          <note vol="59" pos="12047" pan="0" key="30" len="12"/>
          <note vol="48" pos="12059" pan="0" key="30" len="12"/>
          <note vol="48" pos="12071" pan="0" key="30" len="12"/>
          <note vol="48" pos="12083" pan="0" key="30" len="12"/>
          <note vol="59" pos="12095" pan="0" key="30" len="12"/>
          <note vol="48" pos="12119" pan="0" key="30" len="12"/>
          <note vol="48" pos="12131" pan="0" key="30" len="12"/>
          <note vol="48" pos="12143" pan="0" key="30" len="12"/>
          <note vol="59" pos="12167" pan="0" key="30" len="12"/>
          <note vol="59" pos="12203" pan="0" key="30" len="12"/>
          <note vol="59" pos="12239" pan="0" key="30" len="12"/>
          <note vol="59" pos="12263" pan="0" key="30" len="12"/>
          <note vol="59" pos="12287" pan="0" key="30" len="11"/>
          <note vol="48" pos="12311" pan="0" key="30" len="12"/>
          <note vol="48" pos="12323" pan="0" key="30" len="12"/>
          <note vol="48" pos="12335" pan="0" key="30" len="12"/>
          <note vol="59" pos="12359" pan="0" key="30" len="12"/>
          <note vol="48" pos="12395" pan="0" key="30" len="12"/>
          <note vol="48" pos="12407" pan="0" key="30" len="12"/>
          <note vol="59" pos="12431" pan="0" key="30" len="12"/>
          <note vol="48" pos="12443" pan="0" key="30" len="12"/>
          <note vol="48" pos="12455" pan="0" key="30" len="12"/>
          <note vol="48" pos="12467" pan="0" key="30" len="12"/>
          <note vol="59" pos="12479" pan="0" key="30" len="12"/>
          <note vol="48" pos="12503" pan="0" key="30" len="12"/>
          <note vol="48" pos="12515" pan="0" key="30" len="12"/>
          <note vol="48" pos="12527" pan="0" key="30" len="12"/>
          <note vol="59" pos="12551" pan="0" key="30" len="12"/>
          <note vol="59" pos="12587" pan="0" key="30" len="12"/>
          <note vol="59" pos="12623" pan="0" key="30" len="12"/>
          <note vol="59" pos="12647" pan="0" key="30" len="12"/>
          <note vol="59" pos="12671" pan="0" key="30" len="12"/>
          <note vol="48" pos="12695" pan="0" key="30" len="12"/>
          <note vol="48" pos="12707" pan="0" key="30" len="12"/>
          <note vol="48" pos="12719" pan="0" key="30" len="12"/>
          <note vol="59" pos="12743" pan="0" key="30" len="12"/>
          <note vol="48" pos="12779" pan="0" key="30" len="12"/>
          <note vol="48" pos="12791" pan="0" key="30" len="12"/>
          <note vol="59" pos="12815" pan="0" key="30" len="12"/>
          <note vol="48" pos="12827" pan="0" key="30" len="12"/>
          <note vol="48" pos="12839" pan="0" key="30" len="12"/>
          <note vol="48" pos="12851" pan="0" key="30" len="12"/>
          <note vol="59" pos="12863" pan="0" key="30" len="12"/>
          <note vol="48" pos="12887" pan="0" key="30" len="12"/>
          <note vol="48" pos="12899" pan="0" key="30" len="12"/>
          <note vol="48" pos="12911" pan="0" key="30" len="12"/>
          <note vol="59" pos="12935" pan="0" key="30" len="12"/>
          <note vol="59" pos="12971" pan="0" key="30" len="12"/>
          <note vol="59" pos="13007" pan="0" key="30" len="12"/>
          <note vol="59" pos="13031" pan="0" key="30" len="12"/>
          <note vol="59" pos="13055" pan="0" key="30" len="11"/>
          <note vol="48" pos="13079" pan="0" key="30" len="12"/>
          <note vol="48" pos="13091" pan="0" key="30" len="12"/>
          <note vol="48" pos="13103" pan="0" key="30" len="12"/>
          <note vol="59" pos="13127" pan="0" key="30" len="12"/>
          <note vol="48" pos="13163" pan="0" key="30" len="12"/>
          <note vol="48" pos="13175" pan="0" key="30" len="12"/>
          <note vol="59" pos="13199" pan="0" key="30" len="12"/>
          <note vol="48" pos="13211" pan="0" key="30" len="12"/>
          <note vol="48" pos="13223" pan="0" key="30" len="12"/>
          <note vol="48" pos="13235" pan="0" key="30" len="12"/>
          <note vol="59" pos="13247" pan="0" key="30" len="12"/>
          <note vol="48" pos="13271" pan="0" key="30" len="12"/>
          <note vol="48" pos="13283" pan="0" key="30" len="12"/>
          <note vol="48" pos="13295" pan="0" key="30" len="12"/>
          <note vol="59" pos="13319" pan="0" key="30" len="12"/>
          <note vol="59" pos="13355" pan="0" key="30" len="12"/>
          <note vol="59" pos="13391" pan="0" key="30" len="12"/>
          <note vol="59" pos="13415" pan="0" key="30" len="12"/>
          <note vol="59" pos="13439" pan="0" key="30" len="12"/>
          <note vol="48" pos="13463" pan="0" key="30" len="12"/>
          <note vol="48" pos="13475" pan="0" key="30" len="12"/>
          <note vol="48" pos="13487" pan="0" key="30" len="12"/>
          <note vol="59" pos="13511" pan="0" key="30" len="12"/>
          <note vol="48" pos="13547" pan="0" key="30" len="12"/>
          <note vol="48" pos="13559" pan="0" key="30" len="12"/>
          <note vol="59" pos="13583" pan="0" key="30" len="12"/>
          <note vol="48" pos="13595" pan="0" key="30" len="12"/>
          <note vol="48" pos="13607" pan="0" key="30" len="12"/>
          <note vol="48" pos="13619" pan="0" key="30" len="12"/>
          <note vol="59" pos="13631" pan="0" key="30" len="12"/>
          <note vol="48" pos="13655" pan="0" key="30" len="12"/>
          <note vol="48" pos="13667" pan="0" key="30" len="12"/>
          <note vol="48" pos="13679" pan="0" key="30" len="12"/>
          <note vol="59" pos="13703" pan="0" key="30" len="12"/>
          <note vol="59" pos="13739" pan="0" key="30" len="12"/>
          <note vol="59" pos="13775" pan="0" key="30" len="12"/>
          <note vol="59" pos="13799" pan="0" key="30" len="12"/>
          <note vol="59" pos="13823" pan="0" key="30" len="11"/>
          <note vol="48" pos="13847" pan="0" key="30" len="12"/>
          <note vol="48" pos="13859" pan="0" key="30" len="12"/>
          <note vol="48" pos="13871" pan="0" key="30" len="12"/>
          <note vol="59" pos="13895" pan="0" key="30" len="12"/>
          <note vol="48" pos="13931" pan="0" key="30" len="12"/>
          <note vol="48" pos="13943" pan="0" key="30" len="12"/>
          <note vol="59" pos="13967" pan="0" key="30" len="12"/>
          <note vol="48" pos="13979" pan="0" key="30" len="12"/>
          <note vol="48" pos="13991" pan="0" key="30" len="12"/>
          <note vol="48" pos="14003" pan="0" key="30" len="12"/>
          <note vol="59" pos="14015" pan="0" key="30" len="12"/>
          <note vol="48" pos="14039" pan="0" key="30" len="12"/>
          <note vol="48" pos="14051" pan="0" key="30" len="12"/>
          <note vol="48" pos="14063" pan="0" key="30" len="12"/>
          <note vol="59" pos="14087" pan="0" key="30" len="12"/>
          <note vol="59" pos="14123" pan="0" key="30" len="12"/>
          <note vol="59" pos="14159" pan="0" key="30" len="12"/>
          <note vol="59" pos="14183" pan="0" key="30" len="12"/>
          <note vol="59" pos="14207" pan="0" key="30" len="12"/>
          <note vol="48" pos="14231" pan="0" key="30" len="12"/>
          <note vol="48" pos="14243" pan="0" key="30" len="12"/>
          <note vol="48" pos="14255" pan="0" key="30" len="12"/>
          <note vol="59" pos="14279" pan="0" key="30" len="12"/>
          <note vol="48" pos="14315" pan="0" key="30" len="12"/>
          <note vol="48" pos="14327" pan="0" key="30" len="12"/>
          <note vol="59" pos="14351" pan="0" key="30" len="12"/>
          <note vol="48" pos="14363" pan="0" key="30" len="12"/>
          <note vol="48" pos="14375" pan="0" key="30" len="12"/>
          <note vol="48" pos="14387" pan="0" key="30" len="12"/>
          <note vol="59" pos="14399" pan="0" key="30" len="12"/>
          <note vol="48" pos="14423" pan="0" key="30" len="12"/>
          <note vol="48" pos="14435" pan="0" key="30" len="12"/>
          <note vol="48" pos="14447" pan="0" key="30" len="12"/>
          <note vol="59" pos="14471" pan="0" key="30" len="12"/>
          <note vol="59" pos="14507" pan="0" key="30" len="12"/>
          <note vol="59" pos="14543" pan="0" key="30" len="12"/>
          <note vol="59" pos="14567" pan="0" key="30" len="12"/>
          <note vol="59" pos="14591" pan="0" key="30" len="11"/>
          <note vol="48" pos="14615" pan="0" key="30" len="12"/>
          <note vol="48" pos="14627" pan="0" key="30" len="12"/>
          <note vol="48" pos="14639" pan="0" key="30" len="12"/>
          <note vol="59" pos="14663" pan="0" key="30" len="12"/>
          <note vol="48" pos="14699" pan="0" key="30" len="12"/>
          <note vol="48" pos="14711" pan="0" key="30" len="12"/>
          <note vol="59" pos="14735" pan="0" key="30" len="12"/>
          <note vol="48" pos="14747" pan="0" key="30" len="12"/>
          <note vol="48" pos="14759" pan="0" key="30" len="12"/>
          <note vol="48" pos="14771" pan="0" key="30" len="12"/>
          <note vol="59" pos="14783" pan="0" key="30" len="12"/>
          <note vol="48" pos="14807" pan="0" key="30" len="12"/>
          <note vol="48" pos="14819" pan="0" key="30" len="12"/>
          <note vol="48" pos="14831" pan="0" key="30" len="12"/>
          <note vol="59" pos="14855" pan="0" key="30" len="12"/>
          <note vol="59" pos="14891" pan="0" key="30" len="12"/>
          <note vol="59" pos="14927" pan="0" key="30" len="12"/>
          <note vol="59" pos="14951" pan="0" key="30" len="12"/>
          <note vol="59" pos="14975" pan="0" key="30" len="12"/>
          <note vol="48" pos="14999" pan="0" key="30" len="12"/>
          <note vol="48" pos="15011" pan="0" key="30" len="12"/>
          <note vol="48" pos="15023" pan="0" key="30" len="12"/>
          <note vol="59" pos="15047" pan="0" key="30" len="12"/>
          <note vol="48" pos="15083" pan="0" key="30" len="12"/>
          <note vol="48" pos="15095" pan="0" key="30" len="12"/>
          <note vol="59" pos="15119" pan="0" key="30" len="12"/>
          <note vol="48" pos="15131" pan="0" key="30" len="12"/>
          <note vol="48" pos="15143" pan="0" key="30" len="12"/>
          <note vol="48" pos="15155" pan="0" key="30" len="12"/>
          <note vol="59" pos="15167" pan="0" key="30" len="12"/>
          <note vol="48" pos="15191" pan="0" key="30" len="12"/>
          <note vol="48" pos="15203" pan="0" key="30" len="12"/>
          <note vol="48" pos="15215" pan="0" key="30" len="12"/>
          <note vol="59" pos="15239" pan="0" key="30" len="12"/>
          <note vol="59" pos="15275" pan="0" key="30" len="12"/>
          <note vol="59" pos="15311" pan="0" key="30" len="12"/>
          <note vol="59" pos="15335" pan="0" key="30" len="12"/>
          <note vol="59" pos="15359" pan="0" key="30" len="11"/>
          <note vol="48" pos="15383" pan="0" key="30" len="12"/>
          <note vol="48" pos="15395" pan="0" key="30" len="12"/>
          <note vol="48" pos="15407" pan="0" key="30" len="12"/>
          <note vol="59" pos="15431" pan="0" key="30" len="12"/>
          <note vol="48" pos="15467" pan="0" key="30" len="12"/>
          <note vol="48" pos="15479" pan="0" key="30" len="12"/>
          <note vol="59" pos="15503" pan="0" key="30" len="12"/>
          <note vol="48" pos="15515" pan="0" key="30" len="12"/>
          <note vol="48" pos="15527" pan="0" key="30" len="12"/>
          <note vol="48" pos="15539" pan="0" key="30" len="12"/>
          <note vol="59" pos="15551" pan="0" key="30" len="12"/>
          <note vol="48" pos="15575" pan="0" key="30" len="12"/>
          <note vol="48" pos="15587" pan="0" key="30" len="12"/>
          <note vol="48" pos="15599" pan="0" key="30" len="12"/>
          <note vol="59" pos="15623" pan="0" key="30" len="12"/>
          <note vol="59" pos="15659" pan="0" key="30" len="12"/>
          <note vol="59" pos="15695" pan="0" key="30" len="12"/>
          <note vol="59" pos="15719" pan="0" key="30" len="12"/>
          <note vol="59" pos="15743" pan="0" key="30" len="12"/>
          <note vol="48" pos="15767" pan="0" key="30" len="12"/>
          <note vol="48" pos="15779" pan="0" key="30" len="12"/>
          <note vol="48" pos="15791" pan="0" key="30" len="12"/>
          <note vol="59" pos="15815" pan="0" key="30" len="12"/>
          <note vol="48" pos="15851" pan="0" key="30" len="12"/>
          <note vol="48" pos="15863" pan="0" key="30" len="12"/>
          <note vol="59" pos="15887" pan="0" key="30" len="12"/>
          <note vol="48" pos="15899" pan="0" key="30" len="12"/>
          <note vol="48" pos="15911" pan="0" key="30" len="12"/>
          <note vol="48" pos="15923" pan="0" key="30" len="12"/>
          <note vol="59" pos="15935" pan="0" key="30" len="12"/>
          <note vol="48" pos="15959" pan="0" key="30" len="12"/>
          <note vol="48" pos="15971" pan="0" key="30" len="12"/>
          <note vol="48" pos="15983" pan="0" key="30" len="12"/>
          <note vol="59" pos="16007" pan="0" key="30" len="12"/>
          <note vol="59" pos="16043" pan="0" key="30" len="12"/>
          <note vol="59" pos="16079" pan="0" key="30" len="12"/>
          <note vol="59" pos="16103" pan="0" key="30" len="12"/>
          <note vol="59" pos="16127" pan="0" key="30" len="11"/>
          <note vol="48" pos="16151" pan="0" key="30" len="12"/>
          <note vol="48" pos="16163" pan="0" key="30" len="12"/>
          <note vol="48" pos="16175" pan="0" key="30" len="12"/>
          <note vol="59" pos="16199" pan="0" key="30" len="12"/>
          <note vol="48" pos="16235" pan="0" key="30" len="12"/>
          <note vol="48" pos="16247" pan="0" key="30" len="12"/>
          <note vol="59" pos="16271" pan="0" key="30" len="12"/>
          <note vol="48" pos="16283" pan="0" key="30" len="12"/>
          <note vol="48" pos="16295" pan="0" key="30" len="12"/>
          <note vol="48" pos="16307" pan="0" key="30" len="12"/>
          <note vol="59" pos="16319" pan="0" key="30" len="12"/>
          <note vol="48" pos="16343" pan="0" key="30" len="12"/>
          <note vol="48" pos="16355" pan="0" key="30" len="12"/>
          <note vol="48" pos="16367" pan="0" key="30" len="12"/>
          <note vol="59" pos="16391" pan="0" key="30" len="12"/>
          <note vol="59" pos="16427" pan="0" key="30" len="12"/>
          <note vol="59" pos="16463" pan="0" key="30" len="12"/>
          <note vol="59" pos="16487" pan="0" key="30" len="12"/>
          <note vol="59" pos="16511" pan="0" key="30" len="12"/>
          <note vol="48" pos="16535" pan="0" key="30" len="12"/>
          <note vol="48" pos="16547" pan="0" key="30" len="12"/>
          <note vol="48" pos="16559" pan="0" key="30" len="12"/>
          <note vol="59" pos="16583" pan="0" key="30" len="12"/>
          <note vol="48" pos="16619" pan="0" key="30" len="12"/>
          <note vol="48" pos="16631" pan="0" key="30" len="12"/>
          <note vol="59" pos="16655" pan="0" key="30" len="12"/>
          <note vol="48" pos="16667" pan="0" key="30" len="12"/>
          <note vol="48" pos="16679" pan="0" key="30" len="12"/>
          <note vol="48" pos="16691" pan="0" key="30" len="12"/>
          <note vol="59" pos="16703" pan="0" key="30" len="12"/>
          <note vol="48" pos="16727" pan="0" key="30" len="12"/>
          <note vol="48" pos="16739" pan="0" key="30" len="12"/>
          <note vol="48" pos="16751" pan="0" key="30" len="12"/>
          <note vol="59" pos="16775" pan="0" key="30" len="12"/>
          <note vol="59" pos="16811" pan="0" key="30" len="12"/>
          <note vol="59" pos="16847" pan="0" key="30" len="12"/>
          <note vol="59" pos="16871" pan="0" key="30" len="12"/>
        </pattern>
        <pattern pos="16896" steps="16" muted="0" type="1" name="">
          <note vol="59" pos="0" pan="0" key="30" len="11"/>
          <note vol="48" pos="23" pan="0" key="30" len="12"/>
          <note vol="48" pos="35" pan="0" key="30" len="12"/>
          <note vol="48" pos="47" pan="0" key="30" len="12"/>
          <note vol="59" pos="71" pan="0" key="30" len="12"/>
          <note vol="48" pos="107" pan="0" key="30" len="12"/>
          <note vol="48" pos="119" pan="0" key="30" len="12"/>
          <note vol="59" pos="143" pan="0" key="30" len="12"/>
          <note vol="48" pos="155" pan="0" key="30" len="12"/>
          <note vol="48" pos="167" pan="0" key="30" len="12"/>
          <note vol="48" pos="179" pan="0" key="30" len="12"/>
          <note vol="59" pos="191" pan="0" key="30" len="12"/>
          <note vol="48" pos="215" pan="0" key="30" len="12"/>
          <note vol="48" pos="227" pan="0" key="30" len="12"/>
          <note vol="48" pos="239" pan="0" key="30" len="12"/>
          <note vol="59" pos="263" pan="0" key="30" len="12"/>
          <note vol="59" pos="299" pan="0" key="30" len="12"/>
          <note vol="59" pos="335" pan="0" key="30" len="12"/>
          <note vol="59" pos="359" pan="0" key="30" len="12"/>
          <note vol="59" pos="383" pan="0" key="30" len="12"/>
          <note vol="48" pos="407" pan="0" key="30" len="12"/>
          <note vol="48" pos="419" pan="0" key="30" len="12"/>
          <note vol="48" pos="431" pan="0" key="30" len="12"/>
          <note vol="59" pos="455" pan="0" key="30" len="12"/>
          <note vol="48" pos="491" pan="0" key="30" len="12"/>
          <note vol="48" pos="503" pan="0" key="30" len="12"/>
          <note vol="59" pos="527" pan="0" key="30" len="12"/>
          <note vol="48" pos="539" pan="0" key="30" len="12"/>
          <note vol="48" pos="551" pan="0" key="30" len="12"/>
          <note vol="48" pos="563" pan="0" key="30" len="12"/>
          <note vol="59" pos="575" pan="0" key="30" len="12"/>
          <note vol="48" pos="599" pan="0" key="30" len="12"/>
          <note vol="48" pos="611" pan="0" key="30" len="12"/>
          <note vol="48" pos="623" pan="0" key="30" len="12"/>
          <note vol="59" pos="647" pan="0" key="30" len="12"/>
          <note vol="59" pos="683" pan="0" key="30" len="12"/>
          <note vol="59" pos="719" pan="0" key="30" len="12"/>
          <note vol="59" pos="743" pan="0" key="30" len="12"/>
          <note vol="59" pos="767" pan="0" key="30" len="11"/>
          <note vol="48" pos="791" pan="0" key="30" len="12"/>
          <note vol="48" pos="803" pan="0" key="30" len="12"/>
          <note vol="48" pos="815" pan="0" key="30" len="12"/>
          <note vol="59" pos="839" pan="0" key="30" len="12"/>
          <note vol="48" pos="875" pan="0" key="30" len="12"/>
          <note vol="48" pos="887" pan="0" key="30" len="12"/>
          <note vol="59" pos="911" pan="0" key="30" len="12"/>
          <note vol="48" pos="923" pan="0" key="30" len="12"/>
          <note vol="48" pos="935" pan="0" key="30" len="12"/>
          <note vol="48" pos="947" pan="0" key="30" len="12"/>
          <note vol="59" pos="959" pan="0" key="30" len="12"/>
          <note vol="48" pos="983" pan="0" key="30" len="12"/>
          <note vol="48" pos="995" pan="0" key="30" len="12"/>
          <note vol="48" pos="1007" pan="0" key="30" len="12"/>
          <note vol="59" pos="1031" pan="0" key="30" len="12"/>
          <note vol="59" pos="1067" pan="0" key="30" len="12"/>
          <note vol="59" pos="1103" pan="0" key="30" len="12"/>
          <note vol="59" pos="1127" pan="0" key="30" len="12"/>
          <note vol="59" pos="1151" pan="0" key="30" len="12"/>
          <note vol="48" pos="1175" pan="0" key="30" len="12"/>
          <note vol="48" pos="1187" pan="0" key="30" len="12"/>
          <note vol="48" pos="1199" pan="0" key="30" len="12"/>
          <note vol="59" pos="1223" pan="0" key="30" len="12"/>
          <note vol="48" pos="1259" pan="0" key="30" len="12"/>
          <note vol="48" pos="1271" pan="0" key="30" len="12"/>
          <note vol="59" pos="1295" pan="0" key="30" len="12"/>
          <note vol="48" pos="1307" pan="0" key="30" len="12"/>
          <note vol="48" pos="1319" pan="0" key="30" len="12"/>
          <note vol="48" pos="1331" pan="0" key="30" len="12"/>
          <note vol="59" pos="1343" pan="0" key="30" len="12"/>
          <note vol="48" pos="1367" pan="0" key="30" len="12"/>
          <note vol="48" pos="1379" pan="0" key="30" len="12"/>
          <note vol="48" pos="1391" pan="0" key="30" len="12"/>
          <note vol="59" pos="1415" pan="0" key="30" len="12"/>
          <note vol="59" pos="1451" pan="0" key="30" len="12"/>
          <note vol="59" pos="1487" pan="0" key="30" len="12"/>
          <note vol="59" pos="1511" pan="0" key="30" len="12"/>
          <note vol="56" pos="1535" pan="0" key="30" len="11"/>
          <note vol="46" pos="1559" pan="0" key="30" len="12"/>
          <note vol="46" pos="1571" pan="0" key="30" len="12"/>
          <note vol="46" pos="1583" pan="0" key="30" len="12"/>
          <note vol="56" pos="1607" pan="0" key="30" len="12"/>
          <note vol="46" pos="1643" pan="0" key="30" len="12"/>
          <note vol="46" pos="1655" pan="0" key="30" len="12"/>
          <note vol="56" pos="1679" pan="0" key="30" len="12"/>
          <note vol="46" pos="1691" pan="0" key="30" len="12"/>
          <note vol="46" pos="1703" pan="0" key="30" len="12"/>
          <note vol="46" pos="1715" pan="0" key="30" len="12"/>
          <note vol="56" pos="1727" pan="0" key="30" len="12"/>
          <note vol="46" pos="1751" pan="0" key="30" len="12"/>
          <note vol="46" pos="1763" pan="0" key="30" len="12"/>
          <note vol="46" pos="1775" pan="0" key="30" len="12"/>
          <note vol="56" pos="1799" pan="0" key="30" len="12"/>
          <note vol="56" pos="1835" pan="0" key="30" len="12"/>
          <note vol="56" pos="1871" pan="0" key="30" len="12"/>
          <note vol="56" pos="1895" pan="0" key="30" len="12"/>
          <note vol="56" pos="1919" pan="0" key="30" len="12"/>
          <note vol="46" pos="1943" pan="0" key="30" len="12"/>
          <note vol="46" pos="1955" pan="0" key="30" len="12"/>
          <note vol="46" pos="1967" pan="0" key="30" len="12"/>
          <note vol="56" pos="1991" pan="0" key="30" len="12"/>
          <note vol="46" pos="2027" pan="0" key="30" len="12"/>
          <note vol="46" pos="2039" pan="0" key="30" len="12"/>
          <note vol="56" pos="2063" pan="0" key="30" len="12"/>
          <note vol="46" pos="2075" pan="0" key="30" len="12"/>
          <note vol="46" pos="2087" pan="0" key="30" len="12"/>
          <note vol="46" pos="2099" pan="0" key="30" len="12"/>
          <note vol="56" pos="2111" pan="0" key="30" len="12"/>
          <note vol="46" pos="2135" pan="0" key="30" len="12"/>
          <note vol="46" pos="2147" pan="0" key="30" len="12"/>
          <note vol="46" pos="2159" pan="0" key="30" len="12"/>
          <note vol="56" pos="2183" pan="0" key="30" len="12"/>
          <note vol="56" pos="2219" pan="0" key="30" len="12"/>
          <note vol="56" pos="2255" pan="0" key="30" len="12"/>
          <note vol="56" pos="2279" pan="0" key="30" len="12"/>
          <note vol="56" pos="2303" pan="0" key="30" len="11"/>
          <note vol="46" pos="2327" pan="0" key="30" len="12"/>
          <note vol="46" pos="2339" pan="0" key="30" len="12"/>
          <note vol="46" pos="2351" pan="0" key="30" len="12"/>
          <note vol="56" pos="2375" pan="0" key="30" len="12"/>
          <note vol="46" pos="2411" pan="0" key="30" len="12"/>
          <note vol="46" pos="2423" pan="0" key="30" len="12"/>
          <note vol="56" pos="2447" pan="0" key="30" len="12"/>
          <note vol="46" pos="2459" pan="0" key="30" len="12"/>
          <note vol="46" pos="2471" pan="0" key="30" len="12"/>
          <note vol="46" pos="2483" pan="0" key="30" len="12"/>
          <note vol="56" pos="2495" pan="0" key="30" len="12"/>
          <note vol="46" pos="2519" pan="0" key="30" len="12"/>
          <note vol="46" pos="2531" pan="0" key="30" len="12"/>
          <note vol="46" pos="2543" pan="0" key="30" len="12"/>
          <note vol="56" pos="2567" pan="0" key="30" len="12"/>
          <note vol="56" pos="2603" pan="0" key="30" len="12"/>
          <note vol="56" pos="2639" pan="0" key="30" len="12"/>
          <note vol="56" pos="2663" pan="0" key="30" len="12"/>
          <note vol="56" pos="2687" pan="0" key="30" len="12"/>
          <note vol="46" pos="2711" pan="0" key="30" len="12"/>
          <note vol="46" pos="2723" pan="0" key="30" len="12"/>
          <note vol="46" pos="2735" pan="0" key="30" len="12"/>
          <note vol="56" pos="2759" pan="0" key="30" len="12"/>
          <note vol="46" pos="2795" pan="0" key="30" len="12"/>
          <note vol="46" pos="2807" pan="0" key="30" len="12"/>
          <note vol="56" pos="2831" pan="0" key="30" len="12"/>
          <note vol="46" pos="2843" pan="0" key="30" len="12"/>
          <note vol="46" pos="2855" pan="0" key="30" len="12"/>
          <note vol="46" pos="2867" pan="0" key="30" len="12"/>
          <note vol="56" pos="2879" pan="0" key="30" len="12"/>
          <note vol="46" pos="2903" pan="0" key="30" len="12"/>
          <note vol="46" pos="2915" pan="0" key="30" len="12"/>
          <note vol="46" pos="2927" pan="0" key="30" len="12"/>
          <note vol="56" pos="2951" pan="0" key="30" len="12"/>
          <note vol="56" pos="2987" pan="0" key="30" len="12"/>
          <note vol="56" pos="3023" pan="0" key="30" len="12"/>
          <note vol="56" pos="3047" pan="0" key="30" len="12"/>
          <note vol="56" pos="3071" pan="0" key="30" len="11"/>
          <note vol="46" pos="3095" pan="0" key="30" len="12"/>
          <note vol="46" pos="3107" pan="0" key="30" len="12"/>
          <note vol="46" pos="3119" pan="0" key="30" len="12"/>
          <note vol="56" pos="3143" pan="0" key="30" len="12"/>
          <note vol="46" pos="3179" pan="0" key="30" len="12"/>
          <note vol="46" pos="3191" pan="0" key="30" len="12"/>
          <note vol="56" pos="3215" pan="0" key="30" len="12"/>
          <note vol="46" pos="3227" pan="0" key="30" len="12"/>
          <note vol="46" pos="3239" pan="0" key="30" len="12"/>
          <note vol="46" pos="3251" pan="0" key="30" len="12"/>
          <note vol="56" pos="3263" pan="0" key="30" len="12"/>
          <note vol="46" pos="3287" pan="0" key="30" len="12"/>
          <note vol="46" pos="3299" pan="0" key="30" len="12"/>
          <note vol="46" pos="3311" pan="0" key="30" len="12"/>
          <note vol="56" pos="3335" pan="0" key="30" len="12"/>
          <note vol="56" pos="3371" pan="0" key="30" len="12"/>
          <note vol="56" pos="3407" pan="0" key="30" len="12"/>
          <note vol="56" pos="3431" pan="0" key="30" len="12"/>
          <note vol="56" pos="3455" pan="0" key="30" len="12"/>
          <note vol="46" pos="3479" pan="0" key="30" len="12"/>
          <note vol="46" pos="3491" pan="0" key="30" len="12"/>
          <note vol="46" pos="3503" pan="0" key="30" len="12"/>
          <note vol="56" pos="3527" pan="0" key="30" len="12"/>
          <note vol="46" pos="3563" pan="0" key="30" len="12"/>
          <note vol="46" pos="3575" pan="0" key="30" len="12"/>
          <note vol="56" pos="3599" pan="0" key="30" len="12"/>
          <note vol="46" pos="3611" pan="0" key="30" len="12"/>
          <note vol="46" pos="3623" pan="0" key="30" len="12"/>
          <note vol="46" pos="3635" pan="0" key="30" len="12"/>
          <note vol="56" pos="3647" pan="0" key="30" len="12"/>
          <note vol="46" pos="3671" pan="0" key="30" len="12"/>
          <note vol="46" pos="3683" pan="0" key="30" len="12"/>
          <note vol="46" pos="3695" pan="0" key="30" len="12"/>
          <note vol="56" pos="3719" pan="0" key="30" len="12"/>
          <note vol="56" pos="3755" pan="0" key="30" len="12"/>
          <note vol="56" pos="3791" pan="0" key="30" len="12"/>
          <note vol="56" pos="3815" pan="0" key="30" len="12"/>
          <note vol="56" pos="3839" pan="0" key="30" len="11"/>
          <note vol="46" pos="3863" pan="0" key="30" len="12"/>
          <note vol="46" pos="3875" pan="0" key="30" len="12"/>
          <note vol="46" pos="3887" pan="0" key="30" len="12"/>
          <note vol="56" pos="3911" pan="0" key="30" len="12"/>
          <note vol="46" pos="3947" pan="0" key="30" len="12"/>
          <note vol="46" pos="3959" pan="0" key="30" len="12"/>
          <note vol="56" pos="3983" pan="0" key="30" len="12"/>
          <note vol="46" pos="3995" pan="0" key="30" len="12"/>
          <note vol="46" pos="4007" pan="0" key="30" len="12"/>
          <note vol="46" pos="4019" pan="0" key="30" len="12"/>
          <note vol="56" pos="4031" pan="0" key="30" len="12"/>
          <note vol="46" pos="4055" pan="0" key="30" len="12"/>
          <note vol="46" pos="4067" pan="0" key="30" len="12"/>
          <note vol="46" pos="4079" pan="0" key="30" len="12"/>
          <note vol="56" pos="4103" pan="0" key="30" len="12"/>
          <note vol="56" pos="4139" pan="0" key="30" len="12"/>
          <note vol="56" pos="4175" pan="0" key="30" len="12"/>
          <note vol="56" pos="4199" pan="0" key="30" len="12"/>
          <note vol="56" pos="4223" pan="0" key="30" len="12"/>
          <note vol="46" pos="4247" pan="0" key="30" len="12"/>
          <note vol="46" pos="4259" pan="0" key="30" len="12"/>
          <note vol="46" pos="4271" pan="0" key="30" len="12"/>
          <note vol="56" pos="4295" pan="0" key="30" len="12"/>
          <note vol="46" pos="4331" pan="0" key="30" len="12"/>
          <note vol="46" pos="4343" pan="0" key="30" len="12"/>
          <note vol="56" pos="4367" pan="0" key="30" len="12"/>
          <note vol="46" pos="4379" pan="0" key="30" len="12"/>
          <note vol="46" pos="4391" pan="0" key="30" len="12"/>
          <note vol="46" pos="4403" pan="0" key="30" len="12"/>
          <note vol="56" pos="4415" pan="0" key="30" len="12"/>
          <note vol="46" pos="4439" pan="0" key="30" len="12"/>
          <note vol="46" pos="4451" pan="0" key="30" len="12"/>
          <note vol="46" pos="4463" pan="0" key="30" len="12"/>
          <note vol="56" pos="4487" pan="0" key="30" len="12"/>
          <note vol="56" pos="4523" pan="0" key="30" len="12"/>
          <note vol="56" pos="4559" pan="0" key="30" len="12"/>
          <note vol="56" pos="4583" pan="0" key="30" len="12"/>
          <note vol="59" pos="4607" pan="0" key="30" len="11"/>
          <note vol="48" pos="4631" pan="0" key="30" len="12"/>
          <note vol="48" pos="4643" pan="0" key="30" len="12"/>
          <note vol="48" pos="4655" pan="0" key="30" len="12"/>
          <note vol="59" pos="4679" pan="0" key="30" len="12"/>
          <note vol="48" pos="4715" pan="0" key="30" len="12"/>
          <note vol="48" pos="4727" pan="0" key="30" len="12"/>
          <note vol="59" pos="4751" pan="0" key="30" len="12"/>
          <note vol="48" pos="4763" pan="0" key="30" len="12"/>
          <note vol="48" pos="4775" pan="0" key="30" len="12"/>
          <note vol="48" pos="4787" pan="0" key="30" len="12"/>
          <note vol="59" pos="4799" pan="0" key="30" len="12"/>
          <note vol="48" pos="4823" pan="0" key="30" len="12"/>
          <note vol="48" pos="4835" pan="0" key="30" len="12"/>
          <note vol="48" pos="4847" pan="0" key="30" len="12"/>
          <note vol="59" pos="4871" pan="0" key="30" len="12"/>
          <note vol="59" pos="4907" pan="0" key="30" len="12"/>
          <note vol="59" pos="4943" pan="0" key="30" len="12"/>
          <note vol="59" pos="4967" pan="0" key="30" len="12"/>
          <note vol="59" pos="4991" pan="0" key="30" len="12"/>
          <note vol="48" pos="5015" pan="0" key="30" len="12"/>
          <note vol="48" pos="5027" pan="0" key="30" len="12"/>
          <note vol="48" pos="5039" pan="0" key="30" len="12"/>
          <note vol="59" pos="5063" pan="0" key="30" len="12"/>
          <note vol="48" pos="5099" pan="0" key="30" len="12"/>
          <note vol="48" pos="5111" pan="0" key="30" len="12"/>
          <note vol="59" pos="5135" pan="0" key="30" len="12"/>
          <note vol="48" pos="5147" pan="0" key="30" len="12"/>
          <note vol="48" pos="5159" pan="0" key="30" len="12"/>
          <note vol="48" pos="5171" pan="0" key="30" len="12"/>
          <note vol="59" pos="5183" pan="0" key="30" len="12"/>
          <note vol="48" pos="5207" pan="0" key="30" len="12"/>
          <note vol="48" pos="5219" pan="0" key="30" len="12"/>
          <note vol="48" pos="5231" pan="0" key="30" len="12"/>
          <note vol="59" pos="5255" pan="0" key="30" len="12"/>
          <note vol="59" pos="5291" pan="0" key="30" len="12"/>
          <note vol="59" pos="5327" pan="0" key="30" len="12"/>
          <note vol="59" pos="5351" pan="0" key="30" len="12"/>
          <note vol="59" pos="5375" pan="0" key="30" len="11"/>
          <note vol="48" pos="5399" pan="0" key="30" len="12"/>
          <note vol="48" pos="5411" pan="0" key="30" len="12"/>
          <note vol="48" pos="5423" pan="0" key="30" len="12"/>
          <note vol="59" pos="5447" pan="0" key="30" len="12"/>
          <note vol="48" pos="5483" pan="0" key="30" len="12"/>
          <note vol="48" pos="5495" pan="0" key="30" len="12"/>
          <note vol="59" pos="5519" pan="0" key="30" len="12"/>
          <note vol="48" pos="5531" pan="0" key="30" len="12"/>
          <note vol="48" pos="5543" pan="0" key="30" len="12"/>
          <note vol="48" pos="5555" pan="0" key="30" len="12"/>
          <note vol="59" pos="5567" pan="0" key="30" len="12"/>
          <note vol="48" pos="5591" pan="0" key="30" len="12"/>
          <note vol="48" pos="5603" pan="0" key="30" len="12"/>
          <note vol="48" pos="5615" pan="0" key="30" len="12"/>
          <note vol="59" pos="5639" pan="0" key="30" len="12"/>
          <note vol="59" pos="5675" pan="0" key="30" len="12"/>
          <note vol="59" pos="5711" pan="0" key="30" len="12"/>
          <note vol="59" pos="5735" pan="0" key="30" len="12"/>
          <note vol="59" pos="5759" pan="0" key="30" len="12"/>
          <note vol="48" pos="5783" pan="0" key="30" len="12"/>
          <note vol="48" pos="5795" pan="0" key="30" len="12"/>
          <note vol="48" pos="5807" pan="0" key="30" len="12"/>
          <note vol="59" pos="5831" pan="0" key="30" len="12"/>
          <note vol="48" pos="5867" pan="0" key="30" len="12"/>
          <note vol="48" pos="5879" pan="0" key="30" len="12"/>
          <note vol="59" pos="5903" pan="0" key="30" len="12"/>
          <note vol="48" pos="5915" pan="0" key="30" len="12"/>
          <note vol="48" pos="5927" pan="0" key="30" len="12"/>
          <note vol="48" pos="5939" pan="0" key="30" len="12"/>
          <note vol="59" pos="5951" pan="0" key="30" len="12"/>
          <note vol="48" pos="5975" pan="0" key="30" len="12"/>
          <note vol="48" pos="5987" pan="0" key="30" len="12"/>
          <note vol="48" pos="5999" pan="0" key="30" len="12"/>
          <note vol="59" pos="6023" pan="0" key="30" len="12"/>
          <note vol="59" pos="6059" pan="0" key="30" len="12"/>
          <note vol="59" pos="6095" pan="0" key="30" len="12"/>
          <note vol="59" pos="6119" pan="0" key="30" len="12"/>
          <note vol="56" pos="6143" pan="0" key="30" len="11"/>
          <note vol="46" pos="6167" pan="0" key="30" len="12"/>
          <note vol="46" pos="6179" pan="0" key="30" len="12"/>
          <note vol="46" pos="6191" pan="0" key="30" len="12"/>
          <note vol="56" pos="6215" pan="0" key="30" len="12"/>
          <note vol="46" pos="6251" pan="0" key="30" len="12"/>
          <note vol="46" pos="6263" pan="0" key="30" len="12"/>
          <note vol="56" pos="6287" pan="0" key="30" len="12"/>
          <note vol="46" pos="6299" pan="0" key="30" len="12"/>
          <note vol="46" pos="6311" pan="0" key="30" len="12"/>
          <note vol="46" pos="6323" pan="0" key="30" len="12"/>
          <note vol="56" pos="6335" pan="0" key="30" len="12"/>
          <note vol="46" pos="6359" pan="0" key="30" len="12"/>
          <note vol="46" pos="6371" pan="0" key="30" len="12"/>
          <note vol="46" pos="6383" pan="0" key="30" len="12"/>
          <note vol="56" pos="6407" pan="0" key="30" len="12"/>
          <note vol="56" pos="6443" pan="0" key="30" len="12"/>
          <note vol="56" pos="6479" pan="0" key="30" len="12"/>
          <note vol="56" pos="6503" pan="0" key="30" len="12"/>
          <note vol="56" pos="6527" pan="0" key="30" len="12"/>
          <note vol="46" pos="6551" pan="0" key="30" len="12"/>
          <note vol="46" pos="6563" pan="0" key="30" len="12"/>
          <note vol="46" pos="6575" pan="0" key="30" len="12"/>
          <note vol="56" pos="6599" pan="0" key="30" len="12"/>
          <note vol="46" pos="6635" pan="0" key="30" len="12"/>
          <note vol="46" pos="6647" pan="0" key="30" len="12"/>
          <note vol="56" pos="6671" pan="0" key="30" len="12"/>
          <note vol="46" pos="6683" pan="0" key="30" len="12"/>
          <note vol="46" pos="6695" pan="0" key="30" len="12"/>
          <note vol="46" pos="6707" pan="0" key="30" len="12"/>
          <note vol="56" pos="6719" pan="0" key="30" len="12"/>
          <note vol="46" pos="6743" pan="0" key="30" len="12"/>
          <note vol="46" pos="6755" pan="0" key="30" len="12"/>
          <note vol="46" pos="6767" pan="0" key="30" len="12"/>
          <note vol="56" pos="6791" pan="0" key="30" len="12"/>
          <note vol="56" pos="6827" pan="0" key="30" len="12"/>
          <note vol="56" pos="6863" pan="0" key="30" len="12"/>
          <note vol="56" pos="6887" pan="0" key="30" len="12"/>
          <note vol="56" pos="6911" pan="0" key="30" len="11"/>
          <note vol="46" pos="6935" pan="0" key="30" len="12"/>
          <note vol="46" pos="6947" pan="0" key="30" len="12"/>
          <note vol="46" pos="6959" pan="0" key="30" len="12"/>
          <note vol="56" pos="6983" pan="0" key="30" len="12"/>
          <note vol="46" pos="7019" pan="0" key="30" len="12"/>
          <note vol="46" pos="7031" pan="0" key="30" len="12"/>
          <note vol="56" pos="7055" pan="0" key="30" len="12"/>
          <note vol="46" pos="7067" pan="0" key="30" len="12"/>
          <note vol="46" pos="7079" pan="0" key="30" len="12"/>
          <note vol="46" pos="7091" pan="0" key="30" len="12"/>
          <note vol="56" pos="7103" pan="0" key="30" len="12"/>
          <note vol="46" pos="7127" pan="0" key="30" len="12"/>
          <note vol="46" pos="7139" pan="0" key="30" len="12"/>
          <note vol="46" pos="7151" pan="0" key="30" len="12"/>
          <note vol="56" pos="7175" pan="0" key="30" len="12"/>
          <note vol="56" pos="7211" pan="0" key="30" len="12"/>
          <note vol="56" pos="7247" pan="0" key="30" len="12"/>
          <note vol="56" pos="7271" pan="0" key="30" len="12"/>
          <note vol="56" pos="7295" pan="0" key="30" len="12"/>
          <note vol="46" pos="7319" pan="0" key="30" len="12"/>
          <note vol="46" pos="7331" pan="0" key="30" len="12"/>
          <note vol="46" pos="7343" pan="0" key="30" len="12"/>
          <note vol="56" pos="7367" pan="0" key="30" len="12"/>
          <note vol="46" pos="7403" pan="0" key="30" len="12"/>
          <note vol="46" pos="7415" pan="0" key="30" len="12"/>
          <note vol="56" pos="7439" pan="0" key="30" len="12"/>
          <note vol="46" pos="7451" pan="0" key="30" len="12"/>
          <note vol="46" pos="7463" pan="0" key="30" len="12"/>
          <note vol="46" pos="7475" pan="0" key="30" len="12"/>
          <note vol="56" pos="7487" pan="0" key="30" len="12"/>
          <note vol="46" pos="7511" pan="0" key="30" len="12"/>
          <note vol="46" pos="7523" pan="0" key="30" len="12"/>
          <note vol="46" pos="7535" pan="0" key="30" len="12"/>
          <note vol="56" pos="7559" pan="0" key="30" len="12"/>
          <note vol="56" pos="7595" pan="0" key="30" len="12"/>
          <note vol="56" pos="7631" pan="0" key="30" len="12"/>
          <note vol="56" pos="7655" pan="0" key="30" len="12"/>
          <note vol="59" pos="7679" pan="0" key="30" len="11"/>
          <note vol="48" pos="7703" pan="0" key="30" len="12"/>
          <note vol="48" pos="7715" pan="0" key="30" len="12"/>
          <note vol="48" pos="7727" pan="0" key="30" len="12"/>
          <note vol="59" pos="7751" pan="0" key="30" len="12"/>
          <note vol="48" pos="7787" pan="0" key="30" len="12"/>
          <note vol="48" pos="7799" pan="0" key="30" len="12"/>
          <note vol="59" pos="7823" pan="0" key="30" len="12"/>
          <note vol="48" pos="7835" pan="0" key="30" len="12"/>
          <note vol="48" pos="7847" pan="0" key="30" len="12"/>
          <note vol="48" pos="7859" pan="0" key="30" len="12"/>
          <note vol="59" pos="7871" pan="0" key="30" len="12"/>
          <note vol="48" pos="7895" pan="0" key="30" len="12"/>
          <note vol="48" pos="7907" pan="0" key="30" len="12"/>
          <note vol="48" pos="7919" pan="0" key="30" len="12"/>
          <note vol="59" pos="7943" pan="0" key="30" len="12"/>
          <note vol="59" pos="7979" pan="0" key="30" len="12"/>
          <note vol="59" pos="8015" pan="0" key="30" len="12"/>
          <note vol="59" pos="8039" pan="0" key="30" len="12"/>
          <note vol="59" pos="8063" pan="0" key="30" len="12"/>
          <note vol="48" pos="8087" pan="0" key="30" len="12"/>
          <note vol="48" pos="8099" pan="0" key="30" len="12"/>
          <note vol="48" pos="8111" pan="0" key="30" len="12"/>
          <note vol="59" pos="8135" pan="0" key="30" len="12"/>
          <note vol="48" pos="8171" pan="0" key="30" len="12"/>
          <note vol="48" pos="8183" pan="0" key="30" len="12"/>
          <note vol="59" pos="8207" pan="0" key="30" len="12"/>
          <note vol="48" pos="8219" pan="0" key="30" len="12"/>
          <note vol="48" pos="8231" pan="0" key="30" len="12"/>
          <note vol="48" pos="8243" pan="0" key="30" len="12"/>
          <note vol="59" pos="8255" pan="0" key="30" len="12"/>
          <note vol="48" pos="8279" pan="0" key="30" len="12"/>
          <note vol="48" pos="8291" pan="0" key="30" len="12"/>
          <note vol="48" pos="8303" pan="0" key="30" len="12"/>
          <note vol="59" pos="8327" pan="0" key="30" len="12"/>
          <note vol="59" pos="8363" pan="0" key="30" len="12"/>
          <note vol="59" pos="8399" pan="0" key="30" len="12"/>
          <note vol="59" pos="8423" pan="0" key="30" len="12"/>
          <note vol="59" pos="8447" pan="0" key="30" len="11"/>
          <note vol="48" pos="8471" pan="0" key="30" len="12"/>
          <note vol="48" pos="8483" pan="0" key="30" len="12"/>
          <note vol="48" pos="8495" pan="0" key="30" len="12"/>
          <note vol="59" pos="8519" pan="0" key="30" len="12"/>
          <note vol="48" pos="8555" pan="0" key="30" len="12"/>
          <note vol="48" pos="8567" pan="0" key="30" len="12"/>
          <note vol="59" pos="8591" pan="0" key="30" len="12"/>
          <note vol="48" pos="8603" pan="0" key="30" len="12"/>
          <note vol="48" pos="8615" pan="0" key="30" len="12"/>
          <note vol="48" pos="8627" pan="0" key="30" len="12"/>
          <note vol="59" pos="8639" pan="0" key="30" len="12"/>
          <note vol="48" pos="8663" pan="0" key="30" len="12"/>
          <note vol="48" pos="8675" pan="0" key="30" len="12"/>
          <note vol="48" pos="8687" pan="0" key="30" len="12"/>
          <note vol="59" pos="8711" pan="0" key="30" len="12"/>
          <note vol="59" pos="8747" pan="0" key="30" len="12"/>
          <note vol="59" pos="8783" pan="0" key="30" len="12"/>
          <note vol="59" pos="8807" pan="0" key="30" len="12"/>
          <note vol="59" pos="8831" pan="0" key="30" len="12"/>
          <note vol="48" pos="8855" pan="0" key="30" len="12"/>
          <note vol="48" pos="8867" pan="0" key="30" len="12"/>
          <note vol="48" pos="8879" pan="0" key="30" len="12"/>
          <note vol="59" pos="8903" pan="0" key="30" len="12"/>
          <note vol="48" pos="8939" pan="0" key="30" len="12"/>
          <note vol="48" pos="8951" pan="0" key="30" len="12"/>
          <note vol="59" pos="8975" pan="0" key="30" len="12"/>
          <note vol="48" pos="8987" pan="0" key="30" len="12"/>
          <note vol="48" pos="8999" pan="0" key="30" len="12"/>
          <note vol="48" pos="9011" pan="0" key="30" len="12"/>
          <note vol="59" pos="9023" pan="0" key="30" len="12"/>
          <note vol="48" pos="9047" pan="0" key="30" len="12"/>
          <note vol="48" pos="9059" pan="0" key="30" len="12"/>
          <note vol="48" pos="9071" pan="0" key="30" len="12"/>
          <note vol="59" pos="9095" pan="0" key="30" len="12"/>
          <note vol="59" pos="9131" pan="0" key="30" len="12"/>
          <note vol="59" pos="9167" pan="0" key="30" len="12"/>
          <note vol="59" pos="9191" pan="0" key="30" len="12"/>
          <note vol="59" pos="9215" pan="0" key="30" len="11"/>
          <note vol="48" pos="9239" pan="0" key="30" len="12"/>
          <note vol="48" pos="9251" pan="0" key="30" len="12"/>
          <note vol="48" pos="9263" pan="0" key="30" len="12"/>
          <note vol="59" pos="9287" pan="0" key="30" len="12"/>
          <note vol="48" pos="9323" pan="0" key="30" len="12"/>
          <note vol="48" pos="9335" pan="0" key="30" len="12"/>
          <note vol="59" pos="9359" pan="0" key="30" len="12"/>
          <note vol="48" pos="9371" pan="0" key="30" len="12"/>
          <note vol="48" pos="9383" pan="0" key="30" len="12"/>
          <note vol="48" pos="9395" pan="0" key="30" len="12"/>
          <note vol="59" pos="9407" pan="0" key="30" len="12"/>
          <note vol="48" pos="9431" pan="0" key="30" len="12"/>
          <note vol="48" pos="9443" pan="0" key="30" len="12"/>
          <note vol="48" pos="9455" pan="0" key="30" len="12"/>
          <note vol="59" pos="9479" pan="0" key="30" len="12"/>
          <note vol="59" pos="9515" pan="0" key="30" len="12"/>
          <note vol="59" pos="9551" pan="0" key="30" len="12"/>
          <note vol="59" pos="9575" pan="0" key="30" len="12"/>
          <note vol="59" pos="9599" pan="0" key="30" len="12"/>
          <note vol="48" pos="9623" pan="0" key="30" len="12"/>
          <note vol="48" pos="9635" pan="0" key="30" len="12"/>
          <note vol="48" pos="9647" pan="0" key="30" len="12"/>
          <note vol="59" pos="9671" pan="0" key="30" len="12"/>
          <note vol="48" pos="9707" pan="0" key="30" len="12"/>
          <note vol="48" pos="9719" pan="0" key="30" len="12"/>
          <note vol="59" pos="9743" pan="0" key="30" len="12"/>
          <note vol="48" pos="9755" pan="0" key="30" len="12"/>
          <note vol="48" pos="9767" pan="0" key="30" len="12"/>
          <note vol="48" pos="9779" pan="0" key="30" len="12"/>
          <note vol="59" pos="9791" pan="0" key="30" len="12"/>
          <note vol="48" pos="9815" pan="0" key="30" len="12"/>
          <note vol="48" pos="9827" pan="0" key="30" len="12"/>
          <note vol="48" pos="9839" pan="0" key="30" len="12"/>
          <note vol="59" pos="9863" pan="0" key="30" len="12"/>
          <note vol="59" pos="9899" pan="0" key="30" len="12"/>
          <note vol="59" pos="9935" pan="0" key="30" len="12"/>
          <note vol="59" pos="9959" pan="0" key="30" len="12"/>
          <note vol="59" pos="9983" pan="0" key="30" len="11"/>
          <note vol="48" pos="10007" pan="0" key="30" len="12"/>
          <note vol="48" pos="10019" pan="0" key="30" len="12"/>
          <note vol="48" pos="10031" pan="0" key="30" len="12"/>
          <note vol="59" pos="10055" pan="0" key="30" len="12"/>
          <note vol="48" pos="10091" pan="0" key="30" len="12"/>
          <note vol="48" pos="10103" pan="0" key="30" len="12"/>
          <note vol="59" pos="10127" pan="0" key="30" len="12"/>
          <note vol="48" pos="10139" pan="0" key="30" len="12"/>
          <note vol="48" pos="10151" pan="0" key="30" len="12"/>
          <note vol="48" pos="10163" pan="0" key="30" len="12"/>
          <note vol="59" pos="10175" pan="0" key="30" len="12"/>
          <note vol="48" pos="10199" pan="0" key="30" len="12"/>
          <note vol="48" pos="10211" pan="0" key="30" len="12"/>
          <note vol="48" pos="10223" pan="0" key="30" len="12"/>
          <note vol="59" pos="10247" pan="0" key="30" len="12"/>
          <note vol="59" pos="10283" pan="0" key="30" len="12"/>
          <note vol="59" pos="10319" pan="0" key="30" len="12"/>
          <note vol="59" pos="10343" pan="0" key="30" len="12"/>
          <note vol="59" pos="10367" pan="0" key="30" len="12"/>
          <note vol="48" pos="10391" pan="0" key="30" len="12"/>
          <note vol="48" pos="10403" pan="0" key="30" len="12"/>
          <note vol="48" pos="10415" pan="0" key="30" len="12"/>
          <note vol="59" pos="10439" pan="0" key="30" len="12"/>
          <note vol="48" pos="10475" pan="0" key="30" len="12"/>
          <note vol="48" pos="10487" pan="0" key="30" len="12"/>
          <note vol="59" pos="10511" pan="0" key="30" len="12"/>
          <note vol="48" pos="10523" pan="0" key="30" len="12"/>
          <note vol="48" pos="10535" pan="0" key="30" len="12"/>
          <note vol="48" pos="10547" pan="0" key="30" len="12"/>
          <note vol="59" pos="10559" pan="0" key="30" len="12"/>
          <note vol="48" pos="10583" pan="0" key="30" len="12"/>
          <note vol="48" pos="10595" pan="0" key="30" len="12"/>
          <note vol="48" pos="10607" pan="0" key="30" len="12"/>
          <note vol="59" pos="10631" pan="0" key="30" len="12"/>
          <note vol="59" pos="10667" pan="0" key="30" len="12"/>
          <note vol="59" pos="10703" pan="0" key="30" len="12"/>
          <note vol="59" pos="10727" pan="0" key="30" len="12"/>
          <note vol="59" pos="10751" pan="0" key="30" len="11"/>
          <note vol="48" pos="10775" pan="0" key="30" len="12"/>
          <note vol="48" pos="10787" pan="0" key="30" len="12"/>
          <note vol="48" pos="10799" pan="0" key="30" len="12"/>
          <note vol="59" pos="10823" pan="0" key="30" len="12"/>
          <note vol="48" pos="10859" pan="0" key="30" len="12"/>
          <note vol="48" pos="10871" pan="0" key="30" len="12"/>
          <note vol="59" pos="10895" pan="0" key="30" len="12"/>
          <note vol="48" pos="10907" pan="0" key="30" len="12"/>
          <note vol="48" pos="10919" pan="0" key="30" len="12"/>
          <note vol="48" pos="10931" pan="0" key="30" len="12"/>
          <note vol="59" pos="10943" pan="0" key="30" len="12"/>
          <note vol="48" pos="10967" pan="0" key="30" len="12"/>
          <note vol="48" pos="10979" pan="0" key="30" len="12"/>
          <note vol="48" pos="10991" pan="0" key="30" len="12"/>
          <note vol="59" pos="11015" pan="0" key="30" len="12"/>
          <note vol="59" pos="11051" pan="0" key="30" len="12"/>
          <note vol="59" pos="11087" pan="0" key="30" len="12"/>
          <note vol="59" pos="11111" pan="0" key="30" len="12"/>
          <note vol="59" pos="11135" pan="0" key="30" len="12"/>
          <note vol="48" pos="11159" pan="0" key="30" len="12"/>
          <note vol="48" pos="11171" pan="0" key="30" len="12"/>
          <note vol="48" pos="11183" pan="0" key="30" len="12"/>
          <note vol="59" pos="11207" pan="0" key="30" len="12"/>
          <note vol="48" pos="11243" pan="0" key="30" len="12"/>
          <note vol="48" pos="11255" pan="0" key="30" len="12"/>
          <note vol="59" pos="11279" pan="0" key="30" len="12"/>
          <note vol="48" pos="11291" pan="0" key="30" len="12"/>
          <note vol="48" pos="11303" pan="0" key="30" len="12"/>
          <note vol="48" pos="11315" pan="0" key="30" len="12"/>
          <note vol="59" pos="11327" pan="0" key="30" len="12"/>
          <note vol="48" pos="11351" pan="0" key="30" len="12"/>
          <note vol="48" pos="11363" pan="0" key="30" len="12"/>
          <note vol="48" pos="11375" pan="0" key="30" len="12"/>
          <note vol="59" pos="11399" pan="0" key="30" len="12"/>
          <note vol="59" pos="11435" pan="0" key="30" len="12"/>
          <note vol="59" pos="11471" pan="0" key="30" len="12"/>
          <note vol="59" pos="11495" pan="0" key="30" len="12"/>
          <note vol="59" pos="11519" pan="0" key="30" len="11"/>
          <note vol="48" pos="11543" pan="0" key="30" len="12"/>
          <note vol="48" pos="11555" pan="0" key="30" len="12"/>
          <note vol="48" pos="11567" pan="0" key="30" len="12"/>
          <note vol="59" pos="11591" pan="0" key="30" len="12"/>
          <note vol="48" pos="11627" pan="0" key="30" len="12"/>
          <note vol="48" pos="11639" pan="0" key="30" len="12"/>
          <note vol="59" pos="11663" pan="0" key="30" len="12"/>
          <note vol="48" pos="11675" pan="0" key="30" len="12"/>
          <note vol="48" pos="11687" pan="0" key="30" len="12"/>
          <note vol="48" pos="11699" pan="0" key="30" len="12"/>
          <note vol="59" pos="11711" pan="0" key="30" len="12"/>
          <note vol="48" pos="11735" pan="0" key="30" len="12"/>
          <note vol="48" pos="11747" pan="0" key="30" len="12"/>
          <note vol="48" pos="11759" pan="0" key="30" len="12"/>
          <note vol="59" pos="11783" pan="0" key="30" len="12"/>
          <note vol="59" pos="11819" pan="0" key="30" len="12"/>
          <note vol="59" pos="11855" pan="0" key="30" len="12"/>
          <note vol="59" pos="11879" pan="0" key="30" len="12"/>
          <note vol="59" pos="11903" pan="0" key="30" len="12"/>
          <note vol="48" pos="11927" pan="0" key="30" len="12"/>
          <note vol="48" pos="11939" pan="0" key="30" len="12"/>
          <note vol="48" pos="11951" pan="0" key="30" len="12"/>
          <note vol="59" pos="11975" pan="0" key="30" len="12"/>
          <note vol="48" pos="12011" pan="0" key="30" len="12"/>
          <note vol="48" pos="12023" pan="0" key="30" len="12"/>
          <note vol="59" pos="12047" pan="0" key="30" len="12"/>
          <note vol="48" pos="12059" pan="0" key="30" len="12"/>
          <note vol="48" pos="12071" pan="0" key="30" len="12"/>
          <note vol="48" pos="12083" pan="0" key="30" len="12"/>
          <note vol="59" pos="12095" pan="0" key="30" len="12"/>
          <note vol="48" pos="12119" pan="0" key="30" len="12"/>
          <note vol="48" pos="12131" pan="0" key="30" len="12"/>
          <note vol="48" pos="12143" pan="0" key="30" len="12"/>
          <note vol="59" pos="12167" pan="0" key="30" len="12"/>
          <note vol="59" pos="12203" pan="0" key="30" len="12"/>
          <note vol="59" pos="12239" pan="0" key="30" len="12"/>
          <note vol="59" pos="12263" pan="0" key="30" len="12"/>
          <note vol="59" pos="12287" pan="0" key="30" len="11"/>
          <note vol="48" pos="12311" pan="0" key="30" len="12"/>
          <note vol="48" pos="12323" pan="0" key="30" len="12"/>
          <note vol="48" pos="12335" pan="0" key="30" len="12"/>
          <note vol="59" pos="12359" pan="0" key="30" len="12"/>
          <note vol="48" pos="12395" pan="0" key="30" len="12"/>
          <note vol="48" pos="12407" pan="0" key="30" len="12"/>
          <note vol="59" pos="12431" pan="0" key="30" len="12"/>
          <note vol="48" pos="12443" pan="0" key="30" len="12"/>
          <note vol="48" pos="12455" pan="0" key="30" len="12"/>
          <note vol="48" pos="12467" pan="0" key="30" len="12"/>
          <note vol="59" pos="12479" pan="0" key="30" len="12"/>
          <note vol="48" pos="12503" pan="0" key="30" len="12"/>
          <note vol="48" pos="12515" pan="0" key="30" len="12"/>
          <note vol="48" pos="12527" pan="0" key="30" len="12"/>
          <note vol="59" pos="12551" pan="0" key="30" len="12"/>
          <note vol="59" pos="12587" pan="0" key="30" len="12"/>
          <note vol="59" pos="12623" pan="0" key="30" len="12"/>
          <note vol="59" pos="12647" pan="0" key="30" len="12"/>
          <note vol="59" pos="12671" pan="0" key="30" len="12"/>
          <note vol="48" pos="12695" pan="0" key="30" len="12"/>
          <note vol="48" pos="12707" pan="0" key="30" len="12"/>
          <note vol="48" pos="12719" pan="0" key="30" len="12"/>
          <note vol="59" pos="12743" pan="0" key="30" len="12"/>
          <note vol="48" pos="12779" pan="0" key="30" len="12"/>
          <note vol="48" pos="12791" pan="0" key="30" len="12"/>
          <note vol="59" pos="12815" pan="0" key="30" len="12"/>
          <note vol="48" pos="12827" pan="0" key="30" len="12"/>
          <note vol="48" pos="12839" pan="0" key="30" len="12"/>
          <note vol="48" pos="12851" pan="0" key="30" len="12"/>
          <note vol="59" pos="12863" pan="0" key="30" len="12"/>
          <note vol="48" pos="12887" pan="0" key="30" len="12"/>
          <note vol="48" pos="12899" pan="0" key="30" len="12"/>
          <note vol="48" pos="12911" pan="0" key="30" len="12"/>
          <note vol="59" pos="12935" pan="0" key="30" len="12"/>
          <note vol="59" pos="12971" pan="0" key="30" len="12"/>
          <note vol="59" pos="13007" pan="0" key="30" len="12"/>
          <note vol="59" pos="13031" pan="0" key="30" len="12"/>
          <note vol="59" pos="13055" pan="0" key="30" len="11"/>
          <note vol="48" pos="13079" pan="0" key="30" len="12"/>
          <note vol="48" pos="13091" pan="0" key="30" len="12"/>
          <note vol="48" pos="13103" pan="0" key="30" len="12"/>
          <note vol="59" pos="13127" pan="0" key="30" len="12"/>
          <note vol="48" pos="13163" pan="0" key="30" len="12"/>
          <note vol="48" pos="13175" pan="0" key="30" len="12"/>
          <note vol="59" pos="13199" pan="0" key="30" len="12"/>
          <note vol="48" pos="13211" pan="0" key="30" len="12"/>
          <note vol="48" pos="13223" pan="0" key="30" len="12"/>
          <note vol="48" pos="13235" pan="0" key="30" len="12"/>
          <note vol="59" pos="13247" pan="0" key="30" len="12"/>
          <note vol="48" pos="13271" pan="0" key="30" len="12"/>
          <note vol="48" pos="13283" pan="0" key="30" len="12"/>
          <note vol="48" pos="13295" pan="0" key="30" len="12"/>
          <note vol="59" pos="13319" pan="0" key="30" len="12"/>
          <note vol="59" pos="13355" pan="0" key="30" len="12"/>
          <note vol="59" pos="13391" pan="0" key="30" len="12"/>
          <note vol="59" pos="13415" pan="0" key="30" len="12"/>
          <note vol="59" pos="13439" pan="0" key="30" len="12"/>
          <note vol="48" pos="13463" pan="0" key="30" len="12"/>
          <note vol="48" pos="13475" pan="0" key="30" len="12"/>
          <note vol="48" pos="13487" pan="0" key="30" len="12"/>
          <note vol="59" pos="13511" pan="0" key="30" len="12"/>
          <note vol="48" pos="13547" pan="0" key="30" len="12"/>
          <note vol="48" pos="13559" pan="0" key="30" len="12"/>
          <note vol="59" pos="13583" pan="0" key="30" len="12"/>
          <note vol="48" pos="13595" pan="0" key="30" len="12"/>
          <note vol="48" pos="13607" pan="0" key="30" len="12"/>
          <note vol="48" pos="13619" pan="0" key="30" len="12"/>
          <note vol="59" pos="13631" pan="0" key="30" len="12"/>
          <note vol="48" pos="13655" pan="0" key="30" len="12"/>
          <note vol="48" pos="13667" pan="0" key="30" len="12"/>
          <note vol="48" pos="13679" pan="0" key="30" len="12"/>
          <note vol="59" pos="13703" pan="0" key="30" len="12"/>
          <note vol="59" pos="13739" pan="0" key="30" len="12"/>
          <note vol="59" pos="13775" pan="0" key="30" len="12"/>
          <note vol="59" pos="13799" pan="0" key="30" len="12"/>
          <note vol="59" pos="13823" pan="0" key="30" len="11"/>
          <note vol="48" pos="13847" pan="0" key="30" len="12"/>
          <note vol="48" pos="13859" pan="0" key="30" len="12"/>
          <note vol="48" pos="13871" pan="0" key="30" len="12"/>
          <note vol="59" pos="13895" pan="0" key="30" len="12"/>
          <note vol="48" pos="13931" pan="0" key="30" len="12"/>
          <note vol="48" pos="13943" pan="0" key="30" len="12"/>
          <note vol="59" pos="13967" pan="0" key="30" len="12"/>
          <note vol="48" pos="13979" pan="0" key="30" len="12"/>
          <note vol="48" pos="13991" pan="0" key="30" len="12"/>
          <note vol="48" pos="14003" pan="0" key="30" len="12"/>
          <note vol="59" pos="14015" pan="0" key="30" len="12"/>
          <note vol="48" pos="14039" pan="0" key="30" len="12"/>
          <note vol="48" pos="14051" pan="0" key="30" len="12"/>
          <note vol="48" pos="14063" pan="0" key="30" len="12"/>
          <note vol="59" pos="14087" pan="0" key="30" len="12"/>
          <note vol="59" pos="14123" pan="0" key="30" len="12"/>
          <note vol="59" pos="14159" pan="0" key="30" len="12"/>
          <note vol="59" pos="14183" pan="0" key="30" len="12"/>
          <note vol="59" pos="14207" pan="0" key="30" len="12"/>
          <note vol="48" pos="14231" pan="0" key="30" len="12"/>
          <note vol="48" pos="14243" pan="0" key="30" len="12"/>
          <note vol="48" pos="14255" pan="0" key="30" len="12"/>
          <note vol="59" pos="14279" pan="0" key="30" len="12"/>
          <note vol="48" pos="14315" pan="0" key="30" len="12"/>
          <note vol="48" pos="14327" pan="0" key="30" len="12"/>
          <note vol="59" pos="14351" pan="0" key="30" len="12"/>
          <note vol="48" pos="14363" pan="0" key="30" len="12"/>
          <note vol="48" pos="14375" pan="0" key="30" len="12"/>
          <note vol="48" pos="14387" pan="0" key="30" len="12"/>
          <note vol="59" pos="14399" pan="0" key="30" len="12"/>
          <note vol="48" pos="14423" pan="0" key="30" len="12"/>
          <note vol="48" pos="14435" pan="0" key="30" len="12"/>
          <note vol="48" pos="14447" pan="0" key="30" len="12"/>
          <note vol="59" pos="14471" pan="0" key="30" len="12"/>
          <note vol="59" pos="14507" pan="0" key="30" len="12"/>
          <note vol="59" pos="14543" pan="0" key="30" len="12"/>
          <note vol="59" pos="14567" pan="0" key="30" len="12"/>
          <note vol="59" pos="14591" pan="0" key="30" len="11"/>
          <note vol="48" pos="14615" pan="0" key="30" len="12"/>
          <note vol="48" pos="14627" pan="0" key="30" len="12"/>
          <note vol="48" pos="14639" pan="0" key="30" len="12"/>
          <note vol="59" pos="14663" pan="0" key="30" len="12"/>
          <note vol="48" pos="14699" pan="0" key="30" len="12"/>
          <note vol="48" pos="14711" pan="0" key="30" len="12"/>
          <note vol="59" pos="14735" pan="0" key="30" len="12"/>
          <note vol="48" pos="14747" pan="0" key="30" len="12"/>
          <note vol="48" pos="14759" pan="0" key="30" len="12"/>
          <note vol="48" pos="14771" pan="0" key="30" len="12"/>
          <note vol="59" pos="14783" pan="0" key="30" len="12"/>
          <note vol="48" pos="14807" pan="0" key="30" len="12"/>
          <note vol="48" pos="14819" pan="0" key="30" len="12"/>
          <note vol="48" pos="14831" pan="0" key="30" len="12"/>
          <note vol="59" pos="14855" pan="0" key="30" len="12"/>
          <note vol="59" pos="14891" pan="0" key="30" len="12"/>
          <note vol="59" pos="14927" pan="0" key="30" len="12"/>
          <note vol="59" pos="14951" pan="0" key="30" len="12"/>
          <note vol="59" pos="14975" pan="0" key="30" len="12"/>
          <note vol="48" pos="14999" pan="0" key="30" len="12"/>
          <note vol="48" pos="15011" pan="0" key="30" len="12"/>
          <note vol="48" pos="15023" pan="0" key="30" len="12"/>
          <note vol="59" pos="15047" pan="0" key="30" len="12"/>
          <note vol="48" pos="15083" pan="0" key="30" len="12"/>
          <note vol="48" pos="15095" pan="0" key="30" len="12"/>
          <note vol="59" pos="15119" pan="0" key="30" len="12"/>
          <note vol="48" pos="15131" pan="0" key="30" len="12"/>
          <note vol="48" pos="15143" pan="0" key="30" len="12"/>
          <note vol="48" pos="15155" pan="0" key="30" len="12"/>
          <note vol="59" pos="15167" pan="0" key="30" len="12"/>
          <note vol="48" pos="15191" pan="0" key="30" len="12"/>
          <note vol="48" pos="15203" pan="0" key="30" len="12"/>
          <note vol="48" pos="15215" pan="0" key="30" len="12"/>
          <note vol="59" pos="15239" pan="0" key="30" len="12"/>
          <note vol="59" pos="15275" pan="0" key="30" len="12"/>
          <note vol="59" pos="15311" pan="0" key="30" len="12"/>
          <note vol="59" pos="15335" pan="0" key="30" len="12"/>
          <note vol="59" pos="15359" pan="0" key="30" len="11"/>
          <note vol="48" pos="15383" pan="0" key="30" len="12"/>
          <note vol="48" pos="15395" pan="0" key="30" len="12"/>
          <note vol="48" pos="15407" pan="0" key="30" len="12"/>
          <note vol="59" pos="15431" pan="0" key="30" len="12"/>
          <note vol="48" pos="15467" pan="0" key="30" len="12"/>
          <note vol="48" pos="15479" pan="0" key="30" len="12"/>
          <note vol="59" pos="15503" pan="0" key="30" len="12"/>
          <note vol="48" pos="15515" pan="0" key="30" len="12"/>
          <note vol="48" pos="15527" pan="0" key="30" len="12"/>
          <note vol="48" pos="15539" pan="0" key="30" len="12"/>
          <note vol="59" pos="15551" pan="0" key="30" len="12"/>
          <note vol="48" pos="15575" pan="0" key="30" len="12"/>
          <note vol="48" pos="15587" pan="0" key="30" len="12"/>
          <note vol="48" pos="15599" pan="0" key="30" len="12"/>
          <note vol="59" pos="15623" pan="0" key="30" len="12"/>
          <note vol="59" pos="15659" pan="0" key="30" len="12"/>
          <note vol="59" pos="15695" pan="0" key="30" len="12"/>
          <note vol="59" pos="15719" pan="0" key="30" len="12"/>
          <note vol="59" pos="15743" pan="0" key="30" len="12"/>
          <note vol="48" pos="15767" pan="0" key="30" len="12"/>
          <note vol="48" pos="15779" pan="0" key="30" len="12"/>
          <note vol="48" pos="15791" pan="0" key="30" len="12"/>
          <note vol="59" pos="15815" pan="0" key="30" len="12"/>
          <note vol="48" pos="15851" pan="0" key="30" len="12"/>
          <note vol="48" pos="15863" pan="0" key="30" len="12"/>
          <note vol="59" pos="15887" pan="0" key="30" len="12"/>
          <note vol="48" pos="15899" pan="0" key="30" len="12"/>
          <note vol="48" pos="15911" pan="0" key="30" len="12"/>
          <note vol="48" pos="15923" pan="0" key="30" len="12"/>
          <note vol="59" pos="15935" pan="0" key="30" len="12"/>
          <note vol="48" pos="15959" pan="0" key="30" len="12"/>
          <note vol="48" pos="15971" pan="0" key="30" len="12"/>
          <note vol="48" pos="15983" pan="0" key="30" len="12"/>
          <note vol="59" pos="16007" pan="0" key="30" len="12"/>
          <note vol="59" pos="16043" pan="0" key="30" len="12"/>
          <note vol="59" pos="16079" pan="0" key="30" len="12"/>
          <note vol="59" pos="16103" pan="0" key="30" len="12"/>
          <note vol="59" pos="16127" pan="0" key="30" len="11"/>
          <note vol="48" pos="16151" pan="0" key="30" len="12"/>
          <note vol="48" pos="16163" pan="0" key="30" len="12"/>
          <note vol="48" pos="16175" pan="0" key="30" len="12"/>
          <note vol="59" pos="16199" pan="0" key="30" len="12"/>
          <note vol="48" pos="16235" pan="0" key="30" len="12"/>
          <note vol="48" pos="16247" pan="0" key="30" len="12"/>
          <note vol="59" pos="16271" pan="0" key="30" len="12"/>
          <note vol="48" pos="16283" pan="0" key="30" len="12"/>
          <note vol="48" pos="16295" pan="0" key="30" len="12"/>
          <note vol="48" pos="16307" pan="0" key="30" len="12"/>
          <note vol="59" pos="16319" pan="0" key="30" len="12"/>
          <note vol="48" pos="16343" pan="0" key="30" len="12"/>
          <note vol="48" pos="16355" pan="0" key="30" len="12"/>
          <note vol="48" pos="16367" pan="0" key="30" len="12"/>
          <note vol="59" pos="16391" pan="0" key="30" len="12"/>
          <note vol="59" pos="16427" pan="0" key="30" len="12"/>
          <note vol="59" pos="16463" pan="0" key="30" len="12"/>
          <note vol="59" pos="16487" pan="0" key="30" len="12"/>
          <note vol="59" pos="16511" pan="0" key="30" len="12"/>
          <note vol="48" pos="16535" pan="0" key="30" len="12"/>
          <note vol="48" pos="16547" pan="0" key="30" len="12"/>
          <note vol="48" pos="16559" pan="0" key="30" len="12"/>
          <note vol="59" pos="16583" pan="0" key="30" len="12"/>
          <note vol="48" pos="16619" pan="0" key="30" len="12"/>
          <note vol="48" pos="16631" pan="0" key="30" len="12"/>
          <note vol="59" pos="16655" pan="0" key="30" len="12"/>
          <note vol="48" pos="16667" pan="0" key="30" len="12"/>
          <note vol="48" pos="16679" pan="0" key="30" len="12"/>
          <note vol="48" pos="16691" pan="0" key="30" len="12"/>
          <note vol="59" pos="16703" pan="0" key="30" len="12"/>
          <note vol="48" pos="16727" pan="0" key="30" len="12"/>
          <note vol="48" pos="16739" pan="0" key="30" len="12"/>
          <note vol="48" pos="16751" pan="0" key="30" len="12"/>
          <note vol="59" pos="16775" pan="0" key="30" len="12"/>
          <note vol="59" pos="16811" pan="0" key="30" len="12"/>
          <note vol="59" pos="16847" pan="0" key="30" len="12"/>
          <note vol="59" pos="16871" pan="0" key="30" len="12"/>
        </pattern>
      </track>
      <track muted="0" type="5" mutedBeforeSolo="0" solo="0" name="Rhythm volume">
        <automationtrack/>
        <automationpattern pos="0" mute="0" name="FX 1>Volume" tens="1" len="42240" prog="1">
          <time pos="0" value="1" outValue="1"/>
          <time pos="21504" value="1.001" outValue="1.001"/>
          <time pos="24576" value="0" outValue="0"/>
          <object id="60149"/>
        </automationpattern>
      </track>
      <track muted="0" type="0" mutedBeforeSolo="0" solo="0" name="LABS">
        <instrumenttrack vol="100" pan="0" fxch="2" lastkey="127" basenote="69" firstkey="0" enablecc="0" pitch="0" pitchrange="2" usemasterpitch="1">
          <midicontrollers cc67="0" cc0="0" cc19="0" cc66="0" cc1="0" cc31="0" cc59="0" cc40="0" cc84="0" cc56="0" cc21="0" cc121="0" cc27="0" cc12="0" cc79="0" cc83="0" cc115="0" cc124="0" cc92="0" cc23="0" cc77="0" cc86="0" cc13="0" cc127="0" cc60="0" cc96="0" cc126="0" cc103="0" cc61="0" cc93="0" cc89="0" cc10="0" cc81="0" cc54="0" cc52="0" cc45="0" cc48="0" cc85="0" cc90="0" cc8="0" cc78="0" cc43="0" cc14="0" cc80="0" cc102="0" cc69="0" cc120="0" cc33="0" cc119="0" cc5="0" cc29="0" cc20="0" cc91="0" cc99="0" cc4="0" cc15="0" cc7="0" cc87="0" cc18="0" cc9="0" cc50="0" cc58="0" cc55="0" cc36="0" cc65="0" cc109="0" cc57="0" cc30="0" cc46="0" cc25="0" cc106="0" cc38="0" cc73="0" cc114="0" cc42="0" cc3="0" cc122="0" cc28="0" cc70="0" cc6="0" cc51="0" cc72="0" cc95="0" cc104="0" cc37="0" cc123="0" cc26="0" cc94="0" cc74="0" cc17="0" cc32="0" cc16="0" cc22="0" cc107="0" cc49="0" cc47="0" cc100="0" cc34="0" cc62="0" cc53="0" cc11="0" cc35="0" cc97="0" cc98="0" cc105="0" cc2="0" cc71="0" cc117="0" cc82="0" cc108="0" cc24="0" cc88="0" cc101="0" cc44="0" cc111="0" cc112="0" cc125="0" cc68="0" cc63="0" cc76="0" cc64="0" cc41="0" cc110="0" cc113="0" cc116="0" cc75="0" cc39="0" cc118="0"/>
          <instrument name="vestige">
            <vestige chunk="VkMyId8ZAAA8P3htbCB2ZXJzaW9uPSIxLjAiIGVuY29kaW5nPSJVVEYtOCI/PiA8TGFicz48TUVUQSBmYW1pbHk9IlN5bnRoIFBhZHMiIG5hbWU9IlBhZCAjMDAwMSIgcHJvZHVjdE1vZGU9IjAiIHZlcnNpb249IjEuMC42IiB0YWdzPSIxMDMwMjAwOlN5bnRoIiBtb2RpZmllZD0iMSIvPjxVSSB1aXNpemU9IjEuMCIgdWljb2xsYXBzZWQ9IjEiLz48QVJUSUNTPjxTRVRUSU5HIGlkPSJwX3N5bmNUb1RlbXBvIiB2YWx1ZT0iMSIvPjxTRVRUSU5HIGlkPSJwX2R5bmFtaWNzVmVsb2NpdHlNb2RlIiB2YWx1ZT0iRlVMTCBWRUxPQ0lUWSBSQU5HRSIvPjxTRVRUSU5HIGlkPSJwX3Nob3J0UlRNb2RlIiB2YWx1ZT0iLTIuMCIvPjxTRVRUSU5HIGlkPSJwX3ZlbG9jaXR5Q3VydmUiIHZhbHVlPSJMSU5FQVIgVkVMT0NJVFkiLz48U0VUVElORyBpZD0icF9xdWFudGlzZU1vZGUiIHZhbHVlPSIiLz48U0VUVElORyBpZD0icF9taXhlckFkdmFuY2VkIiB2YWx1ZT0iMSIvPjxTRVRUSU5HIGlkPSJwX21peGVyR2xvYmFsIiB2YWx1ZT0iMSIvPjxTRVRUSU5HIGlkPSJwX21peGVyTG9jayIgdmFsdWU9IjAiLz48U0VUVElORyBpZD0icF9taXhlclBhZ2UiIHZhbHVlPSIiLz48U0VUVElORyBpZD0icF9hcnRpY0xvY2siIHZhbHVlPSIwIi8+PFNFVFRJTkcgaWQ9InBfYXJ0aWNQYWdlIiB2YWx1ZT0iIi8+PFNFVFRJTkcgaWQ9InBfbGFzdFNlbGVjdGVkUHJpbWFyeUFydGljIiB2YWx1ZT0iMCIvPjxTRVRUSU5HIGlkPSJwX21pZGlDaGFubmVsIiB2YWx1ZT0iMCIvPjxTRVRUSU5HIGlkPSJwX3NlbGVjdGVkVGFncyIgdmFsdWU9IlN5bnRoIi8+PFNFVFRJTkcgaWQ9InBfZmlsdGVyUG9zIiB2YWx1ZT0iWzAsIDBdIi8+PFNFVFRJTkcgaWQ9InBfcHJlc2V0UG9zIiB2YWx1ZT0iWzAsIDE1NjRdIi8+PFNFVFRJTkcgaWQ9InBfZXZvQ29udGFpbmVyUG9zIiB2YWx1ZT0iW10iLz48U0VUVElORyBpZD0icF9vY3RhdmUiIHZhbHVlPSIwIi8+PFNFVFRJTkcgaWQ9InBfb2Rlc3RJbmRpY2VzIiB2YWx1ZT0iMCwxLDIsMyw0LDUsNiw3LDgsOSwxMCwxMSwxMiwxMywxNCwxNSwxNiwxNywxOCwxOSwyMCwyMSwyMiwyMywyNCwyNSwyNiwyNywyOCwyOSwzMCwzMSwzMiwzMywzNCwzNSwzNiwzNywzOCwzOSw0MCw0MSw0Miw0Myw0NCw0NSw0Niw0Nyw0OCw0OSw1MCw1MSw1Miw1Myw1NCw1NSw1Niw1Nyw1OCw1OSw2MCw2MSw2Miw2Myw2NCw2NSw2Niw2Nyw2OCw2OSw3MCw3MSw3Miw3Myw3NCw3NSw3Niw3Nyw3OCw3OSw4MCw4MSw4Miw4Myw4NCw4NSw4Niw4Nyw4OCw4OSw5MCw5MSw5Miw5Myw5NCw5NSw5Niw5Nyw5OCw5OSwxMDAsMTAxLDEwMiwxMDMsMTA0LDEwNSwxMDYsMTA3LDEwOCwxMDksMTEwLDExMSwxMTIsMTEzLDExNCwxMTUsMTE2LDExNywxMTgsMTE5LDEyMCwxMjEsMTIyLDEyMywxMjQsMTI1LDEyNiwxMjcsMTI4LDEyOSwxMzAsMTMxLDEzMiwxMzMsMTM0LDEzNSwxMzYsMTM3LDEzOCwxMzksMTQwLDE0MSwxNDIsMTQzLDE0NCwxNDUsMTQ2LDE0NywxNDgsMTQ5LDE1MCwxNTEsMTUyLDE1MywxNTQsMTU1LDE1NiwxNTcsMTU4LDE1OSwxNjAsMTYxLDE2MiwxNjMsMTY0LDE2NSwxNjYsMTY3LDE2OCwxNjksMTcwLDE3MSwxNzIsMTczLDE3NCwxNzUsMTc2LDE3NywxNzgsMTc5LDE4MCwxODEsMTgyLDE4MywxODQsMTg1LDE4NiwxODcsMTg4LDE4OSwxOTAsMTkxLDE5MiwxOTMsMTk0LDE5NSwxOTYsMTk3LDE5OCwxOTksMjAwLDIwMSwyMDIsMjAzLDIwNCwyMDUsMjA2LDIwNywyMDgsMjA5LDIxMCwyMTEsMjEyLDIxMywyMTQsMjE1LDIxNiwyMTcsMjE4LDIxOSwyMjAsMjIxLDIyMiwyMjMsMjI0LDIyNSwyMjYsMjI3LDIyOCwyMjksMjMwLDIzMSwyMzIsMjMzLDIzNCwyMzUsMjM2LDIzNywyMzgsMjM5LDI0MCwyNDEsMjQyLDI0MywyNDQsMjQ1LDI0NiwyNDcsMjQ4LDI0OSwyNTAsMjUxLDI1MiwyNTMsMjU0LDI1NSwyNTYsMjU3LDI1OCwyNTksMjYwLDI2MSwyNjIsMjYzLDI2NCIvPjxTRVRUSU5HIGlkPSJwX3RpbWVTdHJldGNoIiB2YWx1ZT0iRGVmYXVsdCIvPjxTRVRUSU5HIGlkPSJwX3ZvaWNlQ2hva2UiIHZhbHVlPSIwLjAiLz48U0VUVElORyBpZD0icF9sb29wRW5kIiB2YWx1ZT0iMC4wIi8+PEFSVElDPjxTRVRUSU5HIGlkPSJhX25hbWUiIHZhbHVlPSJMQUJTX1N5bnRoX1BhZF8jMDAwMSIvPjxTRVRUSU5HIGlkPSJhX3ZlcnNpb24iIHZhbHVlPSIxNjc3ODc1MiIvPjxTRVRUSU5HIGlkPSJhX3RlbXBsYXRlSWR4IiB2YWx1ZT0iMCIvPjxTRVRUSU5HIGlkPSJhX29kZXN0IiB2YWx1ZT0iUkVWRVJCIi8+PFNFVFRJTkcgaWQ9ImFfYWN0aXZlIiB2YWx1ZT0iMiIvPjxTRVRUSU5HIGlkPSJhX2JhY2tBY3RpdmUiIHZhbHVlPSIwIi8+PFNFVFRJTkcgaWQ9ImFfdHdvSGFuZGVkIiB2YWx1ZT0iMCIvPjxTRVRUSU5HIGlkPSJhX2F1dG9NYWtlVXAiIHZhbHVlPSIwIi8+PFNFVFRJTkcgaWQ9InRfdHlwZSIgdmFsdWU9IjAiLz48U0VUVElORyBpZD0idF9lbmFibGVkIiB2YWx1ZT0iMSIvPjxTRVRUSU5HIGlkPSJ0X2xhdGNoIiB2YWx1ZT0iMCIvPjxTRVRUSU5HIGlkPSJ0X2tleXN3aXRjaCIgdmFsdWU9IjAiLz48U0VUVElORyBpZD0idF9taWRpQ2hhbm5lbCIgdmFsdWU9IjEiLz48U0VUVElORyBpZD0idF92ZWxGcm9tIiB2YWx1ZT0iMSIvPjxTRVRUSU5HIGlkPSJ0X3ZlbFRvIiB2YWx1ZT0iMTI3Ii8+PFNFVFRJTkcgaWQ9InRfY2MiIHZhbHVlPSIzMiIvPjxTRVRUSU5HIGlkPSJ0X2NjVmFsdWVGcm9tIiB2YWx1ZT0iMCIvPjxTRVRUSU5HIGlkPSJ0X2NjVmFsdWVUbyIgdmFsdWU9IjEyNyIvPjxTRVRUSU5HIGlkPSJ0X3NwZWVkRnJvbSIgdmFsdWU9IjAuMCIvPjxTRVRUSU5HIGlkPSJ0X3NwZWVkVG8iIHZhbHVlPSIwLjUiLz48U0VUVElORyBpZD0idF9wcm9ncmFtQ2hhbmdlIiB2YWx1ZT0iMCIvPjxTRVRUSU5HIGlkPSJ0X3RlbXBvRnJvbSIgdmFsdWU9IjAuMCIvPjxTRVRUSU5HIGlkPSJ0X3RlbXBvVG8iIHZhbHVlPSIwLjAiLz48U0VUVElORyBpZD0icnJfdGltZW91dCIgdmFsdWU9Ii0xLjAiLz48U0VUVElORyBpZD0icnJfbmVpZ2hib3VyTWluIiB2YWx1ZT0iMjQiLz48U0VUVElORyBpZD0icnJfbmVpZ2hib3VyTWF4IiB2YWx1ZT0iOTYiLz48U0VUVElORyBpZD0icnJfdXNlTmVpZ2hib3VyIiB2YWx1ZT0iMCIvPjxTRVRUSU5HIGlkPSJycl9jb3VudCIgdmFsdWU9Ii0xIi8+PFNFVFRJTkcgaWQ9InJyX2luYyIgdmFsdWU9IjEiLz48U0VUVElORyBpZD0icnJfbGF5ZXJzIiB2YWx1ZT0iMSIvPjxTRVRUSU5HIGlkPSJycl9nYWluIiB2YWx1ZT0iMS4wIi8+PFNFVFRJTkcgaWQ9InJyX3N0YXJ0IiB2YWx1ZT0iMCIvPjxTRVRUSU5HIGlkPSJycl9zeW5jIiB2YWx1ZT0iMCIvPjxTRVRUSU5HIGlkPSJycl9wbGF5IiB2YWx1ZT0iMSIvPjxTRVRUSU5HIGlkPSJycl9rZXlzd2l0Y2hGcm9tIiB2YWx1ZT0iLTEiLz48U0VUVElORyBpZD0icnJfa2V5c3dpdGNoVG8iIHZhbHVlPSItMSIvPjxTRVRUSU5HIGlkPSJycl9rZXlzd2l0Y2hUbyIgdmFsdWU9Ii0xIi8+PFNFVFRJTkcgaWQ9InJyX21vZGUiIHZhbHVlPSIwIi8+PFNFVFRJTkcgaWQ9InJfbWlkaUNoYW5uZWwiIHZhbHVlPSIwIi8+PFNFVFRJTkcgaWQ9InJfdHJhbnNwb3NlIiB2YWx1ZT0iMCIvPjxTRVRUSU5HIGlkPSJyX2xheWVyVHJhbnNwb3NlIiB2YWx1ZT0iMCIvPjxTRVRUSU5HIGlkPSJpX2V4cHJlc3Npb24iIHZhbHVlPSIxLjAiLz48U0VUVElORyBpZD0iaV9keW5hbWljcyIgdmFsdWU9IjEuMCIvPjxTRVRUSU5HIGlkPSJpX3JldmVyYiIgdmFsdWU9IjAuMCIvPjxTRVRUSU5HIGlkPSJpX3JlbGVhc2UiIHZhbHVlPSIwLjUiLz48U0VUVElORyBpZD0iaV90aWdodCIgdmFsdWU9IjAuNSIvPjxTRVRUSU5HIGlkPSJpX3ZpYnJhdG8iIHZhbHVlPSIxLjAiLz48U0VUVElORyBpZD0iaV92YXJpYXRpb24iIHZhbHVlPSIwLjAiLz48U0VUVElORyBpZD0ic19wYW4iIHZhbHVlPSIwLjUiLz48U0VUVElORyBpZD0ic193aWR0aCIgdmFsdWU9IjAuNSIvPjxTRVRUSU5HIGlkPSJzX2ZsaXAiIHZhbHVlPSIwLjAiLz48TUlYPjxTRVRUSU5HIGlkPSJtX21haW4iIHZhbHVlPSIxLjAiIG1pY0lkPSIxIi8+PFNFVFRJTkcgaWQ9ImVfbWFpbiIgdmFsdWU9IjEiIG1pY0lkPSIxIi8+PFNFVFRJTkcgaWQ9ImJfbWFpbiIgdmFsdWU9IjAiIG1pY0lkPSIxIi8+PFNFVFRJTkcgaWQ9Im1fYWx0MSIgdmFsdWU9IjAuMCIgbWljSWQ9IjIiLz48U0VUVElORyBpZD0iZV9hbHQxIiB2YWx1ZT0iMCIgbWljSWQ9IjIiLz48U0VUVElORyBpZD0iYl9hbHQxIiB2YWx1ZT0iMCIgbWljSWQ9IjIiLz48U0VUVElORyBpZD0ibV9hbHQyIiB2YWx1ZT0iMC4wIiBtaWNJZD0iMyIvPjxTRVRUSU5HIGlkPSJlX2FsdDIiIHZhbHVlPSIwIiBtaWNJZD0iMyIvPjxTRVRUSU5HIGlkPSJiX2FsdDIiIHZhbHVlPSIwIiBtaWNJZD0iMyIvPjxTRVRUSU5HIGlkPSJtX2FsdDMiIHZhbHVlPSIwLjAiIG1pY0lkPSI0Ii8+PFNFVFRJTkcgaWQ9ImVfYWx0MyIgdmFsdWU9IjAiIG1pY0lkPSI0Ii8+PFNFVFRJTkcgaWQ9ImJfYWx0MyIgdmFsdWU9IjAiIG1pY0lkPSI0Ii8+PC9NSVg+PC9BUlRJQz48L0FSVElDUz48UEFSQU1FVEVSUz48UEFSQU0gaWQ9ImdfZ2FpbiIgdmFsdWU9IjEuMCIgY2M9IjciLz48UEFSQU0gaWQ9ImdfcGFuIiB2YWx1ZT0iMC41IiBjYz0iMTAiLz48UEFSQU0gaWQ9ImdfdHVuZSIgdmFsdWU9IjAuMCIgY2M9Ii0xIi8+PFBBUkFNIGlkPSJpX3JldmVyYiIgdmFsdWU9IjAuMCIgY2M9IjE5Ii8+PFBBUkFNIGlkPSJpX3RpZ2h0IiB2YWx1ZT0iMC41IiBjYz0iMTgiLz48UEFSQU0gaWQ9Imlfc3BlZWQiIHZhbHVlPSIwLjAiIGNjPSItMSIvPjxQQVJBTSBpZD0iaV9yZWxlYXNlIiB2YWx1ZT0iMC41IiBjYz0iMTciLz48UEFSQU0gaWQ9ImlfZXhwcmVzc2lvbiIgdmFsdWU9IjEuMCIgY2M9IjExIi8+PFBBUkFNIGlkPSJpX2R5bmFtaWNzIiB2YWx1ZT0iMS4wIiBjYz0iMSIvPjxQQVJBTSBpZD0iaV92YXJpYXRpb24iIHZhbHVlPSIwLjAiIGNjPSIyMCIvPjxQQVJBTSBpZD0iaV92aWJyYXRvIiB2YWx1ZT0iMS4wIiBjYz0iMjEiLz48UEFSQU0gaWQ9ImlfZW52YXR0IiB2YWx1ZT0iMC43NDk5OTk5NDAzOTUzNTUyIiBjYz0iLTEiLz48UEFSQU0gaWQ9ImlfZW52ZGVjIiB2YWx1ZT0iMC43NSIgY2M9Ii0xIi8+PFBBUkFNIGlkPSJpX2VudnN1cyIgdmFsdWU9IjEuMCIgY2M9Ii0xIi8+PFBBUkFNIGlkPSJpX2VudnJlbCIgdmFsdWU9IjIuMCIgY2M9Ii0xIi8+PFBBUkFNIGlkPSJpX21peHNpbXBsZSIgdmFsdWU9IjAuNSIgY2M9Ii0xIi8+PFBBUkFNIGlkPSJzX2ZsaXAiIHZhbHVlPSIwLjAiIGNjPSItMSIvPjxQQVJBTSBpZD0ic193aWR0aCIgdmFsdWU9IjAuNSIgY2M9Ii0xIi8+PFBBUkFNIGlkPSJzX3BhbiIgdmFsdWU9IjAuNSIgY2M9Ii0xIi8+PFBBUkFNIGlkPSJpX2RlbGF5IiB2YWx1ZT0iMC4wIiBjYz0iLTEiLz48UEFSQU0gaWQ9ImlfYW1vdW50IiB2YWx1ZT0iMC4wIiBjYz0iLTEiLz48UEFSQU0gaWQ9ImlfZGlzdG9ydCIgdmFsdWU9IjAuMCIgY2M9Ii0xIi8+PFBBUkFNIGlkPSJpX2x1c2hWZXJiIiB2YWx1ZT0iMC4wIiBjYz0iLTEiLz48UEFSQU0gaWQ9ImlfcGVkdm9sIiB2YWx1ZT0iMC41IiBjYz0iLTEiLz48UEFSQU0gaWQ9ImlfcGVkRHluIiB2YWx1ZT0iMC41IiBjYz0iLTEiLz48UEFSQU0gaWQ9ImlfbGVuZ3RoIiB2YWx1ZT0iMC4wIiBjYz0iLTEiLz48UEFSQU0gaWQ9ImlfdGltZU1hY2hpbmUiIHZhbHVlPSIwLjAiIGNjPSItMSIvPjxQQVJBTSBpZD0iaV9zdHJldGNoIiB2YWx1ZT0iMC4wIiBjYz0iLTEiLz48UEFSQU0gaWQ9Imlfc29mdFBlZGFsIiB2YWx1ZT0iMC4wIiBjYz0iLTEiLz48UEFSQU0gaWQ9ImlfcmVzcG9uc2UiIHZhbHVlPSIwLjAiIGNjPSItMSIvPjxQQVJBTSBpZD0iaV9tYWxsZXQiIHZhbHVlPSIwLjAiIGNjPSItMSIvPjxQQVJBTSBpZD0iaV9zdG9wZU11dGUiIHZhbHVlPSIwLjAiIGNjPSItMSIvPjxQQVJBTSBpZD0iaV9kaXJlY3Rpb24iIHZhbHVlPSIwLjAiIGNjPSItMSIvPjxQQVJBTSBpZD0iaV9scEZpbHRlciIgdmFsdWU9IjAuMCIgY2M9Ii0xIi8+PFBBUkFNIGlkPSJpX3BvcnRhbWVudG8iIHZhbHVlPSIwLjAiIGNjPSItMSIvPjxQQVJBTSBpZD0iaV9tZXRhWzE4XSIgdmFsdWU9IjAuMCIgY2M9Ii0xIi8+PFBBUkFNIGlkPSJpX21ldGFbMTldIiB2YWx1ZT0iMC4wIiBjYz0iLTEiLz48UEFSQU0gaWQ9ImlfbWV0YVsyMF0iIHZhbHVlPSIwLjAiIGNjPSItMSIvPjxQQVJBTSBpZD0iaV9tZXRhWzIxXSIgdmFsdWU9IjAuMCIgY2M9Ii0xIi8+PFBBUkFNIGlkPSJpX21ldGFbMjJdIiB2YWx1ZT0iMC4wIiBjYz0iLTEiLz48UEFSQU0gaWQ9ImlfbWV0YVsyM10iIHZhbHVlPSIwLjAiIGNjPSItMSIvPjxQQVJBTSBpZD0iaV9tZXRhWzI0XSIgdmFsdWU9IjAuMCIgY2M9Ii0xIi8+PFBBUkFNIGlkPSJpX21ldGFbMjVdIiB2YWx1ZT0iMC4wIiBjYz0iLTEiLz48UEFSQU0gaWQ9ImlfbWV0YVsyNl0iIHZhbHVlPSIwLjAiIGNjPSItMSIvPjxQQVJBTSBpZD0ibV9tYWluIiB2YWx1ZT0iMS4wIiBjYz0iMjIiLz48UEFSQU0gaWQ9Im1fYWx0MSIgdmFsdWU9IjAuMCIgY2M9IjIzIi8+PFBBUkFNIGlkPSJtX2FsdDIiIHZhbHVlPSIwLjAiIGNjPSIyNCIvPjxQQVJBTSBpZD0ibV9hbHQzIiB2YWx1ZT0iMC4wIiBjYz0iMjUiLz48L1BBUkFNRVRFUlM+PC9MYWJzPgA=" guivisible="0" plugin="uservst:LABS (64 Bit).dll" program="0">
              <key/>
            </vestige>
          </instrument>
          <eldata fcut="14000" fres="0.5" fwet="0" ftype="0">
            <elvol lspd="0.1" latt="0" lspd_numerator="4" lspd_syncmode="0" sustain="0.5" hold="0.5" lamt="0" x100="0" att="0" rel="0.1" lpdel="0" userwavefile="" lspd_denominator="4" pdel="0" ctlenvamt="0" amt="0" lshp="0" dec="0.5"/>
            <elcut lspd="0.1" latt="0" lspd_numerator="4" lspd_syncmode="0" sustain="0.5" hold="0.5" lamt="0" x100="0" att="0" rel="0.1" lpdel="0" userwavefile="" lspd_denominator="4" pdel="0" ctlenvamt="0" amt="0" lshp="0" dec="0.5"/>
            <elres lspd="0.1" latt="0" lspd_numerator="4" lspd_syncmode="0" sustain="0.5" hold="0.5" lamt="0" x100="0" att="0" rel="0.1" lpdel="0" userwavefile="" lspd_denominator="4" pdel="0" ctlenvamt="0" amt="0" lshp="0" dec="0.5"/>
          </eldata>
          <chordcreator chord="0" chord-enabled="0" chordrange="1"/>
          <arpeggiator arpcycle="0" arpdir="0" arptime="200" arptime_syncmode="0" arprange="1" arp-enabled="0" arpgate="100" arprepeats="1" arpskip="0" arpmode="0" arp="0" arptime_denominator="4" arpmiss="0" arptime_numerator="4"/>
          <midiport inputcontroller="0" outputprogram="1" outputchannel="1" fixedoutputnote="-1" inputchannel="0" writable="0" fixedoutputvelocity="-1" fixedinputvelocity="-1" basevelocity="63" readable="0" outputcontroller="0"/>
          <fxchain numofeffects="0" enabled="0"/>
        </instrumenttrack>
        <pattern pos="0" steps="16" muted="0" type="1" name="">
          <note vol="47" pos="0" pan="0" key="61" len="767"/>
          <note vol="72" pos="0" pan="0" key="49" len="383"/>
          <note vol="72" pos="0" pan="0" key="42" len="767"/>
          <note vol="72" pos="383" pan="0" key="47" len="384"/>
          <note vol="47" pos="767" pan="0" key="61" len="767"/>
          <note vol="47" pos="767" pan="0" key="50" len="383"/>
          <note vol="72" pos="767" pan="0" key="45" len="383"/>
          <note vol="72" pos="767" pan="0" key="42" len="767"/>
          <note vol="47" pos="1151" pan="0" key="49" len="384"/>
          <note vol="72" pos="1151" pan="0" key="44" len="384"/>
          <note vol="47" pos="1535" pan="0" key="61" len="767"/>
          <note vol="72" pos="1535" pan="0" key="49" len="383"/>
          <note vol="72" pos="1535" pan="0" key="42" len="767"/>
          <note vol="72" pos="1919" pan="0" key="47" len="384"/>
          <note vol="47" pos="2303" pan="0" key="61" len="767"/>
          <note vol="47" pos="2303" pan="0" key="50" len="383"/>
          <note vol="72" pos="2303" pan="0" key="45" len="383"/>
          <note vol="72" pos="2303" pan="0" key="42" len="767"/>
          <note vol="47" pos="2687" pan="0" key="49" len="384"/>
          <note vol="72" pos="2687" pan="0" key="44" len="384"/>
          <note vol="47" pos="3071" pan="0" key="61" len="767"/>
          <note vol="72" pos="3071" pan="0" key="49" len="383"/>
          <note vol="72" pos="3071" pan="0" key="42" len="767"/>
          <note vol="72" pos="3455" pan="0" key="47" len="384"/>
          <note vol="47" pos="3839" pan="0" key="61" len="767"/>
          <note vol="47" pos="3839" pan="0" key="50" len="383"/>
          <note vol="72" pos="3839" pan="0" key="45" len="383"/>
          <note vol="72" pos="3839" pan="0" key="42" len="767"/>
          <note vol="47" pos="4223" pan="0" key="49" len="384"/>
          <note vol="72" pos="4223" pan="0" key="44" len="384"/>
          <note vol="47" pos="4607" pan="0" key="61" len="767"/>
          <note vol="72" pos="4607" pan="0" key="49" len="383"/>
          <note vol="72" pos="4607" pan="0" key="42" len="767"/>
          <note vol="72" pos="4991" pan="0" key="47" len="384"/>
          <note vol="47" pos="5375" pan="0" key="61" len="767"/>
          <note vol="47" pos="5375" pan="0" key="50" len="383"/>
          <note vol="72" pos="5375" pan="0" key="45" len="383"/>
          <note vol="72" pos="5375" pan="0" key="42" len="767"/>
          <note vol="47" pos="5759" pan="0" key="49" len="384"/>
          <note vol="72" pos="5759" pan="0" key="44" len="384"/>
          <note vol="72" pos="6143" pan="0" key="42" len="767"/>
          <note vol="72" pos="6911" pan="0" key="42" len="767"/>
          <note vol="72" pos="7679" pan="0" key="42" len="767"/>
          <note vol="72" pos="8447" pan="0" key="42" len="767"/>
          <note vol="47" pos="9215" pan="0" key="61" len="767"/>
          <note vol="72" pos="9215" pan="0" key="49" len="383"/>
          <note vol="72" pos="9215" pan="0" key="42" len="767"/>
          <note vol="72" pos="9599" pan="0" key="47" len="384"/>
          <note vol="47" pos="9983" pan="0" key="61" len="767"/>
          <note vol="47" pos="9983" pan="0" key="50" len="383"/>
          <note vol="72" pos="9983" pan="0" key="45" len="383"/>
          <note vol="72" pos="9983" pan="0" key="42" len="767"/>
          <note vol="47" pos="10367" pan="0" key="49" len="384"/>
          <note vol="72" pos="10367" pan="0" key="44" len="384"/>
          <note vol="47" pos="10751" pan="0" key="61" len="767"/>
          <note vol="72" pos="10751" pan="0" key="49" len="383"/>
          <note vol="72" pos="10751" pan="0" key="42" len="767"/>
          <note vol="72" pos="11135" pan="0" key="47" len="384"/>
          <note vol="47" pos="11519" pan="0" key="61" len="767"/>
          <note vol="47" pos="11519" pan="0" key="50" len="383"/>
          <note vol="72" pos="11519" pan="0" key="45" len="383"/>
          <note vol="72" pos="11519" pan="0" key="42" len="767"/>
          <note vol="47" pos="11903" pan="0" key="49" len="384"/>
          <note vol="72" pos="11903" pan="0" key="44" len="384"/>
          <note vol="47" pos="12287" pan="0" key="61" len="767"/>
          <note vol="72" pos="12287" pan="0" key="49" len="383"/>
          <note vol="72" pos="12287" pan="0" key="42" len="767"/>
          <note vol="72" pos="12671" pan="0" key="47" len="384"/>
          <note vol="47" pos="13055" pan="0" key="61" len="767"/>
          <note vol="47" pos="13055" pan="0" key="50" len="383"/>
          <note vol="72" pos="13055" pan="0" key="45" len="383"/>
          <note vol="72" pos="13055" pan="0" key="42" len="767"/>
          <note vol="47" pos="13439" pan="0" key="49" len="384"/>
          <note vol="72" pos="13439" pan="0" key="44" len="384"/>
          <note vol="47" pos="13823" pan="0" key="61" len="767"/>
          <note vol="72" pos="13823" pan="0" key="49" len="383"/>
          <note vol="72" pos="13823" pan="0" key="42" len="767"/>
          <note vol="72" pos="14207" pan="0" key="47" len="384"/>
          <note vol="47" pos="14591" pan="0" key="61" len="767"/>
          <note vol="47" pos="14591" pan="0" key="50" len="383"/>
          <note vol="72" pos="14591" pan="0" key="45" len="383"/>
          <note vol="72" pos="14591" pan="0" key="42" len="767"/>
          <note vol="47" pos="14975" pan="0" key="49" len="384"/>
          <note vol="72" pos="14975" pan="0" key="44" len="384"/>
        </pattern>
        <pattern pos="24576" steps="16" muted="0" type="1" name="">
          <note vol="47" pos="0" pan="0" key="61" len="767"/>
          <note vol="72" pos="0" pan="0" key="49" len="383"/>
          <note vol="72" pos="0" pan="0" key="42" len="767"/>
          <note vol="72" pos="383" pan="0" key="47" len="384"/>
          <note vol="47" pos="767" pan="0" key="61" len="767"/>
          <note vol="47" pos="767" pan="0" key="50" len="383"/>
          <note vol="72" pos="767" pan="0" key="45" len="383"/>
          <note vol="72" pos="767" pan="0" key="42" len="767"/>
          <note vol="47" pos="1151" pan="0" key="49" len="384"/>
          <note vol="72" pos="1151" pan="0" key="44" len="384"/>
          <note vol="47" pos="1535" pan="0" key="61" len="767"/>
          <note vol="72" pos="1535" pan="0" key="49" len="383"/>
          <note vol="72" pos="1535" pan="0" key="42" len="767"/>
          <note vol="72" pos="1919" pan="0" key="47" len="384"/>
          <note vol="47" pos="2303" pan="0" key="61" len="767"/>
          <note vol="47" pos="2303" pan="0" key="50" len="383"/>
          <note vol="72" pos="2303" pan="0" key="45" len="383"/>
          <note vol="72" pos="2303" pan="0" key="42" len="767"/>
          <note vol="47" pos="2687" pan="0" key="49" len="384"/>
          <note vol="72" pos="2687" pan="0" key="44" len="384"/>
          <note vol="47" pos="3071" pan="0" key="61" len="767"/>
          <note vol="72" pos="3071" pan="0" key="49" len="383"/>
          <note vol="72" pos="3071" pan="0" key="42" len="767"/>
          <note vol="72" pos="3455" pan="0" key="47" len="384"/>
          <note vol="47" pos="3839" pan="0" key="61" len="767"/>
          <note vol="47" pos="3839" pan="0" key="50" len="383"/>
          <note vol="72" pos="3839" pan="0" key="45" len="383"/>
          <note vol="72" pos="3839" pan="0" key="42" len="767"/>
          <note vol="47" pos="4223" pan="0" key="49" len="384"/>
          <note vol="72" pos="4223" pan="0" key="44" len="384"/>
          <note vol="47" pos="4607" pan="0" key="61" len="767"/>
          <note vol="72" pos="4607" pan="0" key="49" len="383"/>
          <note vol="72" pos="4607" pan="0" key="42" len="767"/>
          <note vol="72" pos="4991" pan="0" key="47" len="384"/>
          <note vol="47" pos="5375" pan="0" key="61" len="767"/>
          <note vol="47" pos="5375" pan="0" key="50" len="383"/>
          <note vol="72" pos="5375" pan="0" key="45" len="383"/>
          <note vol="72" pos="5375" pan="0" key="42" len="767"/>
          <note vol="47" pos="5759" pan="0" key="49" len="384"/>
          <note vol="72" pos="5759" pan="0" key="44" len="384"/>
          <note vol="72" pos="6143" pan="0" key="42" len="767"/>
          <note vol="72" pos="6911" pan="0" key="42" len="767"/>
          <note vol="72" pos="7679" pan="0" key="42" len="767"/>
          <note vol="72" pos="8447" pan="0" key="42" len="767"/>
          <note vol="47" pos="9215" pan="0" key="61" len="767"/>
          <note vol="72" pos="9215" pan="0" key="49" len="383"/>
          <note vol="72" pos="9215" pan="0" key="42" len="767"/>
          <note vol="72" pos="9599" pan="0" key="47" len="384"/>
          <note vol="47" pos="9983" pan="0" key="61" len="767"/>
          <note vol="47" pos="9983" pan="0" key="50" len="383"/>
          <note vol="72" pos="9983" pan="0" key="45" len="383"/>
          <note vol="72" pos="9983" pan="0" key="42" len="767"/>
          <note vol="47" pos="10367" pan="0" key="49" len="384"/>
          <note vol="72" pos="10367" pan="0" key="44" len="384"/>
          <note vol="47" pos="10751" pan="0" key="61" len="767"/>
          <note vol="72" pos="10751" pan="0" key="49" len="383"/>
          <note vol="72" pos="10751" pan="0" key="42" len="767"/>
          <note vol="72" pos="11135" pan="0" key="47" len="384"/>
          <note vol="47" pos="11519" pan="0" key="61" len="767"/>
          <note vol="47" pos="11519" pan="0" key="50" len="383"/>
          <note vol="72" pos="11519" pan="0" key="45" len="383"/>
          <note vol="72" pos="11519" pan="0" key="42" len="767"/>
          <note vol="47" pos="11903" pan="0" key="49" len="384"/>
          <note vol="72" pos="11903" pan="0" key="44" len="384"/>
          <note vol="47" pos="12287" pan="0" key="61" len="767"/>
          <note vol="72" pos="12287" pan="0" key="49" len="383"/>
          <note vol="72" pos="12287" pan="0" key="42" len="767"/>
          <note vol="72" pos="12671" pan="0" key="47" len="384"/>
          <note vol="47" pos="13055" pan="0" key="61" len="767"/>
          <note vol="47" pos="13055" pan="0" key="50" len="383"/>
          <note vol="72" pos="13055" pan="0" key="45" len="383"/>
          <note vol="72" pos="13055" pan="0" key="42" len="767"/>
          <note vol="47" pos="13439" pan="0" key="49" len="384"/>
          <note vol="72" pos="13439" pan="0" key="44" len="384"/>
          <note vol="47" pos="13823" pan="0" key="61" len="767"/>
          <note vol="72" pos="13823" pan="0" key="49" len="383"/>
          <note vol="72" pos="13823" pan="0" key="42" len="767"/>
          <note vol="72" pos="14207" pan="0" key="47" len="384"/>
          <note vol="47" pos="14591" pan="0" key="61" len="767"/>
          <note vol="47" pos="14591" pan="0" key="50" len="383"/>
          <note vol="72" pos="14591" pan="0" key="45" len="383"/>
          <note vol="72" pos="14591" pan="0" key="42" len="767"/>
          <note vol="47" pos="14975" pan="0" key="49" len="384"/>
          <note vol="72" pos="14975" pan="0" key="44" len="384"/>
        </pattern>
        <pattern pos="18432" steps="16" muted="0" type="1" name="">
          <note vol="47" pos="0" pan="0" key="61" len="767"/>
          <note vol="72" pos="0" pan="0" key="49" len="383"/>
          <note vol="72" pos="0" pan="0" key="42" len="767"/>
          <note vol="72" pos="383" pan="0" key="47" len="384"/>
          <note vol="47" pos="767" pan="0" key="61" len="767"/>
          <note vol="47" pos="767" pan="0" key="50" len="383"/>
          <note vol="72" pos="767" pan="0" key="45" len="383"/>
          <note vol="72" pos="767" pan="0" key="42" len="767"/>
          <note vol="47" pos="1151" pan="0" key="49" len="384"/>
          <note vol="72" pos="1151" pan="0" key="44" len="384"/>
          <note vol="47" pos="1535" pan="0" key="61" len="767"/>
          <note vol="72" pos="1535" pan="0" key="49" len="383"/>
          <note vol="72" pos="1535" pan="0" key="42" len="767"/>
          <note vol="72" pos="1919" pan="0" key="47" len="384"/>
          <note vol="47" pos="2303" pan="0" key="61" len="767"/>
          <note vol="47" pos="2303" pan="0" key="50" len="383"/>
          <note vol="72" pos="2303" pan="0" key="45" len="383"/>
          <note vol="72" pos="2303" pan="0" key="42" len="767"/>
          <note vol="47" pos="2687" pan="0" key="49" len="384"/>
          <note vol="72" pos="2687" pan="0" key="44" len="384"/>
        </pattern>
        <pattern pos="21504" steps="16" muted="0" type="1" name="">
          <note vol="47" pos="0" pan="0" key="61" len="767"/>
          <note vol="72" pos="0" pan="0" key="49" len="383"/>
          <note vol="72" pos="0" pan="0" key="42" len="767"/>
          <note vol="72" pos="383" pan="0" key="47" len="384"/>
          <note vol="47" pos="767" pan="0" key="61" len="767"/>
          <note vol="47" pos="767" pan="0" key="50" len="383"/>
          <note vol="72" pos="767" pan="0" key="45" len="383"/>
          <note vol="72" pos="767" pan="0" key="42" len="767"/>
          <note vol="47" pos="1151" pan="0" key="49" len="384"/>
          <note vol="72" pos="1151" pan="0" key="44" len="384"/>
          <note vol="47" pos="1535" pan="0" key="61" len="767"/>
          <note vol="72" pos="1535" pan="0" key="49" len="383"/>
          <note vol="72" pos="1535" pan="0" key="42" len="767"/>
          <note vol="72" pos="1919" pan="0" key="47" len="384"/>
          <note vol="47" pos="2303" pan="0" key="61" len="767"/>
          <note vol="47" pos="2303" pan="0" key="50" len="383"/>
          <note vol="72" pos="2303" pan="0" key="45" len="383"/>
          <note vol="72" pos="2303" pan="0" key="42" len="767"/>
          <note vol="47" pos="2687" pan="0" key="49" len="384"/>
          <note vol="72" pos="2687" pan="0" key="44" len="384"/>
        </pattern>
      </track>
      <track muted="0" type="0" mutedBeforeSolo="0" solo="0" name="Addictive Keys">
        <instrumenttrack vol="132.8" pan="0" fxch="0" lastkey="127" basenote="69" firstkey="0" enablecc="1" pitch="0" pitchrange="2" usemasterpitch="1">
          <midicontrollers cc67="0" cc0="0" cc19="0" cc66="0" cc1="0" cc31="0" cc59="0" cc40="0" cc84="0" cc56="1" cc21="0" cc121="0" cc27="0" cc12="0" cc79="0" cc83="0" cc115="0" cc124="0" cc92="0" cc23="0" cc77="0" cc86="0" cc13="0" cc127="0" cc60="0" cc96="0" cc126="0" cc103="0" cc61="0" cc93="0" cc89="0" cc10="0" cc81="0" cc54="0" cc52="0" cc45="0" cc48="0" cc85="0" cc90="0" cc8="0" cc78="0" cc43="0" cc14="0" cc80="0" cc102="0" cc69="0" cc120="0" cc33="0" cc119="0" cc5="0" cc29="0" cc20="0" cc91="0" cc99="0" cc4="0" cc15="0" cc7="0" cc87="0" cc18="0" cc9="0" cc50="0" cc58="0" cc55="0" cc36="0" cc65="0" cc109="0" cc57="0" cc30="0" cc46="0" cc25="0" cc106="0" cc38="0" cc73="0" cc114="0" cc42="0" cc3="0" cc122="0" cc28="0" cc70="0" cc6="0" cc51="0" cc72="0" cc95="0" cc104="0" cc37="0" cc123="0" cc26="0" cc94="0" cc74="0" cc17="0" cc32="0" cc16="0" cc22="0" cc107="0" cc49="0" cc47="0" cc100="0" cc34="0" cc62="0" cc53="0" cc11="0" cc35="0" cc97="0" cc98="0" cc105="0" cc2="0" cc71="0" cc117="0" cc82="0" cc108="0" cc24="0" cc88="0" cc101="0" cc44="0" cc111="0" cc112="0" cc125="0" cc68="0" cc63="0" cc76="0" cc41="0" cc110="0" cc113="0" cc116="0" cc75="0" cc39="0" cc118="0">
            <cc64 scale_type="linear" value="127" id="35702"/>
          </midicontrollers>
          <instrument name="vestige">
            <vestige chunk="Q09UVEFLU3RhdGVWZXJzaW9uADIAQWR2YW5jZWRHVUlFbmFibGUAMABBdWRpb1BsYXllcl9HYWluADEAQXVkaW9QbGF5ZXJfTG9vcAAwAEF1ZGlvUGxheWVyX1BsYXkAMABEb0xvYWREZWZhdWx0UHJlc2V0ADAARXhwbG9yZUZpbGVBbmRQYXJhbXMAeyBFeHBsb3JlRmlsZSA9ICJNb2Rlcm5VcEFzUmVjb3JkZWQuRXhwbG9yZSIsIFBhcmFtcyA9IHsgRHluYW1pY3JhbmdlID0gMSwgRnggPSAwLjE4NDMzMTgwNDUxMzkzLCBSYXRlc2hpZnQgPSAwLjkwNjAzNDE3MTU4MTI3LCBUb25lID0gMC42ODgxNDM0MzIxNDAzNX19AEV4cGxvcmVXYXJuaW5nVmlzaWJsZQAwAEZYTGF5ZXIxL0NoTWEvRVFfSW5zX0VRX0N1dEhpRnJlcQAxAEZYTGF5ZXIxL0NoTWEvRVFfSW5zX0VRX0N1dEhpUQAwLjUARlhMYXllcjEvQ2hNYS9FUV9JbnNfRVFfQ3V0TG9GcmVxADAARlhMYXllcjEvQ2hNYS9FUV9JbnNfRVFfQ3V0TG9RADAuNQBGWExheWVyMS9DaE1hL0VRX0luc19FUV9FbmFibGUAMABGWExheWVyMS9DaE1hL0VRX0luc19FUV9IaUZyZXEAMC44MDEyMDQ4MDEARlhMYXllcjEvQ2hNYS9FUV9JbnNfRVFfSGlHYWluADAuNQBGWExheWVyMS9DaE1hL0VRX0luc19FUV9IaVEAMC42OTk5OTk5ODgARlhMYXllcjEvQ2hNYS9FUV9JbnNfRVFfTG9GcmVxADAuMTk3NTkwMzUxAEZYTGF5ZXIxL0NoTWEvRVFfSW5zX0VRX0xvR2FpbgAwLjUARlhMYXllcjEvQ2hNYS9FUV9JbnNfRVFfTG9RADAuNjk5OTk5OTg4AEZYTGF5ZXIxL0NoTWEvRVFfSW5zX0VRX01pZEZyZXEAMC41MDA0MDE2NzYARlhMYXllcjEvQ2hNYS9FUV9JbnNfRVFfTWlkR2FpbgAwLjUARlhMYXllcjEvQ2hNYS9FUV9JbnNfRVFfTWlkUQAwLjY5OTk5OTk4OABGWExheWVyMS9DaE1hL0ZpbHRlcl9JbnNfRmlsdGVyX0VuYWJsZQAwAEZYTGF5ZXIxL0NoTWEvRmlsdGVyX0luc19GaWx0ZXJfSGkAMQBGWExheWVyMS9DaE1hL0ZpbHRlcl9JbnNfRmlsdGVyX0xvADAARlhMYXllcjEvQ2hNYS9HVUlNdXRlADAARlhMYXllcjEvQ2hNYS9HVUlTb2xvADAARlhMYXllcjEvQ2hNYS9MZXZlbFNsaWRlcgAwLjc1Nzk4MjMxNABGWExheWVyMS9DaE1hL011bHRpRlgvQ2hvcnVzX0FsdGVybmF0ZQAwAEZYTGF5ZXIxL0NoTWEvTXVsdGlGWC9DaG9ydXNfRGVwdGgAMC41AEZYTGF5ZXIxL0NoTWEvTXVsdGlGWC9DaG9ydXNfRW5hYmxlADEARlhMYXllcjEvQ2hNYS9NdWx0aUZYL0Nob3J1c19GaWx0ZXJIaQAxAEZYTGF5ZXIxL0NoTWEvTXVsdGlGWC9DaG9ydXNfRmlsdGVyTG8AMABGWExheWVyMS9DaE1hL011bHRpRlgvQ2hvcnVzX01peAAwLjUARlhMYXllcjEvQ2hNYS9NdWx0aUZYL0Nob3J1c19SYXRlADAuNQBGWExheWVyMS9DaE1hL011bHRpRlgvQ2hvcnVzX1N0ZXJlb1dpZHRoADAuNQBGWExheWVyMS9DaE1hL011bHRpRlgvQ2hvcnVzX1ZvaWNlcwA1AEZYTGF5ZXIxL0NoTWEvTXVsdGlGWC9DaG9ydXNfWE1vZDJNaXgAMC41AEZYTGF5ZXIxL0NoTWEvTXVsdGlGWC9Db21wRGlzdF9Db21wX0F0dGFjawAwLjIwMDAwMDAwMwBGWExheWVyMS9DaE1hL011bHRpRlgvQ29tcERpc3RfQ29tcF9FbmFibGUAMABGWExheWVyMS9DaE1hL011bHRpRlgvQ29tcERpc3RfQ29tcF9SYXRpbwAwLjUARlhMYXllcjEvQ2hNYS9NdWx0aUZYL0NvbXBEaXN0X0NvbXBfUmVsZWFzZQAwLjIwMDAwMDAwMwBGWExheWVyMS9DaE1hL011bHRpRlgvQ29tcERpc3RfQ29tcF9UaHJlc2hvbGQAMC41AEZYTGF5ZXIxL0NoTWEvTXVsdGlGWC9Db21wRGlzdF9EaXN0X0Ftb3VudAAwLjUARlhMYXllcjEvQ2hNYS9NdWx0aUZYL0NvbXBEaXN0X0Rpc3RfRW5hYmxlADAARlhMYXllcjEvQ2hNYS9NdWx0aUZYL0NvbXBEaXN0X0Rpc3RfRnJlcUhpADEARlhMYXllcjEvQ2hNYS9NdWx0aUZYL0NvbXBEaXN0X0Rpc3RfRnJlcUxvADAARlhMYXllcjEvQ2hNYS9NdWx0aUZYL0NvbXBEaXN0X0Rpc3RfTWl4ADAuNQBGWExheWVyMS9DaE1hL011bHRpRlgvQ29tcERpc3RfRGlzdF9UeXBlADUARlhMYXllcjEvQ2hNYS9NdWx0aUZYL0N1cnJlbnRTZWxlY3Rpb24AQ29tcABGWExheWVyMS9DaE1hL011bHRpRlgvRW5hYmxlADAARlhMYXllcjEvQ2hNYS9NdWx0aUZYL1BoYXNlcl9FbmFibGUAMQBGWExheWVyMS9DaE1hL011bHRpRlgvUGhhc2VyX0ZlZWRiYWNrADAuNQBGWExheWVyMS9DaE1hL011bHRpRlgvUGhhc2VyX0xldmVsADAuNQBGWExheWVyMS9DaE1hL011bHRpRlgvUGhhc2VyX01vZERlcHRoADAuNQBGWExheWVyMS9DaE1hL011bHRpRlgvUGhhc2VyX01vZFJhdGUAMC41AEZYTGF5ZXIxL0NoTWEvTXVsdGlGWC9QaGFzZXJfTW9kU2hhcGUAMABGWExheWVyMS9DaE1hL011bHRpRlgvUGhhc2VyX01vZFNoYXBlSW52ZXJ0ADAARlhMYXllcjEvQ2hNYS9NdWx0aUZYL1BoYXNlcl9Nb2RTdGVyZW8AMQBGWExheWVyMS9DaE1hL011bHRpRlgvUGhhc2VyX1BoYXNlADAuNQBGWExheWVyMS9DaE1hL011bHRpRlgvUGhhc2VyX1N0YWdlcwAxMgBGWExheWVyMS9DaE1hL011bHRpRlgvUGhhc2VyX1RlbXBvU3luYwAwAEZYTGF5ZXIxL0NoTWEvTXVsdGlGWC9QaGFzZXJfWE1vZDJGZWVkYmFjawAwLjUARlhMYXllcjEvQ2hNYS9NdWx0aUZYL1BoYXNlcl9YTW9kMkxldmVsADAuNQBGWExheWVyMS9DaE1hL011bHRpRlgvVHJlbW9sb19EZXB0aAAwLjUARlhMYXllcjEvQ2hNYS9NdWx0aUZYL1RyZW1vbG9fRW5hYmxlADEARlhMYXllcjEvQ2hNYS9NdWx0aUZYL1RyZW1vbG9fRmlsdGVyQ3V0b2ZmADAuNQBGWExheWVyMS9DaE1hL011bHRpRlgvVHJlbW9sb19GaWx0ZXJEZXB0aAAwLjUARlhMYXllcjEvQ2hNYS9NdWx0aUZYL1RyZW1vbG9fRmlsdGVyRW5hYmxlADAARlhMYXllcjEvQ2hNYS9NdWx0aUZYL1RyZW1vbG9fUGFubmVyRGVwdGgAMC41AEZYTGF5ZXIxL0NoTWEvTXVsdGlGWC9UcmVtb2xvX1JhdGUAMC40MDAwMDAwMDYARlhMYXllcjEvQ2hNYS9NdWx0aUZYL1RyZW1vbG9fU2hhcGUAMABGWExheWVyMS9DaE1hL011bHRpRlgvVHJlbW9sb19TaGFwZUludmVydAAwAEZYTGF5ZXIxL0NoTWEvTXVsdGlGWC9UcmVtb2xvX1RlbXBvU3luYwAwAEZYTGF5ZXIxL0NoTWEvTXVsdGlGWC9UcmVtb2xvX1hNb2QyRGVwdGgAMC41AEZYTGF5ZXIxL0NoTWEvTXVsdGlGWC9UcmVtb2xvX1hNb2QyRmlsdGVyQ3V0b2ZmADAuNQBGWExheWVyMS9DaE1hL011bHRpRlgvVHJlbW9sb19YTW9kMkZpbHRlckRlcHRoADAuNQBGWExheWVyMS9DaE1hL011bHRpRlgvVHJlbW9sb19YTW9kMlBhbm5lckRlcHRoADAuNQBGWExheWVyMS9DaE1hL011bHRpRlhQcmUvQ2hvcnVzX0FsdGVybmF0ZQAwAEZYTGF5ZXIxL0NoTWEvTXVsdGlGWFByZS9DaG9ydXNfRGVwdGgAMC41AEZYTGF5ZXIxL0NoTWEvTXVsdGlGWFByZS9DaG9ydXNfRW5hYmxlADEARlhMYXllcjEvQ2hNYS9NdWx0aUZYUHJlL0Nob3J1c19GaWx0ZXJIaQAxAEZYTGF5ZXIxL0NoTWEvTXVsdGlGWFByZS9DaG9ydXNfRmlsdGVyTG8AMABGWExheWVyMS9DaE1hL011bHRpRlhQcmUvQ2hvcnVzX01peAAwLjUARlhMYXllcjEvQ2hNYS9NdWx0aUZYUHJlL0Nob3J1c19SYXRlADAuNQBGWExheWVyMS9DaE1hL011bHRpRlhQcmUvQ2hvcnVzX1N0ZXJlb1dpZHRoADAuNQBGWExheWVyMS9DaE1hL011bHRpRlhQcmUvQ2hvcnVzX1ZvaWNlcwA1AEZYTGF5ZXIxL0NoTWEvTXVsdGlGWFByZS9DaG9ydXNfWE1vZDJNaXgAMC41AEZYTGF5ZXIxL0NoTWEvTXVsdGlGWFByZS9Db21wRGlzdF9Db21wX0F0dGFjawAwLjIwMDAwMDAwMwBGWExheWVyMS9DaE1hL011bHRpRlhQcmUvQ29tcERpc3RfQ29tcF9FbmFibGUAMABGWExheWVyMS9DaE1hL011bHRpRlhQcmUvQ29tcERpc3RfQ29tcF9SYXRpbwAwLjUARlhMYXllcjEvQ2hNYS9NdWx0aUZYUHJlL0NvbXBEaXN0X0NvbXBfUmVsZWFzZQAwLjIwMDAwMDAwMwBGWExheWVyMS9DaE1hL011bHRpRlhQcmUvQ29tcERpc3RfQ29tcF9UaHJlc2hvbGQAMC41AEZYTGF5ZXIxL0NoTWEvTXVsdGlGWFByZS9Db21wRGlzdF9EaXN0X0Ftb3VudAAwLjUARlhMYXllcjEvQ2hNYS9NdWx0aUZYUHJlL0NvbXBEaXN0X0Rpc3RfRW5hYmxlADAARlhMYXllcjEvQ2hNYS9NdWx0aUZYUHJlL0NvbXBEaXN0X0Rpc3RfRnJlcUhpADEARlhMYXllcjEvQ2hNYS9NdWx0aUZYUHJlL0NvbXBEaXN0X0Rpc3RfRnJlcUxvADAARlhMYXllcjEvQ2hNYS9NdWx0aUZYUHJlL0NvbXBEaXN0X0Rpc3RfTWl4ADAuNQBGWExheWVyMS9DaE1hL011bHRpRlhQcmUvQ29tcERpc3RfRGlzdF9UeXBlADUARlhMYXllcjEvQ2hNYS9NdWx0aUZYUHJlL0N1cnJlbnRTZWxlY3Rpb24AUGhhc2VyAEZYTGF5ZXIxL0NoTWEvTXVsdGlGWFByZS9FbmFibGUAMABGWExheWVyMS9DaE1hL011bHRpRlhQcmUvUGhhc2VyX0VuYWJsZQAxAEZYTGF5ZXIxL0NoTWEvTXVsdGlGWFByZS9QaGFzZXJfRmVlZGJhY2sAMC41AEZYTGF5ZXIxL0NoTWEvTXVsdGlGWFByZS9QaGFzZXJfTGV2ZWwAMC41AEZYTGF5ZXIxL0NoTWEvTXVsdGlGWFByZS9QaGFzZXJfTW9kRGVwdGgAMC41AEZYTGF5ZXIxL0NoTWEvTXVsdGlGWFByZS9QaGFzZXJfTW9kUmF0ZQAwLjUARlhMYXllcjEvQ2hNYS9NdWx0aUZYUHJlL1BoYXNlcl9Nb2RTaGFwZQAwAEZYTGF5ZXIxL0NoTWEvTXVsdGlGWFByZS9QaGFzZXJfTW9kU2hhcGVJbnZlcnQAMABGWExheWVyMS9DaE1hL011bHRpRlhQcmUvUGhhc2VyX01vZFN0ZXJlbwAxAEZYTGF5ZXIxL0NoTWEvTXVsdGlGWFByZS9QaGFzZXJfUGhhc2UAMC41AEZYTGF5ZXIxL0NoTWEvTXVsdGlGWFByZS9QaGFzZXJfU3RhZ2VzADEyAEZYTGF5ZXIxL0NoTWEvTXVsdGlGWFByZS9QaGFzZXJfVGVtcG9TeW5jADAARlhMYXllcjEvQ2hNYS9NdWx0aUZYUHJlL1BoYXNlcl9YTW9kMkZlZWRiYWNrADAuNQBGWExheWVyMS9DaE1hL011bHRpRlhQcmUvUGhhc2VyX1hNb2QyTGV2ZWwAMC41AEZYTGF5ZXIxL0NoTWEvTXVsdGlGWFByZS9UcmVtb2xvX0RlcHRoADAuNQBGWExheWVyMS9DaE1hL011bHRpRlhQcmUvVHJlbW9sb19FbmFibGUAMQBGWExheWVyMS9DaE1hL011bHRpRlhQcmUvVHJlbW9sb19GaWx0ZXJDdXRvZmYAMC41AEZYTGF5ZXIxL0NoTWEvTXVsdGlGWFByZS9UcmVtb2xvX0ZpbHRlckRlcHRoADAuNQBGWExheWVyMS9DaE1hL011bHRpRlhQcmUvVHJlbW9sb19GaWx0ZXJFbmFibGUAMABGWExheWVyMS9DaE1hL011bHRpRlhQcmUvVHJlbW9sb19QYW5uZXJEZXB0aAAwLjUARlhMYXllcjEvQ2hNYS9NdWx0aUZYUHJlL1RyZW1vbG9fUmF0ZQAwLjQwMDAwMDAwNgBGWExheWVyMS9DaE1hL011bHRpRlhQcmUvVHJlbW9sb19TaGFwZQAwAEZYTGF5ZXIxL0NoTWEvTXVsdGlGWFByZS9UcmVtb2xvX1NoYXBlSW52ZXJ0ADAARlhMYXllcjEvQ2hNYS9NdWx0aUZYUHJlL1RyZW1vbG9fVGVtcG9TeW5jADAARlhMYXllcjEvQ2hNYS9NdWx0aUZYUHJlL1RyZW1vbG9fWE1vZDJEZXB0aAAwLjUARlhMYXllcjEvQ2hNYS9NdWx0aUZYUHJlL1RyZW1vbG9fWE1vZDJGaWx0ZXJDdXRvZmYAMC41AEZYTGF5ZXIxL0NoTWEvTXVsdGlGWFByZS9UcmVtb2xvX1hNb2QyRmlsdGVyRGVwdGgAMC41AEZYTGF5ZXIxL0NoTWEvTXVsdGlGWFByZS9UcmVtb2xvX1hNb2QyUGFubmVyRGVwdGgAMC41AEZYTGF5ZXIxL0NoTWEvTm9pc2VfRGVjYXlUaW1lADAuNQBGWExheWVyMS9DaE1hL05vaXNlX0VuYWJsZQAwAEZYTGF5ZXIxL0NoTWEvTm9pc2VfR2F0ZUxldmVsADAuNDQ5OTk5OTg4AEZYTGF5ZXIxL0NoTWEvTm9pc2VfTWlkaVRyaWdnZXIAMQBGWExheWVyMS9DaE1hL05vaXNlX05vaXNlTGV2ZWwAMC41AEZYTGF5ZXIxL0NoTWEvTm9pc2VfTm9pc2VUeXBlADAARlhMYXllcjEvQ2hNYS9QYW5fUGFuADAuNQBGWExheWVyMS9DaE1hL1Bhbl9XaWR0aAAwAEZYTGF5ZXIxL0ZYMS9FUV9JbnNfRVFfQ3V0SGlGcmVxADEARlhMYXllcjEvRlgxL0VRX0luc19FUV9DdXRIaVEAMC41AEZYTGF5ZXIxL0ZYMS9FUV9JbnNfRVFfQ3V0TG9GcmVxADAARlhMYXllcjEvRlgxL0VRX0luc19FUV9DdXRMb1EAMC41AEZYTGF5ZXIxL0ZYMS9FUV9JbnNfRVFfRW5hYmxlADAARlhMYXllcjEvRlgxL0VRX0luc19FUV9IaUZyZXEAMC44MDEyMDQ4MDEARlhMYXllcjEvRlgxL0VRX0luc19FUV9IaUdhaW4AMC41AEZYTGF5ZXIxL0ZYMS9FUV9JbnNfRVFfSGlRADAuNjk5OTk5OTg4AEZYTGF5ZXIxL0ZYMS9FUV9JbnNfRVFfTG9GcmVxADAuMTk3NTkwMzUxAEZYTGF5ZXIxL0ZYMS9FUV9JbnNfRVFfTG9HYWluADAuNQBGWExheWVyMS9GWDEvRVFfSW5zX0VRX0xvUQAwLjY5OTk5OTk4OABGWExheWVyMS9GWDEvRVFfSW5zX0VRX01pZEZyZXEAMC41MDA0MDE2NzYARlhMYXllcjEvRlgxL0VRX0luc19FUV9NaWRHYWluADAuNQBGWExheWVyMS9GWDEvRVFfSW5zX0VRX01pZFEAMC42OTk5OTk5ODgARlhMYXllcjEvRlgxL0dVSU11dGUAMABGWExheWVyMS9GWDEvR1VJU29sbwAwAEZYTGF5ZXIxL0ZYMS9MZXZlbFNsaWRlcgAwLjg0OTgxOTA2NABGWExheWVyMS9GWDEvTXVsdGlGWC9DaG9ydXNfQWx0ZXJuYXRlADAARlhMYXllcjEvRlgxL011bHRpRlgvQ2hvcnVzX0RlcHRoADAuNQBGWExheWVyMS9GWDEvTXVsdGlGWC9DaG9ydXNfRW5hYmxlADEARlhMYXllcjEvRlgxL011bHRpRlgvQ2hvcnVzX0ZpbHRlckhpADEARlhMYXllcjEvRlgxL011bHRpRlgvQ2hvcnVzX0ZpbHRlckxvADAARlhMYXllcjEvRlgxL011bHRpRlgvQ2hvcnVzX01peAAwLjUARlhMYXllcjEvRlgxL011bHRpRlgvQ2hvcnVzX1JhdGUAMC41AEZYTGF5ZXIxL0ZYMS9NdWx0aUZYL0Nob3J1c19TdGVyZW9XaWR0aAAwLjUARlhMYXllcjEvRlgxL011bHRpRlgvQ2hvcnVzX1ZvaWNlcwA1AEZYTGF5ZXIxL0ZYMS9NdWx0aUZYL0Nob3J1c19YTW9kMk1peAAwLjUARlhMYXllcjEvRlgxL011bHRpRlgvQ29tcERpc3RfQ29tcF9BdHRhY2sAMC4yMDAwMDAwMDMARlhMYXllcjEvRlgxL011bHRpRlgvQ29tcERpc3RfQ29tcF9FbmFibGUAMABGWExheWVyMS9GWDEvTXVsdGlGWC9Db21wRGlzdF9Db21wX1JhdGlvADAuNQBGWExheWVyMS9GWDEvTXVsdGlGWC9Db21wRGlzdF9Db21wX1JlbGVhc2UAMC4yMDAwMDAwMDMARlhMYXllcjEvRlgxL011bHRpRlgvQ29tcERpc3RfQ29tcF9UaHJlc2hvbGQAMC41AEZYTGF5ZXIxL0ZYMS9NdWx0aUZYL0NvbXBEaXN0X0Rpc3RfQW1vdW50ADAuNQBGWExheWVyMS9GWDEvTXVsdGlGWC9Db21wRGlzdF9EaXN0X0VuYWJsZQAwAEZYTGF5ZXIxL0ZYMS9NdWx0aUZYL0NvbXBEaXN0X0Rpc3RfRnJlcUhpADEARlhMYXllcjEvRlgxL011bHRpRlgvQ29tcERpc3RfRGlzdF9GcmVxTG8AMABGWExheWVyMS9GWDEvTXVsdGlGWC9Db21wRGlzdF9EaXN0X01peAAwLjUARlhMYXllcjEvRlgxL011bHRpRlgvQ29tcERpc3RfRGlzdF9UeXBlADUARlhMYXllcjEvRlgxL011bHRpRlgvQ3VycmVudFNlbGVjdGlvbgBDaG9ydXMARlhMYXllcjEvRlgxL011bHRpRlgvRW5hYmxlADAARlhMYXllcjEvRlgxL011bHRpRlgvUGhhc2VyX0VuYWJsZQAxAEZYTGF5ZXIxL0ZYMS9NdWx0aUZYL1BoYXNlcl9GZWVkYmFjawAwLjUARlhMYXllcjEvRlgxL011bHRpRlgvUGhhc2VyX0xldmVsADAuNQBGWExheWVyMS9GWDEvTXVsdGlGWC9QaGFzZXJfTW9kRGVwdGgAMC41AEZYTGF5ZXIxL0ZYMS9NdWx0aUZYL1BoYXNlcl9Nb2RSYXRlADAuNQBGWExheWVyMS9GWDEvTXVsdGlGWC9QaGFzZXJfTW9kU2hhcGUAMABGWExheWVyMS9GWDEvTXVsdGlGWC9QaGFzZXJfTW9kU2hhcGVJbnZlcnQAMABGWExheWVyMS9GWDEvTXVsdGlGWC9QaGFzZXJfTW9kU3RlcmVvADEARlhMYXllcjEvRlgxL011bHRpRlgvUGhhc2VyX1BoYXNlADAuNQBGWExheWVyMS9GWDEvTXVsdGlGWC9QaGFzZXJfU3RhZ2VzADEyAEZYTGF5ZXIxL0ZYMS9NdWx0aUZYL1BoYXNlcl9UZW1wb1N5bmMAMABGWExheWVyMS9GWDEvTXVsdGlGWC9QaGFzZXJfWE1vZDJGZWVkYmFjawAwLjUARlhMYXllcjEvRlgxL011bHRpRlgvUGhhc2VyX1hNb2QyTGV2ZWwAMC41AEZYTGF5ZXIxL0ZYMS9NdWx0aUZYL1RyZW1vbG9fRGVwdGgAMC41AEZYTGF5ZXIxL0ZYMS9NdWx0aUZYL1RyZW1vbG9fRW5hYmxlADEARlhMYXllcjEvRlgxL011bHRpRlgvVHJlbW9sb19GaWx0ZXJDdXRvZmYAMC41AEZYTGF5ZXIxL0ZYMS9NdWx0aUZYL1RyZW1vbG9fRmlsdGVyRGVwdGgAMC41AEZYTGF5ZXIxL0ZYMS9NdWx0aUZYL1RyZW1vbG9fRmlsdGVyRW5hYmxlADAARlhMYXllcjEvRlgxL011bHRpRlgvVHJlbW9sb19QYW5uZXJEZXB0aAAwLjUARlhMYXllcjEvRlgxL011bHRpRlgvVHJlbW9sb19SYXRlADAuNDAwMDAwMDA2AEZYTGF5ZXIxL0ZYMS9NdWx0aUZYL1RyZW1vbG9fU2hhcGUAMABGWExheWVyMS9GWDEvTXVsdGlGWC9UcmVtb2xvX1NoYXBlSW52ZXJ0ADAARlhMYXllcjEvRlgxL011bHRpRlgvVHJlbW9sb19UZW1wb1N5bmMAMABGWExheWVyMS9GWDEvTXVsdGlGWC9UcmVtb2xvX1hNb2QyRGVwdGgAMC41AEZYTGF5ZXIxL0ZYMS9NdWx0aUZYL1RyZW1vbG9fWE1vZDJGaWx0ZXJDdXRvZmYAMC41AEZYTGF5ZXIxL0ZYMS9NdWx0aUZYL1RyZW1vbG9fWE1vZDJGaWx0ZXJEZXB0aAAwLjUARlhMYXllcjEvRlgxL011bHRpRlgvVHJlbW9sb19YTW9kMlBhbm5lckRlcHRoADAuNQBGWExheWVyMS9GWDEvTXVsdGlGWEluc3RyL0N1cnJlbnRTZWxlY3Rpb24AUmVzbzEyAEZYTGF5ZXIxL0ZYMS9NdWx0aUZYSW5zdHIvRW5hYmxlADEARlhMYXllcjEvRlgxL011bHRpRlhQcmUvQ2hvcnVzX0FsdGVybmF0ZQAwAEZYTGF5ZXIxL0ZYMS9NdWx0aUZYUHJlL0Nob3J1c19EZXB0aAAwLjUARlhMYXllcjEvRlgxL011bHRpRlhQcmUvQ2hvcnVzX0VuYWJsZQAxAEZYTGF5ZXIxL0ZYMS9NdWx0aUZYUHJlL0Nob3J1c19GaWx0ZXJIaQAxAEZYTGF5ZXIxL0ZYMS9NdWx0aUZYUHJlL0Nob3J1c19GaWx0ZXJMbwAwAEZYTGF5ZXIxL0ZYMS9NdWx0aUZYUHJlL0Nob3J1c19NaXgAMC41AEZYTGF5ZXIxL0ZYMS9NdWx0aUZYUHJlL0Nob3J1c19SYXRlADAuNQBGWExheWVyMS9GWDEvTXVsdGlGWFByZS9DaG9ydXNfU3RlcmVvV2lkdGgAMC41AEZYTGF5ZXIxL0ZYMS9NdWx0aUZYUHJlL0Nob3J1c19Wb2ljZXMANQBGWExheWVyMS9GWDEvTXVsdGlGWFByZS9DaG9ydXNfWE1vZDJNaXgAMC41AEZYTGF5ZXIxL0ZYMS9NdWx0aUZYUHJlL0NvbXBEaXN0X0NvbXBfQXR0YWNrADAuMjAwMDAwMDAzAEZYTGF5ZXIxL0ZYMS9NdWx0aUZYUHJlL0NvbXBEaXN0X0NvbXBfRW5hYmxlADAARlhMYXllcjEvRlgxL011bHRpRlhQcmUvQ29tcERpc3RfQ29tcF9SYXRpbwAwLjUARlhMYXllcjEvRlgxL011bHRpRlhQcmUvQ29tcERpc3RfQ29tcF9SZWxlYXNlADAuMjAwMDAwMDAzAEZYTGF5ZXIxL0ZYMS9NdWx0aUZYUHJlL0NvbXBEaXN0X0NvbXBfVGhyZXNob2xkADAuNQBGWExheWVyMS9GWDEvTXVsdGlGWFByZS9Db21wRGlzdF9EaXN0X0Ftb3VudAAwLjUARlhMYXllcjEvRlgxL011bHRpRlhQcmUvQ29tcERpc3RfRGlzdF9FbmFibGUAMABGWExheWVyMS9GWDEvTXVsdGlGWFByZS9Db21wRGlzdF9EaXN0X0ZyZXFIaQAxAEZYTGF5ZXIxL0ZYMS9NdWx0aUZYUHJlL0NvbXBEaXN0X0Rpc3RfRnJlcUxvADAARlhMYXllcjEvRlgxL011bHRpRlhQcmUvQ29tcERpc3RfRGlzdF9NaXgAMC41AEZYTGF5ZXIxL0ZYMS9NdWx0aUZYUHJlL0NvbXBEaXN0X0Rpc3RfVHlwZQA1AEZYTGF5ZXIxL0ZYMS9NdWx0aUZYUHJlL0N1cnJlbnRTZWxlY3Rpb24AVHJlbW9sbwBGWExheWVyMS9GWDEvTXVsdGlGWFByZS9FbmFibGUAMABGWExheWVyMS9GWDEvTXVsdGlGWFByZS9QaGFzZXJfRW5hYmxlADEARlhMYXllcjEvRlgxL011bHRpRlhQcmUvUGhhc2VyX0ZlZWRiYWNrADAuNQBGWExheWVyMS9GWDEvTXVsdGlGWFByZS9QaGFzZXJfTGV2ZWwAMC41AEZYTGF5ZXIxL0ZYMS9NdWx0aUZYUHJlL1BoYXNlcl9Nb2REZXB0aAAwLjUARlhMYXllcjEvRlgxL011bHRpRlhQcmUvUGhhc2VyX01vZFJhdGUAMC41AEZYTGF5ZXIxL0ZYMS9NdWx0aUZYUHJlL1BoYXNlcl9Nb2RTaGFwZQAwAEZYTGF5ZXIxL0ZYMS9NdWx0aUZYUHJlL1BoYXNlcl9Nb2RTaGFwZUludmVydAAwAEZYTGF5ZXIxL0ZYMS9NdWx0aUZYUHJlL1BoYXNlcl9Nb2RTdGVyZW8AMQBGWExheWVyMS9GWDEvTXVsdGlGWFByZS9QaGFzZXJfUGhhc2UAMC41AEZYTGF5ZXIxL0ZYMS9NdWx0aUZYUHJlL1BoYXNlcl9TdGFnZXMAMTIARlhMYXllcjEvRlgxL011bHRpRlhQcmUvUGhhc2VyX1RlbXBvU3luYwAwAEZYTGF5ZXIxL0ZYMS9NdWx0aUZYUHJlL1BoYXNlcl9YTW9kMkZlZWRiYWNrADAuNQBGWExheWVyMS9GWDEvTXVsdGlGWFByZS9QaGFzZXJfWE1vZDJMZXZlbAAwLjUARlhMYXllcjEvRlgxL011bHRpRlhQcmUvVHJlbW9sb19EZXB0aAAwLjUARlhMYXllcjEvRlgxL011bHRpRlhQcmUvVHJlbW9sb19FbmFibGUAMQBGWExheWVyMS9GWDEvTXVsdGlGWFByZS9UcmVtb2xvX0ZpbHRlckN1dG9mZgAwLjUARlhMYXllcjEvRlgxL011bHRpRlhQcmUvVHJlbW9sb19GaWx0ZXJEZXB0aAAwLjUARlhMYXllcjEvRlgxL011bHRpRlhQcmUvVHJlbW9sb19GaWx0ZXJFbmFibGUAMABGWExheWVyMS9GWDEvTXVsdGlGWFByZS9UcmVtb2xvX1Bhbm5lckRlcHRoADAuNQBGWExheWVyMS9GWDEvTXVsdGlGWFByZS9UcmVtb2xvX1JhdGUAMC40MDAwMDAwMDYARlhMYXllcjEvRlgxL011bHRpRlhQcmUvVHJlbW9sb19TaGFwZQAwAEZYTGF5ZXIxL0ZYMS9NdWx0aUZYUHJlL1RyZW1vbG9fU2hhcGVJbnZlcnQAMABGWExheWVyMS9GWDEvTXVsdGlGWFByZS9UcmVtb2xvX1RlbXBvU3luYwAwAEZYTGF5ZXIxL0ZYMS9NdWx0aUZYUHJlL1RyZW1vbG9fWE1vZDJEZXB0aAAwLjUARlhMYXllcjEvRlgxL011bHRpRlhQcmUvVHJlbW9sb19YTW9kMkZpbHRlckN1dG9mZgAwLjUARlhMYXllcjEvRlgxL011bHRpRlhQcmUvVHJlbW9sb19YTW9kMkZpbHRlckRlcHRoADAuNQBGWExheWVyMS9GWDEvTXVsdGlGWFByZS9UcmVtb2xvX1hNb2QyUGFubmVyRGVwdGgAMC41AEZYTGF5ZXIxL0ZYMS9Ob2lzZV9EZWNheVRpbWUAMC41AEZYTGF5ZXIxL0ZYMS9Ob2lzZV9FbmFibGUAMABGWExheWVyMS9GWDEvTm9pc2VfR2F0ZUxldmVsADAuNDQ5OTk5OTg4AEZYTGF5ZXIxL0ZYMS9Ob2lzZV9NaWRpVHJpZ2dlcgAxAEZYTGF5ZXIxL0ZYMS9Ob2lzZV9Ob2lzZUxldmVsADAuNQBGWExheWVyMS9GWDEvTm9pc2VfTm9pc2VUeXBlADAARlhMYXllcjEvRlgxL1Bhbl9QYW4AMC41AEZYTGF5ZXIxL0ZYMS9QYW5fV2lkdGgAMABGWExheWVyMS9GWDEvU2VuZDFLbm9iADAARlhMYXllcjEvRlgxL1NlbmQyS25vYgAwAEZYTGF5ZXIxL0ZYMS9Tb3VyY2VDaGFubmVsADcARlhMYXllcjEvRlgyL0VRX0luc19FUV9DdXRIaUZyZXEAMQBGWExheWVyMS9GWDIvRVFfSW5zX0VRX0N1dEhpUQAwLjUARlhMYXllcjEvRlgyL0VRX0luc19FUV9DdXRMb0ZyZXEAMABGWExheWVyMS9GWDIvRVFfSW5zX0VRX0N1dExvUQAwLjUARlhMYXllcjEvRlgyL0VRX0luc19FUV9FbmFibGUAMABGWExheWVyMS9GWDIvRVFfSW5zX0VRX0hpRnJlcQAwLjgwMTIwNDgwMQBGWExheWVyMS9GWDIvRVFfSW5zX0VRX0hpR2FpbgAwLjUARlhMYXllcjEvRlgyL0VRX0luc19FUV9IaVEAMC42OTk5OTk5ODgARlhMYXllcjEvRlgyL0VRX0luc19FUV9Mb0ZyZXEAMC4xOTc1OTAzNTEARlhMYXllcjEvRlgyL0VRX0luc19FUV9Mb0dhaW4AMC41AEZYTGF5ZXIxL0ZYMi9FUV9JbnNfRVFfTG9RADAuNjk5OTk5OTg4AEZYTGF5ZXIxL0ZYMi9FUV9JbnNfRVFfTWlkRnJlcQAwLjUwMDQwMTY3NgBGWExheWVyMS9GWDIvRVFfSW5zX0VRX01pZEdhaW4AMC41AEZYTGF5ZXIxL0ZYMi9FUV9JbnNfRVFfTWlkUQAwLjY5OTk5OTk4OABGWExheWVyMS9GWDIvR1VJTXV0ZQAwAEZYTGF5ZXIxL0ZYMi9HVUlTb2xvADAARlhMYXllcjEvRlgyL0xldmVsU2xpZGVyADAuODQyNDcyMTM2AEZYTGF5ZXIxL0ZYMi9NdWx0aUZYL0Nob3J1c19BbHRlcm5hdGUAMABGWExheWVyMS9GWDIvTXVsdGlGWC9DaG9ydXNfRGVwdGgAMC41AEZYTGF5ZXIxL0ZYMi9NdWx0aUZYL0Nob3J1c19FbmFibGUAMQBGWExheWVyMS9GWDIvTXVsdGlGWC9DaG9ydXNfRmlsdGVySGkAMQBGWExheWVyMS9GWDIvTXVsdGlGWC9DaG9ydXNfRmlsdGVyTG8AMABGWExheWVyMS9GWDIvTXVsdGlGWC9DaG9ydXNfTWl4ADAuNQBGWExheWVyMS9GWDIvTXVsdGlGWC9DaG9ydXNfUmF0ZQAwLjUARlhMYXllcjEvRlgyL011bHRpRlgvQ2hvcnVzX1N0ZXJlb1dpZHRoADAuNQBGWExheWVyMS9GWDIvTXVsdGlGWC9DaG9ydXNfVm9pY2VzADUARlhMYXllcjEvRlgyL011bHRpRlgvQ2hvcnVzX1hNb2QyTWl4ADAuNQBGWExheWVyMS9GWDIvTXVsdGlGWC9Db21wRGlzdF9Db21wX0F0dGFjawAwLjIwMDAwMDAwMwBGWExheWVyMS9GWDIvTXVsdGlGWC9Db21wRGlzdF9Db21wX0VuYWJsZQAwAEZYTGF5ZXIxL0ZYMi9NdWx0aUZYL0NvbXBEaXN0X0NvbXBfUmF0aW8AMC41AEZYTGF5ZXIxL0ZYMi9NdWx0aUZYL0NvbXBEaXN0X0NvbXBfUmVsZWFzZQAwLjIwMDAwMDAwMwBGWExheWVyMS9GWDIvTXVsdGlGWC9Db21wRGlzdF9Db21wX1RocmVzaG9sZAAwLjUARlhMYXllcjEvRlgyL011bHRpRlgvQ29tcERpc3RfRGlzdF9BbW91bnQAMC41AEZYTGF5ZXIxL0ZYMi9NdWx0aUZYL0NvbXBEaXN0X0Rpc3RfRW5hYmxlADAARlhMYXllcjEvRlgyL011bHRpRlgvQ29tcERpc3RfRGlzdF9GcmVxSGkAMQBGWExheWVyMS9GWDIvTXVsdGlGWC9Db21wRGlzdF9EaXN0X0ZyZXFMbwAwAEZYTGF5ZXIxL0ZYMi9NdWx0aUZYL0NvbXBEaXN0X0Rpc3RfTWl4ADAuNQBGWExheWVyMS9GWDIvTXVsdGlGWC9Db21wRGlzdF9EaXN0X1R5cGUANQBGWExheWVyMS9GWDIvTXVsdGlGWC9DdXJyZW50U2VsZWN0aW9uAENob3J1cwBGWExheWVyMS9GWDIvTXVsdGlGWC9FbmFibGUAMABGWExheWVyMS9GWDIvTXVsdGlGWC9QaGFzZXJfRW5hYmxlADEARlhMYXllcjEvRlgyL011bHRpRlgvUGhhc2VyX0ZlZWRiYWNrADAuNQBGWExheWVyMS9GWDIvTXVsdGlGWC9QaGFzZXJfTGV2ZWwAMC41AEZYTGF5ZXIxL0ZYMi9NdWx0aUZYL1BoYXNlcl9Nb2REZXB0aAAwLjUARlhMYXllcjEvRlgyL011bHRpRlgvUGhhc2VyX01vZFJhdGUAMC41AEZYTGF5ZXIxL0ZYMi9NdWx0aUZYL1BoYXNlcl9Nb2RTaGFwZQAwAEZYTGF5ZXIxL0ZYMi9NdWx0aUZYL1BoYXNlcl9Nb2RTaGFwZUludmVydAAwAEZYTGF5ZXIxL0ZYMi9NdWx0aUZYL1BoYXNlcl9Nb2RTdGVyZW8AMQBGWExheWVyMS9GWDIvTXVsdGlGWC9QaGFzZXJfUGhhc2UAMC41AEZYTGF5ZXIxL0ZYMi9NdWx0aUZYL1BoYXNlcl9TdGFnZXMAMTIARlhMYXllcjEvRlgyL011bHRpRlgvUGhhc2VyX1RlbXBvU3luYwAwAEZYTGF5ZXIxL0ZYMi9NdWx0aUZYL1BoYXNlcl9YTW9kMkZlZWRiYWNrADAuNQBGWExheWVyMS9GWDIvTXVsdGlGWC9QaGFzZXJfWE1vZDJMZXZlbAAwLjUARlhMYXllcjEvRlgyL011bHRpRlgvVHJlbW9sb19EZXB0aAAwLjUARlhMYXllcjEvRlgyL011bHRpRlgvVHJlbW9sb19FbmFibGUAMQBGWExheWVyMS9GWDIvTXVsdGlGWC9UcmVtb2xvX0ZpbHRlckN1dG9mZgAwLjUARlhMYXllcjEvRlgyL011bHRpRlgvVHJlbW9sb19GaWx0ZXJEZXB0aAAwLjUARlhMYXllcjEvRlgyL011bHRpRlgvVHJlbW9sb19GaWx0ZXJFbmFibGUAMABGWExheWVyMS9GWDIvTXVsdGlGWC9UcmVtb2xvX1Bhbm5lckRlcHRoADAuNQBGWExheWVyMS9GWDIvTXVsdGlGWC9UcmVtb2xvX1JhdGUAMC40MDAwMDAwMDYARlhMYXllcjEvRlgyL011bHRpRlgvVHJlbW9sb19TaGFwZQAwAEZYTGF5ZXIxL0ZYMi9NdWx0aUZYL1RyZW1vbG9fU2hhcGVJbnZlcnQAMABGWExheWVyMS9GWDIvTXVsdGlGWC9UcmVtb2xvX1RlbXBvU3luYwAwAEZYTGF5ZXIxL0ZYMi9NdWx0aUZYL1RyZW1vbG9fWE1vZDJEZXB0aAAwLjUARlhMYXllcjEvRlgyL011bHRpRlgvVHJlbW9sb19YTW9kMkZpbHRlckN1dG9mZgAwLjUARlhMYXllcjEvRlgyL011bHRpRlgvVHJlbW9sb19YTW9kMkZpbHRlckRlcHRoADAuNQBGWExheWVyMS9GWDIvTXVsdGlGWC9UcmVtb2xvX1hNb2QyUGFubmVyRGVwdGgAMC41AEZYTGF5ZXIxL0ZYMi9NdWx0aUZYSW5zdHIvQ3VycmVudFNlbGVjdGlvbgBSZXNvMTIARlhMYXllcjEvRlgyL011bHRpRlhJbnN0ci9FbmFibGUAMQBGWExheWVyMS9GWDIvTXVsdGlGWFByZS9DaG9ydXNfQWx0ZXJuYXRlADAARlhMYXllcjEvRlgyL011bHRpRlhQcmUvQ2hvcnVzX0RlcHRoADAuNQBGWExheWVyMS9GWDIvTXVsdGlGWFByZS9DaG9ydXNfRW5hYmxlADEARlhMYXllcjEvRlgyL011bHRpRlhQcmUvQ2hvcnVzX0ZpbHRlckhpADEARlhMYXllcjEvRlgyL011bHRpRlhQcmUvQ2hvcnVzX0ZpbHRlckxvADAARlhMYXllcjEvRlgyL011bHRpRlhQcmUvQ2hvcnVzX01peAAwLjUARlhMYXllcjEvRlgyL011bHRpRlhQcmUvQ2hvcnVzX1JhdGUAMC41AEZYTGF5ZXIxL0ZYMi9NdWx0aUZYUHJlL0Nob3J1c19TdGVyZW9XaWR0aAAwLjUARlhMYXllcjEvRlgyL011bHRpRlhQcmUvQ2hvcnVzX1ZvaWNlcwA1AEZYTGF5ZXIxL0ZYMi9NdWx0aUZYUHJlL0Nob3J1c19YTW9kMk1peAAwLjUARlhMYXllcjEvRlgyL011bHRpRlhQcmUvQ29tcERpc3RfQ29tcF9BdHRhY2sAMC4yMDAwMDAwMDMARlhMYXllcjEvRlgyL011bHRpRlhQcmUvQ29tcERpc3RfQ29tcF9FbmFibGUAMABGWExheWVyMS9GWDIvTXVsdGlGWFByZS9Db21wRGlzdF9Db21wX1JhdGlvADAuNQBGWExheWVyMS9GWDIvTXVsdGlGWFByZS9Db21wRGlzdF9Db21wX1JlbGVhc2UAMC4yMDAwMDAwMDMARlhMYXllcjEvRlgyL011bHRpRlhQcmUvQ29tcERpc3RfQ29tcF9UaHJlc2hvbGQAMC41AEZYTGF5ZXIxL0ZYMi9NdWx0aUZYUHJlL0NvbXBEaXN0X0Rpc3RfQW1vdW50ADAuNQBGWExheWVyMS9GWDIvTXVsdGlGWFByZS9Db21wRGlzdF9EaXN0X0VuYWJsZQAwAEZYTGF5ZXIxL0ZYMi9NdWx0aUZYUHJlL0NvbXBEaXN0X0Rpc3RfRnJlcUhpADEARlhMYXllcjEvRlgyL011bHRpRlhQcmUvQ29tcERpc3RfRGlzdF9GcmVxTG8AMABGWExheWVyMS9GWDIvTXVsdGlGWFByZS9Db21wRGlzdF9EaXN0X01peAAwLjUARlhMYXllcjEvRlgyL011bHRpRlhQcmUvQ29tcERpc3RfRGlzdF9UeXBlADUARlhMYXllcjEvRlgyL011bHRpRlhQcmUvQ3VycmVudFNlbGVjdGlvbgBUcmVtb2xvAEZYTGF5ZXIxL0ZYMi9NdWx0aUZYUHJlL0VuYWJsZQAwAEZYTGF5ZXIxL0ZYMi9NdWx0aUZYUHJlL1BoYXNlcl9FbmFibGUAMQBGWExheWVyMS9GWDIvTXVsdGlGWFByZS9QaGFzZXJfRmVlZGJhY2sAMC41AEZYTGF5ZXIxL0ZYMi9NdWx0aUZYUHJlL1BoYXNlcl9MZXZlbAAwLjUARlhMYXllcjEvRlgyL011bHRpRlhQcmUvUGhhc2VyX01vZERlcHRoADAuNQBGWExheWVyMS9GWDIvTXVsdGlGWFByZS9QaGFzZXJfTW9kUmF0ZQAwLjUARlhMYXllcjEvRlgyL011bHRpRlhQcmUvUGhhc2VyX01vZFNoYXBlADAARlhMYXllcjEvRlgyL011bHRpRlhQcmUvUGhhc2VyX01vZFNoYXBlSW52ZXJ0ADAARlhMYXllcjEvRlgyL011bHRpRlhQcmUvUGhhc2VyX01vZFN0ZXJlbwAxAEZYTGF5ZXIxL0ZYMi9NdWx0aUZYUHJlL1BoYXNlcl9QaGFzZQAwLjUARlhMYXllcjEvRlgyL011bHRpRlhQcmUvUGhhc2VyX1N0YWdlcwAxMgBGWExheWVyMS9GWDIvTXVsdGlGWFByZS9QaGFzZXJfVGVtcG9TeW5jADAARlhMYXllcjEvRlgyL011bHRpRlhQcmUvUGhhc2VyX1hNb2QyRmVlZGJhY2sAMC41AEZYTGF5ZXIxL0ZYMi9NdWx0aUZYUHJlL1BoYXNlcl9YTW9kMkxldmVsADAuNQBGWExheWVyMS9GWDIvTXVsdGlGWFByZS9UcmVtb2xvX0RlcHRoADAuNQBGWExheWVyMS9GWDIvTXVsdGlGWFByZS9UcmVtb2xvX0VuYWJsZQAxAEZYTGF5ZXIxL0ZYMi9NdWx0aUZYUHJlL1RyZW1vbG9fRmlsdGVyQ3V0b2ZmADAuNQBGWExheWVyMS9GWDIvTXVsdGlGWFByZS9UcmVtb2xvX0ZpbHRlckRlcHRoADAuNQBGWExheWVyMS9GWDIvTXVsdGlGWFByZS9UcmVtb2xvX0ZpbHRlckVuYWJsZQAwAEZYTGF5ZXIxL0ZYMi9NdWx0aUZYUHJlL1RyZW1vbG9fUGFubmVyRGVwdGgAMC41AEZYTGF5ZXIxL0ZYMi9NdWx0aUZYUHJlL1RyZW1vbG9fUmF0ZQAwLjQwMDAwMDAwNgBGWExheWVyMS9GWDIvTXVsdGlGWFByZS9UcmVtb2xvX1NoYXBlADAARlhMYXllcjEvRlgyL011bHRpRlhQcmUvVHJlbW9sb19TaGFwZUludmVydAAwAEZYTGF5ZXIxL0ZYMi9NdWx0aUZYUHJlL1RyZW1vbG9fVGVtcG9TeW5jADAARlhMYXllcjEvRlgyL011bHRpRlhQcmUvVHJlbW9sb19YTW9kMkRlcHRoADAuNQBGWExheWVyMS9GWDIvTXVsdGlGWFByZS9UcmVtb2xvX1hNb2QyRmlsdGVyQ3V0b2ZmADAuNQBGWExheWVyMS9GWDIvTXVsdGlGWFByZS9UcmVtb2xvX1hNb2QyRmlsdGVyRGVwdGgAMC41AEZYTGF5ZXIxL0ZYMi9NdWx0aUZYUHJlL1RyZW1vbG9fWE1vZDJQYW5uZXJEZXB0aAAwLjUARlhMYXllcjEvRlgyL05vaXNlX0RlY2F5VGltZQAwLjUARlhMYXllcjEvRlgyL05vaXNlX0VuYWJsZQAwAEZYTGF5ZXIxL0ZYMi9Ob2lzZV9HYXRlTGV2ZWwAMC40NDk5OTk5ODgARlhMYXllcjEvRlgyL05vaXNlX01pZGlUcmlnZ2VyADEARlhMYXllcjEvRlgyL05vaXNlX05vaXNlTGV2ZWwAMC41AEZYTGF5ZXIxL0ZYMi9Ob2lzZV9Ob2lzZVR5cGUAMABGWExheWVyMS9GWDIvUGFuX1BhbgAwLjUARlhMYXllcjEvRlgyL1Bhbl9XaWR0aAAwAEZYTGF5ZXIxL0ZYMi9TZW5kMUtub2IAMABGWExheWVyMS9GWDIvU2VuZDJLbm9iADAARlhMYXllcjEvRlgyL1NvdXJjZUNoYW5uZWwAMgBGWExheWVyMS9GWDMvRVFfSW5zX0VRX0N1dEhpRnJlcQAxAEZYTGF5ZXIxL0ZYMy9FUV9JbnNfRVFfQ3V0SGlRADAuNQBGWExheWVyMS9GWDMvRVFfSW5zX0VRX0N1dExvRnJlcQAwAEZYTGF5ZXIxL0ZYMy9FUV9JbnNfRVFfQ3V0TG9RADAuNQBGWExheWVyMS9GWDMvRVFfSW5zX0VRX0VuYWJsZQAwAEZYTGF5ZXIxL0ZYMy9FUV9JbnNfRVFfSGlGcmVxADAuODAxMjA0ODAxAEZYTGF5ZXIxL0ZYMy9FUV9JbnNfRVFfSGlHYWluADAuNQBGWExheWVyMS9GWDMvRVFfSW5zX0VRX0hpUQAwLjY5OTk5OTk4OABGWExheWVyMS9GWDMvRVFfSW5zX0VRX0xvRnJlcQAwLjE5NzU5MDM1MQBGWExheWVyMS9GWDMvRVFfSW5zX0VRX0xvR2FpbgAwLjUARlhMYXllcjEvRlgzL0VRX0luc19FUV9Mb1EAMC42OTk5OTk5ODgARlhMYXllcjEvRlgzL0VRX0luc19FUV9NaWRGcmVxADAuNTAwNDAxNjc2AEZYTGF5ZXIxL0ZYMy9FUV9JbnNfRVFfTWlkR2FpbgAwLjUARlhMYXllcjEvRlgzL0VRX0luc19FUV9NaWRRADAuNjk5OTk5OTg4AEZYTGF5ZXIxL0ZYMy9HVUlNdXRlADAARlhMYXllcjEvRlgzL0dVSVNvbG8AMABGWExheWVyMS9GWDMvTGV2ZWxTbGlkZXIAMC42MzU1MzMzOTIARlhMYXllcjEvRlgzL011bHRpRlgvQ2hvcnVzX0FsdGVybmF0ZQAwAEZYTGF5ZXIxL0ZYMy9NdWx0aUZYL0Nob3J1c19EZXB0aAAwLjUARlhMYXllcjEvRlgzL011bHRpRlgvQ2hvcnVzX0VuYWJsZQAxAEZYTGF5ZXIxL0ZYMy9NdWx0aUZYL0Nob3J1c19GaWx0ZXJIaQAxAEZYTGF5ZXIxL0ZYMy9NdWx0aUZYL0Nob3J1c19GaWx0ZXJMbwAwAEZYTGF5ZXIxL0ZYMy9NdWx0aUZYL0Nob3J1c19NaXgAMC41AEZYTGF5ZXIxL0ZYMy9NdWx0aUZYL0Nob3J1c19SYXRlADAuNQBGWExheWVyMS9GWDMvTXVsdGlGWC9DaG9ydXNfU3RlcmVvV2lkdGgAMC41AEZYTGF5ZXIxL0ZYMy9NdWx0aUZYL0Nob3J1c19Wb2ljZXMANQBGWExheWVyMS9GWDMvTXVsdGlGWC9DaG9ydXNfWE1vZDJNaXgAMC41AEZYTGF5ZXIxL0ZYMy9NdWx0aUZYL0NvbXBEaXN0X0NvbXBfQXR0YWNrADAuMjAwMDAwMDAzAEZYTGF5ZXIxL0ZYMy9NdWx0aUZYL0NvbXBEaXN0X0NvbXBfRW5hYmxlADAARlhMYXllcjEvRlgzL011bHRpRlgvQ29tcERpc3RfQ29tcF9SYXRpbwAwLjUARlhMYXllcjEvRlgzL011bHRpRlgvQ29tcERpc3RfQ29tcF9SZWxlYXNlADAuMjAwMDAwMDAzAEZYTGF5ZXIxL0ZYMy9NdWx0aUZYL0NvbXBEaXN0X0NvbXBfVGhyZXNob2xkADAuNQBGWExheWVyMS9GWDMvTXVsdGlGWC9Db21wRGlzdF9EaXN0X0Ftb3VudAAwLjUARlhMYXllcjEvRlgzL011bHRpRlgvQ29tcERpc3RfRGlzdF9FbmFibGUAMABGWExheWVyMS9GWDMvTXVsdGlGWC9Db21wRGlzdF9EaXN0X0ZyZXFIaQAxAEZYTGF5ZXIxL0ZYMy9NdWx0aUZYL0NvbXBEaXN0X0Rpc3RfRnJlcUxvADAARlhMYXllcjEvRlgzL011bHRpRlgvQ29tcERpc3RfRGlzdF9NaXgAMC41AEZYTGF5ZXIxL0ZYMy9NdWx0aUZYL0NvbXBEaXN0X0Rpc3RfVHlwZQA1AEZYTGF5ZXIxL0ZYMy9NdWx0aUZYL0N1cnJlbnRTZWxlY3Rpb24AQ2hvcnVzAEZYTGF5ZXIxL0ZYMy9NdWx0aUZYL0VuYWJsZQAwAEZYTGF5ZXIxL0ZYMy9NdWx0aUZYL1BoYXNlcl9FbmFibGUAMQBGWExheWVyMS9GWDMvTXVsdGlGWC9QaGFzZXJfRmVlZGJhY2sAMC41AEZYTGF5ZXIxL0ZYMy9NdWx0aUZYL1BoYXNlcl9MZXZlbAAwLjUARlhMYXllcjEvRlgzL011bHRpRlgvUGhhc2VyX01vZERlcHRoADAuNQBGWExheWVyMS9GWDMvTXVsdGlGWC9QaGFzZXJfTW9kUmF0ZQAwLjUARlhMYXllcjEvRlgzL011bHRpRlgvUGhhc2VyX01vZFNoYXBlADAARlhMYXllcjEvRlgzL011bHRpRlgvUGhhc2VyX01vZFNoYXBlSW52ZXJ0ADAARlhMYXllcjEvRlgzL011bHRpRlgvUGhhc2VyX01vZFN0ZXJlbwAxAEZYTGF5ZXIxL0ZYMy9NdWx0aUZYL1BoYXNlcl9QaGFzZQAwLjUARlhMYXllcjEvRlgzL011bHRpRlgvUGhhc2VyX1N0YWdlcwAxMgBGWExheWVyMS9GWDMvTXVsdGlGWC9QaGFzZXJfVGVtcG9TeW5jADAARlhMYXllcjEvRlgzL011bHRpRlgvUGhhc2VyX1hNb2QyRmVlZGJhY2sAMC41AEZYTGF5ZXIxL0ZYMy9NdWx0aUZYL1BoYXNlcl9YTW9kMkxldmVsADAuNQBGWExheWVyMS9GWDMvTXVsdGlGWC9UcmVtb2xvX0RlcHRoADAuNQBGWExheWVyMS9GWDMvTXVsdGlGWC9UcmVtb2xvX0VuYWJsZQAxAEZYTGF5ZXIxL0ZYMy9NdWx0aUZYL1RyZW1vbG9fRmlsdGVyQ3V0b2ZmADAuNQBGWExheWVyMS9GWDMvTXVsdGlGWC9UcmVtb2xvX0ZpbHRlckRlcHRoADAuNQBGWExheWVyMS9GWDMvTXVsdGlGWC9UcmVtb2xvX0ZpbHRlckVuYWJsZQAwAEZYTGF5ZXIxL0ZYMy9NdWx0aUZYL1RyZW1vbG9fUGFubmVyRGVwdGgAMC41AEZYTGF5ZXIxL0ZYMy9NdWx0aUZYL1RyZW1vbG9fUmF0ZQAwLjQwMDAwMDAwNgBGWExheWVyMS9GWDMvTXVsdGlGWC9UcmVtb2xvX1NoYXBlADAARlhMYXllcjEvRlgzL011bHRpRlgvVHJlbW9sb19TaGFwZUludmVydAAwAEZYTGF5ZXIxL0ZYMy9NdWx0aUZYL1RyZW1vbG9fVGVtcG9TeW5jADAARlhMYXllcjEvRlgzL011bHRpRlgvVHJlbW9sb19YTW9kMkRlcHRoADAuNQBGWExheWVyMS9GWDMvTXVsdGlGWC9UcmVtb2xvX1hNb2QyRmlsdGVyQ3V0b2ZmADAuNQBGWExheWVyMS9GWDMvTXVsdGlGWC9UcmVtb2xvX1hNb2QyRmlsdGVyRGVwdGgAMC41AEZYTGF5ZXIxL0ZYMy9NdWx0aUZYL1RyZW1vbG9fWE1vZDJQYW5uZXJEZXB0aAAwLjUARlhMYXllcjEvRlgzL011bHRpRlhJbnN0ci9DdXJyZW50U2VsZWN0aW9uAFJlc28xMgBGWExheWVyMS9GWDMvTXVsdGlGWEluc3RyL0VuYWJsZQAxAEZYTGF5ZXIxL0ZYMy9NdWx0aUZYUHJlL0Nob3J1c19BbHRlcm5hdGUAMABGWExheWVyMS9GWDMvTXVsdGlGWFByZS9DaG9ydXNfRGVwdGgAMC41AEZYTGF5ZXIxL0ZYMy9NdWx0aUZYUHJlL0Nob3J1c19FbmFibGUAMQBGWExheWVyMS9GWDMvTXVsdGlGWFByZS9DaG9ydXNfRmlsdGVySGkAMQBGWExheWVyMS9GWDMvTXVsdGlGWFByZS9DaG9ydXNfRmlsdGVyTG8AMABGWExheWVyMS9GWDMvTXVsdGlGWFByZS9DaG9ydXNfTWl4ADAuNQBGWExheWVyMS9GWDMvTXVsdGlGWFByZS9DaG9ydXNfUmF0ZQAwLjUARlhMYXllcjEvRlgzL011bHRpRlhQcmUvQ2hvcnVzX1N0ZXJlb1dpZHRoADAuNQBGWExheWVyMS9GWDMvTXVsdGlGWFByZS9DaG9ydXNfVm9pY2VzADUARlhMYXllcjEvRlgzL011bHRpRlhQcmUvQ2hvcnVzX1hNb2QyTWl4ADAuNQBGWExheWVyMS9GWDMvTXVsdGlGWFByZS9Db21wRGlzdF9Db21wX0F0dGFjawAwLjIwMDAwMDAwMwBGWExheWVyMS9GWDMvTXVsdGlGWFByZS9Db21wRGlzdF9Db21wX0VuYWJsZQAwAEZYTGF5ZXIxL0ZYMy9NdWx0aUZYUHJlL0NvbXBEaXN0X0NvbXBfUmF0aW8AMC41AEZYTGF5ZXIxL0ZYMy9NdWx0aUZYUHJlL0NvbXBEaXN0X0NvbXBfUmVsZWFzZQAwLjIwMDAwMDAwMwBGWExheWVyMS9GWDMvTXVsdGlGWFByZS9Db21wRGlzdF9Db21wX1RocmVzaG9sZAAwLjUARlhMYXllcjEvRlgzL011bHRpRlhQcmUvQ29tcERpc3RfRGlzdF9BbW91bnQAMC41AEZYTGF5ZXIxL0ZYMy9NdWx0aUZYUHJlL0NvbXBEaXN0X0Rpc3RfRW5hYmxlADAARlhMYXllcjEvRlgzL011bHRpRlhQcmUvQ29tcERpc3RfRGlzdF9GcmVxSGkAMQBGWExheWVyMS9GWDMvTXVsdGlGWFByZS9Db21wRGlzdF9EaXN0X0ZyZXFMbwAwAEZYTGF5ZXIxL0ZYMy9NdWx0aUZYUHJlL0NvbXBEaXN0X0Rpc3RfTWl4ADAuNQBGWExheWVyMS9GWDMvTXVsdGlGWFByZS9Db21wRGlzdF9EaXN0X1R5cGUANQBGWExheWVyMS9GWDMvTXVsdGlGWFByZS9DdXJyZW50U2VsZWN0aW9uAFRyZW1vbG8ARlhMYXllcjEvRlgzL011bHRpRlhQcmUvRW5hYmxlADAARlhMYXllcjEvRlgzL011bHRpRlhQcmUvUGhhc2VyX0VuYWJsZQAxAEZYTGF5ZXIxL0ZYMy9NdWx0aUZYUHJlL1BoYXNlcl9GZWVkYmFjawAwLjUARlhMYXllcjEvRlgzL011bHRpRlhQcmUvUGhhc2VyX0xldmVsADAuNQBGWExheWVyMS9GWDMvTXVsdGlGWFByZS9QaGFzZXJfTW9kRGVwdGgAMC41AEZYTGF5ZXIxL0ZYMy9NdWx0aUZYUHJlL1BoYXNlcl9Nb2RSYXRlADAuNQBGWExheWVyMS9GWDMvTXVsdGlGWFByZS9QaGFzZXJfTW9kU2hhcGUAMABGWExheWVyMS9GWDMvTXVsdGlGWFByZS9QaGFzZXJfTW9kU2hhcGVJbnZlcnQAMABGWExheWVyMS9GWDMvTXVsdGlGWFByZS9QaGFzZXJfTW9kU3RlcmVvADEARlhMYXllcjEvRlgzL011bHRpRlhQcmUvUGhhc2VyX1BoYXNlADAuNQBGWExheWVyMS9GWDMvTXVsdGlGWFByZS9QaGFzZXJfU3RhZ2VzADEyAEZYTGF5ZXIxL0ZYMy9NdWx0aUZYUHJlL1BoYXNlcl9UZW1wb1N5bmMAMABGWExheWVyMS9GWDMvTXVsdGlGWFByZS9QaGFzZXJfWE1vZDJGZWVkYmFjawAwLjUARlhMYXllcjEvRlgzL011bHRpRlhQcmUvUGhhc2VyX1hNb2QyTGV2ZWwAMC41AEZYTGF5ZXIxL0ZYMy9NdWx0aUZYUHJlL1RyZW1vbG9fRGVwdGgAMC41AEZYTGF5ZXIxL0ZYMy9NdWx0aUZYUHJlL1RyZW1vbG9fRW5hYmxlADEARlhMYXllcjEvRlgzL011bHRpRlhQcmUvVHJlbW9sb19GaWx0ZXJDdXRvZmYAMC41AEZYTGF5ZXIxL0ZYMy9NdWx0aUZYUHJlL1RyZW1vbG9fRmlsdGVyRGVwdGgAMC41AEZYTGF5ZXIxL0ZYMy9NdWx0aUZYUHJlL1RyZW1vbG9fRmlsdGVyRW5hYmxlADAARlhMYXllcjEvRlgzL011bHRpRlhQcmUvVHJlbW9sb19QYW5uZXJEZXB0aAAwLjUARlhMYXllcjEvRlgzL011bHRpRlhQcmUvVHJlbW9sb19SYXRlADAuNDAwMDAwMDA2AEZYTGF5ZXIxL0ZYMy9NdWx0aUZYUHJlL1RyZW1vbG9fU2hhcGUAMABGWExheWVyMS9GWDMvTXVsdGlGWFByZS9UcmVtb2xvX1NoYXBlSW52ZXJ0ADAARlhMYXllcjEvRlgzL011bHRpRlhQcmUvVHJlbW9sb19UZW1wb1N5bmMAMABGWExheWVyMS9GWDMvTXVsdGlGWFByZS9UcmVtb2xvX1hNb2QyRGVwdGgAMC41AEZYTGF5ZXIxL0ZYMy9NdWx0aUZYUHJlL1RyZW1vbG9fWE1vZDJGaWx0ZXJDdXRvZmYAMC41AEZYTGF5ZXIxL0ZYMy9NdWx0aUZYUHJlL1RyZW1vbG9fWE1vZDJGaWx0ZXJEZXB0aAAwLjUARlhMYXllcjEvRlgzL011bHRpRlhQcmUvVHJlbW9sb19YTW9kMlBhbm5lckRlcHRoADAuNQBGWExheWVyMS9GWDMvTm9pc2VfRGVjYXlUaW1lADAuNQBGWExheWVyMS9GWDMvTm9pc2VfRW5hYmxlADAARlhMYXllcjEvRlgzL05vaXNlX0dhdGVMZXZlbAAwLjQ0OTk5OTk4OABGWExheWVyMS9GWDMvTm9pc2VfTWlkaVRyaWdnZXIAMQBGWExheWVyMS9GWDMvTm9pc2VfTm9pc2VMZXZlbAAwLjUARlhMYXllcjEvRlgzL05vaXNlX05vaXNlVHlwZQAwAEZYTGF5ZXIxL0ZYMy9QYW5fUGFuADAuNQBGWExheWVyMS9GWDMvUGFuX1dpZHRoADAARlhMYXllcjEvRlgzL1NlbmQxS25vYgAwAEZYTGF5ZXIxL0ZYMy9TZW5kMktub2IAMABGWExheWVyMS9GWDMvU291cmNlQ2hhbm5lbAAARlhMYXllcjEvU2VuZDEvRGVsYXlfRW5hYmxlADEARlhMYXllcjEvU2VuZDEvRGVsYXlfRmlsdGVyX0hpADEARlhMYXllcjEvU2VuZDEvRGVsYXlfRmlsdGVyX0xvADAARlhMYXllcjEvU2VuZDEvRGVsYXlfTGV2ZWwAMC41AEZYTGF5ZXIxL1NlbmQxL0RlbGF5X1BpbmdQb25nADAuMzAwMDAwMDEyAEZYTGF5ZXIxL1NlbmQxL0RlbGF5X1N3aW5nADAuNQBGWExheWVyMS9TZW5kMS9EZWxheV9UZW1wb1N5bmMAMABGWExheWVyMS9TZW5kMS9EZWxheV9UaW1lADAuNQBGWExheWVyMS9TZW5kMS9GWEVRX0N1dEhpRnJlcQAxAEZYTGF5ZXIxL1NlbmQxL0ZYRVFfQ3V0SGlRADAuNQBGWExheWVyMS9TZW5kMS9GWEVRX0N1dExvRnJlcQAwAEZYTGF5ZXIxL1NlbmQxL0ZYRVFfQ3V0TG9RADAuNQBGWExheWVyMS9TZW5kMS9GWEVRX0VuYWJsZQAwAEZYTGF5ZXIxL1NlbmQxL0ZYRVFfSGlGcmVxADAuNzUARlhMYXllcjEvU2VuZDEvRlhFUV9IaUdhaW4AMC41AEZYTGF5ZXIxL1NlbmQxL0ZYRVFfSGlRADAuNQBGWExheWVyMS9TZW5kMS9GWEVRX0xvRnJlcQAwLjI1AEZYTGF5ZXIxL1NlbmQxL0ZYRVFfTG9HYWluADAuNQBGWExheWVyMS9TZW5kMS9GWEVRX0xvUQAwLjUARlhMYXllcjEvU2VuZDEvRlhFUV9NaWRGcmVxADAuNQBGWExheWVyMS9TZW5kMS9GWEVRX01pZEdhaW4AMC41AEZYTGF5ZXIxL1NlbmQxL0ZYRVFfTWlkUQAwLjY4OTk5OTk5OABGWExheWVyMS9TZW5kMS9HVUlNdXRlADAARlhMYXllcjEvU2VuZDEvR1VJU29sbwAwAEZYTGF5ZXIxL1NlbmQxL0xldmVsU2xpZGVyADAuNzU3OTgyMzE0AEZYTGF5ZXIxL1NlbmQxL01ha3JvTWl4RGVsYXlSZXZlcmIAMABGWExheWVyMS9TZW5kMS9QYW5fUGFuADAuNQBGWExheWVyMS9TZW5kMS9QYW5fV2lkdGgAMABGWExheWVyMS9TZW5kMS9SZXZlcmJfRGFtcAAwLjUARlhMYXllcjEvU2VuZDEvUmV2ZXJiX0RlY2F5ADAuNQBGWExheWVyMS9TZW5kMS9SZXZlcmJfRW5hYmxlADEARlhMYXllcjEvU2VuZDEvUmV2ZXJiX1ByZURlbGF5ADAARlhMYXllcjEvU2VuZDEvUmV2ZXJiX1R5cGUAMABGWExheWVyMS9TZW5kMi9EZWxheV9FbmFibGUAMQBGWExheWVyMS9TZW5kMi9EZWxheV9GaWx0ZXJfSGkAMQBGWExheWVyMS9TZW5kMi9EZWxheV9GaWx0ZXJfTG8AMABGWExheWVyMS9TZW5kMi9EZWxheV9MZXZlbAAwLjUARlhMYXllcjEvU2VuZDIvRGVsYXlfUGluZ1BvbmcAMC4zMDAwMDAwMTIARlhMYXllcjEvU2VuZDIvRGVsYXlfU3dpbmcAMC41AEZYTGF5ZXIxL1NlbmQyL0RlbGF5X1RlbXBvU3luYwAwAEZYTGF5ZXIxL1NlbmQyL0RlbGF5X1RpbWUAMC41AEZYTGF5ZXIxL1NlbmQyL0ZYRVFfQ3V0SGlGcmVxADEARlhMYXllcjEvU2VuZDIvRlhFUV9DdXRIaVEAMC41AEZYTGF5ZXIxL1NlbmQyL0ZYRVFfQ3V0TG9GcmVxADAARlhMYXllcjEvU2VuZDIvRlhFUV9DdXRMb1EAMC41AEZYTGF5ZXIxL1NlbmQyL0ZYRVFfRW5hYmxlADAARlhMYXllcjEvU2VuZDIvRlhFUV9IaUZyZXEAMC43NQBGWExheWVyMS9TZW5kMi9GWEVRX0hpR2FpbgAwLjUARlhMYXllcjEvU2VuZDIvRlhFUV9IaVEAMC41AEZYTGF5ZXIxL1NlbmQyL0ZYRVFfTG9GcmVxADAuMjUARlhMYXllcjEvU2VuZDIvRlhFUV9Mb0dhaW4AMC41AEZYTGF5ZXIxL1NlbmQyL0ZYRVFfTG9RADAuNQBGWExheWVyMS9TZW5kMi9GWEVRX01pZEZyZXEAMC41AEZYTGF5ZXIxL1NlbmQyL0ZYRVFfTWlkR2FpbgAwLjUARlhMYXllcjEvU2VuZDIvRlhFUV9NaWRRADAuNjk5OTk5OTg4AEZYTGF5ZXIxL1NlbmQyL0dVSU11dGUAMABGWExheWVyMS9TZW5kMi9HVUlTb2xvADAARlhMYXllcjEvU2VuZDIvTGV2ZWxTbGlkZXIAMC43NTc5ODIzMTQARlhMYXllcjEvU2VuZDIvTWFrcm9NaXhEZWxheVJldmVyYgAxAEZYTGF5ZXIxL1NlbmQyL1Bhbl9QYW4AMC41AEZYTGF5ZXIxL1NlbmQyL1Bhbl9XaWR0aAAwAEZYTGF5ZXIxL1NlbmQyL1JldmVyYl9EYW1wADAuNQBGWExheWVyMS9TZW5kMi9SZXZlcmJfRGVjYXkAMC41AEZYTGF5ZXIxL1NlbmQyL1JldmVyYl9FbmFibGUAMQBGWExheWVyMS9TZW5kMi9SZXZlcmJfUHJlRGVsYXkAMABGWExheWVyMS9TZW5kMi9SZXZlcmJfVHlwZQAyAEdsb2JhbFZlbG9jaXR5UmVzcG9uc2UAMC41AEdsb2JhbFZlbG9jaXR5UmVzcG9uc2VNYXgAMQBHbG9iYWxWZWxvY2l0eVJlc3BvbnNlTWluADAASGlnaFZvaWNlQ291bnQAMABJMV9HdWlfQW1wRW52X0F0dGFjawAwAEkxX0d1aV9BbXBFbnZfQXR0YWNrQ3VydmUAMC41AEkxX0d1aV9BbXBFbnZfQXR0YWNrTGV2ZWwAMQBJMV9HdWlfQW1wRW52X0RlY2F5ADAuNQBJMV9HdWlfQW1wRW52X0RlY2F5Q3VydmUAMC4wMzExMjI4AEkxX0d1aV9BbXBFbnZfRGVjYXlMZXZlbAAxAEkxX0d1aV9BbXBFbnZfRW5hYmxlX0d1aQAwAEkxX0d1aV9BbXBFbnZfUmVsZWFzZQAwLjA1MDAwMDAwMDcASTFfR3VpX0FtcEVudl9SZWxlYXNlQ3VydmUAMC4wMzExMjI4AEkxX0d1aV9BbXBFbnZfU3VzdGFpbkN1cnZlADAuNQBJMV9HdWlfQW1wRW52X1N1c3RhaW5Ib2xkADAuNQBJMV9HdWlfQW1wRW52X1N1c3RhaW5MZXZlbAAxAEkxX0d1aV9BbXBFbnZfVmVsMkF0dGFjawAwAEkxX0d1aV9EZXR1bmUAMABJMV9HdWlfRHluYW1pY1JhbmdlADEASTFfR3VpX0ZpbHRlckVudl9BbW91bnQAMC41AEkxX0d1aV9GaWx0ZXJFbnZfQXR0YWNrADAASTFfR3VpX0ZpbHRlckVudl9BdHRhY2tDdXJ2ZQAwLjUASTFfR3VpX0ZpbHRlckVudl9BdHRhY2tMZXZlbAAxAEkxX0d1aV9GaWx0ZXJFbnZfRGVjYXkAMC41AEkxX0d1aV9GaWx0ZXJFbnZfRGVjYXlDdXJ2ZQAwLjA1MDAwMDAwMDcASTFfR3VpX0ZpbHRlckVudl9EZWNheUxldmVsADAuNQBJMV9HdWlfRmlsdGVyRW52X0VuYWJsZQAxAEkxX0d1aV9GaWx0ZXJFbnZfUmVsZWFzZQAwLjEwMDAwMDAwMQBJMV9HdWlfRmlsdGVyRW52X1JlbGVhc2VDdXJ2ZQAwLjAyOTk5OTk5OTMASTFfR3VpX0ZpbHRlckVudl9SZWxlYXNlTGV2ZWwAMABJMV9HdWlfRmlsdGVyRW52X1N0YXJ0TGV2ZWwAMC41AEkxX0d1aV9GaWx0ZXJFbnZfU3VzdGFpbkN1cnZlADAuNQBJMV9HdWlfRmlsdGVyRW52X1N1c3RhaW5Ib2xkADEASTFfR3VpX0ZpbHRlckVudl9TdXN0YWluTGV2ZWwAMC41AEkxX0d1aV9GaWx0ZXJFbnZfVmVsMkFtb3VudAAwAEkxX0d1aV9GaWx0ZXJFbnZfVmVsMkF0dGFjawAwAEkxX0d1aV9GaWx0ZXJfQ3V0b2ZmADEASTFfR3VpX0ZpbHRlcl9Ecml2ZQAwAEkxX0d1aV9GaWx0ZXJfRW5hYmxlADAASTFfR3VpX0ZpbHRlcl9LZXkyQ3V0b2ZmADAuNQBJMV9HdWlfRmlsdGVyX1Jlc29uYW5jZQAwAEkxX0d1aV9GaWx0ZXJfVHlwZQAwAEkxX0d1aV9GaWx0ZXJfWE1vZDJDdXRvZmYAMC41AEkxX0d1aV9LZXkyVm9sdW1lADAuNQBJMV9HdWlfTm90ZVRyYW5zcG9zZQAwAEkxX0d1aV9QaXRjaEVudl9DdXJ2ZQAwLjAyOTk5OTk5OTMASTFfR3VpX1BpdGNoRW52X0VuYWJsZQAwAEkxX0d1aV9QaXRjaEVudl9Ib2xkADAASTFfR3VpX1BpdGNoRW52X09mZnNldExldmVsADAuNQBJMV9HdWlfUGl0Y2hFbnZfUmVsZWFzZQAwLjEwMDAwMDAwMQBJMV9HdWlfUGl0Y2hFbnZfVmVsU2VucwAwAEkxX0d1aV9QaXRjaF9FbmFibGUALTEASTFfR3VpX1JhdGVTaGlmdAAwLjUASTFfR3VpX1VzZVJlbGVhc2VTYW1wbGVzADEASTFfR3VpX1ZpYnJhdG9fRGVwdGgAMABJMV9HdWlfVmlicmF0b19SYXRlADAuNQBJMV9HdWlfVmlicmF0b19YTW9kADAuNQBJbnN0cnVtZW50R2FsbGVyeUFsbEV4cGxvcmVNYXBzADAATGF5ZXIxL0Jyb3dzZVNlbGVjdGlvbgBFeHBsb3JlAExheWVyMS9DdXJyZW50UHJlc2V0SWQAYXBwX19Nb2Rlcm4gVXByaWdodCAtIEFtYmllbnQuQUtQcmVzZXQATGF5ZXIxL0luc3RydW1lbnRUYWJTZWxlY3Rpb24ASWRlbnRpdHkATGF5ZXIxL0luc3RydW1lbnRXaXRoU3RhdGUAeyBpbnN0cnVtZW50SWQgPSAiTW9kZXJuVXAiLCBzdGF0ZSA9IHsgQm9keVJlc29uYW5jZUxldmVsID0gMC41LCBCb2R5UmVzb25hbmNlTm9pc2VMZXZlbCA9IDAuNTkzNjc1NDM0NTg5MzksIER5blJhbmdlSGkgPSAwLjAwMDkzNzQ5OTk3OTA0NTI0LCBEeW5SYW5nZUxvID0gMC4wMDA5Mzc0OTk5NzkwNDUyNCwgUGVkYWxOb2lzZUxldmVsID0gMC41OTM3OTUwNjExMTE0NSwgU29mdFBlZGFsRWZmZWN0ID0gMC41fX0ATGF5ZXIxL1ByZXNldEJyb3dzZXJBbGxEb21haW4AMQBMYXllcjEvUHJlc2V0QnJvd3NlckFsbFVzZXJUYWcAMQBMYXllcjEvUHJlc2V0QnJvd3NlclRhZ0FsbEluc3RydW1lbnQAMABMYXllcjEvUHJlc2V0QnJvd3NlclRhZ0ZhY3RvcnkAMABMYXllcjEvUHJlc2V0QnJvd3NlclRhZ0xpa2UAMABMYXllcjEvUHJlc2V0QnJvd3NlclRhZ1VzZXIAMABMYXllcjEvUHJlc2V0QnJvd3NlclRhZ1dlYgAwAExheWVyMS9QcmVzZXRNaWRpADRENTQ2ODY0MDAwMDAwMDYwMDAwMDAwMTAxRTA0RDU0NzI2QjAwMDAwMkNCMDBGRjAzMDAwMEZGNTEwMzA3QTEyMDAwRkY1ODA0MDQwMjE4MDgwMEIwNDA3RjAwNDA3RjAwNDAwMDAwOTA0NjRCMEE0MTQ5MDU0QTQ4MDU1OTcwMDY0RDZCMDZCMDQwNEExMzQwN0Y3OTgwNEEwMDE4OTA1NjREMDM4MDU5MDAwMzQ2MDAxNTQxMDAzRjREMDA1MzU2MDAxOTkwNTIzQzFFODA1MjAwNzlCMDQwNEEyNDgwNDE0MDAxNDY0MDAwNEE0MDAwNEQ0MDAwNTI0MDAwNTY0MDAwNTk0MDAxQjA0MDAwMDU5MDNDM0MwMTQxM0QwMTQ1M0YwNTU0NzEwNDQ4NjgzREIwNDAyNjA4NDA0QTFFNDA3RjRGODA1NDAwMDQ0NTAwMDY5MDUxNEQwQTgwM0MwMDAxNDEwMDQ1NDgwMDNBNTEwMDI3OTA0RDQ2MUM4MDREMDA3MkIwNDA0QTJEODAzQzQwMDE0MTQwMDA0NTQwMDA0ODQwMDA0RDQwMDA1MTQwMDA1NDQwMDFCMDQwMDAwNjkwNDY1QzAxNTI2ODA2M0U0MjA3Mzc0MzAxNDM0NjMxQjA0MDRBMkE0MDdGNDk4MDQzMDAxMDkwNEY0RDExODAzRTAwMDM1MjAwMEQzNzAwODEwOTRGMDAxMTQ2MDAwNDkwNEE0NjE4ODA0QTAwNjVCMDQwNEEyMzgwMzc0MDAwM0U0MDAwNDM0MDAwNDY0MDAwNEE0MDAwNEY0MDAwNTI0MDAwQjA0MDAwMTQ5MDM5NDYwNDMyM0QwMjNFM0YwMzRENzkwMzQxNjk0QUIwNDA0QTFENDA3RjU0OTA0QTRGMDM4MDREMDAxMTNFMDAyRTM5MDAxMTMyMDAxMjQxMDA1NjRBMDAwOTkwNDU0RTgxMjg4MDQ1MDAwREIwNDA0QTExOTA0QjZCMDIzNzYyMDMyQjVBMEM4MDMyNDAwMTM5NDAwMDNFNDAwMDQxNDAwMDQ1NDAwMDRBNDAwMDRENDAwMUIwNDAwMDdGNDA0QTFCOTA0QTVBMDRCMDQwN0YyQzgwNEIwMDRBMzcwMDE1MkIwMDNBOTA0NjU2MUU4MDRBMDA4MTAxNDYwMDE1OTA0MTQyMUQ4MDQxMDA4MTExQjA0MDRBMTI5MDM1NEMwMzI5NDYwMzMwNDYwNzM5NjkwNTgwMkI0MDAwMzc0MDAwNDE0MDAwNDY0MDAwNEE0MDAwNEI0MDAxQjA0MDAwNEQ0MDRBMUQ0MDdGMzQ5MDNDNDcyQjgwMzUwMDAzMjkwMDFBMzAwMDVGMzkwMDFGM0MwMDAzOTA0MTU1ODExN0IwNDA0QTI0OTAzNzYwMDMyRTNBMDMyNzNDMDIzMzM5MDMzQTRDMDc4MDI5NDAwMDMwNDAwMDM1NDAwMDM5NDAwMDNDNDAwMEIwNDAwMDgyMUE0MDRBMzU0MDdGODMzQzgwMzMwMDg3MUYzNzAwMEE5MDMzNEY3RjgwM0EwMDREOTAzNzU3MUU4MDMzMDAyNTJFMDAyNTI3MDA0QzkwM0E0RDA3ODA0MTAwODExMTM3MDAxNzkwNDE2NzI2ODAzQTAwODEwNEIwNDA0QTA3OTAxRDU4MDQyOTYxMEYzOTcwMTI4MDI3NDAwMDJFNDAwMDMzNDAwMDM3NDAwMDNBNDAwMUIwNDAwMDMyNDA0QTIxNDA3RjYxOTAzQzUxMjg4MDQxMDAwRTI5MDAxRjFEMDA0RjM5MDAxRTkwNDE2MzNBODAzQzAwNkFCMDQwNEExQTkwMUI0MjAyMjc0MDA0Mzc1OTAyM0E0NTBCODAxRDQwMDAyOTQwMDAzOTQwMDAzQzQwMDBCMDQwMDA5NDY2ODAxQjAwNDc0MTAwMDIzNzAwMDgyNzAwMTczQTAwMDBGRjJGMDAATGF5ZXIxL1ByZXNldFNhdmVBbGxUeXBlADAATGF5ZXIxL1ByZXNldFNhdmVEZW1vAABMYXllcjEvUHJlc2V0U2F2ZUluZm8ARmxvb3IgUFpNIC8gQW1iIFR1YmUATGF5ZXIxL1ByZXNldFNhdmVOYW1lAE1vZGVybiBVcHJpZ2h0IC0gQW1iaWVudABMYXllcjEvUHJlc2V0U2F2ZVRhZ0FjUGlhbm8AMABMYXllcjEvUHJlc2V0U2F2ZVRhZ0Jhc3MAMABMYXllcjEvUHJlc2V0U2F2ZVRhZ0VsUGlhbm8AMABMYXllcjEvUHJlc2V0U2F2ZVRhZ01hbGxldHMAMABMYXllcjEvUHJlc2V0U2F2ZVRhZ09yZ2FuADAATGF5ZXIxL1ByZXNldFNhdmVUYWdQYWQAMABMYXllcjEvUHJlc2V0U2F2ZVRhZ1N0cmluZ3MAMABMYXllcjEvUHJlc2V0U2F2ZVRhZ1N5bnRoADAATGF5ZXIxL1ByZXNldFNhdmVUYWdVbnVzZWQAMABMYXllcjEvVmlld1NlbGVjdGlvbgBFZGl0AFByZXNldEJyb3dzZXJGaWx0ZXJUZXh0AABQcmVzZXRCcm93c2VySW5zdHJ1bWVudEZpbHRlcgAAUHJlc2V0QnJvd3Nlck1lbW9zU29ydE9yZGVyADIAUHJlc2V0QnJvd3NlclNob3dGcm9tUHJvZHVjdHMAMQBQcmVzZXRCcm93c2VyU2hvd015UHJlc2V0cwAxAFByZXNldEJyb3dzZXJTb3J0T3JkZXIAMABQcmVzZXROYW1lAABTYW1wbGVyX1BpdGNoQmVuZFJhbmdlRG93bgAtMgBTYW1wbGVyX1BpdGNoQmVuZFJhbmdlVXAAMgBTYXZlZFdpdGhBS1ZlcnNpb24AMS40LjMAU3RhdGVDb21wYXRpYmxlUHJvZHVjdHMAQWRkaWN0aXZlIEtleXMsV2lsZCBQaWFub3MAU3RhdGVJbnN0YW5jZVVVSUQANzViNDM1ZTMxMWI2NDczYTljNDZkZTc2MDhlMTJkZDUAU3RhdGVQcm9kdWN0TmFtZQBBZGRpY3RpdmUgS2V5cwBTdGF0ZVZlcnNpb24AMQBUZW1wb01vZAAwLjUAVHVuaW5nX01hc3RlcgAwLjUAVHVuaW5nX1NjYWxlS2V5AEMAVHVuaW5nX1N0cmV0Y2gAMABUdW5pbmdfVGVtcGVyYW1lbnQAQXMgcmVjb3JkZWQAVXNlSG9zdFRlbXBvADEAVmVsb2NpdHlSYW5nZUJ5TWlkaUNDTnVtYmVyADE3AFZlbG9jaXR5UmFuZ2VCeU1pZGlDQ051bWJlckVuYWJsZQAwAFZpZXdFbnZlbG9wZVNlbGVjdGlvbgBBbXBFbnYAVmlydHVhbE11c2ljaWFuRW5hYmxlADEAVmlydHVhbE11c2ljaWFuU3dpbmdNb2QAMC41AFZvbHVtZUJ5TWlkaUNDTnVtYmVyADcAVm9sdW1lQnlNaWRpQ0NOdW1iZXJFbmFibGUAMABYTW9kTWlkaUFmdGVydG91Y2hFbmFibGUAMABYTW9kTWlkaUNDTnVtYmVyADExAFhNb2RNaWRpQ0NOdW1iZXJFbmFibGUAMQBYTW9kTWlkaU1vZHVsYXRpb25FbmFibGUAMQA=" guivisible="0" plugin="uservst:Addictive Keys.dll" program="0">
              <key/>
            </vestige>
          </instrument>
          <eldata fcut="14000" fres="0.5" fwet="0" ftype="0">
            <elvol lspd="0.1" latt="0" lspd_numerator="4" lspd_syncmode="0" sustain="0.5" hold="0.5" lamt="0" x100="0" att="0" rel="0.1" lpdel="0" userwavefile="" lspd_denominator="4" pdel="0" ctlenvamt="0" amt="0" lshp="0" dec="0.5"/>
            <elcut lspd="0.1" latt="0" lspd_numerator="4" lspd_syncmode="0" sustain="0.5" hold="0.5" lamt="0" x100="0" att="0" rel="0.1" lpdel="0" userwavefile="" lspd_denominator="4" pdel="0" ctlenvamt="0" amt="0" lshp="0" dec="0.5"/>
            <elres lspd="0.1" latt="0" lspd_numerator="4" lspd_syncmode="0" sustain="0.5" hold="0.5" lamt="0" x100="0" att="0" rel="0.1" lpdel="0" userwavefile="" lspd_denominator="4" pdel="0" ctlenvamt="0" amt="0" lshp="0" dec="0.5"/>
          </eldata>
          <chordcreator chord="0" chord-enabled="0" chordrange="1"/>
          <arpeggiator arpcycle="0" arpdir="0" arptime="200" arptime_syncmode="0" arprange="1" arp-enabled="0" arpgate="100" arprepeats="1" arpskip="0" arpmode="0" arp="0" arptime_denominator="4" arpmiss="0" arptime_numerator="4"/>
          <midiport inputcontroller="0" outputprogram="1" outputchannel="1" fixedoutputnote="-1" inputchannel="0" writable="0" fixedoutputvelocity="-1" fixedinputvelocity="-1" basevelocity="63" readable="0" outputcontroller="0"/>
          <fxchain numofeffects="0" enabled="0"/>
        </instrumenttrack>
        <pattern pos="3072" steps="16" muted="0" type="1" name="">
          <note vol="55" pos="0" pan="0" key="78" len="11"/>
          <note vol="55" pos="36" pan="0" key="76" len="12"/>
          <note vol="55" pos="72" pan="0" key="78" len="12"/>
          <note vol="55" pos="96" pan="0" key="73" len="12"/>
          <note vol="55" pos="132" pan="0" key="81" len="12"/>
          <note vol="55" pos="168" pan="0" key="80" len="12"/>
          <note vol="55" pos="192" pan="0" key="78" len="12"/>
          <note vol="55" pos="228" pan="0" key="76" len="12"/>
          <note vol="55" pos="264" pan="0" key="78" len="12"/>
          <note vol="55" pos="288" pan="0" key="73" len="12"/>
          <note vol="55" pos="324" pan="0" key="81" len="12"/>
          <note vol="55" pos="360" pan="0" key="80" len="12"/>
          <note vol="55" pos="384" pan="0" key="78" len="12"/>
          <note vol="55" pos="420" pan="0" key="76" len="12"/>
          <note vol="55" pos="456" pan="0" key="78" len="12"/>
          <note vol="55" pos="480" pan="0" key="73" len="12"/>
          <note vol="55" pos="516" pan="0" key="81" len="12"/>
          <note vol="55" pos="552" pan="0" key="80" len="12"/>
          <note vol="55" pos="576" pan="0" key="78" len="12"/>
          <note vol="55" pos="612" pan="0" key="76" len="12"/>
          <note vol="55" pos="648" pan="0" key="78" len="12"/>
          <note vol="55" pos="672" pan="0" key="73" len="12"/>
          <note vol="55" pos="708" pan="0" key="81" len="12"/>
          <note vol="55" pos="744" pan="0" key="80" len="12"/>
          <note vol="55" pos="768" pan="0" key="78" len="11"/>
          <note vol="55" pos="804" pan="0" key="76" len="12"/>
          <note vol="55" pos="840" pan="0" key="78" len="12"/>
          <note vol="55" pos="864" pan="0" key="73" len="12"/>
          <note vol="55" pos="900" pan="0" key="81" len="12"/>
          <note vol="55" pos="936" pan="0" key="80" len="12"/>
          <note vol="55" pos="960" pan="0" key="78" len="12"/>
          <note vol="55" pos="996" pan="0" key="76" len="12"/>
          <note vol="55" pos="1032" pan="0" key="78" len="12"/>
          <note vol="55" pos="1056" pan="0" key="73" len="12"/>
          <note vol="55" pos="1092" pan="0" key="81" len="12"/>
          <note vol="55" pos="1128" pan="0" key="80" len="12"/>
          <note vol="55" pos="1152" pan="0" key="78" len="12"/>
          <note vol="55" pos="1188" pan="0" key="76" len="12"/>
          <note vol="55" pos="1224" pan="0" key="78" len="12"/>
          <note vol="55" pos="1248" pan="0" key="73" len="12"/>
          <note vol="55" pos="1284" pan="0" key="81" len="12"/>
          <note vol="55" pos="1320" pan="0" key="80" len="12"/>
          <note vol="55" pos="1344" pan="0" key="78" len="12"/>
          <note vol="55" pos="1380" pan="0" key="76" len="12"/>
          <note vol="55" pos="1416" pan="0" key="78" len="12"/>
          <note vol="55" pos="1440" pan="0" key="80" len="12"/>
          <note vol="55" pos="1476" pan="0" key="81" len="12"/>
          <note vol="55" pos="1512" pan="0" key="76" len="12"/>
          <note vol="55" pos="1536" pan="0" key="78" len="11"/>
          <note vol="55" pos="1572" pan="0" key="76" len="12"/>
          <note vol="55" pos="1608" pan="0" key="78" len="12"/>
          <note vol="55" pos="1632" pan="0" key="73" len="12"/>
          <note vol="55" pos="1668" pan="0" key="81" len="12"/>
          <note vol="55" pos="1704" pan="0" key="80" len="12"/>
          <note vol="55" pos="1728" pan="0" key="78" len="12"/>
          <note vol="55" pos="1764" pan="0" key="76" len="12"/>
          <note vol="55" pos="1800" pan="0" key="78" len="12"/>
          <note vol="55" pos="1824" pan="0" key="73" len="12"/>
          <note vol="55" pos="1860" pan="0" key="81" len="12"/>
          <note vol="55" pos="1896" pan="0" key="80" len="12"/>
          <note vol="55" pos="1920" pan="0" key="78" len="12"/>
          <note vol="55" pos="1956" pan="0" key="76" len="12"/>
          <note vol="55" pos="1992" pan="0" key="78" len="12"/>
          <note vol="55" pos="2016" pan="0" key="73" len="12"/>
          <note vol="55" pos="2052" pan="0" key="81" len="12"/>
          <note vol="55" pos="2088" pan="0" key="80" len="12"/>
          <note vol="55" pos="2112" pan="0" key="78" len="12"/>
          <note vol="55" pos="2148" pan="0" key="76" len="12"/>
          <note vol="55" pos="2184" pan="0" key="78" len="12"/>
          <note vol="55" pos="2208" pan="0" key="73" len="12"/>
          <note vol="55" pos="2244" pan="0" key="81" len="12"/>
          <note vol="55" pos="2280" pan="0" key="80" len="12"/>
          <note vol="55" pos="2304" pan="0" key="78" len="11"/>
          <note vol="55" pos="2340" pan="0" key="76" len="12"/>
          <note vol="55" pos="2376" pan="0" key="78" len="12"/>
          <note vol="55" pos="2400" pan="0" key="73" len="12"/>
          <note vol="55" pos="2436" pan="0" key="81" len="12"/>
          <note vol="55" pos="2472" pan="0" key="80" len="12"/>
          <note vol="55" pos="2496" pan="0" key="78" len="12"/>
          <note vol="55" pos="2532" pan="0" key="76" len="12"/>
          <note vol="55" pos="2568" pan="0" key="78" len="12"/>
          <note vol="55" pos="2592" pan="0" key="73" len="12"/>
          <note vol="55" pos="2628" pan="0" key="81" len="12"/>
          <note vol="55" pos="2664" pan="0" key="80" len="12"/>
          <note vol="55" pos="2688" pan="0" key="78" len="12"/>
          <note vol="55" pos="2724" pan="0" key="76" len="12"/>
          <note vol="55" pos="2760" pan="0" key="78" len="12"/>
          <note vol="55" pos="2784" pan="0" key="73" len="12"/>
          <note vol="55" pos="2820" pan="0" key="81" len="12"/>
          <note vol="55" pos="2856" pan="0" key="80" len="12"/>
          <note vol="55" pos="2880" pan="0" key="78" len="12"/>
          <note vol="55" pos="2916" pan="0" key="76" len="12"/>
          <note vol="55" pos="2952" pan="0" key="78" len="12"/>
          <note vol="55" pos="2976" pan="0" key="80" len="12"/>
          <note vol="55" pos="3012" pan="0" key="81" len="12"/>
          <note vol="55" pos="3048" pan="0" key="76" len="12"/>
          <note vol="55" pos="3072" pan="0" key="66" len="11"/>
          <note vol="55" pos="3072" pan="0" key="54" len="11"/>
          <note vol="55" pos="3240" pan="0" key="78" len="6"/>
          <note vol="55" pos="3246" pan="0" key="81" len="6"/>
          <note vol="55" pos="3252" pan="0" key="85" len="6"/>
          <note vol="55" pos="3258" pan="0" key="88" len="6"/>
          <note vol="59" pos="3264" pan="0" key="90" len="6"/>
          <note vol="55" pos="3456" pan="0" key="81" len="12"/>
          <note vol="55" pos="3492" pan="0" key="80" len="12"/>
          <note vol="55" pos="3528" pan="0" key="81" len="12"/>
          <note vol="55" pos="3552" pan="0" key="80" len="12"/>
          <note vol="55" pos="3588" pan="0" key="76" len="12"/>
          <note vol="55" pos="3624" pan="0" key="73" len="12"/>
          <note vol="55" pos="3648" pan="0" key="69" len="12"/>
          <note vol="55" pos="3684" pan="0" key="68" len="12"/>
          <note vol="55" pos="3720" pan="0" key="69" len="12"/>
          <note vol="55" pos="3744" pan="0" key="68" len="12"/>
          <note vol="55" pos="3780" pan="0" key="71" len="12"/>
          <note vol="55" pos="3816" pan="0" key="68" len="12"/>
          <note vol="55" pos="3840" pan="0" key="66" len="11"/>
          <note vol="55" pos="3840" pan="0" key="54" len="11"/>
          <note vol="55" pos="4008" pan="0" key="78" len="6"/>
          <note vol="55" pos="4014" pan="0" key="81" len="6"/>
          <note vol="55" pos="4020" pan="0" key="85" len="6"/>
          <note vol="55" pos="4026" pan="0" key="88" len="6"/>
          <note vol="75" pos="4032" pan="0" key="78" len="6"/>
          <note vol="55" pos="4224" pan="0" key="81" len="12"/>
          <note vol="55" pos="4260" pan="0" key="80" len="12"/>
          <note vol="55" pos="4296" pan="0" key="81" len="12"/>
          <note vol="55" pos="4320" pan="0" key="80" len="12"/>
          <note vol="55" pos="4356" pan="0" key="76" len="12"/>
          <note vol="55" pos="4392" pan="0" key="73" len="12"/>
          <note vol="40" pos="4416" pan="0" key="93" len="12"/>
          <note vol="40" pos="4452" pan="0" key="92" len="12"/>
          <note vol="40" pos="4488" pan="0" key="93" len="12"/>
          <note vol="40" pos="4512" pan="0" key="92" len="12"/>
          <note vol="40" pos="4548" pan="0" key="95" len="12"/>
          <note vol="40" pos="4584" pan="0" key="92" len="12"/>
          <note vol="40" pos="4608" pan="0" key="90" len="11"/>
          <note vol="55" pos="4608" pan="0" key="78" len="11"/>
          <note vol="55" pos="4608" pan="0" key="66" len="11"/>
          <note vol="55" pos="4680" pan="0" key="66" len="12"/>
          <note vol="55" pos="4704" pan="0" key="66" len="12"/>
          <note vol="55" pos="4776" pan="0" key="66" len="12"/>
          <note vol="55" pos="4800" pan="0" key="66" len="12"/>
          <note vol="55" pos="4872" pan="0" key="66" len="12"/>
          <note vol="55" pos="4896" pan="0" key="66" len="12"/>
          <note vol="55" pos="4944" pan="0" key="66" len="12"/>
          <note vol="55" pos="4992" pan="0" key="66" len="12"/>
          <note vol="55" pos="5064" pan="0" key="66" len="12"/>
          <note vol="55" pos="5088" pan="0" key="66" len="12"/>
          <note vol="55" pos="5160" pan="0" key="66" len="12"/>
          <note vol="55" pos="5184" pan="0" key="66" len="12"/>
          <note vol="55" pos="5256" pan="0" key="66" len="12"/>
          <note vol="55" pos="5280" pan="0" key="66" len="12"/>
          <note vol="55" pos="5352" pan="0" key="66" len="12"/>
          <note vol="55" pos="5376" pan="0" key="69" len="11"/>
          <note vol="55" pos="5448" pan="0" key="69" len="12"/>
          <note vol="55" pos="5472" pan="0" key="69" len="12"/>
          <note vol="55" pos="5544" pan="0" key="69" len="12"/>
          <note vol="55" pos="5568" pan="0" key="69" len="12"/>
          <note vol="55" pos="5640" pan="0" key="69" len="12"/>
          <note vol="55" pos="5664" pan="0" key="69" len="12"/>
          <note vol="55" pos="5712" pan="0" key="69" len="12"/>
          <note vol="55" pos="5760" pan="0" key="68" len="12"/>
          <note vol="55" pos="5832" pan="0" key="68" len="12"/>
          <note vol="55" pos="5856" pan="0" key="68" len="12"/>
          <note vol="55" pos="5928" pan="0" key="68" len="12"/>
          <note vol="55" pos="5952" pan="0" key="68" len="12"/>
          <note vol="55" pos="6024" pan="0" key="68" len="12"/>
          <note vol="55" pos="6048" pan="0" key="68" len="12"/>
          <note vol="55" pos="6072" pan="0" key="68" len="12"/>
          <note vol="55" pos="6096" pan="0" key="64" len="12"/>
          <note vol="55" pos="6120" pan="0" key="64" len="12"/>
          <note vol="55" pos="6144" pan="0" key="73" len="11"/>
          <note vol="55" pos="6216" pan="0" key="78" len="12"/>
          <note vol="55" pos="6240" pan="0" key="78" len="12"/>
          <note vol="55" pos="6312" pan="0" key="76" len="12"/>
          <note vol="55" pos="6336" pan="0" key="78" len="12"/>
          <note vol="55" pos="6432" pan="0" key="54" len="12"/>
          <note vol="55" pos="6528" pan="0" key="73" len="12"/>
          <note vol="55" pos="6600" pan="0" key="78" len="12"/>
          <note vol="55" pos="6624" pan="0" key="78" len="12"/>
          <note vol="55" pos="6696" pan="0" key="76" len="12"/>
          <note vol="55" pos="6720" pan="0" key="78" len="12"/>
          <note vol="55" pos="6816" pan="0" key="54" len="12"/>
          <note vol="55" pos="6912" pan="0" key="73" len="11"/>
          <note vol="55" pos="6984" pan="0" key="78" len="12"/>
          <note vol="55" pos="7008" pan="0" key="78" len="12"/>
          <note vol="55" pos="7080" pan="0" key="76" len="12"/>
          <note vol="55" pos="7104" pan="0" key="78" len="12"/>
          <note vol="55" pos="7200" pan="0" key="54" len="12"/>
          <note vol="55" pos="7296" pan="0" key="73" len="12"/>
          <note vol="55" pos="7368" pan="0" key="78" len="12"/>
          <note vol="55" pos="7392" pan="0" key="78" len="12"/>
          <note vol="55" pos="7464" pan="0" key="76" len="12"/>
          <note vol="55" pos="7488" pan="0" key="78" len="12"/>
          <note vol="55" pos="7512" pan="0" key="80" len="12"/>
          <note vol="55" pos="7536" pan="0" key="81" len="12"/>
          <note vol="55" pos="7560" pan="0" key="76" len="12"/>
          <note vol="55" pos="7584" pan="0" key="78" len="12"/>
          <note vol="55" pos="7584" pan="0" key="54" len="12"/>
          <note vol="55" pos="7608" pan="0" key="80" len="12"/>
          <note vol="55" pos="7632" pan="0" key="83" len="12"/>
          <note vol="55" pos="7656" pan="0" key="80" len="12"/>
          <note vol="55" pos="7680" pan="0" key="73" len="11"/>
          <note vol="55" pos="7752" pan="0" key="78" len="12"/>
          <note vol="55" pos="7776" pan="0" key="78" len="12"/>
          <note vol="55" pos="7848" pan="0" key="76" len="12"/>
          <note vol="55" pos="7872" pan="0" key="78" len="12"/>
          <note vol="55" pos="7968" pan="0" key="54" len="12"/>
          <note vol="55" pos="8064" pan="0" key="73" len="12"/>
          <note vol="55" pos="8136" pan="0" key="78" len="12"/>
          <note vol="55" pos="8160" pan="0" key="78" len="12"/>
          <note vol="55" pos="8232" pan="0" key="76" len="12"/>
          <note vol="55" pos="8256" pan="0" key="78" len="12"/>
          <note vol="55" pos="8352" pan="0" key="54" len="12"/>
          <note vol="55" pos="8448" pan="0" key="73" len="11"/>
          <note vol="55" pos="8520" pan="0" key="78" len="12"/>
          <note vol="55" pos="8544" pan="0" key="78" len="12"/>
          <note vol="55" pos="8616" pan="0" key="76" len="12"/>
          <note vol="55" pos="8640" pan="0" key="78" len="12"/>
          <note vol="55" pos="8736" pan="0" key="54" len="12"/>
          <note vol="55" pos="8832" pan="0" key="73" len="12"/>
          <note vol="55" pos="8904" pan="0" key="78" len="12"/>
          <note vol="55" pos="8928" pan="0" key="78" len="12"/>
          <note vol="55" pos="9000" pan="0" key="76" len="12"/>
          <note vol="55" pos="9024" pan="0" key="78" len="12"/>
          <note vol="55" pos="9048" pan="0" key="80" len="12"/>
          <note vol="55" pos="9072" pan="0" key="81" len="12"/>
          <note vol="55" pos="9096" pan="0" key="76" len="12"/>
          <note vol="55" pos="9120" pan="0" key="78" len="12"/>
          <note vol="55" pos="9120" pan="0" key="54" len="12"/>
          <note vol="55" pos="9144" pan="0" key="80" len="12"/>
          <note vol="55" pos="9168" pan="0" key="83" len="12"/>
          <note vol="55" pos="9192" pan="0" key="80" len="12"/>
          <note vol="55" pos="9216" pan="0" key="73" len="11"/>
          <note vol="55" pos="9288" pan="0" key="78" len="12"/>
          <note vol="55" pos="9312" pan="0" key="78" len="12"/>
          <note vol="55" pos="9384" pan="0" key="76" len="12"/>
          <note vol="55" pos="9408" pan="0" key="78" len="12"/>
          <note vol="55" pos="9504" pan="0" key="54" len="12"/>
          <note vol="55" pos="9600" pan="0" key="73" len="12"/>
          <note vol="55" pos="9672" pan="0" key="78" len="12"/>
          <note vol="55" pos="9696" pan="0" key="78" len="12"/>
          <note vol="55" pos="9768" pan="0" key="76" len="12"/>
          <note vol="55" pos="9792" pan="0" key="78" len="12"/>
          <note vol="55" pos="9888" pan="0" key="54" len="12"/>
          <note vol="55" pos="9984" pan="0" key="73" len="11"/>
          <note vol="55" pos="10056" pan="0" key="78" len="12"/>
          <note vol="55" pos="10080" pan="0" key="78" len="12"/>
          <note vol="55" pos="10152" pan="0" key="76" len="12"/>
          <note vol="55" pos="10176" pan="0" key="78" len="12"/>
          <note vol="55" pos="10272" pan="0" key="54" len="12"/>
          <note vol="55" pos="10368" pan="0" key="73" len="12"/>
          <note vol="55" pos="10440" pan="0" key="78" len="12"/>
          <note vol="55" pos="10464" pan="0" key="78" len="12"/>
          <note vol="55" pos="10536" pan="0" key="76" len="12"/>
          <note vol="55" pos="10560" pan="0" key="78" len="12"/>
          <note vol="55" pos="10584" pan="0" key="80" len="12"/>
          <note vol="55" pos="10608" pan="0" key="81" len="12"/>
          <note vol="55" pos="10632" pan="0" key="76" len="12"/>
          <note vol="55" pos="10656" pan="0" key="78" len="12"/>
          <note vol="55" pos="10656" pan="0" key="54" len="12"/>
          <note vol="55" pos="10680" pan="0" key="80" len="12"/>
          <note vol="55" pos="10704" pan="0" key="83" len="12"/>
          <note vol="55" pos="10728" pan="0" key="80" len="12"/>
          <note vol="55" pos="10752" pan="0" key="73" len="11"/>
          <note vol="55" pos="10824" pan="0" key="78" len="12"/>
          <note vol="55" pos="10848" pan="0" key="78" len="12"/>
          <note vol="55" pos="10920" pan="0" key="76" len="12"/>
          <note vol="55" pos="10944" pan="0" key="78" len="12"/>
          <note vol="55" pos="11040" pan="0" key="54" len="12"/>
          <note vol="55" pos="11136" pan="0" key="73" len="12"/>
          <note vol="55" pos="11208" pan="0" key="78" len="12"/>
          <note vol="55" pos="11232" pan="0" key="78" len="12"/>
          <note vol="55" pos="11304" pan="0" key="76" len="12"/>
          <note vol="55" pos="11328" pan="0" key="78" len="12"/>
          <note vol="55" pos="11424" pan="0" key="54" len="12"/>
          <note vol="55" pos="11520" pan="0" key="73" len="11"/>
          <note vol="55" pos="11592" pan="0" key="78" len="12"/>
          <note vol="55" pos="11616" pan="0" key="78" len="12"/>
          <note vol="55" pos="11688" pan="0" key="76" len="12"/>
          <note vol="55" pos="11712" pan="0" key="78" len="12"/>
          <note vol="55" pos="11808" pan="0" key="54" len="12"/>
          <note vol="55" pos="11904" pan="0" key="73" len="12"/>
          <note vol="55" pos="11976" pan="0" key="78" len="12"/>
          <note vol="55" pos="12000" pan="0" key="78" len="12"/>
          <note vol="55" pos="12072" pan="0" key="76" len="12"/>
          <note vol="55" pos="12096" pan="0" key="78" len="12"/>
          <note vol="55" pos="12120" pan="0" key="80" len="12"/>
          <note vol="55" pos="12144" pan="0" key="81" len="12"/>
          <note vol="55" pos="12168" pan="0" key="76" len="12"/>
          <note vol="55" pos="12192" pan="0" key="78" len="12"/>
          <note vol="55" pos="12192" pan="0" key="54" len="12"/>
          <note vol="55" pos="12216" pan="0" key="80" len="12"/>
          <note vol="55" pos="12240" pan="0" key="83" len="12"/>
          <note vol="55" pos="12264" pan="0" key="80" len="12"/>
          <note vol="55" pos="12288" pan="0" key="66" len="11"/>
          <note vol="55" pos="12288" pan="0" key="54" len="11"/>
          <note vol="55" pos="12456" pan="0" key="78" len="6"/>
          <note vol="55" pos="12462" pan="0" key="81" len="6"/>
          <note vol="55" pos="12468" pan="0" key="85" len="6"/>
          <note vol="55" pos="12474" pan="0" key="88" len="6"/>
          <note vol="55" pos="12480" pan="0" key="90" len="6"/>
          <note vol="55" pos="12648" pan="0" key="81" len="6"/>
          <note vol="55" pos="12654" pan="0" key="85" len="6"/>
          <note vol="55" pos="12660" pan="0" key="88" len="6"/>
          <note vol="55" pos="12666" pan="0" key="90" len="6"/>
          <note vol="55" pos="12672" pan="0" key="93" len="6"/>
          <note vol="55" pos="12840" pan="0" key="85" len="6"/>
          <note vol="55" pos="12846" pan="0" key="88" len="6"/>
          <note vol="55" pos="12852" pan="0" key="90" len="6"/>
          <note vol="55" pos="12858" pan="0" key="93" len="6"/>
          <note vol="55" pos="12864" pan="0" key="92" len="6"/>
          <note vol="55" pos="12960" pan="0" key="88" len="6"/>
          <note vol="55" pos="13008" pan="0" key="83" len="5"/>
          <note vol="55" pos="13056" pan="0" key="85" len="11"/>
          <note vol="55" pos="13056" pan="0" key="66" len="11"/>
          <note vol="55" pos="13056" pan="0" key="54" len="11"/>
          <note vol="55" pos="13224" pan="0" key="78" len="6"/>
          <note vol="55" pos="13230" pan="0" key="81" len="6"/>
          <note vol="55" pos="13236" pan="0" key="85" len="6"/>
          <note vol="55" pos="13242" pan="0" key="88" len="6"/>
          <note vol="55" pos="13248" pan="0" key="90" len="6"/>
          <note vol="55" pos="13416" pan="0" key="81" len="6"/>
          <note vol="55" pos="13422" pan="0" key="85" len="6"/>
          <note vol="55" pos="13428" pan="0" key="88" len="6"/>
          <note vol="55" pos="13434" pan="0" key="90" len="6"/>
          <note vol="55" pos="13440" pan="0" key="93" len="6"/>
          <note vol="55" pos="13608" pan="0" key="85" len="6"/>
          <note vol="55" pos="13614" pan="0" key="88" len="6"/>
          <note vol="55" pos="13620" pan="0" key="90" len="6"/>
          <note vol="55" pos="13626" pan="0" key="95" len="6"/>
          <note vol="55" pos="13632" pan="0" key="92" len="6"/>
          <note vol="55" pos="13728" pan="0" key="88" len="6"/>
          <note vol="55" pos="13776" pan="0" key="83" len="5"/>
          <note vol="80" pos="13824" pan="0" key="54" len="11"/>
          <note vol="80" pos="13824" pan="0" key="42" len="11"/>
        </pattern>
        <pattern pos="17664" steps="16" muted="0" type="1" name="">
          <note vol="80" pos="0" pan="0" key="54" len="11"/>
          <note vol="80" pos="0" pan="0" key="42" len="11"/>
        </pattern>
        <pattern pos="27648" steps="16" muted="0" type="1" name="">
          <note vol="55" pos="0" pan="0" key="78" len="11"/>
          <note vol="55" pos="36" pan="0" key="76" len="12"/>
          <note vol="55" pos="72" pan="0" key="78" len="12"/>
          <note vol="55" pos="96" pan="0" key="73" len="12"/>
          <note vol="55" pos="132" pan="0" key="81" len="12"/>
          <note vol="55" pos="168" pan="0" key="80" len="12"/>
          <note vol="55" pos="192" pan="0" key="78" len="12"/>
          <note vol="55" pos="228" pan="0" key="76" len="12"/>
          <note vol="55" pos="264" pan="0" key="78" len="12"/>
          <note vol="55" pos="288" pan="0" key="73" len="12"/>
          <note vol="55" pos="324" pan="0" key="81" len="12"/>
          <note vol="55" pos="360" pan="0" key="80" len="12"/>
          <note vol="55" pos="384" pan="0" key="78" len="12"/>
          <note vol="55" pos="420" pan="0" key="76" len="12"/>
          <note vol="55" pos="456" pan="0" key="78" len="12"/>
          <note vol="55" pos="480" pan="0" key="73" len="12"/>
          <note vol="55" pos="516" pan="0" key="81" len="12"/>
          <note vol="55" pos="552" pan="0" key="80" len="12"/>
          <note vol="55" pos="576" pan="0" key="78" len="12"/>
          <note vol="55" pos="612" pan="0" key="76" len="12"/>
          <note vol="55" pos="648" pan="0" key="78" len="12"/>
          <note vol="55" pos="672" pan="0" key="73" len="12"/>
          <note vol="55" pos="708" pan="0" key="81" len="12"/>
          <note vol="55" pos="744" pan="0" key="80" len="12"/>
          <note vol="55" pos="768" pan="0" key="78" len="11"/>
          <note vol="55" pos="804" pan="0" key="76" len="12"/>
          <note vol="55" pos="840" pan="0" key="78" len="12"/>
          <note vol="55" pos="864" pan="0" key="73" len="12"/>
          <note vol="55" pos="900" pan="0" key="81" len="12"/>
          <note vol="55" pos="936" pan="0" key="80" len="12"/>
          <note vol="55" pos="960" pan="0" key="78" len="12"/>
          <note vol="55" pos="996" pan="0" key="76" len="12"/>
          <note vol="55" pos="1032" pan="0" key="78" len="12"/>
          <note vol="55" pos="1056" pan="0" key="73" len="12"/>
          <note vol="55" pos="1092" pan="0" key="81" len="12"/>
          <note vol="55" pos="1128" pan="0" key="80" len="12"/>
          <note vol="55" pos="1152" pan="0" key="78" len="12"/>
          <note vol="55" pos="1188" pan="0" key="76" len="12"/>
          <note vol="55" pos="1224" pan="0" key="78" len="12"/>
          <note vol="55" pos="1248" pan="0" key="73" len="12"/>
          <note vol="55" pos="1284" pan="0" key="81" len="12"/>
          <note vol="55" pos="1320" pan="0" key="80" len="12"/>
          <note vol="55" pos="1344" pan="0" key="78" len="12"/>
          <note vol="55" pos="1380" pan="0" key="76" len="12"/>
          <note vol="55" pos="1416" pan="0" key="78" len="12"/>
          <note vol="55" pos="1440" pan="0" key="80" len="12"/>
          <note vol="55" pos="1476" pan="0" key="81" len="12"/>
          <note vol="55" pos="1512" pan="0" key="76" len="12"/>
          <note vol="55" pos="1536" pan="0" key="78" len="11"/>
          <note vol="55" pos="1572" pan="0" key="76" len="12"/>
          <note vol="55" pos="1608" pan="0" key="78" len="12"/>
          <note vol="55" pos="1632" pan="0" key="73" len="12"/>
          <note vol="55" pos="1668" pan="0" key="81" len="12"/>
          <note vol="55" pos="1704" pan="0" key="80" len="12"/>
          <note vol="55" pos="1728" pan="0" key="78" len="12"/>
          <note vol="55" pos="1764" pan="0" key="76" len="12"/>
          <note vol="55" pos="1800" pan="0" key="78" len="12"/>
          <note vol="55" pos="1824" pan="0" key="73" len="12"/>
          <note vol="55" pos="1860" pan="0" key="81" len="12"/>
          <note vol="55" pos="1896" pan="0" key="80" len="12"/>
          <note vol="55" pos="1920" pan="0" key="78" len="12"/>
          <note vol="55" pos="1956" pan="0" key="76" len="12"/>
          <note vol="55" pos="1992" pan="0" key="78" len="12"/>
          <note vol="55" pos="2016" pan="0" key="73" len="12"/>
          <note vol="55" pos="2052" pan="0" key="81" len="12"/>
          <note vol="55" pos="2088" pan="0" key="80" len="12"/>
          <note vol="55" pos="2112" pan="0" key="78" len="12"/>
          <note vol="55" pos="2148" pan="0" key="76" len="12"/>
          <note vol="55" pos="2184" pan="0" key="78" len="12"/>
          <note vol="55" pos="2208" pan="0" key="73" len="12"/>
          <note vol="55" pos="2244" pan="0" key="81" len="12"/>
          <note vol="55" pos="2280" pan="0" key="80" len="12"/>
          <note vol="55" pos="2304" pan="0" key="78" len="11"/>
          <note vol="55" pos="2340" pan="0" key="76" len="12"/>
          <note vol="55" pos="2376" pan="0" key="78" len="12"/>
          <note vol="55" pos="2400" pan="0" key="73" len="12"/>
          <note vol="55" pos="2436" pan="0" key="81" len="12"/>
          <note vol="55" pos="2472" pan="0" key="80" len="12"/>
          <note vol="55" pos="2496" pan="0" key="78" len="12"/>
          <note vol="55" pos="2532" pan="0" key="76" len="12"/>
          <note vol="55" pos="2568" pan="0" key="78" len="12"/>
          <note vol="55" pos="2592" pan="0" key="73" len="12"/>
          <note vol="55" pos="2628" pan="0" key="81" len="12"/>
          <note vol="55" pos="2664" pan="0" key="80" len="12"/>
          <note vol="55" pos="2688" pan="0" key="78" len="12"/>
          <note vol="55" pos="2724" pan="0" key="76" len="12"/>
          <note vol="55" pos="2760" pan="0" key="78" len="12"/>
          <note vol="55" pos="2784" pan="0" key="73" len="12"/>
          <note vol="55" pos="2820" pan="0" key="81" len="12"/>
          <note vol="55" pos="2856" pan="0" key="80" len="12"/>
          <note vol="55" pos="2880" pan="0" key="78" len="12"/>
          <note vol="55" pos="2916" pan="0" key="76" len="12"/>
          <note vol="55" pos="2952" pan="0" key="78" len="12"/>
          <note vol="55" pos="2976" pan="0" key="80" len="12"/>
          <note vol="55" pos="3012" pan="0" key="81" len="12"/>
          <note vol="55" pos="3048" pan="0" key="76" len="12"/>
          <note vol="55" pos="3072" pan="0" key="66" len="11"/>
          <note vol="55" pos="3072" pan="0" key="54" len="11"/>
          <note vol="55" pos="3240" pan="0" key="78" len="6"/>
          <note vol="55" pos="3246" pan="0" key="81" len="6"/>
          <note vol="55" pos="3252" pan="0" key="85" len="6"/>
          <note vol="55" pos="3258" pan="0" key="88" len="6"/>
          <note vol="59" pos="3264" pan="0" key="90" len="6"/>
          <note vol="55" pos="3456" pan="0" key="81" len="12"/>
          <note vol="55" pos="3492" pan="0" key="80" len="12"/>
          <note vol="55" pos="3528" pan="0" key="81" len="12"/>
          <note vol="55" pos="3552" pan="0" key="80" len="12"/>
          <note vol="55" pos="3588" pan="0" key="76" len="12"/>
          <note vol="55" pos="3624" pan="0" key="73" len="12"/>
          <note vol="55" pos="3648" pan="0" key="69" len="12"/>
          <note vol="55" pos="3684" pan="0" key="68" len="12"/>
          <note vol="55" pos="3720" pan="0" key="69" len="12"/>
          <note vol="55" pos="3744" pan="0" key="68" len="12"/>
          <note vol="55" pos="3780" pan="0" key="71" len="12"/>
          <note vol="55" pos="3816" pan="0" key="68" len="12"/>
          <note vol="55" pos="3840" pan="0" key="66" len="11"/>
          <note vol="55" pos="3840" pan="0" key="54" len="11"/>
          <note vol="55" pos="4008" pan="0" key="78" len="6"/>
          <note vol="55" pos="4014" pan="0" key="81" len="6"/>
          <note vol="55" pos="4020" pan="0" key="85" len="6"/>
          <note vol="55" pos="4026" pan="0" key="88" len="6"/>
          <note vol="75" pos="4032" pan="0" key="78" len="6"/>
          <note vol="55" pos="4224" pan="0" key="81" len="12"/>
          <note vol="55" pos="4260" pan="0" key="80" len="12"/>
          <note vol="55" pos="4296" pan="0" key="81" len="12"/>
          <note vol="55" pos="4320" pan="0" key="80" len="12"/>
          <note vol="55" pos="4356" pan="0" key="76" len="12"/>
          <note vol="55" pos="4392" pan="0" key="73" len="12"/>
          <note vol="40" pos="4416" pan="0" key="93" len="12"/>
          <note vol="40" pos="4452" pan="0" key="92" len="12"/>
          <note vol="40" pos="4488" pan="0" key="93" len="12"/>
          <note vol="40" pos="4512" pan="0" key="92" len="12"/>
          <note vol="40" pos="4548" pan="0" key="95" len="12"/>
          <note vol="40" pos="4584" pan="0" key="92" len="12"/>
          <note vol="40" pos="4608" pan="0" key="90" len="11"/>
          <note vol="55" pos="4608" pan="0" key="78" len="11"/>
          <note vol="55" pos="4608" pan="0" key="66" len="11"/>
          <note vol="55" pos="4680" pan="0" key="66" len="12"/>
          <note vol="55" pos="4704" pan="0" key="66" len="12"/>
          <note vol="55" pos="4776" pan="0" key="66" len="12"/>
          <note vol="55" pos="4800" pan="0" key="66" len="12"/>
          <note vol="55" pos="4872" pan="0" key="66" len="12"/>
          <note vol="55" pos="4896" pan="0" key="66" len="12"/>
          <note vol="55" pos="4944" pan="0" key="66" len="12"/>
          <note vol="55" pos="4992" pan="0" key="66" len="12"/>
          <note vol="55" pos="5064" pan="0" key="66" len="12"/>
          <note vol="55" pos="5088" pan="0" key="66" len="12"/>
          <note vol="55" pos="5160" pan="0" key="66" len="12"/>
          <note vol="55" pos="5184" pan="0" key="66" len="12"/>
          <note vol="55" pos="5256" pan="0" key="66" len="12"/>
          <note vol="55" pos="5280" pan="0" key="66" len="12"/>
          <note vol="55" pos="5352" pan="0" key="66" len="12"/>
          <note vol="55" pos="5376" pan="0" key="69" len="11"/>
          <note vol="55" pos="5448" pan="0" key="69" len="12"/>
          <note vol="55" pos="5472" pan="0" key="69" len="12"/>
          <note vol="55" pos="5544" pan="0" key="69" len="12"/>
          <note vol="55" pos="5568" pan="0" key="69" len="12"/>
          <note vol="55" pos="5640" pan="0" key="69" len="12"/>
          <note vol="55" pos="5664" pan="0" key="69" len="12"/>
          <note vol="55" pos="5712" pan="0" key="69" len="12"/>
          <note vol="55" pos="5760" pan="0" key="68" len="12"/>
          <note vol="55" pos="5832" pan="0" key="68" len="12"/>
          <note vol="55" pos="5856" pan="0" key="68" len="12"/>
          <note vol="55" pos="5928" pan="0" key="68" len="12"/>
          <note vol="55" pos="5952" pan="0" key="68" len="12"/>
          <note vol="55" pos="6024" pan="0" key="68" len="12"/>
          <note vol="55" pos="6048" pan="0" key="68" len="12"/>
          <note vol="55" pos="6072" pan="0" key="68" len="12"/>
          <note vol="55" pos="6096" pan="0" key="64" len="12"/>
          <note vol="55" pos="6120" pan="0" key="64" len="12"/>
          <note vol="55" pos="6144" pan="0" key="73" len="11"/>
          <note vol="55" pos="6216" pan="0" key="78" len="12"/>
          <note vol="55" pos="6240" pan="0" key="78" len="12"/>
          <note vol="55" pos="6312" pan="0" key="76" len="12"/>
          <note vol="55" pos="6336" pan="0" key="78" len="12"/>
          <note vol="55" pos="6432" pan="0" key="54" len="12"/>
          <note vol="55" pos="6528" pan="0" key="73" len="12"/>
          <note vol="55" pos="6600" pan="0" key="78" len="12"/>
          <note vol="55" pos="6624" pan="0" key="78" len="12"/>
          <note vol="55" pos="6696" pan="0" key="76" len="12"/>
          <note vol="55" pos="6720" pan="0" key="78" len="12"/>
          <note vol="55" pos="6816" pan="0" key="54" len="12"/>
          <note vol="55" pos="6912" pan="0" key="73" len="11"/>
          <note vol="55" pos="6984" pan="0" key="78" len="12"/>
          <note vol="55" pos="7008" pan="0" key="78" len="12"/>
          <note vol="55" pos="7080" pan="0" key="76" len="12"/>
          <note vol="55" pos="7104" pan="0" key="78" len="12"/>
          <note vol="55" pos="7200" pan="0" key="54" len="12"/>
          <note vol="55" pos="7296" pan="0" key="73" len="12"/>
          <note vol="55" pos="7368" pan="0" key="78" len="12"/>
          <note vol="55" pos="7392" pan="0" key="78" len="12"/>
          <note vol="55" pos="7464" pan="0" key="76" len="12"/>
          <note vol="55" pos="7488" pan="0" key="78" len="12"/>
          <note vol="55" pos="7512" pan="0" key="80" len="12"/>
          <note vol="55" pos="7536" pan="0" key="81" len="12"/>
          <note vol="55" pos="7560" pan="0" key="76" len="12"/>
          <note vol="55" pos="7584" pan="0" key="78" len="12"/>
          <note vol="55" pos="7584" pan="0" key="54" len="12"/>
          <note vol="55" pos="7608" pan="0" key="80" len="12"/>
          <note vol="55" pos="7632" pan="0" key="83" len="12"/>
          <note vol="55" pos="7656" pan="0" key="80" len="12"/>
          <note vol="55" pos="7680" pan="0" key="73" len="11"/>
          <note vol="55" pos="7752" pan="0" key="78" len="12"/>
          <note vol="55" pos="7776" pan="0" key="78" len="12"/>
          <note vol="55" pos="7848" pan="0" key="76" len="12"/>
          <note vol="55" pos="7872" pan="0" key="78" len="12"/>
          <note vol="55" pos="7968" pan="0" key="54" len="12"/>
          <note vol="55" pos="8064" pan="0" key="73" len="12"/>
          <note vol="55" pos="8136" pan="0" key="78" len="12"/>
          <note vol="55" pos="8160" pan="0" key="78" len="12"/>
          <note vol="55" pos="8232" pan="0" key="76" len="12"/>
          <note vol="55" pos="8256" pan="0" key="78" len="12"/>
          <note vol="55" pos="8352" pan="0" key="54" len="12"/>
          <note vol="55" pos="8448" pan="0" key="73" len="11"/>
          <note vol="55" pos="8520" pan="0" key="78" len="12"/>
          <note vol="55" pos="8544" pan="0" key="78" len="12"/>
          <note vol="55" pos="8616" pan="0" key="76" len="12"/>
          <note vol="55" pos="8640" pan="0" key="78" len="12"/>
          <note vol="55" pos="8736" pan="0" key="54" len="12"/>
          <note vol="55" pos="8832" pan="0" key="73" len="12"/>
          <note vol="55" pos="8904" pan="0" key="78" len="12"/>
          <note vol="55" pos="8928" pan="0" key="78" len="12"/>
          <note vol="55" pos="9000" pan="0" key="76" len="12"/>
          <note vol="55" pos="9024" pan="0" key="78" len="12"/>
          <note vol="55" pos="9048" pan="0" key="80" len="12"/>
          <note vol="55" pos="9072" pan="0" key="81" len="12"/>
          <note vol="55" pos="9096" pan="0" key="76" len="12"/>
          <note vol="55" pos="9120" pan="0" key="78" len="12"/>
          <note vol="55" pos="9120" pan="0" key="54" len="12"/>
          <note vol="55" pos="9144" pan="0" key="80" len="12"/>
          <note vol="55" pos="9168" pan="0" key="83" len="12"/>
          <note vol="55" pos="9192" pan="0" key="80" len="12"/>
          <note vol="55" pos="9216" pan="0" key="73" len="11"/>
          <note vol="55" pos="9288" pan="0" key="78" len="12"/>
          <note vol="55" pos="9312" pan="0" key="78" len="12"/>
          <note vol="55" pos="9384" pan="0" key="76" len="12"/>
          <note vol="55" pos="9408" pan="0" key="78" len="12"/>
          <note vol="55" pos="9504" pan="0" key="54" len="12"/>
          <note vol="55" pos="9600" pan="0" key="73" len="12"/>
          <note vol="55" pos="9672" pan="0" key="78" len="12"/>
          <note vol="55" pos="9696" pan="0" key="78" len="12"/>
          <note vol="55" pos="9768" pan="0" key="76" len="12"/>
          <note vol="55" pos="9792" pan="0" key="78" len="12"/>
          <note vol="55" pos="9888" pan="0" key="54" len="12"/>
          <note vol="55" pos="9984" pan="0" key="73" len="11"/>
          <note vol="55" pos="10056" pan="0" key="78" len="12"/>
          <note vol="55" pos="10080" pan="0" key="78" len="12"/>
          <note vol="55" pos="10152" pan="0" key="76" len="12"/>
          <note vol="55" pos="10176" pan="0" key="78" len="12"/>
          <note vol="55" pos="10272" pan="0" key="54" len="12"/>
          <note vol="55" pos="10368" pan="0" key="73" len="12"/>
          <note vol="55" pos="10440" pan="0" key="78" len="12"/>
          <note vol="55" pos="10464" pan="0" key="78" len="12"/>
          <note vol="55" pos="10536" pan="0" key="76" len="12"/>
          <note vol="55" pos="10560" pan="0" key="78" len="12"/>
          <note vol="55" pos="10584" pan="0" key="80" len="12"/>
          <note vol="55" pos="10608" pan="0" key="81" len="12"/>
          <note vol="55" pos="10632" pan="0" key="76" len="12"/>
          <note vol="55" pos="10656" pan="0" key="78" len="12"/>
          <note vol="55" pos="10656" pan="0" key="54" len="12"/>
          <note vol="55" pos="10680" pan="0" key="80" len="12"/>
          <note vol="55" pos="10704" pan="0" key="83" len="12"/>
          <note vol="55" pos="10728" pan="0" key="80" len="12"/>
          <note vol="55" pos="10752" pan="0" key="73" len="11"/>
          <note vol="55" pos="10824" pan="0" key="78" len="12"/>
          <note vol="55" pos="10848" pan="0" key="78" len="12"/>
          <note vol="55" pos="10920" pan="0" key="76" len="12"/>
          <note vol="55" pos="10944" pan="0" key="78" len="12"/>
          <note vol="55" pos="11040" pan="0" key="54" len="12"/>
          <note vol="55" pos="11136" pan="0" key="73" len="12"/>
          <note vol="55" pos="11208" pan="0" key="78" len="12"/>
          <note vol="55" pos="11232" pan="0" key="78" len="12"/>
          <note vol="55" pos="11304" pan="0" key="76" len="12"/>
          <note vol="55" pos="11328" pan="0" key="78" len="12"/>
          <note vol="55" pos="11424" pan="0" key="54" len="12"/>
          <note vol="55" pos="11520" pan="0" key="73" len="11"/>
          <note vol="55" pos="11592" pan="0" key="78" len="12"/>
          <note vol="55" pos="11616" pan="0" key="78" len="12"/>
          <note vol="55" pos="11688" pan="0" key="76" len="12"/>
          <note vol="55" pos="11712" pan="0" key="78" len="12"/>
          <note vol="55" pos="11808" pan="0" key="54" len="12"/>
          <note vol="55" pos="11904" pan="0" key="73" len="12"/>
          <note vol="55" pos="11976" pan="0" key="78" len="12"/>
          <note vol="55" pos="12000" pan="0" key="78" len="12"/>
          <note vol="55" pos="12072" pan="0" key="76" len="12"/>
          <note vol="55" pos="12096" pan="0" key="78" len="12"/>
          <note vol="55" pos="12120" pan="0" key="80" len="12"/>
          <note vol="55" pos="12144" pan="0" key="81" len="12"/>
          <note vol="55" pos="12168" pan="0" key="76" len="12"/>
          <note vol="55" pos="12192" pan="0" key="78" len="12"/>
          <note vol="55" pos="12192" pan="0" key="54" len="12"/>
          <note vol="55" pos="12216" pan="0" key="80" len="12"/>
          <note vol="55" pos="12240" pan="0" key="83" len="12"/>
          <note vol="55" pos="12264" pan="0" key="80" len="12"/>
          <note vol="55" pos="12288" pan="0" key="66" len="11"/>
          <note vol="55" pos="12288" pan="0" key="54" len="11"/>
          <note vol="55" pos="12456" pan="0" key="78" len="6"/>
          <note vol="55" pos="12462" pan="0" key="81" len="6"/>
          <note vol="55" pos="12468" pan="0" key="85" len="6"/>
          <note vol="55" pos="12474" pan="0" key="88" len="6"/>
          <note vol="55" pos="12480" pan="0" key="90" len="6"/>
          <note vol="55" pos="12648" pan="0" key="81" len="6"/>
          <note vol="55" pos="12654" pan="0" key="85" len="6"/>
          <note vol="55" pos="12660" pan="0" key="88" len="6"/>
          <note vol="55" pos="12666" pan="0" key="90" len="6"/>
          <note vol="55" pos="12672" pan="0" key="93" len="6"/>
          <note vol="55" pos="12840" pan="0" key="85" len="6"/>
          <note vol="55" pos="12846" pan="0" key="88" len="6"/>
          <note vol="55" pos="12852" pan="0" key="90" len="6"/>
          <note vol="55" pos="12858" pan="0" key="93" len="6"/>
          <note vol="55" pos="12864" pan="0" key="92" len="6"/>
          <note vol="55" pos="12960" pan="0" key="88" len="6"/>
          <note vol="55" pos="13008" pan="0" key="83" len="5"/>
          <note vol="55" pos="13056" pan="0" key="85" len="11"/>
          <note vol="55" pos="13056" pan="0" key="66" len="11"/>
          <note vol="55" pos="13056" pan="0" key="54" len="11"/>
          <note vol="55" pos="13224" pan="0" key="78" len="6"/>
          <note vol="55" pos="13230" pan="0" key="81" len="6"/>
          <note vol="55" pos="13236" pan="0" key="85" len="6"/>
          <note vol="55" pos="13242" pan="0" key="88" len="6"/>
          <note vol="55" pos="13248" pan="0" key="90" len="6"/>
          <note vol="55" pos="13416" pan="0" key="81" len="6"/>
          <note vol="55" pos="13422" pan="0" key="85" len="6"/>
          <note vol="55" pos="13428" pan="0" key="88" len="6"/>
          <note vol="55" pos="13434" pan="0" key="90" len="6"/>
          <note vol="55" pos="13440" pan="0" key="93" len="6"/>
          <note vol="55" pos="13608" pan="0" key="85" len="6"/>
          <note vol="55" pos="13614" pan="0" key="88" len="6"/>
          <note vol="55" pos="13620" pan="0" key="90" len="6"/>
          <note vol="55" pos="13626" pan="0" key="95" len="6"/>
          <note vol="55" pos="13632" pan="0" key="92" len="6"/>
          <note vol="55" pos="13728" pan="0" key="88" len="6"/>
          <note vol="55" pos="13776" pan="0" key="83" len="5"/>
          <note vol="80" pos="13824" pan="0" key="54" len="767"/>
          <note vol="80" pos="13824" pan="0" key="42" len="767"/>
        </pattern>
      </track>
      <track muted="0" type="5" mutedBeforeSolo="0" solo="0" name="Sustain pedal">
        <automationtrack/>
        <automationpattern pos="0" mute="0" name="CC Controller 64" tens="1" len="42240" prog="1">
          <time pos="0" value="0" outValue="0"/>
          <time pos="768" value="127" outValue="127"/>
          <object id="35702"/>
        </automationpattern>
      </track>
      <track muted="0" type="0" mutedBeforeSolo="0" solo="0" name="Addictive Keys">
        <instrumenttrack vol="100" pan="0" fxch="0" lastkey="127" basenote="69" firstkey="0" enablecc="0" pitch="0" pitchrange="2" usemasterpitch="1">
          <midicontrollers cc67="0" cc0="0" cc19="0" cc66="0" cc1="0" cc31="0" cc59="0" cc40="0" cc84="0" cc56="0" cc21="0" cc121="0" cc27="0" cc12="0" cc79="0" cc83="0" cc115="0" cc124="0" cc92="0" cc23="0" cc77="0" cc86="0" cc13="0" cc127="0" cc60="0" cc96="0" cc126="0" cc103="0" cc61="0" cc93="0" cc89="0" cc10="0" cc81="0" cc54="0" cc52="0" cc45="0" cc48="0" cc85="0" cc90="0" cc8="0" cc78="0" cc43="0" cc14="0" cc80="0" cc102="0" cc69="0" cc120="0" cc33="0" cc119="0" cc5="0" cc29="0" cc20="0" cc91="0" cc99="0" cc4="0" cc15="0" cc7="0" cc87="0" cc18="0" cc9="0" cc50="0" cc58="0" cc55="0" cc36="0" cc65="0" cc109="0" cc57="0" cc30="0" cc46="0" cc25="0" cc106="0" cc38="0" cc73="0" cc114="0" cc42="0" cc3="0" cc122="0" cc28="0" cc70="0" cc6="0" cc51="0" cc72="0" cc95="0" cc104="0" cc37="0" cc123="0" cc26="0" cc94="0" cc74="0" cc17="0" cc32="0" cc16="0" cc22="0" cc107="0" cc49="0" cc47="0" cc100="0" cc34="0" cc62="0" cc53="0" cc11="0" cc35="0" cc97="0" cc98="0" cc105="0" cc2="0" cc71="0" cc117="0" cc82="0" cc108="0" cc24="0" cc88="0" cc101="0" cc44="0" cc111="0" cc112="0" cc125="0" cc68="0" cc63="0" cc76="0" cc64="0" cc41="0" cc110="0" cc113="0" cc116="0" cc75="0" cc39="0" cc118="0"/>
          <instrument name="vestige">
            <vestige chunk="Q09UVEFLU3RhdGVWZXJzaW9uADIAQWR2YW5jZWRHVUlFbmFibGUAMABBdWRpb1BsYXllcl9HYWluADEAQXVkaW9QbGF5ZXJfTG9vcAAwAEF1ZGlvUGxheWVyX1BsYXkAMABEb0xvYWREZWZhdWx0UHJlc2V0ADAARXhwbG9yZUZpbGVBbmRQYXJhbXMAeyBFeHBsb3JlRmlsZSA9ICJNb2Rlcm5VcEFzUmVjb3JkZWQuRXhwbG9yZSIsIFBhcmFtcyA9IHsgRHluYW1pY3JhbmdlID0gMSwgRnggPSAwLjE4NDMzMTgwNDUxMzkzLCBSYXRlc2hpZnQgPSAwLjkwNjAzNDE3MTU4MTI3LCBUb25lID0gMC42ODgxNDM0MzIxNDAzNX19AEV4cGxvcmVXYXJuaW5nVmlzaWJsZQAwAEZYTGF5ZXIxL0NoTWEvRVFfSW5zX0VRX0N1dEhpRnJlcQAxAEZYTGF5ZXIxL0NoTWEvRVFfSW5zX0VRX0N1dEhpUQAwLjUARlhMYXllcjEvQ2hNYS9FUV9JbnNfRVFfQ3V0TG9GcmVxADAARlhMYXllcjEvQ2hNYS9FUV9JbnNfRVFfQ3V0TG9RADAuNQBGWExheWVyMS9DaE1hL0VRX0luc19FUV9FbmFibGUAMABGWExheWVyMS9DaE1hL0VRX0luc19FUV9IaUZyZXEAMC44MDEyMDQ4MDEARlhMYXllcjEvQ2hNYS9FUV9JbnNfRVFfSGlHYWluADAuNQBGWExheWVyMS9DaE1hL0VRX0luc19FUV9IaVEAMC42OTk5OTk5ODgARlhMYXllcjEvQ2hNYS9FUV9JbnNfRVFfTG9GcmVxADAuMTk3NTkwMzUxAEZYTGF5ZXIxL0NoTWEvRVFfSW5zX0VRX0xvR2FpbgAwLjUARlhMYXllcjEvQ2hNYS9FUV9JbnNfRVFfTG9RADAuNjk5OTk5OTg4AEZYTGF5ZXIxL0NoTWEvRVFfSW5zX0VRX01pZEZyZXEAMC41MDA0MDE2NzYARlhMYXllcjEvQ2hNYS9FUV9JbnNfRVFfTWlkR2FpbgAwLjUARlhMYXllcjEvQ2hNYS9FUV9JbnNfRVFfTWlkUQAwLjY5OTk5OTk4OABGWExheWVyMS9DaE1hL0ZpbHRlcl9JbnNfRmlsdGVyX0VuYWJsZQAwAEZYTGF5ZXIxL0NoTWEvRmlsdGVyX0luc19GaWx0ZXJfSGkAMQBGWExheWVyMS9DaE1hL0ZpbHRlcl9JbnNfRmlsdGVyX0xvADAARlhMYXllcjEvQ2hNYS9HVUlNdXRlADAARlhMYXllcjEvQ2hNYS9HVUlTb2xvADAARlhMYXllcjEvQ2hNYS9MZXZlbFNsaWRlcgAwLjc1Nzk4MjMxNABGWExheWVyMS9DaE1hL011bHRpRlgvQ2hvcnVzX0FsdGVybmF0ZQAwAEZYTGF5ZXIxL0NoTWEvTXVsdGlGWC9DaG9ydXNfRGVwdGgAMC41AEZYTGF5ZXIxL0NoTWEvTXVsdGlGWC9DaG9ydXNfRW5hYmxlADEARlhMYXllcjEvQ2hNYS9NdWx0aUZYL0Nob3J1c19GaWx0ZXJIaQAxAEZYTGF5ZXIxL0NoTWEvTXVsdGlGWC9DaG9ydXNfRmlsdGVyTG8AMABGWExheWVyMS9DaE1hL011bHRpRlgvQ2hvcnVzX01peAAwLjUARlhMYXllcjEvQ2hNYS9NdWx0aUZYL0Nob3J1c19SYXRlADAuNQBGWExheWVyMS9DaE1hL011bHRpRlgvQ2hvcnVzX1N0ZXJlb1dpZHRoADAuNQBGWExheWVyMS9DaE1hL011bHRpRlgvQ2hvcnVzX1ZvaWNlcwA1AEZYTGF5ZXIxL0NoTWEvTXVsdGlGWC9DaG9ydXNfWE1vZDJNaXgAMC41AEZYTGF5ZXIxL0NoTWEvTXVsdGlGWC9Db21wRGlzdF9Db21wX0F0dGFjawAwLjIwMDAwMDAwMwBGWExheWVyMS9DaE1hL011bHRpRlgvQ29tcERpc3RfQ29tcF9FbmFibGUAMABGWExheWVyMS9DaE1hL011bHRpRlgvQ29tcERpc3RfQ29tcF9SYXRpbwAwLjUARlhMYXllcjEvQ2hNYS9NdWx0aUZYL0NvbXBEaXN0X0NvbXBfUmVsZWFzZQAwLjIwMDAwMDAwMwBGWExheWVyMS9DaE1hL011bHRpRlgvQ29tcERpc3RfQ29tcF9UaHJlc2hvbGQAMC41AEZYTGF5ZXIxL0NoTWEvTXVsdGlGWC9Db21wRGlzdF9EaXN0X0Ftb3VudAAwLjUARlhMYXllcjEvQ2hNYS9NdWx0aUZYL0NvbXBEaXN0X0Rpc3RfRW5hYmxlADAARlhMYXllcjEvQ2hNYS9NdWx0aUZYL0NvbXBEaXN0X0Rpc3RfRnJlcUhpADEARlhMYXllcjEvQ2hNYS9NdWx0aUZYL0NvbXBEaXN0X0Rpc3RfRnJlcUxvADAARlhMYXllcjEvQ2hNYS9NdWx0aUZYL0NvbXBEaXN0X0Rpc3RfTWl4ADAuNQBGWExheWVyMS9DaE1hL011bHRpRlgvQ29tcERpc3RfRGlzdF9UeXBlADUARlhMYXllcjEvQ2hNYS9NdWx0aUZYL0N1cnJlbnRTZWxlY3Rpb24AQ29tcABGWExheWVyMS9DaE1hL011bHRpRlgvRW5hYmxlADAARlhMYXllcjEvQ2hNYS9NdWx0aUZYL1BoYXNlcl9FbmFibGUAMQBGWExheWVyMS9DaE1hL011bHRpRlgvUGhhc2VyX0ZlZWRiYWNrADAuNQBGWExheWVyMS9DaE1hL011bHRpRlgvUGhhc2VyX0xldmVsADAuNQBGWExheWVyMS9DaE1hL011bHRpRlgvUGhhc2VyX01vZERlcHRoADAuNQBGWExheWVyMS9DaE1hL011bHRpRlgvUGhhc2VyX01vZFJhdGUAMC41AEZYTGF5ZXIxL0NoTWEvTXVsdGlGWC9QaGFzZXJfTW9kU2hhcGUAMABGWExheWVyMS9DaE1hL011bHRpRlgvUGhhc2VyX01vZFNoYXBlSW52ZXJ0ADAARlhMYXllcjEvQ2hNYS9NdWx0aUZYL1BoYXNlcl9Nb2RTdGVyZW8AMQBGWExheWVyMS9DaE1hL011bHRpRlgvUGhhc2VyX1BoYXNlADAuNQBGWExheWVyMS9DaE1hL011bHRpRlgvUGhhc2VyX1N0YWdlcwAxMgBGWExheWVyMS9DaE1hL011bHRpRlgvUGhhc2VyX1RlbXBvU3luYwAwAEZYTGF5ZXIxL0NoTWEvTXVsdGlGWC9QaGFzZXJfWE1vZDJGZWVkYmFjawAwLjUARlhMYXllcjEvQ2hNYS9NdWx0aUZYL1BoYXNlcl9YTW9kMkxldmVsADAuNQBGWExheWVyMS9DaE1hL011bHRpRlgvVHJlbW9sb19EZXB0aAAwLjUARlhMYXllcjEvQ2hNYS9NdWx0aUZYL1RyZW1vbG9fRW5hYmxlADEARlhMYXllcjEvQ2hNYS9NdWx0aUZYL1RyZW1vbG9fRmlsdGVyQ3V0b2ZmADAuNQBGWExheWVyMS9DaE1hL011bHRpRlgvVHJlbW9sb19GaWx0ZXJEZXB0aAAwLjUARlhMYXllcjEvQ2hNYS9NdWx0aUZYL1RyZW1vbG9fRmlsdGVyRW5hYmxlADAARlhMYXllcjEvQ2hNYS9NdWx0aUZYL1RyZW1vbG9fUGFubmVyRGVwdGgAMC41AEZYTGF5ZXIxL0NoTWEvTXVsdGlGWC9UcmVtb2xvX1JhdGUAMC40MDAwMDAwMDYARlhMYXllcjEvQ2hNYS9NdWx0aUZYL1RyZW1vbG9fU2hhcGUAMABGWExheWVyMS9DaE1hL011bHRpRlgvVHJlbW9sb19TaGFwZUludmVydAAwAEZYTGF5ZXIxL0NoTWEvTXVsdGlGWC9UcmVtb2xvX1RlbXBvU3luYwAwAEZYTGF5ZXIxL0NoTWEvTXVsdGlGWC9UcmVtb2xvX1hNb2QyRGVwdGgAMC41AEZYTGF5ZXIxL0NoTWEvTXVsdGlGWC9UcmVtb2xvX1hNb2QyRmlsdGVyQ3V0b2ZmADAuNQBGWExheWVyMS9DaE1hL011bHRpRlgvVHJlbW9sb19YTW9kMkZpbHRlckRlcHRoADAuNQBGWExheWVyMS9DaE1hL011bHRpRlgvVHJlbW9sb19YTW9kMlBhbm5lckRlcHRoADAuNQBGWExheWVyMS9DaE1hL011bHRpRlhQcmUvQ2hvcnVzX0FsdGVybmF0ZQAwAEZYTGF5ZXIxL0NoTWEvTXVsdGlGWFByZS9DaG9ydXNfRGVwdGgAMC41AEZYTGF5ZXIxL0NoTWEvTXVsdGlGWFByZS9DaG9ydXNfRW5hYmxlADEARlhMYXllcjEvQ2hNYS9NdWx0aUZYUHJlL0Nob3J1c19GaWx0ZXJIaQAxAEZYTGF5ZXIxL0NoTWEvTXVsdGlGWFByZS9DaG9ydXNfRmlsdGVyTG8AMABGWExheWVyMS9DaE1hL011bHRpRlhQcmUvQ2hvcnVzX01peAAwLjUARlhMYXllcjEvQ2hNYS9NdWx0aUZYUHJlL0Nob3J1c19SYXRlADAuNQBGWExheWVyMS9DaE1hL011bHRpRlhQcmUvQ2hvcnVzX1N0ZXJlb1dpZHRoADAuNQBGWExheWVyMS9DaE1hL011bHRpRlhQcmUvQ2hvcnVzX1ZvaWNlcwA1AEZYTGF5ZXIxL0NoTWEvTXVsdGlGWFByZS9DaG9ydXNfWE1vZDJNaXgAMC41AEZYTGF5ZXIxL0NoTWEvTXVsdGlGWFByZS9Db21wRGlzdF9Db21wX0F0dGFjawAwLjIwMDAwMDAwMwBGWExheWVyMS9DaE1hL011bHRpRlhQcmUvQ29tcERpc3RfQ29tcF9FbmFibGUAMABGWExheWVyMS9DaE1hL011bHRpRlhQcmUvQ29tcERpc3RfQ29tcF9SYXRpbwAwLjUARlhMYXllcjEvQ2hNYS9NdWx0aUZYUHJlL0NvbXBEaXN0X0NvbXBfUmVsZWFzZQAwLjIwMDAwMDAwMwBGWExheWVyMS9DaE1hL011bHRpRlhQcmUvQ29tcERpc3RfQ29tcF9UaHJlc2hvbGQAMC41AEZYTGF5ZXIxL0NoTWEvTXVsdGlGWFByZS9Db21wRGlzdF9EaXN0X0Ftb3VudAAwLjUARlhMYXllcjEvQ2hNYS9NdWx0aUZYUHJlL0NvbXBEaXN0X0Rpc3RfRW5hYmxlADAARlhMYXllcjEvQ2hNYS9NdWx0aUZYUHJlL0NvbXBEaXN0X0Rpc3RfRnJlcUhpADEARlhMYXllcjEvQ2hNYS9NdWx0aUZYUHJlL0NvbXBEaXN0X0Rpc3RfRnJlcUxvADAARlhMYXllcjEvQ2hNYS9NdWx0aUZYUHJlL0NvbXBEaXN0X0Rpc3RfTWl4ADAuNQBGWExheWVyMS9DaE1hL011bHRpRlhQcmUvQ29tcERpc3RfRGlzdF9UeXBlADUARlhMYXllcjEvQ2hNYS9NdWx0aUZYUHJlL0N1cnJlbnRTZWxlY3Rpb24AUGhhc2VyAEZYTGF5ZXIxL0NoTWEvTXVsdGlGWFByZS9FbmFibGUAMABGWExheWVyMS9DaE1hL011bHRpRlhQcmUvUGhhc2VyX0VuYWJsZQAxAEZYTGF5ZXIxL0NoTWEvTXVsdGlGWFByZS9QaGFzZXJfRmVlZGJhY2sAMC41AEZYTGF5ZXIxL0NoTWEvTXVsdGlGWFByZS9QaGFzZXJfTGV2ZWwAMC41AEZYTGF5ZXIxL0NoTWEvTXVsdGlGWFByZS9QaGFzZXJfTW9kRGVwdGgAMC41AEZYTGF5ZXIxL0NoTWEvTXVsdGlGWFByZS9QaGFzZXJfTW9kUmF0ZQAwLjUARlhMYXllcjEvQ2hNYS9NdWx0aUZYUHJlL1BoYXNlcl9Nb2RTaGFwZQAwAEZYTGF5ZXIxL0NoTWEvTXVsdGlGWFByZS9QaGFzZXJfTW9kU2hhcGVJbnZlcnQAMABGWExheWVyMS9DaE1hL011bHRpRlhQcmUvUGhhc2VyX01vZFN0ZXJlbwAxAEZYTGF5ZXIxL0NoTWEvTXVsdGlGWFByZS9QaGFzZXJfUGhhc2UAMC41AEZYTGF5ZXIxL0NoTWEvTXVsdGlGWFByZS9QaGFzZXJfU3RhZ2VzADEyAEZYTGF5ZXIxL0NoTWEvTXVsdGlGWFByZS9QaGFzZXJfVGVtcG9TeW5jADAARlhMYXllcjEvQ2hNYS9NdWx0aUZYUHJlL1BoYXNlcl9YTW9kMkZlZWRiYWNrADAuNQBGWExheWVyMS9DaE1hL011bHRpRlhQcmUvUGhhc2VyX1hNb2QyTGV2ZWwAMC41AEZYTGF5ZXIxL0NoTWEvTXVsdGlGWFByZS9UcmVtb2xvX0RlcHRoADAuNQBGWExheWVyMS9DaE1hL011bHRpRlhQcmUvVHJlbW9sb19FbmFibGUAMQBGWExheWVyMS9DaE1hL011bHRpRlhQcmUvVHJlbW9sb19GaWx0ZXJDdXRvZmYAMC41AEZYTGF5ZXIxL0NoTWEvTXVsdGlGWFByZS9UcmVtb2xvX0ZpbHRlckRlcHRoADAuNQBGWExheWVyMS9DaE1hL011bHRpRlhQcmUvVHJlbW9sb19GaWx0ZXJFbmFibGUAMABGWExheWVyMS9DaE1hL011bHRpRlhQcmUvVHJlbW9sb19QYW5uZXJEZXB0aAAwLjUARlhMYXllcjEvQ2hNYS9NdWx0aUZYUHJlL1RyZW1vbG9fUmF0ZQAwLjQwMDAwMDAwNgBGWExheWVyMS9DaE1hL011bHRpRlhQcmUvVHJlbW9sb19TaGFwZQAwAEZYTGF5ZXIxL0NoTWEvTXVsdGlGWFByZS9UcmVtb2xvX1NoYXBlSW52ZXJ0ADAARlhMYXllcjEvQ2hNYS9NdWx0aUZYUHJlL1RyZW1vbG9fVGVtcG9TeW5jADAARlhMYXllcjEvQ2hNYS9NdWx0aUZYUHJlL1RyZW1vbG9fWE1vZDJEZXB0aAAwLjUARlhMYXllcjEvQ2hNYS9NdWx0aUZYUHJlL1RyZW1vbG9fWE1vZDJGaWx0ZXJDdXRvZmYAMC41AEZYTGF5ZXIxL0NoTWEvTXVsdGlGWFByZS9UcmVtb2xvX1hNb2QyRmlsdGVyRGVwdGgAMC41AEZYTGF5ZXIxL0NoTWEvTXVsdGlGWFByZS9UcmVtb2xvX1hNb2QyUGFubmVyRGVwdGgAMC41AEZYTGF5ZXIxL0NoTWEvTm9pc2VfRGVjYXlUaW1lADAuNQBGWExheWVyMS9DaE1hL05vaXNlX0VuYWJsZQAwAEZYTGF5ZXIxL0NoTWEvTm9pc2VfR2F0ZUxldmVsADAuNDQ5OTk5OTg4AEZYTGF5ZXIxL0NoTWEvTm9pc2VfTWlkaVRyaWdnZXIAMQBGWExheWVyMS9DaE1hL05vaXNlX05vaXNlTGV2ZWwAMC41AEZYTGF5ZXIxL0NoTWEvTm9pc2VfTm9pc2VUeXBlADAARlhMYXllcjEvQ2hNYS9QYW5fUGFuADAuNQBGWExheWVyMS9DaE1hL1Bhbl9XaWR0aAAwAEZYTGF5ZXIxL0ZYMS9FUV9JbnNfRVFfQ3V0SGlGcmVxADEARlhMYXllcjEvRlgxL0VRX0luc19FUV9DdXRIaVEAMC41AEZYTGF5ZXIxL0ZYMS9FUV9JbnNfRVFfQ3V0TG9GcmVxADAARlhMYXllcjEvRlgxL0VRX0luc19FUV9DdXRMb1EAMC41AEZYTGF5ZXIxL0ZYMS9FUV9JbnNfRVFfRW5hYmxlADAARlhMYXllcjEvRlgxL0VRX0luc19FUV9IaUZyZXEAMC44MDEyMDQ4MDEARlhMYXllcjEvRlgxL0VRX0luc19FUV9IaUdhaW4AMC41AEZYTGF5ZXIxL0ZYMS9FUV9JbnNfRVFfSGlRADAuNjk5OTk5OTg4AEZYTGF5ZXIxL0ZYMS9FUV9JbnNfRVFfTG9GcmVxADAuMTk3NTkwMzUxAEZYTGF5ZXIxL0ZYMS9FUV9JbnNfRVFfTG9HYWluADAuNQBGWExheWVyMS9GWDEvRVFfSW5zX0VRX0xvUQAwLjY5OTk5OTk4OABGWExheWVyMS9GWDEvRVFfSW5zX0VRX01pZEZyZXEAMC41MDA0MDE2NzYARlhMYXllcjEvRlgxL0VRX0luc19FUV9NaWRHYWluADAuNQBGWExheWVyMS9GWDEvRVFfSW5zX0VRX01pZFEAMC42OTk5OTk5ODgARlhMYXllcjEvRlgxL0dVSU11dGUAMABGWExheWVyMS9GWDEvR1VJU29sbwAwAEZYTGF5ZXIxL0ZYMS9MZXZlbFNsaWRlcgAwLjg0OTgxOTA2NABGWExheWVyMS9GWDEvTXVsdGlGWC9DaG9ydXNfQWx0ZXJuYXRlADAARlhMYXllcjEvRlgxL011bHRpRlgvQ2hvcnVzX0RlcHRoADAuNQBGWExheWVyMS9GWDEvTXVsdGlGWC9DaG9ydXNfRW5hYmxlADEARlhMYXllcjEvRlgxL011bHRpRlgvQ2hvcnVzX0ZpbHRlckhpADEARlhMYXllcjEvRlgxL011bHRpRlgvQ2hvcnVzX0ZpbHRlckxvADAARlhMYXllcjEvRlgxL011bHRpRlgvQ2hvcnVzX01peAAwLjUARlhMYXllcjEvRlgxL011bHRpRlgvQ2hvcnVzX1JhdGUAMC41AEZYTGF5ZXIxL0ZYMS9NdWx0aUZYL0Nob3J1c19TdGVyZW9XaWR0aAAwLjUARlhMYXllcjEvRlgxL011bHRpRlgvQ2hvcnVzX1ZvaWNlcwA1AEZYTGF5ZXIxL0ZYMS9NdWx0aUZYL0Nob3J1c19YTW9kMk1peAAwLjUARlhMYXllcjEvRlgxL011bHRpRlgvQ29tcERpc3RfQ29tcF9BdHRhY2sAMC4yMDAwMDAwMDMARlhMYXllcjEvRlgxL011bHRpRlgvQ29tcERpc3RfQ29tcF9FbmFibGUAMABGWExheWVyMS9GWDEvTXVsdGlGWC9Db21wRGlzdF9Db21wX1JhdGlvADAuNQBGWExheWVyMS9GWDEvTXVsdGlGWC9Db21wRGlzdF9Db21wX1JlbGVhc2UAMC4yMDAwMDAwMDMARlhMYXllcjEvRlgxL011bHRpRlgvQ29tcERpc3RfQ29tcF9UaHJlc2hvbGQAMC41AEZYTGF5ZXIxL0ZYMS9NdWx0aUZYL0NvbXBEaXN0X0Rpc3RfQW1vdW50ADAuNQBGWExheWVyMS9GWDEvTXVsdGlGWC9Db21wRGlzdF9EaXN0X0VuYWJsZQAwAEZYTGF5ZXIxL0ZYMS9NdWx0aUZYL0NvbXBEaXN0X0Rpc3RfRnJlcUhpADEARlhMYXllcjEvRlgxL011bHRpRlgvQ29tcERpc3RfRGlzdF9GcmVxTG8AMABGWExheWVyMS9GWDEvTXVsdGlGWC9Db21wRGlzdF9EaXN0X01peAAwLjUARlhMYXllcjEvRlgxL011bHRpRlgvQ29tcERpc3RfRGlzdF9UeXBlADUARlhMYXllcjEvRlgxL011bHRpRlgvQ3VycmVudFNlbGVjdGlvbgBDaG9ydXMARlhMYXllcjEvRlgxL011bHRpRlgvRW5hYmxlADAARlhMYXllcjEvRlgxL011bHRpRlgvUGhhc2VyX0VuYWJsZQAxAEZYTGF5ZXIxL0ZYMS9NdWx0aUZYL1BoYXNlcl9GZWVkYmFjawAwLjUARlhMYXllcjEvRlgxL011bHRpRlgvUGhhc2VyX0xldmVsADAuNQBGWExheWVyMS9GWDEvTXVsdGlGWC9QaGFzZXJfTW9kRGVwdGgAMC41AEZYTGF5ZXIxL0ZYMS9NdWx0aUZYL1BoYXNlcl9Nb2RSYXRlADAuNQBGWExheWVyMS9GWDEvTXVsdGlGWC9QaGFzZXJfTW9kU2hhcGUAMABGWExheWVyMS9GWDEvTXVsdGlGWC9QaGFzZXJfTW9kU2hhcGVJbnZlcnQAMABGWExheWVyMS9GWDEvTXVsdGlGWC9QaGFzZXJfTW9kU3RlcmVvADEARlhMYXllcjEvRlgxL011bHRpRlgvUGhhc2VyX1BoYXNlADAuNQBGWExheWVyMS9GWDEvTXVsdGlGWC9QaGFzZXJfU3RhZ2VzADEyAEZYTGF5ZXIxL0ZYMS9NdWx0aUZYL1BoYXNlcl9UZW1wb1N5bmMAMABGWExheWVyMS9GWDEvTXVsdGlGWC9QaGFzZXJfWE1vZDJGZWVkYmFjawAwLjUARlhMYXllcjEvRlgxL011bHRpRlgvUGhhc2VyX1hNb2QyTGV2ZWwAMC41AEZYTGF5ZXIxL0ZYMS9NdWx0aUZYL1RyZW1vbG9fRGVwdGgAMC41AEZYTGF5ZXIxL0ZYMS9NdWx0aUZYL1RyZW1vbG9fRW5hYmxlADEARlhMYXllcjEvRlgxL011bHRpRlgvVHJlbW9sb19GaWx0ZXJDdXRvZmYAMC41AEZYTGF5ZXIxL0ZYMS9NdWx0aUZYL1RyZW1vbG9fRmlsdGVyRGVwdGgAMC41AEZYTGF5ZXIxL0ZYMS9NdWx0aUZYL1RyZW1vbG9fRmlsdGVyRW5hYmxlADAARlhMYXllcjEvRlgxL011bHRpRlgvVHJlbW9sb19QYW5uZXJEZXB0aAAwLjUARlhMYXllcjEvRlgxL011bHRpRlgvVHJlbW9sb19SYXRlADAuNDAwMDAwMDA2AEZYTGF5ZXIxL0ZYMS9NdWx0aUZYL1RyZW1vbG9fU2hhcGUAMABGWExheWVyMS9GWDEvTXVsdGlGWC9UcmVtb2xvX1NoYXBlSW52ZXJ0ADAARlhMYXllcjEvRlgxL011bHRpRlgvVHJlbW9sb19UZW1wb1N5bmMAMABGWExheWVyMS9GWDEvTXVsdGlGWC9UcmVtb2xvX1hNb2QyRGVwdGgAMC41AEZYTGF5ZXIxL0ZYMS9NdWx0aUZYL1RyZW1vbG9fWE1vZDJGaWx0ZXJDdXRvZmYAMC41AEZYTGF5ZXIxL0ZYMS9NdWx0aUZYL1RyZW1vbG9fWE1vZDJGaWx0ZXJEZXB0aAAwLjUARlhMYXllcjEvRlgxL011bHRpRlgvVHJlbW9sb19YTW9kMlBhbm5lckRlcHRoADAuNQBGWExheWVyMS9GWDEvTXVsdGlGWEluc3RyL0N1cnJlbnRTZWxlY3Rpb24AUmVzbzEyAEZYTGF5ZXIxL0ZYMS9NdWx0aUZYSW5zdHIvRW5hYmxlADEARlhMYXllcjEvRlgxL011bHRpRlhQcmUvQ2hvcnVzX0FsdGVybmF0ZQAwAEZYTGF5ZXIxL0ZYMS9NdWx0aUZYUHJlL0Nob3J1c19EZXB0aAAwLjUARlhMYXllcjEvRlgxL011bHRpRlhQcmUvQ2hvcnVzX0VuYWJsZQAxAEZYTGF5ZXIxL0ZYMS9NdWx0aUZYUHJlL0Nob3J1c19GaWx0ZXJIaQAxAEZYTGF5ZXIxL0ZYMS9NdWx0aUZYUHJlL0Nob3J1c19GaWx0ZXJMbwAwAEZYTGF5ZXIxL0ZYMS9NdWx0aUZYUHJlL0Nob3J1c19NaXgAMC41AEZYTGF5ZXIxL0ZYMS9NdWx0aUZYUHJlL0Nob3J1c19SYXRlADAuNQBGWExheWVyMS9GWDEvTXVsdGlGWFByZS9DaG9ydXNfU3RlcmVvV2lkdGgAMC41AEZYTGF5ZXIxL0ZYMS9NdWx0aUZYUHJlL0Nob3J1c19Wb2ljZXMANQBGWExheWVyMS9GWDEvTXVsdGlGWFByZS9DaG9ydXNfWE1vZDJNaXgAMC41AEZYTGF5ZXIxL0ZYMS9NdWx0aUZYUHJlL0NvbXBEaXN0X0NvbXBfQXR0YWNrADAuMjAwMDAwMDAzAEZYTGF5ZXIxL0ZYMS9NdWx0aUZYUHJlL0NvbXBEaXN0X0NvbXBfRW5hYmxlADAARlhMYXllcjEvRlgxL011bHRpRlhQcmUvQ29tcERpc3RfQ29tcF9SYXRpbwAwLjUARlhMYXllcjEvRlgxL011bHRpRlhQcmUvQ29tcERpc3RfQ29tcF9SZWxlYXNlADAuMjAwMDAwMDAzAEZYTGF5ZXIxL0ZYMS9NdWx0aUZYUHJlL0NvbXBEaXN0X0NvbXBfVGhyZXNob2xkADAuNQBGWExheWVyMS9GWDEvTXVsdGlGWFByZS9Db21wRGlzdF9EaXN0X0Ftb3VudAAwLjUARlhMYXllcjEvRlgxL011bHRpRlhQcmUvQ29tcERpc3RfRGlzdF9FbmFibGUAMABGWExheWVyMS9GWDEvTXVsdGlGWFByZS9Db21wRGlzdF9EaXN0X0ZyZXFIaQAxAEZYTGF5ZXIxL0ZYMS9NdWx0aUZYUHJlL0NvbXBEaXN0X0Rpc3RfRnJlcUxvADAARlhMYXllcjEvRlgxL011bHRpRlhQcmUvQ29tcERpc3RfRGlzdF9NaXgAMC41AEZYTGF5ZXIxL0ZYMS9NdWx0aUZYUHJlL0NvbXBEaXN0X0Rpc3RfVHlwZQA1AEZYTGF5ZXIxL0ZYMS9NdWx0aUZYUHJlL0N1cnJlbnRTZWxlY3Rpb24AVHJlbW9sbwBGWExheWVyMS9GWDEvTXVsdGlGWFByZS9FbmFibGUAMABGWExheWVyMS9GWDEvTXVsdGlGWFByZS9QaGFzZXJfRW5hYmxlADEARlhMYXllcjEvRlgxL011bHRpRlhQcmUvUGhhc2VyX0ZlZWRiYWNrADAuNQBGWExheWVyMS9GWDEvTXVsdGlGWFByZS9QaGFzZXJfTGV2ZWwAMC41AEZYTGF5ZXIxL0ZYMS9NdWx0aUZYUHJlL1BoYXNlcl9Nb2REZXB0aAAwLjUARlhMYXllcjEvRlgxL011bHRpRlhQcmUvUGhhc2VyX01vZFJhdGUAMC41AEZYTGF5ZXIxL0ZYMS9NdWx0aUZYUHJlL1BoYXNlcl9Nb2RTaGFwZQAwAEZYTGF5ZXIxL0ZYMS9NdWx0aUZYUHJlL1BoYXNlcl9Nb2RTaGFwZUludmVydAAwAEZYTGF5ZXIxL0ZYMS9NdWx0aUZYUHJlL1BoYXNlcl9Nb2RTdGVyZW8AMQBGWExheWVyMS9GWDEvTXVsdGlGWFByZS9QaGFzZXJfUGhhc2UAMC41AEZYTGF5ZXIxL0ZYMS9NdWx0aUZYUHJlL1BoYXNlcl9TdGFnZXMAMTIARlhMYXllcjEvRlgxL011bHRpRlhQcmUvUGhhc2VyX1RlbXBvU3luYwAwAEZYTGF5ZXIxL0ZYMS9NdWx0aUZYUHJlL1BoYXNlcl9YTW9kMkZlZWRiYWNrADAuNQBGWExheWVyMS9GWDEvTXVsdGlGWFByZS9QaGFzZXJfWE1vZDJMZXZlbAAwLjUARlhMYXllcjEvRlgxL011bHRpRlhQcmUvVHJlbW9sb19EZXB0aAAwLjUARlhMYXllcjEvRlgxL011bHRpRlhQcmUvVHJlbW9sb19FbmFibGUAMQBGWExheWVyMS9GWDEvTXVsdGlGWFByZS9UcmVtb2xvX0ZpbHRlckN1dG9mZgAwLjUARlhMYXllcjEvRlgxL011bHRpRlhQcmUvVHJlbW9sb19GaWx0ZXJEZXB0aAAwLjUARlhMYXllcjEvRlgxL011bHRpRlhQcmUvVHJlbW9sb19GaWx0ZXJFbmFibGUAMABGWExheWVyMS9GWDEvTXVsdGlGWFByZS9UcmVtb2xvX1Bhbm5lckRlcHRoADAuNQBGWExheWVyMS9GWDEvTXVsdGlGWFByZS9UcmVtb2xvX1JhdGUAMC40MDAwMDAwMDYARlhMYXllcjEvRlgxL011bHRpRlhQcmUvVHJlbW9sb19TaGFwZQAwAEZYTGF5ZXIxL0ZYMS9NdWx0aUZYUHJlL1RyZW1vbG9fU2hhcGVJbnZlcnQAMABGWExheWVyMS9GWDEvTXVsdGlGWFByZS9UcmVtb2xvX1RlbXBvU3luYwAwAEZYTGF5ZXIxL0ZYMS9NdWx0aUZYUHJlL1RyZW1vbG9fWE1vZDJEZXB0aAAwLjUARlhMYXllcjEvRlgxL011bHRpRlhQcmUvVHJlbW9sb19YTW9kMkZpbHRlckN1dG9mZgAwLjUARlhMYXllcjEvRlgxL011bHRpRlhQcmUvVHJlbW9sb19YTW9kMkZpbHRlckRlcHRoADAuNQBGWExheWVyMS9GWDEvTXVsdGlGWFByZS9UcmVtb2xvX1hNb2QyUGFubmVyRGVwdGgAMC41AEZYTGF5ZXIxL0ZYMS9Ob2lzZV9EZWNheVRpbWUAMC41AEZYTGF5ZXIxL0ZYMS9Ob2lzZV9FbmFibGUAMABGWExheWVyMS9GWDEvTm9pc2VfR2F0ZUxldmVsADAuNDQ5OTk5OTg4AEZYTGF5ZXIxL0ZYMS9Ob2lzZV9NaWRpVHJpZ2dlcgAxAEZYTGF5ZXIxL0ZYMS9Ob2lzZV9Ob2lzZUxldmVsADAuNQBGWExheWVyMS9GWDEvTm9pc2VfTm9pc2VUeXBlADAARlhMYXllcjEvRlgxL1Bhbl9QYW4AMC41AEZYTGF5ZXIxL0ZYMS9QYW5fV2lkdGgAMABGWExheWVyMS9GWDEvU2VuZDFLbm9iADAARlhMYXllcjEvRlgxL1NlbmQyS25vYgAwAEZYTGF5ZXIxL0ZYMS9Tb3VyY2VDaGFubmVsADcARlhMYXllcjEvRlgyL0VRX0luc19FUV9DdXRIaUZyZXEAMQBGWExheWVyMS9GWDIvRVFfSW5zX0VRX0N1dEhpUQAwLjUARlhMYXllcjEvRlgyL0VRX0luc19FUV9DdXRMb0ZyZXEAMABGWExheWVyMS9GWDIvRVFfSW5zX0VRX0N1dExvUQAwLjUARlhMYXllcjEvRlgyL0VRX0luc19FUV9FbmFibGUAMABGWExheWVyMS9GWDIvRVFfSW5zX0VRX0hpRnJlcQAwLjgwMTIwNDgwMQBGWExheWVyMS9GWDIvRVFfSW5zX0VRX0hpR2FpbgAwLjUARlhMYXllcjEvRlgyL0VRX0luc19FUV9IaVEAMC42OTk5OTk5ODgARlhMYXllcjEvRlgyL0VRX0luc19FUV9Mb0ZyZXEAMC4xOTc1OTAzNTEARlhMYXllcjEvRlgyL0VRX0luc19FUV9Mb0dhaW4AMC41AEZYTGF5ZXIxL0ZYMi9FUV9JbnNfRVFfTG9RADAuNjk5OTk5OTg4AEZYTGF5ZXIxL0ZYMi9FUV9JbnNfRVFfTWlkRnJlcQAwLjUwMDQwMTY3NgBGWExheWVyMS9GWDIvRVFfSW5zX0VRX01pZEdhaW4AMC41AEZYTGF5ZXIxL0ZYMi9FUV9JbnNfRVFfTWlkUQAwLjY5OTk5OTk4OABGWExheWVyMS9GWDIvR1VJTXV0ZQAwAEZYTGF5ZXIxL0ZYMi9HVUlTb2xvADAARlhMYXllcjEvRlgyL0xldmVsU2xpZGVyADAuODQyNDcyMTM2AEZYTGF5ZXIxL0ZYMi9NdWx0aUZYL0Nob3J1c19BbHRlcm5hdGUAMABGWExheWVyMS9GWDIvTXVsdGlGWC9DaG9ydXNfRGVwdGgAMC41AEZYTGF5ZXIxL0ZYMi9NdWx0aUZYL0Nob3J1c19FbmFibGUAMQBGWExheWVyMS9GWDIvTXVsdGlGWC9DaG9ydXNfRmlsdGVySGkAMQBGWExheWVyMS9GWDIvTXVsdGlGWC9DaG9ydXNfRmlsdGVyTG8AMABGWExheWVyMS9GWDIvTXVsdGlGWC9DaG9ydXNfTWl4ADAuNQBGWExheWVyMS9GWDIvTXVsdGlGWC9DaG9ydXNfUmF0ZQAwLjUARlhMYXllcjEvRlgyL011bHRpRlgvQ2hvcnVzX1N0ZXJlb1dpZHRoADAuNQBGWExheWVyMS9GWDIvTXVsdGlGWC9DaG9ydXNfVm9pY2VzADUARlhMYXllcjEvRlgyL011bHRpRlgvQ2hvcnVzX1hNb2QyTWl4ADAuNQBGWExheWVyMS9GWDIvTXVsdGlGWC9Db21wRGlzdF9Db21wX0F0dGFjawAwLjIwMDAwMDAwMwBGWExheWVyMS9GWDIvTXVsdGlGWC9Db21wRGlzdF9Db21wX0VuYWJsZQAwAEZYTGF5ZXIxL0ZYMi9NdWx0aUZYL0NvbXBEaXN0X0NvbXBfUmF0aW8AMC41AEZYTGF5ZXIxL0ZYMi9NdWx0aUZYL0NvbXBEaXN0X0NvbXBfUmVsZWFzZQAwLjIwMDAwMDAwMwBGWExheWVyMS9GWDIvTXVsdGlGWC9Db21wRGlzdF9Db21wX1RocmVzaG9sZAAwLjUARlhMYXllcjEvRlgyL011bHRpRlgvQ29tcERpc3RfRGlzdF9BbW91bnQAMC41AEZYTGF5ZXIxL0ZYMi9NdWx0aUZYL0NvbXBEaXN0X0Rpc3RfRW5hYmxlADAARlhMYXllcjEvRlgyL011bHRpRlgvQ29tcERpc3RfRGlzdF9GcmVxSGkAMQBGWExheWVyMS9GWDIvTXVsdGlGWC9Db21wRGlzdF9EaXN0X0ZyZXFMbwAwAEZYTGF5ZXIxL0ZYMi9NdWx0aUZYL0NvbXBEaXN0X0Rpc3RfTWl4ADAuNQBGWExheWVyMS9GWDIvTXVsdGlGWC9Db21wRGlzdF9EaXN0X1R5cGUANQBGWExheWVyMS9GWDIvTXVsdGlGWC9DdXJyZW50U2VsZWN0aW9uAENob3J1cwBGWExheWVyMS9GWDIvTXVsdGlGWC9FbmFibGUAMABGWExheWVyMS9GWDIvTXVsdGlGWC9QaGFzZXJfRW5hYmxlADEARlhMYXllcjEvRlgyL011bHRpRlgvUGhhc2VyX0ZlZWRiYWNrADAuNQBGWExheWVyMS9GWDIvTXVsdGlGWC9QaGFzZXJfTGV2ZWwAMC41AEZYTGF5ZXIxL0ZYMi9NdWx0aUZYL1BoYXNlcl9Nb2REZXB0aAAwLjUARlhMYXllcjEvRlgyL011bHRpRlgvUGhhc2VyX01vZFJhdGUAMC41AEZYTGF5ZXIxL0ZYMi9NdWx0aUZYL1BoYXNlcl9Nb2RTaGFwZQAwAEZYTGF5ZXIxL0ZYMi9NdWx0aUZYL1BoYXNlcl9Nb2RTaGFwZUludmVydAAwAEZYTGF5ZXIxL0ZYMi9NdWx0aUZYL1BoYXNlcl9Nb2RTdGVyZW8AMQBGWExheWVyMS9GWDIvTXVsdGlGWC9QaGFzZXJfUGhhc2UAMC41AEZYTGF5ZXIxL0ZYMi9NdWx0aUZYL1BoYXNlcl9TdGFnZXMAMTIARlhMYXllcjEvRlgyL011bHRpRlgvUGhhc2VyX1RlbXBvU3luYwAwAEZYTGF5ZXIxL0ZYMi9NdWx0aUZYL1BoYXNlcl9YTW9kMkZlZWRiYWNrADAuNQBGWExheWVyMS9GWDIvTXVsdGlGWC9QaGFzZXJfWE1vZDJMZXZlbAAwLjUARlhMYXllcjEvRlgyL011bHRpRlgvVHJlbW9sb19EZXB0aAAwLjUARlhMYXllcjEvRlgyL011bHRpRlgvVHJlbW9sb19FbmFibGUAMQBGWExheWVyMS9GWDIvTXVsdGlGWC9UcmVtb2xvX0ZpbHRlckN1dG9mZgAwLjUARlhMYXllcjEvRlgyL011bHRpRlgvVHJlbW9sb19GaWx0ZXJEZXB0aAAwLjUARlhMYXllcjEvRlgyL011bHRpRlgvVHJlbW9sb19GaWx0ZXJFbmFibGUAMABGWExheWVyMS9GWDIvTXVsdGlGWC9UcmVtb2xvX1Bhbm5lckRlcHRoADAuNQBGWExheWVyMS9GWDIvTXVsdGlGWC9UcmVtb2xvX1JhdGUAMC40MDAwMDAwMDYARlhMYXllcjEvRlgyL011bHRpRlgvVHJlbW9sb19TaGFwZQAwAEZYTGF5ZXIxL0ZYMi9NdWx0aUZYL1RyZW1vbG9fU2hhcGVJbnZlcnQAMABGWExheWVyMS9GWDIvTXVsdGlGWC9UcmVtb2xvX1RlbXBvU3luYwAwAEZYTGF5ZXIxL0ZYMi9NdWx0aUZYL1RyZW1vbG9fWE1vZDJEZXB0aAAwLjUARlhMYXllcjEvRlgyL011bHRpRlgvVHJlbW9sb19YTW9kMkZpbHRlckN1dG9mZgAwLjUARlhMYXllcjEvRlgyL011bHRpRlgvVHJlbW9sb19YTW9kMkZpbHRlckRlcHRoADAuNQBGWExheWVyMS9GWDIvTXVsdGlGWC9UcmVtb2xvX1hNb2QyUGFubmVyRGVwdGgAMC41AEZYTGF5ZXIxL0ZYMi9NdWx0aUZYSW5zdHIvQ3VycmVudFNlbGVjdGlvbgBSZXNvMTIARlhMYXllcjEvRlgyL011bHRpRlhJbnN0ci9FbmFibGUAMQBGWExheWVyMS9GWDIvTXVsdGlGWFByZS9DaG9ydXNfQWx0ZXJuYXRlADAARlhMYXllcjEvRlgyL011bHRpRlhQcmUvQ2hvcnVzX0RlcHRoADAuNQBGWExheWVyMS9GWDIvTXVsdGlGWFByZS9DaG9ydXNfRW5hYmxlADEARlhMYXllcjEvRlgyL011bHRpRlhQcmUvQ2hvcnVzX0ZpbHRlckhpADEARlhMYXllcjEvRlgyL011bHRpRlhQcmUvQ2hvcnVzX0ZpbHRlckxvADAARlhMYXllcjEvRlgyL011bHRpRlhQcmUvQ2hvcnVzX01peAAwLjUARlhMYXllcjEvRlgyL011bHRpRlhQcmUvQ2hvcnVzX1JhdGUAMC41AEZYTGF5ZXIxL0ZYMi9NdWx0aUZYUHJlL0Nob3J1c19TdGVyZW9XaWR0aAAwLjUARlhMYXllcjEvRlgyL011bHRpRlhQcmUvQ2hvcnVzX1ZvaWNlcwA1AEZYTGF5ZXIxL0ZYMi9NdWx0aUZYUHJlL0Nob3J1c19YTW9kMk1peAAwLjUARlhMYXllcjEvRlgyL011bHRpRlhQcmUvQ29tcERpc3RfQ29tcF9BdHRhY2sAMC4yMDAwMDAwMDMARlhMYXllcjEvRlgyL011bHRpRlhQcmUvQ29tcERpc3RfQ29tcF9FbmFibGUAMABGWExheWVyMS9GWDIvTXVsdGlGWFByZS9Db21wRGlzdF9Db21wX1JhdGlvADAuNQBGWExheWVyMS9GWDIvTXVsdGlGWFByZS9Db21wRGlzdF9Db21wX1JlbGVhc2UAMC4yMDAwMDAwMDMARlhMYXllcjEvRlgyL011bHRpRlhQcmUvQ29tcERpc3RfQ29tcF9UaHJlc2hvbGQAMC41AEZYTGF5ZXIxL0ZYMi9NdWx0aUZYUHJlL0NvbXBEaXN0X0Rpc3RfQW1vdW50ADAuNQBGWExheWVyMS9GWDIvTXVsdGlGWFByZS9Db21wRGlzdF9EaXN0X0VuYWJsZQAwAEZYTGF5ZXIxL0ZYMi9NdWx0aUZYUHJlL0NvbXBEaXN0X0Rpc3RfRnJlcUhpADEARlhMYXllcjEvRlgyL011bHRpRlhQcmUvQ29tcERpc3RfRGlzdF9GcmVxTG8AMABGWExheWVyMS9GWDIvTXVsdGlGWFByZS9Db21wRGlzdF9EaXN0X01peAAwLjUARlhMYXllcjEvRlgyL011bHRpRlhQcmUvQ29tcERpc3RfRGlzdF9UeXBlADUARlhMYXllcjEvRlgyL011bHRpRlhQcmUvQ3VycmVudFNlbGVjdGlvbgBUcmVtb2xvAEZYTGF5ZXIxL0ZYMi9NdWx0aUZYUHJlL0VuYWJsZQAwAEZYTGF5ZXIxL0ZYMi9NdWx0aUZYUHJlL1BoYXNlcl9FbmFibGUAMQBGWExheWVyMS9GWDIvTXVsdGlGWFByZS9QaGFzZXJfRmVlZGJhY2sAMC41AEZYTGF5ZXIxL0ZYMi9NdWx0aUZYUHJlL1BoYXNlcl9MZXZlbAAwLjUARlhMYXllcjEvRlgyL011bHRpRlhQcmUvUGhhc2VyX01vZERlcHRoADAuNQBGWExheWVyMS9GWDIvTXVsdGlGWFByZS9QaGFzZXJfTW9kUmF0ZQAwLjUARlhMYXllcjEvRlgyL011bHRpRlhQcmUvUGhhc2VyX01vZFNoYXBlADAARlhMYXllcjEvRlgyL011bHRpRlhQcmUvUGhhc2VyX01vZFNoYXBlSW52ZXJ0ADAARlhMYXllcjEvRlgyL011bHRpRlhQcmUvUGhhc2VyX01vZFN0ZXJlbwAxAEZYTGF5ZXIxL0ZYMi9NdWx0aUZYUHJlL1BoYXNlcl9QaGFzZQAwLjUARlhMYXllcjEvRlgyL011bHRpRlhQcmUvUGhhc2VyX1N0YWdlcwAxMgBGWExheWVyMS9GWDIvTXVsdGlGWFByZS9QaGFzZXJfVGVtcG9TeW5jADAARlhMYXllcjEvRlgyL011bHRpRlhQcmUvUGhhc2VyX1hNb2QyRmVlZGJhY2sAMC41AEZYTGF5ZXIxL0ZYMi9NdWx0aUZYUHJlL1BoYXNlcl9YTW9kMkxldmVsADAuNQBGWExheWVyMS9GWDIvTXVsdGlGWFByZS9UcmVtb2xvX0RlcHRoADAuNQBGWExheWVyMS9GWDIvTXVsdGlGWFByZS9UcmVtb2xvX0VuYWJsZQAxAEZYTGF5ZXIxL0ZYMi9NdWx0aUZYUHJlL1RyZW1vbG9fRmlsdGVyQ3V0b2ZmADAuNQBGWExheWVyMS9GWDIvTXVsdGlGWFByZS9UcmVtb2xvX0ZpbHRlckRlcHRoADAuNQBGWExheWVyMS9GWDIvTXVsdGlGWFByZS9UcmVtb2xvX0ZpbHRlckVuYWJsZQAwAEZYTGF5ZXIxL0ZYMi9NdWx0aUZYUHJlL1RyZW1vbG9fUGFubmVyRGVwdGgAMC41AEZYTGF5ZXIxL0ZYMi9NdWx0aUZYUHJlL1RyZW1vbG9fUmF0ZQAwLjQwMDAwMDAwNgBGWExheWVyMS9GWDIvTXVsdGlGWFByZS9UcmVtb2xvX1NoYXBlADAARlhMYXllcjEvRlgyL011bHRpRlhQcmUvVHJlbW9sb19TaGFwZUludmVydAAwAEZYTGF5ZXIxL0ZYMi9NdWx0aUZYUHJlL1RyZW1vbG9fVGVtcG9TeW5jADAARlhMYXllcjEvRlgyL011bHRpRlhQcmUvVHJlbW9sb19YTW9kMkRlcHRoADAuNQBGWExheWVyMS9GWDIvTXVsdGlGWFByZS9UcmVtb2xvX1hNb2QyRmlsdGVyQ3V0b2ZmADAuNQBGWExheWVyMS9GWDIvTXVsdGlGWFByZS9UcmVtb2xvX1hNb2QyRmlsdGVyRGVwdGgAMC41AEZYTGF5ZXIxL0ZYMi9NdWx0aUZYUHJlL1RyZW1vbG9fWE1vZDJQYW5uZXJEZXB0aAAwLjUARlhMYXllcjEvRlgyL05vaXNlX0RlY2F5VGltZQAwLjUARlhMYXllcjEvRlgyL05vaXNlX0VuYWJsZQAwAEZYTGF5ZXIxL0ZYMi9Ob2lzZV9HYXRlTGV2ZWwAMC40NDk5OTk5ODgARlhMYXllcjEvRlgyL05vaXNlX01pZGlUcmlnZ2VyADEARlhMYXllcjEvRlgyL05vaXNlX05vaXNlTGV2ZWwAMC41AEZYTGF5ZXIxL0ZYMi9Ob2lzZV9Ob2lzZVR5cGUAMABGWExheWVyMS9GWDIvUGFuX1BhbgAwLjUARlhMYXllcjEvRlgyL1Bhbl9XaWR0aAAwAEZYTGF5ZXIxL0ZYMi9TZW5kMUtub2IAMABGWExheWVyMS9GWDIvU2VuZDJLbm9iADAARlhMYXllcjEvRlgyL1NvdXJjZUNoYW5uZWwAMgBGWExheWVyMS9GWDMvRVFfSW5zX0VRX0N1dEhpRnJlcQAxAEZYTGF5ZXIxL0ZYMy9FUV9JbnNfRVFfQ3V0SGlRADAuNQBGWExheWVyMS9GWDMvRVFfSW5zX0VRX0N1dExvRnJlcQAwAEZYTGF5ZXIxL0ZYMy9FUV9JbnNfRVFfQ3V0TG9RADAuNQBGWExheWVyMS9GWDMvRVFfSW5zX0VRX0VuYWJsZQAwAEZYTGF5ZXIxL0ZYMy9FUV9JbnNfRVFfSGlGcmVxADAuODAxMjA0ODAxAEZYTGF5ZXIxL0ZYMy9FUV9JbnNfRVFfSGlHYWluADAuNQBGWExheWVyMS9GWDMvRVFfSW5zX0VRX0hpUQAwLjY5OTk5OTk4OABGWExheWVyMS9GWDMvRVFfSW5zX0VRX0xvRnJlcQAwLjE5NzU5MDM1MQBGWExheWVyMS9GWDMvRVFfSW5zX0VRX0xvR2FpbgAwLjUARlhMYXllcjEvRlgzL0VRX0luc19FUV9Mb1EAMC42OTk5OTk5ODgARlhMYXllcjEvRlgzL0VRX0luc19FUV9NaWRGcmVxADAuNTAwNDAxNjc2AEZYTGF5ZXIxL0ZYMy9FUV9JbnNfRVFfTWlkR2FpbgAwLjUARlhMYXllcjEvRlgzL0VRX0luc19FUV9NaWRRADAuNjk5OTk5OTg4AEZYTGF5ZXIxL0ZYMy9HVUlNdXRlADAARlhMYXllcjEvRlgzL0dVSVNvbG8AMABGWExheWVyMS9GWDMvTGV2ZWxTbGlkZXIAMC42MzU1MzMzOTIARlhMYXllcjEvRlgzL011bHRpRlgvQ2hvcnVzX0FsdGVybmF0ZQAwAEZYTGF5ZXIxL0ZYMy9NdWx0aUZYL0Nob3J1c19EZXB0aAAwLjUARlhMYXllcjEvRlgzL011bHRpRlgvQ2hvcnVzX0VuYWJsZQAxAEZYTGF5ZXIxL0ZYMy9NdWx0aUZYL0Nob3J1c19GaWx0ZXJIaQAxAEZYTGF5ZXIxL0ZYMy9NdWx0aUZYL0Nob3J1c19GaWx0ZXJMbwAwAEZYTGF5ZXIxL0ZYMy9NdWx0aUZYL0Nob3J1c19NaXgAMC41AEZYTGF5ZXIxL0ZYMy9NdWx0aUZYL0Nob3J1c19SYXRlADAuNQBGWExheWVyMS9GWDMvTXVsdGlGWC9DaG9ydXNfU3RlcmVvV2lkdGgAMC41AEZYTGF5ZXIxL0ZYMy9NdWx0aUZYL0Nob3J1c19Wb2ljZXMANQBGWExheWVyMS9GWDMvTXVsdGlGWC9DaG9ydXNfWE1vZDJNaXgAMC41AEZYTGF5ZXIxL0ZYMy9NdWx0aUZYL0NvbXBEaXN0X0NvbXBfQXR0YWNrADAuMjAwMDAwMDAzAEZYTGF5ZXIxL0ZYMy9NdWx0aUZYL0NvbXBEaXN0X0NvbXBfRW5hYmxlADAARlhMYXllcjEvRlgzL011bHRpRlgvQ29tcERpc3RfQ29tcF9SYXRpbwAwLjUARlhMYXllcjEvRlgzL011bHRpRlgvQ29tcERpc3RfQ29tcF9SZWxlYXNlADAuMjAwMDAwMDAzAEZYTGF5ZXIxL0ZYMy9NdWx0aUZYL0NvbXBEaXN0X0NvbXBfVGhyZXNob2xkADAuNQBGWExheWVyMS9GWDMvTXVsdGlGWC9Db21wRGlzdF9EaXN0X0Ftb3VudAAwLjUARlhMYXllcjEvRlgzL011bHRpRlgvQ29tcERpc3RfRGlzdF9FbmFibGUAMABGWExheWVyMS9GWDMvTXVsdGlGWC9Db21wRGlzdF9EaXN0X0ZyZXFIaQAxAEZYTGF5ZXIxL0ZYMy9NdWx0aUZYL0NvbXBEaXN0X0Rpc3RfRnJlcUxvADAARlhMYXllcjEvRlgzL011bHRpRlgvQ29tcERpc3RfRGlzdF9NaXgAMC41AEZYTGF5ZXIxL0ZYMy9NdWx0aUZYL0NvbXBEaXN0X0Rpc3RfVHlwZQA1AEZYTGF5ZXIxL0ZYMy9NdWx0aUZYL0N1cnJlbnRTZWxlY3Rpb24AQ2hvcnVzAEZYTGF5ZXIxL0ZYMy9NdWx0aUZYL0VuYWJsZQAwAEZYTGF5ZXIxL0ZYMy9NdWx0aUZYL1BoYXNlcl9FbmFibGUAMQBGWExheWVyMS9GWDMvTXVsdGlGWC9QaGFzZXJfRmVlZGJhY2sAMC41AEZYTGF5ZXIxL0ZYMy9NdWx0aUZYL1BoYXNlcl9MZXZlbAAwLjUARlhMYXllcjEvRlgzL011bHRpRlgvUGhhc2VyX01vZERlcHRoADAuNQBGWExheWVyMS9GWDMvTXVsdGlGWC9QaGFzZXJfTW9kUmF0ZQAwLjUARlhMYXllcjEvRlgzL011bHRpRlgvUGhhc2VyX01vZFNoYXBlADAARlhMYXllcjEvRlgzL011bHRpRlgvUGhhc2VyX01vZFNoYXBlSW52ZXJ0ADAARlhMYXllcjEvRlgzL011bHRpRlgvUGhhc2VyX01vZFN0ZXJlbwAxAEZYTGF5ZXIxL0ZYMy9NdWx0aUZYL1BoYXNlcl9QaGFzZQAwLjUARlhMYXllcjEvRlgzL011bHRpRlgvUGhhc2VyX1N0YWdlcwAxMgBGWExheWVyMS9GWDMvTXVsdGlGWC9QaGFzZXJfVGVtcG9TeW5jADAARlhMYXllcjEvRlgzL011bHRpRlgvUGhhc2VyX1hNb2QyRmVlZGJhY2sAMC41AEZYTGF5ZXIxL0ZYMy9NdWx0aUZYL1BoYXNlcl9YTW9kMkxldmVsADAuNQBGWExheWVyMS9GWDMvTXVsdGlGWC9UcmVtb2xvX0RlcHRoADAuNQBGWExheWVyMS9GWDMvTXVsdGlGWC9UcmVtb2xvX0VuYWJsZQAxAEZYTGF5ZXIxL0ZYMy9NdWx0aUZYL1RyZW1vbG9fRmlsdGVyQ3V0b2ZmADAuNQBGWExheWVyMS9GWDMvTXVsdGlGWC9UcmVtb2xvX0ZpbHRlckRlcHRoADAuNQBGWExheWVyMS9GWDMvTXVsdGlGWC9UcmVtb2xvX0ZpbHRlckVuYWJsZQAwAEZYTGF5ZXIxL0ZYMy9NdWx0aUZYL1RyZW1vbG9fUGFubmVyRGVwdGgAMC41AEZYTGF5ZXIxL0ZYMy9NdWx0aUZYL1RyZW1vbG9fUmF0ZQAwLjQwMDAwMDAwNgBGWExheWVyMS9GWDMvTXVsdGlGWC9UcmVtb2xvX1NoYXBlADAARlhMYXllcjEvRlgzL011bHRpRlgvVHJlbW9sb19TaGFwZUludmVydAAwAEZYTGF5ZXIxL0ZYMy9NdWx0aUZYL1RyZW1vbG9fVGVtcG9TeW5jADAARlhMYXllcjEvRlgzL011bHRpRlgvVHJlbW9sb19YTW9kMkRlcHRoADAuNQBGWExheWVyMS9GWDMvTXVsdGlGWC9UcmVtb2xvX1hNb2QyRmlsdGVyQ3V0b2ZmADAuNQBGWExheWVyMS9GWDMvTXVsdGlGWC9UcmVtb2xvX1hNb2QyRmlsdGVyRGVwdGgAMC41AEZYTGF5ZXIxL0ZYMy9NdWx0aUZYL1RyZW1vbG9fWE1vZDJQYW5uZXJEZXB0aAAwLjUARlhMYXllcjEvRlgzL011bHRpRlhJbnN0ci9DdXJyZW50U2VsZWN0aW9uAFJlc28xMgBGWExheWVyMS9GWDMvTXVsdGlGWEluc3RyL0VuYWJsZQAxAEZYTGF5ZXIxL0ZYMy9NdWx0aUZYUHJlL0Nob3J1c19BbHRlcm5hdGUAMABGWExheWVyMS9GWDMvTXVsdGlGWFByZS9DaG9ydXNfRGVwdGgAMC41AEZYTGF5ZXIxL0ZYMy9NdWx0aUZYUHJlL0Nob3J1c19FbmFibGUAMQBGWExheWVyMS9GWDMvTXVsdGlGWFByZS9DaG9ydXNfRmlsdGVySGkAMQBGWExheWVyMS9GWDMvTXVsdGlGWFByZS9DaG9ydXNfRmlsdGVyTG8AMABGWExheWVyMS9GWDMvTXVsdGlGWFByZS9DaG9ydXNfTWl4ADAuNQBGWExheWVyMS9GWDMvTXVsdGlGWFByZS9DaG9ydXNfUmF0ZQAwLjUARlhMYXllcjEvRlgzL011bHRpRlhQcmUvQ2hvcnVzX1N0ZXJlb1dpZHRoADAuNQBGWExheWVyMS9GWDMvTXVsdGlGWFByZS9DaG9ydXNfVm9pY2VzADUARlhMYXllcjEvRlgzL011bHRpRlhQcmUvQ2hvcnVzX1hNb2QyTWl4ADAuNQBGWExheWVyMS9GWDMvTXVsdGlGWFByZS9Db21wRGlzdF9Db21wX0F0dGFjawAwLjIwMDAwMDAwMwBGWExheWVyMS9GWDMvTXVsdGlGWFByZS9Db21wRGlzdF9Db21wX0VuYWJsZQAwAEZYTGF5ZXIxL0ZYMy9NdWx0aUZYUHJlL0NvbXBEaXN0X0NvbXBfUmF0aW8AMC41AEZYTGF5ZXIxL0ZYMy9NdWx0aUZYUHJlL0NvbXBEaXN0X0NvbXBfUmVsZWFzZQAwLjIwMDAwMDAwMwBGWExheWVyMS9GWDMvTXVsdGlGWFByZS9Db21wRGlzdF9Db21wX1RocmVzaG9sZAAwLjUARlhMYXllcjEvRlgzL011bHRpRlhQcmUvQ29tcERpc3RfRGlzdF9BbW91bnQAMC41AEZYTGF5ZXIxL0ZYMy9NdWx0aUZYUHJlL0NvbXBEaXN0X0Rpc3RfRW5hYmxlADAARlhMYXllcjEvRlgzL011bHRpRlhQcmUvQ29tcERpc3RfRGlzdF9GcmVxSGkAMQBGWExheWVyMS9GWDMvTXVsdGlGWFByZS9Db21wRGlzdF9EaXN0X0ZyZXFMbwAwAEZYTGF5ZXIxL0ZYMy9NdWx0aUZYUHJlL0NvbXBEaXN0X0Rpc3RfTWl4ADAuNQBGWExheWVyMS9GWDMvTXVsdGlGWFByZS9Db21wRGlzdF9EaXN0X1R5cGUANQBGWExheWVyMS9GWDMvTXVsdGlGWFByZS9DdXJyZW50U2VsZWN0aW9uAFRyZW1vbG8ARlhMYXllcjEvRlgzL011bHRpRlhQcmUvRW5hYmxlADAARlhMYXllcjEvRlgzL011bHRpRlhQcmUvUGhhc2VyX0VuYWJsZQAxAEZYTGF5ZXIxL0ZYMy9NdWx0aUZYUHJlL1BoYXNlcl9GZWVkYmFjawAwLjUARlhMYXllcjEvRlgzL011bHRpRlhQcmUvUGhhc2VyX0xldmVsADAuNQBGWExheWVyMS9GWDMvTXVsdGlGWFByZS9QaGFzZXJfTW9kRGVwdGgAMC41AEZYTGF5ZXIxL0ZYMy9NdWx0aUZYUHJlL1BoYXNlcl9Nb2RSYXRlADAuNQBGWExheWVyMS9GWDMvTXVsdGlGWFByZS9QaGFzZXJfTW9kU2hhcGUAMABGWExheWVyMS9GWDMvTXVsdGlGWFByZS9QaGFzZXJfTW9kU2hhcGVJbnZlcnQAMABGWExheWVyMS9GWDMvTXVsdGlGWFByZS9QaGFzZXJfTW9kU3RlcmVvADEARlhMYXllcjEvRlgzL011bHRpRlhQcmUvUGhhc2VyX1BoYXNlADAuNQBGWExheWVyMS9GWDMvTXVsdGlGWFByZS9QaGFzZXJfU3RhZ2VzADEyAEZYTGF5ZXIxL0ZYMy9NdWx0aUZYUHJlL1BoYXNlcl9UZW1wb1N5bmMAMABGWExheWVyMS9GWDMvTXVsdGlGWFByZS9QaGFzZXJfWE1vZDJGZWVkYmFjawAwLjUARlhMYXllcjEvRlgzL011bHRpRlhQcmUvUGhhc2VyX1hNb2QyTGV2ZWwAMC41AEZYTGF5ZXIxL0ZYMy9NdWx0aUZYUHJlL1RyZW1vbG9fRGVwdGgAMC41AEZYTGF5ZXIxL0ZYMy9NdWx0aUZYUHJlL1RyZW1vbG9fRW5hYmxlADEARlhMYXllcjEvRlgzL011bHRpRlhQcmUvVHJlbW9sb19GaWx0ZXJDdXRvZmYAMC41AEZYTGF5ZXIxL0ZYMy9NdWx0aUZYUHJlL1RyZW1vbG9fRmlsdGVyRGVwdGgAMC41AEZYTGF5ZXIxL0ZYMy9NdWx0aUZYUHJlL1RyZW1vbG9fRmlsdGVyRW5hYmxlADAARlhMYXllcjEvRlgzL011bHRpRlhQcmUvVHJlbW9sb19QYW5uZXJEZXB0aAAwLjUARlhMYXllcjEvRlgzL011bHRpRlhQcmUvVHJlbW9sb19SYXRlADAuNDAwMDAwMDA2AEZYTGF5ZXIxL0ZYMy9NdWx0aUZYUHJlL1RyZW1vbG9fU2hhcGUAMABGWExheWVyMS9GWDMvTXVsdGlGWFByZS9UcmVtb2xvX1NoYXBlSW52ZXJ0ADAARlhMYXllcjEvRlgzL011bHRpRlhQcmUvVHJlbW9sb19UZW1wb1N5bmMAMABGWExheWVyMS9GWDMvTXVsdGlGWFByZS9UcmVtb2xvX1hNb2QyRGVwdGgAMC41AEZYTGF5ZXIxL0ZYMy9NdWx0aUZYUHJlL1RyZW1vbG9fWE1vZDJGaWx0ZXJDdXRvZmYAMC41AEZYTGF5ZXIxL0ZYMy9NdWx0aUZYUHJlL1RyZW1vbG9fWE1vZDJGaWx0ZXJEZXB0aAAwLjUARlhMYXllcjEvRlgzL011bHRpRlhQcmUvVHJlbW9sb19YTW9kMlBhbm5lckRlcHRoADAuNQBGWExheWVyMS9GWDMvTm9pc2VfRGVjYXlUaW1lADAuNQBGWExheWVyMS9GWDMvTm9pc2VfRW5hYmxlADAARlhMYXllcjEvRlgzL05vaXNlX0dhdGVMZXZlbAAwLjQ0OTk5OTk4OABGWExheWVyMS9GWDMvTm9pc2VfTWlkaVRyaWdnZXIAMQBGWExheWVyMS9GWDMvTm9pc2VfTm9pc2VMZXZlbAAwLjUARlhMYXllcjEvRlgzL05vaXNlX05vaXNlVHlwZQAwAEZYTGF5ZXIxL0ZYMy9QYW5fUGFuADAuNQBGWExheWVyMS9GWDMvUGFuX1dpZHRoADAARlhMYXllcjEvRlgzL1NlbmQxS25vYgAwAEZYTGF5ZXIxL0ZYMy9TZW5kMktub2IAMABGWExheWVyMS9GWDMvU291cmNlQ2hhbm5lbAAARlhMYXllcjEvU2VuZDEvRGVsYXlfRW5hYmxlADEARlhMYXllcjEvU2VuZDEvRGVsYXlfRmlsdGVyX0hpADEARlhMYXllcjEvU2VuZDEvRGVsYXlfRmlsdGVyX0xvADAARlhMYXllcjEvU2VuZDEvRGVsYXlfTGV2ZWwAMC41AEZYTGF5ZXIxL1NlbmQxL0RlbGF5X1BpbmdQb25nADAuMzAwMDAwMDEyAEZYTGF5ZXIxL1NlbmQxL0RlbGF5X1N3aW5nADAuNQBGWExheWVyMS9TZW5kMS9EZWxheV9UZW1wb1N5bmMAMABGWExheWVyMS9TZW5kMS9EZWxheV9UaW1lADAuNQBGWExheWVyMS9TZW5kMS9GWEVRX0N1dEhpRnJlcQAxAEZYTGF5ZXIxL1NlbmQxL0ZYRVFfQ3V0SGlRADAuNQBGWExheWVyMS9TZW5kMS9GWEVRX0N1dExvRnJlcQAwAEZYTGF5ZXIxL1NlbmQxL0ZYRVFfQ3V0TG9RADAuNQBGWExheWVyMS9TZW5kMS9GWEVRX0VuYWJsZQAwAEZYTGF5ZXIxL1NlbmQxL0ZYRVFfSGlGcmVxADAuNzUARlhMYXllcjEvU2VuZDEvRlhFUV9IaUdhaW4AMC41AEZYTGF5ZXIxL1NlbmQxL0ZYRVFfSGlRADAuNQBGWExheWVyMS9TZW5kMS9GWEVRX0xvRnJlcQAwLjI1AEZYTGF5ZXIxL1NlbmQxL0ZYRVFfTG9HYWluADAuNQBGWExheWVyMS9TZW5kMS9GWEVRX0xvUQAwLjUARlhMYXllcjEvU2VuZDEvRlhFUV9NaWRGcmVxADAuNQBGWExheWVyMS9TZW5kMS9GWEVRX01pZEdhaW4AMC41AEZYTGF5ZXIxL1NlbmQxL0ZYRVFfTWlkUQAwLjY4OTk5OTk5OABGWExheWVyMS9TZW5kMS9HVUlNdXRlADAARlhMYXllcjEvU2VuZDEvR1VJU29sbwAwAEZYTGF5ZXIxL1NlbmQxL0xldmVsU2xpZGVyADAuNzU3OTgyMzE0AEZYTGF5ZXIxL1NlbmQxL01ha3JvTWl4RGVsYXlSZXZlcmIAMABGWExheWVyMS9TZW5kMS9QYW5fUGFuADAuNQBGWExheWVyMS9TZW5kMS9QYW5fV2lkdGgAMABGWExheWVyMS9TZW5kMS9SZXZlcmJfRGFtcAAwLjUARlhMYXllcjEvU2VuZDEvUmV2ZXJiX0RlY2F5ADAuNQBGWExheWVyMS9TZW5kMS9SZXZlcmJfRW5hYmxlADEARlhMYXllcjEvU2VuZDEvUmV2ZXJiX1ByZURlbGF5ADAARlhMYXllcjEvU2VuZDEvUmV2ZXJiX1R5cGUAMABGWExheWVyMS9TZW5kMi9EZWxheV9FbmFibGUAMQBGWExheWVyMS9TZW5kMi9EZWxheV9GaWx0ZXJfSGkAMQBGWExheWVyMS9TZW5kMi9EZWxheV9GaWx0ZXJfTG8AMABGWExheWVyMS9TZW5kMi9EZWxheV9MZXZlbAAwLjUARlhMYXllcjEvU2VuZDIvRGVsYXlfUGluZ1BvbmcAMC4zMDAwMDAwMTIARlhMYXllcjEvU2VuZDIvRGVsYXlfU3dpbmcAMC41AEZYTGF5ZXIxL1NlbmQyL0RlbGF5X1RlbXBvU3luYwAwAEZYTGF5ZXIxL1NlbmQyL0RlbGF5X1RpbWUAMC41AEZYTGF5ZXIxL1NlbmQyL0ZYRVFfQ3V0SGlGcmVxADEARlhMYXllcjEvU2VuZDIvRlhFUV9DdXRIaVEAMC41AEZYTGF5ZXIxL1NlbmQyL0ZYRVFfQ3V0TG9GcmVxADAARlhMYXllcjEvU2VuZDIvRlhFUV9DdXRMb1EAMC41AEZYTGF5ZXIxL1NlbmQyL0ZYRVFfRW5hYmxlADAARlhMYXllcjEvU2VuZDIvRlhFUV9IaUZyZXEAMC43NQBGWExheWVyMS9TZW5kMi9GWEVRX0hpR2FpbgAwLjUARlhMYXllcjEvU2VuZDIvRlhFUV9IaVEAMC41AEZYTGF5ZXIxL1NlbmQyL0ZYRVFfTG9GcmVxADAuMjUARlhMYXllcjEvU2VuZDIvRlhFUV9Mb0dhaW4AMC41AEZYTGF5ZXIxL1NlbmQyL0ZYRVFfTG9RADAuNQBGWExheWVyMS9TZW5kMi9GWEVRX01pZEZyZXEAMC41AEZYTGF5ZXIxL1NlbmQyL0ZYRVFfTWlkR2FpbgAwLjUARlhMYXllcjEvU2VuZDIvRlhFUV9NaWRRADAuNjk5OTk5OTg4AEZYTGF5ZXIxL1NlbmQyL0dVSU11dGUAMABGWExheWVyMS9TZW5kMi9HVUlTb2xvADAARlhMYXllcjEvU2VuZDIvTGV2ZWxTbGlkZXIAMC43NTc5ODIzMTQARlhMYXllcjEvU2VuZDIvTWFrcm9NaXhEZWxheVJldmVyYgAxAEZYTGF5ZXIxL1NlbmQyL1Bhbl9QYW4AMC41AEZYTGF5ZXIxL1NlbmQyL1Bhbl9XaWR0aAAwAEZYTGF5ZXIxL1NlbmQyL1JldmVyYl9EYW1wADAuNQBGWExheWVyMS9TZW5kMi9SZXZlcmJfRGVjYXkAMC41AEZYTGF5ZXIxL1NlbmQyL1JldmVyYl9FbmFibGUAMQBGWExheWVyMS9TZW5kMi9SZXZlcmJfUHJlRGVsYXkAMABGWExheWVyMS9TZW5kMi9SZXZlcmJfVHlwZQAyAEdsb2JhbFZlbG9jaXR5UmVzcG9uc2UAMC41AEdsb2JhbFZlbG9jaXR5UmVzcG9uc2VNYXgAMQBHbG9iYWxWZWxvY2l0eVJlc3BvbnNlTWluADAASGlnaFZvaWNlQ291bnQAMABJMV9HdWlfQW1wRW52X0F0dGFjawAwAEkxX0d1aV9BbXBFbnZfQXR0YWNrQ3VydmUAMC41AEkxX0d1aV9BbXBFbnZfQXR0YWNrTGV2ZWwAMQBJMV9HdWlfQW1wRW52X0RlY2F5ADAuNQBJMV9HdWlfQW1wRW52X0RlY2F5Q3VydmUAMC4wMzExMjI4AEkxX0d1aV9BbXBFbnZfRGVjYXlMZXZlbAAxAEkxX0d1aV9BbXBFbnZfRW5hYmxlX0d1aQAwAEkxX0d1aV9BbXBFbnZfUmVsZWFzZQAwLjA1MDAwMDAwMDcASTFfR3VpX0FtcEVudl9SZWxlYXNlQ3VydmUAMC4wMzExMjI4AEkxX0d1aV9BbXBFbnZfU3VzdGFpbkN1cnZlADAuNQBJMV9HdWlfQW1wRW52X1N1c3RhaW5Ib2xkADAuNQBJMV9HdWlfQW1wRW52X1N1c3RhaW5MZXZlbAAxAEkxX0d1aV9BbXBFbnZfVmVsMkF0dGFjawAwAEkxX0d1aV9EZXR1bmUAMABJMV9HdWlfRHluYW1pY1JhbmdlADEASTFfR3VpX0ZpbHRlckVudl9BbW91bnQAMC41AEkxX0d1aV9GaWx0ZXJFbnZfQXR0YWNrADAASTFfR3VpX0ZpbHRlckVudl9BdHRhY2tDdXJ2ZQAwLjUASTFfR3VpX0ZpbHRlckVudl9BdHRhY2tMZXZlbAAxAEkxX0d1aV9GaWx0ZXJFbnZfRGVjYXkAMC41AEkxX0d1aV9GaWx0ZXJFbnZfRGVjYXlDdXJ2ZQAwLjA1MDAwMDAwMDcASTFfR3VpX0ZpbHRlckVudl9EZWNheUxldmVsADAuNQBJMV9HdWlfRmlsdGVyRW52X0VuYWJsZQAxAEkxX0d1aV9GaWx0ZXJFbnZfUmVsZWFzZQAwLjEwMDAwMDAwMQBJMV9HdWlfRmlsdGVyRW52X1JlbGVhc2VDdXJ2ZQAwLjAyOTk5OTk5OTMASTFfR3VpX0ZpbHRlckVudl9SZWxlYXNlTGV2ZWwAMABJMV9HdWlfRmlsdGVyRW52X1N0YXJ0TGV2ZWwAMC41AEkxX0d1aV9GaWx0ZXJFbnZfU3VzdGFpbkN1cnZlADAuNQBJMV9HdWlfRmlsdGVyRW52X1N1c3RhaW5Ib2xkADEASTFfR3VpX0ZpbHRlckVudl9TdXN0YWluTGV2ZWwAMC41AEkxX0d1aV9GaWx0ZXJFbnZfVmVsMkFtb3VudAAwAEkxX0d1aV9GaWx0ZXJFbnZfVmVsMkF0dGFjawAwAEkxX0d1aV9GaWx0ZXJfQ3V0b2ZmADEASTFfR3VpX0ZpbHRlcl9Ecml2ZQAwAEkxX0d1aV9GaWx0ZXJfRW5hYmxlADAASTFfR3VpX0ZpbHRlcl9LZXkyQ3V0b2ZmADAuNQBJMV9HdWlfRmlsdGVyX1Jlc29uYW5jZQAwAEkxX0d1aV9GaWx0ZXJfVHlwZQAwAEkxX0d1aV9GaWx0ZXJfWE1vZDJDdXRvZmYAMC41AEkxX0d1aV9LZXkyVm9sdW1lADAuNQBJMV9HdWlfTm90ZVRyYW5zcG9zZQAwAEkxX0d1aV9QaXRjaEVudl9DdXJ2ZQAwLjAyOTk5OTk5OTMASTFfR3VpX1BpdGNoRW52X0VuYWJsZQAwAEkxX0d1aV9QaXRjaEVudl9Ib2xkADAASTFfR3VpX1BpdGNoRW52X09mZnNldExldmVsADAuNQBJMV9HdWlfUGl0Y2hFbnZfUmVsZWFzZQAwLjEwMDAwMDAwMQBJMV9HdWlfUGl0Y2hFbnZfVmVsU2VucwAwAEkxX0d1aV9QaXRjaF9FbmFibGUALTEASTFfR3VpX1JhdGVTaGlmdAAwLjUASTFfR3VpX1VzZVJlbGVhc2VTYW1wbGVzADEASTFfR3VpX1ZpYnJhdG9fRGVwdGgAMABJMV9HdWlfVmlicmF0b19SYXRlADAuNQBJMV9HdWlfVmlicmF0b19YTW9kADAuNQBJbnN0cnVtZW50R2FsbGVyeUFsbEV4cGxvcmVNYXBzADAATGF5ZXIxL0Jyb3dzZVNlbGVjdGlvbgBFeHBsb3JlAExheWVyMS9DdXJyZW50UHJlc2V0SWQAYXBwX19Nb2Rlcm4gVXByaWdodCAtIEFtYmllbnQuQUtQcmVzZXQATGF5ZXIxL0luc3RydW1lbnRUYWJTZWxlY3Rpb24ASWRlbnRpdHkATGF5ZXIxL0luc3RydW1lbnRXaXRoU3RhdGUAeyBpbnN0cnVtZW50SWQgPSAiTW9kZXJuVXAiLCBzdGF0ZSA9IHsgQm9keVJlc29uYW5jZUxldmVsID0gMC41LCBCb2R5UmVzb25hbmNlTm9pc2VMZXZlbCA9IDAuNTkzNjc1NDM0NTg5MzksIER5blJhbmdlSGkgPSAwLCBEeW5SYW5nZUxvID0gMCwgUGVkYWxOb2lzZUxldmVsID0gMC41OTM3OTUwNjExMTE0NSwgU29mdFBlZGFsRWZmZWN0ID0gMC41fX0ATGF5ZXIxL1ByZXNldEJyb3dzZXJBbGxEb21haW4AMQBMYXllcjEvUHJlc2V0QnJvd3NlckFsbFVzZXJUYWcAMQBMYXllcjEvUHJlc2V0QnJvd3NlclRhZ0FsbEluc3RydW1lbnQAMABMYXllcjEvUHJlc2V0QnJvd3NlclRhZ0ZhY3RvcnkAMABMYXllcjEvUHJlc2V0QnJvd3NlclRhZ0xpa2UAMABMYXllcjEvUHJlc2V0QnJvd3NlclRhZ1VzZXIAMABMYXllcjEvUHJlc2V0QnJvd3NlclRhZ1dlYgAwAExheWVyMS9QcmVzZXRNaWRpADRENTQ2ODY0MDAwMDAwMDYwMDAwMDAwMTAxRTA0RDU0NzI2QjAwMDAwMkNCMDBGRjAzMDAwMEZGNTEwMzA3QTEyMDAwRkY1ODA0MDQwMjE4MDgwMEIwNDA3RjAwNDA3RjAwNDAwMDAwOTA0NjRCMEE0MTQ5MDU0QTQ4MDU1OTcwMDY0RDZCMDZCMDQwNEExMzQwN0Y3OTgwNEEwMDE4OTA1NjREMDM4MDU5MDAwMzQ2MDAxNTQxMDAzRjREMDA1MzU2MDAxOTkwNTIzQzFFODA1MjAwNzlCMDQwNEEyNDgwNDE0MDAxNDY0MDAwNEE0MDAwNEQ0MDAwNTI0MDAwNTY0MDAwNTk0MDAxQjA0MDAwMDU5MDNDM0MwMTQxM0QwMTQ1M0YwNTU0NzEwNDQ4NjgzREIwNDAyNjA4NDA0QTFFNDA3RjRGODA1NDAwMDQ0NTAwMDY5MDUxNEQwQTgwM0MwMDAxNDEwMDQ1NDgwMDNBNTEwMDI3OTA0RDQ2MUM4MDREMDA3MkIwNDA0QTJEODAzQzQwMDE0MTQwMDA0NTQwMDA0ODQwMDA0RDQwMDA1MTQwMDA1NDQwMDFCMDQwMDAwNjkwNDY1QzAxNTI2ODA2M0U0MjA3Mzc0MzAxNDM0NjMxQjA0MDRBMkE0MDdGNDk4MDQzMDAxMDkwNEY0RDExODAzRTAwMDM1MjAwMEQzNzAwODEwOTRGMDAxMTQ2MDAwNDkwNEE0NjE4ODA0QTAwNjVCMDQwNEEyMzgwMzc0MDAwM0U0MDAwNDM0MDAwNDY0MDAwNEE0MDAwNEY0MDAwNTI0MDAwQjA0MDAwMTQ5MDM5NDYwNDMyM0QwMjNFM0YwMzRENzkwMzQxNjk0QUIwNDA0QTFENDA3RjU0OTA0QTRGMDM4MDREMDAxMTNFMDAyRTM5MDAxMTMyMDAxMjQxMDA1NjRBMDAwOTkwNDU0RTgxMjg4MDQ1MDAwREIwNDA0QTExOTA0QjZCMDIzNzYyMDMyQjVBMEM4MDMyNDAwMTM5NDAwMDNFNDAwMDQxNDAwMDQ1NDAwMDRBNDAwMDRENDAwMUIwNDAwMDdGNDA0QTFCOTA0QTVBMDRCMDQwN0YyQzgwNEIwMDRBMzcwMDE1MkIwMDNBOTA0NjU2MUU4MDRBMDA4MTAxNDYwMDE1OTA0MTQyMUQ4MDQxMDA4MTExQjA0MDRBMTI5MDM1NEMwMzI5NDYwMzMwNDYwNzM5NjkwNTgwMkI0MDAwMzc0MDAwNDE0MDAwNDY0MDAwNEE0MDAwNEI0MDAxQjA0MDAwNEQ0MDRBMUQ0MDdGMzQ5MDNDNDcyQjgwMzUwMDAzMjkwMDFBMzAwMDVGMzkwMDFGM0MwMDAzOTA0MTU1ODExN0IwNDA0QTI0OTAzNzYwMDMyRTNBMDMyNzNDMDIzMzM5MDMzQTRDMDc4MDI5NDAwMDMwNDAwMDM1NDAwMDM5NDAwMDNDNDAwMEIwNDAwMDgyMUE0MDRBMzU0MDdGODMzQzgwMzMwMDg3MUYzNzAwMEE5MDMzNEY3RjgwM0EwMDREOTAzNzU3MUU4MDMzMDAyNTJFMDAyNTI3MDA0QzkwM0E0RDA3ODA0MTAwODExMTM3MDAxNzkwNDE2NzI2ODAzQTAwODEwNEIwNDA0QTA3OTAxRDU4MDQyOTYxMEYzOTcwMTI4MDI3NDAwMDJFNDAwMDMzNDAwMDM3NDAwMDNBNDAwMUIwNDAwMDMyNDA0QTIxNDA3RjYxOTAzQzUxMjg4MDQxMDAwRTI5MDAxRjFEMDA0RjM5MDAxRTkwNDE2MzNBODAzQzAwNkFCMDQwNEExQTkwMUI0MjAyMjc0MDA0Mzc1OTAyM0E0NTBCODAxRDQwMDAyOTQwMDAzOTQwMDAzQzQwMDBCMDQwMDA5NDY2ODAxQjAwNDc0MTAwMDIzNzAwMDgyNzAwMTczQTAwMDBGRjJGMDAATGF5ZXIxL1ByZXNldFNhdmVBbGxUeXBlADAATGF5ZXIxL1ByZXNldFNhdmVEZW1vAABMYXllcjEvUHJlc2V0U2F2ZUluZm8ARmxvb3IgUFpNIC8gQW1iIFR1YmUATGF5ZXIxL1ByZXNldFNhdmVOYW1lAE1vZGVybiBVcHJpZ2h0IC0gQW1iaWVudABMYXllcjEvUHJlc2V0U2F2ZVRhZ0FjUGlhbm8AMABMYXllcjEvUHJlc2V0U2F2ZVRhZ0Jhc3MAMABMYXllcjEvUHJlc2V0U2F2ZVRhZ0VsUGlhbm8AMABMYXllcjEvUHJlc2V0U2F2ZVRhZ01hbGxldHMAMABMYXllcjEvUHJlc2V0U2F2ZVRhZ09yZ2FuADAATGF5ZXIxL1ByZXNldFNhdmVUYWdQYWQAMABMYXllcjEvUHJlc2V0U2F2ZVRhZ1N0cmluZ3MAMABMYXllcjEvUHJlc2V0U2F2ZVRhZ1N5bnRoADAATGF5ZXIxL1ByZXNldFNhdmVUYWdVbnVzZWQAMABMYXllcjEvVmlld1NlbGVjdGlvbgBFZGl0AFByZXNldEJyb3dzZXJGaWx0ZXJUZXh0AABQcmVzZXRCcm93c2VySW5zdHJ1bWVudEZpbHRlcgAAUHJlc2V0QnJvd3Nlck1lbW9zU29ydE9yZGVyADIAUHJlc2V0QnJvd3NlclNob3dGcm9tUHJvZHVjdHMAMQBQcmVzZXRCcm93c2VyU2hvd015UHJlc2V0cwAxAFByZXNldEJyb3dzZXJTb3J0T3JkZXIAMABQcmVzZXROYW1lAABTYW1wbGVyX1BpdGNoQmVuZFJhbmdlRG93bgAtMgBTYW1wbGVyX1BpdGNoQmVuZFJhbmdlVXAAMgBTYXZlZFdpdGhBS1ZlcnNpb24AMS40LjMAU3RhdGVDb21wYXRpYmxlUHJvZHVjdHMAQWRkaWN0aXZlIEtleXMsV2lsZCBQaWFub3MAU3RhdGVJbnN0YW5jZVVVSUQANmNlNGU5YzM3YzEwNDkzMWIzMzllZDZlZjM2NzQyODEAU3RhdGVQcm9kdWN0TmFtZQBBZGRpY3RpdmUgS2V5cwBTdGF0ZVZlcnNpb24AMQBUZW1wb01vZAAwLjUAVHVuaW5nX01hc3RlcgAwLjUAVHVuaW5nX1NjYWxlS2V5AEMAVHVuaW5nX1N0cmV0Y2gAMABUdW5pbmdfVGVtcGVyYW1lbnQAQXMgcmVjb3JkZWQAVXNlSG9zdFRlbXBvADEAVmVsb2NpdHlSYW5nZUJ5TWlkaUNDTnVtYmVyADE3AFZlbG9jaXR5UmFuZ2VCeU1pZGlDQ051bWJlckVuYWJsZQAwAFZpZXdFbnZlbG9wZVNlbGVjdGlvbgBBbXBFbnYAVmlydHVhbE11c2ljaWFuRW5hYmxlADEAVmlydHVhbE11c2ljaWFuU3dpbmdNb2QAMC41AFZvbHVtZUJ5TWlkaUNDTnVtYmVyADcAVm9sdW1lQnlNaWRpQ0NOdW1iZXJFbmFibGUAMABYTW9kTWlkaUFmdGVydG91Y2hFbmFibGUAMABYTW9kTWlkaUNDTnVtYmVyADExAFhNb2RNaWRpQ0NOdW1iZXJFbmFibGUAMQBYTW9kTWlkaU1vZHVsYXRpb25FbmFibGUAMQA=" guivisible="1" plugin="uservst:Addictive Keys.dll" program="0">
              <key/>
            </vestige>
          </instrument>
          <eldata fcut="14000" fres="0.5" fwet="0" ftype="0">
            <elvol lspd="0.1" latt="0" lspd_numerator="4" lspd_syncmode="0" sustain="0.5" hold="0.5" lamt="0" x100="0" att="0" rel="0.1" lpdel="0" userwavefile="" lspd_denominator="4" pdel="0" ctlenvamt="0" amt="0" lshp="0" dec="0.5"/>
            <elcut lspd="0.1" latt="0" lspd_numerator="4" lspd_syncmode="0" sustain="0.5" hold="0.5" lamt="0" x100="0" att="0" rel="0.1" lpdel="0" userwavefile="" lspd_denominator="4" pdel="0" ctlenvamt="0" amt="0" lshp="0" dec="0.5"/>
            <elres lspd="0.1" latt="0" lspd_numerator="4" lspd_syncmode="0" sustain="0.5" hold="0.5" lamt="0" x100="0" att="0" rel="0.1" lpdel="0" userwavefile="" lspd_denominator="4" pdel="0" ctlenvamt="0" amt="0" lshp="0" dec="0.5"/>
          </eldata>
          <chordcreator chord="0" chord-enabled="1" chordrange="2"/>
          <arpeggiator arpcycle="0" arpdir="0" arptime="200" arptime_syncmode="0" arprange="1" arp-enabled="0" arpgate="100" arprepeats="1" arpskip="0" arpmode="0" arp="0" arptime_denominator="4" arpmiss="0" arptime_numerator="4"/>
          <midiport inputcontroller="0" outputprogram="1" outputchannel="1" fixedoutputnote="-1" inputchannel="0" writable="0" fixedoutputvelocity="-1" fixedinputvelocity="-1" basevelocity="63" readable="0" outputcontroller="0"/>
          <fxchain numofeffects="0" enabled="0"/>
        </instrumenttrack>
        <pattern pos="1536" steps="16" muted="0" type="1" name="">
          <note vol="100" pos="0" pan="0" key="30" len="767"/>
        </pattern>
        <pattern pos="3072" steps="16" muted="0" type="1" name="">
          <note vol="45" pos="0" pan="0" key="61" len="767"/>
          <note vol="83" pos="0" pan="0" key="49" len="383"/>
          <note vol="83" pos="0" pan="0" key="42" len="767"/>
          <note vol="83" pos="384" pan="0" key="47" len="384"/>
          <note vol="45" pos="768" pan="0" key="61" len="767"/>
          <note vol="55" pos="768" pan="0" key="50" len="383"/>
          <note vol="83" pos="768" pan="0" key="45" len="383"/>
          <note vol="83" pos="768" pan="0" key="42" len="767"/>
          <note vol="55" pos="1152" pan="0" key="49" len="384"/>
          <note vol="83" pos="1152" pan="0" key="44" len="384"/>
          <note vol="45" pos="1536" pan="0" key="61" len="767"/>
          <note vol="83" pos="1536" pan="0" key="49" len="383"/>
          <note vol="83" pos="1536" pan="0" key="42" len="767"/>
          <note vol="83" pos="1920" pan="0" key="47" len="384"/>
          <note vol="45" pos="2304" pan="0" key="61" len="767"/>
          <note vol="55" pos="2304" pan="0" key="50" len="383"/>
          <note vol="83" pos="2304" pan="0" key="45" len="383"/>
          <note vol="83" pos="2304" pan="0" key="42" len="767"/>
          <note vol="55" pos="2688" pan="0" key="49" len="384"/>
          <note vol="83" pos="2688" pan="0" key="44" len="384"/>
          <note vol="83" pos="3072" pan="0" key="42" len="767"/>
          <note vol="83" pos="3840" pan="0" key="42" len="767"/>
          <note vol="83" pos="4608" pan="0" key="42" len="767"/>
          <note vol="83" pos="5376" pan="0" key="42" len="767"/>
          <note vol="45" pos="6144" pan="0" key="61" len="767"/>
          <note vol="83" pos="6144" pan="0" key="49" len="383"/>
          <note vol="83" pos="6144" pan="0" key="42" len="767"/>
          <note vol="83" pos="6528" pan="0" key="47" len="384"/>
          <note vol="45" pos="6912" pan="0" key="61" len="767"/>
          <note vol="55" pos="6912" pan="0" key="50" len="383"/>
          <note vol="83" pos="6912" pan="0" key="45" len="383"/>
          <note vol="83" pos="6912" pan="0" key="42" len="767"/>
          <note vol="55" pos="7296" pan="0" key="49" len="384"/>
          <note vol="83" pos="7296" pan="0" key="44" len="384"/>
          <note vol="45" pos="7680" pan="0" key="61" len="767"/>
          <note vol="83" pos="7680" pan="0" key="49" len="383"/>
          <note vol="83" pos="7680" pan="0" key="42" len="767"/>
          <note vol="83" pos="8064" pan="0" key="47" len="384"/>
          <note vol="45" pos="8448" pan="0" key="61" len="767"/>
          <note vol="55" pos="8448" pan="0" key="50" len="383"/>
          <note vol="83" pos="8448" pan="0" key="45" len="383"/>
          <note vol="83" pos="8448" pan="0" key="42" len="767"/>
          <note vol="55" pos="8832" pan="0" key="49" len="384"/>
          <note vol="83" pos="8832" pan="0" key="44" len="384"/>
          <note vol="45" pos="9216" pan="0" key="61" len="767"/>
          <note vol="83" pos="9216" pan="0" key="49" len="383"/>
          <note vol="83" pos="9216" pan="0" key="42" len="767"/>
          <note vol="83" pos="9600" pan="0" key="47" len="384"/>
          <note vol="45" pos="9984" pan="0" key="61" len="767"/>
          <note vol="55" pos="9984" pan="0" key="50" len="383"/>
          <note vol="83" pos="9984" pan="0" key="45" len="383"/>
          <note vol="83" pos="9984" pan="0" key="42" len="767"/>
          <note vol="55" pos="10368" pan="0" key="49" len="384"/>
          <note vol="83" pos="10368" pan="0" key="44" len="384"/>
          <note vol="45" pos="10752" pan="0" key="61" len="767"/>
          <note vol="83" pos="10752" pan="0" key="49" len="383"/>
          <note vol="83" pos="10752" pan="0" key="42" len="767"/>
          <note vol="83" pos="11136" pan="0" key="47" len="384"/>
          <note vol="45" pos="11520" pan="0" key="61" len="767"/>
          <note vol="55" pos="11520" pan="0" key="50" len="383"/>
          <note vol="83" pos="11520" pan="0" key="45" len="383"/>
          <note vol="83" pos="11520" pan="0" key="42" len="767"/>
          <note vol="55" pos="11904" pan="0" key="49" len="384"/>
          <note vol="83" pos="11904" pan="0" key="44" len="384"/>
        </pattern>
        <pattern pos="27648" steps="16" muted="0" type="1" name="">
          <note vol="45" pos="0" pan="0" key="61" len="767"/>
          <note vol="83" pos="0" pan="0" key="49" len="383"/>
          <note vol="83" pos="0" pan="0" key="42" len="767"/>
          <note vol="83" pos="384" pan="0" key="47" len="384"/>
          <note vol="45" pos="768" pan="0" key="61" len="767"/>
          <note vol="55" pos="768" pan="0" key="50" len="383"/>
          <note vol="83" pos="768" pan="0" key="45" len="383"/>
          <note vol="83" pos="768" pan="0" key="42" len="767"/>
          <note vol="55" pos="1152" pan="0" key="49" len="384"/>
          <note vol="83" pos="1152" pan="0" key="44" len="384"/>
          <note vol="45" pos="1536" pan="0" key="61" len="767"/>
          <note vol="83" pos="1536" pan="0" key="49" len="383"/>
          <note vol="83" pos="1536" pan="0" key="42" len="767"/>
          <note vol="83" pos="1920" pan="0" key="47" len="384"/>
          <note vol="45" pos="2304" pan="0" key="61" len="767"/>
          <note vol="55" pos="2304" pan="0" key="50" len="383"/>
          <note vol="83" pos="2304" pan="0" key="45" len="383"/>
          <note vol="83" pos="2304" pan="0" key="42" len="767"/>
          <note vol="55" pos="2688" pan="0" key="49" len="384"/>
          <note vol="83" pos="2688" pan="0" key="44" len="384"/>
          <note vol="83" pos="3072" pan="0" key="42" len="767"/>
          <note vol="83" pos="3840" pan="0" key="42" len="767"/>
          <note vol="83" pos="4608" pan="0" key="42" len="767"/>
          <note vol="83" pos="5376" pan="0" key="42" len="767"/>
          <note vol="45" pos="6144" pan="0" key="61" len="767"/>
          <note vol="83" pos="6144" pan="0" key="49" len="383"/>
          <note vol="83" pos="6144" pan="0" key="42" len="767"/>
          <note vol="83" pos="6528" pan="0" key="47" len="384"/>
          <note vol="45" pos="6912" pan="0" key="61" len="767"/>
          <note vol="55" pos="6912" pan="0" key="50" len="383"/>
          <note vol="83" pos="6912" pan="0" key="45" len="383"/>
          <note vol="83" pos="6912" pan="0" key="42" len="767"/>
          <note vol="55" pos="7296" pan="0" key="49" len="384"/>
          <note vol="83" pos="7296" pan="0" key="44" len="384"/>
          <note vol="45" pos="7680" pan="0" key="61" len="767"/>
          <note vol="83" pos="7680" pan="0" key="49" len="383"/>
          <note vol="83" pos="7680" pan="0" key="42" len="767"/>
          <note vol="83" pos="8064" pan="0" key="47" len="384"/>
          <note vol="45" pos="8448" pan="0" key="61" len="767"/>
          <note vol="55" pos="8448" pan="0" key="50" len="383"/>
          <note vol="83" pos="8448" pan="0" key="45" len="383"/>
          <note vol="83" pos="8448" pan="0" key="42" len="767"/>
          <note vol="55" pos="8832" pan="0" key="49" len="384"/>
          <note vol="83" pos="8832" pan="0" key="44" len="384"/>
          <note vol="45" pos="9216" pan="0" key="61" len="767"/>
          <note vol="83" pos="9216" pan="0" key="49" len="383"/>
          <note vol="83" pos="9216" pan="0" key="42" len="767"/>
          <note vol="83" pos="9600" pan="0" key="47" len="384"/>
          <note vol="45" pos="9984" pan="0" key="61" len="767"/>
          <note vol="55" pos="9984" pan="0" key="50" len="383"/>
          <note vol="83" pos="9984" pan="0" key="45" len="383"/>
          <note vol="83" pos="9984" pan="0" key="42" len="767"/>
          <note vol="55" pos="10368" pan="0" key="49" len="384"/>
          <note vol="83" pos="10368" pan="0" key="44" len="384"/>
          <note vol="45" pos="10752" pan="0" key="61" len="767"/>
          <note vol="83" pos="10752" pan="0" key="49" len="383"/>
          <note vol="83" pos="10752" pan="0" key="42" len="767"/>
          <note vol="83" pos="11136" pan="0" key="47" len="384"/>
          <note vol="45" pos="11520" pan="0" key="61" len="767"/>
          <note vol="55" pos="11520" pan="0" key="50" len="383"/>
          <note vol="83" pos="11520" pan="0" key="45" len="383"/>
          <note vol="83" pos="11520" pan="0" key="42" len="767"/>
          <note vol="55" pos="11904" pan="0" key="49" len="384"/>
          <note vol="83" pos="11904" pan="0" key="44" len="384"/>
        </pattern>
        <pattern pos="26112" steps="16" muted="0" type="1" name="">
          <note vol="100" pos="0" pan="0" key="30" len="767"/>
        </pattern>
      </track>
      <track muted="0" type="0" mutedBeforeSolo="0" solo="0" name="LABS">
        <instrumenttrack vol="96" pan="0" fxch="2" lastkey="127" basenote="69" firstkey="0" enablecc="0" pitch="0" pitchrange="2" usemasterpitch="1">
          <midicontrollers cc67="0" cc0="0" cc19="0" cc66="0" cc1="0" cc31="0" cc59="0" cc40="0" cc84="0" cc56="0" cc21="0" cc121="0" cc27="0" cc12="0" cc79="0" cc83="0" cc115="0" cc124="0" cc92="0" cc23="0" cc77="0" cc86="0" cc13="0" cc127="0" cc60="0" cc96="0" cc126="0" cc103="0" cc61="0" cc93="0" cc89="0" cc10="0" cc81="0" cc54="0" cc52="0" cc45="0" cc48="0" cc85="0" cc90="0" cc8="0" cc78="0" cc43="0" cc14="0" cc80="0" cc102="0" cc69="0" cc120="0" cc33="0" cc119="0" cc5="0" cc29="0" cc20="0" cc91="0" cc99="0" cc4="0" cc15="0" cc7="0" cc87="0" cc18="0" cc9="0" cc50="0" cc58="0" cc55="0" cc36="0" cc65="0" cc109="0" cc57="0" cc30="0" cc46="0" cc25="0" cc106="0" cc38="0" cc73="0" cc114="0" cc42="0" cc3="0" cc122="0" cc28="0" cc70="0" cc6="0" cc51="0" cc72="0" cc95="0" cc104="0" cc37="0" cc123="0" cc26="0" cc94="0" cc74="0" cc17="0" cc32="0" cc16="0" cc22="0" cc107="0" cc49="0" cc47="0" cc100="0" cc34="0" cc62="0" cc53="0" cc11="0" cc35="0" cc97="0" cc98="0" cc105="0" cc2="0" cc71="0" cc117="0" cc82="0" cc108="0" cc24="0" cc88="0" cc101="0" cc44="0" cc111="0" cc112="0" cc125="0" cc68="0" cc63="0" cc76="0" cc64="0" cc41="0" cc110="0" cc113="0" cc116="0" cc75="0" cc39="0" cc118="0"/>
          <instrument name="vestige">
            <vestige chunk="VkMyIdcZAAA8P3htbCB2ZXJzaW9uPSIxLjAiIGVuY29kaW5nPSJVVEYtOCI/PiA8TGFicz48TUVUQSBmYW1pbHk9IlN5bnRoIFBhZHMiIG5hbWU9IlBhZCAjMDAwMSIgcHJvZHVjdE1vZGU9IjAiIHZlcnNpb249IjEuMC42IiB0YWdzPSIxMDMwMjAwOlN5bnRoIiBtb2RpZmllZD0iMSIvPjxVSSB1aXNpemU9IjEuMCIgdWljb2xsYXBzZWQ9IjEiLz48QVJUSUNTPjxTRVRUSU5HIGlkPSJwX3N5bmNUb1RlbXBvIiB2YWx1ZT0iMSIvPjxTRVRUSU5HIGlkPSJwX2R5bmFtaWNzVmVsb2NpdHlNb2RlIiB2YWx1ZT0iRlVMTCBWRUxPQ0lUWSBSQU5HRSIvPjxTRVRUSU5HIGlkPSJwX3Nob3J0UlRNb2RlIiB2YWx1ZT0iLTIuMCIvPjxTRVRUSU5HIGlkPSJwX3ZlbG9jaXR5Q3VydmUiIHZhbHVlPSJMSU5FQVIgVkVMT0NJVFkiLz48U0VUVElORyBpZD0icF9xdWFudGlzZU1vZGUiIHZhbHVlPSIiLz48U0VUVElORyBpZD0icF9taXhlckFkdmFuY2VkIiB2YWx1ZT0iMSIvPjxTRVRUSU5HIGlkPSJwX21peGVyR2xvYmFsIiB2YWx1ZT0iMSIvPjxTRVRUSU5HIGlkPSJwX21peGVyTG9jayIgdmFsdWU9IjAiLz48U0VUVElORyBpZD0icF9taXhlclBhZ2UiIHZhbHVlPSIiLz48U0VUVElORyBpZD0icF9hcnRpY0xvY2siIHZhbHVlPSIwIi8+PFNFVFRJTkcgaWQ9InBfYXJ0aWNQYWdlIiB2YWx1ZT0iIi8+PFNFVFRJTkcgaWQ9InBfbGFzdFNlbGVjdGVkUHJpbWFyeUFydGljIiB2YWx1ZT0iMCIvPjxTRVRUSU5HIGlkPSJwX21pZGlDaGFubmVsIiB2YWx1ZT0iMCIvPjxTRVRUSU5HIGlkPSJwX3NlbGVjdGVkVGFncyIgdmFsdWU9IiIvPjxTRVRUSU5HIGlkPSJwX2ZpbHRlclBvcyIgdmFsdWU9IltdIi8+PFNFVFRJTkcgaWQ9InBfcHJlc2V0UG9zIiB2YWx1ZT0iWzAsIDEwNjI5XSIvPjxTRVRUSU5HIGlkPSJwX2V2b0NvbnRhaW5lclBvcyIgdmFsdWU9IltdIi8+PFNFVFRJTkcgaWQ9InBfb2N0YXZlIiB2YWx1ZT0iMCIvPjxTRVRUSU5HIGlkPSJwX29kZXN0SW5kaWNlcyIgdmFsdWU9IjAsMSwyLDMsNCw1LDYsNyw4LDksMTAsMTEsMTIsMTMsMTQsMTUsMTYsMTcsMTgsMTksMjAsMjEsMjIsMjMsMjQsMjUsMjYsMjcsMjgsMjksMzAsMzEsMzIsMzMsMzQsMzUsMzYsMzcsMzgsMzksNDAsNDEsNDIsNDMsNDQsNDUsNDYsNDcsNDgsNDksNTAsNTEsNTIsNTMsNTQsNTUsNTYsNTcsNTgsNTksNjAsNjEsNjIsNjMsNjQsNjUsNjYsNjcsNjgsNjksNzAsNzEsNzIsNzMsNzQsNzUsNzYsNzcsNzgsNzksODAsODEsODIsODMsODQsODUsODYsODcsODgsODksOTAsOTEsOTIsOTMsOTQsOTUsOTYsOTcsOTgsOTksMTAwLDEwMSwxMDIsMTAzLDEwNCwxMDUsMTA2LDEwNywxMDgsMTA5LDExMCwxMTEsMTEyLDExMywxMTQsMTE1LDExNiwxMTcsMTE4LDExOSwxMjAsMTIxLDEyMiwxMjMsMTI0LDEyNSwxMjYsMTI3LDEyOCwxMjksMTMwLDEzMSwxMzIsMTMzLDEzNCwxMzUsMTM2LDEzNywxMzgsMTM5LDE0MCwxNDEsMTQyLDE0MywxNDQsMTQ1LDE0NiwxNDcsMTQ4LDE0OSwxNTAsMTUxLDE1MiwxNTMsMTU0LDE1NSwxNTYsMTU3LDE1OCwxNTksMTYwLDE2MSwxNjIsMTYzLDE2NCwxNjUsMTY2LDE2NywxNjgsMTY5LDE3MCwxNzEsMTcyLDE3MywxNzQsMTc1LDE3NiwxNzcsMTc4LDE3OSwxODAsMTgxLDE4MiwxODMsMTg0LDE4NSwxODYsMTg3LDE4OCwxODksMTkwLDE5MSwxOTIsMTkzLDE5NCwxOTUsMTk2LDE5NywxOTgsMTk5LDIwMCwyMDEsMjAyLDIwMywyMDQsMjA1LDIwNiwyMDcsMjA4LDIwOSwyMTAsMjExLDIxMiwyMTMsMjE0LDIxNSwyMTYsMjE3LDIxOCwyMTksMjIwLDIyMSwyMjIsMjIzLDIyNCwyMjUsMjI2LDIyNywyMjgsMjI5LDIzMCwyMzEsMjMyLDIzMywyMzQsMjM1LDIzNiwyMzcsMjM4LDIzOSwyNDAsMjQxLDI0MiwyNDMsMjQ0LDI0NSwyNDYsMjQ3LDI0OCwyNDksMjUwLDI1MSwyNTIsMjUzLDI1NCwyNTUsMjU2LDI1NywyNTgsMjU5LDI2MCwyNjEsMjYyLDI2MywyNjQiLz48U0VUVElORyBpZD0icF90aW1lU3RyZXRjaCIgdmFsdWU9IkRlZmF1bHQiLz48U0VUVElORyBpZD0icF92b2ljZUNob2tlIiB2YWx1ZT0iMC4wIi8+PFNFVFRJTkcgaWQ9InBfbG9vcEVuZCIgdmFsdWU9IjAuMCIvPjxBUlRJQz48U0VUVElORyBpZD0iYV9uYW1lIiB2YWx1ZT0iTEFCU19TeW50aF9QYWRfIzAwMDEiLz48U0VUVElORyBpZD0iYV92ZXJzaW9uIiB2YWx1ZT0iMTY3Nzg3NTIiLz48U0VUVElORyBpZD0iYV90ZW1wbGF0ZUlkeCIgdmFsdWU9IjAiLz48U0VUVElORyBpZD0iYV9vZGVzdCIgdmFsdWU9IlJFVkVSQiIvPjxTRVRUSU5HIGlkPSJhX2FjdGl2ZSIgdmFsdWU9IjIiLz48U0VUVElORyBpZD0iYV9iYWNrQWN0aXZlIiB2YWx1ZT0iMCIvPjxTRVRUSU5HIGlkPSJhX3R3b0hhbmRlZCIgdmFsdWU9IjAiLz48U0VUVElORyBpZD0iYV9hdXRvTWFrZVVwIiB2YWx1ZT0iMCIvPjxTRVRUSU5HIGlkPSJ0X3R5cGUiIHZhbHVlPSIwIi8+PFNFVFRJTkcgaWQ9InRfZW5hYmxlZCIgdmFsdWU9IjEiLz48U0VUVElORyBpZD0idF9sYXRjaCIgdmFsdWU9IjAiLz48U0VUVElORyBpZD0idF9rZXlzd2l0Y2giIHZhbHVlPSIwIi8+PFNFVFRJTkcgaWQ9InRfbWlkaUNoYW5uZWwiIHZhbHVlPSIxIi8+PFNFVFRJTkcgaWQ9InRfdmVsRnJvbSIgdmFsdWU9IjEiLz48U0VUVElORyBpZD0idF92ZWxUbyIgdmFsdWU9IjEyNyIvPjxTRVRUSU5HIGlkPSJ0X2NjIiB2YWx1ZT0iMzIiLz48U0VUVElORyBpZD0idF9jY1ZhbHVlRnJvbSIgdmFsdWU9IjAiLz48U0VUVElORyBpZD0idF9jY1ZhbHVlVG8iIHZhbHVlPSIxMjciLz48U0VUVElORyBpZD0idF9zcGVlZEZyb20iIHZhbHVlPSIwLjAiLz48U0VUVElORyBpZD0idF9zcGVlZFRvIiB2YWx1ZT0iMC41Ii8+PFNFVFRJTkcgaWQ9InRfcHJvZ3JhbUNoYW5nZSIgdmFsdWU9IjAiLz48U0VUVElORyBpZD0idF90ZW1wb0Zyb20iIHZhbHVlPSIwLjAiLz48U0VUVElORyBpZD0idF90ZW1wb1RvIiB2YWx1ZT0iMC4wIi8+PFNFVFRJTkcgaWQ9InJyX3RpbWVvdXQiIHZhbHVlPSItMS4wIi8+PFNFVFRJTkcgaWQ9InJyX25laWdoYm91ck1pbiIgdmFsdWU9IjI0Ii8+PFNFVFRJTkcgaWQ9InJyX25laWdoYm91ck1heCIgdmFsdWU9Ijk2Ii8+PFNFVFRJTkcgaWQ9InJyX3VzZU5laWdoYm91ciIgdmFsdWU9IjAiLz48U0VUVElORyBpZD0icnJfY291bnQiIHZhbHVlPSItMSIvPjxTRVRUSU5HIGlkPSJycl9pbmMiIHZhbHVlPSIxIi8+PFNFVFRJTkcgaWQ9InJyX2xheWVycyIgdmFsdWU9IjEiLz48U0VUVElORyBpZD0icnJfZ2FpbiIgdmFsdWU9IjEuMCIvPjxTRVRUSU5HIGlkPSJycl9zdGFydCIgdmFsdWU9IjAiLz48U0VUVElORyBpZD0icnJfc3luYyIgdmFsdWU9IjAiLz48U0VUVElORyBpZD0icnJfcGxheSIgdmFsdWU9IjEiLz48U0VUVElORyBpZD0icnJfa2V5c3dpdGNoRnJvbSIgdmFsdWU9Ii0xIi8+PFNFVFRJTkcgaWQ9InJyX2tleXN3aXRjaFRvIiB2YWx1ZT0iLTEiLz48U0VUVElORyBpZD0icnJfa2V5c3dpdGNoVG8iIHZhbHVlPSItMSIvPjxTRVRUSU5HIGlkPSJycl9tb2RlIiB2YWx1ZT0iMCIvPjxTRVRUSU5HIGlkPSJyX21pZGlDaGFubmVsIiB2YWx1ZT0iMCIvPjxTRVRUSU5HIGlkPSJyX3RyYW5zcG9zZSIgdmFsdWU9IjAiLz48U0VUVElORyBpZD0icl9sYXllclRyYW5zcG9zZSIgdmFsdWU9IjAiLz48U0VUVElORyBpZD0iaV9leHByZXNzaW9uIiB2YWx1ZT0iMS4wIi8+PFNFVFRJTkcgaWQ9ImlfZHluYW1pY3MiIHZhbHVlPSIxLjAiLz48U0VUVElORyBpZD0iaV9yZXZlcmIiIHZhbHVlPSIwLjAiLz48U0VUVElORyBpZD0iaV9yZWxlYXNlIiB2YWx1ZT0iMC41Ii8+PFNFVFRJTkcgaWQ9ImlfdGlnaHQiIHZhbHVlPSIwLjUiLz48U0VUVElORyBpZD0iaV92aWJyYXRvIiB2YWx1ZT0iMS4wIi8+PFNFVFRJTkcgaWQ9ImlfdmFyaWF0aW9uIiB2YWx1ZT0iMC4wIi8+PFNFVFRJTkcgaWQ9InNfcGFuIiB2YWx1ZT0iMC41Ii8+PFNFVFRJTkcgaWQ9InNfd2lkdGgiIHZhbHVlPSIwLjUiLz48U0VUVElORyBpZD0ic19mbGlwIiB2YWx1ZT0iMC4wIi8+PE1JWD48U0VUVElORyBpZD0ibV9tYWluIiB2YWx1ZT0iMS4wIiBtaWNJZD0iMSIvPjxTRVRUSU5HIGlkPSJlX21haW4iIHZhbHVlPSIxIiBtaWNJZD0iMSIvPjxTRVRUSU5HIGlkPSJiX21haW4iIHZhbHVlPSIwIiBtaWNJZD0iMSIvPjxTRVRUSU5HIGlkPSJtX2FsdDEiIHZhbHVlPSIwLjAiIG1pY0lkPSIyIi8+PFNFVFRJTkcgaWQ9ImVfYWx0MSIgdmFsdWU9IjAiIG1pY0lkPSIyIi8+PFNFVFRJTkcgaWQ9ImJfYWx0MSIgdmFsdWU9IjAiIG1pY0lkPSIyIi8+PFNFVFRJTkcgaWQ9Im1fYWx0MiIgdmFsdWU9IjAuMCIgbWljSWQ9IjMiLz48U0VUVElORyBpZD0iZV9hbHQyIiB2YWx1ZT0iMCIgbWljSWQ9IjMiLz48U0VUVElORyBpZD0iYl9hbHQyIiB2YWx1ZT0iMCIgbWljSWQ9IjMiLz48U0VUVElORyBpZD0ibV9hbHQzIiB2YWx1ZT0iMC4wIiBtaWNJZD0iNCIvPjxTRVRUSU5HIGlkPSJlX2FsdDMiIHZhbHVlPSIwIiBtaWNJZD0iNCIvPjxTRVRUSU5HIGlkPSJiX2FsdDMiIHZhbHVlPSIwIiBtaWNJZD0iNCIvPjwvTUlYPjwvQVJUSUM+PC9BUlRJQ1M+PFBBUkFNRVRFUlM+PFBBUkFNIGlkPSJnX2dhaW4iIHZhbHVlPSIxLjAiIGNjPSI3Ii8+PFBBUkFNIGlkPSJnX3BhbiIgdmFsdWU9IjAuNSIgY2M9IjEwIi8+PFBBUkFNIGlkPSJnX3R1bmUiIHZhbHVlPSIwLjAiIGNjPSItMSIvPjxQQVJBTSBpZD0iaV9yZXZlcmIiIHZhbHVlPSIwLjAiIGNjPSIxOSIvPjxQQVJBTSBpZD0iaV90aWdodCIgdmFsdWU9IjAuNSIgY2M9IjE4Ii8+PFBBUkFNIGlkPSJpX3NwZWVkIiB2YWx1ZT0iMC4wIiBjYz0iLTEiLz48UEFSQU0gaWQ9ImlfcmVsZWFzZSIgdmFsdWU9IjAuNSIgY2M9IjE3Ii8+PFBBUkFNIGlkPSJpX2V4cHJlc3Npb24iIHZhbHVlPSIxLjAiIGNjPSIxMSIvPjxQQVJBTSBpZD0iaV9keW5hbWljcyIgdmFsdWU9IjEuMCIgY2M9IjEiLz48UEFSQU0gaWQ9ImlfdmFyaWF0aW9uIiB2YWx1ZT0iMC4wIiBjYz0iMjAiLz48UEFSQU0gaWQ9ImlfdmlicmF0byIgdmFsdWU9IjEuMCIgY2M9IjIxIi8+PFBBUkFNIGlkPSJpX2VudmF0dCIgdmFsdWU9IjAuNzQ5OTk5OTQwMzk1MzU1MiIgY2M9Ii0xIi8+PFBBUkFNIGlkPSJpX2VudmRlYyIgdmFsdWU9IjAuNzUiIGNjPSItMSIvPjxQQVJBTSBpZD0iaV9lbnZzdXMiIHZhbHVlPSIxLjAiIGNjPSItMSIvPjxQQVJBTSBpZD0iaV9lbnZyZWwiIHZhbHVlPSIyLjAiIGNjPSItMSIvPjxQQVJBTSBpZD0iaV9taXhzaW1wbGUiIHZhbHVlPSIwLjUiIGNjPSItMSIvPjxQQVJBTSBpZD0ic19mbGlwIiB2YWx1ZT0iMC4wIiBjYz0iLTEiLz48UEFSQU0gaWQ9InNfd2lkdGgiIHZhbHVlPSIwLjUiIGNjPSItMSIvPjxQQVJBTSBpZD0ic19wYW4iIHZhbHVlPSIwLjUiIGNjPSItMSIvPjxQQVJBTSBpZD0iaV9kZWxheSIgdmFsdWU9IjAuMCIgY2M9Ii0xIi8+PFBBUkFNIGlkPSJpX2Ftb3VudCIgdmFsdWU9IjAuMCIgY2M9Ii0xIi8+PFBBUkFNIGlkPSJpX2Rpc3RvcnQiIHZhbHVlPSIwLjAiIGNjPSItMSIvPjxQQVJBTSBpZD0iaV9sdXNoVmVyYiIgdmFsdWU9IjAuMCIgY2M9Ii0xIi8+PFBBUkFNIGlkPSJpX3BlZHZvbCIgdmFsdWU9IjAuNSIgY2M9Ii0xIi8+PFBBUkFNIGlkPSJpX3BlZER5biIgdmFsdWU9IjAuNSIgY2M9Ii0xIi8+PFBBUkFNIGlkPSJpX2xlbmd0aCIgdmFsdWU9IjAuMCIgY2M9Ii0xIi8+PFBBUkFNIGlkPSJpX3RpbWVNYWNoaW5lIiB2YWx1ZT0iMC4wIiBjYz0iLTEiLz48UEFSQU0gaWQ9Imlfc3RyZXRjaCIgdmFsdWU9IjAuMCIgY2M9Ii0xIi8+PFBBUkFNIGlkPSJpX3NvZnRQZWRhbCIgdmFsdWU9IjAuMCIgY2M9Ii0xIi8+PFBBUkFNIGlkPSJpX3Jlc3BvbnNlIiB2YWx1ZT0iMC4wIiBjYz0iLTEiLz48UEFSQU0gaWQ9ImlfbWFsbGV0IiB2YWx1ZT0iMC4wIiBjYz0iLTEiLz48UEFSQU0gaWQ9Imlfc3RvcGVNdXRlIiB2YWx1ZT0iMC4wIiBjYz0iLTEiLz48UEFSQU0gaWQ9ImlfZGlyZWN0aW9uIiB2YWx1ZT0iMC4wIiBjYz0iLTEiLz48UEFSQU0gaWQ9ImlfbHBGaWx0ZXIiIHZhbHVlPSIwLjAiIGNjPSItMSIvPjxQQVJBTSBpZD0iaV9wb3J0YW1lbnRvIiB2YWx1ZT0iMC4wIiBjYz0iLTEiLz48UEFSQU0gaWQ9ImlfbWV0YVsxOF0iIHZhbHVlPSIwLjAiIGNjPSItMSIvPjxQQVJBTSBpZD0iaV9tZXRhWzE5XSIgdmFsdWU9IjAuMCIgY2M9Ii0xIi8+PFBBUkFNIGlkPSJpX21ldGFbMjBdIiB2YWx1ZT0iMC4wIiBjYz0iLTEiLz48UEFSQU0gaWQ9ImlfbWV0YVsyMV0iIHZhbHVlPSIwLjAiIGNjPSItMSIvPjxQQVJBTSBpZD0iaV9tZXRhWzIyXSIgdmFsdWU9IjAuMCIgY2M9Ii0xIi8+PFBBUkFNIGlkPSJpX21ldGFbMjNdIiB2YWx1ZT0iMC4wIiBjYz0iLTEiLz48UEFSQU0gaWQ9ImlfbWV0YVsyNF0iIHZhbHVlPSIwLjAiIGNjPSItMSIvPjxQQVJBTSBpZD0iaV9tZXRhWzI1XSIgdmFsdWU9IjAuMCIgY2M9Ii0xIi8+PFBBUkFNIGlkPSJpX21ldGFbMjZdIiB2YWx1ZT0iMC4wIiBjYz0iLTEiLz48UEFSQU0gaWQ9Im1fbWFpbiIgdmFsdWU9IjEuMCIgY2M9IjIyIi8+PFBBUkFNIGlkPSJtX2FsdDEiIHZhbHVlPSIwLjAiIGNjPSIyMyIvPjxQQVJBTSBpZD0ibV9hbHQyIiB2YWx1ZT0iMC4wIiBjYz0iMjQiLz48UEFSQU0gaWQ9Im1fYWx0MyIgdmFsdWU9IjAuMCIgY2M9IjI1Ii8+PC9QQVJBTUVURVJTPjwvTGFicz4A" guivisible="0" plugin="uservst:LABS (64 Bit).dll" program="0">
              <key/>
            </vestige>
          </instrument>
          <eldata fcut="14000" fres="0.5" fwet="0" ftype="0">
            <elvol lspd="0.1" latt="0" lspd_numerator="4" lspd_syncmode="0" sustain="0.5" hold="0.5" lamt="0" x100="0" att="0" rel="0.1" lpdel="0" userwavefile="" lspd_denominator="4" pdel="0" ctlenvamt="0" amt="0" lshp="0" dec="0.5"/>
            <elcut lspd="0.1" latt="0" lspd_numerator="4" lspd_syncmode="0" sustain="0.5" hold="0.5" lamt="0" x100="0" att="0" rel="0.1" lpdel="0" userwavefile="" lspd_denominator="4" pdel="0" ctlenvamt="0" amt="0" lshp="0" dec="0.5"/>
            <elres lspd="0.1" latt="0" lspd_numerator="4" lspd_syncmode="0" sustain="0.5" hold="0.5" lamt="0" x100="0" att="0" rel="0.1" lpdel="0" userwavefile="" lspd_denominator="4" pdel="0" ctlenvamt="0" amt="0" lshp="0" dec="0.5"/>
          </eldata>
          <chordcreator chord="0" chord-enabled="0" chordrange="1"/>
          <arpeggiator arpcycle="0" arpdir="0" arptime="200" arptime_syncmode="0" arprange="1" arp-enabled="0" arpgate="100" arprepeats="1" arpskip="0" arpmode="0" arp="0" arptime_denominator="4" arpmiss="0" arptime_numerator="4"/>
          <midiport inputcontroller="0" outputprogram="1" outputchannel="1" fixedoutputnote="-1" inputchannel="0" writable="0" fixedoutputvelocity="-1" fixedinputvelocity="-1" basevelocity="63" readable="0" outputcontroller="0"/>
          <fxchain numofeffects="0" enabled="0"/>
        </instrumenttrack>
        <pattern pos="12288" steps="16" muted="0" type="1" name="">
          <note vol="39" pos="0" pan="0" key="73" len="383"/>
          <note vol="65" pos="0" pan="0" key="66" len="3071"/>
          <note vol="39" pos="0" pan="0" key="61" len="383"/>
          <note vol="65" pos="0" pan="0" key="54" len="3071"/>
          <note vol="39" pos="384" pan="0" key="71" len="384"/>
          <note vol="39" pos="384" pan="0" key="59" len="384"/>
          <note vol="39" pos="768" pan="0" key="74" len="383"/>
          <note vol="39" pos="768" pan="0" key="62" len="383"/>
          <note vol="39" pos="1152" pan="0" key="78" len="192"/>
          <note vol="39" pos="1344" pan="0" key="77" len="192"/>
          <note vol="39" pos="1344" pan="0" key="65" len="192"/>
          <note vol="39" pos="1536" pan="0" key="73" len="383"/>
          <note vol="39" pos="1536" pan="0" key="61" len="383"/>
          <note vol="39" pos="1920" pan="0" key="71" len="384"/>
          <note vol="39" pos="1920" pan="0" key="59" len="384"/>
          <note vol="39" pos="2304" pan="0" key="74" len="383"/>
          <note vol="39" pos="2304" pan="0" key="62" len="383"/>
          <note vol="39" pos="2688" pan="0" key="78" len="192"/>
          <note vol="39" pos="2880" pan="0" key="80" len="192"/>
          <note vol="39" pos="2880" pan="0" key="68" len="192"/>
        </pattern>
        <pattern pos="36864" steps="16" muted="0" type="1" name="">
          <note vol="39" pos="0" pan="0" key="73" len="383"/>
          <note vol="65" pos="0" pan="0" key="66" len="3071"/>
          <note vol="39" pos="0" pan="0" key="61" len="383"/>
          <note vol="65" pos="0" pan="0" key="54" len="3071"/>
          <note vol="39" pos="384" pan="0" key="71" len="384"/>
          <note vol="39" pos="384" pan="0" key="59" len="384"/>
          <note vol="39" pos="768" pan="0" key="74" len="383"/>
          <note vol="39" pos="768" pan="0" key="62" len="383"/>
          <note vol="39" pos="1152" pan="0" key="78" len="192"/>
          <note vol="39" pos="1344" pan="0" key="77" len="192"/>
          <note vol="39" pos="1344" pan="0" key="65" len="192"/>
          <note vol="39" pos="1536" pan="0" key="73" len="383"/>
          <note vol="39" pos="1536" pan="0" key="61" len="383"/>
          <note vol="39" pos="1920" pan="0" key="71" len="384"/>
          <note vol="39" pos="1920" pan="0" key="59" len="384"/>
          <note vol="39" pos="2304" pan="0" key="74" len="383"/>
          <note vol="39" pos="2304" pan="0" key="62" len="383"/>
          <note vol="39" pos="2688" pan="0" key="78" len="192"/>
          <note vol="39" pos="2880" pan="0" key="80" len="192"/>
          <note vol="39" pos="2880" pan="0" key="68" len="192"/>
        </pattern>
      </track>
      <track muted="0" type="0" mutedBeforeSolo="0" solo="0" name="LABS">
        <instrumenttrack vol="50" pan="0" fxch="2" lastkey="127" basenote="69" firstkey="0" enablecc="0" pitch="0" pitchrange="2" usemasterpitch="1">
          <midicontrollers cc67="0" cc0="0" cc19="0" cc66="0" cc1="0" cc31="0" cc59="0" cc40="0" cc84="0" cc56="0" cc21="0" cc121="0" cc27="0" cc12="0" cc79="0" cc83="0" cc115="0" cc124="0" cc92="0" cc23="0" cc77="0" cc86="0" cc13="0" cc127="0" cc60="0" cc96="0" cc126="0" cc103="0" cc61="0" cc93="0" cc89="0" cc10="0" cc81="0" cc54="0" cc52="0" cc45="0" cc48="0" cc85="0" cc90="0" cc8="0" cc78="0" cc43="0" cc14="0" cc80="0" cc102="0" cc69="0" cc120="0" cc33="0" cc119="0" cc5="0" cc29="0" cc20="0" cc91="0" cc99="0" cc4="0" cc15="0" cc7="0" cc87="0" cc18="0" cc9="0" cc50="0" cc58="0" cc55="0" cc36="0" cc65="0" cc109="0" cc57="0" cc30="0" cc46="0" cc25="0" cc106="0" cc38="0" cc73="0" cc114="0" cc42="0" cc3="0" cc122="0" cc28="0" cc70="0" cc6="0" cc51="0" cc72="0" cc95="0" cc104="0" cc37="0" cc123="0" cc26="0" cc94="0" cc74="0" cc17="0" cc32="0" cc16="0" cc22="0" cc107="0" cc49="0" cc47="0" cc100="0" cc34="0" cc62="0" cc53="0" cc11="0" cc35="0" cc97="0" cc98="0" cc105="0" cc2="0" cc71="0" cc117="0" cc82="0" cc108="0" cc24="0" cc88="0" cc101="0" cc44="0" cc111="0" cc112="0" cc125="0" cc68="0" cc63="0" cc76="0" cc64="0" cc41="0" cc110="0" cc113="0" cc116="0" cc75="0" cc39="0" cc118="0"/>
          <instrument name="vestige">
            <vestige chunk="VkMyIdcZAAA8P3htbCB2ZXJzaW9uPSIxLjAiIGVuY29kaW5nPSJVVEYtOCI/PiA8TGFicz48TUVUQSBmYW1pbHk9IlN5bnRoIFBhZHMiIG5hbWU9IlBhZCAjMDAwMSIgcHJvZHVjdE1vZGU9IjAiIHZlcnNpb249IjEuMC42IiB0YWdzPSIxMDMwMjAwOlN5bnRoIiBtb2RpZmllZD0iMSIvPjxVSSB1aXNpemU9IjEuMCIgdWljb2xsYXBzZWQ9IjEiLz48QVJUSUNTPjxTRVRUSU5HIGlkPSJwX3N5bmNUb1RlbXBvIiB2YWx1ZT0iMSIvPjxTRVRUSU5HIGlkPSJwX2R5bmFtaWNzVmVsb2NpdHlNb2RlIiB2YWx1ZT0iRlVMTCBWRUxPQ0lUWSBSQU5HRSIvPjxTRVRUSU5HIGlkPSJwX3Nob3J0UlRNb2RlIiB2YWx1ZT0iLTIuMCIvPjxTRVRUSU5HIGlkPSJwX3ZlbG9jaXR5Q3VydmUiIHZhbHVlPSJMSU5FQVIgVkVMT0NJVFkiLz48U0VUVElORyBpZD0icF9xdWFudGlzZU1vZGUiIHZhbHVlPSIiLz48U0VUVElORyBpZD0icF9taXhlckFkdmFuY2VkIiB2YWx1ZT0iMSIvPjxTRVRUSU5HIGlkPSJwX21peGVyR2xvYmFsIiB2YWx1ZT0iMSIvPjxTRVRUSU5HIGlkPSJwX21peGVyTG9jayIgdmFsdWU9IjAiLz48U0VUVElORyBpZD0icF9taXhlclBhZ2UiIHZhbHVlPSIiLz48U0VUVElORyBpZD0icF9hcnRpY0xvY2siIHZhbHVlPSIwIi8+PFNFVFRJTkcgaWQ9InBfYXJ0aWNQYWdlIiB2YWx1ZT0iIi8+PFNFVFRJTkcgaWQ9InBfbGFzdFNlbGVjdGVkUHJpbWFyeUFydGljIiB2YWx1ZT0iMCIvPjxTRVRUSU5HIGlkPSJwX21pZGlDaGFubmVsIiB2YWx1ZT0iMCIvPjxTRVRUSU5HIGlkPSJwX3NlbGVjdGVkVGFncyIgdmFsdWU9IiIvPjxTRVRUSU5HIGlkPSJwX2ZpbHRlclBvcyIgdmFsdWU9IltdIi8+PFNFVFRJTkcgaWQ9InBfcHJlc2V0UG9zIiB2YWx1ZT0iWzAsIDEwNjI5XSIvPjxTRVRUSU5HIGlkPSJwX2V2b0NvbnRhaW5lclBvcyIgdmFsdWU9IltdIi8+PFNFVFRJTkcgaWQ9InBfb2N0YXZlIiB2YWx1ZT0iMCIvPjxTRVRUSU5HIGlkPSJwX29kZXN0SW5kaWNlcyIgdmFsdWU9IjAsMSwyLDMsNCw1LDYsNyw4LDksMTAsMTEsMTIsMTMsMTQsMTUsMTYsMTcsMTgsMTksMjAsMjEsMjIsMjMsMjQsMjUsMjYsMjcsMjgsMjksMzAsMzEsMzIsMzMsMzQsMzUsMzYsMzcsMzgsMzksNDAsNDEsNDIsNDMsNDQsNDUsNDYsNDcsNDgsNDksNTAsNTEsNTIsNTMsNTQsNTUsNTYsNTcsNTgsNTksNjAsNjEsNjIsNjMsNjQsNjUsNjYsNjcsNjgsNjksNzAsNzEsNzIsNzMsNzQsNzUsNzYsNzcsNzgsNzksODAsODEsODIsODMsODQsODUsODYsODcsODgsODksOTAsOTEsOTIsOTMsOTQsOTUsOTYsOTcsOTgsOTksMTAwLDEwMSwxMDIsMTAzLDEwNCwxMDUsMTA2LDEwNywxMDgsMTA5LDExMCwxMTEsMTEyLDExMywxMTQsMTE1LDExNiwxMTcsMTE4LDExOSwxMjAsMTIxLDEyMiwxMjMsMTI0LDEyNSwxMjYsMTI3LDEyOCwxMjksMTMwLDEzMSwxMzIsMTMzLDEzNCwxMzUsMTM2LDEzNywxMzgsMTM5LDE0MCwxNDEsMTQyLDE0MywxNDQsMTQ1LDE0NiwxNDcsMTQ4LDE0OSwxNTAsMTUxLDE1MiwxNTMsMTU0LDE1NSwxNTYsMTU3LDE1OCwxNTksMTYwLDE2MSwxNjIsMTYzLDE2NCwxNjUsMTY2LDE2NywxNjgsMTY5LDE3MCwxNzEsMTcyLDE3MywxNzQsMTc1LDE3NiwxNzcsMTc4LDE3OSwxODAsMTgxLDE4MiwxODMsMTg0LDE4NSwxODYsMTg3LDE4OCwxODksMTkwLDE5MSwxOTIsMTkzLDE5NCwxOTUsMTk2LDE5NywxOTgsMTk5LDIwMCwyMDEsMjAyLDIwMywyMDQsMjA1LDIwNiwyMDcsMjA4LDIwOSwyMTAsMjExLDIxMiwyMTMsMjE0LDIxNSwyMTYsMjE3LDIxOCwyMTksMjIwLDIyMSwyMjIsMjIzLDIyNCwyMjUsMjI2LDIyNywyMjgsMjI5LDIzMCwyMzEsMjMyLDIzMywyMzQsMjM1LDIzNiwyMzcsMjM4LDIzOSwyNDAsMjQxLDI0MiwyNDMsMjQ0LDI0NSwyNDYsMjQ3LDI0OCwyNDksMjUwLDI1MSwyNTIsMjUzLDI1NCwyNTUsMjU2LDI1NywyNTgsMjU5LDI2MCwyNjEsMjYyLDI2MywyNjQiLz48U0VUVElORyBpZD0icF90aW1lU3RyZXRjaCIgdmFsdWU9IkRlZmF1bHQiLz48U0VUVElORyBpZD0icF92b2ljZUNob2tlIiB2YWx1ZT0iMC4wIi8+PFNFVFRJTkcgaWQ9InBfbG9vcEVuZCIgdmFsdWU9IjAuMCIvPjxBUlRJQz48U0VUVElORyBpZD0iYV9uYW1lIiB2YWx1ZT0iTEFCU19TeW50aF9QYWRfIzAwMDEiLz48U0VUVElORyBpZD0iYV92ZXJzaW9uIiB2YWx1ZT0iMTY3Nzg3NTIiLz48U0VUVElORyBpZD0iYV90ZW1wbGF0ZUlkeCIgdmFsdWU9IjAiLz48U0VUVElORyBpZD0iYV9vZGVzdCIgdmFsdWU9IlJFVkVSQiIvPjxTRVRUSU5HIGlkPSJhX2FjdGl2ZSIgdmFsdWU9IjIiLz48U0VUVElORyBpZD0iYV9iYWNrQWN0aXZlIiB2YWx1ZT0iMCIvPjxTRVRUSU5HIGlkPSJhX3R3b0hhbmRlZCIgdmFsdWU9IjAiLz48U0VUVElORyBpZD0iYV9hdXRvTWFrZVVwIiB2YWx1ZT0iMCIvPjxTRVRUSU5HIGlkPSJ0X3R5cGUiIHZhbHVlPSIwIi8+PFNFVFRJTkcgaWQ9InRfZW5hYmxlZCIgdmFsdWU9IjEiLz48U0VUVElORyBpZD0idF9sYXRjaCIgdmFsdWU9IjAiLz48U0VUVElORyBpZD0idF9rZXlzd2l0Y2giIHZhbHVlPSIwIi8+PFNFVFRJTkcgaWQ9InRfbWlkaUNoYW5uZWwiIHZhbHVlPSIxIi8+PFNFVFRJTkcgaWQ9InRfdmVsRnJvbSIgdmFsdWU9IjEiLz48U0VUVElORyBpZD0idF92ZWxUbyIgdmFsdWU9IjEyNyIvPjxTRVRUSU5HIGlkPSJ0X2NjIiB2YWx1ZT0iMzIiLz48U0VUVElORyBpZD0idF9jY1ZhbHVlRnJvbSIgdmFsdWU9IjAiLz48U0VUVElORyBpZD0idF9jY1ZhbHVlVG8iIHZhbHVlPSIxMjciLz48U0VUVElORyBpZD0idF9zcGVlZEZyb20iIHZhbHVlPSIwLjAiLz48U0VUVElORyBpZD0idF9zcGVlZFRvIiB2YWx1ZT0iMC41Ii8+PFNFVFRJTkcgaWQ9InRfcHJvZ3JhbUNoYW5nZSIgdmFsdWU9IjAiLz48U0VUVElORyBpZD0idF90ZW1wb0Zyb20iIHZhbHVlPSIwLjAiLz48U0VUVElORyBpZD0idF90ZW1wb1RvIiB2YWx1ZT0iMC4wIi8+PFNFVFRJTkcgaWQ9InJyX3RpbWVvdXQiIHZhbHVlPSItMS4wIi8+PFNFVFRJTkcgaWQ9InJyX25laWdoYm91ck1pbiIgdmFsdWU9IjI0Ii8+PFNFVFRJTkcgaWQ9InJyX25laWdoYm91ck1heCIgdmFsdWU9Ijk2Ii8+PFNFVFRJTkcgaWQ9InJyX3VzZU5laWdoYm91ciIgdmFsdWU9IjAiLz48U0VUVElORyBpZD0icnJfY291bnQiIHZhbHVlPSItMSIvPjxTRVRUSU5HIGlkPSJycl9pbmMiIHZhbHVlPSIxIi8+PFNFVFRJTkcgaWQ9InJyX2xheWVycyIgdmFsdWU9IjEiLz48U0VUVElORyBpZD0icnJfZ2FpbiIgdmFsdWU9IjEuMCIvPjxTRVRUSU5HIGlkPSJycl9zdGFydCIgdmFsdWU9IjAiLz48U0VUVElORyBpZD0icnJfc3luYyIgdmFsdWU9IjAiLz48U0VUVElORyBpZD0icnJfcGxheSIgdmFsdWU9IjEiLz48U0VUVElORyBpZD0icnJfa2V5c3dpdGNoRnJvbSIgdmFsdWU9Ii0xIi8+PFNFVFRJTkcgaWQ9InJyX2tleXN3aXRjaFRvIiB2YWx1ZT0iLTEiLz48U0VUVElORyBpZD0icnJfa2V5c3dpdGNoVG8iIHZhbHVlPSItMSIvPjxTRVRUSU5HIGlkPSJycl9tb2RlIiB2YWx1ZT0iMCIvPjxTRVRUSU5HIGlkPSJyX21pZGlDaGFubmVsIiB2YWx1ZT0iMCIvPjxTRVRUSU5HIGlkPSJyX3RyYW5zcG9zZSIgdmFsdWU9IjAiLz48U0VUVElORyBpZD0icl9sYXllclRyYW5zcG9zZSIgdmFsdWU9IjAiLz48U0VUVElORyBpZD0iaV9leHByZXNzaW9uIiB2YWx1ZT0iMS4wIi8+PFNFVFRJTkcgaWQ9ImlfZHluYW1pY3MiIHZhbHVlPSIxLjAiLz48U0VUVElORyBpZD0iaV9yZXZlcmIiIHZhbHVlPSIwLjAiLz48U0VUVElORyBpZD0iaV9yZWxlYXNlIiB2YWx1ZT0iMC41Ii8+PFNFVFRJTkcgaWQ9ImlfdGlnaHQiIHZhbHVlPSIwLjUiLz48U0VUVElORyBpZD0iaV92aWJyYXRvIiB2YWx1ZT0iMS4wIi8+PFNFVFRJTkcgaWQ9ImlfdmFyaWF0aW9uIiB2YWx1ZT0iMC4wIi8+PFNFVFRJTkcgaWQ9InNfcGFuIiB2YWx1ZT0iMC41Ii8+PFNFVFRJTkcgaWQ9InNfd2lkdGgiIHZhbHVlPSIwLjUiLz48U0VUVElORyBpZD0ic19mbGlwIiB2YWx1ZT0iMC4wIi8+PE1JWD48U0VUVElORyBpZD0ibV9tYWluIiB2YWx1ZT0iMS4wIiBtaWNJZD0iMSIvPjxTRVRUSU5HIGlkPSJlX21haW4iIHZhbHVlPSIxIiBtaWNJZD0iMSIvPjxTRVRUSU5HIGlkPSJiX21haW4iIHZhbHVlPSIwIiBtaWNJZD0iMSIvPjxTRVRUSU5HIGlkPSJtX2FsdDEiIHZhbHVlPSIwLjAiIG1pY0lkPSIyIi8+PFNFVFRJTkcgaWQ9ImVfYWx0MSIgdmFsdWU9IjAiIG1pY0lkPSIyIi8+PFNFVFRJTkcgaWQ9ImJfYWx0MSIgdmFsdWU9IjAiIG1pY0lkPSIyIi8+PFNFVFRJTkcgaWQ9Im1fYWx0MiIgdmFsdWU9IjAuMCIgbWljSWQ9IjMiLz48U0VUVElORyBpZD0iZV9hbHQyIiB2YWx1ZT0iMCIgbWljSWQ9IjMiLz48U0VUVElORyBpZD0iYl9hbHQyIiB2YWx1ZT0iMCIgbWljSWQ9IjMiLz48U0VUVElORyBpZD0ibV9hbHQzIiB2YWx1ZT0iMC4wIiBtaWNJZD0iNCIvPjxTRVRUSU5HIGlkPSJlX2FsdDMiIHZhbHVlPSIwIiBtaWNJZD0iNCIvPjxTRVRUSU5HIGlkPSJiX2FsdDMiIHZhbHVlPSIwIiBtaWNJZD0iNCIvPjwvTUlYPjwvQVJUSUM+PC9BUlRJQ1M+PFBBUkFNRVRFUlM+PFBBUkFNIGlkPSJnX2dhaW4iIHZhbHVlPSIxLjAiIGNjPSI3Ii8+PFBBUkFNIGlkPSJnX3BhbiIgdmFsdWU9IjAuNSIgY2M9IjEwIi8+PFBBUkFNIGlkPSJnX3R1bmUiIHZhbHVlPSIwLjAiIGNjPSItMSIvPjxQQVJBTSBpZD0iaV9yZXZlcmIiIHZhbHVlPSIwLjAiIGNjPSIxOSIvPjxQQVJBTSBpZD0iaV90aWdodCIgdmFsdWU9IjAuNSIgY2M9IjE4Ii8+PFBBUkFNIGlkPSJpX3NwZWVkIiB2YWx1ZT0iMC4wIiBjYz0iLTEiLz48UEFSQU0gaWQ9ImlfcmVsZWFzZSIgdmFsdWU9IjAuNSIgY2M9IjE3Ii8+PFBBUkFNIGlkPSJpX2V4cHJlc3Npb24iIHZhbHVlPSIxLjAiIGNjPSIxMSIvPjxQQVJBTSBpZD0iaV9keW5hbWljcyIgdmFsdWU9IjEuMCIgY2M9IjEiLz48UEFSQU0gaWQ9ImlfdmFyaWF0aW9uIiB2YWx1ZT0iMC4wIiBjYz0iMjAiLz48UEFSQU0gaWQ9ImlfdmlicmF0byIgdmFsdWU9IjEuMCIgY2M9IjIxIi8+PFBBUkFNIGlkPSJpX2VudmF0dCIgdmFsdWU9IjAuNzQ5OTk5OTQwMzk1MzU1MiIgY2M9Ii0xIi8+PFBBUkFNIGlkPSJpX2VudmRlYyIgdmFsdWU9IjAuNzUiIGNjPSItMSIvPjxQQVJBTSBpZD0iaV9lbnZzdXMiIHZhbHVlPSIxLjAiIGNjPSItMSIvPjxQQVJBTSBpZD0iaV9lbnZyZWwiIHZhbHVlPSIyLjAiIGNjPSItMSIvPjxQQVJBTSBpZD0iaV9taXhzaW1wbGUiIHZhbHVlPSIwLjUiIGNjPSItMSIvPjxQQVJBTSBpZD0ic19mbGlwIiB2YWx1ZT0iMC4wIiBjYz0iLTEiLz48UEFSQU0gaWQ9InNfd2lkdGgiIHZhbHVlPSIwLjUiIGNjPSItMSIvPjxQQVJBTSBpZD0ic19wYW4iIHZhbHVlPSIwLjUiIGNjPSItMSIvPjxQQVJBTSBpZD0iaV9kZWxheSIgdmFsdWU9IjAuMCIgY2M9Ii0xIi8+PFBBUkFNIGlkPSJpX2Ftb3VudCIgdmFsdWU9IjAuMCIgY2M9Ii0xIi8+PFBBUkFNIGlkPSJpX2Rpc3RvcnQiIHZhbHVlPSIwLjAiIGNjPSItMSIvPjxQQVJBTSBpZD0iaV9sdXNoVmVyYiIgdmFsdWU9IjAuMCIgY2M9Ii0xIi8+PFBBUkFNIGlkPSJpX3BlZHZvbCIgdmFsdWU9IjAuNSIgY2M9Ii0xIi8+PFBBUkFNIGlkPSJpX3BlZER5biIgdmFsdWU9IjAuNSIgY2M9Ii0xIi8+PFBBUkFNIGlkPSJpX2xlbmd0aCIgdmFsdWU9IjAuMCIgY2M9Ii0xIi8+PFBBUkFNIGlkPSJpX3RpbWVNYWNoaW5lIiB2YWx1ZT0iMC4wIiBjYz0iLTEiLz48UEFSQU0gaWQ9Imlfc3RyZXRjaCIgdmFsdWU9IjAuMCIgY2M9Ii0xIi8+PFBBUkFNIGlkPSJpX3NvZnRQZWRhbCIgdmFsdWU9IjAuMCIgY2M9Ii0xIi8+PFBBUkFNIGlkPSJpX3Jlc3BvbnNlIiB2YWx1ZT0iMC4wIiBjYz0iLTEiLz48UEFSQU0gaWQ9ImlfbWFsbGV0IiB2YWx1ZT0iMC4wIiBjYz0iLTEiLz48UEFSQU0gaWQ9Imlfc3RvcGVNdXRlIiB2YWx1ZT0iMC4wIiBjYz0iLTEiLz48UEFSQU0gaWQ9ImlfZGlyZWN0aW9uIiB2YWx1ZT0iMC4wIiBjYz0iLTEiLz48UEFSQU0gaWQ9ImlfbHBGaWx0ZXIiIHZhbHVlPSIwLjAiIGNjPSItMSIvPjxQQVJBTSBpZD0iaV9wb3J0YW1lbnRvIiB2YWx1ZT0iMC4wIiBjYz0iLTEiLz48UEFSQU0gaWQ9ImlfbWV0YVsxOF0iIHZhbHVlPSIwLjAiIGNjPSItMSIvPjxQQVJBTSBpZD0iaV9tZXRhWzE5XSIgdmFsdWU9IjAuMCIgY2M9Ii0xIi8+PFBBUkFNIGlkPSJpX21ldGFbMjBdIiB2YWx1ZT0iMC4wIiBjYz0iLTEiLz48UEFSQU0gaWQ9ImlfbWV0YVsyMV0iIHZhbHVlPSIwLjAiIGNjPSItMSIvPjxQQVJBTSBpZD0iaV9tZXRhWzIyXSIgdmFsdWU9IjAuMCIgY2M9Ii0xIi8+PFBBUkFNIGlkPSJpX21ldGFbMjNdIiB2YWx1ZT0iMC4wIiBjYz0iLTEiLz48UEFSQU0gaWQ9ImlfbWV0YVsyNF0iIHZhbHVlPSIwLjAiIGNjPSItMSIvPjxQQVJBTSBpZD0iaV9tZXRhWzI1XSIgdmFsdWU9IjAuMCIgY2M9Ii0xIi8+PFBBUkFNIGlkPSJpX21ldGFbMjZdIiB2YWx1ZT0iMC4wIiBjYz0iLTEiLz48UEFSQU0gaWQ9Im1fbWFpbiIgdmFsdWU9IjEuMCIgY2M9IjIyIi8+PFBBUkFNIGlkPSJtX2FsdDEiIHZhbHVlPSIwLjAiIGNjPSIyMyIvPjxQQVJBTSBpZD0ibV9hbHQyIiB2YWx1ZT0iMC4wIiBjYz0iMjQiLz48UEFSQU0gaWQ9Im1fYWx0MyIgdmFsdWU9IjAuMCIgY2M9IjI1Ii8+PC9QQVJBTUVURVJTPjwvTGFicz4A" guivisible="0" plugin="uservst:LABS (64 Bit).dll" program="0">
              <key/>
            </vestige>
          </instrument>
          <eldata fcut="14000" fres="0.5" fwet="0" ftype="0">
            <elvol lspd="0.1" latt="0" lspd_numerator="4" lspd_syncmode="0" sustain="0.5" hold="0.5" lamt="0" x100="0" att="0" rel="0.1" lpdel="0" userwavefile="" lspd_denominator="4" pdel="0" ctlenvamt="0" amt="0" lshp="0" dec="0.5"/>
            <elcut lspd="0.1" latt="0" lspd_numerator="4" lspd_syncmode="0" sustain="0.5" hold="0.5" lamt="0" x100="0" att="0" rel="0.1" lpdel="0" userwavefile="" lspd_denominator="4" pdel="0" ctlenvamt="0" amt="0" lshp="0" dec="0.5"/>
            <elres lspd="0.1" latt="0" lspd_numerator="4" lspd_syncmode="0" sustain="0.5" hold="0.5" lamt="0" x100="0" att="0" rel="0.1" lpdel="0" userwavefile="" lspd_denominator="4" pdel="0" ctlenvamt="0" amt="0" lshp="0" dec="0.5"/>
          </eldata>
          <chordcreator chord="0" chord-enabled="0" chordrange="1"/>
          <arpeggiator arpcycle="0" arpdir="0" arptime="200" arptime_syncmode="0" arprange="1" arp-enabled="0" arpgate="100" arprepeats="1" arpskip="0" arpmode="0" arp="0" arptime_denominator="4" arpmiss="0" arptime_numerator="4"/>
          <midiport inputcontroller="0" outputprogram="1" outputchannel="1" fixedoutputnote="-1" inputchannel="0" writable="0" fixedoutputvelocity="-1" fixedinputvelocity="-1" basevelocity="63" readable="0" outputcontroller="0"/>
          <fxchain numofeffects="0" enabled="0"/>
        </instrumenttrack>
        <pattern pos="13824" steps="16" muted="0" type="1" name="">
          <note vol="65" pos="0" pan="0" key="85" len="1535"/>
        </pattern>
        <pattern pos="38400" steps="16" muted="0" type="1" name="">
          <note vol="65" pos="0" pan="0" key="85" len="1535"/>
        </pattern>
      </track>
      <track muted="0" type="0" mutedBeforeSolo="0" solo="0" name="Addictive Drums 2">
        <instrumenttrack vol="20" pan="0" fxch="0" lastkey="127" basenote="69" firstkey="0" enablecc="0" pitch="0" pitchrange="1" usemasterpitch="1">
          <midicontrollers cc67="0" cc0="0" cc19="0" cc66="0" cc1="0" cc31="0" cc59="0" cc40="0" cc84="0" cc56="0" cc21="0" cc121="0" cc27="0" cc12="0" cc79="0" cc83="0" cc115="0" cc124="0" cc92="0" cc23="0" cc77="0" cc86="0" cc13="0" cc127="0" cc60="0" cc96="0" cc126="0" cc103="0" cc61="0" cc93="0" cc89="0" cc10="0" cc81="0" cc54="0" cc52="0" cc45="0" cc48="0" cc85="0" cc90="0" cc8="0" cc78="0" cc43="0" cc14="0" cc80="0" cc102="0" cc69="0" cc120="0" cc33="0" cc119="0" cc5="0" cc29="0" cc20="0" cc91="0" cc99="0" cc4="0" cc15="0" cc7="0" cc87="0" cc18="0" cc9="0" cc50="0" cc58="0" cc55="0" cc36="0" cc65="0" cc109="0" cc57="0" cc30="0" cc46="0" cc25="0" cc106="0" cc38="0" cc73="0" cc114="0" cc42="0" cc3="0" cc122="0" cc28="0" cc70="0" cc6="0" cc51="0" cc72="0" cc95="0" cc104="0" cc37="0" cc123="0" cc26="0" cc94="0" cc74="0" cc17="0" cc32="0" cc16="0" cc22="0" cc107="0" cc49="0" cc47="0" cc100="0" cc34="0" cc62="0" cc53="0" cc11="0" cc35="0" cc97="0" cc98="0" cc105="0" cc2="0" cc71="0" cc117="0" cc82="0" cc108="0" cc24="0" cc88="0" cc101="0" cc44="0" cc111="0" cc112="0" cc125="0" cc68="0" cc63="0" cc76="0" cc64="0" cc41="0" cc110="0" cc113="0" cc116="0" cc75="0" cc39="0" cc118="0"/>
          <instrument name="vestige">
            <vestige chunk="Q09UVEFEMlN0YXRlVmVyc2lvbgAzAEFkdmFuY2VkR1VJRW5hYmxlADAAQmVhdHNUYWIAR2FsbGVyeQBCZWF0c19XYW50ZWRfVGltZVNpZ25HU09mZgBBbGwAQmVhdHNfV2FudGVkX1RpbWVTaWduR1NPbgA0LzQAQ2hTZWxlY3Rpb24ATWFzdGVyAERvTG9hZERlZmF1bHRQcmVzZXQAMABFeHBsb3JlRmlsZUFuZFBhcmFtcwB7IEV4cGxvcmVGaWxlID0gIlJlZWxNYWNoaW5lc19TZWxlY3Rpb25zLkV4cGxvcmUiLCBQYXJhbXMgPSB7IER5bmFtaWNyYW5nZSA9IDAuNSwgRnggPSAwLjUsIFRvbmUgPSAwLjUgfSB9AEV4cGxvcmVXYXJuaW5nVmlzaWJsZQAwAEZYX0J1cy9FUV9DdXRIaUZyZXEAMQBGWF9CdXMvRVFfQ3V0SGlRADAuNQBGWF9CdXMvRVFfQ3V0TG9GcmVxADAARlhfQnVzL0VRX0N1dExvUQAwLjUARlhfQnVzL0VRX0VuYWJsZQAwAEZYX0J1cy9FUV9IaTJGcmVxADAuODAwMDAwMDEyAEZYX0J1cy9FUV9IaTJHYWluADAuNQBGWF9CdXMvRVFfSGkyUQAwLjY5OTk5OTk4OABGWF9CdXMvRVFfSGlGcmVxADAuODk5NjU2NjUzAEZYX0J1cy9FUV9IaUdhaW4AMC41AEZYX0J1cy9FUV9IaVEAMC4zMjUyNTc1MQBGWF9CdXMvRVFfTG9GcmVxADAuMjMyOTg5OTk3AEZYX0J1cy9FUV9Mb0dhaW4AMC41AEZYX0J1cy9FUV9Mb1EAMC4zMjUyNTc1MQBGWF9CdXMvRVFfTWlkRnJlcQAwLjU2NjMyMzM0AEZYX0J1cy9FUV9NaWRHYWluADAuNQBGWF9CdXMvRVFfTWlkUQAwLjMyNTI1NzUxAEZYX0J1cy9FbmFibGUAMQBGWF9CdXMvRW5hYmxlRlgAMABGWF9CdXMvRmlsdGVyX0VuYWJsZQAwAEZYX0J1cy9GaWx0ZXJfSGkAMQBGWF9CdXMvRmlsdGVyX0xvADAARlhfQnVzL0dVSU11dGUAMABGWF9CdXMvR1VJU29sbwAwAEZYX0J1cy9JbnZlcnQAMABGWF9CdXMvTGV2ZWwAMC43NTc5ODIzMTQARlhfQnVzL011bHRpRlgxL0NvbXBfQXR0YWNrADAARlhfQnVzL011bHRpRlgxL0NvbXBfRW5hYmxlADAARlhfQnVzL011bHRpRlgxL0NvbXBfUmF0aW8AMABGWF9CdXMvTXVsdGlGWDEvQ29tcF9SZWxlYXNlADAARlhfQnVzL011bHRpRlgxL0NvbXBfVGhyZXNob2xkADEARlhfQnVzL011bHRpRlgxL0N1cnJlbnRTZWxlY3Rpb24AQ29tcABGWF9CdXMvTXVsdGlGWDEvRGlzdF9BbW91bnQAMABGWF9CdXMvTXVsdGlGWDEvRGlzdF9FbmFibGUAMABGWF9CdXMvTXVsdGlGWDEvRGlzdF9GcmVxSGkAMQBGWF9CdXMvTXVsdGlGWDEvRGlzdF9GcmVxTG8AMABGWF9CdXMvTXVsdGlGWDEvRGlzdF9NaXgAMQBGWF9CdXMvTXVsdGlGWDEvRGlzdF9UeXBlADAARlhfQnVzL011bHRpRlgxL0VuYWJsZQAwAEZYX0J1cy9NdWx0aUZYMS9MaW1pdGVyX0VuYWJsZQAwAEZYX0J1cy9NdWx0aUZYMS9MaW1pdGVyX1RocmVzaG9sZAAwLjUARlhfQnVzL011bHRpRlgxL1RhcGVfQW1vdW50ADAuNQBGWF9CdXMvTXVsdGlGWDEvVGFwZV9Db2xvcgAwAEZYX0J1cy9NdWx0aUZYMS9UYXBlX0VuYWJsZQAwAEZYX0J1cy9NdWx0aUZYMS9UcmFuc2llbnRfQXR0YWNrADAuNQBGWF9CdXMvTXVsdGlGWDEvVHJhbnNpZW50X0RlY2F5ADAuNQBGWF9CdXMvTXVsdGlGWDEvVHJhbnNpZW50X0VuYWJsZQAwAEZYX0J1cy9NdWx0aUZYMi9Db21wX0F0dGFjawAwLjIwMDAwMDAwMwBGWF9CdXMvTXVsdGlGWDIvQ29tcF9FbmFibGUAMABGWF9CdXMvTXVsdGlGWDIvQ29tcF9SYXRpbwAwLjUARlhfQnVzL011bHRpRlgyL0NvbXBfUmVsZWFzZQAwLjIwMDAwMDAwMwBGWF9CdXMvTXVsdGlGWDIvQ29tcF9UaHJlc2hvbGQAMC41AEZYX0J1cy9NdWx0aUZYMi9DdXJyZW50U2VsZWN0aW9uAE1hc3RlcgBGWF9CdXMvTXVsdGlGWDIvRGlzdF9BbW91bnQAMC41AEZYX0J1cy9NdWx0aUZYMi9EaXN0X0VuYWJsZQAwAEZYX0J1cy9NdWx0aUZYMi9EaXN0X0ZyZXFIaQAxAEZYX0J1cy9NdWx0aUZYMi9EaXN0X0ZyZXFMbwAwAEZYX0J1cy9NdWx0aUZYMi9EaXN0X01peAAwLjUARlhfQnVzL011bHRpRlgyL0Rpc3RfVHlwZQA1AEZYX0J1cy9NdWx0aUZYMi9FbmFibGUAMABGWF9CdXMvTXVsdGlGWDIvTGltaXRlcl9FbmFibGUAMABGWF9CdXMvTXVsdGlGWDIvTGltaXRlcl9UaHJlc2hvbGQAMC41AEZYX0J1cy9NdWx0aUZYMi9UYXBlX0Ftb3VudAAwAEZYX0J1cy9NdWx0aUZYMi9UYXBlX0NvbG9yADAARlhfQnVzL011bHRpRlgyL1RhcGVfRW5hYmxlADAARlhfQnVzL011bHRpRlgyL1RyYW5zaWVudF9BdHRhY2sAMC41AEZYX0J1cy9NdWx0aUZYMi9UcmFuc2llbnRfRGVjYXkAMC41AEZYX0J1cy9NdWx0aUZYMi9UcmFuc2llbnRfRW5hYmxlADAARlhfQnVzL05vaXNlX0RlY2F5VGltZQAwLjUARlhfQnVzL05vaXNlX0VuYWJsZQAwAEZYX0J1cy9Ob2lzZV9HYXRlTGV2ZWwAMC40NDk5OTk5ODgARlhfQnVzL05vaXNlX05vaXNlTGV2ZWwAMC41AEZYX0J1cy9Ob2lzZV9Ob2lzZVR5cGUAMABGWF9CdXMvT3V0TGV2ZWwAMC41AEZYX0J1cy9QYW5fUGFuADAuNQBGWF9CdXMvUGFuX1dpZHRoADEARlhfQnVzL1NlbmQxTGV2ZWwAMABGWF9CdXMvU2VuZDJMZXZlbAAwAEZYX0J1cy9TZW5kc19FbmFibGUAMABGWF9CdXMvU2VuZHNfRW5hYmxlX0ludGVybmFsADAARlhfQnVzL1NlcGFyYXRlT3V0ADAARlhfQnVzL1NlcGFyYXRlT3V0TW9kZQAxAEZYX0J1cy9TZXBhcmF0ZU91dE11dGVNYXN0ZXIAMABGWF9CdXMvU2VwYXJhdGVPdXRQb3N0RmFkZXIAMABGWF9GTFgxL0VRX0N1dEhpRnJlcQAxAEZYX0ZMWDEvRVFfQ3V0SGlRADAuNQBGWF9GTFgxL0VRX0N1dExvRnJlcQAwAEZYX0ZMWDEvRVFfQ3V0TG9RADAuNQBGWF9GTFgxL0VRX0VuYWJsZQAwAEZYX0ZMWDEvRVFfSGkyRnJlcQAwLjgwMDAwMDAxMgBGWF9GTFgxL0VRX0hpMkdhaW4AMC41AEZYX0ZMWDEvRVFfSGkyUQAwLjY5OTk5OTk4OABGWF9GTFgxL0VRX0hpRnJlcQAwLjg5OTY1NjY1MwBGWF9GTFgxL0VRX0hpR2FpbgAwLjUARlhfRkxYMS9FUV9IaVEAMC4zMjUyNTc1MQBGWF9GTFgxL0VRX0xvRnJlcQAwLjIzMjk4OTk5NwBGWF9GTFgxL0VRX0xvR2FpbgAwLjUARlhfRkxYMS9FUV9Mb1EAMC4zMjUyNTc1MQBGWF9GTFgxL0VRX01pZEZyZXEAMC41NjYzMjMzNABGWF9GTFgxL0VRX01pZEdhaW4AMC41AEZYX0ZMWDEvRVFfTWlkUQAwLjMyNTI1NzUxAEZYX0ZMWDEvRW5hYmxlADEARlhfRkxYMS9FbmFibGVGWAAxAEZYX0ZMWDEvR1VJTXV0ZQAwAEZYX0ZMWDEvR1VJU29sbwAwAEZYX0ZMWDEvSW52ZXJ0ADAARlhfRkxYMS9MZXZlbAAwLjc1Nzk4MjMxNABGWF9GTFgxL011bHRpRlgxL0NvbXBfQXR0YWNrADAARlhfRkxYMS9NdWx0aUZYMS9Db21wX0VuYWJsZQAwAEZYX0ZMWDEvTXVsdGlGWDEvQ29tcF9SYXRpbwAwAEZYX0ZMWDEvTXVsdGlGWDEvQ29tcF9SZWxlYXNlADAARlhfRkxYMS9NdWx0aUZYMS9Db21wX1RocmVzaG9sZAAxAEZYX0ZMWDEvTXVsdGlGWDEvQ3VycmVudFNlbGVjdGlvbgBDb21wAEZYX0ZMWDEvTXVsdGlGWDEvRGlzdF9BbW91bnQAMABGWF9GTFgxL011bHRpRlgxL0Rpc3RfRW5hYmxlADAARlhfRkxYMS9NdWx0aUZYMS9EaXN0X0ZyZXFIaQAxAEZYX0ZMWDEvTXVsdGlGWDEvRGlzdF9GcmVxTG8AMABGWF9GTFgxL011bHRpRlgxL0Rpc3RfTWl4ADEARlhfRkxYMS9NdWx0aUZYMS9EaXN0X1R5cGUAMABGWF9GTFgxL011bHRpRlgxL0VuYWJsZQAwAEZYX0ZMWDEvTXVsdGlGWDEvTGltaXRlcl9FbmFibGUAMABGWF9GTFgxL011bHRpRlgxL0xpbWl0ZXJfVGhyZXNob2xkADAuNQBGWF9GTFgxL011bHRpRlgxL1RhcGVfQW1vdW50ADAuNQBGWF9GTFgxL011bHRpRlgxL1RhcGVfQ29sb3IAMABGWF9GTFgxL011bHRpRlgxL1RhcGVfRW5hYmxlADAARlhfRkxYMS9NdWx0aUZYMS9UcmFuc2llbnRfQXR0YWNrADAuNQBGWF9GTFgxL011bHRpRlgxL1RyYW5zaWVudF9EZWNheQAwLjUARlhfRkxYMS9NdWx0aUZYMS9UcmFuc2llbnRfRW5hYmxlADAARlhfRkxYMS9NdWx0aUZYMi9Db21wX0F0dGFjawAwLjIwMDAwMDAwMwBGWF9GTFgxL011bHRpRlgyL0NvbXBfRW5hYmxlADAARlhfRkxYMS9NdWx0aUZYMi9Db21wX1JhdGlvADAuNQBGWF9GTFgxL011bHRpRlgyL0NvbXBfUmVsZWFzZQAwLjIwMDAwMDAwMwBGWF9GTFgxL011bHRpRlgyL0NvbXBfVGhyZXNob2xkADAuNQBGWF9GTFgxL011bHRpRlgyL0N1cnJlbnRTZWxlY3Rpb24ATWFzdGVyAEZYX0ZMWDEvTXVsdGlGWDIvRGlzdF9BbW91bnQAMC41AEZYX0ZMWDEvTXVsdGlGWDIvRGlzdF9FbmFibGUAMABGWF9GTFgxL011bHRpRlgyL0Rpc3RfRnJlcUhpADEARlhfRkxYMS9NdWx0aUZYMi9EaXN0X0ZyZXFMbwAwAEZYX0ZMWDEvTXVsdGlGWDIvRGlzdF9NaXgAMC41AEZYX0ZMWDEvTXVsdGlGWDIvRGlzdF9UeXBlADUARlhfRkxYMS9NdWx0aUZYMi9FbmFibGUAMABGWF9GTFgxL011bHRpRlgyL0xpbWl0ZXJfRW5hYmxlADAARlhfRkxYMS9NdWx0aUZYMi9MaW1pdGVyX1RocmVzaG9sZAAwLjUARlhfRkxYMS9NdWx0aUZYMi9UYXBlX0Ftb3VudAAwLjUARlhfRkxYMS9NdWx0aUZYMi9UYXBlX0NvbG9yADAARlhfRkxYMS9NdWx0aUZYMi9UYXBlX0VuYWJsZQAwAEZYX0ZMWDEvTXVsdGlGWDIvVHJhbnNpZW50X0F0dGFjawAwLjUARlhfRkxYMS9NdWx0aUZYMi9UcmFuc2llbnRfRGVjYXkAMC41AEZYX0ZMWDEvTXVsdGlGWDIvVHJhbnNpZW50X0VuYWJsZQAwAEZYX0ZMWDEvTm9pc2VfRGVjYXlUaW1lADAuNQBGWF9GTFgxL05vaXNlX0VuYWJsZQAwAEZYX0ZMWDEvTm9pc2VfR2F0ZUxldmVsADAuNDQ5OTk5OTg4AEZYX0ZMWDEvTm9pc2VfTm9pc2VMZXZlbAAwLjUARlhfRkxYMS9Ob2lzZV9Ob2lzZVR5cGUAMABGWF9GTFgxL091dExldmVsADAuNjQ2NzQyNzAyAEZYX0ZMWDEvUGFuX1BhbgAwLjUARlhfRkxYMS9TZW5kMUxldmVsADAARlhfRkxYMS9TZW5kMkxldmVsADAARlhfRkxYMS9TZW5kQnVzTGV2ZWwAMABGWF9GTFgxL1NlbmRzX0VuYWJsZQAwAEZYX0ZMWDEvU2VuZHNfRW5hYmxlX0ludGVybmFsADAARlhfRkxYMS9TZXBhcmF0ZU91dAAwAEZYX0ZMWDEvU2VwYXJhdGVPdXRNb2RlADEARlhfRkxYMS9TZXBhcmF0ZU91dE11dGVNYXN0ZXIAMABGWF9GTFgxL1NlcGFyYXRlT3V0UG9zdEZhZGVyADAARlhfRkxYMi9FUV9DdXRIaUZyZXEAMQBGWF9GTFgyL0VRX0N1dEhpUQAwLjUARlhfRkxYMi9FUV9DdXRMb0ZyZXEAMABGWF9GTFgyL0VRX0N1dExvUQAwLjUARlhfRkxYMi9FUV9FbmFibGUAMABGWF9GTFgyL0VRX0hpMkZyZXEAMC44MDAwMDAwMTIARlhfRkxYMi9FUV9IaTJHYWluADAuNQBGWF9GTFgyL0VRX0hpMlEAMC42OTk5OTk5ODgARlhfRkxYMi9FUV9IaUZyZXEAMC42MDAwMDAwMjQARlhfRkxYMi9FUV9IaUdhaW4AMC41AEZYX0ZMWDIvRVFfSGlRADAuMzI1MjU3NTEARlhfRkxYMi9FUV9Mb0ZyZXEAMC4yMDAwMDAwMDMARlhfRkxYMi9FUV9Mb0dhaW4AMC41AEZYX0ZMWDIvRVFfTG9RADAuMzI1MjU3NTEARlhfRkxYMi9FUV9NaWRGcmVxADAuNDAwMDAwMDA2AEZYX0ZMWDIvRVFfTWlkR2FpbgAwLjUARlhfRkxYMi9FUV9NaWRRADAuMzI1MjU3NTEARlhfRkxYMi9FbmFibGUAMQBGWF9GTFgyL0VuYWJsZUZYADAARlhfRkxYMi9HVUlNdXRlADAARlhfRkxYMi9HVUlTb2xvADAARlhfRkxYMi9JbnZlcnQAMABGWF9GTFgyL0xldmVsADAuNzU3OTgyMzE0AEZYX0ZMWDIvTXVsdGlGWDEvQ29tcF9BdHRhY2sAMC4yMDAwMDAwMDMARlhfRkxYMi9NdWx0aUZYMS9Db21wX0VuYWJsZQAwAEZYX0ZMWDIvTXVsdGlGWDEvQ29tcF9SYXRpbwAwLjUARlhfRkxYMi9NdWx0aUZYMS9Db21wX1JlbGVhc2UAMC4yMDAwMDAwMDMARlhfRkxYMi9NdWx0aUZYMS9Db21wX1RocmVzaG9sZAAwLjM1NTc2OTIxNwBGWF9GTFgyL011bHRpRlgxL0N1cnJlbnRTZWxlY3Rpb24AQ29tcABGWF9GTFgyL011bHRpRlgxL0Rpc3RfQW1vdW50ADAuNQBGWF9GTFgyL011bHRpRlgxL0Rpc3RfRW5hYmxlADAARlhfRkxYMi9NdWx0aUZYMS9EaXN0X0ZyZXFIaQAxAEZYX0ZMWDIvTXVsdGlGWDEvRGlzdF9GcmVxTG8AMABGWF9GTFgyL011bHRpRlgxL0Rpc3RfTWl4ADAuNQBGWF9GTFgyL011bHRpRlgxL0Rpc3RfVHlwZQAwAEZYX0ZMWDIvTXVsdGlGWDEvRW5hYmxlADAARlhfRkxYMi9NdWx0aUZYMS9MaW1pdGVyX0VuYWJsZQAwAEZYX0ZMWDIvTXVsdGlGWDEvTGltaXRlcl9UaHJlc2hvbGQAMC41AEZYX0ZMWDIvTXVsdGlGWDEvVGFwZV9BbW91bnQAMC41AEZYX0ZMWDIvTXVsdGlGWDEvVGFwZV9Db2xvcgAwAEZYX0ZMWDIvTXVsdGlGWDEvVGFwZV9FbmFibGUAMABGWF9GTFgyL011bHRpRlgxL1RyYW5zaWVudF9BdHRhY2sAMC41AEZYX0ZMWDIvTXVsdGlGWDEvVHJhbnNpZW50X0RlY2F5ADAuNQBGWF9GTFgyL011bHRpRlgxL1RyYW5zaWVudF9FbmFibGUAMABGWF9GTFgyL011bHRpRlgyL0NvbXBfQXR0YWNrADAuMjAwMDAwMDAzAEZYX0ZMWDIvTXVsdGlGWDIvQ29tcF9FbmFibGUAMABGWF9GTFgyL011bHRpRlgyL0NvbXBfUmF0aW8AMC41AEZYX0ZMWDIvTXVsdGlGWDIvQ29tcF9SZWxlYXNlADAuMjAwMDAwMDAzAEZYX0ZMWDIvTXVsdGlGWDIvQ29tcF9UaHJlc2hvbGQAMC41AEZYX0ZMWDIvTXVsdGlGWDIvQ3VycmVudFNlbGVjdGlvbgBNYXN0ZXIARlhfRkxYMi9NdWx0aUZYMi9EaXN0X0Ftb3VudAAwLjUARlhfRkxYMi9NdWx0aUZYMi9EaXN0X0VuYWJsZQAwAEZYX0ZMWDIvTXVsdGlGWDIvRGlzdF9GcmVxSGkAMQBGWF9GTFgyL011bHRpRlgyL0Rpc3RfRnJlcUxvADAARlhfRkxYMi9NdWx0aUZYMi9EaXN0X01peAAwLjUARlhfRkxYMi9NdWx0aUZYMi9EaXN0X1R5cGUANQBGWF9GTFgyL011bHRpRlgyL0VuYWJsZQAwAEZYX0ZMWDIvTXVsdGlGWDIvTGltaXRlcl9FbmFibGUAMABGWF9GTFgyL011bHRpRlgyL0xpbWl0ZXJfVGhyZXNob2xkADAuNQBGWF9GTFgyL011bHRpRlgyL1RhcGVfQW1vdW50ADAuNQBGWF9GTFgyL011bHRpRlgyL1RhcGVfQ29sb3IAMABGWF9GTFgyL011bHRpRlgyL1RhcGVfRW5hYmxlADAARlhfRkxYMi9NdWx0aUZYMi9UcmFuc2llbnRfQXR0YWNrADAuNQBGWF9GTFgyL011bHRpRlgyL1RyYW5zaWVudF9EZWNheQAwLjUARlhfRkxYMi9NdWx0aUZYMi9UcmFuc2llbnRfRW5hYmxlADAARlhfRkxYMi9Ob2lzZV9EZWNheVRpbWUAMC41AEZYX0ZMWDIvTm9pc2VfRW5hYmxlADAARlhfRkxYMi9Ob2lzZV9HYXRlTGV2ZWwAMC40NDk5OTk5ODgARlhfRkxYMi9Ob2lzZV9Ob2lzZUxldmVsADAuNQBGWF9GTFgyL05vaXNlX05vaXNlVHlwZQAwAEZYX0ZMWDIvT3V0TGV2ZWwAMC41AEZYX0ZMWDIvUGFuX1BhbgAwLjUARlhfRkxYMi9TZW5kMUxldmVsADAARlhfRkxYMi9TZW5kMkxldmVsADAARlhfRkxYMi9TZW5kQnVzTGV2ZWwAMABGWF9GTFgyL1NlbmRzX0VuYWJsZQAwAEZYX0ZMWDIvU2VuZHNfRW5hYmxlX0ludGVybmFsADAARlhfRkxYMi9TZXBhcmF0ZU91dAAwAEZYX0ZMWDIvU2VwYXJhdGVPdXRNb2RlADEARlhfRkxYMi9TZXBhcmF0ZU91dE11dGVNYXN0ZXIAMABGWF9GTFgyL1NlcGFyYXRlT3V0UG9zdEZhZGVyADAARlhfRkxYMy9FUV9DdXRIaUZyZXEAMQBGWF9GTFgzL0VRX0N1dEhpUQAwLjUARlhfRkxYMy9FUV9DdXRMb0ZyZXEAMABGWF9GTFgzL0VRX0N1dExvUQAwLjUARlhfRkxYMy9FUV9FbmFibGUAMABGWF9GTFgzL0VRX0hpMkZyZXEAMC44MDAwMDAwMTIARlhfRkxYMy9FUV9IaTJHYWluADAuNQBGWF9GTFgzL0VRX0hpMlEAMC42OTk5OTk5ODgARlhfRkxYMy9FUV9IaUZyZXEAMC42MDAwMDAwMjQARlhfRkxYMy9FUV9IaUdhaW4AMC41AEZYX0ZMWDMvRVFfSGlRADAuMzI1MjU3NTEARlhfRkxYMy9FUV9Mb0ZyZXEAMC4yMDAwMDAwMDMARlhfRkxYMy9FUV9Mb0dhaW4AMC41AEZYX0ZMWDMvRVFfTG9RADAuMzI1MjU3NTEARlhfRkxYMy9FUV9NaWRGcmVxADAuNDAwMDAwMDA2AEZYX0ZMWDMvRVFfTWlkR2FpbgAwLjUARlhfRkxYMy9FUV9NaWRRADAuMzI1MjU3NTEARlhfRkxYMy9FbmFibGUAMQBGWF9GTFgzL0VuYWJsZUZYADAARlhfRkxYMy9HVUlNdXRlADAARlhfRkxYMy9HVUlTb2xvADAARlhfRkxYMy9JbnZlcnQAMABGWF9GTFgzL0xldmVsADAuNzU3OTgyMzE0AEZYX0ZMWDMvTXVsdGlGWDEvQ29tcF9BdHRhY2sAMC4yMDAwMDAwMDMARlhfRkxYMy9NdWx0aUZYMS9Db21wX0VuYWJsZQAwAEZYX0ZMWDMvTXVsdGlGWDEvQ29tcF9SYXRpbwAwLjUARlhfRkxYMy9NdWx0aUZYMS9Db21wX1JlbGVhc2UAMC4yMDAwMDAwMDMARlhfRkxYMy9NdWx0aUZYMS9Db21wX1RocmVzaG9sZAAwLjM1NTc2OTIxNwBGWF9GTFgzL011bHRpRlgxL0N1cnJlbnRTZWxlY3Rpb24AQ29tcABGWF9GTFgzL011bHRpRlgxL0Rpc3RfQW1vdW50ADAuNQBGWF9GTFgzL011bHRpRlgxL0Rpc3RfRW5hYmxlADAARlhfRkxYMy9NdWx0aUZYMS9EaXN0X0ZyZXFIaQAxAEZYX0ZMWDMvTXVsdGlGWDEvRGlzdF9GcmVxTG8AMABGWF9GTFgzL011bHRpRlgxL0Rpc3RfTWl4ADAuNQBGWF9GTFgzL011bHRpRlgxL0Rpc3RfVHlwZQAwAEZYX0ZMWDMvTXVsdGlGWDEvRW5hYmxlADAARlhfRkxYMy9NdWx0aUZYMS9MaW1pdGVyX0VuYWJsZQAwAEZYX0ZMWDMvTXVsdGlGWDEvTGltaXRlcl9UaHJlc2hvbGQAMC41AEZYX0ZMWDMvTXVsdGlGWDEvVGFwZV9BbW91bnQAMC41AEZYX0ZMWDMvTXVsdGlGWDEvVGFwZV9Db2xvcgAwAEZYX0ZMWDMvTXVsdGlGWDEvVGFwZV9FbmFibGUAMABGWF9GTFgzL011bHRpRlgxL1RyYW5zaWVudF9BdHRhY2sAMC41AEZYX0ZMWDMvTXVsdGlGWDEvVHJhbnNpZW50X0RlY2F5ADAuNQBGWF9GTFgzL011bHRpRlgxL1RyYW5zaWVudF9FbmFibGUAMABGWF9GTFgzL011bHRpRlgyL0NvbXBfQXR0YWNrADAuMjAwMDAwMDAzAEZYX0ZMWDMvTXVsdGlGWDIvQ29tcF9FbmFibGUAMABGWF9GTFgzL011bHRpRlgyL0NvbXBfUmF0aW8AMC41AEZYX0ZMWDMvTXVsdGlGWDIvQ29tcF9SZWxlYXNlADAuMjAwMDAwMDAzAEZYX0ZMWDMvTXVsdGlGWDIvQ29tcF9UaHJlc2hvbGQAMC41AEZYX0ZMWDMvTXVsdGlGWDIvQ3VycmVudFNlbGVjdGlvbgBNYXN0ZXIARlhfRkxYMy9NdWx0aUZYMi9EaXN0X0Ftb3VudAAwLjUARlhfRkxYMy9NdWx0aUZYMi9EaXN0X0VuYWJsZQAwAEZYX0ZMWDMvTXVsdGlGWDIvRGlzdF9GcmVxSGkAMQBGWF9GTFgzL011bHRpRlgyL0Rpc3RfRnJlcUxvADAARlhfRkxYMy9NdWx0aUZYMi9EaXN0X01peAAwLjUARlhfRkxYMy9NdWx0aUZYMi9EaXN0X1R5cGUANQBGWF9GTFgzL011bHRpRlgyL0VuYWJsZQAwAEZYX0ZMWDMvTXVsdGlGWDIvTGltaXRlcl9FbmFibGUAMABGWF9GTFgzL011bHRpRlgyL0xpbWl0ZXJfVGhyZXNob2xkADAuNQBGWF9GTFgzL011bHRpRlgyL1RhcGVfQW1vdW50ADAuNQBGWF9GTFgzL011bHRpRlgyL1RhcGVfQ29sb3IAMABGWF9GTFgzL011bHRpRlgyL1RhcGVfRW5hYmxlADAARlhfRkxYMy9NdWx0aUZYMi9UcmFuc2llbnRfQXR0YWNrADAuNQBGWF9GTFgzL011bHRpRlgyL1RyYW5zaWVudF9EZWNheQAwLjUARlhfRkxYMy9NdWx0aUZYMi9UcmFuc2llbnRfRW5hYmxlADAARlhfRkxYMy9Ob2lzZV9EZWNheVRpbWUAMC41AEZYX0ZMWDMvTm9pc2VfRW5hYmxlADAARlhfRkxYMy9Ob2lzZV9HYXRlTGV2ZWwAMC40NDk5OTk5ODgARlhfRkxYMy9Ob2lzZV9Ob2lzZUxldmVsADAuNQBGWF9GTFgzL05vaXNlX05vaXNlVHlwZQAwAEZYX0ZMWDMvT3V0TGV2ZWwAMC41AEZYX0ZMWDMvUGFuX1BhbgAwLjUARlhfRkxYMy9TZW5kMUxldmVsADAARlhfRkxYMy9TZW5kMkxldmVsADAARlhfRkxYMy9TZW5kQnVzTGV2ZWwAMABGWF9GTFgzL1NlbmRzX0VuYWJsZQAwAEZYX0ZMWDMvU2VuZHNfRW5hYmxlX0ludGVybmFsADAARlhfRkxYMy9TZXBhcmF0ZU91dAAwAEZYX0ZMWDMvU2VwYXJhdGVPdXRNb2RlADEARlhfRkxYMy9TZXBhcmF0ZU91dE11dGVNYXN0ZXIAMABGWF9GTFgzL1NlcGFyYXRlT3V0UG9zdEZhZGVyADAARlhfSEhBVC9FUV9DdXRIaUZyZXEAMQBGWF9ISEFUL0VRX0N1dEhpUQAwLjUARlhfSEhBVC9FUV9DdXRMb0ZyZXEAMABGWF9ISEFUL0VRX0N1dExvUQAwLjUARlhfSEhBVC9FUV9FbmFibGUAMABGWF9ISEFUL0VRX0hpMkZyZXEAMC44MDAwMDAwMTIARlhfSEhBVC9FUV9IaTJHYWluADAuNQBGWF9ISEFUL0VRX0hpMlEAMC42OTk5OTk5ODgARlhfSEhBVC9FUV9IaUZyZXEAMC44OTk2NTY2NTMARlhfSEhBVC9FUV9IaUdhaW4AMC41AEZYX0hIQVQvRVFfSGlRADAuMzI1MjU3NTEARlhfSEhBVC9FUV9Mb0ZyZXEAMC4yMzI5ODk5OTcARlhfSEhBVC9FUV9Mb0dhaW4AMC41AEZYX0hIQVQvRVFfTG9RADAuMzI1MjU3NTEARlhfSEhBVC9FUV9NaWRGcmVxADAuNTY2MzIzMzQARlhfSEhBVC9FUV9NaWRHYWluADAuNQBGWF9ISEFUL0VRX01pZFEAMC4zMjUyNTc1MQBGWF9ISEFUL0VuYWJsZQAxAEZYX0hIQVQvRW5hYmxlRlgAMQBGWF9ISEFUL0dVSU11dGUAMABGWF9ISEFUL0dVSVNvbG8AMABGWF9ISEFUL0ludmVydAAwAEZYX0hIQVQvTGV2ZWwAMC43NTc5ODIzMTQARlhfSEhBVC9NdWx0aUZYMS9Db21wX0F0dGFjawAwAEZYX0hIQVQvTXVsdGlGWDEvQ29tcF9FbmFibGUAMABGWF9ISEFUL011bHRpRlgxL0NvbXBfUmF0aW8AMABGWF9ISEFUL011bHRpRlgxL0NvbXBfUmVsZWFzZQAwAEZYX0hIQVQvTXVsdGlGWDEvQ29tcF9UaHJlc2hvbGQAMQBGWF9ISEFUL011bHRpRlgxL0N1cnJlbnRTZWxlY3Rpb24AQ29tcABGWF9ISEFUL011bHRpRlgxL0Rpc3RfQW1vdW50ADAARlhfSEhBVC9NdWx0aUZYMS9EaXN0X0VuYWJsZQAwAEZYX0hIQVQvTXVsdGlGWDEvRGlzdF9GcmVxSGkAMQBGWF9ISEFUL011bHRpRlgxL0Rpc3RfRnJlcUxvADAARlhfSEhBVC9NdWx0aUZYMS9EaXN0X01peAAxAEZYX0hIQVQvTXVsdGlGWDEvRGlzdF9UeXBlADAARlhfSEhBVC9NdWx0aUZYMS9FbmFibGUAMABGWF9ISEFUL011bHRpRlgxL0xpbWl0ZXJfRW5hYmxlADAARlhfSEhBVC9NdWx0aUZYMS9MaW1pdGVyX1RocmVzaG9sZAAwLjUARlhfSEhBVC9NdWx0aUZYMS9UYXBlX0Ftb3VudAAwLjUARlhfSEhBVC9NdWx0aUZYMS9UYXBlX0NvbG9yADAARlhfSEhBVC9NdWx0aUZYMS9UYXBlX0VuYWJsZQAwAEZYX0hIQVQvTXVsdGlGWDEvVHJhbnNpZW50X0F0dGFjawAwLjUARlhfSEhBVC9NdWx0aUZYMS9UcmFuc2llbnRfRGVjYXkAMC41AEZYX0hIQVQvTXVsdGlGWDEvVHJhbnNpZW50X0VuYWJsZQAwAEZYX0hIQVQvTXVsdGlGWDIvQ29tcF9BdHRhY2sAMC4yMDAwMDAwMDMARlhfSEhBVC9NdWx0aUZYMi9Db21wX0VuYWJsZQAwAEZYX0hIQVQvTXVsdGlGWDIvQ29tcF9SYXRpbwAwLjUARlhfSEhBVC9NdWx0aUZYMi9Db21wX1JlbGVhc2UAMC4yMDAwMDAwMDMARlhfSEhBVC9NdWx0aUZYMi9Db21wX1RocmVzaG9sZAAwLjUARlhfSEhBVC9NdWx0aUZYMi9DdXJyZW50U2VsZWN0aW9uAE1hc3RlcgBGWF9ISEFUL011bHRpRlgyL0Rpc3RfQW1vdW50ADAuNQBGWF9ISEFUL011bHRpRlgyL0Rpc3RfRW5hYmxlADAARlhfSEhBVC9NdWx0aUZYMi9EaXN0X0ZyZXFIaQAxAEZYX0hIQVQvTXVsdGlGWDIvRGlzdF9GcmVxTG8AMABGWF9ISEFUL011bHRpRlgyL0Rpc3RfTWl4ADAuNQBGWF9ISEFUL011bHRpRlgyL0Rpc3RfVHlwZQA1AEZYX0hIQVQvTXVsdGlGWDIvRW5hYmxlADAARlhfSEhBVC9NdWx0aUZYMi9MaW1pdGVyX0VuYWJsZQAwAEZYX0hIQVQvTXVsdGlGWDIvTGltaXRlcl9UaHJlc2hvbGQAMC41AEZYX0hIQVQvTXVsdGlGWDIvVGFwZV9BbW91bnQAMC41AEZYX0hIQVQvTXVsdGlGWDIvVGFwZV9Db2xvcgAwAEZYX0hIQVQvTXVsdGlGWDIvVGFwZV9FbmFibGUAMABGWF9ISEFUL011bHRpRlgyL1RyYW5zaWVudF9BdHRhY2sAMC41AEZYX0hIQVQvTXVsdGlGWDIvVHJhbnNpZW50X0RlY2F5ADAuNQBGWF9ISEFUL011bHRpRlgyL1RyYW5zaWVudF9FbmFibGUAMABGWF9ISEFUL05vaXNlX0RlY2F5VGltZQAwLjUARlhfSEhBVC9Ob2lzZV9FbmFibGUAMABGWF9ISEFUL05vaXNlX0dhdGVMZXZlbAAwLjQ0OTk5OTk4OABGWF9ISEFUL05vaXNlX05vaXNlTGV2ZWwAMC41AEZYX0hIQVQvTm9pc2VfTm9pc2VUeXBlADAARlhfSEhBVC9PdXRMZXZlbAAwLjY0Njc0MjcwMgBGWF9ISEFUL1Bhbl9QYW4AMC41AEZYX0hIQVQvU2VuZDFMZXZlbAAwAEZYX0hIQVQvU2VuZDJMZXZlbAAwAEZYX0hIQVQvU2VuZEJ1c0xldmVsADAARlhfSEhBVC9TZW5kc19FbmFibGUAMABGWF9ISEFUL1NlbmRzX0VuYWJsZV9JbnRlcm5hbAAwAEZYX0hIQVQvU2VwYXJhdGVPdXQAMABGWF9ISEFUL1NlcGFyYXRlT3V0TW9kZQAxAEZYX0hIQVQvU2VwYXJhdGVPdXRNdXRlTWFzdGVyADAARlhfSEhBVC9TZXBhcmF0ZU91dFBvc3RGYWRlcgAwAEZYX0tJQ0svRVFfQ3V0SGlGcmVxADEARlhfS0lDSy9FUV9DdXRIaVEAMC41AEZYX0tJQ0svRVFfQ3V0TG9GcmVxADAARlhfS0lDSy9FUV9DdXRMb1EAMC41AEZYX0tJQ0svRVFfRW5hYmxlADAARlhfS0lDSy9FUV9IaTJGcmVxADAuODAwMDAwMDEyAEZYX0tJQ0svRVFfSGkyR2FpbgAwLjUARlhfS0lDSy9FUV9IaTJRADAuNjk5OTk5OTg4AEZYX0tJQ0svRVFfSGlGcmVxADAuODk5NjU2NjUzAEZYX0tJQ0svRVFfSGlHYWluADAuNQBGWF9LSUNLL0VRX0hpUQAwLjMyNTI1NzUxAEZYX0tJQ0svRVFfTG9GcmVxADAuMjMyOTg5OTk3AEZYX0tJQ0svRVFfTG9HYWluADAuNQBGWF9LSUNLL0VRX0xvUQAwLjMyNTI1NzUxAEZYX0tJQ0svRVFfTWlkRnJlcQAwLjU2NjMyMzM0AEZYX0tJQ0svRVFfTWlkR2FpbgAwLjUARlhfS0lDSy9FUV9NaWRRADAuMzI1MjU3NTEARlhfS0lDSy9FbmFibGUAMQBGWF9LSUNLL0VuYWJsZUZYADEARlhfS0lDSy9HVUlNdXRlADAARlhfS0lDSy9HVUlTb2xvADAARlhfS0lDSy9JbnZlcnQAMABGWF9LSUNLL0xldmVsADAuNzU3OTgyMzE0AEZYX0tJQ0svTXVsdGlGWDEvQ29tcF9BdHRhY2sAMABGWF9LSUNLL011bHRpRlgxL0NvbXBfRW5hYmxlADAARlhfS0lDSy9NdWx0aUZYMS9Db21wX1JhdGlvADAARlhfS0lDSy9NdWx0aUZYMS9Db21wX1JlbGVhc2UAMABGWF9LSUNLL011bHRpRlgxL0NvbXBfVGhyZXNob2xkADEARlhfS0lDSy9NdWx0aUZYMS9DdXJyZW50U2VsZWN0aW9uAENvbXAARlhfS0lDSy9NdWx0aUZYMS9EaXN0X0Ftb3VudAAwAEZYX0tJQ0svTXVsdGlGWDEvRGlzdF9FbmFibGUAMABGWF9LSUNLL011bHRpRlgxL0Rpc3RfRnJlcUhpADEARlhfS0lDSy9NdWx0aUZYMS9EaXN0X0ZyZXFMbwAwAEZYX0tJQ0svTXVsdGlGWDEvRGlzdF9NaXgAMQBGWF9LSUNLL011bHRpRlgxL0Rpc3RfVHlwZQAwAEZYX0tJQ0svTXVsdGlGWDEvRW5hYmxlADAARlhfS0lDSy9NdWx0aUZYMS9MaW1pdGVyX0VuYWJsZQAwAEZYX0tJQ0svTXVsdGlGWDEvTGltaXRlcl9UaHJlc2hvbGQAMC41AEZYX0tJQ0svTXVsdGlGWDEvVGFwZV9BbW91bnQAMC41AEZYX0tJQ0svTXVsdGlGWDEvVGFwZV9Db2xvcgAwAEZYX0tJQ0svTXVsdGlGWDEvVGFwZV9FbmFibGUAMABGWF9LSUNLL011bHRpRlgxL1RyYW5zaWVudF9BdHRhY2sAMC41AEZYX0tJQ0svTXVsdGlGWDEvVHJhbnNpZW50X0RlY2F5ADAuNQBGWF9LSUNLL011bHRpRlgxL1RyYW5zaWVudF9FbmFibGUAMABGWF9LSUNLL011bHRpRlgyL0NvbXBfQXR0YWNrADAuMjAwMDAwMDAzAEZYX0tJQ0svTXVsdGlGWDIvQ29tcF9FbmFibGUAMABGWF9LSUNLL011bHRpRlgyL0NvbXBfUmF0aW8AMC41AEZYX0tJQ0svTXVsdGlGWDIvQ29tcF9SZWxlYXNlADAuMjAwMDAwMDAzAEZYX0tJQ0svTXVsdGlGWDIvQ29tcF9UaHJlc2hvbGQAMC41AEZYX0tJQ0svTXVsdGlGWDIvQ3VycmVudFNlbGVjdGlvbgBNYXN0ZXIARlhfS0lDSy9NdWx0aUZYMi9EaXN0X0Ftb3VudAAwLjUARlhfS0lDSy9NdWx0aUZYMi9EaXN0X0VuYWJsZQAwAEZYX0tJQ0svTXVsdGlGWDIvRGlzdF9GcmVxSGkAMQBGWF9LSUNLL011bHRpRlgyL0Rpc3RfRnJlcUxvADAARlhfS0lDSy9NdWx0aUZYMi9EaXN0X01peAAwLjUARlhfS0lDSy9NdWx0aUZYMi9EaXN0X1R5cGUANQBGWF9LSUNLL011bHRpRlgyL0VuYWJsZQAwAEZYX0tJQ0svTXVsdGlGWDIvTGltaXRlcl9FbmFibGUAMABGWF9LSUNLL011bHRpRlgyL0xpbWl0ZXJfVGhyZXNob2xkADAuNQBGWF9LSUNLL011bHRpRlgyL1RhcGVfQW1vdW50ADAuNQBGWF9LSUNLL011bHRpRlgyL1RhcGVfQ29sb3IAMABGWF9LSUNLL011bHRpRlgyL1RhcGVfRW5hYmxlADAARlhfS0lDSy9NdWx0aUZYMi9UcmFuc2llbnRfQXR0YWNrADAuNQBGWF9LSUNLL011bHRpRlgyL1RyYW5zaWVudF9EZWNheQAwLjUARlhfS0lDSy9NdWx0aUZYMi9UcmFuc2llbnRfRW5hYmxlADAARlhfS0lDSy9Ob2lzZV9EZWNheVRpbWUAMC41AEZYX0tJQ0svTm9pc2VfRW5hYmxlADAARlhfS0lDSy9Ob2lzZV9HYXRlTGV2ZWwAMC40NDk5OTk5ODgARlhfS0lDSy9Ob2lzZV9Ob2lzZUxldmVsADAuNQBGWF9LSUNLL05vaXNlX05vaXNlVHlwZQAwAEZYX0tJQ0svT3V0TGV2ZWwAMC42NDY3NDI3MDIARlhfS0lDSy9QYW5fUGFuADAuNQBGWF9LSUNLL1NlbmQxTGV2ZWwAMABGWF9LSUNLL1NlbmQyTGV2ZWwAMABGWF9LSUNLL1NlbmRCdXNMZXZlbAAwAEZYX0tJQ0svU2VuZHNfRW5hYmxlADAARlhfS0lDSy9TZW5kc19FbmFibGVfSW50ZXJuYWwAMABGWF9LSUNLL1NlcGFyYXRlT3V0ADAARlhfS0lDSy9TZXBhcmF0ZU91dE1vZGUAMQBGWF9LSUNLL1NlcGFyYXRlT3V0TXV0ZU1hc3RlcgAwAEZYX0tJQ0svU2VwYXJhdGVPdXRQb3N0RmFkZXIAMABGWF9NYXN0ZXIvRVFfQ3V0SGlGcmVxADEARlhfTWFzdGVyL0VRX0N1dEhpUQAwLjUARlhfTWFzdGVyL0VRX0N1dExvRnJlcQAwAEZYX01hc3Rlci9FUV9DdXRMb1EAMC41AEZYX01hc3Rlci9FUV9FbmFibGUAMABGWF9NYXN0ZXIvRVFfSGkyRnJlcQAwLjgwMDAwMDAxMgBGWF9NYXN0ZXIvRVFfSGkyR2FpbgAwLjUARlhfTWFzdGVyL0VRX0hpMlEAMC42OTk5OTk5ODgARlhfTWFzdGVyL0VRX0hpRnJlcQAwLjg5OTY1NjY1MwBGWF9NYXN0ZXIvRVFfSGlHYWluADAuNQBGWF9NYXN0ZXIvRVFfSGlRADAuMzI1MjU3NTEARlhfTWFzdGVyL0VRX0xvRnJlcQAwLjIzMjk4OTk5NwBGWF9NYXN0ZXIvRVFfTG9HYWluADAuNQBGWF9NYXN0ZXIvRVFfTG9RADAuMzI1MjU3NTEARlhfTWFzdGVyL0VRX01pZEZyZXEAMC41NjYzMjMzNABGWF9NYXN0ZXIvRVFfTWlkR2FpbgAwLjUARlhfTWFzdGVyL0VRX01pZFEAMC4zMjUyNTc1MQBGWF9NYXN0ZXIvRW5hYmxlADEARlhfTWFzdGVyL0VuYWJsZUZYADEARlhfTWFzdGVyL0ZpbHRlcl9FbmFibGUAMABGWF9NYXN0ZXIvRmlsdGVyX0hpADEARlhfTWFzdGVyL0ZpbHRlcl9MbwAwAEZYX01hc3Rlci9HVUlNdXRlADAARlhfTWFzdGVyL0dVSVNvbG8AMABGWF9NYXN0ZXIvTGV2ZWwAMC44NzcyNDgzNDcARlhfTWFzdGVyL011bHRpRlgxL0NvbXBfQXR0YWNrADAARlhfTWFzdGVyL011bHRpRlgxL0NvbXBfRW5hYmxlADAARlhfTWFzdGVyL011bHRpRlgxL0NvbXBfUmF0aW8AMABGWF9NYXN0ZXIvTXVsdGlGWDEvQ29tcF9SZWxlYXNlADAARlhfTWFzdGVyL011bHRpRlgxL0NvbXBfVGhyZXNob2xkADEARlhfTWFzdGVyL011bHRpRlgxL0N1cnJlbnRTZWxlY3Rpb24AQ29tcABGWF9NYXN0ZXIvTXVsdGlGWDEvRGlzdF9BbW91bnQAMABGWF9NYXN0ZXIvTXVsdGlGWDEvRGlzdF9FbmFibGUAMABGWF9NYXN0ZXIvTXVsdGlGWDEvRGlzdF9GcmVxSGkAMQBGWF9NYXN0ZXIvTXVsdGlGWDEvRGlzdF9GcmVxTG8AMABGWF9NYXN0ZXIvTXVsdGlGWDEvRGlzdF9NaXgAMQBGWF9NYXN0ZXIvTXVsdGlGWDEvRGlzdF9UeXBlADAARlhfTWFzdGVyL011bHRpRlgxL0VuYWJsZQAxAEZYX01hc3Rlci9NdWx0aUZYMS9MaW1pdGVyX0VuYWJsZQAwAEZYX01hc3Rlci9NdWx0aUZYMS9MaW1pdGVyX1RocmVzaG9sZAAwLjUARlhfTWFzdGVyL011bHRpRlgxL1RhcGVfQW1vdW50ADAuNQBGWF9NYXN0ZXIvTXVsdGlGWDEvVGFwZV9Db2xvcgAwAEZYX01hc3Rlci9NdWx0aUZYMS9UYXBlX0VuYWJsZQAwAEZYX01hc3Rlci9NdWx0aUZYMS9UcmFuc2llbnRfQXR0YWNrADAuNQBGWF9NYXN0ZXIvTXVsdGlGWDEvVHJhbnNpZW50X0RlY2F5ADAuNQBGWF9NYXN0ZXIvTXVsdGlGWDEvVHJhbnNpZW50X0VuYWJsZQAwAEZYX01hc3Rlci9NdWx0aUZYMi9Db21wX0F0dGFjawAwLjIwMDAwMDAwMwBGWF9NYXN0ZXIvTXVsdGlGWDIvQ29tcF9FbmFibGUAMABGWF9NYXN0ZXIvTXVsdGlGWDIvQ29tcF9SYXRpbwAwLjUARlhfTWFzdGVyL011bHRpRlgyL0NvbXBfUmVsZWFzZQAwLjIwMDAwMDAwMwBGWF9NYXN0ZXIvTXVsdGlGWDIvQ29tcF9UaHJlc2hvbGQAMC41AEZYX01hc3Rlci9NdWx0aUZYMi9DdXJyZW50U2VsZWN0aW9uAE1hc3RlcgBGWF9NYXN0ZXIvTXVsdGlGWDIvRGlzdF9BbW91bnQAMC41AEZYX01hc3Rlci9NdWx0aUZYMi9EaXN0X0VuYWJsZQAwAEZYX01hc3Rlci9NdWx0aUZYMi9EaXN0X0ZyZXFIaQAxAEZYX01hc3Rlci9NdWx0aUZYMi9EaXN0X0ZyZXFMbwAwAEZYX01hc3Rlci9NdWx0aUZYMi9EaXN0X01peAAwLjUARlhfTWFzdGVyL011bHRpRlgyL0Rpc3RfVHlwZQA1AEZYX01hc3Rlci9NdWx0aUZYMi9FbmFibGUAMQBGWF9NYXN0ZXIvTXVsdGlGWDIvTGltaXRlcl9FbmFibGUAMQBGWF9NYXN0ZXIvTXVsdGlGWDIvTGltaXRlcl9UaHJlc2hvbGQAMC41AEZYX01hc3Rlci9NdWx0aUZYMi9UYXBlX0Ftb3VudAAwAEZYX01hc3Rlci9NdWx0aUZYMi9UYXBlX0NvbG9yADAARlhfTWFzdGVyL011bHRpRlgyL1RhcGVfRW5hYmxlADAARlhfTWFzdGVyL011bHRpRlgyL1RyYW5zaWVudF9BdHRhY2sAMC41AEZYX01hc3Rlci9NdWx0aUZYMi9UcmFuc2llbnRfRGVjYXkAMC41AEZYX01hc3Rlci9NdWx0aUZYMi9UcmFuc2llbnRfRW5hYmxlADAARlhfTWFzdGVyL05vaXNlX0RlY2F5VGltZQAwLjUARlhfTWFzdGVyL05vaXNlX0VuYWJsZQAwAEZYX01hc3Rlci9Ob2lzZV9HYXRlTGV2ZWwAMC40NDk5OTk5ODgARlhfTWFzdGVyL05vaXNlX05vaXNlTGV2ZWwAMC41AEZYX01hc3Rlci9Ob2lzZV9Ob2lzZVR5cGUAMABGWF9NYXN0ZXIvT3V0TGV2ZWwAMC4xNDY2MzQ2MzgARlhfTWFzdGVyL1Bhbl9QYW4AMC41AEZYX01hc3Rlci9QYW5fV2lkdGgAMQBGWF9NYXN0ZXIvU2VuZDFMZXZlbAAwAEZYX01hc3Rlci9TZW5kMkxldmVsADAARlhfTWFzdGVyL1NlbmRzX0VuYWJsZQAwAEZYX01hc3Rlci9TZW5kc19FbmFibGVfSW50ZXJuYWwAMABGWF9NYXN0ZXIvU2VwYXJhdGVPdXQAMABGWF9NYXN0ZXIvU2VwYXJhdGVPdXRNb2RlADEARlhfTWFzdGVyL1NlcGFyYXRlT3V0TXV0ZU1hc3RlcgAwAEZYX01hc3Rlci9TZXBhcmF0ZU91dFBvc3RGYWRlcgAwAEZYX09IL0VRX0N1dEhpRnJlcQAxAEZYX09IL0VRX0N1dEhpUQAwLjUARlhfT0gvRVFfQ3V0TG9GcmVxADAARlhfT0gvRVFfQ3V0TG9RADAuNQBGWF9PSC9FUV9FbmFibGUAMABGWF9PSC9FUV9IaTJGcmVxADAuODAwMDAwMDEyAEZYX09IL0VRX0hpMkdhaW4AMC41AEZYX09IL0VRX0hpMlEAMC42OTk5OTk5ODgARlhfT0gvRVFfSGlGcmVxADAuODk5NjU2NjUzAEZYX09IL0VRX0hpR2FpbgAwLjUARlhfT0gvRVFfSGlRADAuMzI1MjU3NTEARlhfT0gvRVFfTG9GcmVxADAuMjMyOTg5OTk3AEZYX09IL0VRX0xvR2FpbgAwLjUARlhfT0gvRVFfTG9RADAuMzI1MjU3NTEARlhfT0gvRVFfTWlkRnJlcQAwLjU2NjMyMzM0AEZYX09IL0VRX01pZEdhaW4AMC41AEZYX09IL0VRX01pZFEAMC4zMjUyNTc1MQBGWF9PSC9FbmFibGUAMQBGWF9PSC9FbmFibGVGWAAwAEZYX09IL0dVSU11dGUAMABGWF9PSC9HVUlTb2xvADAARlhfT0gvSW52ZXJ0ADAARlhfT0gvTGV2ZWwAMC43NTc5ODIzMTQARlhfT0gvTXVsdGlGWDEvQ29tcF9BdHRhY2sAMABGWF9PSC9NdWx0aUZYMS9Db21wX0VuYWJsZQAwAEZYX09IL011bHRpRlgxL0NvbXBfUmF0aW8AMABGWF9PSC9NdWx0aUZYMS9Db21wX1JlbGVhc2UAMABGWF9PSC9NdWx0aUZYMS9Db21wX1RocmVzaG9sZAAxAEZYX09IL011bHRpRlgxL0N1cnJlbnRTZWxlY3Rpb24AQ29tcABGWF9PSC9NdWx0aUZYMS9EaXN0X0Ftb3VudAAwAEZYX09IL011bHRpRlgxL0Rpc3RfRW5hYmxlADAARlhfT0gvTXVsdGlGWDEvRGlzdF9GcmVxSGkAMQBGWF9PSC9NdWx0aUZYMS9EaXN0X0ZyZXFMbwAwAEZYX09IL011bHRpRlgxL0Rpc3RfTWl4ADEARlhfT0gvTXVsdGlGWDEvRGlzdF9UeXBlADAARlhfT0gvTXVsdGlGWDEvRW5hYmxlADAARlhfT0gvTXVsdGlGWDEvTGltaXRlcl9FbmFibGUAMABGWF9PSC9NdWx0aUZYMS9MaW1pdGVyX1RocmVzaG9sZAAwLjUARlhfT0gvTXVsdGlGWDEvVGFwZV9BbW91bnQAMC41AEZYX09IL011bHRpRlgxL1RhcGVfQ29sb3IAMABGWF9PSC9NdWx0aUZYMS9UYXBlX0VuYWJsZQAwAEZYX09IL011bHRpRlgxL1RyYW5zaWVudF9BdHRhY2sAMC41AEZYX09IL011bHRpRlgxL1RyYW5zaWVudF9EZWNheQAwLjUARlhfT0gvTXVsdGlGWDEvVHJhbnNpZW50X0VuYWJsZQAwAEZYX09IL011bHRpRlgyL0NvbXBfQXR0YWNrADAuMjAwMDAwMDAzAEZYX09IL011bHRpRlgyL0NvbXBfRW5hYmxlADAARlhfT0gvTXVsdGlGWDIvQ29tcF9SYXRpbwAwLjUARlhfT0gvTXVsdGlGWDIvQ29tcF9SZWxlYXNlADAuMjAwMDAwMDAzAEZYX09IL011bHRpRlgyL0NvbXBfVGhyZXNob2xkADAuNQBGWF9PSC9NdWx0aUZYMi9DdXJyZW50U2VsZWN0aW9uAE1hc3RlcgBGWF9PSC9NdWx0aUZYMi9EaXN0X0Ftb3VudAAwLjUARlhfT0gvTXVsdGlGWDIvRGlzdF9FbmFibGUAMABGWF9PSC9NdWx0aUZYMi9EaXN0X0ZyZXFIaQAxAEZYX09IL011bHRpRlgyL0Rpc3RfRnJlcUxvADAARlhfT0gvTXVsdGlGWDIvRGlzdF9NaXgAMC41AEZYX09IL011bHRpRlgyL0Rpc3RfVHlwZQA1AEZYX09IL011bHRpRlgyL0VuYWJsZQAwAEZYX09IL011bHRpRlgyL0xpbWl0ZXJfRW5hYmxlADAARlhfT0gvTXVsdGlGWDIvTGltaXRlcl9UaHJlc2hvbGQAMC41AEZYX09IL011bHRpRlgyL1RhcGVfQW1vdW50ADAuNQBGWF9PSC9NdWx0aUZYMi9UYXBlX0NvbG9yADAARlhfT0gvTXVsdGlGWDIvVGFwZV9FbmFibGUAMABGWF9PSC9NdWx0aUZYMi9UcmFuc2llbnRfQXR0YWNrADAuNQBGWF9PSC9NdWx0aUZYMi9UcmFuc2llbnRfRGVjYXkAMC41AEZYX09IL011bHRpRlgyL1RyYW5zaWVudF9FbmFibGUAMABGWF9PSC9Ob2lzZV9EZWNheVRpbWUAMC41AEZYX09IL05vaXNlX0VuYWJsZQAwAEZYX09IL05vaXNlX0dhdGVMZXZlbAAwLjQ0OTk5OTk4OABGWF9PSC9Ob2lzZV9Ob2lzZUxldmVsADAuNQBGWF9PSC9Ob2lzZV9Ob2lzZVR5cGUAMABGWF9PSC9PdXRMZXZlbAAwLjUARlhfT0gvUGFuX1BhbgAwLjUARlhfT0gvUGFuX1dpZHRoADEARlhfT0gvU2VuZDFMZXZlbAAwAEZYX09IL1NlbmQyTGV2ZWwAMABGWF9PSC9TZW5kQnVzTGV2ZWwAMABGWF9PSC9TZW5kc19FbmFibGUAMABGWF9PSC9TZW5kc19FbmFibGVfSW50ZXJuYWwAMABGWF9PSC9TZXBhcmF0ZU91dAAwAEZYX09IL1NlcGFyYXRlT3V0TW9kZQAxAEZYX09IL1NlcGFyYXRlT3V0TXV0ZU1hc3RlcgAwAEZYX09IL1NlcGFyYXRlT3V0UG9zdEZhZGVyADAARlhfUm9vbS9EZWxheV9UaW1lADAARlhfUm9vbS9FUV9DdXRIaUZyZXEAMQBGWF9Sb29tL0VRX0N1dEhpUQAwLjUARlhfUm9vbS9FUV9DdXRMb0ZyZXEAMABGWF9Sb29tL0VRX0N1dExvUQAwLjUARlhfUm9vbS9FUV9FbmFibGUAMABGWF9Sb29tL0VRX0hpMkZyZXEAMC44MDAwMDAwMTIARlhfUm9vbS9FUV9IaTJHYWluADAuNQBGWF9Sb29tL0VRX0hpMlEAMC42OTk5OTk5ODgARlhfUm9vbS9FUV9IaUZyZXEAMC44OTk2NTY2NTMARlhfUm9vbS9FUV9IaUdhaW4AMC41AEZYX1Jvb20vRVFfSGlRADAuMzI1MjU3NTEARlhfUm9vbS9FUV9Mb0ZyZXEAMC4yMzI5ODk5OTcARlhfUm9vbS9FUV9Mb0dhaW4AMC41AEZYX1Jvb20vRVFfTG9RADAuMzI1MjU3NTEARlhfUm9vbS9FUV9NaWRGcmVxADAuNTY2MzIzMzQARlhfUm9vbS9FUV9NaWRHYWluADAuNQBGWF9Sb29tL0VRX01pZFEAMC4zMjUyNTc1MQBGWF9Sb29tL0VuYWJsZQAxAEZYX1Jvb20vRW5hYmxlRlgAMABGWF9Sb29tL0dVSU11dGUAMABGWF9Sb29tL0dVSVNvbG8AMABGWF9Sb29tL0ludmVydAAwAEZYX1Jvb20vTGV2ZWwAMC43NTc5ODIzMTQARlhfUm9vbS9NdWx0aUZYMS9Db21wX0F0dGFjawAwAEZYX1Jvb20vTXVsdGlGWDEvQ29tcF9FbmFibGUAMABGWF9Sb29tL011bHRpRlgxL0NvbXBfUmF0aW8AMABGWF9Sb29tL011bHRpRlgxL0NvbXBfUmVsZWFzZQAwAEZYX1Jvb20vTXVsdGlGWDEvQ29tcF9UaHJlc2hvbGQAMQBGWF9Sb29tL011bHRpRlgxL0N1cnJlbnRTZWxlY3Rpb24AQ29tcABGWF9Sb29tL011bHRpRlgxL0Rpc3RfQW1vdW50ADAARlhfUm9vbS9NdWx0aUZYMS9EaXN0X0VuYWJsZQAwAEZYX1Jvb20vTXVsdGlGWDEvRGlzdF9GcmVxSGkAMQBGWF9Sb29tL011bHRpRlgxL0Rpc3RfRnJlcUxvADAARlhfUm9vbS9NdWx0aUZYMS9EaXN0X01peAAxAEZYX1Jvb20vTXVsdGlGWDEvRGlzdF9UeXBlADAARlhfUm9vbS9NdWx0aUZYMS9FbmFibGUAMABGWF9Sb29tL011bHRpRlgxL0xpbWl0ZXJfRW5hYmxlADAARlhfUm9vbS9NdWx0aUZYMS9MaW1pdGVyX1RocmVzaG9sZAAwLjUARlhfUm9vbS9NdWx0aUZYMS9UYXBlX0Ftb3VudAAwLjUARlhfUm9vbS9NdWx0aUZYMS9UYXBlX0NvbG9yADAARlhfUm9vbS9NdWx0aUZYMS9UYXBlX0VuYWJsZQAwAEZYX1Jvb20vTXVsdGlGWDEvVHJhbnNpZW50X0F0dGFjawAwLjUARlhfUm9vbS9NdWx0aUZYMS9UcmFuc2llbnRfRGVjYXkAMC41AEZYX1Jvb20vTXVsdGlGWDEvVHJhbnNpZW50X0VuYWJsZQAwAEZYX1Jvb20vTXVsdGlGWDIvQ29tcF9BdHRhY2sAMC4yMDAwMDAwMDMARlhfUm9vbS9NdWx0aUZYMi9Db21wX0VuYWJsZQAwAEZYX1Jvb20vTXVsdGlGWDIvQ29tcF9SYXRpbwAwLjUARlhfUm9vbS9NdWx0aUZYMi9Db21wX1JlbGVhc2UAMC4yMDAwMDAwMDMARlhfUm9vbS9NdWx0aUZYMi9Db21wX1RocmVzaG9sZAAwLjUARlhfUm9vbS9NdWx0aUZYMi9DdXJyZW50U2VsZWN0aW9uAE1hc3RlcgBGWF9Sb29tL011bHRpRlgyL0Rpc3RfQW1vdW50ADAuNQBGWF9Sb29tL011bHRpRlgyL0Rpc3RfRW5hYmxlADAARlhfUm9vbS9NdWx0aUZYMi9EaXN0X0ZyZXFIaQAxAEZYX1Jvb20vTXVsdGlGWDIvRGlzdF9GcmVxTG8AMABGWF9Sb29tL011bHRpRlgyL0Rpc3RfTWl4ADAuNQBGWF9Sb29tL011bHRpRlgyL0Rpc3RfVHlwZQA1AEZYX1Jvb20vTXVsdGlGWDIvRW5hYmxlADAARlhfUm9vbS9NdWx0aUZYMi9MaW1pdGVyX0VuYWJsZQAwAEZYX1Jvb20vTXVsdGlGWDIvTGltaXRlcl9UaHJlc2hvbGQAMC41AEZYX1Jvb20vTXVsdGlGWDIvVGFwZV9BbW91bnQAMC41AEZYX1Jvb20vTXVsdGlGWDIvVGFwZV9Db2xvcgAwAEZYX1Jvb20vTXVsdGlGWDIvVGFwZV9FbmFibGUAMABGWF9Sb29tL011bHRpRlgyL1RyYW5zaWVudF9BdHRhY2sAMC41AEZYX1Jvb20vTXVsdGlGWDIvVHJhbnNpZW50X0RlY2F5ADAuNQBGWF9Sb29tL011bHRpRlgyL1RyYW5zaWVudF9FbmFibGUAMABGWF9Sb29tL05vaXNlX0RlY2F5VGltZQAwLjUARlhfUm9vbS9Ob2lzZV9FbmFibGUAMABGWF9Sb29tL05vaXNlX0dhdGVMZXZlbAAwLjQ0OTk5OTk4OABGWF9Sb29tL05vaXNlX05vaXNlTGV2ZWwAMC41AEZYX1Jvb20vTm9pc2VfTm9pc2VUeXBlADAARlhfUm9vbS9PdXRMZXZlbAAwLjUARlhfUm9vbS9QYW5fUGFuADAuNQBGWF9Sb29tL1Bhbl9XaWR0aAAxAEZYX1Jvb20vU2VuZDFMZXZlbAAwAEZYX1Jvb20vU2VuZDJMZXZlbAAwAEZYX1Jvb20vU2VuZEJ1c0xldmVsADAARlhfUm9vbS9TZW5kc19FbmFibGUAMABGWF9Sb29tL1NlbmRzX0VuYWJsZV9JbnRlcm5hbAAwAEZYX1Jvb20vU2VwYXJhdGVPdXQAMABGWF9Sb29tL1NlcGFyYXRlT3V0TW9kZQAxAEZYX1Jvb20vU2VwYXJhdGVPdXRNdXRlTWFzdGVyADAARlhfUm9vbS9TZXBhcmF0ZU91dFBvc3RGYWRlcgAwAEZYX1NOQVIvRVFfQ3V0SGlGcmVxADEARlhfU05BUi9FUV9DdXRIaVEAMC41AEZYX1NOQVIvRVFfQ3V0TG9GcmVxADAARlhfU05BUi9FUV9DdXRMb1EAMC41AEZYX1NOQVIvRVFfRW5hYmxlADAARlhfU05BUi9FUV9IaTJGcmVxADAuODAwMDAwMDEyAEZYX1NOQVIvRVFfSGkyR2FpbgAwLjUARlhfU05BUi9FUV9IaTJRADAuNjk5OTk5OTg4AEZYX1NOQVIvRVFfSGlGcmVxADAuODk5NjU2NjUzAEZYX1NOQVIvRVFfSGlHYWluADAuNQBGWF9TTkFSL0VRX0hpUQAwLjMyNTI1NzUxAEZYX1NOQVIvRVFfTG9GcmVxADAuMjMyOTg5OTk3AEZYX1NOQVIvRVFfTG9HYWluADAuNQBGWF9TTkFSL0VRX0xvUQAwLjMyNTI1NzUxAEZYX1NOQVIvRVFfTWlkRnJlcQAwLjU2NjMyMzM0AEZYX1NOQVIvRVFfTWlkR2FpbgAwLjUARlhfU05BUi9FUV9NaWRRADAuMzI1MjU3NTEARlhfU05BUi9FbmFibGUAMQBGWF9TTkFSL0VuYWJsZUZYADEARlhfU05BUi9HVUlNdXRlADAARlhfU05BUi9HVUlTb2xvADAARlhfU05BUi9JbnZlcnQAMABGWF9TTkFSL0xldmVsADAuNzU3OTgyMzE0AEZYX1NOQVIvTXVsdGlGWDEvQ29tcF9BdHRhY2sAMABGWF9TTkFSL011bHRpRlgxL0NvbXBfRW5hYmxlADAARlhfU05BUi9NdWx0aUZYMS9Db21wX1JhdGlvADAARlhfU05BUi9NdWx0aUZYMS9Db21wX1JlbGVhc2UAMABGWF9TTkFSL011bHRpRlgxL0NvbXBfVGhyZXNob2xkADEARlhfU05BUi9NdWx0aUZYMS9DdXJyZW50U2VsZWN0aW9uAENvbXAARlhfU05BUi9NdWx0aUZYMS9EaXN0X0Ftb3VudAAwAEZYX1NOQVIvTXVsdGlGWDEvRGlzdF9FbmFibGUAMABGWF9TTkFSL011bHRpRlgxL0Rpc3RfRnJlcUhpADEARlhfU05BUi9NdWx0aUZYMS9EaXN0X0ZyZXFMbwAwAEZYX1NOQVIvTXVsdGlGWDEvRGlzdF9NaXgAMQBGWF9TTkFSL011bHRpRlgxL0Rpc3RfVHlwZQAwAEZYX1NOQVIvTXVsdGlGWDEvRW5hYmxlADAARlhfU05BUi9NdWx0aUZYMS9MaW1pdGVyX0VuYWJsZQAwAEZYX1NOQVIvTXVsdGlGWDEvTGltaXRlcl9UaHJlc2hvbGQAMC41AEZYX1NOQVIvTXVsdGlGWDEvVGFwZV9BbW91bnQAMC41AEZYX1NOQVIvTXVsdGlGWDEvVGFwZV9Db2xvcgAwAEZYX1NOQVIvTXVsdGlGWDEvVGFwZV9FbmFibGUAMABGWF9TTkFSL011bHRpRlgxL1RyYW5zaWVudF9BdHRhY2sAMC41AEZYX1NOQVIvTXVsdGlGWDEvVHJhbnNpZW50X0RlY2F5ADAuNQBGWF9TTkFSL011bHRpRlgxL1RyYW5zaWVudF9FbmFibGUAMABGWF9TTkFSL011bHRpRlgyL0NvbXBfQXR0YWNrADAuMjAwMDAwMDAzAEZYX1NOQVIvTXVsdGlGWDIvQ29tcF9FbmFibGUAMABGWF9TTkFSL011bHRpRlgyL0NvbXBfUmF0aW8AMC41AEZYX1NOQVIvTXVsdGlGWDIvQ29tcF9SZWxlYXNlADAuMjAwMDAwMDAzAEZYX1NOQVIvTXVsdGlGWDIvQ29tcF9UaHJlc2hvbGQAMC41AEZYX1NOQVIvTXVsdGlGWDIvQ3VycmVudFNlbGVjdGlvbgBNYXN0ZXIARlhfU05BUi9NdWx0aUZYMi9EaXN0X0Ftb3VudAAwLjUARlhfU05BUi9NdWx0aUZYMi9EaXN0X0VuYWJsZQAwAEZYX1NOQVIvTXVsdGlGWDIvRGlzdF9GcmVxSGkAMQBGWF9TTkFSL011bHRpRlgyL0Rpc3RfRnJlcUxvADAARlhfU05BUi9NdWx0aUZYMi9EaXN0X01peAAwLjUARlhfU05BUi9NdWx0aUZYMi9EaXN0X1R5cGUANQBGWF9TTkFSL011bHRpRlgyL0VuYWJsZQAwAEZYX1NOQVIvTXVsdGlGWDIvTGltaXRlcl9FbmFibGUAMABGWF9TTkFSL011bHRpRlgyL0xpbWl0ZXJfVGhyZXNob2xkADAuNQBGWF9TTkFSL011bHRpRlgyL1RhcGVfQW1vdW50ADAuNQBGWF9TTkFSL011bHRpRlgyL1RhcGVfQ29sb3IAMABGWF9TTkFSL011bHRpRlgyL1RhcGVfRW5hYmxlADAARlhfU05BUi9NdWx0aUZYMi9UcmFuc2llbnRfQXR0YWNrADAuNQBGWF9TTkFSL011bHRpRlgyL1RyYW5zaWVudF9EZWNheQAwLjUARlhfU05BUi9NdWx0aUZYMi9UcmFuc2llbnRfRW5hYmxlADAARlhfU05BUi9Ob2lzZV9EZWNheVRpbWUAMC41AEZYX1NOQVIvTm9pc2VfRW5hYmxlADAARlhfU05BUi9Ob2lzZV9HYXRlTGV2ZWwAMC40NDk5OTk5ODgARlhfU05BUi9Ob2lzZV9Ob2lzZUxldmVsADAuNQBGWF9TTkFSL05vaXNlX05vaXNlVHlwZQAwAEZYX1NOQVIvT3V0TGV2ZWwAMC42NDY3NDI3MDIARlhfU05BUi9QYW5fUGFuADAuNQBGWF9TTkFSL1NlbmQxTGV2ZWwAMABGWF9TTkFSL1NlbmQyTGV2ZWwAMABGWF9TTkFSL1NlbmRCdXNMZXZlbAAwAEZYX1NOQVIvU2VuZHNfRW5hYmxlADAARlhfU05BUi9TZW5kc19FbmFibGVfSW50ZXJuYWwAMABGWF9TTkFSL1NlcGFyYXRlT3V0ADAARlhfU05BUi9TZXBhcmF0ZU91dE1vZGUAMQBGWF9TTkFSL1NlcGFyYXRlT3V0TXV0ZU1hc3RlcgAwAEZYX1NOQVIvU2VwYXJhdGVPdXRQb3N0RmFkZXIAMABGWF9TZW5kMS9EZWxheV9GaWx0ZXJfSGkAMQBGWF9TZW5kMS9EZWxheV9GaWx0ZXJfTG8AMABGWF9TZW5kMS9EZWxheV9MZXZlbAAwLjUARlhfU2VuZDEvRGVsYXlfUGluZ1BvbmcAMC41AEZYX1NlbmQxL0RlbGF5X1N3aW5nADAuNQBGWF9TZW5kMS9EZWxheV9UZW1wb1N5bmMAMABGWF9TZW5kMS9EZWxheV9UaW1lADAuNQBGWF9TZW5kMS9EZWxlcmJfRW5hYmxlADAARlhfU2VuZDEvRVFfQ3V0SGlGcmVxADEARlhfU2VuZDEvRVFfQ3V0SGlRADAuNQBGWF9TZW5kMS9FUV9DdXRMb0ZyZXEAMABGWF9TZW5kMS9FUV9DdXRMb1EAMC41AEZYX1NlbmQxL0VRX0VuYWJsZQAxAEZYX1NlbmQxL0VRX0hpRnJlcQAwLjg5OTY1NjY1MwBGWF9TZW5kMS9FUV9IaUdhaW4AMC41AEZYX1NlbmQxL0VRX0hpUQAwAEZYX1NlbmQxL0VRX0xvRnJlcQAwLjIzMjk4OTk5NwBGWF9TZW5kMS9FUV9Mb0dhaW4AMC41AEZYX1NlbmQxL0VRX0xvUQAwAEZYX1NlbmQxL0dVSVNvbG8AMABGWF9TZW5kMS9MZXZlbAAwLjUARlhfU2VuZDEvTWFrcm9NaXhEZWxheVJldmVyYgAxAEZYX1NlbmQxL1Bhbl9QYW4AMC41AEZYX1NlbmQxL1Bhbl9XaWR0aAAxAEZYX1NlbmQxL1ByZUluc2VydHMAMABGWF9TZW5kMS9SZXZTbWVhcl9NaXgAMABGWF9TZW5kMS9SZXZlcmJfRGFtcAAwAEZYX1NlbmQxL1JldmVyYl9EZWNheQAwAEZYX1NlbmQxL1JldmVyYl9QcmVEZWxheQAwAEZYX1NlbmQxL1JldmVyYl9UeXBlADAARlhfU2VuZDIvRGVsYXlfRmlsdGVyX0hpADEARlhfU2VuZDIvRGVsYXlfRmlsdGVyX0xvADAARlhfU2VuZDIvRGVsYXlfTGV2ZWwAMC41AEZYX1NlbmQyL0RlbGF5X1BpbmdQb25nADAuNQBGWF9TZW5kMi9EZWxheV9Td2luZwAwLjUARlhfU2VuZDIvRGVsYXlfVGVtcG9TeW5jADAARlhfU2VuZDIvRGVsYXlfVGltZQAwLjUARlhfU2VuZDIvRGVsZXJiX0VuYWJsZQAwAEZYX1NlbmQyL0VRX0N1dEhpRnJlcQAxAEZYX1NlbmQyL0VRX0N1dEhpUQAwLjUARlhfU2VuZDIvRVFfQ3V0TG9GcmVxADAARlhfU2VuZDIvRVFfQ3V0TG9RADAuNQBGWF9TZW5kMi9FUV9FbmFibGUAMQBGWF9TZW5kMi9FUV9IaUZyZXEAMC44OTk2NTY2NTMARlhfU2VuZDIvRVFfSGlHYWluADAuNQBGWF9TZW5kMi9FUV9IaVEAMABGWF9TZW5kMi9FUV9Mb0ZyZXEAMC4yMzI5ODk5OTcARlhfU2VuZDIvRVFfTG9HYWluADAuNQBGWF9TZW5kMi9FUV9Mb1EAMABGWF9TZW5kMi9HVUlTb2xvADAARlhfU2VuZDIvTGV2ZWwAMC41AEZYX1NlbmQyL01ha3JvTWl4RGVsYXlSZXZlcmIAMQBGWF9TZW5kMi9QYW5fUGFuADAuNQBGWF9TZW5kMi9QYW5fV2lkdGgAMQBGWF9TZW5kMi9QcmVJbnNlcnRzADAARlhfU2VuZDIvUmV2U21lYXJfTWl4ADAARlhfU2VuZDIvUmV2ZXJiX0RhbXAAMABGWF9TZW5kMi9SZXZlcmJfRGVjYXkAMABGWF9TZW5kMi9SZXZlcmJfUHJlRGVsYXkAMABGWF9TZW5kMi9SZXZlcmJfVHlwZQAwAEZYX1RPTTEvRVFfQ3V0SGlGcmVxADEARlhfVE9NMS9FUV9DdXRIaVEAMC41AEZYX1RPTTEvRVFfQ3V0TG9GcmVxADAARlhfVE9NMS9FUV9DdXRMb1EAMC41AEZYX1RPTTEvRVFfRW5hYmxlADAARlhfVE9NMS9FUV9IaTJGcmVxADAuODAwMDAwMDEyAEZYX1RPTTEvRVFfSGkyR2FpbgAwLjUARlhfVE9NMS9FUV9IaTJRADAuNjk5OTk5OTg4AEZYX1RPTTEvRVFfSGlGcmVxADAuODk5NjU2NjUzAEZYX1RPTTEvRVFfSGlHYWluADAuNQBGWF9UT00xL0VRX0hpUQAwLjMyNTI1NzUxAEZYX1RPTTEvRVFfTG9GcmVxADAuMjMyOTg5OTk3AEZYX1RPTTEvRVFfTG9HYWluADAuNQBGWF9UT00xL0VRX0xvUQAwLjMyNTI1NzUxAEZYX1RPTTEvRVFfTWlkRnJlcQAwLjU2NjMyMzM0AEZYX1RPTTEvRVFfTWlkR2FpbgAwLjUARlhfVE9NMS9FUV9NaWRRADAuMzI1MjU3NTEARlhfVE9NMS9FbmFibGUAMQBGWF9UT00xL0VuYWJsZUZYADEARlhfVE9NMS9HVUlNdXRlADAARlhfVE9NMS9HVUlTb2xvADAARlhfVE9NMS9JbnZlcnQAMABGWF9UT00xL0xldmVsADAuNzU3OTgyMzE0AEZYX1RPTTEvTXVsdGlGWDEvQ29tcF9BdHRhY2sAMABGWF9UT00xL011bHRpRlgxL0NvbXBfRW5hYmxlADAARlhfVE9NMS9NdWx0aUZYMS9Db21wX1JhdGlvADAARlhfVE9NMS9NdWx0aUZYMS9Db21wX1JlbGVhc2UAMABGWF9UT00xL011bHRpRlgxL0NvbXBfVGhyZXNob2xkADEARlhfVE9NMS9NdWx0aUZYMS9DdXJyZW50U2VsZWN0aW9uAENvbXAARlhfVE9NMS9NdWx0aUZYMS9EaXN0X0Ftb3VudAAwAEZYX1RPTTEvTXVsdGlGWDEvRGlzdF9FbmFibGUAMABGWF9UT00xL011bHRpRlgxL0Rpc3RfRnJlcUhpADEARlhfVE9NMS9NdWx0aUZYMS9EaXN0X0ZyZXFMbwAwAEZYX1RPTTEvTXVsdGlGWDEvRGlzdF9NaXgAMQBGWF9UT00xL011bHRpRlgxL0Rpc3RfVHlwZQAwAEZYX1RPTTEvTXVsdGlGWDEvRW5hYmxlADAARlhfVE9NMS9NdWx0aUZYMS9MaW1pdGVyX0VuYWJsZQAwAEZYX1RPTTEvTXVsdGlGWDEvTGltaXRlcl9UaHJlc2hvbGQAMC41AEZYX1RPTTEvTXVsdGlGWDEvVGFwZV9BbW91bnQAMC41AEZYX1RPTTEvTXVsdGlGWDEvVGFwZV9Db2xvcgAwAEZYX1RPTTEvTXVsdGlGWDEvVGFwZV9FbmFibGUAMABGWF9UT00xL011bHRpRlgxL1RyYW5zaWVudF9BdHRhY2sAMC41AEZYX1RPTTEvTXVsdGlGWDEvVHJhbnNpZW50X0RlY2F5ADAuNQBGWF9UT00xL011bHRpRlgxL1RyYW5zaWVudF9FbmFibGUAMABGWF9UT00xL011bHRpRlgyL0NvbXBfQXR0YWNrADAuMjAwMDAwMDAzAEZYX1RPTTEvTXVsdGlGWDIvQ29tcF9FbmFibGUAMABGWF9UT00xL011bHRpRlgyL0NvbXBfUmF0aW8AMC41AEZYX1RPTTEvTXVsdGlGWDIvQ29tcF9SZWxlYXNlADAuMjAwMDAwMDAzAEZYX1RPTTEvTXVsdGlGWDIvQ29tcF9UaHJlc2hvbGQAMC41AEZYX1RPTTEvTXVsdGlGWDIvQ3VycmVudFNlbGVjdGlvbgBNYXN0ZXIARlhfVE9NMS9NdWx0aUZYMi9EaXN0X0Ftb3VudAAwLjUARlhfVE9NMS9NdWx0aUZYMi9EaXN0X0VuYWJsZQAwAEZYX1RPTTEvTXVsdGlGWDIvRGlzdF9GcmVxSGkAMQBGWF9UT00xL011bHRpRlgyL0Rpc3RfRnJlcUxvADAARlhfVE9NMS9NdWx0aUZYMi9EaXN0X01peAAwLjUARlhfVE9NMS9NdWx0aUZYMi9EaXN0X1R5cGUANQBGWF9UT00xL011bHRpRlgyL0VuYWJsZQAwAEZYX1RPTTEvTXVsdGlGWDIvTGltaXRlcl9FbmFibGUAMABGWF9UT00xL011bHRpRlgyL0xpbWl0ZXJfVGhyZXNob2xkADAuNQBGWF9UT00xL011bHRpRlgyL1RhcGVfQW1vdW50ADAuNQBGWF9UT00xL011bHRpRlgyL1RhcGVfQ29sb3IAMABGWF9UT00xL011bHRpRlgyL1RhcGVfRW5hYmxlADAARlhfVE9NMS9NdWx0aUZYMi9UcmFuc2llbnRfQXR0YWNrADAuNQBGWF9UT00xL011bHRpRlgyL1RyYW5zaWVudF9EZWNheQAwLjUARlhfVE9NMS9NdWx0aUZYMi9UcmFuc2llbnRfRW5hYmxlADAARlhfVE9NMS9Ob2lzZV9EZWNheVRpbWUAMC41AEZYX1RPTTEvTm9pc2VfRW5hYmxlADAARlhfVE9NMS9Ob2lzZV9HYXRlTGV2ZWwAMC40NDk5OTk5ODgARlhfVE9NMS9Ob2lzZV9Ob2lzZUxldmVsADAuNQBGWF9UT00xL05vaXNlX05vaXNlVHlwZQAwAEZYX1RPTTEvT3V0TGV2ZWwAMC42NDY3NDI3MDIARlhfVE9NMS9QYW5fUGFuADAuNQBGWF9UT00xL1NlbmQxTGV2ZWwAMABGWF9UT00xL1NlbmQyTGV2ZWwAMABGWF9UT00xL1NlbmRCdXNMZXZlbAAwAEZYX1RPTTEvU2VuZHNfRW5hYmxlADAARlhfVE9NMS9TZW5kc19FbmFibGVfSW50ZXJuYWwAMABGWF9UT00xL1NlcGFyYXRlT3V0ADAARlhfVE9NMS9TZXBhcmF0ZU91dE1vZGUAMQBGWF9UT00xL1NlcGFyYXRlT3V0TXV0ZU1hc3RlcgAwAEZYX1RPTTEvU2VwYXJhdGVPdXRQb3N0RmFkZXIAMABGWF9UT00yL0VRX0N1dEhpRnJlcQAxAEZYX1RPTTIvRVFfQ3V0SGlRADAuNQBGWF9UT00yL0VRX0N1dExvRnJlcQAwAEZYX1RPTTIvRVFfQ3V0TG9RADAuNQBGWF9UT00yL0VRX0VuYWJsZQAwAEZYX1RPTTIvRVFfSGkyRnJlcQAwLjgwMDAwMDAxMgBGWF9UT00yL0VRX0hpMkdhaW4AMC41AEZYX1RPTTIvRVFfSGkyUQAwLjY5OTk5OTk4OABGWF9UT00yL0VRX0hpRnJlcQAwLjg5OTY1NjY1MwBGWF9UT00yL0VRX0hpR2FpbgAwLjUARlhfVE9NMi9FUV9IaVEAMC4zMjUyNTc1MQBGWF9UT00yL0VRX0xvRnJlcQAwLjIzMjk4OTk5NwBGWF9UT00yL0VRX0xvR2FpbgAwLjUARlhfVE9NMi9FUV9Mb1EAMC4zMjUyNTc1MQBGWF9UT00yL0VRX01pZEZyZXEAMC41NjYzMjMzNABGWF9UT00yL0VRX01pZEdhaW4AMC41AEZYX1RPTTIvRVFfTWlkUQAwLjMyNTI1NzUxAEZYX1RPTTIvRW5hYmxlADEARlhfVE9NMi9FbmFibGVGWAAxAEZYX1RPTTIvR1VJTXV0ZQAwAEZYX1RPTTIvR1VJU29sbwAwAEZYX1RPTTIvSW52ZXJ0ADAARlhfVE9NMi9MZXZlbAAwLjc1Nzk4MjMxNABGWF9UT00yL011bHRpRlgxL0NvbXBfQXR0YWNrADAARlhfVE9NMi9NdWx0aUZYMS9Db21wX0VuYWJsZQAwAEZYX1RPTTIvTXVsdGlGWDEvQ29tcF9SYXRpbwAwAEZYX1RPTTIvTXVsdGlGWDEvQ29tcF9SZWxlYXNlADAARlhfVE9NMi9NdWx0aUZYMS9Db21wX1RocmVzaG9sZAAxAEZYX1RPTTIvTXVsdGlGWDEvQ3VycmVudFNlbGVjdGlvbgBDb21wAEZYX1RPTTIvTXVsdGlGWDEvRGlzdF9BbW91bnQAMABGWF9UT00yL011bHRpRlgxL0Rpc3RfRW5hYmxlADAARlhfVE9NMi9NdWx0aUZYMS9EaXN0X0ZyZXFIaQAxAEZYX1RPTTIvTXVsdGlGWDEvRGlzdF9GcmVxTG8AMABGWF9UT00yL011bHRpRlgxL0Rpc3RfTWl4ADEARlhfVE9NMi9NdWx0aUZYMS9EaXN0X1R5cGUAMABGWF9UT00yL011bHRpRlgxL0VuYWJsZQAwAEZYX1RPTTIvTXVsdGlGWDEvTGltaXRlcl9FbmFibGUAMABGWF9UT00yL011bHRpRlgxL0xpbWl0ZXJfVGhyZXNob2xkADAuNQBGWF9UT00yL011bHRpRlgxL1RhcGVfQW1vdW50ADAuNQBGWF9UT00yL011bHRpRlgxL1RhcGVfQ29sb3IAMABGWF9UT00yL011bHRpRlgxL1RhcGVfRW5hYmxlADAARlhfVE9NMi9NdWx0aUZYMS9UcmFuc2llbnRfQXR0YWNrADAuNQBGWF9UT00yL011bHRpRlgxL1RyYW5zaWVudF9EZWNheQAwLjUARlhfVE9NMi9NdWx0aUZYMS9UcmFuc2llbnRfRW5hYmxlADAARlhfVE9NMi9NdWx0aUZYMi9Db21wX0F0dGFjawAwLjIwMDAwMDAwMwBGWF9UT00yL011bHRpRlgyL0NvbXBfRW5hYmxlADAARlhfVE9NMi9NdWx0aUZYMi9Db21wX1JhdGlvADAuNQBGWF9UT00yL011bHRpRlgyL0NvbXBfUmVsZWFzZQAwLjIwMDAwMDAwMwBGWF9UT00yL011bHRpRlgyL0NvbXBfVGhyZXNob2xkADAuNQBGWF9UT00yL011bHRpRlgyL0N1cnJlbnRTZWxlY3Rpb24ATWFzdGVyAEZYX1RPTTIvTXVsdGlGWDIvRGlzdF9BbW91bnQAMC41AEZYX1RPTTIvTXVsdGlGWDIvRGlzdF9FbmFibGUAMABGWF9UT00yL011bHRpRlgyL0Rpc3RfRnJlcUhpADEARlhfVE9NMi9NdWx0aUZYMi9EaXN0X0ZyZXFMbwAwAEZYX1RPTTIvTXVsdGlGWDIvRGlzdF9NaXgAMC41AEZYX1RPTTIvTXVsdGlGWDIvRGlzdF9UeXBlADUARlhfVE9NMi9NdWx0aUZYMi9FbmFibGUAMABGWF9UT00yL011bHRpRlgyL0xpbWl0ZXJfRW5hYmxlADAARlhfVE9NMi9NdWx0aUZYMi9MaW1pdGVyX1RocmVzaG9sZAAwLjUARlhfVE9NMi9NdWx0aUZYMi9UYXBlX0Ftb3VudAAwLjUARlhfVE9NMi9NdWx0aUZYMi9UYXBlX0NvbG9yADAARlhfVE9NMi9NdWx0aUZYMi9UYXBlX0VuYWJsZQAwAEZYX1RPTTIvTXVsdGlGWDIvVHJhbnNpZW50X0F0dGFjawAwLjUARlhfVE9NMi9NdWx0aUZYMi9UcmFuc2llbnRfRGVjYXkAMC41AEZYX1RPTTIvTXVsdGlGWDIvVHJhbnNpZW50X0VuYWJsZQAwAEZYX1RPTTIvTm9pc2VfRGVjYXlUaW1lADAuNQBGWF9UT00yL05vaXNlX0VuYWJsZQAwAEZYX1RPTTIvTm9pc2VfR2F0ZUxldmVsADAuNDQ5OTk5OTg4AEZYX1RPTTIvTm9pc2VfTm9pc2VMZXZlbAAwLjUARlhfVE9NMi9Ob2lzZV9Ob2lzZVR5cGUAMABGWF9UT00yL091dExldmVsADAuNjQ2NzQyNzAyAEZYX1RPTTIvUGFuX1BhbgAwLjUARlhfVE9NMi9TZW5kMUxldmVsADAARlhfVE9NMi9TZW5kMkxldmVsADAARlhfVE9NMi9TZW5kQnVzTGV2ZWwAMABGWF9UT00yL1NlbmRzX0VuYWJsZQAwAEZYX1RPTTIvU2VuZHNfRW5hYmxlX0ludGVybmFsADAARlhfVE9NMi9TZXBhcmF0ZU91dAAwAEZYX1RPTTIvU2VwYXJhdGVPdXRNb2RlADEARlhfVE9NMi9TZXBhcmF0ZU91dE11dGVNYXN0ZXIAMABGWF9UT00yL1NlcGFyYXRlT3V0UG9zdEZhZGVyADAARlhfVE9NMy9FUV9DdXRIaUZyZXEAMQBGWF9UT00zL0VRX0N1dEhpUQAwLjUARlhfVE9NMy9FUV9DdXRMb0ZyZXEAMABGWF9UT00zL0VRX0N1dExvUQAwLjUARlhfVE9NMy9FUV9FbmFibGUAMABGWF9UT00zL0VRX0hpMkZyZXEAMC44MDAwMDAwMTIARlhfVE9NMy9FUV9IaTJHYWluADAuNQBGWF9UT00zL0VRX0hpMlEAMC42OTk5OTk5ODgARlhfVE9NMy9FUV9IaUZyZXEAMC44OTk2NTY2NTMARlhfVE9NMy9FUV9IaUdhaW4AMC41AEZYX1RPTTMvRVFfSGlRADAuMzI1MjU3NTEARlhfVE9NMy9FUV9Mb0ZyZXEAMC4yMzI5ODk5OTcARlhfVE9NMy9FUV9Mb0dhaW4AMC41AEZYX1RPTTMvRVFfTG9RADAuMzI1MjU3NTEARlhfVE9NMy9FUV9NaWRGcmVxADAuNTY2MzIzMzQARlhfVE9NMy9FUV9NaWRHYWluADAuNQBGWF9UT00zL0VRX01pZFEAMC4zMjUyNTc1MQBGWF9UT00zL0VuYWJsZQAxAEZYX1RPTTMvRW5hYmxlRlgAMQBGWF9UT00zL0dVSU11dGUAMABGWF9UT00zL0dVSVNvbG8AMABGWF9UT00zL0ludmVydAAwAEZYX1RPTTMvTGV2ZWwAMC43NTc5ODIzMTQARlhfVE9NMy9NdWx0aUZYMS9Db21wX0F0dGFjawAwAEZYX1RPTTMvTXVsdGlGWDEvQ29tcF9FbmFibGUAMABGWF9UT00zL011bHRpRlgxL0NvbXBfUmF0aW8AMABGWF9UT00zL011bHRpRlgxL0NvbXBfUmVsZWFzZQAwAEZYX1RPTTMvTXVsdGlGWDEvQ29tcF9UaHJlc2hvbGQAMQBGWF9UT00zL011bHRpRlgxL0N1cnJlbnRTZWxlY3Rpb24AQ29tcABGWF9UT00zL011bHRpRlgxL0Rpc3RfQW1vdW50ADAARlhfVE9NMy9NdWx0aUZYMS9EaXN0X0VuYWJsZQAwAEZYX1RPTTMvTXVsdGlGWDEvRGlzdF9GcmVxSGkAMQBGWF9UT00zL011bHRpRlgxL0Rpc3RfRnJlcUxvADAARlhfVE9NMy9NdWx0aUZYMS9EaXN0X01peAAxAEZYX1RPTTMvTXVsdGlGWDEvRGlzdF9UeXBlADAARlhfVE9NMy9NdWx0aUZYMS9FbmFibGUAMABGWF9UT00zL011bHRpRlgxL0xpbWl0ZXJfRW5hYmxlADAARlhfVE9NMy9NdWx0aUZYMS9MaW1pdGVyX1RocmVzaG9sZAAwLjUARlhfVE9NMy9NdWx0aUZYMS9UYXBlX0Ftb3VudAAwLjUARlhfVE9NMy9NdWx0aUZYMS9UYXBlX0NvbG9yADAARlhfVE9NMy9NdWx0aUZYMS9UYXBlX0VuYWJsZQAwAEZYX1RPTTMvTXVsdGlGWDEvVHJhbnNpZW50X0F0dGFjawAwLjUARlhfVE9NMy9NdWx0aUZYMS9UcmFuc2llbnRfRGVjYXkAMC41AEZYX1RPTTMvTXVsdGlGWDEvVHJhbnNpZW50X0VuYWJsZQAwAEZYX1RPTTMvTXVsdGlGWDIvQ29tcF9BdHRhY2sAMC4yMDAwMDAwMDMARlhfVE9NMy9NdWx0aUZYMi9Db21wX0VuYWJsZQAwAEZYX1RPTTMvTXVsdGlGWDIvQ29tcF9SYXRpbwAwLjUARlhfVE9NMy9NdWx0aUZYMi9Db21wX1JlbGVhc2UAMC4yMDAwMDAwMDMARlhfVE9NMy9NdWx0aUZYMi9Db21wX1RocmVzaG9sZAAwLjUARlhfVE9NMy9NdWx0aUZYMi9DdXJyZW50U2VsZWN0aW9uAE1hc3RlcgBGWF9UT00zL011bHRpRlgyL0Rpc3RfQW1vdW50ADAuNQBGWF9UT00zL011bHRpRlgyL0Rpc3RfRW5hYmxlADAARlhfVE9NMy9NdWx0aUZYMi9EaXN0X0ZyZXFIaQAxAEZYX1RPTTMvTXVsdGlGWDIvRGlzdF9GcmVxTG8AMABGWF9UT00zL011bHRpRlgyL0Rpc3RfTWl4ADAuNQBGWF9UT00zL011bHRpRlgyL0Rpc3RfVHlwZQA1AEZYX1RPTTMvTXVsdGlGWDIvRW5hYmxlADAARlhfVE9NMy9NdWx0aUZYMi9MaW1pdGVyX0VuYWJsZQAwAEZYX1RPTTMvTXVsdGlGWDIvTGltaXRlcl9UaHJlc2hvbGQAMC41AEZYX1RPTTMvTXVsdGlGWDIvVGFwZV9BbW91bnQAMC41AEZYX1RPTTMvTXVsdGlGWDIvVGFwZV9Db2xvcgAwAEZYX1RPTTMvTXVsdGlGWDIvVGFwZV9FbmFibGUAMABGWF9UT00zL011bHRpRlgyL1RyYW5zaWVudF9BdHRhY2sAMC41AEZYX1RPTTMvTXVsdGlGWDIvVHJhbnNpZW50X0RlY2F5ADAuNQBGWF9UT00zL011bHRpRlgyL1RyYW5zaWVudF9FbmFibGUAMABGWF9UT00zL05vaXNlX0RlY2F5VGltZQAwLjUARlhfVE9NMy9Ob2lzZV9FbmFibGUAMABGWF9UT00zL05vaXNlX0dhdGVMZXZlbAAwLjQ0OTk5OTk4OABGWF9UT00zL05vaXNlX05vaXNlTGV2ZWwAMC41AEZYX1RPTTMvTm9pc2VfTm9pc2VUeXBlADAARlhfVE9NMy9PdXRMZXZlbAAwLjY0Njc0MjcwMgBGWF9UT00zL1Bhbl9QYW4AMC41AEZYX1RPTTMvU2VuZDFMZXZlbAAwAEZYX1RPTTMvU2VuZDJMZXZlbAAwAEZYX1RPTTMvU2VuZEJ1c0xldmVsADAARlhfVE9NMy9TZW5kc19FbmFibGUAMABGWF9UT00zL1NlbmRzX0VuYWJsZV9JbnRlcm5hbAAwAEZYX1RPTTMvU2VwYXJhdGVPdXQAMABGWF9UT00zL1NlcGFyYXRlT3V0TW9kZQAxAEZYX1RPTTMvU2VwYXJhdGVPdXRNdXRlTWFzdGVyADAARlhfVE9NMy9TZXBhcmF0ZU91dFBvc3RGYWRlcgAwAEZYX1RPTTQvRVFfQ3V0SGlGcmVxADEARlhfVE9NNC9FUV9DdXRIaVEAMC41AEZYX1RPTTQvRVFfQ3V0TG9GcmVxADAARlhfVE9NNC9FUV9DdXRMb1EAMC41AEZYX1RPTTQvRVFfRW5hYmxlADAARlhfVE9NNC9FUV9IaTJGcmVxADAuODAwMDAwMDEyAEZYX1RPTTQvRVFfSGkyR2FpbgAwLjUARlhfVE9NNC9FUV9IaTJRADAuNjk5OTk5OTg4AEZYX1RPTTQvRVFfSGlGcmVxADAuODk5NjU2NjUzAEZYX1RPTTQvRVFfSGlHYWluADAuNQBGWF9UT000L0VRX0hpUQAwLjMyNTI1NzUxAEZYX1RPTTQvRVFfTG9GcmVxADAuMjMyOTg5OTk3AEZYX1RPTTQvRVFfTG9HYWluADAuNQBGWF9UT000L0VRX0xvUQAwLjMyNTI1NzUxAEZYX1RPTTQvRVFfTWlkRnJlcQAwLjU2NjMyMzM0AEZYX1RPTTQvRVFfTWlkR2FpbgAwLjUARlhfVE9NNC9FUV9NaWRRADAuMzI1MjU3NTEARlhfVE9NNC9FbmFibGUAMQBGWF9UT000L0VuYWJsZUZYADEARlhfVE9NNC9HVUlNdXRlADAARlhfVE9NNC9HVUlTb2xvADAARlhfVE9NNC9JbnZlcnQAMABGWF9UT000L0xldmVsADAuNzU3OTgyMzE0AEZYX1RPTTQvTXVsdGlGWDEvQ29tcF9BdHRhY2sAMABGWF9UT000L011bHRpRlgxL0NvbXBfRW5hYmxlADAARlhfVE9NNC9NdWx0aUZYMS9Db21wX1JhdGlvADAARlhfVE9NNC9NdWx0aUZYMS9Db21wX1JlbGVhc2UAMABGWF9UT000L011bHRpRlgxL0NvbXBfVGhyZXNob2xkADEARlhfVE9NNC9NdWx0aUZYMS9DdXJyZW50U2VsZWN0aW9uAENvbXAARlhfVE9NNC9NdWx0aUZYMS9EaXN0X0Ftb3VudAAwAEZYX1RPTTQvTXVsdGlGWDEvRGlzdF9FbmFibGUAMABGWF9UT000L011bHRpRlgxL0Rpc3RfRnJlcUhpADEARlhfVE9NNC9NdWx0aUZYMS9EaXN0X0ZyZXFMbwAwAEZYX1RPTTQvTXVsdGlGWDEvRGlzdF9NaXgAMQBGWF9UT000L011bHRpRlgxL0Rpc3RfVHlwZQAwAEZYX1RPTTQvTXVsdGlGWDEvRW5hYmxlADAARlhfVE9NNC9NdWx0aUZYMS9MaW1pdGVyX0VuYWJsZQAwAEZYX1RPTTQvTXVsdGlGWDEvTGltaXRlcl9UaHJlc2hvbGQAMC41AEZYX1RPTTQvTXVsdGlGWDEvVGFwZV9BbW91bnQAMC41AEZYX1RPTTQvTXVsdGlGWDEvVGFwZV9Db2xvcgAwAEZYX1RPTTQvTXVsdGlGWDEvVGFwZV9FbmFibGUAMABGWF9UT000L011bHRpRlgxL1RyYW5zaWVudF9BdHRhY2sAMC41AEZYX1RPTTQvTXVsdGlGWDEvVHJhbnNpZW50X0RlY2F5ADAuNQBGWF9UT000L011bHRpRlgxL1RyYW5zaWVudF9FbmFibGUAMABGWF9UT000L011bHRpRlgyL0NvbXBfQXR0YWNrADAuMjAwMDAwMDAzAEZYX1RPTTQvTXVsdGlGWDIvQ29tcF9FbmFibGUAMABGWF9UT000L011bHRpRlgyL0NvbXBfUmF0aW8AMC41AEZYX1RPTTQvTXVsdGlGWDIvQ29tcF9SZWxlYXNlADAuMjAwMDAwMDAzAEZYX1RPTTQvTXVsdGlGWDIvQ29tcF9UaHJlc2hvbGQAMC41AEZYX1RPTTQvTXVsdGlGWDIvQ3VycmVudFNlbGVjdGlvbgBNYXN0ZXIARlhfVE9NNC9NdWx0aUZYMi9EaXN0X0Ftb3VudAAwLjUARlhfVE9NNC9NdWx0aUZYMi9EaXN0X0VuYWJsZQAwAEZYX1RPTTQvTXVsdGlGWDIvRGlzdF9GcmVxSGkAMQBGWF9UT000L011bHRpRlgyL0Rpc3RfRnJlcUxvADAARlhfVE9NNC9NdWx0aUZYMi9EaXN0X01peAAwLjUARlhfVE9NNC9NdWx0aUZYMi9EaXN0X1R5cGUANQBGWF9UT000L011bHRpRlgyL0VuYWJsZQAwAEZYX1RPTTQvTXVsdGlGWDIvTGltaXRlcl9FbmFibGUAMABGWF9UT000L011bHRpRlgyL0xpbWl0ZXJfVGhyZXNob2xkADAuNQBGWF9UT000L011bHRpRlgyL1RhcGVfQW1vdW50ADAuNQBGWF9UT000L011bHRpRlgyL1RhcGVfQ29sb3IAMABGWF9UT000L011bHRpRlgyL1RhcGVfRW5hYmxlADAARlhfVE9NNC9NdWx0aUZYMi9UcmFuc2llbnRfQXR0YWNrADAuNQBGWF9UT000L011bHRpRlgyL1RyYW5zaWVudF9EZWNheQAwLjUARlhfVE9NNC9NdWx0aUZYMi9UcmFuc2llbnRfRW5hYmxlADAARlhfVE9NNC9Ob2lzZV9EZWNheVRpbWUAMC41AEZYX1RPTTQvTm9pc2VfRW5hYmxlADAARlhfVE9NNC9Ob2lzZV9HYXRlTGV2ZWwAMC40NDk5OTk5ODgARlhfVE9NNC9Ob2lzZV9Ob2lzZUxldmVsADAuNQBGWF9UT000L05vaXNlX05vaXNlVHlwZQAwAEZYX1RPTTQvT3V0TGV2ZWwAMC42NDY3NDI3MDIARlhfVE9NNC9QYW5fUGFuADAuNQBGWF9UT000L1NlbmQxTGV2ZWwAMABGWF9UT000L1NlbmQyTGV2ZWwAMABGWF9UT000L1NlbmRCdXNMZXZlbAAwAEZYX1RPTTQvU2VuZHNfRW5hYmxlADAARlhfVE9NNC9TZW5kc19FbmFibGVfSW50ZXJuYWwAMABGWF9UT000L1NlcGFyYXRlT3V0ADAARlhfVE9NNC9TZXBhcmF0ZU91dE1vZGUAMQBGWF9UT000L1NlcGFyYXRlT3V0TXV0ZU1hc3RlcgAwAEZYX1RPTTQvU2VwYXJhdGVPdXRQb3N0RmFkZXIAMABHU1lTX1VJU2V0dGluZ3NfR1VJWm9vbQAxAEdhbGxlcnlQYWdlADEAR2FsbGVyeVNob3dBbGxFeHBsb3JlTWFwcwAwAEdsb2JhbFZlbG9jaXR5UmVzcG9uc2UAMC41AEdsb2JhbFZlbG9jaXR5UmVzcG9uc2VNYXgAMQBHbG9iYWxWZWxvY2l0eVJlc3BvbnNlTWluADAASG9zdE1hcmtGaXJzdEJlYXQAMABLUFNTZWxlY3Rpb24ARkxYMwBMYXllcjEvQmVhdHNfU2Vzc2lvbl9GYXZvcml0ZXNfTGlzdAB7fQBMYXllcjEvQmVhdHNfVHJhbnNmb3JtX0FjY2VudHMxNnRoADAuNQBMYXllcjEvQmVhdHNfVHJhbnNmb3JtX0FjY2VudHM4dGgAMC41AExheWVyMS9CZWF0c19UcmFuc2Zvcm1fQWNjZW50c0VuYWJsZQAxAExheWVyMS9CZWF0c19UcmFuc2Zvcm1fQ29udmVydExlbmd0aAAwAExheWVyMS9CZWF0c19UcmFuc2Zvcm1fQ29udmVydFNwZWVkADAuNQBMYXllcjEvQmVhdHNfVHJhbnNmb3JtX0VuYWJsZQAxAExheWVyMS9CZWF0c19UcmFuc2Zvcm1fRmlsdGVyRW5hYmxlADAATGF5ZXIxL0JlYXRzX1RyYW5zZm9ybV9GaWx0ZXJIaQAxAExheWVyMS9CZWF0c19UcmFuc2Zvcm1fRmlsdGVyTG8AMABMYXllcjEvQmVhdHNfVHJhbnNmb3JtX0ludGVuc2l0eUFtb3VudAAwLjUATGF5ZXIxL0JlYXRzX1RyYW5zZm9ybV9JbnRlbnNpdHlFbmFibGUAMQBMYXllcjEvQmVhdHNfVHJhbnNmb3JtX0ludGVuc2l0eUhpADAuNzUATGF5ZXIxL0JlYXRzX1RyYW5zZm9ybV9JbnRlbnNpdHlMbwAwLjI1AExheWVyMS9CZWF0c19UcmFuc2Zvcm1fS3BDdHJsc01peGVyQ3lBbXQAMC41AExheWVyMS9CZWF0c19UcmFuc2Zvcm1fS3BDdHJsc01peGVyQ3lNdXRlADAATGF5ZXIxL0JlYXRzX1RyYW5zZm9ybV9LcEN0cmxzTWl4ZXJDeVNvbG8AMABMYXllcjEvQmVhdHNfVHJhbnNmb3JtX0twQ3RybHNNaXhlckN5VHJhbnMAMABMYXllcjEvQmVhdHNfVHJhbnNmb3JtX0twQ3RybHNNaXhlckVuYWJsZQAxAExheWVyMS9CZWF0c19UcmFuc2Zvcm1fS3BDdHJsc01peGVySGlBbXQAMC41AExheWVyMS9CZWF0c19UcmFuc2Zvcm1fS3BDdHJsc01peGVySGlNdXRlADAATGF5ZXIxL0JlYXRzX1RyYW5zZm9ybV9LcEN0cmxzTWl4ZXJIaVNvbG8AMABMYXllcjEvQmVhdHNfVHJhbnNmb3JtX0twQ3RybHNNaXhlckhpVHJhbnMAMABMYXllcjEvQmVhdHNfVHJhbnNmb3JtX0twQ3RybHNNaXhlcktpQW10ADAuNQBMYXllcjEvQmVhdHNfVHJhbnNmb3JtX0twQ3RybHNNaXhlcktpTXV0ZQAwAExheWVyMS9CZWF0c19UcmFuc2Zvcm1fS3BDdHJsc01peGVyS2lTb2xvADAATGF5ZXIxL0JlYXRzX1RyYW5zZm9ybV9LcEN0cmxzTWl4ZXJLaVRyYW5zADAATGF5ZXIxL0JlYXRzX1RyYW5zZm9ybV9LcEN0cmxzTWl4ZXJSaUFtdAAwLjUATGF5ZXIxL0JlYXRzX1RyYW5zZm9ybV9LcEN0cmxzTWl4ZXJSaUN2dAAtAExheWVyMS9CZWF0c19UcmFuc2Zvcm1fS3BDdHJsc01peGVyUmlNdXRlADAATGF5ZXIxL0JlYXRzX1RyYW5zZm9ybV9LcEN0cmxzTWl4ZXJSaVNvbG8AMABMYXllcjEvQmVhdHNfVHJhbnNmb3JtX0twQ3RybHNNaXhlclJpVHJhbnMAMABMYXllcjEvQmVhdHNfVHJhbnNmb3JtX0twQ3RybHNNaXhlclNuQW10ADAuNQBMYXllcjEvQmVhdHNfVHJhbnNmb3JtX0twQ3RybHNNaXhlclNuQ3Z0AC0ATGF5ZXIxL0JlYXRzX1RyYW5zZm9ybV9LcEN0cmxzTWl4ZXJTbk11dGUAMABMYXllcjEvQmVhdHNfVHJhbnNmb3JtX0twQ3RybHNNaXhlclNuU29sbwAwAExheWVyMS9CZWF0c19UcmFuc2Zvcm1fS3BDdHJsc01peGVyU25UcmFucwAwAExheWVyMS9CZWF0c19UcmFuc2Zvcm1fS3BDdHJsc01peGVyVG9BbXQAMC41AExheWVyMS9CZWF0c19UcmFuc2Zvcm1fS3BDdHJsc01peGVyVG9NdXRlADAATGF5ZXIxL0JlYXRzX1RyYW5zZm9ybV9LcEN0cmxzTWl4ZXJUb1NvbG8AMABMYXllcjEvQmVhdHNfVHJhbnNmb3JtX0twQ3RybHNNaXhlclRvVHJhbnMAMABMYXllcjEvQmVhdHNfVHJhbnNmb3JtX1F1YW50aXplQW1vdW50ADAuNQBMYXllcjEvQmVhdHNfVHJhbnNmb3JtX1F1YW50aXplRW5hYmxlADAATGF5ZXIxL0JlYXRzX1RyYW5zZm9ybV9RdWFudGl6ZVRpbWUAQXV0bwBMYXllcjEvQmVhdHNfVHJhbnNmb3JtX1Nsb3BweUVuYWJsZQAxAExheWVyMS9CZWF0c19UcmFuc2Zvcm1fU2xvcHB5U2VlZAAwAExheWVyMS9CZWF0c19UcmFuc2Zvcm1fU2xvcHB5VGltaW5nADAATGF5ZXIxL0JlYXRzX1RyYW5zZm9ybV9TbG9wcHlWZWxvY2l0eQAwAExheWVyMS9CZWF0c19UcmFuc2Zvcm1fU3dpbmdBbW91bnQAMC41AExheWVyMS9CZWF0c19UcmFuc2Zvcm1fU3dpbmdFbmFibGUAMABMYXllcjEvQmVhdHNfV2FudGVkX0dyaWRLS1ZlbDAAMQBMYXllcjEvQmVhdHNfV2FudGVkX0dyaWRLS1ZlbDEAMABMYXllcjEvQmVhdHNfV2FudGVkX0dyaWRLS1ZlbDIAMABMYXllcjEvQmVhdHNfV2FudGVkX0dyaWRLS1ZlbDMAMABMYXllcjEvQmVhdHNfV2FudGVkX0dyaWRLS1ZlbDQAMABMYXllcjEvQmVhdHNfV2FudGVkX0dyaWRLS1ZlbDUAMABMYXllcjEvQmVhdHNfV2FudGVkX0dyaWRLS1ZlbDYAMABMYXllcjEvQmVhdHNfV2FudGVkX0dyaWRLS1ZlbDcAMABMYXllcjEvQmVhdHNfV2FudGVkX0dyaWRLS1ZlbDgAMQBMYXllcjEvQmVhdHNfV2FudGVkX0dyaWRLS1ZlbDkAMABMYXllcjEvQmVhdHNfV2FudGVkX0dyaWRLS1ZlbEEAMABMYXllcjEvQmVhdHNfV2FudGVkX0dyaWRLS1ZlbEIAMABMYXllcjEvQmVhdHNfV2FudGVkX0dyaWRLS1ZlbEMAMABMYXllcjEvQmVhdHNfV2FudGVkX0dyaWRLS1ZlbEQAMABMYXllcjEvQmVhdHNfV2FudGVkX0dyaWRLS1ZlbEUAMABMYXllcjEvQmVhdHNfV2FudGVkX0dyaWRLS1ZlbEYAMABMYXllcjEvQmVhdHNfV2FudGVkX0dyaWRTTlZlbDAAMABMYXllcjEvQmVhdHNfV2FudGVkX0dyaWRTTlZlbDEAMABMYXllcjEvQmVhdHNfV2FudGVkX0dyaWRTTlZlbDIAMABMYXllcjEvQmVhdHNfV2FudGVkX0dyaWRTTlZlbDMAMABMYXllcjEvQmVhdHNfV2FudGVkX0dyaWRTTlZlbDQAMQBMYXllcjEvQmVhdHNfV2FudGVkX0dyaWRTTlZlbDUAMABMYXllcjEvQmVhdHNfV2FudGVkX0dyaWRTTlZlbDYAMABMYXllcjEvQmVhdHNfV2FudGVkX0dyaWRTTlZlbDcAMABMYXllcjEvQmVhdHNfV2FudGVkX0dyaWRTTlZlbDgAMABMYXllcjEvQmVhdHNfV2FudGVkX0dyaWRTTlZlbDkAMABMYXllcjEvQmVhdHNfV2FudGVkX0dyaWRTTlZlbEEAMABMYXllcjEvQmVhdHNfV2FudGVkX0dyaWRTTlZlbEIAMABMYXllcjEvQmVhdHNfV2FudGVkX0dyaWRTTlZlbEMAMQBMYXllcjEvQmVhdHNfV2FudGVkX0dyaWRTTlZlbEQAMABMYXllcjEvQmVhdHNfV2FudGVkX0dyaWRTTlZlbEUAMABMYXllcjEvQmVhdHNfV2FudGVkX0dyaWRTTlZlbEYAMABMYXllcjEvQnJvd3NlU2VsZWN0aW9uAEV4cGxvcmUATGF5ZXIxL0N1cnJlbnRQcmVzZXRJZABhcHBfX1JlZWwgTWFjaGluZXMgLSA4MHMgRE1YLkFEMlByZXNldABMYXllcjEvQ3VycmVudFByZXNldE5hbWUAUmVlbCBNYWNoaW5lcyAtIDgwcyBETVgATGF5ZXIxL1ByZXNldE1pZGkANEQ1NDY4NjQwMDAwMDAwNjAwMDAwMDAxMDFFMDRENTQ3MjZCMDAwMDAxMEEwMEZGMDMyNTRGNkM2NDIwNTM2MzY4NkY2RjZDMjA0NDRENTgyMDU2NjE3MjYxNzQ2OTZGNkUyMDMyMjAzODc0NjgzRTQ4Njk3MDIwNDg2RjcwMDBGRjUxMDMwN0ExMjAwMEZGNTgwNDA0MDIxODA4MDA5MDMxNTMwMDI0NzgzQzgwMjQ3ODAwMzE1MzgxMzQ5MDMxNTgzQzgwMzE1ODgxMzQ5MDMxNEMwMDI2N0YzQzgwMjY3RjAwMzE0QzgxMzQ5MDMxNTAzQzgwMzE1MDgxMzQ5MDMxNDUzQzgwMzE0NTgxMzQ5MDI0NzYwMDMxNEEzQzgwMzE0QTAwMjQ3NjgxMzQ5MDI2N0YwMDMxNDIzQzgwMzE0MjAwMjY3RjQ0OTAyNDc5M0M4MDI0NzkzNDkwMzE0MjNDODAzMTQyODEzNDkwMjQ3ODAwMzE1MzNDODAyNDc4MDAzMTUzODEzNDkwMzE1ODNDODAzMTU4ODEzNDkwMjY3RjAwMzE0QzNDODAyNjdGMDAzMTRDODEzNDkwMzE1MDNDODAzMTUwODEzNDkwMzE0NTNDODAzMTQ1ODEzNDkwMjQ3NjAwMzE0QTNDODAzMTRBMDAyNDc2ODEzNDkwMjY3RjAwMzE0MjNDODAzMTQyMDAyNjdGNDQ5MDI0NzkzQzgwMjQ3OTM0OTAzMTQyM0M4MDMxNDI4MTM0RkYyRjAwAExheWVyMS9QcmVzZXRTYXZlRGVtbwAATGF5ZXIxL1ByZXNldFNhdmVJbmZvAABMYXllcjEvUHJlc2V0U2F2ZU5hbWUAUmVlbCBNYWNoaW5lcyAtIDgwcyBETVgATGF5ZXIxL1ZpZXdTZWxlY3Rpb24ARWRpdABMaW5rRGIAeyBLSUNLID0geyAgfSwgU05BUiA9IHsgDQogeyBpc1NuYXJlU3luYyA9IGZhbHNlLCBub3RlID0gMTAxLCBzbmFyZVN5bmNUeXBlID0gIiIsIHN0cm9rZVR5cGVJZCA9IDc3LCBzdHJva2VUeXBlTmFtZSA9ICJIaXQgQSIsIHRvU2xvdCA9ICJGTFgzIiB9IH0gfQBNaWRpRmlsdGVyTWFwX01BUF9DQ0hpaGF0X0NoaWNrU2Vuc2l0aXZpdHkAMABNaWRpRmlsdGVyTWFwX01BUF9DQ0hpaGF0X1BlZGFsQ29udHJvbGxlck51bWJlcgA0AE1pZGlGaWx0ZXJNYXBfTUFQX0NDSGloYXRfUGVkYWxDb250cm9sbGVyTnVtYmVyMgAxAE1pZGlGaWx0ZXJNYXBfTUFQX0NDSGloYXRfUmV2ZXJzZUlucHV0ADAATWlkaUZpbHRlck1hcF9NQVBfQ0NIaWhhdF9TcGxhc2hTZW5zaXRpdml0eQAwAE1pZGlGaWx0ZXJNYXBfTUFQX0NDSGloYXRfVHJhbnNmb3JtWDEAMC4yNQBNaWRpRmlsdGVyTWFwX01BUF9DQ0hpaGF0X1RyYW5zZm9ybVgyADAuNQBNaWRpRmlsdGVyTWFwX01BUF9DQ0hpaGF0X1RyYW5zZm9ybVgzADAuNjI1AE1pZGlGaWx0ZXJNYXBfTUFQX0NDSGloYXRfVHJhbnNmb3JtWDQAMC43NQBNaWRpRmlsdGVyTWFwX01BUF9DQ0hpaGF0X1RyYW5zZm9ybVg1ADAuODc1AE1pZGlGaWx0ZXJNYXBfTUFQX0NDSGloYXRfVHJhbnNmb3JtWTEAMC4yNQBNaWRpRmlsdGVyTWFwX01BUF9DQ0hpaGF0X1RyYW5zZm9ybVkyADAuNQBNaWRpRmlsdGVyTWFwX01BUF9DQ0hpaGF0X1RyYW5zZm9ybVkzADAuNjI1AE1pZGlGaWx0ZXJNYXBfTUFQX0NDSGloYXRfVHJhbnNmb3JtWTQAMC43NQBNaWRpRmlsdGVyTWFwX01BUF9DQ0hpaGF0X1RyYW5zZm9ybVk1ADAuODc1AE1pZGlGaWx0ZXJNYXBfTUFQX0Nob2tlU3R5bGVfQ3ltMQAxAE1pZGlGaWx0ZXJNYXBfTUFQX0Nob2tlU3R5bGVfQ3ltMgAxAE1pZGlGaWx0ZXJNYXBfTUFQX0Nob2tlU3R5bGVfQ3ltMwAxAE1pZGlGaWx0ZXJNYXBfTUFQX0Nob2tlU3R5bGVfQ3ltNAAxAE1pZGlGaWx0ZXJNYXBfTUFQX0Nob2tlU3R5bGVfQ3ltNQAxAE1pZGlGaWx0ZXJNYXBfTUFQX0Nob2tlU3R5bGVfQ3ltNgAxAE1pZGlGaWx0ZXJNYXBfTUFQX0Nob2tlU3R5bGVfUmlkZTEAMQBNaWRpRmlsdGVyTWFwX01BUF9DaG9rZVN0eWxlX1JpZGUyADEATWlkaUZpbHRlck1hcF9NQVBfR2xvYmFsX1ZlbF9IaQAxAE1pZGlGaWx0ZXJNYXBfTUFQX0dsb2JhbF9WZWxfTG8AMABNaWRpRmlsdGVyTWFwX01BUF9LUFMwMV9UcmFuc2Zvcm1YMQAwLjI1AE1pZGlGaWx0ZXJNYXBfTUFQX0tQUzAxX1RyYW5zZm9ybVgyADAuNzUATWlkaUZpbHRlck1hcF9NQVBfS1BTMDFfVHJhbnNmb3JtWTEAMC4yNQBNaWRpRmlsdGVyTWFwX01BUF9LUFMwMV9UcmFuc2Zvcm1ZMgAwLjc1AE1pZGlGaWx0ZXJNYXBfTUFQX0tQUzAyX1RyYW5zZm9ybVgxADAuMjUATWlkaUZpbHRlck1hcF9NQVBfS1BTMDJfVHJhbnNmb3JtWDIAMC43NQBNaWRpRmlsdGVyTWFwX01BUF9LUFMwMl9UcmFuc2Zvcm1ZMQAwLjI1AE1pZGlGaWx0ZXJNYXBfTUFQX0tQUzAyX1RyYW5zZm9ybVkyADAuNzUATWlkaUZpbHRlck1hcF9NQVBfS1BTMDNfVHJhbnNmb3JtWDEAMC4yNQBNaWRpRmlsdGVyTWFwX01BUF9LUFMwM19UcmFuc2Zvcm1YMgAwLjc1AE1pZGlGaWx0ZXJNYXBfTUFQX0tQUzAzX1RyYW5zZm9ybVkxADAuMjUATWlkaUZpbHRlck1hcF9NQVBfS1BTMDNfVHJhbnNmb3JtWTIAMC43NQBNaWRpRmlsdGVyTWFwX01BUF9LUFMwNF9UcmFuc2Zvcm1YMQAwLjI1AE1pZGlGaWx0ZXJNYXBfTUFQX0tQUzA0X1RyYW5zZm9ybVgyADAuNzUATWlkaUZpbHRlck1hcF9NQVBfS1BTMDRfVHJhbnNmb3JtWTEAMC4yNQBNaWRpRmlsdGVyTWFwX01BUF9LUFMwNF9UcmFuc2Zvcm1ZMgAwLjc1AE1pZGlGaWx0ZXJNYXBfTUFQX0tQUzA1X1RyYW5zZm9ybVgxADAuMjUATWlkaUZpbHRlck1hcF9NQVBfS1BTMDVfVHJhbnNmb3JtWDIAMC43NQBNaWRpRmlsdGVyTWFwX01BUF9LUFMwNV9UcmFuc2Zvcm1ZMQAwLjI1AE1pZGlGaWx0ZXJNYXBfTUFQX0tQUzA1X1RyYW5zZm9ybVkyADAuNzUATWlkaUZpbHRlck1hcF9NQVBfS1BTMDZfVHJhbnNmb3JtWDEAMC4yNQBNaWRpRmlsdGVyTWFwX01BUF9LUFMwNl9UcmFuc2Zvcm1YMgAwLjc1AE1pZGlGaWx0ZXJNYXBfTUFQX0tQUzA2X1RyYW5zZm9ybVkxADAuMjUATWlkaUZpbHRlck1hcF9NQVBfS1BTMDZfVHJhbnNmb3JtWTIAMC43NQBNaWRpRmlsdGVyTWFwX01BUF9LUFMwN19UcmFuc2Zvcm1YMQAwLjI1AE1pZGlGaWx0ZXJNYXBfTUFQX0tQUzA3X1RyYW5zZm9ybVgyADAuNzUATWlkaUZpbHRlck1hcF9NQVBfS1BTMDdfVHJhbnNmb3JtWTEAMC4yNQBNaWRpRmlsdGVyTWFwX01BUF9LUFMwN19UcmFuc2Zvcm1ZMgAwLjc1AE1pZGlGaWx0ZXJNYXBfTUFQX0tQUzA4X1RyYW5zZm9ybVgxADAuMjUATWlkaUZpbHRlck1hcF9NQVBfS1BTMDhfVHJhbnNmb3JtWDIAMC43NQBNaWRpRmlsdGVyTWFwX01BUF9LUFMwOF9UcmFuc2Zvcm1ZMQAwLjI1AE1pZGlGaWx0ZXJNYXBfTUFQX0tQUzA4X1RyYW5zZm9ybVkyADAuNzUATWlkaUZpbHRlck1hcF9NQVBfS1BTMDlfVHJhbnNmb3JtWDEAMC4yNQBNaWRpRmlsdGVyTWFwX01BUF9LUFMwOV9UcmFuc2Zvcm1YMgAwLjc1AE1pZGlGaWx0ZXJNYXBfTUFQX0tQUzA5X1RyYW5zZm9ybVkxADAuMjUATWlkaUZpbHRlck1hcF9NQVBfS1BTMDlfVHJhbnNmb3JtWTIAMC43NQBNaWRpRmlsdGVyTWFwX01BUF9LUFMxMF9UcmFuc2Zvcm1YMQAwLjI1AE1pZGlGaWx0ZXJNYXBfTUFQX0tQUzEwX1RyYW5zZm9ybVgyADAuNzUATWlkaUZpbHRlck1hcF9NQVBfS1BTMTBfVHJhbnNmb3JtWTEAMC4yNQBNaWRpRmlsdGVyTWFwX01BUF9LUFMxMF9UcmFuc2Zvcm1ZMgAwLjc1AE1pZGlGaWx0ZXJNYXBfTUFQX0tQUzExX1RyYW5zZm9ybVgxADAuMjUATWlkaUZpbHRlck1hcF9NQVBfS1BTMTFfVHJhbnNmb3JtWDIAMC43NQBNaWRpRmlsdGVyTWFwX01BUF9LUFMxMV9UcmFuc2Zvcm1ZMQAwLjI1AE1pZGlGaWx0ZXJNYXBfTUFQX0tQUzExX1RyYW5zZm9ybVkyADAuNzUATWlkaUZpbHRlck1hcF9NQVBfS1BTMTJfVHJhbnNmb3JtWDEAMC4yNQBNaWRpRmlsdGVyTWFwX01BUF9LUFMxMl9UcmFuc2Zvcm1YMgAwLjc1AE1pZGlGaWx0ZXJNYXBfTUFQX0tQUzEyX1RyYW5zZm9ybVkxADAuMjUATWlkaUZpbHRlck1hcF9NQVBfS1BTMTJfVHJhbnNmb3JtWTIAMC43NQBNaWRpRmlsdGVyTWFwX01BUF9LUFMxM19UcmFuc2Zvcm1YMQAwLjI1AE1pZGlGaWx0ZXJNYXBfTUFQX0tQUzEzX1RyYW5zZm9ybVgyADAuNzUATWlkaUZpbHRlck1hcF9NQVBfS1BTMTNfVHJhbnNmb3JtWTEAMC4yNQBNaWRpRmlsdGVyTWFwX01BUF9LUFMxM19UcmFuc2Zvcm1ZMgAwLjc1AE1pZGlGaWx0ZXJNYXBfTUFQX0tQUzE0X1RyYW5zZm9ybVgxADAuMjUATWlkaUZpbHRlck1hcF9NQVBfS1BTMTRfVHJhbnNmb3JtWDIAMC43NQBNaWRpRmlsdGVyTWFwX01BUF9LUFMxNF9UcmFuc2Zvcm1ZMQAwLjI1AE1pZGlGaWx0ZXJNYXBfTUFQX0tQUzE0X1RyYW5zZm9ybVkyADAuNzUATWlkaUZpbHRlck1hcF9NQVBfS1BTMTVfVHJhbnNmb3JtWDEAMC4yNQBNaWRpRmlsdGVyTWFwX01BUF9LUFMxNV9UcmFuc2Zvcm1YMgAwLjc1AE1pZGlGaWx0ZXJNYXBfTUFQX0tQUzE1X1RyYW5zZm9ybVkxADAuMjUATWlkaUZpbHRlck1hcF9NQVBfS1BTMTVfVHJhbnNmb3JtWTIAMC43NQBNaWRpRmlsdGVyTWFwX01BUF9LUFMxNl9UcmFuc2Zvcm1YMQAwLjI1AE1pZGlGaWx0ZXJNYXBfTUFQX0tQUzE2X1RyYW5zZm9ybVgyADAuNzUATWlkaUZpbHRlck1hcF9NQVBfS1BTMTZfVHJhbnNmb3JtWTEAMC4yNQBNaWRpRmlsdGVyTWFwX01BUF9LUFMxNl9UcmFuc2Zvcm1ZMgAwLjc1AE1pZGlGaWx0ZXJNYXBfTUFQX0tQUzE3X1RyYW5zZm9ybVgxADAuMjUATWlkaUZpbHRlck1hcF9NQVBfS1BTMTdfVHJhbnNmb3JtWDIAMC43NQBNaWRpRmlsdGVyTWFwX01BUF9LUFMxN19UcmFuc2Zvcm1ZMQAwLjI1AE1pZGlGaWx0ZXJNYXBfTUFQX0tQUzE3X1RyYW5zZm9ybVkyADAuNzUATWlkaUZpbHRlck1hcF9NQVBfS1BTMThfVHJhbnNmb3JtWDEAMC4yNQBNaWRpRmlsdGVyTWFwX01BUF9LUFMxOF9UcmFuc2Zvcm1YMgAwLjc1AE1pZGlGaWx0ZXJNYXBfTUFQX0tQUzE4X1RyYW5zZm9ybVkxADAuMjUATWlkaUZpbHRlck1hcF9NQVBfS1BTMThfVHJhbnNmb3JtWTIAMC43NQBNaWRpRmlsdGVyTWFwX01BUF9LZXlNYXBfMDAwADAATWlkaUZpbHRlck1hcF9NQVBfS2V5TWFwXzAwMQAwAE1pZGlGaWx0ZXJNYXBfTUFQX0tleU1hcF8wMDIAMABNaWRpRmlsdGVyTWFwX01BUF9LZXlNYXBfMDAzADY2AE1pZGlGaWx0ZXJNYXBfTUFQX0tleU1hcF8wMDQANDQATWlkaUZpbHRlck1hcF9NQVBfS2V5TWFwXzAwNQA0MwBNaWRpRmlsdGVyTWFwX01BUF9LZXlNYXBfMDA2ADQyAE1pZGlGaWx0ZXJNYXBfTUFQX0tleU1hcF8wMDcANDcATWlkaUZpbHRlck1hcF9NQVBfS2V5TWFwXzAwOAA0OABNaWRpRmlsdGVyTWFwX01BUF9LZXlNYXBfMDA5ADQ2AE1pZGlGaWx0ZXJNYXBfTUFQX0tleU1hcF8wMTAAMABNaWRpRmlsdGVyTWFwX01BUF9LZXlNYXBfMDExADAATWlkaUZpbHRlck1hcF9NQVBfS2V5TWFwXzAxMgAwAE1pZGlGaWx0ZXJNYXBfTUFQX0tleU1hcF8wMTMAMABNaWRpRmlsdGVyTWFwX01BUF9LZXlNYXBfMDE0ADAATWlkaUZpbHRlck1hcF9NQVBfS2V5TWFwXzAxNQAwAE1pZGlGaWx0ZXJNYXBfTUFQX0tleU1hcF8wMTYAMABNaWRpRmlsdGVyTWFwX01BUF9LZXlNYXBfMDE3ADAATWlkaUZpbHRlck1hcF9NQVBfS2V5TWFwXzAxOAAwAE1pZGlGaWx0ZXJNYXBfTUFQX0tleU1hcF8wMTkAMABNaWRpRmlsdGVyTWFwX01BUF9LZXlNYXBfMDIwADAATWlkaUZpbHRlck1hcF9NQVBfS2V5TWFwXzAyMQAwAE1pZGlGaWx0ZXJNYXBfTUFQX0tleU1hcF8wMjIAMABNaWRpRmlsdGVyTWFwX01BUF9LZXlNYXBfMDIzADAATWlkaUZpbHRlck1hcF9NQVBfS2V5TWFwXzAyNAAwAE1pZGlGaWx0ZXJNYXBfTUFQX0tleU1hcF8wMjUAMABNaWRpRmlsdGVyTWFwX01BUF9LZXlNYXBfMDI2ADU4AE1pZGlGaWx0ZXJNYXBfTUFQX0tleU1hcF8wMjcAMABNaWRpRmlsdGVyTWFwX01BUF9LZXlNYXBfMDI4ADU3AE1pZGlGaWx0ZXJNYXBfTUFQX0tleU1hcF8wMjkANTYATWlkaUZpbHRlck1hcF9NQVBfS2V5TWFwXzAzMAA1NQBNaWRpRmlsdGVyTWFwX01BUF9LZXlNYXBfMDMxADU0AE1pZGlGaWx0ZXJNYXBfTUFQX0tleU1hcF8wMzIANTMATWlkaUZpbHRlck1hcF9NQVBfS2V5TWFwXzAzMwA1MgBNaWRpRmlsdGVyTWFwX01BUF9LZXlNYXBfMDM0ADUxAE1pZGlGaWx0ZXJNYXBfTUFQX0tleU1hcF8wMzUANTAATWlkaUZpbHRlck1hcF9NQVBfS2V5TWFwXzAzNgAxAE1pZGlGaWx0ZXJNYXBfTUFQX0tleU1hcF8wMzcAMgBNaWRpRmlsdGVyTWFwX01BUF9LZXlNYXBfMDM4ADMATWlkaUZpbHRlck1hcF9NQVBfS2V5TWFwXzAzOQA0MABNaWRpRmlsdGVyTWFwX01BUF9LZXlNYXBfMDQwADQxAE1pZGlGaWx0ZXJNYXBfTUFQX0tleU1hcF8wNDEANABNaWRpRmlsdGVyTWFwX01BUF9LZXlNYXBfMDQyADUATWlkaUZpbHRlck1hcF9NQVBfS2V5TWFwXzA0MwA2AE1pZGlGaWx0ZXJNYXBfTUFQX0tleU1hcF8wNDQANwBNaWRpRmlsdGVyTWFwX01BUF9LZXlNYXBfMDQ1ADIxAE1pZGlGaWx0ZXJNYXBfTUFQX0tleU1hcF8wNDYAMzQATWlkaUZpbHRlck1hcF9NQVBfS2V5TWFwXzA0NwA4AE1pZGlGaWx0ZXJNYXBfTUFQX0tleU1hcF8wNDgAOQBNaWRpRmlsdGVyTWFwX01BUF9LZXlNYXBfMDQ5ADEwAE1pZGlGaWx0ZXJNYXBfTUFQX0tleU1hcF8wNTAAMTEATWlkaUZpbHRlck1hcF9NQVBfS2V5TWFwXzA1MQAxMgBNaWRpRmlsdGVyTWFwX01BUF9LZXlNYXBfMDUyADEzAE1pZGlGaWx0ZXJNYXBfTUFQX0tleU1hcF8wNTMAMTQATWlkaUZpbHRlck1hcF9NQVBfS2V5TWFwXzA1NAAxNQBNaWRpRmlsdGVyTWFwX01BUF9LZXlNYXBfMDU1ADE2AE1pZGlGaWx0ZXJNYXBfTUFQX0tleU1hcF8wNTYAMTcATWlkaUZpbHRlck1hcF9NQVBfS2V5TWFwXzA1NwAxOABNaWRpRmlsdGVyTWFwX01BUF9LZXlNYXBfMDU4ADE5AE1pZGlGaWx0ZXJNYXBfTUFQX0tleU1hcF8wNTkAMjAATWlkaUZpbHRlck1hcF9NQVBfS2V5TWFwXzA2MAAyMQBNaWRpRmlsdGVyTWFwX01BUF9LZXlNYXBfMDYxADIyAE1pZGlGaWx0ZXJNYXBfTUFQX0tleU1hcF8wNjIAMjMATWlkaUZpbHRlck1hcF9NQVBfS2V5TWFwXzA2MwAyNABNaWRpRmlsdGVyTWFwX01BUF9LZXlNYXBfMDY0ADAATWlkaUZpbHRlck1hcF9NQVBfS2V5TWFwXzA2NQAyNQBNaWRpRmlsdGVyTWFwX01BUF9LZXlNYXBfMDY2ADI2AE1pZGlGaWx0ZXJNYXBfTUFQX0tleU1hcF8wNjcAMjcATWlkaUZpbHRlck1hcF9NQVBfS2V5TWFwXzA2OAAyOABNaWRpRmlsdGVyTWFwX01BUF9LZXlNYXBfMDY5ADI5AE1pZGlGaWx0ZXJNYXBfTUFQX0tleU1hcF8wNzAAMzAATWlkaUZpbHRlck1hcF9NQVBfS2V5TWFwXzA3MQAzMQBNaWRpRmlsdGVyTWFwX01BUF9LZXlNYXBfMDcyADMyAE1pZGlGaWx0ZXJNYXBfTUFQX0tleU1hcF8wNzMANTkATWlkaUZpbHRlck1hcF9NQVBfS2V5TWFwXzA3NAA2MABNaWRpRmlsdGVyTWFwX01BUF9LZXlNYXBfMDc1ADMzAE1pZGlGaWx0ZXJNYXBfTUFQX0tleU1hcF8wNzYANjEATWlkaUZpbHRlck1hcF9NQVBfS2V5TWFwXzA3NwAzNABNaWRpRmlsdGVyTWFwX01BUF9LZXlNYXBfMDc4ADM1AE1pZGlGaWx0ZXJNYXBfTUFQX0tleU1hcF8wNzkAMzYATWlkaUZpbHRlck1hcF9NQVBfS2V5TWFwXzA4MAAzNwBNaWRpRmlsdGVyTWFwX01BUF9LZXlNYXBfMDgxADM4AE1pZGlGaWx0ZXJNYXBfTUFQX0tleU1hcF8wODIAMzkATWlkaUZpbHRlck1hcF9NQVBfS2V5TWFwXzA4MwAwAE1pZGlGaWx0ZXJNYXBfTUFQX0tleU1hcF8wODQANjIATWlkaUZpbHRlck1hcF9NQVBfS2V5TWFwXzA4NQA2MwBNaWRpRmlsdGVyTWFwX01BUF9LZXlNYXBfMDg2ADY0AE1pZGlGaWx0ZXJNYXBfTUFQX0tleU1hcF8wODcANjUATWlkaUZpbHRlck1hcF9NQVBfS2V5TWFwXzA4OAAwAE1pZGlGaWx0ZXJNYXBfTUFQX0tleU1hcF8wODkANjcATWlkaUZpbHRlck1hcF9NQVBfS2V5TWFwXzA5MAA2OABNaWRpRmlsdGVyTWFwX01BUF9LZXlNYXBfMDkxADY5AE1pZGlGaWx0ZXJNYXBfTUFQX0tleU1hcF8wOTIANzAATWlkaUZpbHRlck1hcF9NQVBfS2V5TWFwXzA5MwA3MQBNaWRpRmlsdGVyTWFwX01BUF9LZXlNYXBfMDk0ADcyAE1pZGlGaWx0ZXJNYXBfTUFQX0tleU1hcF8wOTUAMABNaWRpRmlsdGVyTWFwX01BUF9LZXlNYXBfMDk2ADczAE1pZGlGaWx0ZXJNYXBfTUFQX0tleU1hcF8wOTcANzQATWlkaUZpbHRlck1hcF9NQVBfS2V5TWFwXzA5OAA3NQBNaWRpRmlsdGVyTWFwX01BUF9LZXlNYXBfMDk5ADc2AE1pZGlGaWx0ZXJNYXBfTUFQX0tleU1hcF8xMDAAMABNaWRpRmlsdGVyTWFwX01BUF9LZXlNYXBfMTAxADc3AE1pZGlGaWx0ZXJNYXBfTUFQX0tleU1hcF8xMDIANzgATWlkaUZpbHRlck1hcF9NQVBfS2V5TWFwXzEwMwA3OQBNaWRpRmlsdGVyTWFwX01BUF9LZXlNYXBfMTA0ADgwAE1pZGlGaWx0ZXJNYXBfTUFQX0tleU1hcF8xMDUAMABNaWRpRmlsdGVyTWFwX01BUF9LZXlNYXBfMTA2ADAATWlkaUZpbHRlck1hcF9NQVBfS2V5TWFwXzEwNwAwAE1pZGlGaWx0ZXJNYXBfTUFQX0tleU1hcF8xMDgAMABNaWRpRmlsdGVyTWFwX01BUF9LZXlNYXBfMTA5ADAATWlkaUZpbHRlck1hcF9NQVBfS2V5TWFwXzExMAAwAE1pZGlGaWx0ZXJNYXBfTUFQX0tleU1hcF8xMTEAMABNaWRpRmlsdGVyTWFwX01BUF9LZXlNYXBfMTEyADAATWlkaUZpbHRlck1hcF9NQVBfS2V5TWFwXzExMwAwAE1pZGlGaWx0ZXJNYXBfTUFQX0tleU1hcF8xMTQAMABNaWRpRmlsdGVyTWFwX01BUF9LZXlNYXBfMTE1ADAATWlkaUZpbHRlck1hcF9NQVBfS2V5TWFwXzExNgAwAE1pZGlGaWx0ZXJNYXBfTUFQX0tleU1hcF8xMTcAMABNaWRpRmlsdGVyTWFwX01BUF9LZXlNYXBfMTE4ADAATWlkaUZpbHRlck1hcF9NQVBfS2V5TWFwXzExOQAwAE1pZGlGaWx0ZXJNYXBfTUFQX0tleU1hcF8xMjAAMABNaWRpRmlsdGVyTWFwX01BUF9LZXlNYXBfMTIxADAATWlkaUZpbHRlck1hcF9NQVBfS2V5TWFwXzEyMgAwAE1pZGlGaWx0ZXJNYXBfTUFQX0tleU1hcF8xMjMAMABNaWRpRmlsdGVyTWFwX01BUF9LZXlNYXBfMTI0ADAATWlkaUZpbHRlck1hcF9NQVBfS2V5TWFwXzEyNQAwAE1pZGlGaWx0ZXJNYXBfTUFQX0tleU1hcF8xMjYAMABNaWRpRmlsdGVyTWFwX01BUF9LZXlNYXBfMTI3ADAATWlkaUZpbHRlck1hcF9NQVBfUG9zUmlkZTFfQ29udHJvbGxlck51bWJlcgAxNwBNaWRpRmlsdGVyTWFwX01BUF9Qb3NSaWRlMV9SZXZlcnNlSW5wdXQAMABNaWRpRmlsdGVyTWFwX01BUF9Qb3NSaWRlMV9UcmFuc2l0aW9uUmFuZ2VIaQAxAE1pZGlGaWx0ZXJNYXBfTUFQX1Bvc1JpZGUxX1RyYW5zaXRpb25SYW5nZUxvADAATWlkaUZpbHRlck1hcF9NQVBfUG9zUmlkZTFfVmVsQ29tcAAwLjUATWlkaUZpbHRlck1hcF9NQVBfUG9zUmlkZTJfQ29udHJvbGxlck51bWJlcgAxOABNaWRpRmlsdGVyTWFwX01BUF9Qb3NSaWRlMl9SZXZlcnNlSW5wdXQAMABNaWRpRmlsdGVyTWFwX01BUF9Qb3NSaWRlMl9UcmFuc2l0aW9uUmFuZ2VIaQAxAE1pZGlGaWx0ZXJNYXBfTUFQX1Bvc1JpZGUyX1RyYW5zaXRpb25SYW5nZUxvADAATWlkaUZpbHRlck1hcF9NQVBfUG9zUmlkZTJfVmVsQ29tcAAwLjUATWlkaUZpbHRlck1hcF9NQVBfUG9zU25hcmVfQ29udHJvbGxlck51bWJlcgAxNgBNaWRpRmlsdGVyTWFwX01BUF9Qb3NTbmFyZV9SZXZlcnNlSW5wdXQAMABNaWRpRmlsdGVyTWFwX01BUF9Qb3NTbmFyZV9UcmFuc2l0aW9uUmFuZ2VIaQAxAE1pZGlGaWx0ZXJNYXBfTUFQX1Bvc1NuYXJlX1RyYW5zaXRpb25SYW5nZUxvADAATWlkaUZpbHRlck1hcF9NQVBfUG9zU25hcmVfVmVsQ29tcAAwLjUATWlkaUZpbHRlck1hcF9NQVBfU1QwMDBfVmVsX01vZGlmaWVyADAATWlkaUZpbHRlck1hcF9NQVBfU1QwMDFfVmVsX01vZGlmaWVyADAuNQBNaWRpRmlsdGVyTWFwX01BUF9TVDAwMl9WZWxfTW9kaWZpZXIAMC41AE1pZGlGaWx0ZXJNYXBfTUFQX1NUMDAzX1ZlbF9Nb2RpZmllcgAwLjUATWlkaUZpbHRlck1hcF9NQVBfU1QwMDRfVmVsX01vZGlmaWVyADAuNQBNaWRpRmlsdGVyTWFwX01BUF9TVDAwNV9WZWxfTW9kaWZpZXIAMC41AE1pZGlGaWx0ZXJNYXBfTUFQX1NUMDA2X1ZlbF9Nb2RpZmllcgAwLjUATWlkaUZpbHRlck1hcF9NQVBfU1QwMDdfVmVsX01vZGlmaWVyADAuNQBNaWRpRmlsdGVyTWFwX01BUF9TVDAwOF9WZWxfTW9kaWZpZXIAMC41AE1pZGlGaWx0ZXJNYXBfTUFQX1NUMDA5X1ZlbF9Nb2RpZmllcgAwLjUATWlkaUZpbHRlck1hcF9NQVBfU1QwMTBfVmVsX01vZGlmaWVyADAuNQBNaWRpRmlsdGVyTWFwX01BUF9TVDAxMV9WZWxfTW9kaWZpZXIAMC41AE1pZGlGaWx0ZXJNYXBfTUFQX1NUMDEyX1ZlbF9Nb2RpZmllcgAwLjUATWlkaUZpbHRlck1hcF9NQVBfU1QwMTNfVmVsX01vZGlmaWVyADAuNQBNaWRpRmlsdGVyTWFwX01BUF9TVDAxNF9WZWxfTW9kaWZpZXIAMC41AE1pZGlGaWx0ZXJNYXBfTUFQX1NUMDE1X1ZlbF9Nb2RpZmllcgAwLjUATWlkaUZpbHRlck1hcF9NQVBfU1QwMTZfVmVsX01vZGlmaWVyADAuNQBNaWRpRmlsdGVyTWFwX01BUF9TVDAxN19WZWxfTW9kaWZpZXIAMC41AE1pZGlGaWx0ZXJNYXBfTUFQX1NUMDE4X1ZlbF9Nb2RpZmllcgAwLjUATWlkaUZpbHRlck1hcF9NQVBfU1QwMTlfVmVsX01vZGlmaWVyADAuNQBNaWRpRmlsdGVyTWFwX01BUF9TVDAyMF9WZWxfTW9kaWZpZXIAMC41AE1pZGlGaWx0ZXJNYXBfTUFQX1NUMDIxX1ZlbF9Nb2RpZmllcgAwLjUATWlkaUZpbHRlck1hcF9NQVBfU1QwMjJfVmVsX01vZGlmaWVyADAuNQBNaWRpRmlsdGVyTWFwX01BUF9TVDAyM19WZWxfTW9kaWZpZXIAMC41AE1pZGlGaWx0ZXJNYXBfTUFQX1NUMDI0X1ZlbF9Nb2RpZmllcgAwLjUATWlkaUZpbHRlck1hcF9NQVBfU1QwMjVfVmVsX01vZGlmaWVyADAuNQBNaWRpRmlsdGVyTWFwX01BUF9TVDAyNl9WZWxfTW9kaWZpZXIAMC41AE1pZGlGaWx0ZXJNYXBfTUFQX1NUMDI3X1ZlbF9Nb2RpZmllcgAwLjUATWlkaUZpbHRlck1hcF9NQVBfU1QwMjhfVmVsX01vZGlmaWVyADAuNQBNaWRpRmlsdGVyTWFwX01BUF9TVDAyOV9WZWxfTW9kaWZpZXIAMC41AE1pZGlGaWx0ZXJNYXBfTUFQX1NUMDMwX1ZlbF9Nb2RpZmllcgAwLjUATWlkaUZpbHRlck1hcF9NQVBfU1QwMzFfVmVsX01vZGlmaWVyADAuNQBNaWRpRmlsdGVyTWFwX01BUF9TVDAzMl9WZWxfTW9kaWZpZXIAMC41AE1pZGlGaWx0ZXJNYXBfTUFQX1NUMDMzX1ZlbF9Nb2RpZmllcgAwLjUATWlkaUZpbHRlck1hcF9NQVBfU1QwMzRfVmVsX01vZGlmaWVyADAuNQBNaWRpRmlsdGVyTWFwX01BUF9TVDAzNV9WZWxfTW9kaWZpZXIAMC41AE1pZGlGaWx0ZXJNYXBfTUFQX1NUMDM2X1ZlbF9Nb2RpZmllcgAwLjUATWlkaUZpbHRlck1hcF9NQVBfU1QwMzdfVmVsX01vZGlmaWVyADAuNQBNaWRpRmlsdGVyTWFwX01BUF9TVDAzOF9WZWxfTW9kaWZpZXIAMC41AE1pZGlGaWx0ZXJNYXBfTUFQX1NUMDM5X1ZlbF9Nb2RpZmllcgAwLjUATWlkaUZpbHRlck1hcF9NQVBfU1QwNDBfVmVsX01vZGlmaWVyADAuNQBNaWRpRmlsdGVyTWFwX01BUF9TVDA0MV9WZWxfTW9kaWZpZXIAMC41AE1pZGlGaWx0ZXJNYXBfTUFQX1NUMDQyX1ZlbF9Nb2RpZmllcgAwLjUATWlkaUZpbHRlck1hcF9NQVBfU1QwNDNfVmVsX01vZGlmaWVyADAuNQBNaWRpRmlsdGVyTWFwX01BUF9TVDA0NF9WZWxfTW9kaWZpZXIAMC41AE1pZGlGaWx0ZXJNYXBfTUFQX1NUMDQ1X1ZlbF9Nb2RpZmllcgAwLjUATWlkaUZpbHRlck1hcF9NQVBfU1QwNDZfVmVsX01vZGlmaWVyADAuNQBNaWRpRmlsdGVyTWFwX01BUF9TVDA0N19WZWxfTW9kaWZpZXIAMC41AE1pZGlGaWx0ZXJNYXBfTUFQX1NUMDQ4X1ZlbF9Nb2RpZmllcgAwLjUATWlkaUZpbHRlck1hcF9NQVBfU1QwNDlfVmVsX01vZGlmaWVyADAuNQBNaWRpRmlsdGVyTWFwX01BUF9TVDA1MF9WZWxfTW9kaWZpZXIAMC41AE1pZGlGaWx0ZXJNYXBfTUFQX1NUMDUxX1ZlbF9Nb2RpZmllcgAwLjUATWlkaUZpbHRlck1hcF9NQVBfU1QwNTJfVmVsX01vZGlmaWVyADAuNQBNaWRpRmlsdGVyTWFwX01BUF9TVDA1M19WZWxfTW9kaWZpZXIAMC41AE1pZGlGaWx0ZXJNYXBfTUFQX1NUMDU0X1ZlbF9Nb2RpZmllcgAwLjUATWlkaUZpbHRlck1hcF9NQVBfU1QwNTVfVmVsX01vZGlmaWVyADAuNQBNaWRpRmlsdGVyTWFwX01BUF9TVDA1Nl9WZWxfTW9kaWZpZXIAMC41AE1pZGlGaWx0ZXJNYXBfTUFQX1NUMDU3X1ZlbF9Nb2RpZmllcgAwLjUATWlkaUZpbHRlck1hcF9NQVBfU1QwNThfVmVsX01vZGlmaWVyADAuNQBNaWRpRmlsdGVyTWFwX01BUF9TVDA1OV9WZWxfTW9kaWZpZXIAMC41AE1pZGlGaWx0ZXJNYXBfTUFQX1NUMDYwX1ZlbF9Nb2RpZmllcgAwLjUATWlkaUZpbHRlck1hcF9NQVBfU1QwNjFfVmVsX01vZGlmaWVyADAuNQBNaWRpRmlsdGVyTWFwX01BUF9TVDA2Ml9WZWxfTW9kaWZpZXIAMC41AE1pZGlGaWx0ZXJNYXBfTUFQX1NUMDYzX1ZlbF9Nb2RpZmllcgAwLjUATWlkaUZpbHRlck1hcF9NQVBfU1QwNjRfVmVsX01vZGlmaWVyADAuNQBNaWRpRmlsdGVyTWFwX01BUF9TVDA2NV9WZWxfTW9kaWZpZXIAMC41AE1pZGlGaWx0ZXJNYXBfTUFQX1NUMDY2X1ZlbF9Nb2RpZmllcgAwLjUATWlkaUZpbHRlck1hcF9NQVBfU1QwNjdfVmVsX01vZGlmaWVyADAuNQBNaWRpRmlsdGVyTWFwX01BUF9TVDA2OF9WZWxfTW9kaWZpZXIAMC41AE1pZGlGaWx0ZXJNYXBfTUFQX1NUMDY5X1ZlbF9Nb2RpZmllcgAwLjUATWlkaUZpbHRlck1hcF9NQVBfU1QwNzBfVmVsX01vZGlmaWVyADAuNQBNaWRpRmlsdGVyTWFwX01BUF9TVDA3MV9WZWxfTW9kaWZpZXIAMC41AE1pZGlGaWx0ZXJNYXBfTUFQX1NUMDcyX1ZlbF9Nb2RpZmllcgAwLjUATWlkaUZpbHRlck1hcF9NQVBfU1QwNzNfVmVsX01vZGlmaWVyADAuNQBNaWRpRmlsdGVyTWFwX01BUF9TVDA3NF9WZWxfTW9kaWZpZXIAMC41AE1pZGlGaWx0ZXJNYXBfTUFQX1NUMDc1X1ZlbF9Nb2RpZmllcgAwLjUATWlkaUZpbHRlck1hcF9NQVBfU1QwNzZfVmVsX01vZGlmaWVyADAuNQBNaWRpRmlsdGVyTWFwX01BUF9TVDA3N19WZWxfTW9kaWZpZXIAMC41AE1pZGlGaWx0ZXJNYXBfTUFQX1NUMDc4X1ZlbF9Nb2RpZmllcgAwLjUATWlkaUZpbHRlck1hcF9NQVBfU1QwNzlfVmVsX01vZGlmaWVyADAuNQBNaWRpRmlsdGVyTWFwX01BUF9TVDA4MF9WZWxfTW9kaWZpZXIAMC41AE1pZGlQbGF5ZXJIb3N0U3luY1N0YXJ0U3RvcEdVSQAwAFByZXNldEJyb3dzZXJGaWx0ZXIAQWxsIFByZXNldHMAUHJlc2V0QnJvd3NlckZpbHRlclRleHQAAFByZXNldEJyb3dzZXJTb3J0T3JkZXIAMABQcmVzZXRDYXRlZ29yeVNhdmUARWxlY3Ryb25pYwBTYW1wbGVyX0NZTTFfQW1wRW52X0F0dGFjawAwAFNhbXBsZXJfQ1lNMV9BbXBFbnZfQXR0YWNrQ3VydmUAMC41AFNhbXBsZXJfQ1lNMV9BbXBFbnZfRGVjYXkAMABTYW1wbGVyX0NZTTFfQW1wRW52X0RlY2F5Q3VydmUAMC4wMzExMjI4AFNhbXBsZXJfQ1lNMV9BbXBFbnZfRW5hYmxlADAAU2FtcGxlcl9DWU0xX0FtcEVudl9SZWxlYXNlADAuNjkzNzA4NjU4AFNhbXBsZXJfQ1lNMV9BbXBFbnZfUmVsZWFzZUN1cnZlADAuMDMxMTIyOABTYW1wbGVyX0NZTTFfQW1wRW52X1N1c3RhaW5Ib2xkADAuOTA2OTk0NDAyAFNhbXBsZXJfQ1lNMV9BbXBFbnZfU3VzdGFpbkxldmVsADEAU2FtcGxlcl9DWU0xX0FtcEVudl9WZWwyQXR0YWNrADAAU2FtcGxlcl9DWU0xX0N1cnJlbnRFbnZFbmFibGUAMABTYW1wbGVyX0NZTTFfQ3VycmVudEVudlNlbGVjdGlvbgBQaXRjaEVudgBTYW1wbGVyX0NZTTFfRVFfRW52X0N1cnZlADAuMDMxMTIyOABTYW1wbGVyX0NZTTFfRVFfRW52X0luaXRpYWxMZXZlbAAwLjY2NjY2NjY4NwBTYW1wbGVyX0NZTTFfRVFfRW52X1JlbGVhc2VMZXZlbAAwLjY2NjY2NjY4NwBTYW1wbGVyX0NZTTFfRVFfRW52X1JlbGVhc2VUaW1lADAAU2FtcGxlcl9DWU0xX0VudkZpbHRlcnNFbmFibGUAMABTYW1wbGVyX0NZTTFfRmlsdGVySGlMb19FbmFibGUAMABTYW1wbGVyX0NZTTFfRmlsdGVySGlMb19IaUZyZXEAMQBTYW1wbGVyX0NZTTFfRmlsdGVySGlMb19Mb0ZyZXEAMABTYW1wbGVyX0NZTTFfS2l0UGllY2VTZWxlY3Rpb24ANTA5MDUAU2FtcGxlcl9DWU0xX0xldmVsADAuNzU3OTgyMzE0AFNhbXBsZXJfQ1lNMV9NaWNCYWxhbmNlADAuNQBTYW1wbGVyX0NZTTFfT0hfSW52ZXJ0ADAAU2FtcGxlcl9DWU0xX09IX0xldmVsADAuNQBTYW1wbGVyX0NZTTFfT0hfUGFuADAuNQBTYW1wbGVyX0NZTTFfT0hfV2lkdGgAMQBTYW1wbGVyX0NZTTFfUGl0Y2hFbnZfQ3VydmUAMC4wMzExMjI4AFNhbXBsZXJfQ1lNMV9QaXRjaEVudl9Ib2xkADAAU2FtcGxlcl9DWU0xX1BpdGNoRW52X09mZnNldExldmVsADAuNQBTYW1wbGVyX0NZTTFfUGl0Y2hFbnZfUmVsZWFzZQAwAFNhbXBsZXJfQ1lNMV9QaXRjaEVudl9WZWxTZW5zADAAU2FtcGxlcl9DWU0xX1BpdGNoX0NvdXJzZQAwLjUAU2FtcGxlcl9DWU0xX1BpdGNoX0VuYWJsZQAwAFNhbXBsZXJfQ1lNMV9QaXRjaF9PSFJvb21PZmZzZXQAMC41AFNhbXBsZXJfQ1lNMV9SZXNwb25zZUVuYWJsZQAxAFNhbXBsZXJfQ1lNMV9Sb29tX0ludmVydAAwAFNhbXBsZXJfQ1lNMV9Sb29tX0xldmVsADAAU2FtcGxlcl9DWU0xX1Jvb21fUGFuADAuNQBTYW1wbGVyX0NZTTFfUm9vbV9XaWR0aAAxAFNhbXBsZXJfQ1lNMV9Vc2VBbHRzADEAU2FtcGxlcl9DWU0xX1ZlbFRvRmx0ADAAU2FtcGxlcl9DWU0xX1ZlbFRvU2FtcGxlSGkAMQBTYW1wbGVyX0NZTTFfVmVsVG9TYW1wbGVMbwAwLjE1MDAwMDAwNgBTYW1wbGVyX0NZTTFfVmVsVG9Wb2wAMC41AFNhbXBsZXJfQ1lNMl9BbXBFbnZfQXR0YWNrADAAU2FtcGxlcl9DWU0yX0FtcEVudl9BdHRhY2tDdXJ2ZQAwLjUAU2FtcGxlcl9DWU0yX0FtcEVudl9EZWNheQAwAFNhbXBsZXJfQ1lNMl9BbXBFbnZfRGVjYXlDdXJ2ZQAwLjAzMTEyMjgAU2FtcGxlcl9DWU0yX0FtcEVudl9FbmFibGUAMABTYW1wbGVyX0NZTTJfQW1wRW52X1JlbGVhc2UAMC42OTM3MDg2NTgAU2FtcGxlcl9DWU0yX0FtcEVudl9SZWxlYXNlQ3VydmUAMC4wMzExMjI4AFNhbXBsZXJfQ1lNMl9BbXBFbnZfU3VzdGFpbkhvbGQAMC45MDY5OTQ0MDIAU2FtcGxlcl9DWU0yX0FtcEVudl9TdXN0YWluTGV2ZWwAMQBTYW1wbGVyX0NZTTJfQW1wRW52X1ZlbDJBdHRhY2sAMABTYW1wbGVyX0NZTTJfQ3VycmVudEVudkVuYWJsZQAwAFNhbXBsZXJfQ1lNMl9DdXJyZW50RW52U2VsZWN0aW9uAFBpdGNoRW52AFNhbXBsZXJfQ1lNMl9FUV9FbnZfQ3VydmUAMC4wMzExMjI4AFNhbXBsZXJfQ1lNMl9FUV9FbnZfSW5pdGlhbExldmVsADAuNjY2NjY2Njg3AFNhbXBsZXJfQ1lNMl9FUV9FbnZfUmVsZWFzZUxldmVsADAuNjY2NjY2Njg3AFNhbXBsZXJfQ1lNMl9FUV9FbnZfUmVsZWFzZVRpbWUAMABTYW1wbGVyX0NZTTJfRW52RmlsdGVyc0VuYWJsZQAwAFNhbXBsZXJfQ1lNMl9GaWx0ZXJIaUxvX0VuYWJsZQAwAFNhbXBsZXJfQ1lNMl9GaWx0ZXJIaUxvX0hpRnJlcQAxAFNhbXBsZXJfQ1lNMl9GaWx0ZXJIaUxvX0xvRnJlcQAwAFNhbXBsZXJfQ1lNMl9LaXRQaWVjZVNlbGVjdGlvbgA1MDkxNQBTYW1wbGVyX0NZTTJfTGV2ZWwAMC43NTc5ODIzMTQAU2FtcGxlcl9DWU0yX01pY0JhbGFuY2UAMC41AFNhbXBsZXJfQ1lNMl9PSF9JbnZlcnQAMABTYW1wbGVyX0NZTTJfT0hfTGV2ZWwAMC41AFNhbXBsZXJfQ1lNMl9PSF9QYW4AMC41AFNhbXBsZXJfQ1lNMl9PSF9XaWR0aAAxAFNhbXBsZXJfQ1lNMl9QaXRjaEVudl9DdXJ2ZQAwLjAzMTEyMjgAU2FtcGxlcl9DWU0yX1BpdGNoRW52X0hvbGQAMABTYW1wbGVyX0NZTTJfUGl0Y2hFbnZfT2Zmc2V0TGV2ZWwAMC41AFNhbXBsZXJfQ1lNMl9QaXRjaEVudl9SZWxlYXNlADAAU2FtcGxlcl9DWU0yX1BpdGNoRW52X1ZlbFNlbnMAMABTYW1wbGVyX0NZTTJfUGl0Y2hfQ291cnNlADAuNQBTYW1wbGVyX0NZTTJfUGl0Y2hfRW5hYmxlADAAU2FtcGxlcl9DWU0yX1BpdGNoX09IUm9vbU9mZnNldAAwLjUAU2FtcGxlcl9DWU0yX1Jlc3BvbnNlRW5hYmxlADEAU2FtcGxlcl9DWU0yX1Jvb21fSW52ZXJ0ADAAU2FtcGxlcl9DWU0yX1Jvb21fTGV2ZWwAMABTYW1wbGVyX0NZTTJfUm9vbV9QYW4AMC41AFNhbXBsZXJfQ1lNMl9Sb29tX1dpZHRoADEAU2FtcGxlcl9DWU0yX1VzZUFsdHMAMQBTYW1wbGVyX0NZTTJfVmVsVG9GbHQAMABTYW1wbGVyX0NZTTJfVmVsVG9TYW1wbGVIaQAxAFNhbXBsZXJfQ1lNMl9WZWxUb1NhbXBsZUxvADAuMTUwMDAwMDA2AFNhbXBsZXJfQ1lNMl9WZWxUb1ZvbAAwLjUAU2FtcGxlcl9DWU0zX0FtcEVudl9BdHRhY2sAMABTYW1wbGVyX0NZTTNfQW1wRW52X0F0dGFja0N1cnZlADAuNQBTYW1wbGVyX0NZTTNfQW1wRW52X0RlY2F5ADAAU2FtcGxlcl9DWU0zX0FtcEVudl9EZWNheUN1cnZlADAuMDMxMTIyOABTYW1wbGVyX0NZTTNfQW1wRW52X0VuYWJsZQAwAFNhbXBsZXJfQ1lNM19BbXBFbnZfUmVsZWFzZQAwLjY5MzcwODY1OABTYW1wbGVyX0NZTTNfQW1wRW52X1JlbGVhc2VDdXJ2ZQAwLjAzMTEyMjgAU2FtcGxlcl9DWU0zX0FtcEVudl9TdXN0YWluSG9sZAAwLjkwNjk5NDQwMgBTYW1wbGVyX0NZTTNfQW1wRW52X1N1c3RhaW5MZXZlbAAxAFNhbXBsZXJfQ1lNM19BbXBFbnZfVmVsMkF0dGFjawAwAFNhbXBsZXJfQ1lNM19DdXJyZW50RW52RW5hYmxlADAAU2FtcGxlcl9DWU0zX0N1cnJlbnRFbnZTZWxlY3Rpb24AUGl0Y2hFbnYAU2FtcGxlcl9DWU0zX0VRX0Vudl9DdXJ2ZQAwLjAzMTEyMjgAU2FtcGxlcl9DWU0zX0VRX0Vudl9Jbml0aWFsTGV2ZWwAMC42NjY2NjY2ODcAU2FtcGxlcl9DWU0zX0VRX0Vudl9SZWxlYXNlTGV2ZWwAMC42NjY2NjY2ODcAU2FtcGxlcl9DWU0zX0VRX0Vudl9SZWxlYXNlVGltZQAwAFNhbXBsZXJfQ1lNM19FbnZGaWx0ZXJzRW5hYmxlADAAU2FtcGxlcl9DWU0zX0ZpbHRlckhpTG9fRW5hYmxlADAAU2FtcGxlcl9DWU0zX0ZpbHRlckhpTG9fSGlGcmVxADEAU2FtcGxlcl9DWU0zX0ZpbHRlckhpTG9fTG9GcmVxADAAU2FtcGxlcl9DWU0zX0tpdFBpZWNlU2VsZWN0aW9uADUwOTI1AFNhbXBsZXJfQ1lNM19MZXZlbAAwLjc1Nzk4MjMxNABTYW1wbGVyX0NZTTNfTWljQmFsYW5jZQAwLjUAU2FtcGxlcl9DWU0zX09IX0ludmVydAAwAFNhbXBsZXJfQ1lNM19PSF9MZXZlbAAwLjUAU2FtcGxlcl9DWU0zX09IX1BhbgAwLjUAU2FtcGxlcl9DWU0zX09IX1dpZHRoADEAU2FtcGxlcl9DWU0zX1BpdGNoRW52X0N1cnZlADAuMDMxMTIyOABTYW1wbGVyX0NZTTNfUGl0Y2hFbnZfSG9sZAAwAFNhbXBsZXJfQ1lNM19QaXRjaEVudl9PZmZzZXRMZXZlbAAwLjUAU2FtcGxlcl9DWU0zX1BpdGNoRW52X1JlbGVhc2UAMABTYW1wbGVyX0NZTTNfUGl0Y2hFbnZfVmVsU2VucwAwAFNhbXBsZXJfQ1lNM19QaXRjaF9Db3Vyc2UAMC41AFNhbXBsZXJfQ1lNM19QaXRjaF9FbmFibGUAMABTYW1wbGVyX0NZTTNfUGl0Y2hfT0hSb29tT2Zmc2V0ADAuNQBTYW1wbGVyX0NZTTNfUmVzcG9uc2VFbmFibGUAMQBTYW1wbGVyX0NZTTNfUm9vbV9JbnZlcnQAMABTYW1wbGVyX0NZTTNfUm9vbV9MZXZlbAAwAFNhbXBsZXJfQ1lNM19Sb29tX1BhbgAwLjUAU2FtcGxlcl9DWU0zX1Jvb21fV2lkdGgAMQBTYW1wbGVyX0NZTTNfVXNlQWx0cwAxAFNhbXBsZXJfQ1lNM19WZWxUb0ZsdAAwAFNhbXBsZXJfQ1lNM19WZWxUb1NhbXBsZUhpADEAU2FtcGxlcl9DWU0zX1ZlbFRvU2FtcGxlTG8AMC4xNTAwMDAwMDYAU2FtcGxlcl9DWU0zX1ZlbFRvVm9sADAuNQBTYW1wbGVyX0NZTTRfQW1wRW52X0F0dGFjawAwAFNhbXBsZXJfQ1lNNF9BbXBFbnZfQXR0YWNrQ3VydmUAMC41AFNhbXBsZXJfQ1lNNF9BbXBFbnZfRGVjYXkAMABTYW1wbGVyX0NZTTRfQW1wRW52X0RlY2F5Q3VydmUAMC4wMzExMjI4AFNhbXBsZXJfQ1lNNF9BbXBFbnZfRW5hYmxlADAAU2FtcGxlcl9DWU00X0FtcEVudl9SZWxlYXNlADEAU2FtcGxlcl9DWU00X0FtcEVudl9SZWxlYXNlQ3VydmUAMC4wMzExMjI4AFNhbXBsZXJfQ1lNNF9BbXBFbnZfU3VzdGFpbkhvbGQAMQBTYW1wbGVyX0NZTTRfQW1wRW52X1N1c3RhaW5MZXZlbAAxAFNhbXBsZXJfQ1lNNF9BbXBFbnZfVmVsMkF0dGFjawAwAFNhbXBsZXJfQ1lNNF9DdXJyZW50RW52RW5hYmxlADAAU2FtcGxlcl9DWU00X0N1cnJlbnRFbnZTZWxlY3Rpb24AUGl0Y2hFbnYAU2FtcGxlcl9DWU00X0VRX0Vudl9DdXJ2ZQAwLjAzMTEyMjgAU2FtcGxlcl9DWU00X0VRX0Vudl9Jbml0aWFsTGV2ZWwAMC42NjY2NjY2ODcAU2FtcGxlcl9DWU00X0VRX0Vudl9SZWxlYXNlTGV2ZWwAMC42NjY2NjY2ODcAU2FtcGxlcl9DWU00X0VRX0Vudl9SZWxlYXNlVGltZQAwAFNhbXBsZXJfQ1lNNF9FbnZGaWx0ZXJzRW5hYmxlADEAU2FtcGxlcl9DWU00X0ZpbHRlckhpTG9fRW5hYmxlADAAU2FtcGxlcl9DWU00X0ZpbHRlckhpTG9fSGlGcmVxADEAU2FtcGxlcl9DWU00X0ZpbHRlckhpTG9fTG9GcmVxADAAU2FtcGxlcl9DWU00X0tpdFBpZWNlU2VsZWN0aW9uADAAU2FtcGxlcl9DWU00X0xldmVsADAuODAwMDAwMDEyAFNhbXBsZXJfQ1lNNF9NaWNCYWxhbmNlADAuNQBTYW1wbGVyX0NZTTRfT0hfSW52ZXJ0ADAAU2FtcGxlcl9DWU00X09IX0xldmVsADAuNQBTYW1wbGVyX0NZTTRfT0hfUGFuADAuNQBTYW1wbGVyX0NZTTRfT0hfV2lkdGgAMQBTYW1wbGVyX0NZTTRfUGl0Y2hFbnZfQ3VydmUAMC4wMzExMjI4AFNhbXBsZXJfQ1lNNF9QaXRjaEVudl9Ib2xkADAAU2FtcGxlcl9DWU00X1BpdGNoRW52X09mZnNldExldmVsADAuNQBTYW1wbGVyX0NZTTRfUGl0Y2hFbnZfUmVsZWFzZQAwAFNhbXBsZXJfQ1lNNF9QaXRjaEVudl9WZWxTZW5zADAAU2FtcGxlcl9DWU00X1BpdGNoX0NvdXJzZQAwLjUAU2FtcGxlcl9DWU00X1BpdGNoX0VuYWJsZQAwAFNhbXBsZXJfQ1lNNF9QaXRjaF9PSFJvb21PZmZzZXQAMC41AFNhbXBsZXJfQ1lNNF9SZXNwb25zZUVuYWJsZQAxAFNhbXBsZXJfQ1lNNF9Sb29tX0ludmVydAAwAFNhbXBsZXJfQ1lNNF9Sb29tX0xldmVsADAuNQBTYW1wbGVyX0NZTTRfUm9vbV9QYW4AMC41AFNhbXBsZXJfQ1lNNF9Sb29tX1dpZHRoADEAU2FtcGxlcl9DWU00X1VzZUFsdHMAMQBTYW1wbGVyX0NZTTRfVmVsVG9GbHQAMABTYW1wbGVyX0NZTTRfVmVsVG9TYW1wbGVIaQAxAFNhbXBsZXJfQ1lNNF9WZWxUb1NhbXBsZUxvADAuMTUwMDAwMDA2AFNhbXBsZXJfQ1lNNF9WZWxUb1ZvbAAwLjUAU2FtcGxlcl9DWU01X0FtcEVudl9BdHRhY2sAMABTYW1wbGVyX0NZTTVfQW1wRW52X0F0dGFja0N1cnZlADAuNQBTYW1wbGVyX0NZTTVfQW1wRW52X0RlY2F5ADAAU2FtcGxlcl9DWU01X0FtcEVudl9EZWNheUN1cnZlADAuMDMxMTIyOABTYW1wbGVyX0NZTTVfQW1wRW52X0VuYWJsZQAwAFNhbXBsZXJfQ1lNNV9BbXBFbnZfUmVsZWFzZQAxAFNhbXBsZXJfQ1lNNV9BbXBFbnZfUmVsZWFzZUN1cnZlADAuMDMxMTIyOABTYW1wbGVyX0NZTTVfQW1wRW52X1N1c3RhaW5Ib2xkADEAU2FtcGxlcl9DWU01X0FtcEVudl9TdXN0YWluTGV2ZWwAMQBTYW1wbGVyX0NZTTVfQW1wRW52X1ZlbDJBdHRhY2sAMABTYW1wbGVyX0NZTTVfQ3VycmVudEVudkVuYWJsZQAwAFNhbXBsZXJfQ1lNNV9DdXJyZW50RW52U2VsZWN0aW9uAFBpdGNoRW52AFNhbXBsZXJfQ1lNNV9FUV9FbnZfQ3VydmUAMC4wMzExMjI4AFNhbXBsZXJfQ1lNNV9FUV9FbnZfSW5pdGlhbExldmVsADAuNjY2NjY2Njg3AFNhbXBsZXJfQ1lNNV9FUV9FbnZfUmVsZWFzZUxldmVsADAuNjY2NjY2Njg3AFNhbXBsZXJfQ1lNNV9FUV9FbnZfUmVsZWFzZVRpbWUAMABTYW1wbGVyX0NZTTVfRW52RmlsdGVyc0VuYWJsZQAxAFNhbXBsZXJfQ1lNNV9GaWx0ZXJIaUxvX0VuYWJsZQAwAFNhbXBsZXJfQ1lNNV9GaWx0ZXJIaUxvX0hpRnJlcQAxAFNhbXBsZXJfQ1lNNV9GaWx0ZXJIaUxvX0xvRnJlcQAwAFNhbXBsZXJfQ1lNNV9LaXRQaWVjZVNlbGVjdGlvbgAwAFNhbXBsZXJfQ1lNNV9MZXZlbAAwLjgwMDAwMDAxMgBTYW1wbGVyX0NZTTVfTWljQmFsYW5jZQAwLjUAU2FtcGxlcl9DWU01X09IX0ludmVydAAwAFNhbXBsZXJfQ1lNNV9PSF9MZXZlbAAwLjUAU2FtcGxlcl9DWU01X09IX1BhbgAwLjUAU2FtcGxlcl9DWU01X09IX1dpZHRoADEAU2FtcGxlcl9DWU01X1BpdGNoRW52X0N1cnZlADAuMDMxMTIyOABTYW1wbGVyX0NZTTVfUGl0Y2hFbnZfSG9sZAAwAFNhbXBsZXJfQ1lNNV9QaXRjaEVudl9PZmZzZXRMZXZlbAAwLjUAU2FtcGxlcl9DWU01X1BpdGNoRW52X1JlbGVhc2UAMABTYW1wbGVyX0NZTTVfUGl0Y2hFbnZfVmVsU2VucwAwAFNhbXBsZXJfQ1lNNV9QaXRjaF9Db3Vyc2UAMC41AFNhbXBsZXJfQ1lNNV9QaXRjaF9FbmFibGUAMABTYW1wbGVyX0NZTTVfUGl0Y2hfT0hSb29tT2Zmc2V0ADAuNQBTYW1wbGVyX0NZTTVfUmVzcG9uc2VFbmFibGUAMQBTYW1wbGVyX0NZTTVfUm9vbV9JbnZlcnQAMABTYW1wbGVyX0NZTTVfUm9vbV9MZXZlbAAwLjUAU2FtcGxlcl9DWU01X1Jvb21fUGFuADAuNQBTYW1wbGVyX0NZTTVfUm9vbV9XaWR0aAAxAFNhbXBsZXJfQ1lNNV9Vc2VBbHRzADEAU2FtcGxlcl9DWU01X1ZlbFRvRmx0ADAAU2FtcGxlcl9DWU01X1ZlbFRvU2FtcGxlSGkAMQBTYW1wbGVyX0NZTTVfVmVsVG9TYW1wbGVMbwAwLjE1MDAwMDAwNgBTYW1wbGVyX0NZTTVfVmVsVG9Wb2wAMC41AFNhbXBsZXJfQ1lNNl9BbXBFbnZfQXR0YWNrADAAU2FtcGxlcl9DWU02X0FtcEVudl9BdHRhY2tDdXJ2ZQAwLjUAU2FtcGxlcl9DWU02X0FtcEVudl9EZWNheQAwAFNhbXBsZXJfQ1lNNl9BbXBFbnZfRGVjYXlDdXJ2ZQAwLjAzMTEyMjgAU2FtcGxlcl9DWU02X0FtcEVudl9FbmFibGUAMABTYW1wbGVyX0NZTTZfQW1wRW52X1JlbGVhc2UAMQBTYW1wbGVyX0NZTTZfQW1wRW52X1JlbGVhc2VDdXJ2ZQAwLjAzMTEyMjgAU2FtcGxlcl9DWU02X0FtcEVudl9TdXN0YWluSG9sZAAxAFNhbXBsZXJfQ1lNNl9BbXBFbnZfU3VzdGFpbkxldmVsADEAU2FtcGxlcl9DWU02X0FtcEVudl9WZWwyQXR0YWNrADAAU2FtcGxlcl9DWU02X0N1cnJlbnRFbnZFbmFibGUAMABTYW1wbGVyX0NZTTZfQ3VycmVudEVudlNlbGVjdGlvbgBQaXRjaEVudgBTYW1wbGVyX0NZTTZfRVFfRW52X0N1cnZlADAuMDMxMTIyOABTYW1wbGVyX0NZTTZfRVFfRW52X0luaXRpYWxMZXZlbAAwLjY2NjY2NjY4NwBTYW1wbGVyX0NZTTZfRVFfRW52X1JlbGVhc2VMZXZlbAAwLjY2NjY2NjY4NwBTYW1wbGVyX0NZTTZfRVFfRW52X1JlbGVhc2VUaW1lADAAU2FtcGxlcl9DWU02X0VudkZpbHRlcnNFbmFibGUAMQBTYW1wbGVyX0NZTTZfRmlsdGVySGlMb19FbmFibGUAMABTYW1wbGVyX0NZTTZfRmlsdGVySGlMb19IaUZyZXEAMQBTYW1wbGVyX0NZTTZfRmlsdGVySGlMb19Mb0ZyZXEAMABTYW1wbGVyX0NZTTZfS2l0UGllY2VTZWxlY3Rpb24AMABTYW1wbGVyX0NZTTZfTGV2ZWwAMC44MDAwMDAwMTIAU2FtcGxlcl9DWU02X01pY0JhbGFuY2UAMC41AFNhbXBsZXJfQ1lNNl9PSF9JbnZlcnQAMABTYW1wbGVyX0NZTTZfT0hfTGV2ZWwAMC41AFNhbXBsZXJfQ1lNNl9PSF9QYW4AMC41AFNhbXBsZXJfQ1lNNl9PSF9XaWR0aAAxAFNhbXBsZXJfQ1lNNl9QaXRjaEVudl9DdXJ2ZQAwLjAzMTEyMjgAU2FtcGxlcl9DWU02X1BpdGNoRW52X0hvbGQAMABTYW1wbGVyX0NZTTZfUGl0Y2hFbnZfT2Zmc2V0TGV2ZWwAMC41AFNhbXBsZXJfQ1lNNl9QaXRjaEVudl9SZWxlYXNlADAAU2FtcGxlcl9DWU02X1BpdGNoRW52X1ZlbFNlbnMAMABTYW1wbGVyX0NZTTZfUGl0Y2hfQ291cnNlADAuNQBTYW1wbGVyX0NZTTZfUGl0Y2hfRW5hYmxlADAAU2FtcGxlcl9DWU02X1BpdGNoX09IUm9vbU9mZnNldAAwLjUAU2FtcGxlcl9DWU02X1Jlc3BvbnNlRW5hYmxlADEAU2FtcGxlcl9DWU02X1Jvb21fSW52ZXJ0ADAAU2FtcGxlcl9DWU02X1Jvb21fTGV2ZWwAMC41AFNhbXBsZXJfQ1lNNl9Sb29tX1BhbgAwLjUAU2FtcGxlcl9DWU02X1Jvb21fV2lkdGgAMQBTYW1wbGVyX0NZTTZfVXNlQWx0cwAxAFNhbXBsZXJfQ1lNNl9WZWxUb0ZsdAAwAFNhbXBsZXJfQ1lNNl9WZWxUb1NhbXBsZUhpADEAU2FtcGxlcl9DWU02X1ZlbFRvU2FtcGxlTG8AMC4xNTAwMDAwMDYAU2FtcGxlcl9DWU02X1ZlbFRvVm9sADAuNQBTYW1wbGVyX0ZMWDFfQW1wRW52X0F0dGFjawAwAFNhbXBsZXJfRkxYMV9BbXBFbnZfQXR0YWNrQ3VydmUAMC41AFNhbXBsZXJfRkxYMV9BbXBFbnZfRGVjYXkAMABTYW1wbGVyX0ZMWDFfQW1wRW52X0RlY2F5Q3VydmUAMC4wMzExMjI4AFNhbXBsZXJfRkxYMV9BbXBFbnZfRW5hYmxlADAAU2FtcGxlcl9GTFgxX0FtcEVudl9SZWxlYXNlADAuNjkzNzA4NjU4AFNhbXBsZXJfRkxYMV9BbXBFbnZfUmVsZWFzZUN1cnZlADAuMDMxMTIyOABTYW1wbGVyX0ZMWDFfQW1wRW52X1N1c3RhaW5Ib2xkADAuOTA2OTk0NDAyAFNhbXBsZXJfRkxYMV9BbXBFbnZfU3VzdGFpbkxldmVsADEAU2FtcGxlcl9GTFgxX0FtcEVudl9WZWwyQXR0YWNrADAAU2FtcGxlcl9GTFgxX0N1cnJlbnRFbnZFbmFibGUAMABTYW1wbGVyX0ZMWDFfQ3VycmVudEVudlNlbGVjdGlvbgBQaXRjaEVudgBTYW1wbGVyX0ZMWDFfRVFfRW52X0N1cnZlADAuMDMxMTIyOABTYW1wbGVyX0ZMWDFfRVFfRW52X0luaXRpYWxMZXZlbAAwLjY2NjY2NjY4NwBTYW1wbGVyX0ZMWDFfRVFfRW52X1JlbGVhc2VMZXZlbAAwLjY2NjY2NjY4NwBTYW1wbGVyX0ZMWDFfRVFfRW52X1JlbGVhc2VUaW1lADAAU2FtcGxlcl9GTFgxX0VudkZpbHRlcnNFbmFibGUAMABTYW1wbGVyX0ZMWDFfRmlsdGVySGlMb19FbmFibGUAMABTYW1wbGVyX0ZMWDFfRmlsdGVySGlMb19IaUZyZXEAMQBTYW1wbGVyX0ZMWDFfRmlsdGVySGlMb19Mb0ZyZXEAMABTYW1wbGVyX0ZMWDFfS2l0UGllY2VTZWxlY3Rpb24AOTgxODQyAFNhbXBsZXJfRkxYMV9MZXZlbAAwLjc1Nzk4MjMxNABTYW1wbGVyX0ZMWDFfTWljQmFsYW5jZQAwLjUAU2FtcGxlcl9GTFgxX09IX0ludmVydAAwAFNhbXBsZXJfRkxYMV9PSF9MZXZlbAAwAFNhbXBsZXJfRkxYMV9PSF9QYW4AMC41AFNhbXBsZXJfRkxYMV9PSF9XaWR0aAAxAFNhbXBsZXJfRkxYMV9QaXRjaEVudl9DdXJ2ZQAwLjAzMTEyMjgAU2FtcGxlcl9GTFgxX1BpdGNoRW52X0hvbGQAMABTYW1wbGVyX0ZMWDFfUGl0Y2hFbnZfT2Zmc2V0TGV2ZWwAMC41AFNhbXBsZXJfRkxYMV9QaXRjaEVudl9SZWxlYXNlADAAU2FtcGxlcl9GTFgxX1BpdGNoRW52X1ZlbFNlbnMAMABTYW1wbGVyX0ZMWDFfUGl0Y2hfQ291cnNlADAuNQBTYW1wbGVyX0ZMWDFfUGl0Y2hfRW5hYmxlADAAU2FtcGxlcl9GTFgxX1BpdGNoX09IUm9vbU9mZnNldAAwLjUAU2FtcGxlcl9GTFgxX1Jlc3BvbnNlRW5hYmxlADEAU2FtcGxlcl9GTFgxX1Jvb21fSW52ZXJ0ADAAU2FtcGxlcl9GTFgxX1Jvb21fTGV2ZWwAMABTYW1wbGVyX0ZMWDFfUm9vbV9QYW4AMC41AFNhbXBsZXJfRkxYMV9Sb29tX1dpZHRoADEAU2FtcGxlcl9GTFgxX1VzZUFsdHMAMQBTYW1wbGVyX0ZMWDFfVmVsVG9GbHQAMABTYW1wbGVyX0ZMWDFfVmVsVG9TYW1wbGVIaQAxAFNhbXBsZXJfRkxYMV9WZWxUb1NhbXBsZUxvADAuMTUwMDAwMDA2AFNhbXBsZXJfRkxYMV9WZWxUb1ZvbAAwLjUAU2FtcGxlcl9GTFgyX0FtcEVudl9BdHRhY2sAMABTYW1wbGVyX0ZMWDJfQW1wRW52X0F0dGFja0N1cnZlADAuNQBTYW1wbGVyX0ZMWDJfQW1wRW52X0RlY2F5ADAAU2FtcGxlcl9GTFgyX0FtcEVudl9EZWNheUN1cnZlADAuMDMxMTIyOABTYW1wbGVyX0ZMWDJfQW1wRW52X0VuYWJsZQAwAFNhbXBsZXJfRkxYMl9BbXBFbnZfUmVsZWFzZQAxAFNhbXBsZXJfRkxYMl9BbXBFbnZfUmVsZWFzZUN1cnZlADAuMDMxMTIyOABTYW1wbGVyX0ZMWDJfQW1wRW52X1N1c3RhaW5Ib2xkADEAU2FtcGxlcl9GTFgyX0FtcEVudl9TdXN0YWluTGV2ZWwAMQBTYW1wbGVyX0ZMWDJfQW1wRW52X1ZlbDJBdHRhY2sAMABTYW1wbGVyX0ZMWDJfQ3VycmVudEVudkVuYWJsZQAwAFNhbXBsZXJfRkxYMl9DdXJyZW50RW52U2VsZWN0aW9uAFBpdGNoRW52AFNhbXBsZXJfRkxYMl9FUV9FbnZfQ3VydmUAMC4wMzExMjI4AFNhbXBsZXJfRkxYMl9FUV9FbnZfSW5pdGlhbExldmVsADAuNjY2NjY2Njg3AFNhbXBsZXJfRkxYMl9FUV9FbnZfUmVsZWFzZUxldmVsADAuNjY2NjY2Njg3AFNhbXBsZXJfRkxYMl9FUV9FbnZfUmVsZWFzZVRpbWUAMABTYW1wbGVyX0ZMWDJfRW52RmlsdGVyc0VuYWJsZQAxAFNhbXBsZXJfRkxYMl9GaWx0ZXJIaUxvX0VuYWJsZQAwAFNhbXBsZXJfRkxYMl9GaWx0ZXJIaUxvX0hpRnJlcQAxAFNhbXBsZXJfRkxYMl9GaWx0ZXJIaUxvX0xvRnJlcQAwAFNhbXBsZXJfRkxYMl9LaXRQaWVjZVNlbGVjdGlvbgA1MDEwNQBTYW1wbGVyX0ZMWDJfTGV2ZWwAMC44MDAwMDAwMTIAU2FtcGxlcl9GTFgyX01pY0JhbGFuY2UAMC41AFNhbXBsZXJfRkxYMl9PSF9JbnZlcnQAMABTYW1wbGVyX0ZMWDJfT0hfTGV2ZWwAMC41AFNhbXBsZXJfRkxYMl9PSF9QYW4AMC41AFNhbXBsZXJfRkxYMl9PSF9XaWR0aAAxAFNhbXBsZXJfRkxYMl9QaXRjaEVudl9DdXJ2ZQAwLjAzMTEyMjgAU2FtcGxlcl9GTFgyX1BpdGNoRW52X0hvbGQAMABTYW1wbGVyX0ZMWDJfUGl0Y2hFbnZfT2Zmc2V0TGV2ZWwAMC40NDAwMDAwNTcAU2FtcGxlcl9GTFgyX1BpdGNoRW52X1JlbGVhc2UAMQBTYW1wbGVyX0ZMWDJfUGl0Y2hFbnZfVmVsU2VucwAwAFNhbXBsZXJfRkxYMl9QaXRjaF9Db3Vyc2UAMC4zNzA3MTAxMDUAU2FtcGxlcl9GTFgyX1BpdGNoX0VuYWJsZQAxAFNhbXBsZXJfRkxYMl9QaXRjaF9PSFJvb21PZmZzZXQAMC41AFNhbXBsZXJfRkxYMl9SZXNwb25zZUVuYWJsZQAxAFNhbXBsZXJfRkxYMl9Sb29tX0ludmVydAAwAFNhbXBsZXJfRkxYMl9Sb29tX0xldmVsADAuNQBTYW1wbGVyX0ZMWDJfUm9vbV9QYW4AMC41AFNhbXBsZXJfRkxYMl9Sb29tX1dpZHRoADEAU2FtcGxlcl9GTFgyX1VzZUFsdHMAMQBTYW1wbGVyX0ZMWDJfVmVsVG9GbHQAMABTYW1wbGVyX0ZMWDJfVmVsVG9TYW1wbGVIaQAxAFNhbXBsZXJfRkxYMl9WZWxUb1NhbXBsZUxvADAuMTUwMDAwMDA2AFNhbXBsZXJfRkxYMl9WZWxUb1ZvbAAwLjUAU2FtcGxlcl9GTFgzX0FtcEVudl9BdHRhY2sAMABTYW1wbGVyX0ZMWDNfQW1wRW52X0F0dGFja0N1cnZlADAuNQBTYW1wbGVyX0ZMWDNfQW1wRW52X0RlY2F5ADAAU2FtcGxlcl9GTFgzX0FtcEVudl9EZWNheUN1cnZlADAuMDMxMTIyOABTYW1wbGVyX0ZMWDNfQW1wRW52X0VuYWJsZQAxAFNhbXBsZXJfRkxYM19BbXBFbnZfUmVsZWFzZQAwLjY5MzcwODY1OABTYW1wbGVyX0ZMWDNfQW1wRW52X1JlbGVhc2VDdXJ2ZQAwLjAzMTEyMjgAU2FtcGxlcl9GTFgzX0FtcEVudl9TdXN0YWluSG9sZAAwAFNhbXBsZXJfRkxYM19BbXBFbnZfU3VzdGFpbkxldmVsADAuODU5OTk5OTU1AFNhbXBsZXJfRkxYM19BbXBFbnZfVmVsMkF0dGFjawAwAFNhbXBsZXJfRkxYM19DdXJyZW50RW52RW5hYmxlADEAU2FtcGxlcl9GTFgzX0N1cnJlbnRFbnZTZWxlY3Rpb24AUGl0Y2hFbnYAU2FtcGxlcl9GTFgzX0VRX0Vudl9DdXJ2ZQAwLjAzMTEyMjgAU2FtcGxlcl9GTFgzX0VRX0Vudl9Jbml0aWFsTGV2ZWwAMC42NjY2NjY2ODcAU2FtcGxlcl9GTFgzX0VRX0Vudl9SZWxlYXNlTGV2ZWwAMC42NjY2NjY2ODcAU2FtcGxlcl9GTFgzX0VRX0Vudl9SZWxlYXNlVGltZQAwAFNhbXBsZXJfRkxYM19FbnZGaWx0ZXJzRW5hYmxlADEAU2FtcGxlcl9GTFgzX0ZpbHRlckhpTG9fRW5hYmxlADAAU2FtcGxlcl9GTFgzX0ZpbHRlckhpTG9fSGlGcmVxADEAU2FtcGxlcl9GTFgzX0ZpbHRlckhpTG9fTG9GcmVxADAAU2FtcGxlcl9GTFgzX0tpdFBpZWNlU2VsZWN0aW9uADk4MTg0OABTYW1wbGVyX0ZMWDNfTGV2ZWwAMC44MDAwMDAwMTIAU2FtcGxlcl9GTFgzX01pY0JhbGFuY2UAMC41AFNhbXBsZXJfRkxYM19PSF9JbnZlcnQAMABTYW1wbGVyX0ZMWDNfT0hfTGV2ZWwAMC41AFNhbXBsZXJfRkxYM19PSF9QYW4AMC41AFNhbXBsZXJfRkxYM19PSF9XaWR0aAAxAFNhbXBsZXJfRkxYM19QaXRjaEVudl9DdXJ2ZQAwLjAzMTEyMjgAU2FtcGxlcl9GTFgzX1BpdGNoRW52X0hvbGQAMABTYW1wbGVyX0ZMWDNfUGl0Y2hFbnZfT2Zmc2V0TGV2ZWwAMC40Mzk5OTk5OTgAU2FtcGxlcl9GTFgzX1BpdGNoRW52X1JlbGVhc2UAMQBTYW1wbGVyX0ZMWDNfUGl0Y2hFbnZfVmVsU2VucwAwAFNhbXBsZXJfRkxYM19QaXRjaF9Db3Vyc2UAMC42MjQyNjEzMgBTYW1wbGVyX0ZMWDNfUGl0Y2hfRW5hYmxlADEAU2FtcGxlcl9GTFgzX1BpdGNoX09IUm9vbU9mZnNldAAwLjUAU2FtcGxlcl9GTFgzX1Jlc3BvbnNlRW5hYmxlADEAU2FtcGxlcl9GTFgzX1Jvb21fSW52ZXJ0ADAAU2FtcGxlcl9GTFgzX1Jvb21fTGV2ZWwAMC41AFNhbXBsZXJfRkxYM19Sb29tX1BhbgAwLjUAU2FtcGxlcl9GTFgzX1Jvb21fV2lkdGgAMQBTYW1wbGVyX0ZMWDNfVXNlQWx0cwAxAFNhbXBsZXJfRkxYM19WZWxUb0ZsdAAwAFNhbXBsZXJfRkxYM19WZWxUb1NhbXBsZUhpADEAU2FtcGxlcl9GTFgzX1ZlbFRvU2FtcGxlTG8AMC4xNTAwMDAwMDYAU2FtcGxlcl9GTFgzX1ZlbFRvVm9sADAuNQBTYW1wbGVyX0hIQVRfQW1wRW52X0F0dGFjawAwAFNhbXBsZXJfSEhBVF9BbXBFbnZfQXR0YWNrQ3VydmUAMC41AFNhbXBsZXJfSEhBVF9BbXBFbnZfRGVjYXkAMABTYW1wbGVyX0hIQVRfQW1wRW52X0RlY2F5Q3VydmUAMC4wMzExMjI4AFNhbXBsZXJfSEhBVF9BbXBFbnZfRW5hYmxlADAAU2FtcGxlcl9ISEFUX0FtcEVudl9SZWxlYXNlADAuNjkzNzA4NjU4AFNhbXBsZXJfSEhBVF9BbXBFbnZfUmVsZWFzZUN1cnZlADAuMDMxMTIyOABTYW1wbGVyX0hIQVRfQW1wRW52X1N1c3RhaW5Ib2xkADAuOTA2OTk0NDAyAFNhbXBsZXJfSEhBVF9BbXBFbnZfU3VzdGFpbkxldmVsADEAU2FtcGxlcl9ISEFUX0FtcEVudl9WZWwyQXR0YWNrADAAU2FtcGxlcl9ISEFUX0N1cnJlbnRFbnZFbmFibGUAMABTYW1wbGVyX0hIQVRfQ3VycmVudEVudlNlbGVjdGlvbgBQaXRjaEVudgBTYW1wbGVyX0hIQVRfRVFfRW52X0N1cnZlADAuMDMxMTIyOABTYW1wbGVyX0hIQVRfRVFfRW52X0luaXRpYWxMZXZlbAAwLjY2NjY2NjY4NwBTYW1wbGVyX0hIQVRfRVFfRW52X1JlbGVhc2VMZXZlbAAwLjY2NjY2NjY4NwBTYW1wbGVyX0hIQVRfRVFfRW52X1JlbGVhc2VUaW1lADAAU2FtcGxlcl9ISEFUX0VudkZpbHRlcnNFbmFibGUAMABTYW1wbGVyX0hIQVRfRmlsdGVySGlMb19FbmFibGUAMABTYW1wbGVyX0hIQVRfRmlsdGVySGlMb19IaUZyZXEAMQBTYW1wbGVyX0hIQVRfRmlsdGVySGlMb19Mb0ZyZXEAMABTYW1wbGVyX0hIQVRfS2l0UGllY2VTZWxlY3Rpb24AMTAwMzAyAFNhbXBsZXJfSEhBVF9MZXZlbAAwLjc1Nzk4MjMxNABTYW1wbGVyX0hIQVRfTWljQmFsYW5jZQAwLjUAU2FtcGxlcl9ISEFUX09IX0ludmVydAAwAFNhbXBsZXJfSEhBVF9PSF9MZXZlbAAwAFNhbXBsZXJfSEhBVF9PSF9QYW4AMC41AFNhbXBsZXJfSEhBVF9PSF9XaWR0aAAxAFNhbXBsZXJfSEhBVF9QaXRjaEVudl9DdXJ2ZQAwLjAzMTEyMjgAU2FtcGxlcl9ISEFUX1BpdGNoRW52X0hvbGQAMABTYW1wbGVyX0hIQVRfUGl0Y2hFbnZfT2Zmc2V0TGV2ZWwAMC41AFNhbXBsZXJfSEhBVF9QaXRjaEVudl9SZWxlYXNlADAAU2FtcGxlcl9ISEFUX1BpdGNoRW52X1ZlbFNlbnMAMABTYW1wbGVyX0hIQVRfUGl0Y2hfQ291cnNlADAuNQBTYW1wbGVyX0hIQVRfUGl0Y2hfRW5hYmxlADAAU2FtcGxlcl9ISEFUX1BpdGNoX09IUm9vbU9mZnNldAAwLjUAU2FtcGxlcl9ISEFUX1Jlc3BvbnNlRW5hYmxlADEAU2FtcGxlcl9ISEFUX1Jvb21fSW52ZXJ0ADAAU2FtcGxlcl9ISEFUX1Jvb21fTGV2ZWwAMABTYW1wbGVyX0hIQVRfUm9vbV9QYW4AMC41AFNhbXBsZXJfSEhBVF9Sb29tX1dpZHRoADEAU2FtcGxlcl9ISEFUX1VzZUFsdHMAMQBTYW1wbGVyX0hIQVRfVmVsVG9GbHQAMABTYW1wbGVyX0hIQVRfVmVsVG9TYW1wbGVIaQAxAFNhbXBsZXJfSEhBVF9WZWxUb1NhbXBsZUxvADAuMTUwMDAwMDA2AFNhbXBsZXJfSEhBVF9WZWxUb1ZvbAAwLjUAU2FtcGxlcl9LSUNLX0FtcEVudl9BdHRhY2sAMABTYW1wbGVyX0tJQ0tfQW1wRW52X0F0dGFja0N1cnZlADAuNQBTYW1wbGVyX0tJQ0tfQW1wRW52X0RlY2F5ADAAU2FtcGxlcl9LSUNLX0FtcEVudl9EZWNheUN1cnZlADAuMDMxMTIyOABTYW1wbGVyX0tJQ0tfQW1wRW52X0VuYWJsZQAwAFNhbXBsZXJfS0lDS19BbXBFbnZfUmVsZWFzZQAwLjY5MzcwODY1OABTYW1wbGVyX0tJQ0tfQW1wRW52X1JlbGVhc2VDdXJ2ZQAwLjAzMTEyMjgAU2FtcGxlcl9LSUNLX0FtcEVudl9TdXN0YWluSG9sZAAwLjkwNjk5NDQwMgBTYW1wbGVyX0tJQ0tfQW1wRW52X1N1c3RhaW5MZXZlbAAxAFNhbXBsZXJfS0lDS19BbXBFbnZfVmVsMkF0dGFjawAwAFNhbXBsZXJfS0lDS19DdXJyZW50RW52RW5hYmxlADAAU2FtcGxlcl9LSUNLX0N1cnJlbnRFbnZTZWxlY3Rpb24AUGl0Y2hFbnYAU2FtcGxlcl9LSUNLX0VRX0Vudl9DdXJ2ZQAwLjAzMTEyMjgAU2FtcGxlcl9LSUNLX0VRX0Vudl9Jbml0aWFsTGV2ZWwAMC42NjY2NjY2ODcAU2FtcGxlcl9LSUNLX0VRX0Vudl9SZWxlYXNlTGV2ZWwAMC42NjY2NjY2ODcAU2FtcGxlcl9LSUNLX0VRX0Vudl9SZWxlYXNlVGltZQAwAFNhbXBsZXJfS0lDS19FbnZGaWx0ZXJzRW5hYmxlADEAU2FtcGxlcl9LSUNLX0ZpbHRlckhpTG9fRW5hYmxlADAAU2FtcGxlcl9LSUNLX0ZpbHRlckhpTG9fSGlGcmVxADEAU2FtcGxlcl9LSUNLX0ZpbHRlckhpTG9fTG9GcmVxADAAU2FtcGxlcl9LSUNLX0tpdFBpZWNlU2VsZWN0aW9uADUwMTA1AFNhbXBsZXJfS0lDS19MZXZlbAAwLjc1Nzk4MjMxNABTYW1wbGVyX0tJQ0tfTWljQmFsYW5jZQAwLjUAU2FtcGxlcl9LSUNLX09IX0ludmVydAAwAFNhbXBsZXJfS0lDS19PSF9MZXZlbAAwAFNhbXBsZXJfS0lDS19PSF9QYW4AMC41AFNhbXBsZXJfS0lDS19PSF9XaWR0aAAxAFNhbXBsZXJfS0lDS19QaXRjaEVudl9DdXJ2ZQAwLjAzMTEyMjgAU2FtcGxlcl9LSUNLX1BpdGNoRW52X0hvbGQAMABTYW1wbGVyX0tJQ0tfUGl0Y2hFbnZfT2Zmc2V0TGV2ZWwAMC41AFNhbXBsZXJfS0lDS19QaXRjaEVudl9SZWxlYXNlADAAU2FtcGxlcl9LSUNLX1BpdGNoRW52X1ZlbFNlbnMAMABTYW1wbGVyX0tJQ0tfUGl0Y2hfQ291cnNlADAuNQBTYW1wbGVyX0tJQ0tfUGl0Y2hfRW5hYmxlADAAU2FtcGxlcl9LSUNLX1BpdGNoX09IUm9vbU9mZnNldAAwLjUAU2FtcGxlcl9LSUNLX1Jlc3BvbnNlRW5hYmxlADEAU2FtcGxlcl9LSUNLX1Jvb21fSW52ZXJ0ADAAU2FtcGxlcl9LSUNLX1Jvb21fTGV2ZWwAMC4wMzk5OTk5OTkxAFNhbXBsZXJfS0lDS19Sb29tX1BhbgAwLjUAU2FtcGxlcl9LSUNLX1Jvb21fV2lkdGgAMQBTYW1wbGVyX0tJQ0tfVXNlQWx0cwAxAFNhbXBsZXJfS0lDS19WZWxUb0ZsdAAwAFNhbXBsZXJfS0lDS19WZWxUb1NhbXBsZUhpADEAU2FtcGxlcl9LSUNLX1ZlbFRvU2FtcGxlTG8AMC4xNTAwMDAwMDYAU2FtcGxlcl9LSUNLX1ZlbFRvVm9sADAuNQBTYW1wbGVyX1BpdGNoQmVuZFJhbmdlRG93bgAtMgBTYW1wbGVyX1BpdGNoQmVuZFJhbmdlVXAAMgBTYW1wbGVyX1JJRDFfQW1wRW52X0F0dGFjawAwAFNhbXBsZXJfUklEMV9BbXBFbnZfQXR0YWNrQ3VydmUAMC41AFNhbXBsZXJfUklEMV9BbXBFbnZfRGVjYXkAMABTYW1wbGVyX1JJRDFfQW1wRW52X0RlY2F5Q3VydmUAMC4wMzExMjI4AFNhbXBsZXJfUklEMV9BbXBFbnZfRW5hYmxlADAAU2FtcGxlcl9SSUQxX0FtcEVudl9SZWxlYXNlADAuNjkzNzA4NjU4AFNhbXBsZXJfUklEMV9BbXBFbnZfUmVsZWFzZUN1cnZlADAuMDMxMTIyOABTYW1wbGVyX1JJRDFfQW1wRW52X1N1c3RhaW5Ib2xkADAuOTA2OTk0NDAyAFNhbXBsZXJfUklEMV9BbXBFbnZfU3VzdGFpbkxldmVsADEAU2FtcGxlcl9SSUQxX0FtcEVudl9WZWwyQXR0YWNrADAAU2FtcGxlcl9SSUQxX0N1cnJlbnRFbnZFbmFibGUAMABTYW1wbGVyX1JJRDFfQ3VycmVudEVudlNlbGVjdGlvbgBQaXRjaEVudgBTYW1wbGVyX1JJRDFfRVFfRW52X0N1cnZlADAuMDMxMTIyOABTYW1wbGVyX1JJRDFfRVFfRW52X0luaXRpYWxMZXZlbAAwLjY2NjY2NjY4NwBTYW1wbGVyX1JJRDFfRVFfRW52X1JlbGVhc2VMZXZlbAAwLjY2NjY2NjY4NwBTYW1wbGVyX1JJRDFfRVFfRW52X1JlbGVhc2VUaW1lADAAU2FtcGxlcl9SSUQxX0VudkZpbHRlcnNFbmFibGUAMABTYW1wbGVyX1JJRDFfRmlsdGVySGlMb19FbmFibGUAMABTYW1wbGVyX1JJRDFfRmlsdGVySGlMb19IaUZyZXEAMQBTYW1wbGVyX1JJRDFfRmlsdGVySGlMb19Mb0ZyZXEAMABTYW1wbGVyX1JJRDFfS2l0UGllY2VTZWxlY3Rpb24ANTEwMDUAU2FtcGxlcl9SSUQxX0xldmVsADAuNzAwMjAxMjEzAFNhbXBsZXJfUklEMV9NaWNCYWxhbmNlADAuNQBTYW1wbGVyX1JJRDFfT0hfSW52ZXJ0ADAAU2FtcGxlcl9SSUQxX09IX0xldmVsADAuNQBTYW1wbGVyX1JJRDFfT0hfUGFuADAuNQBTYW1wbGVyX1JJRDFfT0hfV2lkdGgAMQBTYW1wbGVyX1JJRDFfUGl0Y2hFbnZfQ3VydmUAMC4wMzExMjI4AFNhbXBsZXJfUklEMV9QaXRjaEVudl9Ib2xkADAAU2FtcGxlcl9SSUQxX1BpdGNoRW52X09mZnNldExldmVsADAuNQBTYW1wbGVyX1JJRDFfUGl0Y2hFbnZfUmVsZWFzZQAwAFNhbXBsZXJfUklEMV9QaXRjaEVudl9WZWxTZW5zADAAU2FtcGxlcl9SSUQxX1BpdGNoX0NvdXJzZQAwLjUAU2FtcGxlcl9SSUQxX1BpdGNoX0VuYWJsZQAwAFNhbXBsZXJfUklEMV9QaXRjaF9PSFJvb21PZmZzZXQAMC41AFNhbXBsZXJfUklEMV9SZXNwb25zZUVuYWJsZQAxAFNhbXBsZXJfUklEMV9Sb29tX0ludmVydAAwAFNhbXBsZXJfUklEMV9Sb29tX0xldmVsADAAU2FtcGxlcl9SSUQxX1Jvb21fUGFuADAuNQBTYW1wbGVyX1JJRDFfUm9vbV9XaWR0aAAxAFNhbXBsZXJfUklEMV9Vc2VBbHRzADEAU2FtcGxlcl9SSUQxX1ZlbFRvRmx0ADAAU2FtcGxlcl9SSUQxX1ZlbFRvU2FtcGxlSGkAMQBTYW1wbGVyX1JJRDFfVmVsVG9TYW1wbGVMbwAwLjE1MDAwMDAwNgBTYW1wbGVyX1JJRDFfVmVsVG9Wb2wAMC41AFNhbXBsZXJfUklEMl9BbXBFbnZfQXR0YWNrADAAU2FtcGxlcl9SSUQyX0FtcEVudl9BdHRhY2tDdXJ2ZQAwLjUAU2FtcGxlcl9SSUQyX0FtcEVudl9EZWNheQAwAFNhbXBsZXJfUklEMl9BbXBFbnZfRGVjYXlDdXJ2ZQAwLjAzMTEyMjgAU2FtcGxlcl9SSUQyX0FtcEVudl9FbmFibGUAMABTYW1wbGVyX1JJRDJfQW1wRW52X1JlbGVhc2UAMQBTYW1wbGVyX1JJRDJfQW1wRW52X1JlbGVhc2VDdXJ2ZQAwLjAzMTEyMjgAU2FtcGxlcl9SSUQyX0FtcEVudl9TdXN0YWluSG9sZAAxAFNhbXBsZXJfUklEMl9BbXBFbnZfU3VzdGFpbkxldmVsADEAU2FtcGxlcl9SSUQyX0FtcEVudl9WZWwyQXR0YWNrADAAU2FtcGxlcl9SSUQyX0N1cnJlbnRFbnZFbmFibGUAMABTYW1wbGVyX1JJRDJfQ3VycmVudEVudlNlbGVjdGlvbgBQaXRjaEVudgBTYW1wbGVyX1JJRDJfRVFfRW52X0N1cnZlADAuMDMxMTIyOABTYW1wbGVyX1JJRDJfRVFfRW52X0luaXRpYWxMZXZlbAAwLjY2NjY2NjY4NwBTYW1wbGVyX1JJRDJfRVFfRW52X1JlbGVhc2VMZXZlbAAwLjY2NjY2NjY4NwBTYW1wbGVyX1JJRDJfRVFfRW52X1JlbGVhc2VUaW1lADAAU2FtcGxlcl9SSUQyX0VudkZpbHRlcnNFbmFibGUAMQBTYW1wbGVyX1JJRDJfRmlsdGVySGlMb19FbmFibGUAMABTYW1wbGVyX1JJRDJfRmlsdGVySGlMb19IaUZyZXEAMQBTYW1wbGVyX1JJRDJfRmlsdGVySGlMb19Mb0ZyZXEAMABTYW1wbGVyX1JJRDJfS2l0UGllY2VTZWxlY3Rpb24AMABTYW1wbGVyX1JJRDJfTGV2ZWwAMC44MDAwMDAwMTIAU2FtcGxlcl9SSUQyX01pY0JhbGFuY2UAMC41AFNhbXBsZXJfUklEMl9PSF9JbnZlcnQAMABTYW1wbGVyX1JJRDJfT0hfTGV2ZWwAMC41AFNhbXBsZXJfUklEMl9PSF9QYW4AMC41AFNhbXBsZXJfUklEMl9PSF9XaWR0aAAxAFNhbXBsZXJfUklEMl9QaXRjaEVudl9DdXJ2ZQAwLjAzMTEyMjgAU2FtcGxlcl9SSUQyX1BpdGNoRW52X0hvbGQAMABTYW1wbGVyX1JJRDJfUGl0Y2hFbnZfT2Zmc2V0TGV2ZWwAMC41AFNhbXBsZXJfUklEMl9QaXRjaEVudl9SZWxlYXNlADAAU2FtcGxlcl9SSUQyX1BpdGNoRW52X1ZlbFNlbnMAMABTYW1wbGVyX1JJRDJfUGl0Y2hfQ291cnNlADAuNQBTYW1wbGVyX1JJRDJfUGl0Y2hfRW5hYmxlADAAU2FtcGxlcl9SSUQyX1BpdGNoX09IUm9vbU9mZnNldAAwLjUAU2FtcGxlcl9SSUQyX1Jlc3BvbnNlRW5hYmxlADEAU2FtcGxlcl9SSUQyX1Jvb21fSW52ZXJ0ADAAU2FtcGxlcl9SSUQyX1Jvb21fTGV2ZWwAMC41AFNhbXBsZXJfUklEMl9Sb29tX1BhbgAwLjUAU2FtcGxlcl9SSUQyX1Jvb21fV2lkdGgAMQBTYW1wbGVyX1JJRDJfVXNlQWx0cwAxAFNhbXBsZXJfUklEMl9WZWxUb0ZsdAAwAFNhbXBsZXJfUklEMl9WZWxUb1NhbXBsZUhpADEAU2FtcGxlcl9SSUQyX1ZlbFRvU2FtcGxlTG8AMC4xNTAwMDAwMDYAU2FtcGxlcl9SSUQyX1ZlbFRvVm9sADAuNQBTYW1wbGVyX1NOQVJfQW1wRW52X0F0dGFjawAwAFNhbXBsZXJfU05BUl9BbXBFbnZfQXR0YWNrQ3VydmUAMC41AFNhbXBsZXJfU05BUl9BbXBFbnZfRGVjYXkAMABTYW1wbGVyX1NOQVJfQW1wRW52X0RlY2F5Q3VydmUAMC4wMzExMjI4AFNhbXBsZXJfU05BUl9BbXBFbnZfRW5hYmxlADEAU2FtcGxlcl9TTkFSX0FtcEVudl9SZWxlYXNlADAuNjkzNzA4NjU4AFNhbXBsZXJfU05BUl9BbXBFbnZfUmVsZWFzZUN1cnZlADAuMDMxMTIyOABTYW1wbGVyX1NOQVJfQW1wRW52X1N1c3RhaW5Ib2xkADAuMjc2MjUzOTY4AFNhbXBsZXJfU05BUl9BbXBFbnZfU3VzdGFpbkxldmVsADEAU2FtcGxlcl9TTkFSX0FtcEVudl9WZWwyQXR0YWNrADAAU2FtcGxlcl9TTkFSX0N1cnJlbnRFbnZFbmFibGUAMQBTYW1wbGVyX1NOQVJfQ3VycmVudEVudlNlbGVjdGlvbgBQaXRjaEVudgBTYW1wbGVyX1NOQVJfRVFfRW52X0N1cnZlADAuMDMxMTIyOABTYW1wbGVyX1NOQVJfRVFfRW52X0luaXRpYWxMZXZlbAAwLjY2NjY2NjY4NwBTYW1wbGVyX1NOQVJfRVFfRW52X1JlbGVhc2VMZXZlbAAwLjY2NjY2NjY4NwBTYW1wbGVyX1NOQVJfRVFfRW52X1JlbGVhc2VUaW1lADAAU2FtcGxlcl9TTkFSX0VudkZpbHRlcnNFbmFibGUAMQBTYW1wbGVyX1NOQVJfRmlsdGVySGlMb19FbmFibGUAMABTYW1wbGVyX1NOQVJfRmlsdGVySGlMb19IaUZyZXEAMQBTYW1wbGVyX1NOQVJfRmlsdGVySGlMb19Mb0ZyZXEAMABTYW1wbGVyX1NOQVJfS2l0UGllY2VTZWxlY3Rpb24ANTAyMDEAU2FtcGxlcl9TTkFSX0xldmVsADAuNzU3OTgyMzE0AFNhbXBsZXJfU05BUl9NaWNCYWxhbmNlADAuNQBTYW1wbGVyX1NOQVJfT0hfSW52ZXJ0ADAAU2FtcGxlcl9TTkFSX09IX0xldmVsADAAU2FtcGxlcl9TTkFSX09IX1BhbgAwLjUAU2FtcGxlcl9TTkFSX09IX1dpZHRoADEAU2FtcGxlcl9TTkFSX1BpdGNoRW52X0N1cnZlADAuMDMxMTIyOABTYW1wbGVyX1NOQVJfUGl0Y2hFbnZfSG9sZAAwAFNhbXBsZXJfU05BUl9QaXRjaEVudl9PZmZzZXRMZXZlbAAwLjQ0MDAwMDQxNQBTYW1wbGVyX1NOQVJfUGl0Y2hFbnZfUmVsZWFzZQAxAFNhbXBsZXJfU05BUl9QaXRjaEVudl9WZWxTZW5zADAAU2FtcGxlcl9TTkFSX1BpdGNoX0NvdXJzZQAwLjYxNzgyNDY3NABTYW1wbGVyX1NOQVJfUGl0Y2hfRW5hYmxlADEAU2FtcGxlcl9TTkFSX1BpdGNoX09IUm9vbU9mZnNldAAwLjUAU2FtcGxlcl9TTkFSX1Jlc3BvbnNlRW5hYmxlADEAU2FtcGxlcl9TTkFSX1Jvb21fSW52ZXJ0ADAAU2FtcGxlcl9TTkFSX1Jvb21fTGV2ZWwAMC4xMDAwMDAwMDEAU2FtcGxlcl9TTkFSX1Jvb21fUGFuADAuNQBTYW1wbGVyX1NOQVJfUm9vbV9XaWR0aAAxAFNhbXBsZXJfU05BUl9Vc2VBbHRzADEAU2FtcGxlcl9TTkFSX1ZlbFRvRmx0ADAAU2FtcGxlcl9TTkFSX1ZlbFRvU2FtcGxlSGkAMQBTYW1wbGVyX1NOQVJfVmVsVG9TYW1wbGVMbwAwLjE1MDAwMDAwNgBTYW1wbGVyX1NOQVJfVmVsVG9Wb2wAMC41AFNhbXBsZXJfVE9NMV9BbXBFbnZfQXR0YWNrADAAU2FtcGxlcl9UT00xX0FtcEVudl9BdHRhY2tDdXJ2ZQAwLjUAU2FtcGxlcl9UT00xX0FtcEVudl9EZWNheQAwAFNhbXBsZXJfVE9NMV9BbXBFbnZfRGVjYXlDdXJ2ZQAwLjAzMTEyMjgAU2FtcGxlcl9UT00xX0FtcEVudl9FbmFibGUAMABTYW1wbGVyX1RPTTFfQW1wRW52X1JlbGVhc2UAMC42OTM3MDg2NTgAU2FtcGxlcl9UT00xX0FtcEVudl9SZWxlYXNlQ3VydmUAMC4wMzExMjI4AFNhbXBsZXJfVE9NMV9BbXBFbnZfU3VzdGFpbkhvbGQAMC45MDY5OTQ0MDIAU2FtcGxlcl9UT00xX0FtcEVudl9TdXN0YWluTGV2ZWwAMQBTYW1wbGVyX1RPTTFfQW1wRW52X1ZlbDJBdHRhY2sAMABTYW1wbGVyX1RPTTFfQ3VycmVudEVudkVuYWJsZQAwAFNhbXBsZXJfVE9NMV9DdXJyZW50RW52U2VsZWN0aW9uAFBpdGNoRW52AFNhbXBsZXJfVE9NMV9FUV9FbnZfQ3VydmUAMC4wMzExMjI4AFNhbXBsZXJfVE9NMV9FUV9FbnZfSW5pdGlhbExldmVsADAuNjY2NjY2Njg3AFNhbXBsZXJfVE9NMV9FUV9FbnZfUmVsZWFzZUxldmVsADAuNjY2NjY2Njg3AFNhbXBsZXJfVE9NMV9FUV9FbnZfUmVsZWFzZVRpbWUAMABTYW1wbGVyX1RPTTFfRW52RmlsdGVyc0VuYWJsZQAwAFNhbXBsZXJfVE9NMV9GaWx0ZXJIaUxvX0VuYWJsZQAwAFNhbXBsZXJfVE9NMV9GaWx0ZXJIaUxvX0hpRnJlcQAxAFNhbXBsZXJfVE9NMV9GaWx0ZXJIaUxvX0xvRnJlcQAwAFNhbXBsZXJfVE9NMV9LaXRQaWVjZVNlbGVjdGlvbgA1MDQwNQBTYW1wbGVyX1RPTTFfTGV2ZWwAMC43NTc5ODIzMTQAU2FtcGxlcl9UT00xX01pY0JhbGFuY2UAMC41AFNhbXBsZXJfVE9NMV9PSF9JbnZlcnQAMABTYW1wbGVyX1RPTTFfT0hfTGV2ZWwAMABTYW1wbGVyX1RPTTFfT0hfUGFuADAuNQBTYW1wbGVyX1RPTTFfT0hfV2lkdGgAMQBTYW1wbGVyX1RPTTFfUGl0Y2hFbnZfQ3VydmUAMC4wMzExMjI4AFNhbXBsZXJfVE9NMV9QaXRjaEVudl9Ib2xkADAAU2FtcGxlcl9UT00xX1BpdGNoRW52X09mZnNldExldmVsADAuNQBTYW1wbGVyX1RPTTFfUGl0Y2hFbnZfUmVsZWFzZQAwAFNhbXBsZXJfVE9NMV9QaXRjaEVudl9WZWxTZW5zADAAU2FtcGxlcl9UT00xX1BpdGNoX0NvdXJzZQAwLjUAU2FtcGxlcl9UT00xX1BpdGNoX0VuYWJsZQAwAFNhbXBsZXJfVE9NMV9QaXRjaF9PSFJvb21PZmZzZXQAMC41AFNhbXBsZXJfVE9NMV9SZXNwb25zZUVuYWJsZQAxAFNhbXBsZXJfVE9NMV9Sb29tX0ludmVydAAwAFNhbXBsZXJfVE9NMV9Sb29tX0xldmVsADAAU2FtcGxlcl9UT00xX1Jvb21fUGFuADAuNQBTYW1wbGVyX1RPTTFfUm9vbV9XaWR0aAAxAFNhbXBsZXJfVE9NMV9Vc2VBbHRzADEAU2FtcGxlcl9UT00xX1ZlbFRvRmx0ADAAU2FtcGxlcl9UT00xX1ZlbFRvU2FtcGxlSGkAMQBTYW1wbGVyX1RPTTFfVmVsVG9TYW1wbGVMbwAwLjE1MDAwMDAwNgBTYW1wbGVyX1RPTTFfVmVsVG9Wb2wAMC41AFNhbXBsZXJfVE9NMl9BbXBFbnZfQXR0YWNrADAAU2FtcGxlcl9UT00yX0FtcEVudl9BdHRhY2tDdXJ2ZQAwLjUAU2FtcGxlcl9UT00yX0FtcEVudl9EZWNheQAwAFNhbXBsZXJfVE9NMl9BbXBFbnZfRGVjYXlDdXJ2ZQAwLjAzMTEyMjgAU2FtcGxlcl9UT00yX0FtcEVudl9FbmFibGUAMABTYW1wbGVyX1RPTTJfQW1wRW52X1JlbGVhc2UAMC42OTM3MDg2NTgAU2FtcGxlcl9UT00yX0FtcEVudl9SZWxlYXNlQ3VydmUAMC4wMzExMjI4AFNhbXBsZXJfVE9NMl9BbXBFbnZfU3VzdGFpbkhvbGQAMC45MDY5OTQ0MDIAU2FtcGxlcl9UT00yX0FtcEVudl9TdXN0YWluTGV2ZWwAMQBTYW1wbGVyX1RPTTJfQW1wRW52X1ZlbDJBdHRhY2sAMABTYW1wbGVyX1RPTTJfQ3VycmVudEVudkVuYWJsZQAwAFNhbXBsZXJfVE9NMl9DdXJyZW50RW52U2VsZWN0aW9uAFBpdGNoRW52AFNhbXBsZXJfVE9NMl9FUV9FbnZfQ3VydmUAMC4wMzExMjI4AFNhbXBsZXJfVE9NMl9FUV9FbnZfSW5pdGlhbExldmVsADAuNjY2NjY2Njg3AFNhbXBsZXJfVE9NMl9FUV9FbnZfUmVsZWFzZUxldmVsADAuNjY2NjY2Njg3AFNhbXBsZXJfVE9NMl9FUV9FbnZfUmVsZWFzZVRpbWUAMABTYW1wbGVyX1RPTTJfRW52RmlsdGVyc0VuYWJsZQAwAFNhbXBsZXJfVE9NMl9GaWx0ZXJIaUxvX0VuYWJsZQAwAFNhbXBsZXJfVE9NMl9GaWx0ZXJIaUxvX0hpRnJlcQAxAFNhbXBsZXJfVE9NMl9GaWx0ZXJIaUxvX0xvRnJlcQAwAFNhbXBsZXJfVE9NMl9LaXRQaWVjZVNlbGVjdGlvbgA1MDUwNQBTYW1wbGVyX1RPTTJfTGV2ZWwAMC43NTc5ODIzMTQAU2FtcGxlcl9UT00yX01pY0JhbGFuY2UAMC41AFNhbXBsZXJfVE9NMl9PSF9JbnZlcnQAMABTYW1wbGVyX1RPTTJfT0hfTGV2ZWwAMABTYW1wbGVyX1RPTTJfT0hfUGFuADAuNQBTYW1wbGVyX1RPTTJfT0hfV2lkdGgAMQBTYW1wbGVyX1RPTTJfUGl0Y2hFbnZfQ3VydmUAMC4wMzExMjI4AFNhbXBsZXJfVE9NMl9QaXRjaEVudl9Ib2xkADAAU2FtcGxlcl9UT00yX1BpdGNoRW52X09mZnNldExldmVsADAuNQBTYW1wbGVyX1RPTTJfUGl0Y2hFbnZfUmVsZWFzZQAwAFNhbXBsZXJfVE9NMl9QaXRjaEVudl9WZWxTZW5zADAAU2FtcGxlcl9UT00yX1BpdGNoX0NvdXJzZQAwLjUAU2FtcGxlcl9UT00yX1BpdGNoX0VuYWJsZQAwAFNhbXBsZXJfVE9NMl9QaXRjaF9PSFJvb21PZmZzZXQAMC41AFNhbXBsZXJfVE9NMl9SZXNwb25zZUVuYWJsZQAxAFNhbXBsZXJfVE9NMl9Sb29tX0ludmVydAAwAFNhbXBsZXJfVE9NMl9Sb29tX0xldmVsADAAU2FtcGxlcl9UT00yX1Jvb21fUGFuADAuNQBTYW1wbGVyX1RPTTJfUm9vbV9XaWR0aAAxAFNhbXBsZXJfVE9NMl9Vc2VBbHRzADEAU2FtcGxlcl9UT00yX1ZlbFRvRmx0ADAAU2FtcGxlcl9UT00yX1ZlbFRvU2FtcGxlSGkAMQBTYW1wbGVyX1RPTTJfVmVsVG9TYW1wbGVMbwAwLjE1MDAwMDAwNgBTYW1wbGVyX1RPTTJfVmVsVG9Wb2wAMC41AFNhbXBsZXJfVE9NM19BbXBFbnZfQXR0YWNrADAAU2FtcGxlcl9UT00zX0FtcEVudl9BdHRhY2tDdXJ2ZQAwLjUAU2FtcGxlcl9UT00zX0FtcEVudl9EZWNheQAwAFNhbXBsZXJfVE9NM19BbXBFbnZfRGVjYXlDdXJ2ZQAwLjAzMTEyMjgAU2FtcGxlcl9UT00zX0FtcEVudl9FbmFibGUAMABTYW1wbGVyX1RPTTNfQW1wRW52X1JlbGVhc2UAMC42OTM3MDg2NTgAU2FtcGxlcl9UT00zX0FtcEVudl9SZWxlYXNlQ3VydmUAMC4wMzExMjI4AFNhbXBsZXJfVE9NM19BbXBFbnZfU3VzdGFpbkhvbGQAMC45MDY5OTQ0MDIAU2FtcGxlcl9UT00zX0FtcEVudl9TdXN0YWluTGV2ZWwAMQBTYW1wbGVyX1RPTTNfQW1wRW52X1ZlbDJBdHRhY2sAMABTYW1wbGVyX1RPTTNfQ3VycmVudEVudkVuYWJsZQAwAFNhbXBsZXJfVE9NM19DdXJyZW50RW52U2VsZWN0aW9uAFBpdGNoRW52AFNhbXBsZXJfVE9NM19FUV9FbnZfQ3VydmUAMC4wMzExMjI4AFNhbXBsZXJfVE9NM19FUV9FbnZfSW5pdGlhbExldmVsADAuNjY2NjY2Njg3AFNhbXBsZXJfVE9NM19FUV9FbnZfUmVsZWFzZUxldmVsADAuNjY2NjY2Njg3AFNhbXBsZXJfVE9NM19FUV9FbnZfUmVsZWFzZVRpbWUAMABTYW1wbGVyX1RPTTNfRW52RmlsdGVyc0VuYWJsZQAwAFNhbXBsZXJfVE9NM19GaWx0ZXJIaUxvX0VuYWJsZQAwAFNhbXBsZXJfVE9NM19GaWx0ZXJIaUxvX0hpRnJlcQAxAFNhbXBsZXJfVE9NM19GaWx0ZXJIaUxvX0xvRnJlcQAwAFNhbXBsZXJfVE9NM19LaXRQaWVjZVNlbGVjdGlvbgA1MDYwNQBTYW1wbGVyX1RPTTNfTGV2ZWwAMC43NTc5ODIzMTQAU2FtcGxlcl9UT00zX01pY0JhbGFuY2UAMC41AFNhbXBsZXJfVE9NM19PSF9JbnZlcnQAMABTYW1wbGVyX1RPTTNfT0hfTGV2ZWwAMABTYW1wbGVyX1RPTTNfT0hfUGFuADAuNQBTYW1wbGVyX1RPTTNfT0hfV2lkdGgAMQBTYW1wbGVyX1RPTTNfUGl0Y2hFbnZfQ3VydmUAMC4wMzExMjI4AFNhbXBsZXJfVE9NM19QaXRjaEVudl9Ib2xkADAAU2FtcGxlcl9UT00zX1BpdGNoRW52X09mZnNldExldmVsADAuNQBTYW1wbGVyX1RPTTNfUGl0Y2hFbnZfUmVsZWFzZQAwAFNhbXBsZXJfVE9NM19QaXRjaEVudl9WZWxTZW5zADAAU2FtcGxlcl9UT00zX1BpdGNoX0NvdXJzZQAwLjUAU2FtcGxlcl9UT00zX1BpdGNoX0VuYWJsZQAwAFNhbXBsZXJfVE9NM19QaXRjaF9PSFJvb21PZmZzZXQAMC41AFNhbXBsZXJfVE9NM19SZXNwb25zZUVuYWJsZQAxAFNhbXBsZXJfVE9NM19Sb29tX0ludmVydAAwAFNhbXBsZXJfVE9NM19Sb29tX0xldmVsADAAU2FtcGxlcl9UT00zX1Jvb21fUGFuADAuNQBTYW1wbGVyX1RPTTNfUm9vbV9XaWR0aAAxAFNhbXBsZXJfVE9NM19Vc2VBbHRzADEAU2FtcGxlcl9UT00zX1ZlbFRvRmx0ADAAU2FtcGxlcl9UT00zX1ZlbFRvU2FtcGxlSGkAMQBTYW1wbGVyX1RPTTNfVmVsVG9TYW1wbGVMbwAwLjE1MDAwMDAwNgBTYW1wbGVyX1RPTTNfVmVsVG9Wb2wAMC41AFNhbXBsZXJfVE9NNF9BbXBFbnZfQXR0YWNrADAAU2FtcGxlcl9UT000X0FtcEVudl9BdHRhY2tDdXJ2ZQAwLjUAU2FtcGxlcl9UT000X0FtcEVudl9EZWNheQAwAFNhbXBsZXJfVE9NNF9BbXBFbnZfRGVjYXlDdXJ2ZQAwLjAzMTEyMjgAU2FtcGxlcl9UT000X0FtcEVudl9FbmFibGUAMABTYW1wbGVyX1RPTTRfQW1wRW52X1JlbGVhc2UAMC42OTM3MDg2NTgAU2FtcGxlcl9UT000X0FtcEVudl9SZWxlYXNlQ3VydmUAMC4wMzExMjI4AFNhbXBsZXJfVE9NNF9BbXBFbnZfU3VzdGFpbkhvbGQAMC45MDY5OTQ0MDIAU2FtcGxlcl9UT000X0FtcEVudl9TdXN0YWluTGV2ZWwAMQBTYW1wbGVyX1RPTTRfQW1wRW52X1ZlbDJBdHRhY2sAMABTYW1wbGVyX1RPTTRfQ3VycmVudEVudkVuYWJsZQAwAFNhbXBsZXJfVE9NNF9DdXJyZW50RW52U2VsZWN0aW9uAFBpdGNoRW52AFNhbXBsZXJfVE9NNF9FUV9FbnZfQ3VydmUAMC4wMzExMjI4AFNhbXBsZXJfVE9NNF9FUV9FbnZfSW5pdGlhbExldmVsADAuNjY2NjY2Njg3AFNhbXBsZXJfVE9NNF9FUV9FbnZfUmVsZWFzZUxldmVsADAuNjY2NjY2Njg3AFNhbXBsZXJfVE9NNF9FUV9FbnZfUmVsZWFzZVRpbWUAMABTYW1wbGVyX1RPTTRfRW52RmlsdGVyc0VuYWJsZQAwAFNhbXBsZXJfVE9NNF9GaWx0ZXJIaUxvX0VuYWJsZQAwAFNhbXBsZXJfVE9NNF9GaWx0ZXJIaUxvX0hpRnJlcQAxAFNhbXBsZXJfVE9NNF9GaWx0ZXJIaUxvX0xvRnJlcQAwAFNhbXBsZXJfVE9NNF9LaXRQaWVjZVNlbGVjdGlvbgA1MDcwNQBTYW1wbGVyX1RPTTRfTGV2ZWwAMC43NTc5ODIzMTQAU2FtcGxlcl9UT000X01pY0JhbGFuY2UAMC41AFNhbXBsZXJfVE9NNF9PSF9JbnZlcnQAMABTYW1wbGVyX1RPTTRfT0hfTGV2ZWwAMABTYW1wbGVyX1RPTTRfT0hfUGFuADAuNQBTYW1wbGVyX1RPTTRfT0hfV2lkdGgAMQBTYW1wbGVyX1RPTTRfUGl0Y2hFbnZfQ3VydmUAMC4wMzExMjI4AFNhbXBsZXJfVE9NNF9QaXRjaEVudl9Ib2xkADAAU2FtcGxlcl9UT000X1BpdGNoRW52X09mZnNldExldmVsADAuNQBTYW1wbGVyX1RPTTRfUGl0Y2hFbnZfUmVsZWFzZQAwAFNhbXBsZXJfVE9NNF9QaXRjaEVudl9WZWxTZW5zADAAU2FtcGxlcl9UT000X1BpdGNoX0NvdXJzZQAwLjUAU2FtcGxlcl9UT000X1BpdGNoX0VuYWJsZQAwAFNhbXBsZXJfVE9NNF9QaXRjaF9PSFJvb21PZmZzZXQAMC41AFNhbXBsZXJfVE9NNF9SZXNwb25zZUVuYWJsZQAxAFNhbXBsZXJfVE9NNF9Sb29tX0ludmVydAAwAFNhbXBsZXJfVE9NNF9Sb29tX0xldmVsADAAU2FtcGxlcl9UT000X1Jvb21fUGFuADAuNQBTYW1wbGVyX1RPTTRfUm9vbV9XaWR0aAAxAFNhbXBsZXJfVE9NNF9Vc2VBbHRzADEAU2FtcGxlcl9UT000X1ZlbFRvRmx0ADAAU2FtcGxlcl9UT000X1ZlbFRvU2FtcGxlSGkAMQBTYW1wbGVyX1RPTTRfVmVsVG9TYW1wbGVMbwAwLjE1MDAwMDAwNgBTYW1wbGVyX1RPTTRfVmVsVG9Wb2wAMC41AFNhdmVkV2l0aEFEMlZlcnNpb24AMi4yLjAAU25hcmVCdXp6QW1vdW50ADAAU25hcmVCdXp6QW1vdW50RkxYMQAwLjUAU25hcmVCdXp6QW1vdW50RkxYMgAwLjUAU25hcmVCdXp6QW1vdW50RkxYMwAwLjUAU291bmRJZGVhbFNhdmUAMC4yNTczODM5NDMAU3RhdGVDb21wYXRpYmxlUHJvZHVjdHMAQWRkaWN0aXZlIERydW1zIDIsS29uZ28AU3RhdGVJbnN0YW5jZVVVSUQANTIzZDQxYjkyMDE3NDhmYWI2MjJjNTQ5N2VlNzVlYmUAU3RhdGVQcm9kdWN0TmFtZQBBZGRpY3RpdmUgRHJ1bXMgMgBVc2VIb3N0VGVtcG9HU09mZgAwAFVzZUhvc3RUZW1wb0dTT24AMQBVc2VIb3N0VGVtcG9HVUkAMABrZXlNYXBDdXJyZW50U2VsZWN0aW9uAEFEMiBTdGFuZGFyZC5BRDJNYXAAa2V5TWFwT3ZlcnJpZGVTZWxlY3Rpb25UZXh0AAA=" guivisible="0" plugin="uservst:Addictive Drums 2.dll" program="0">
              <key/>
            </vestige>
          </instrument>
          <eldata fcut="14000" fres="0.5" fwet="0" ftype="0">
            <elvol lspd="0.1" latt="0" lspd_numerator="4" lspd_syncmode="0" sustain="0.5" hold="0.5" lamt="0" x100="0" att="0" rel="0.1" lpdel="0" userwavefile="" lspd_denominator="4" pdel="0" ctlenvamt="0" amt="0" lshp="0" dec="0.5"/>
            <elcut lspd="0.1" latt="0" lspd_numerator="4" lspd_syncmode="0" sustain="0.5" hold="0.5" lamt="0" x100="0" att="0" rel="0.1" lpdel="0" userwavefile="" lspd_denominator="4" pdel="0" ctlenvamt="0" amt="0" lshp="0" dec="0.5"/>
            <elres lspd="0.1" latt="0" lspd_numerator="4" lspd_syncmode="0" sustain="0.5" hold="0.5" lamt="0" x100="0" att="0" rel="0.1" lpdel="0" userwavefile="" lspd_denominator="4" pdel="0" ctlenvamt="0" amt="0" lshp="0" dec="0.5"/>
          </eldata>
          <chordcreator chord="0" chord-enabled="0" chordrange="1"/>
          <arpeggiator arpcycle="0" arpdir="0" arptime="200" arptime_syncmode="0" arprange="1" arp-enabled="0" arpgate="100" arprepeats="1" arpskip="0" arpmode="0" arp="0" arptime_denominator="4" arpmiss="0" arptime_numerator="4"/>
          <midiport inputcontroller="0" outputprogram="1" outputchannel="1" fixedoutputnote="-1" inputchannel="0" writable="0" fixedoutputvelocity="-1" fixedinputvelocity="-1" basevelocity="63" readable="0" outputcontroller="0"/>
          <fxchain numofeffects="0" enabled="0"/>
        </instrumenttrack>
        <pattern pos="1536" steps="16" muted="0" type="1" name="">
          <note vol="75" pos="0" pan="0" key="96" len="12"/>
          <note vol="75" pos="0" pan="0" key="50" len="12"/>
          <note vol="150" pos="0" pan="0" key="36" len="12"/>
          <note vol="75" pos="12" pan="0" key="96" len="12"/>
          <note vol="100" pos="12" pan="0" key="51" len="12"/>
          <note vol="100" pos="24" pan="0" key="50" len="12"/>
          <note vol="75" pos="36" pan="0" key="96" len="12"/>
          <note vol="100" pos="36" pan="0" key="51" len="12"/>
          <note vol="100" pos="36" pan="0" key="36" len="12"/>
          <note vol="75" pos="48" pan="0" key="96" len="12"/>
          <note vol="75" pos="48" pan="0" key="50" len="12"/>
          <note vol="150" pos="48" pan="0" key="38" len="12"/>
          <note vol="100" pos="48" pan="0" key="36" len="12"/>
          <note vol="100" pos="60" pan="0" key="51" len="12"/>
          <note vol="75" pos="72" pan="0" key="96" len="12"/>
          <note vol="75" pos="72" pan="0" key="50" len="12"/>
          <note vol="100" pos="72" pan="0" key="36" len="12"/>
          <note vol="75" pos="84" pan="0" key="96" len="12"/>
          <note vol="100" pos="84" pan="0" key="51" len="12"/>
          <note vol="75" pos="96" pan="0" key="50" len="12"/>
          <note vol="100" pos="96" pan="0" key="36" len="12"/>
          <note vol="75" pos="108" pan="0" key="96" len="12"/>
          <note vol="100" pos="108" pan="0" key="51" len="12"/>
          <note vol="100" pos="108" pan="0" key="36" len="12"/>
          <note vol="75" pos="120" pan="0" key="96" len="12"/>
          <note vol="75" pos="120" pan="0" key="50" len="12"/>
          <note vol="100" pos="120" pan="0" key="36" len="12"/>
          <note vol="100" pos="132" pan="0" key="51" len="12"/>
          <note vol="75" pos="144" pan="0" key="96" len="12"/>
          <note vol="75" pos="144" pan="0" key="50" len="12"/>
          <note vol="150" pos="144" pan="0" key="38" len="12"/>
          <note vol="100" pos="144" pan="0" key="36" len="12"/>
          <note vol="100" pos="156" pan="0" key="51" len="12"/>
          <note vol="75" pos="168" pan="0" key="96" len="12"/>
          <note vol="100" pos="168" pan="0" key="50" len="12"/>
          <note vol="100" pos="168" pan="0" key="36" len="12"/>
          <note vol="100" pos="180" pan="0" key="51" len="12"/>
          <note vol="100" pos="180" pan="0" key="36" len="12"/>
        </pattern>
        <pattern pos="1728" steps="16" muted="0" type="1" name="">
          <note vol="75" pos="0" pan="0" key="96" len="12"/>
          <note vol="75" pos="0" pan="0" key="50" len="12"/>
          <note vol="150" pos="0" pan="0" key="36" len="12"/>
          <note vol="75" pos="12" pan="0" key="96" len="12"/>
          <note vol="100" pos="12" pan="0" key="51" len="12"/>
          <note vol="100" pos="24" pan="0" key="50" len="12"/>
          <note vol="75" pos="36" pan="0" key="96" len="12"/>
          <note vol="100" pos="36" pan="0" key="51" len="12"/>
          <note vol="100" pos="36" pan="0" key="36" len="12"/>
          <note vol="75" pos="48" pan="0" key="96" len="12"/>
          <note vol="75" pos="48" pan="0" key="50" len="12"/>
          <note vol="150" pos="48" pan="0" key="38" len="12"/>
          <note vol="100" pos="48" pan="0" key="36" len="12"/>
          <note vol="100" pos="60" pan="0" key="51" len="12"/>
          <note vol="75" pos="72" pan="0" key="96" len="12"/>
          <note vol="75" pos="72" pan="0" key="50" len="12"/>
          <note vol="100" pos="72" pan="0" key="36" len="12"/>
          <note vol="75" pos="84" pan="0" key="96" len="12"/>
          <note vol="100" pos="84" pan="0" key="51" len="12"/>
          <note vol="75" pos="96" pan="0" key="50" len="12"/>
          <note vol="100" pos="96" pan="0" key="36" len="12"/>
          <note vol="75" pos="108" pan="0" key="96" len="12"/>
          <note vol="100" pos="108" pan="0" key="51" len="12"/>
          <note vol="100" pos="108" pan="0" key="36" len="12"/>
          <note vol="75" pos="120" pan="0" key="96" len="12"/>
          <note vol="75" pos="120" pan="0" key="50" len="12"/>
          <note vol="100" pos="120" pan="0" key="36" len="12"/>
          <note vol="100" pos="132" pan="0" key="51" len="12"/>
          <note vol="75" pos="144" pan="0" key="96" len="12"/>
          <note vol="75" pos="144" pan="0" key="50" len="12"/>
          <note vol="150" pos="144" pan="0" key="38" len="12"/>
          <note vol="100" pos="144" pan="0" key="36" len="12"/>
          <note vol="100" pos="156" pan="0" key="51" len="12"/>
          <note vol="75" pos="168" pan="0" key="96" len="12"/>
          <note vol="100" pos="168" pan="0" key="50" len="12"/>
          <note vol="100" pos="168" pan="0" key="36" len="12"/>
          <note vol="100" pos="180" pan="0" key="51" len="12"/>
          <note vol="100" pos="180" pan="0" key="36" len="12"/>
        </pattern>
        <pattern pos="1920" steps="16" muted="0" type="1" name="">
          <note vol="75" pos="0" pan="0" key="96" len="12"/>
          <note vol="75" pos="0" pan="0" key="50" len="12"/>
          <note vol="150" pos="0" pan="0" key="36" len="12"/>
          <note vol="75" pos="12" pan="0" key="96" len="12"/>
          <note vol="100" pos="12" pan="0" key="51" len="12"/>
          <note vol="100" pos="24" pan="0" key="50" len="12"/>
          <note vol="75" pos="36" pan="0" key="96" len="12"/>
          <note vol="100" pos="36" pan="0" key="51" len="12"/>
          <note vol="100" pos="36" pan="0" key="36" len="12"/>
          <note vol="75" pos="48" pan="0" key="96" len="12"/>
          <note vol="75" pos="48" pan="0" key="50" len="12"/>
          <note vol="150" pos="48" pan="0" key="38" len="12"/>
          <note vol="100" pos="48" pan="0" key="36" len="12"/>
          <note vol="100" pos="60" pan="0" key="51" len="12"/>
          <note vol="75" pos="72" pan="0" key="96" len="12"/>
          <note vol="75" pos="72" pan="0" key="50" len="12"/>
          <note vol="100" pos="72" pan="0" key="36" len="12"/>
          <note vol="75" pos="84" pan="0" key="96" len="12"/>
          <note vol="100" pos="84" pan="0" key="51" len="12"/>
          <note vol="75" pos="96" pan="0" key="50" len="12"/>
          <note vol="100" pos="96" pan="0" key="36" len="12"/>
          <note vol="75" pos="108" pan="0" key="96" len="12"/>
          <note vol="100" pos="108" pan="0" key="51" len="12"/>
          <note vol="100" pos="108" pan="0" key="36" len="12"/>
          <note vol="75" pos="120" pan="0" key="96" len="12"/>
          <note vol="75" pos="120" pan="0" key="50" len="12"/>
          <note vol="100" pos="120" pan="0" key="36" len="12"/>
          <note vol="100" pos="132" pan="0" key="51" len="12"/>
          <note vol="75" pos="144" pan="0" key="96" len="12"/>
          <note vol="75" pos="144" pan="0" key="50" len="12"/>
          <note vol="150" pos="144" pan="0" key="38" len="12"/>
          <note vol="100" pos="144" pan="0" key="36" len="12"/>
          <note vol="100" pos="156" pan="0" key="51" len="12"/>
          <note vol="75" pos="168" pan="0" key="96" len="12"/>
          <note vol="100" pos="168" pan="0" key="50" len="12"/>
          <note vol="100" pos="168" pan="0" key="36" len="12"/>
          <note vol="100" pos="180" pan="0" key="51" len="12"/>
          <note vol="100" pos="180" pan="0" key="36" len="12"/>
        </pattern>
        <pattern pos="2112" steps="16" muted="0" type="1" name="">
          <note vol="75" pos="0" pan="0" key="96" len="12"/>
          <note vol="75" pos="0" pan="0" key="50" len="12"/>
          <note vol="150" pos="0" pan="0" key="36" len="12"/>
          <note vol="75" pos="12" pan="0" key="96" len="12"/>
          <note vol="100" pos="12" pan="0" key="51" len="12"/>
          <note vol="100" pos="24" pan="0" key="50" len="12"/>
          <note vol="75" pos="36" pan="0" key="96" len="12"/>
          <note vol="100" pos="36" pan="0" key="51" len="12"/>
          <note vol="100" pos="36" pan="0" key="36" len="12"/>
          <note vol="75" pos="48" pan="0" key="96" len="12"/>
          <note vol="75" pos="48" pan="0" key="50" len="12"/>
          <note vol="150" pos="48" pan="0" key="38" len="12"/>
          <note vol="100" pos="48" pan="0" key="36" len="12"/>
          <note vol="100" pos="60" pan="0" key="51" len="12"/>
          <note vol="75" pos="72" pan="0" key="96" len="12"/>
          <note vol="75" pos="72" pan="0" key="50" len="12"/>
          <note vol="100" pos="72" pan="0" key="36" len="12"/>
          <note vol="75" pos="84" pan="0" key="96" len="12"/>
          <note vol="100" pos="84" pan="0" key="51" len="12"/>
          <note vol="75" pos="96" pan="0" key="50" len="12"/>
          <note vol="100" pos="96" pan="0" key="36" len="12"/>
          <note vol="75" pos="108" pan="0" key="96" len="12"/>
          <note vol="100" pos="108" pan="0" key="51" len="12"/>
          <note vol="100" pos="108" pan="0" key="36" len="12"/>
          <note vol="75" pos="120" pan="0" key="96" len="12"/>
          <note vol="75" pos="120" pan="0" key="50" len="12"/>
          <note vol="100" pos="120" pan="0" key="36" len="12"/>
          <note vol="100" pos="132" pan="0" key="51" len="12"/>
          <note vol="75" pos="144" pan="0" key="96" len="12"/>
          <note vol="75" pos="144" pan="0" key="50" len="12"/>
          <note vol="150" pos="144" pan="0" key="38" len="12"/>
          <note vol="100" pos="144" pan="0" key="36" len="12"/>
          <note vol="100" pos="156" pan="0" key="51" len="12"/>
          <note vol="75" pos="168" pan="0" key="96" len="12"/>
          <note vol="100" pos="168" pan="0" key="50" len="12"/>
          <note vol="100" pos="168" pan="0" key="36" len="12"/>
          <note vol="100" pos="180" pan="0" key="51" len="12"/>
          <note vol="100" pos="180" pan="0" key="36" len="12"/>
        </pattern>
        <pattern pos="2304" steps="16" muted="0" type="1" name="">
          <note vol="75" pos="0" pan="0" key="96" len="12"/>
          <note vol="75" pos="0" pan="0" key="50" len="12"/>
          <note vol="150" pos="0" pan="0" key="36" len="12"/>
          <note vol="75" pos="12" pan="0" key="96" len="12"/>
          <note vol="100" pos="12" pan="0" key="51" len="12"/>
          <note vol="100" pos="24" pan="0" key="50" len="12"/>
          <note vol="75" pos="36" pan="0" key="96" len="12"/>
          <note vol="100" pos="36" pan="0" key="51" len="12"/>
          <note vol="100" pos="36" pan="0" key="36" len="12"/>
          <note vol="75" pos="48" pan="0" key="96" len="12"/>
          <note vol="75" pos="48" pan="0" key="50" len="12"/>
          <note vol="150" pos="48" pan="0" key="38" len="12"/>
          <note vol="100" pos="48" pan="0" key="36" len="12"/>
          <note vol="100" pos="60" pan="0" key="51" len="12"/>
          <note vol="75" pos="72" pan="0" key="96" len="12"/>
          <note vol="75" pos="72" pan="0" key="50" len="12"/>
          <note vol="100" pos="72" pan="0" key="36" len="12"/>
          <note vol="75" pos="84" pan="0" key="96" len="12"/>
          <note vol="100" pos="84" pan="0" key="51" len="12"/>
          <note vol="75" pos="96" pan="0" key="50" len="12"/>
          <note vol="100" pos="96" pan="0" key="36" len="12"/>
          <note vol="75" pos="108" pan="0" key="96" len="12"/>
          <note vol="100" pos="108" pan="0" key="51" len="12"/>
          <note vol="100" pos="108" pan="0" key="36" len="12"/>
          <note vol="75" pos="120" pan="0" key="96" len="12"/>
          <note vol="75" pos="120" pan="0" key="50" len="12"/>
          <note vol="100" pos="120" pan="0" key="36" len="12"/>
          <note vol="100" pos="132" pan="0" key="51" len="12"/>
          <note vol="75" pos="144" pan="0" key="96" len="12"/>
          <note vol="75" pos="144" pan="0" key="50" len="12"/>
          <note vol="150" pos="144" pan="0" key="38" len="12"/>
          <note vol="100" pos="144" pan="0" key="36" len="12"/>
          <note vol="100" pos="156" pan="0" key="51" len="12"/>
          <note vol="75" pos="168" pan="0" key="96" len="12"/>
          <note vol="100" pos="168" pan="0" key="50" len="12"/>
          <note vol="100" pos="168" pan="0" key="36" len="12"/>
          <note vol="100" pos="180" pan="0" key="51" len="12"/>
          <note vol="100" pos="180" pan="0" key="36" len="12"/>
        </pattern>
        <pattern pos="2496" steps="16" muted="0" type="1" name="">
          <note vol="75" pos="0" pan="0" key="96" len="12"/>
          <note vol="75" pos="0" pan="0" key="50" len="12"/>
          <note vol="150" pos="0" pan="0" key="36" len="12"/>
          <note vol="75" pos="12" pan="0" key="96" len="12"/>
          <note vol="100" pos="12" pan="0" key="51" len="12"/>
          <note vol="100" pos="24" pan="0" key="50" len="12"/>
          <note vol="75" pos="36" pan="0" key="96" len="12"/>
          <note vol="100" pos="36" pan="0" key="51" len="12"/>
          <note vol="100" pos="36" pan="0" key="36" len="12"/>
          <note vol="75" pos="48" pan="0" key="96" len="12"/>
          <note vol="75" pos="48" pan="0" key="50" len="12"/>
          <note vol="150" pos="48" pan="0" key="38" len="12"/>
          <note vol="100" pos="48" pan="0" key="36" len="12"/>
          <note vol="100" pos="60" pan="0" key="51" len="12"/>
          <note vol="75" pos="72" pan="0" key="96" len="12"/>
          <note vol="75" pos="72" pan="0" key="50" len="12"/>
          <note vol="100" pos="72" pan="0" key="36" len="12"/>
          <note vol="75" pos="84" pan="0" key="96" len="12"/>
          <note vol="100" pos="84" pan="0" key="51" len="12"/>
          <note vol="75" pos="96" pan="0" key="50" len="12"/>
          <note vol="100" pos="96" pan="0" key="36" len="12"/>
          <note vol="75" pos="108" pan="0" key="96" len="12"/>
          <note vol="100" pos="108" pan="0" key="51" len="12"/>
          <note vol="100" pos="108" pan="0" key="36" len="12"/>
          <note vol="75" pos="120" pan="0" key="96" len="12"/>
          <note vol="75" pos="120" pan="0" key="50" len="12"/>
          <note vol="100" pos="120" pan="0" key="36" len="12"/>
          <note vol="100" pos="132" pan="0" key="51" len="12"/>
          <note vol="75" pos="144" pan="0" key="96" len="12"/>
          <note vol="75" pos="144" pan="0" key="50" len="12"/>
          <note vol="150" pos="144" pan="0" key="38" len="12"/>
          <note vol="100" pos="144" pan="0" key="36" len="12"/>
          <note vol="100" pos="156" pan="0" key="51" len="12"/>
          <note vol="75" pos="168" pan="0" key="96" len="12"/>
          <note vol="100" pos="168" pan="0" key="50" len="12"/>
          <note vol="100" pos="168" pan="0" key="36" len="12"/>
          <note vol="100" pos="180" pan="0" key="51" len="12"/>
          <note vol="100" pos="180" pan="0" key="36" len="12"/>
        </pattern>
        <pattern pos="2688" steps="16" muted="0" type="1" name="">
          <note vol="75" pos="0" pan="0" key="96" len="12"/>
          <note vol="75" pos="0" pan="0" key="50" len="12"/>
          <note vol="150" pos="0" pan="0" key="36" len="12"/>
          <note vol="75" pos="12" pan="0" key="96" len="12"/>
          <note vol="100" pos="12" pan="0" key="51" len="12"/>
          <note vol="100" pos="24" pan="0" key="50" len="12"/>
          <note vol="75" pos="36" pan="0" key="96" len="12"/>
          <note vol="100" pos="36" pan="0" key="51" len="12"/>
          <note vol="100" pos="36" pan="0" key="36" len="12"/>
          <note vol="75" pos="48" pan="0" key="96" len="12"/>
          <note vol="75" pos="48" pan="0" key="50" len="12"/>
          <note vol="150" pos="48" pan="0" key="38" len="12"/>
          <note vol="100" pos="48" pan="0" key="36" len="12"/>
          <note vol="100" pos="60" pan="0" key="51" len="12"/>
          <note vol="75" pos="72" pan="0" key="96" len="12"/>
          <note vol="75" pos="72" pan="0" key="50" len="12"/>
          <note vol="100" pos="72" pan="0" key="36" len="12"/>
          <note vol="75" pos="84" pan="0" key="96" len="12"/>
          <note vol="100" pos="84" pan="0" key="51" len="12"/>
          <note vol="75" pos="96" pan="0" key="50" len="12"/>
          <note vol="100" pos="96" pan="0" key="36" len="12"/>
          <note vol="75" pos="108" pan="0" key="96" len="12"/>
          <note vol="100" pos="108" pan="0" key="51" len="12"/>
          <note vol="100" pos="108" pan="0" key="36" len="12"/>
          <note vol="75" pos="120" pan="0" key="96" len="12"/>
          <note vol="75" pos="120" pan="0" key="50" len="12"/>
          <note vol="100" pos="120" pan="0" key="36" len="12"/>
          <note vol="100" pos="132" pan="0" key="51" len="12"/>
          <note vol="75" pos="144" pan="0" key="96" len="12"/>
          <note vol="75" pos="144" pan="0" key="50" len="12"/>
          <note vol="150" pos="144" pan="0" key="38" len="12"/>
          <note vol="100" pos="144" pan="0" key="36" len="12"/>
          <note vol="100" pos="156" pan="0" key="51" len="12"/>
          <note vol="75" pos="168" pan="0" key="96" len="12"/>
          <note vol="100" pos="168" pan="0" key="50" len="12"/>
          <note vol="100" pos="168" pan="0" key="36" len="12"/>
          <note vol="100" pos="180" pan="0" key="51" len="12"/>
          <note vol="100" pos="180" pan="0" key="36" len="12"/>
        </pattern>
        <pattern pos="2880" steps="16" muted="0" type="1" name="">
          <note vol="75" pos="0" pan="0" key="96" len="12"/>
          <note vol="75" pos="0" pan="0" key="50" len="12"/>
          <note vol="150" pos="0" pan="0" key="36" len="12"/>
          <note vol="75" pos="12" pan="0" key="96" len="12"/>
          <note vol="100" pos="12" pan="0" key="51" len="12"/>
          <note vol="100" pos="24" pan="0" key="50" len="12"/>
          <note vol="75" pos="36" pan="0" key="96" len="12"/>
          <note vol="100" pos="36" pan="0" key="51" len="12"/>
          <note vol="100" pos="36" pan="0" key="36" len="12"/>
          <note vol="75" pos="48" pan="0" key="96" len="12"/>
          <note vol="75" pos="48" pan="0" key="50" len="12"/>
          <note vol="150" pos="48" pan="0" key="38" len="12"/>
          <note vol="100" pos="48" pan="0" key="36" len="12"/>
          <note vol="100" pos="60" pan="0" key="51" len="12"/>
          <note vol="75" pos="72" pan="0" key="96" len="12"/>
          <note vol="75" pos="72" pan="0" key="50" len="12"/>
          <note vol="100" pos="72" pan="0" key="36" len="12"/>
          <note vol="75" pos="84" pan="0" key="96" len="12"/>
          <note vol="100" pos="84" pan="0" key="51" len="12"/>
          <note vol="75" pos="96" pan="0" key="50" len="12"/>
          <note vol="100" pos="96" pan="0" key="36" len="12"/>
          <note vol="75" pos="108" pan="0" key="96" len="12"/>
          <note vol="100" pos="108" pan="0" key="51" len="12"/>
          <note vol="100" pos="108" pan="0" key="36" len="12"/>
          <note vol="75" pos="120" pan="0" key="96" len="12"/>
          <note vol="75" pos="120" pan="0" key="50" len="12"/>
          <note vol="100" pos="120" pan="0" key="36" len="12"/>
          <note vol="100" pos="132" pan="0" key="51" len="12"/>
          <note vol="75" pos="144" pan="0" key="96" len="12"/>
          <note vol="75" pos="144" pan="0" key="50" len="12"/>
          <note vol="150" pos="144" pan="0" key="38" len="12"/>
          <note vol="100" pos="144" pan="0" key="36" len="12"/>
          <note vol="100" pos="156" pan="0" key="51" len="12"/>
          <note vol="75" pos="168" pan="0" key="96" len="12"/>
          <note vol="100" pos="168" pan="0" key="50" len="12"/>
          <note vol="100" pos="168" pan="0" key="36" len="12"/>
          <note vol="100" pos="180" pan="0" key="51" len="12"/>
          <note vol="100" pos="180" pan="0" key="36" len="12"/>
        </pattern>
        <pattern pos="3072" steps="16" muted="0" type="1" name="">
          <note vol="75" pos="0" pan="0" key="96" len="12"/>
          <note vol="75" pos="0" pan="0" key="50" len="12"/>
          <note vol="150" pos="0" pan="0" key="36" len="12"/>
          <note vol="75" pos="12" pan="0" key="96" len="12"/>
          <note vol="100" pos="12" pan="0" key="51" len="12"/>
          <note vol="100" pos="24" pan="0" key="50" len="12"/>
          <note vol="75" pos="36" pan="0" key="96" len="12"/>
          <note vol="100" pos="36" pan="0" key="51" len="12"/>
          <note vol="100" pos="36" pan="0" key="36" len="12"/>
          <note vol="75" pos="48" pan="0" key="96" len="12"/>
          <note vol="75" pos="48" pan="0" key="50" len="12"/>
          <note vol="150" pos="48" pan="0" key="38" len="12"/>
          <note vol="100" pos="48" pan="0" key="36" len="12"/>
          <note vol="100" pos="60" pan="0" key="51" len="12"/>
          <note vol="75" pos="72" pan="0" key="96" len="12"/>
          <note vol="75" pos="72" pan="0" key="50" len="12"/>
          <note vol="100" pos="72" pan="0" key="36" len="12"/>
          <note vol="75" pos="84" pan="0" key="96" len="12"/>
          <note vol="100" pos="84" pan="0" key="51" len="12"/>
          <note vol="75" pos="96" pan="0" key="50" len="12"/>
          <note vol="100" pos="96" pan="0" key="36" len="12"/>
          <note vol="75" pos="108" pan="0" key="96" len="12"/>
          <note vol="100" pos="108" pan="0" key="51" len="12"/>
          <note vol="100" pos="108" pan="0" key="36" len="12"/>
          <note vol="75" pos="120" pan="0" key="96" len="12"/>
          <note vol="75" pos="120" pan="0" key="50" len="12"/>
          <note vol="100" pos="120" pan="0" key="36" len="12"/>
          <note vol="100" pos="132" pan="0" key="51" len="12"/>
          <note vol="75" pos="144" pan="0" key="96" len="12"/>
          <note vol="75" pos="144" pan="0" key="50" len="12"/>
          <note vol="150" pos="144" pan="0" key="38" len="12"/>
          <note vol="100" pos="144" pan="0" key="36" len="12"/>
          <note vol="100" pos="156" pan="0" key="51" len="12"/>
          <note vol="75" pos="168" pan="0" key="96" len="12"/>
          <note vol="100" pos="168" pan="0" key="50" len="12"/>
          <note vol="100" pos="168" pan="0" key="36" len="12"/>
          <note vol="100" pos="180" pan="0" key="51" len="12"/>
          <note vol="100" pos="180" pan="0" key="36" len="12"/>
        </pattern>
        <pattern pos="3264" steps="16" muted="0" type="1" name="">
          <note vol="75" pos="0" pan="0" key="96" len="12"/>
          <note vol="75" pos="0" pan="0" key="50" len="12"/>
          <note vol="150" pos="0" pan="0" key="36" len="12"/>
          <note vol="75" pos="12" pan="0" key="96" len="12"/>
          <note vol="100" pos="12" pan="0" key="51" len="12"/>
          <note vol="100" pos="24" pan="0" key="50" len="12"/>
          <note vol="75" pos="36" pan="0" key="96" len="12"/>
          <note vol="100" pos="36" pan="0" key="51" len="12"/>
          <note vol="100" pos="36" pan="0" key="36" len="12"/>
          <note vol="75" pos="48" pan="0" key="96" len="12"/>
          <note vol="75" pos="48" pan="0" key="50" len="12"/>
          <note vol="150" pos="48" pan="0" key="38" len="12"/>
          <note vol="100" pos="48" pan="0" key="36" len="12"/>
          <note vol="100" pos="60" pan="0" key="51" len="12"/>
          <note vol="75" pos="72" pan="0" key="96" len="12"/>
          <note vol="75" pos="72" pan="0" key="50" len="12"/>
          <note vol="100" pos="72" pan="0" key="36" len="12"/>
          <note vol="75" pos="84" pan="0" key="96" len="12"/>
          <note vol="100" pos="84" pan="0" key="51" len="12"/>
          <note vol="75" pos="96" pan="0" key="50" len="12"/>
          <note vol="100" pos="96" pan="0" key="36" len="12"/>
          <note vol="75" pos="108" pan="0" key="96" len="12"/>
          <note vol="100" pos="108" pan="0" key="51" len="12"/>
          <note vol="100" pos="108" pan="0" key="36" len="12"/>
          <note vol="75" pos="120" pan="0" key="96" len="12"/>
          <note vol="75" pos="120" pan="0" key="50" len="12"/>
          <note vol="100" pos="120" pan="0" key="36" len="12"/>
          <note vol="100" pos="132" pan="0" key="51" len="12"/>
          <note vol="75" pos="144" pan="0" key="96" len="12"/>
          <note vol="75" pos="144" pan="0" key="50" len="12"/>
          <note vol="150" pos="144" pan="0" key="38" len="12"/>
          <note vol="100" pos="144" pan="0" key="36" len="12"/>
          <note vol="100" pos="156" pan="0" key="51" len="12"/>
          <note vol="75" pos="168" pan="0" key="96" len="12"/>
          <note vol="100" pos="168" pan="0" key="50" len="12"/>
          <note vol="100" pos="168" pan="0" key="36" len="12"/>
          <note vol="100" pos="180" pan="0" key="51" len="12"/>
          <note vol="100" pos="180" pan="0" key="36" len="12"/>
        </pattern>
        <pattern pos="3456" steps="16" muted="0" type="1" name="">
          <note vol="75" pos="0" pan="0" key="96" len="12"/>
          <note vol="75" pos="0" pan="0" key="50" len="12"/>
          <note vol="150" pos="0" pan="0" key="36" len="12"/>
          <note vol="75" pos="12" pan="0" key="96" len="12"/>
          <note vol="100" pos="12" pan="0" key="51" len="12"/>
          <note vol="100" pos="24" pan="0" key="50" len="12"/>
          <note vol="75" pos="36" pan="0" key="96" len="12"/>
          <note vol="100" pos="36" pan="0" key="51" len="12"/>
          <note vol="100" pos="36" pan="0" key="36" len="12"/>
          <note vol="75" pos="48" pan="0" key="96" len="12"/>
          <note vol="75" pos="48" pan="0" key="50" len="12"/>
          <note vol="150" pos="48" pan="0" key="38" len="12"/>
          <note vol="100" pos="48" pan="0" key="36" len="12"/>
          <note vol="100" pos="60" pan="0" key="51" len="12"/>
          <note vol="75" pos="72" pan="0" key="96" len="12"/>
          <note vol="75" pos="72" pan="0" key="50" len="12"/>
          <note vol="100" pos="72" pan="0" key="36" len="12"/>
          <note vol="75" pos="84" pan="0" key="96" len="12"/>
          <note vol="100" pos="84" pan="0" key="51" len="12"/>
          <note vol="75" pos="96" pan="0" key="50" len="12"/>
          <note vol="100" pos="96" pan="0" key="36" len="12"/>
          <note vol="75" pos="108" pan="0" key="96" len="12"/>
          <note vol="100" pos="108" pan="0" key="51" len="12"/>
          <note vol="100" pos="108" pan="0" key="36" len="12"/>
          <note vol="75" pos="120" pan="0" key="96" len="12"/>
          <note vol="75" pos="120" pan="0" key="50" len="12"/>
          <note vol="100" pos="120" pan="0" key="36" len="12"/>
          <note vol="100" pos="132" pan="0" key="51" len="12"/>
          <note vol="75" pos="144" pan="0" key="96" len="12"/>
          <note vol="75" pos="144" pan="0" key="50" len="12"/>
          <note vol="150" pos="144" pan="0" key="38" len="12"/>
          <note vol="100" pos="144" pan="0" key="36" len="12"/>
          <note vol="100" pos="156" pan="0" key="51" len="12"/>
          <note vol="75" pos="168" pan="0" key="96" len="12"/>
          <note vol="100" pos="168" pan="0" key="50" len="12"/>
          <note vol="100" pos="168" pan="0" key="36" len="12"/>
          <note vol="100" pos="180" pan="0" key="51" len="12"/>
          <note vol="100" pos="180" pan="0" key="36" len="12"/>
        </pattern>
        <pattern pos="3648" steps="16" muted="0" type="1" name="">
          <note vol="75" pos="0" pan="0" key="96" len="12"/>
          <note vol="75" pos="0" pan="0" key="50" len="12"/>
          <note vol="150" pos="0" pan="0" key="36" len="12"/>
          <note vol="75" pos="12" pan="0" key="96" len="12"/>
          <note vol="100" pos="12" pan="0" key="51" len="12"/>
          <note vol="100" pos="24" pan="0" key="50" len="12"/>
          <note vol="75" pos="36" pan="0" key="96" len="12"/>
          <note vol="100" pos="36" pan="0" key="51" len="12"/>
          <note vol="100" pos="36" pan="0" key="36" len="12"/>
          <note vol="75" pos="48" pan="0" key="96" len="12"/>
          <note vol="75" pos="48" pan="0" key="50" len="12"/>
          <note vol="150" pos="48" pan="0" key="38" len="12"/>
          <note vol="100" pos="48" pan="0" key="36" len="12"/>
          <note vol="100" pos="60" pan="0" key="51" len="12"/>
          <note vol="75" pos="72" pan="0" key="96" len="12"/>
          <note vol="75" pos="72" pan="0" key="50" len="12"/>
          <note vol="100" pos="72" pan="0" key="36" len="12"/>
          <note vol="75" pos="84" pan="0" key="96" len="12"/>
          <note vol="100" pos="84" pan="0" key="51" len="12"/>
          <note vol="75" pos="96" pan="0" key="50" len="12"/>
          <note vol="100" pos="96" pan="0" key="36" len="12"/>
          <note vol="75" pos="108" pan="0" key="96" len="12"/>
          <note vol="100" pos="108" pan="0" key="51" len="12"/>
          <note vol="100" pos="108" pan="0" key="36" len="12"/>
          <note vol="75" pos="120" pan="0" key="96" len="12"/>
          <note vol="75" pos="120" pan="0" key="50" len="12"/>
          <note vol="100" pos="120" pan="0" key="36" len="12"/>
          <note vol="100" pos="132" pan="0" key="51" len="12"/>
          <note vol="75" pos="144" pan="0" key="96" len="12"/>
          <note vol="75" pos="144" pan="0" key="50" len="12"/>
          <note vol="150" pos="144" pan="0" key="38" len="12"/>
          <note vol="100" pos="144" pan="0" key="36" len="12"/>
          <note vol="100" pos="156" pan="0" key="51" len="12"/>
          <note vol="75" pos="168" pan="0" key="96" len="12"/>
          <note vol="100" pos="168" pan="0" key="50" len="12"/>
          <note vol="100" pos="168" pan="0" key="36" len="12"/>
          <note vol="100" pos="180" pan="0" key="51" len="12"/>
          <note vol="100" pos="180" pan="0" key="36" len="12"/>
        </pattern>
        <pattern pos="3840" steps="16" muted="0" type="1" name="">
          <note vol="75" pos="0" pan="0" key="96" len="12"/>
          <note vol="75" pos="0" pan="0" key="50" len="12"/>
          <note vol="150" pos="0" pan="0" key="36" len="12"/>
          <note vol="75" pos="12" pan="0" key="96" len="12"/>
          <note vol="100" pos="12" pan="0" key="51" len="12"/>
          <note vol="100" pos="24" pan="0" key="50" len="12"/>
          <note vol="75" pos="36" pan="0" key="96" len="12"/>
          <note vol="100" pos="36" pan="0" key="51" len="12"/>
          <note vol="100" pos="36" pan="0" key="36" len="12"/>
          <note vol="75" pos="48" pan="0" key="96" len="12"/>
          <note vol="75" pos="48" pan="0" key="50" len="12"/>
          <note vol="150" pos="48" pan="0" key="38" len="12"/>
          <note vol="100" pos="48" pan="0" key="36" len="12"/>
          <note vol="100" pos="60" pan="0" key="51" len="12"/>
          <note vol="75" pos="72" pan="0" key="96" len="12"/>
          <note vol="75" pos="72" pan="0" key="50" len="12"/>
          <note vol="100" pos="72" pan="0" key="36" len="12"/>
          <note vol="75" pos="84" pan="0" key="96" len="12"/>
          <note vol="100" pos="84" pan="0" key="51" len="12"/>
          <note vol="75" pos="96" pan="0" key="50" len="12"/>
          <note vol="100" pos="96" pan="0" key="36" len="12"/>
          <note vol="75" pos="108" pan="0" key="96" len="12"/>
          <note vol="100" pos="108" pan="0" key="51" len="12"/>
          <note vol="100" pos="108" pan="0" key="36" len="12"/>
          <note vol="75" pos="120" pan="0" key="96" len="12"/>
          <note vol="75" pos="120" pan="0" key="50" len="12"/>
          <note vol="100" pos="120" pan="0" key="36" len="12"/>
          <note vol="100" pos="132" pan="0" key="51" len="12"/>
          <note vol="75" pos="144" pan="0" key="96" len="12"/>
          <note vol="75" pos="144" pan="0" key="50" len="12"/>
          <note vol="150" pos="144" pan="0" key="38" len="12"/>
          <note vol="100" pos="144" pan="0" key="36" len="12"/>
          <note vol="100" pos="156" pan="0" key="51" len="12"/>
          <note vol="75" pos="168" pan="0" key="96" len="12"/>
          <note vol="100" pos="168" pan="0" key="50" len="12"/>
          <note vol="100" pos="168" pan="0" key="36" len="12"/>
          <note vol="100" pos="180" pan="0" key="51" len="12"/>
          <note vol="100" pos="180" pan="0" key="36" len="12"/>
        </pattern>
        <pattern pos="4032" steps="16" muted="0" type="1" name="">
          <note vol="75" pos="0" pan="0" key="96" len="12"/>
          <note vol="75" pos="0" pan="0" key="50" len="12"/>
          <note vol="150" pos="0" pan="0" key="36" len="12"/>
          <note vol="75" pos="12" pan="0" key="96" len="12"/>
          <note vol="100" pos="12" pan="0" key="51" len="12"/>
          <note vol="100" pos="24" pan="0" key="50" len="12"/>
          <note vol="75" pos="36" pan="0" key="96" len="12"/>
          <note vol="100" pos="36" pan="0" key="51" len="12"/>
          <note vol="100" pos="36" pan="0" key="36" len="12"/>
          <note vol="75" pos="48" pan="0" key="96" len="12"/>
          <note vol="75" pos="48" pan="0" key="50" len="12"/>
          <note vol="150" pos="48" pan="0" key="38" len="12"/>
          <note vol="100" pos="48" pan="0" key="36" len="12"/>
          <note vol="100" pos="60" pan="0" key="51" len="12"/>
          <note vol="75" pos="72" pan="0" key="96" len="12"/>
          <note vol="75" pos="72" pan="0" key="50" len="12"/>
          <note vol="100" pos="72" pan="0" key="36" len="12"/>
          <note vol="75" pos="84" pan="0" key="96" len="12"/>
          <note vol="100" pos="84" pan="0" key="51" len="12"/>
          <note vol="75" pos="96" pan="0" key="50" len="12"/>
          <note vol="100" pos="96" pan="0" key="36" len="12"/>
          <note vol="75" pos="108" pan="0" key="96" len="12"/>
          <note vol="100" pos="108" pan="0" key="51" len="12"/>
          <note vol="100" pos="108" pan="0" key="36" len="12"/>
          <note vol="75" pos="120" pan="0" key="96" len="12"/>
          <note vol="75" pos="120" pan="0" key="50" len="12"/>
          <note vol="100" pos="120" pan="0" key="36" len="12"/>
          <note vol="100" pos="132" pan="0" key="51" len="12"/>
          <note vol="75" pos="144" pan="0" key="96" len="12"/>
          <note vol="75" pos="144" pan="0" key="50" len="12"/>
          <note vol="150" pos="144" pan="0" key="38" len="12"/>
          <note vol="100" pos="144" pan="0" key="36" len="12"/>
          <note vol="100" pos="156" pan="0" key="51" len="12"/>
          <note vol="75" pos="168" pan="0" key="96" len="12"/>
          <note vol="100" pos="168" pan="0" key="50" len="12"/>
          <note vol="100" pos="168" pan="0" key="36" len="12"/>
          <note vol="100" pos="180" pan="0" key="51" len="12"/>
          <note vol="100" pos="180" pan="0" key="36" len="12"/>
        </pattern>
        <pattern pos="4224" steps="16" muted="0" type="1" name="">
          <note vol="75" pos="0" pan="0" key="96" len="12"/>
          <note vol="75" pos="0" pan="0" key="50" len="12"/>
          <note vol="150" pos="0" pan="0" key="36" len="12"/>
          <note vol="75" pos="12" pan="0" key="96" len="12"/>
          <note vol="100" pos="12" pan="0" key="51" len="12"/>
          <note vol="100" pos="24" pan="0" key="50" len="12"/>
          <note vol="75" pos="36" pan="0" key="96" len="12"/>
          <note vol="100" pos="36" pan="0" key="51" len="12"/>
          <note vol="100" pos="36" pan="0" key="36" len="12"/>
          <note vol="75" pos="48" pan="0" key="96" len="12"/>
          <note vol="75" pos="48" pan="0" key="50" len="12"/>
          <note vol="150" pos="48" pan="0" key="38" len="12"/>
          <note vol="100" pos="48" pan="0" key="36" len="12"/>
          <note vol="100" pos="60" pan="0" key="51" len="12"/>
          <note vol="75" pos="72" pan="0" key="96" len="12"/>
          <note vol="75" pos="72" pan="0" key="50" len="12"/>
          <note vol="100" pos="72" pan="0" key="36" len="12"/>
          <note vol="75" pos="84" pan="0" key="96" len="12"/>
          <note vol="100" pos="84" pan="0" key="51" len="12"/>
          <note vol="75" pos="96" pan="0" key="50" len="12"/>
          <note vol="100" pos="96" pan="0" key="36" len="12"/>
          <note vol="75" pos="108" pan="0" key="96" len="12"/>
          <note vol="100" pos="108" pan="0" key="51" len="12"/>
          <note vol="100" pos="108" pan="0" key="36" len="12"/>
          <note vol="75" pos="120" pan="0" key="96" len="12"/>
          <note vol="75" pos="120" pan="0" key="50" len="12"/>
          <note vol="100" pos="120" pan="0" key="36" len="12"/>
          <note vol="100" pos="132" pan="0" key="51" len="12"/>
          <note vol="75" pos="144" pan="0" key="96" len="12"/>
          <note vol="75" pos="144" pan="0" key="50" len="12"/>
          <note vol="150" pos="144" pan="0" key="38" len="12"/>
          <note vol="100" pos="144" pan="0" key="36" len="12"/>
          <note vol="100" pos="156" pan="0" key="51" len="12"/>
          <note vol="75" pos="168" pan="0" key="96" len="12"/>
          <note vol="100" pos="168" pan="0" key="50" len="12"/>
          <note vol="100" pos="168" pan="0" key="36" len="12"/>
          <note vol="100" pos="180" pan="0" key="51" len="12"/>
          <note vol="100" pos="180" pan="0" key="36" len="12"/>
        </pattern>
        <pattern pos="4416" steps="16" muted="0" type="1" name="">
          <note vol="75" pos="0" pan="0" key="96" len="12"/>
          <note vol="75" pos="0" pan="0" key="50" len="12"/>
          <note vol="150" pos="0" pan="0" key="36" len="12"/>
          <note vol="75" pos="12" pan="0" key="96" len="12"/>
          <note vol="100" pos="12" pan="0" key="51" len="12"/>
          <note vol="100" pos="24" pan="0" key="50" len="12"/>
          <note vol="75" pos="36" pan="0" key="96" len="12"/>
          <note vol="100" pos="36" pan="0" key="51" len="12"/>
          <note vol="100" pos="36" pan="0" key="36" len="12"/>
          <note vol="75" pos="48" pan="0" key="96" len="12"/>
          <note vol="75" pos="48" pan="0" key="50" len="12"/>
          <note vol="150" pos="48" pan="0" key="38" len="12"/>
          <note vol="100" pos="48" pan="0" key="36" len="12"/>
          <note vol="100" pos="60" pan="0" key="51" len="12"/>
          <note vol="75" pos="72" pan="0" key="96" len="12"/>
          <note vol="75" pos="72" pan="0" key="50" len="12"/>
          <note vol="100" pos="72" pan="0" key="36" len="12"/>
          <note vol="75" pos="84" pan="0" key="96" len="12"/>
          <note vol="100" pos="84" pan="0" key="51" len="12"/>
          <note vol="75" pos="96" pan="0" key="50" len="12"/>
          <note vol="100" pos="96" pan="0" key="36" len="12"/>
          <note vol="75" pos="108" pan="0" key="96" len="12"/>
          <note vol="100" pos="108" pan="0" key="51" len="12"/>
          <note vol="100" pos="108" pan="0" key="36" len="12"/>
          <note vol="75" pos="120" pan="0" key="96" len="12"/>
          <note vol="75" pos="120" pan="0" key="50" len="12"/>
          <note vol="100" pos="120" pan="0" key="36" len="12"/>
          <note vol="100" pos="132" pan="0" key="51" len="12"/>
          <note vol="75" pos="144" pan="0" key="96" len="12"/>
          <note vol="75" pos="144" pan="0" key="50" len="12"/>
          <note vol="150" pos="144" pan="0" key="38" len="12"/>
          <note vol="100" pos="144" pan="0" key="36" len="12"/>
          <note vol="100" pos="156" pan="0" key="51" len="12"/>
          <note vol="75" pos="168" pan="0" key="96" len="12"/>
          <note vol="100" pos="168" pan="0" key="50" len="12"/>
          <note vol="100" pos="168" pan="0" key="36" len="12"/>
          <note vol="100" pos="180" pan="0" key="51" len="12"/>
          <note vol="100" pos="180" pan="0" key="36" len="12"/>
        </pattern>
        <pattern pos="4608" steps="16" muted="0" type="1" name="">
          <note vol="75" pos="0" pan="0" key="96" len="12"/>
          <note vol="75" pos="0" pan="0" key="50" len="12"/>
          <note vol="150" pos="0" pan="0" key="36" len="12"/>
          <note vol="75" pos="12" pan="0" key="96" len="12"/>
          <note vol="100" pos="12" pan="0" key="51" len="12"/>
          <note vol="100" pos="24" pan="0" key="50" len="12"/>
          <note vol="75" pos="36" pan="0" key="96" len="12"/>
          <note vol="100" pos="36" pan="0" key="51" len="12"/>
          <note vol="100" pos="36" pan="0" key="36" len="12"/>
          <note vol="75" pos="48" pan="0" key="96" len="12"/>
          <note vol="75" pos="48" pan="0" key="50" len="12"/>
          <note vol="150" pos="48" pan="0" key="38" len="12"/>
          <note vol="100" pos="48" pan="0" key="36" len="12"/>
          <note vol="100" pos="60" pan="0" key="51" len="12"/>
          <note vol="75" pos="72" pan="0" key="96" len="12"/>
          <note vol="75" pos="72" pan="0" key="50" len="12"/>
          <note vol="100" pos="72" pan="0" key="36" len="12"/>
          <note vol="75" pos="84" pan="0" key="96" len="12"/>
          <note vol="100" pos="84" pan="0" key="51" len="12"/>
          <note vol="75" pos="96" pan="0" key="50" len="12"/>
          <note vol="100" pos="96" pan="0" key="36" len="12"/>
          <note vol="75" pos="108" pan="0" key="96" len="12"/>
          <note vol="100" pos="108" pan="0" key="51" len="12"/>
          <note vol="100" pos="108" pan="0" key="36" len="12"/>
          <note vol="75" pos="120" pan="0" key="96" len="12"/>
          <note vol="75" pos="120" pan="0" key="50" len="12"/>
          <note vol="100" pos="120" pan="0" key="36" len="12"/>
          <note vol="100" pos="132" pan="0" key="51" len="12"/>
          <note vol="75" pos="144" pan="0" key="96" len="12"/>
          <note vol="75" pos="144" pan="0" key="50" len="12"/>
          <note vol="150" pos="144" pan="0" key="38" len="12"/>
          <note vol="100" pos="144" pan="0" key="36" len="12"/>
          <note vol="100" pos="156" pan="0" key="51" len="12"/>
          <note vol="75" pos="168" pan="0" key="96" len="12"/>
          <note vol="100" pos="168" pan="0" key="50" len="12"/>
          <note vol="100" pos="168" pan="0" key="36" len="12"/>
          <note vol="100" pos="180" pan="0" key="51" len="12"/>
          <note vol="100" pos="180" pan="0" key="36" len="12"/>
        </pattern>
        <pattern pos="4800" steps="16" muted="0" type="1" name="">
          <note vol="75" pos="0" pan="0" key="96" len="12"/>
          <note vol="75" pos="0" pan="0" key="50" len="12"/>
          <note vol="150" pos="0" pan="0" key="36" len="12"/>
          <note vol="75" pos="12" pan="0" key="96" len="12"/>
          <note vol="100" pos="12" pan="0" key="51" len="12"/>
          <note vol="100" pos="24" pan="0" key="50" len="12"/>
          <note vol="75" pos="36" pan="0" key="96" len="12"/>
          <note vol="100" pos="36" pan="0" key="51" len="12"/>
          <note vol="100" pos="36" pan="0" key="36" len="12"/>
          <note vol="75" pos="48" pan="0" key="96" len="12"/>
          <note vol="75" pos="48" pan="0" key="50" len="12"/>
          <note vol="150" pos="48" pan="0" key="38" len="12"/>
          <note vol="100" pos="48" pan="0" key="36" len="12"/>
          <note vol="100" pos="60" pan="0" key="51" len="12"/>
          <note vol="75" pos="72" pan="0" key="96" len="12"/>
          <note vol="75" pos="72" pan="0" key="50" len="12"/>
          <note vol="100" pos="72" pan="0" key="36" len="12"/>
          <note vol="75" pos="84" pan="0" key="96" len="12"/>
          <note vol="100" pos="84" pan="0" key="51" len="12"/>
          <note vol="75" pos="96" pan="0" key="50" len="12"/>
          <note vol="100" pos="96" pan="0" key="36" len="12"/>
          <note vol="75" pos="108" pan="0" key="96" len="12"/>
          <note vol="100" pos="108" pan="0" key="51" len="12"/>
          <note vol="100" pos="108" pan="0" key="36" len="12"/>
          <note vol="75" pos="120" pan="0" key="96" len="12"/>
          <note vol="75" pos="120" pan="0" key="50" len="12"/>
          <note vol="100" pos="120" pan="0" key="36" len="12"/>
          <note vol="100" pos="132" pan="0" key="51" len="12"/>
          <note vol="75" pos="144" pan="0" key="96" len="12"/>
          <note vol="75" pos="144" pan="0" key="50" len="12"/>
          <note vol="150" pos="144" pan="0" key="38" len="12"/>
          <note vol="100" pos="144" pan="0" key="36" len="12"/>
          <note vol="100" pos="156" pan="0" key="51" len="12"/>
          <note vol="75" pos="168" pan="0" key="96" len="12"/>
          <note vol="100" pos="168" pan="0" key="50" len="12"/>
          <note vol="100" pos="168" pan="0" key="36" len="12"/>
          <note vol="100" pos="180" pan="0" key="51" len="12"/>
          <note vol="100" pos="180" pan="0" key="36" len="12"/>
        </pattern>
        <pattern pos="4992" steps="16" muted="0" type="1" name="">
          <note vol="75" pos="0" pan="0" key="96" len="12"/>
          <note vol="75" pos="0" pan="0" key="50" len="12"/>
          <note vol="150" pos="0" pan="0" key="36" len="12"/>
          <note vol="75" pos="12" pan="0" key="96" len="12"/>
          <note vol="100" pos="12" pan="0" key="51" len="12"/>
          <note vol="100" pos="24" pan="0" key="50" len="12"/>
          <note vol="75" pos="36" pan="0" key="96" len="12"/>
          <note vol="100" pos="36" pan="0" key="51" len="12"/>
          <note vol="100" pos="36" pan="0" key="36" len="12"/>
          <note vol="75" pos="48" pan="0" key="96" len="12"/>
          <note vol="75" pos="48" pan="0" key="50" len="12"/>
          <note vol="150" pos="48" pan="0" key="38" len="12"/>
          <note vol="100" pos="48" pan="0" key="36" len="12"/>
          <note vol="100" pos="60" pan="0" key="51" len="12"/>
          <note vol="75" pos="72" pan="0" key="96" len="12"/>
          <note vol="75" pos="72" pan="0" key="50" len="12"/>
          <note vol="100" pos="72" pan="0" key="36" len="12"/>
          <note vol="75" pos="84" pan="0" key="96" len="12"/>
          <note vol="100" pos="84" pan="0" key="51" len="12"/>
          <note vol="75" pos="96" pan="0" key="50" len="12"/>
          <note vol="100" pos="96" pan="0" key="36" len="12"/>
          <note vol="75" pos="108" pan="0" key="96" len="12"/>
          <note vol="100" pos="108" pan="0" key="51" len="12"/>
          <note vol="100" pos="108" pan="0" key="36" len="12"/>
          <note vol="75" pos="120" pan="0" key="96" len="12"/>
          <note vol="75" pos="120" pan="0" key="50" len="12"/>
          <note vol="100" pos="120" pan="0" key="36" len="12"/>
          <note vol="100" pos="132" pan="0" key="51" len="12"/>
          <note vol="75" pos="144" pan="0" key="96" len="12"/>
          <note vol="75" pos="144" pan="0" key="50" len="12"/>
          <note vol="150" pos="144" pan="0" key="38" len="12"/>
          <note vol="100" pos="144" pan="0" key="36" len="12"/>
          <note vol="100" pos="156" pan="0" key="51" len="12"/>
          <note vol="75" pos="168" pan="0" key="96" len="12"/>
          <note vol="100" pos="168" pan="0" key="50" len="12"/>
          <note vol="100" pos="168" pan="0" key="36" len="12"/>
          <note vol="100" pos="180" pan="0" key="51" len="12"/>
          <note vol="100" pos="180" pan="0" key="36" len="12"/>
        </pattern>
        <pattern pos="5184" steps="16" muted="0" type="1" name="">
          <note vol="75" pos="0" pan="0" key="96" len="12"/>
          <note vol="75" pos="0" pan="0" key="50" len="12"/>
          <note vol="150" pos="0" pan="0" key="36" len="12"/>
          <note vol="75" pos="12" pan="0" key="96" len="12"/>
          <note vol="100" pos="12" pan="0" key="51" len="12"/>
          <note vol="100" pos="24" pan="0" key="50" len="12"/>
          <note vol="75" pos="36" pan="0" key="96" len="12"/>
          <note vol="100" pos="36" pan="0" key="51" len="12"/>
          <note vol="100" pos="36" pan="0" key="36" len="12"/>
          <note vol="75" pos="48" pan="0" key="96" len="12"/>
          <note vol="75" pos="48" pan="0" key="50" len="12"/>
          <note vol="150" pos="48" pan="0" key="38" len="12"/>
          <note vol="100" pos="48" pan="0" key="36" len="12"/>
          <note vol="100" pos="60" pan="0" key="51" len="12"/>
          <note vol="75" pos="72" pan="0" key="96" len="12"/>
          <note vol="75" pos="72" pan="0" key="50" len="12"/>
          <note vol="100" pos="72" pan="0" key="36" len="12"/>
          <note vol="75" pos="84" pan="0" key="96" len="12"/>
          <note vol="100" pos="84" pan="0" key="51" len="12"/>
          <note vol="75" pos="96" pan="0" key="50" len="12"/>
          <note vol="100" pos="96" pan="0" key="36" len="12"/>
          <note vol="75" pos="108" pan="0" key="96" len="12"/>
          <note vol="100" pos="108" pan="0" key="51" len="12"/>
          <note vol="100" pos="108" pan="0" key="36" len="12"/>
          <note vol="75" pos="120" pan="0" key="96" len="12"/>
          <note vol="75" pos="120" pan="0" key="50" len="12"/>
          <note vol="100" pos="120" pan="0" key="36" len="12"/>
          <note vol="100" pos="132" pan="0" key="51" len="12"/>
          <note vol="75" pos="144" pan="0" key="96" len="12"/>
          <note vol="75" pos="144" pan="0" key="50" len="12"/>
          <note vol="150" pos="144" pan="0" key="38" len="12"/>
          <note vol="100" pos="144" pan="0" key="36" len="12"/>
          <note vol="100" pos="156" pan="0" key="51" len="12"/>
          <note vol="75" pos="168" pan="0" key="96" len="12"/>
          <note vol="100" pos="168" pan="0" key="50" len="12"/>
          <note vol="100" pos="168" pan="0" key="36" len="12"/>
          <note vol="100" pos="180" pan="0" key="51" len="12"/>
          <note vol="100" pos="180" pan="0" key="36" len="12"/>
        </pattern>
        <pattern pos="5376" steps="16" muted="0" type="1" name="">
          <note vol="75" pos="0" pan="0" key="96" len="12"/>
          <note vol="75" pos="0" pan="0" key="50" len="12"/>
          <note vol="150" pos="0" pan="0" key="36" len="12"/>
          <note vol="75" pos="12" pan="0" key="96" len="12"/>
          <note vol="100" pos="12" pan="0" key="51" len="12"/>
          <note vol="100" pos="24" pan="0" key="50" len="12"/>
          <note vol="75" pos="36" pan="0" key="96" len="12"/>
          <note vol="100" pos="36" pan="0" key="51" len="12"/>
          <note vol="100" pos="36" pan="0" key="36" len="12"/>
          <note vol="75" pos="48" pan="0" key="96" len="12"/>
          <note vol="75" pos="48" pan="0" key="50" len="12"/>
          <note vol="150" pos="48" pan="0" key="38" len="12"/>
          <note vol="100" pos="48" pan="0" key="36" len="12"/>
          <note vol="100" pos="60" pan="0" key="51" len="12"/>
          <note vol="75" pos="72" pan="0" key="96" len="12"/>
          <note vol="75" pos="72" pan="0" key="50" len="12"/>
          <note vol="100" pos="72" pan="0" key="36" len="12"/>
          <note vol="75" pos="84" pan="0" key="96" len="12"/>
          <note vol="100" pos="84" pan="0" key="51" len="12"/>
          <note vol="75" pos="96" pan="0" key="50" len="12"/>
          <note vol="100" pos="96" pan="0" key="36" len="12"/>
          <note vol="75" pos="108" pan="0" key="96" len="12"/>
          <note vol="100" pos="108" pan="0" key="51" len="12"/>
          <note vol="100" pos="108" pan="0" key="36" len="12"/>
          <note vol="75" pos="120" pan="0" key="96" len="12"/>
          <note vol="75" pos="120" pan="0" key="50" len="12"/>
          <note vol="100" pos="120" pan="0" key="36" len="12"/>
          <note vol="100" pos="132" pan="0" key="51" len="12"/>
          <note vol="75" pos="144" pan="0" key="96" len="12"/>
          <note vol="75" pos="144" pan="0" key="50" len="12"/>
          <note vol="150" pos="144" pan="0" key="38" len="12"/>
          <note vol="100" pos="144" pan="0" key="36" len="12"/>
          <note vol="100" pos="156" pan="0" key="51" len="12"/>
          <note vol="75" pos="168" pan="0" key="96" len="12"/>
          <note vol="100" pos="168" pan="0" key="50" len="12"/>
          <note vol="100" pos="168" pan="0" key="36" len="12"/>
          <note vol="100" pos="180" pan="0" key="51" len="12"/>
          <note vol="100" pos="180" pan="0" key="36" len="12"/>
        </pattern>
        <pattern pos="5568" steps="16" muted="0" type="1" name="">
          <note vol="75" pos="0" pan="0" key="96" len="12"/>
          <note vol="75" pos="0" pan="0" key="50" len="12"/>
          <note vol="150" pos="0" pan="0" key="36" len="12"/>
          <note vol="75" pos="12" pan="0" key="96" len="12"/>
          <note vol="100" pos="12" pan="0" key="51" len="12"/>
          <note vol="100" pos="24" pan="0" key="50" len="12"/>
          <note vol="75" pos="36" pan="0" key="96" len="12"/>
          <note vol="100" pos="36" pan="0" key="51" len="12"/>
          <note vol="100" pos="36" pan="0" key="36" len="12"/>
          <note vol="75" pos="48" pan="0" key="96" len="12"/>
          <note vol="75" pos="48" pan="0" key="50" len="12"/>
          <note vol="150" pos="48" pan="0" key="38" len="12"/>
          <note vol="100" pos="48" pan="0" key="36" len="12"/>
          <note vol="100" pos="60" pan="0" key="51" len="12"/>
          <note vol="75" pos="72" pan="0" key="96" len="12"/>
          <note vol="75" pos="72" pan="0" key="50" len="12"/>
          <note vol="100" pos="72" pan="0" key="36" len="12"/>
          <note vol="75" pos="84" pan="0" key="96" len="12"/>
          <note vol="100" pos="84" pan="0" key="51" len="12"/>
          <note vol="75" pos="96" pan="0" key="50" len="12"/>
          <note vol="100" pos="96" pan="0" key="36" len="12"/>
          <note vol="75" pos="108" pan="0" key="96" len="12"/>
          <note vol="100" pos="108" pan="0" key="51" len="12"/>
          <note vol="100" pos="108" pan="0" key="36" len="12"/>
          <note vol="75" pos="120" pan="0" key="96" len="12"/>
          <note vol="75" pos="120" pan="0" key="50" len="12"/>
          <note vol="100" pos="120" pan="0" key="36" len="12"/>
          <note vol="100" pos="132" pan="0" key="51" len="12"/>
          <note vol="75" pos="144" pan="0" key="96" len="12"/>
          <note vol="75" pos="144" pan="0" key="50" len="12"/>
          <note vol="150" pos="144" pan="0" key="38" len="12"/>
          <note vol="100" pos="144" pan="0" key="36" len="12"/>
          <note vol="100" pos="156" pan="0" key="51" len="12"/>
          <note vol="75" pos="168" pan="0" key="96" len="12"/>
          <note vol="100" pos="168" pan="0" key="50" len="12"/>
          <note vol="100" pos="168" pan="0" key="36" len="12"/>
          <note vol="100" pos="180" pan="0" key="51" len="12"/>
          <note vol="100" pos="180" pan="0" key="36" len="12"/>
        </pattern>
        <pattern pos="5760" steps="16" muted="0" type="1" name="">
          <note vol="75" pos="0" pan="0" key="96" len="12"/>
          <note vol="75" pos="0" pan="0" key="50" len="12"/>
          <note vol="150" pos="0" pan="0" key="36" len="12"/>
          <note vol="75" pos="12" pan="0" key="96" len="12"/>
          <note vol="100" pos="12" pan="0" key="51" len="12"/>
          <note vol="100" pos="24" pan="0" key="50" len="12"/>
          <note vol="75" pos="36" pan="0" key="96" len="12"/>
          <note vol="100" pos="36" pan="0" key="51" len="12"/>
          <note vol="100" pos="36" pan="0" key="36" len="12"/>
          <note vol="75" pos="48" pan="0" key="96" len="12"/>
          <note vol="75" pos="48" pan="0" key="50" len="12"/>
          <note vol="150" pos="48" pan="0" key="38" len="12"/>
          <note vol="100" pos="48" pan="0" key="36" len="12"/>
          <note vol="100" pos="60" pan="0" key="51" len="12"/>
          <note vol="75" pos="72" pan="0" key="96" len="12"/>
          <note vol="75" pos="72" pan="0" key="50" len="12"/>
          <note vol="100" pos="72" pan="0" key="36" len="12"/>
          <note vol="75" pos="84" pan="0" key="96" len="12"/>
          <note vol="100" pos="84" pan="0" key="51" len="12"/>
          <note vol="75" pos="96" pan="0" key="50" len="12"/>
          <note vol="100" pos="96" pan="0" key="36" len="12"/>
          <note vol="75" pos="108" pan="0" key="96" len="12"/>
          <note vol="100" pos="108" pan="0" key="51" len="12"/>
          <note vol="100" pos="108" pan="0" key="36" len="12"/>
          <note vol="75" pos="120" pan="0" key="96" len="12"/>
          <note vol="75" pos="120" pan="0" key="50" len="12"/>
          <note vol="100" pos="120" pan="0" key="36" len="12"/>
          <note vol="100" pos="132" pan="0" key="51" len="12"/>
          <note vol="75" pos="144" pan="0" key="96" len="12"/>
          <note vol="75" pos="144" pan="0" key="50" len="12"/>
          <note vol="150" pos="144" pan="0" key="38" len="12"/>
          <note vol="100" pos="144" pan="0" key="36" len="12"/>
          <note vol="100" pos="156" pan="0" key="51" len="12"/>
          <note vol="75" pos="168" pan="0" key="96" len="12"/>
          <note vol="100" pos="168" pan="0" key="50" len="12"/>
          <note vol="100" pos="168" pan="0" key="36" len="12"/>
          <note vol="100" pos="180" pan="0" key="51" len="12"/>
          <note vol="100" pos="180" pan="0" key="36" len="12"/>
        </pattern>
        <pattern pos="5952" steps="16" muted="0" type="1" name="">
          <note vol="75" pos="0" pan="0" key="96" len="12"/>
          <note vol="75" pos="0" pan="0" key="50" len="12"/>
          <note vol="150" pos="0" pan="0" key="36" len="12"/>
          <note vol="75" pos="12" pan="0" key="96" len="12"/>
          <note vol="100" pos="12" pan="0" key="51" len="12"/>
          <note vol="100" pos="24" pan="0" key="50" len="12"/>
          <note vol="75" pos="36" pan="0" key="96" len="12"/>
          <note vol="100" pos="36" pan="0" key="51" len="12"/>
          <note vol="100" pos="36" pan="0" key="36" len="12"/>
          <note vol="75" pos="48" pan="0" key="96" len="12"/>
          <note vol="75" pos="48" pan="0" key="50" len="12"/>
          <note vol="150" pos="48" pan="0" key="38" len="12"/>
          <note vol="100" pos="48" pan="0" key="36" len="12"/>
          <note vol="100" pos="60" pan="0" key="51" len="12"/>
          <note vol="75" pos="72" pan="0" key="96" len="12"/>
          <note vol="75" pos="72" pan="0" key="50" len="12"/>
          <note vol="100" pos="72" pan="0" key="36" len="12"/>
          <note vol="75" pos="84" pan="0" key="96" len="12"/>
          <note vol="100" pos="84" pan="0" key="51" len="12"/>
          <note vol="75" pos="96" pan="0" key="50" len="12"/>
          <note vol="100" pos="96" pan="0" key="36" len="12"/>
          <note vol="75" pos="108" pan="0" key="96" len="12"/>
          <note vol="100" pos="108" pan="0" key="51" len="12"/>
          <note vol="100" pos="108" pan="0" key="36" len="12"/>
          <note vol="75" pos="120" pan="0" key="96" len="12"/>
          <note vol="75" pos="120" pan="0" key="50" len="12"/>
          <note vol="100" pos="120" pan="0" key="36" len="12"/>
          <note vol="100" pos="132" pan="0" key="51" len="12"/>
          <note vol="75" pos="144" pan="0" key="96" len="12"/>
          <note vol="75" pos="144" pan="0" key="50" len="12"/>
          <note vol="150" pos="144" pan="0" key="38" len="12"/>
          <note vol="100" pos="144" pan="0" key="36" len="12"/>
          <note vol="100" pos="156" pan="0" key="51" len="12"/>
          <note vol="75" pos="168" pan="0" key="96" len="12"/>
          <note vol="100" pos="168" pan="0" key="50" len="12"/>
          <note vol="100" pos="168" pan="0" key="36" len="12"/>
          <note vol="100" pos="180" pan="0" key="51" len="12"/>
          <note vol="100" pos="180" pan="0" key="36" len="12"/>
        </pattern>
        <pattern pos="6144" steps="16" muted="0" type="1" name="">
          <note vol="75" pos="0" pan="0" key="96" len="12"/>
          <note vol="75" pos="0" pan="0" key="50" len="12"/>
          <note vol="150" pos="0" pan="0" key="36" len="12"/>
          <note vol="75" pos="12" pan="0" key="96" len="12"/>
          <note vol="100" pos="12" pan="0" key="51" len="12"/>
          <note vol="100" pos="24" pan="0" key="50" len="12"/>
          <note vol="75" pos="36" pan="0" key="96" len="12"/>
          <note vol="100" pos="36" pan="0" key="51" len="12"/>
          <note vol="100" pos="36" pan="0" key="36" len="12"/>
          <note vol="75" pos="48" pan="0" key="96" len="12"/>
          <note vol="75" pos="48" pan="0" key="50" len="12"/>
          <note vol="150" pos="48" pan="0" key="38" len="12"/>
          <note vol="100" pos="48" pan="0" key="36" len="12"/>
          <note vol="100" pos="60" pan="0" key="51" len="12"/>
          <note vol="75" pos="72" pan="0" key="96" len="12"/>
          <note vol="75" pos="72" pan="0" key="50" len="12"/>
          <note vol="100" pos="72" pan="0" key="36" len="12"/>
          <note vol="75" pos="84" pan="0" key="96" len="12"/>
          <note vol="100" pos="84" pan="0" key="51" len="12"/>
          <note vol="75" pos="96" pan="0" key="50" len="12"/>
          <note vol="100" pos="96" pan="0" key="36" len="12"/>
          <note vol="75" pos="108" pan="0" key="96" len="12"/>
          <note vol="100" pos="108" pan="0" key="51" len="12"/>
          <note vol="100" pos="108" pan="0" key="36" len="12"/>
          <note vol="75" pos="120" pan="0" key="96" len="12"/>
          <note vol="75" pos="120" pan="0" key="50" len="12"/>
          <note vol="100" pos="120" pan="0" key="36" len="12"/>
          <note vol="100" pos="132" pan="0" key="51" len="12"/>
          <note vol="75" pos="144" pan="0" key="96" len="12"/>
          <note vol="75" pos="144" pan="0" key="50" len="12"/>
          <note vol="150" pos="144" pan="0" key="38" len="12"/>
          <note vol="100" pos="144" pan="0" key="36" len="12"/>
          <note vol="100" pos="156" pan="0" key="51" len="12"/>
          <note vol="75" pos="168" pan="0" key="96" len="12"/>
          <note vol="100" pos="168" pan="0" key="50" len="12"/>
          <note vol="100" pos="168" pan="0" key="36" len="12"/>
          <note vol="100" pos="180" pan="0" key="51" len="12"/>
          <note vol="100" pos="180" pan="0" key="36" len="12"/>
        </pattern>
        <pattern pos="6528" steps="16" muted="0" type="1" name="">
          <note vol="75" pos="0" pan="0" key="96" len="12"/>
          <note vol="75" pos="0" pan="0" key="50" len="12"/>
          <note vol="150" pos="0" pan="0" key="36" len="12"/>
          <note vol="75" pos="12" pan="0" key="96" len="12"/>
          <note vol="100" pos="12" pan="0" key="51" len="12"/>
          <note vol="100" pos="24" pan="0" key="50" len="12"/>
          <note vol="75" pos="36" pan="0" key="96" len="12"/>
          <note vol="100" pos="36" pan="0" key="51" len="12"/>
          <note vol="100" pos="36" pan="0" key="36" len="12"/>
          <note vol="75" pos="48" pan="0" key="96" len="12"/>
          <note vol="75" pos="48" pan="0" key="50" len="12"/>
          <note vol="150" pos="48" pan="0" key="38" len="12"/>
          <note vol="100" pos="48" pan="0" key="36" len="12"/>
          <note vol="100" pos="60" pan="0" key="51" len="12"/>
          <note vol="75" pos="72" pan="0" key="96" len="12"/>
          <note vol="75" pos="72" pan="0" key="50" len="12"/>
          <note vol="100" pos="72" pan="0" key="36" len="12"/>
          <note vol="75" pos="84" pan="0" key="96" len="12"/>
          <note vol="100" pos="84" pan="0" key="51" len="12"/>
          <note vol="75" pos="96" pan="0" key="50" len="12"/>
          <note vol="100" pos="96" pan="0" key="36" len="12"/>
          <note vol="75" pos="108" pan="0" key="96" len="12"/>
          <note vol="100" pos="108" pan="0" key="51" len="12"/>
          <note vol="100" pos="108" pan="0" key="36" len="12"/>
          <note vol="75" pos="120" pan="0" key="96" len="12"/>
          <note vol="75" pos="120" pan="0" key="50" len="12"/>
          <note vol="100" pos="120" pan="0" key="36" len="12"/>
          <note vol="100" pos="132" pan="0" key="51" len="12"/>
          <note vol="75" pos="144" pan="0" key="96" len="12"/>
          <note vol="75" pos="144" pan="0" key="50" len="12"/>
          <note vol="150" pos="144" pan="0" key="38" len="12"/>
          <note vol="100" pos="144" pan="0" key="36" len="12"/>
          <note vol="100" pos="156" pan="0" key="51" len="12"/>
          <note vol="75" pos="168" pan="0" key="96" len="12"/>
          <note vol="100" pos="168" pan="0" key="50" len="12"/>
          <note vol="100" pos="168" pan="0" key="36" len="12"/>
          <note vol="100" pos="180" pan="0" key="51" len="12"/>
          <note vol="100" pos="180" pan="0" key="36" len="12"/>
        </pattern>
        <pattern pos="6336" steps="16" muted="0" type="1" name="">
          <note vol="75" pos="0" pan="0" key="96" len="12"/>
          <note vol="75" pos="0" pan="0" key="50" len="12"/>
          <note vol="150" pos="0" pan="0" key="36" len="12"/>
          <note vol="75" pos="12" pan="0" key="96" len="12"/>
          <note vol="100" pos="12" pan="0" key="51" len="12"/>
          <note vol="100" pos="24" pan="0" key="50" len="12"/>
          <note vol="75" pos="36" pan="0" key="96" len="12"/>
          <note vol="100" pos="36" pan="0" key="51" len="12"/>
          <note vol="100" pos="36" pan="0" key="36" len="12"/>
          <note vol="75" pos="48" pan="0" key="96" len="12"/>
          <note vol="75" pos="48" pan="0" key="50" len="12"/>
          <note vol="150" pos="48" pan="0" key="38" len="12"/>
          <note vol="100" pos="48" pan="0" key="36" len="12"/>
          <note vol="100" pos="60" pan="0" key="51" len="12"/>
          <note vol="75" pos="72" pan="0" key="96" len="12"/>
          <note vol="75" pos="72" pan="0" key="50" len="12"/>
          <note vol="100" pos="72" pan="0" key="36" len="12"/>
          <note vol="75" pos="84" pan="0" key="96" len="12"/>
          <note vol="100" pos="84" pan="0" key="51" len="12"/>
          <note vol="75" pos="96" pan="0" key="50" len="12"/>
          <note vol="100" pos="96" pan="0" key="36" len="12"/>
          <note vol="75" pos="108" pan="0" key="96" len="12"/>
          <note vol="100" pos="108" pan="0" key="51" len="12"/>
          <note vol="100" pos="108" pan="0" key="36" len="12"/>
          <note vol="75" pos="120" pan="0" key="96" len="12"/>
          <note vol="75" pos="120" pan="0" key="50" len="12"/>
          <note vol="100" pos="120" pan="0" key="36" len="12"/>
          <note vol="100" pos="132" pan="0" key="51" len="12"/>
          <note vol="75" pos="144" pan="0" key="96" len="12"/>
          <note vol="75" pos="144" pan="0" key="50" len="12"/>
          <note vol="150" pos="144" pan="0" key="38" len="12"/>
          <note vol="100" pos="144" pan="0" key="36" len="12"/>
          <note vol="100" pos="156" pan="0" key="51" len="12"/>
          <note vol="75" pos="168" pan="0" key="96" len="12"/>
          <note vol="100" pos="168" pan="0" key="50" len="12"/>
          <note vol="100" pos="168" pan="0" key="36" len="12"/>
          <note vol="100" pos="180" pan="0" key="51" len="12"/>
          <note vol="100" pos="180" pan="0" key="36" len="12"/>
        </pattern>
        <pattern pos="6720" steps="16" muted="0" type="1" name="">
          <note vol="75" pos="0" pan="0" key="96" len="12"/>
          <note vol="75" pos="0" pan="0" key="50" len="12"/>
          <note vol="150" pos="0" pan="0" key="36" len="12"/>
          <note vol="75" pos="12" pan="0" key="96" len="12"/>
          <note vol="100" pos="12" pan="0" key="51" len="12"/>
          <note vol="100" pos="24" pan="0" key="50" len="12"/>
          <note vol="75" pos="36" pan="0" key="96" len="12"/>
          <note vol="100" pos="36" pan="0" key="51" len="12"/>
          <note vol="100" pos="36" pan="0" key="36" len="12"/>
          <note vol="75" pos="48" pan="0" key="96" len="12"/>
          <note vol="75" pos="48" pan="0" key="50" len="12"/>
          <note vol="150" pos="48" pan="0" key="38" len="12"/>
          <note vol="100" pos="48" pan="0" key="36" len="12"/>
          <note vol="100" pos="60" pan="0" key="51" len="12"/>
          <note vol="75" pos="72" pan="0" key="96" len="12"/>
          <note vol="75" pos="72" pan="0" key="50" len="12"/>
          <note vol="100" pos="72" pan="0" key="36" len="12"/>
          <note vol="75" pos="84" pan="0" key="96" len="12"/>
          <note vol="100" pos="84" pan="0" key="51" len="12"/>
          <note vol="75" pos="96" pan="0" key="50" len="12"/>
          <note vol="100" pos="96" pan="0" key="36" len="12"/>
          <note vol="75" pos="108" pan="0" key="96" len="12"/>
          <note vol="100" pos="108" pan="0" key="51" len="12"/>
          <note vol="100" pos="108" pan="0" key="36" len="12"/>
          <note vol="75" pos="120" pan="0" key="96" len="12"/>
          <note vol="75" pos="120" pan="0" key="50" len="12"/>
          <note vol="100" pos="120" pan="0" key="36" len="12"/>
          <note vol="100" pos="132" pan="0" key="51" len="12"/>
          <note vol="75" pos="144" pan="0" key="96" len="12"/>
          <note vol="75" pos="144" pan="0" key="50" len="12"/>
          <note vol="150" pos="144" pan="0" key="38" len="12"/>
          <note vol="100" pos="144" pan="0" key="36" len="12"/>
          <note vol="100" pos="156" pan="0" key="51" len="12"/>
          <note vol="75" pos="168" pan="0" key="96" len="12"/>
          <note vol="100" pos="168" pan="0" key="50" len="12"/>
          <note vol="100" pos="168" pan="0" key="36" len="12"/>
          <note vol="100" pos="180" pan="0" key="51" len="12"/>
          <note vol="100" pos="180" pan="0" key="36" len="12"/>
        </pattern>
        <pattern pos="6912" steps="16" muted="0" type="1" name="">
          <note vol="75" pos="0" pan="0" key="96" len="12"/>
          <note vol="75" pos="0" pan="0" key="50" len="12"/>
          <note vol="150" pos="0" pan="0" key="36" len="12"/>
          <note vol="75" pos="12" pan="0" key="96" len="12"/>
          <note vol="100" pos="12" pan="0" key="51" len="12"/>
          <note vol="100" pos="24" pan="0" key="50" len="12"/>
          <note vol="75" pos="36" pan="0" key="96" len="12"/>
          <note vol="100" pos="36" pan="0" key="51" len="12"/>
          <note vol="100" pos="36" pan="0" key="36" len="12"/>
          <note vol="75" pos="48" pan="0" key="96" len="12"/>
          <note vol="75" pos="48" pan="0" key="50" len="12"/>
          <note vol="150" pos="48" pan="0" key="38" len="12"/>
          <note vol="100" pos="48" pan="0" key="36" len="12"/>
          <note vol="100" pos="60" pan="0" key="51" len="12"/>
          <note vol="75" pos="72" pan="0" key="96" len="12"/>
          <note vol="75" pos="72" pan="0" key="50" len="12"/>
          <note vol="100" pos="72" pan="0" key="36" len="12"/>
          <note vol="75" pos="84" pan="0" key="96" len="12"/>
          <note vol="100" pos="84" pan="0" key="51" len="12"/>
          <note vol="75" pos="96" pan="0" key="50" len="12"/>
          <note vol="100" pos="96" pan="0" key="36" len="12"/>
          <note vol="75" pos="108" pan="0" key="96" len="12"/>
          <note vol="100" pos="108" pan="0" key="51" len="12"/>
          <note vol="100" pos="108" pan="0" key="36" len="12"/>
          <note vol="75" pos="120" pan="0" key="96" len="12"/>
          <note vol="75" pos="120" pan="0" key="50" len="12"/>
          <note vol="100" pos="120" pan="0" key="36" len="12"/>
          <note vol="100" pos="132" pan="0" key="51" len="12"/>
          <note vol="75" pos="144" pan="0" key="96" len="12"/>
          <note vol="75" pos="144" pan="0" key="50" len="12"/>
          <note vol="150" pos="144" pan="0" key="38" len="12"/>
          <note vol="100" pos="144" pan="0" key="36" len="12"/>
          <note vol="100" pos="156" pan="0" key="51" len="12"/>
          <note vol="75" pos="168" pan="0" key="96" len="12"/>
          <note vol="100" pos="168" pan="0" key="50" len="12"/>
          <note vol="100" pos="168" pan="0" key="36" len="12"/>
          <note vol="100" pos="180" pan="0" key="51" len="12"/>
          <note vol="100" pos="180" pan="0" key="36" len="12"/>
        </pattern>
        <pattern pos="7104" steps="16" muted="0" type="1" name="">
          <note vol="75" pos="0" pan="0" key="96" len="12"/>
          <note vol="75" pos="0" pan="0" key="50" len="12"/>
          <note vol="150" pos="0" pan="0" key="36" len="12"/>
          <note vol="75" pos="12" pan="0" key="96" len="12"/>
          <note vol="100" pos="12" pan="0" key="51" len="12"/>
          <note vol="100" pos="24" pan="0" key="50" len="12"/>
          <note vol="75" pos="36" pan="0" key="96" len="12"/>
          <note vol="100" pos="36" pan="0" key="51" len="12"/>
          <note vol="100" pos="36" pan="0" key="36" len="12"/>
          <note vol="75" pos="48" pan="0" key="96" len="12"/>
          <note vol="75" pos="48" pan="0" key="50" len="12"/>
          <note vol="150" pos="48" pan="0" key="38" len="12"/>
          <note vol="100" pos="48" pan="0" key="36" len="12"/>
          <note vol="100" pos="60" pan="0" key="51" len="12"/>
          <note vol="75" pos="72" pan="0" key="96" len="12"/>
          <note vol="75" pos="72" pan="0" key="50" len="12"/>
          <note vol="100" pos="72" pan="0" key="36" len="12"/>
          <note vol="75" pos="84" pan="0" key="96" len="12"/>
          <note vol="100" pos="84" pan="0" key="51" len="12"/>
          <note vol="75" pos="96" pan="0" key="50" len="12"/>
          <note vol="100" pos="96" pan="0" key="36" len="12"/>
          <note vol="75" pos="108" pan="0" key="96" len="12"/>
          <note vol="100" pos="108" pan="0" key="51" len="12"/>
          <note vol="100" pos="108" pan="0" key="36" len="12"/>
          <note vol="75" pos="120" pan="0" key="96" len="12"/>
          <note vol="75" pos="120" pan="0" key="50" len="12"/>
          <note vol="100" pos="120" pan="0" key="36" len="12"/>
          <note vol="100" pos="132" pan="0" key="51" len="12"/>
          <note vol="75" pos="144" pan="0" key="96" len="12"/>
          <note vol="75" pos="144" pan="0" key="50" len="12"/>
          <note vol="150" pos="144" pan="0" key="38" len="12"/>
          <note vol="100" pos="144" pan="0" key="36" len="12"/>
          <note vol="100" pos="156" pan="0" key="51" len="12"/>
          <note vol="75" pos="168" pan="0" key="96" len="12"/>
          <note vol="100" pos="168" pan="0" key="50" len="12"/>
          <note vol="100" pos="168" pan="0" key="36" len="12"/>
          <note vol="100" pos="180" pan="0" key="51" len="12"/>
          <note vol="100" pos="180" pan="0" key="36" len="12"/>
        </pattern>
        <pattern pos="7296" steps="16" muted="0" type="1" name="">
          <note vol="75" pos="0" pan="0" key="96" len="12"/>
          <note vol="75" pos="0" pan="0" key="50" len="12"/>
          <note vol="150" pos="0" pan="0" key="36" len="12"/>
          <note vol="75" pos="12" pan="0" key="96" len="12"/>
          <note vol="100" pos="12" pan="0" key="51" len="12"/>
          <note vol="100" pos="24" pan="0" key="50" len="12"/>
          <note vol="75" pos="36" pan="0" key="96" len="12"/>
          <note vol="100" pos="36" pan="0" key="51" len="12"/>
          <note vol="100" pos="36" pan="0" key="36" len="12"/>
          <note vol="75" pos="48" pan="0" key="96" len="12"/>
          <note vol="75" pos="48" pan="0" key="50" len="12"/>
          <note vol="150" pos="48" pan="0" key="38" len="12"/>
          <note vol="100" pos="48" pan="0" key="36" len="12"/>
          <note vol="100" pos="60" pan="0" key="51" len="12"/>
          <note vol="75" pos="72" pan="0" key="96" len="12"/>
          <note vol="75" pos="72" pan="0" key="50" len="12"/>
          <note vol="100" pos="72" pan="0" key="36" len="12"/>
          <note vol="75" pos="84" pan="0" key="96" len="12"/>
          <note vol="100" pos="84" pan="0" key="51" len="12"/>
          <note vol="75" pos="96" pan="0" key="50" len="12"/>
          <note vol="100" pos="96" pan="0" key="36" len="12"/>
          <note vol="75" pos="108" pan="0" key="96" len="12"/>
          <note vol="100" pos="108" pan="0" key="51" len="12"/>
          <note vol="100" pos="108" pan="0" key="36" len="12"/>
          <note vol="75" pos="120" pan="0" key="96" len="12"/>
          <note vol="75" pos="120" pan="0" key="50" len="12"/>
          <note vol="100" pos="120" pan="0" key="36" len="12"/>
          <note vol="100" pos="132" pan="0" key="51" len="12"/>
          <note vol="75" pos="144" pan="0" key="96" len="12"/>
          <note vol="75" pos="144" pan="0" key="50" len="12"/>
          <note vol="150" pos="144" pan="0" key="38" len="12"/>
          <note vol="100" pos="144" pan="0" key="36" len="12"/>
          <note vol="100" pos="156" pan="0" key="51" len="12"/>
          <note vol="75" pos="168" pan="0" key="96" len="12"/>
          <note vol="100" pos="168" pan="0" key="50" len="12"/>
          <note vol="100" pos="168" pan="0" key="36" len="12"/>
          <note vol="100" pos="180" pan="0" key="51" len="12"/>
          <note vol="100" pos="180" pan="0" key="36" len="12"/>
        </pattern>
        <pattern pos="7488" steps="16" muted="0" type="1" name="">
          <note vol="75" pos="0" pan="0" key="96" len="12"/>
          <note vol="75" pos="0" pan="0" key="50" len="12"/>
          <note vol="150" pos="0" pan="0" key="36" len="12"/>
          <note vol="75" pos="12" pan="0" key="96" len="12"/>
          <note vol="100" pos="12" pan="0" key="51" len="12"/>
          <note vol="100" pos="24" pan="0" key="50" len="12"/>
          <note vol="75" pos="36" pan="0" key="96" len="12"/>
          <note vol="100" pos="36" pan="0" key="51" len="12"/>
          <note vol="100" pos="36" pan="0" key="36" len="12"/>
          <note vol="75" pos="48" pan="0" key="96" len="12"/>
          <note vol="75" pos="48" pan="0" key="50" len="12"/>
          <note vol="150" pos="48" pan="0" key="38" len="12"/>
          <note vol="100" pos="48" pan="0" key="36" len="12"/>
          <note vol="100" pos="60" pan="0" key="51" len="12"/>
          <note vol="75" pos="72" pan="0" key="96" len="12"/>
          <note vol="75" pos="72" pan="0" key="50" len="12"/>
          <note vol="100" pos="72" pan="0" key="36" len="12"/>
          <note vol="75" pos="84" pan="0" key="96" len="12"/>
          <note vol="100" pos="84" pan="0" key="51" len="12"/>
          <note vol="75" pos="96" pan="0" key="50" len="12"/>
          <note vol="100" pos="96" pan="0" key="36" len="12"/>
          <note vol="75" pos="108" pan="0" key="96" len="12"/>
          <note vol="100" pos="108" pan="0" key="51" len="12"/>
          <note vol="100" pos="108" pan="0" key="36" len="12"/>
          <note vol="75" pos="120" pan="0" key="96" len="12"/>
          <note vol="75" pos="120" pan="0" key="50" len="12"/>
          <note vol="100" pos="120" pan="0" key="36" len="12"/>
          <note vol="100" pos="132" pan="0" key="51" len="12"/>
          <note vol="75" pos="144" pan="0" key="96" len="12"/>
          <note vol="75" pos="144" pan="0" key="50" len="12"/>
          <note vol="150" pos="144" pan="0" key="38" len="12"/>
          <note vol="100" pos="144" pan="0" key="36" len="12"/>
          <note vol="100" pos="156" pan="0" key="51" len="12"/>
          <note vol="75" pos="168" pan="0" key="96" len="12"/>
          <note vol="100" pos="168" pan="0" key="50" len="12"/>
          <note vol="100" pos="168" pan="0" key="36" len="12"/>
          <note vol="100" pos="180" pan="0" key="51" len="12"/>
          <note vol="100" pos="180" pan="0" key="36" len="12"/>
        </pattern>
        <pattern pos="7680" steps="16" muted="0" type="1" name="">
          <note vol="75" pos="0" pan="0" key="96" len="12"/>
          <note vol="75" pos="0" pan="0" key="50" len="12"/>
          <note vol="150" pos="0" pan="0" key="36" len="12"/>
          <note vol="75" pos="12" pan="0" key="96" len="12"/>
          <note vol="100" pos="12" pan="0" key="51" len="12"/>
          <note vol="100" pos="24" pan="0" key="50" len="12"/>
          <note vol="75" pos="36" pan="0" key="96" len="12"/>
          <note vol="100" pos="36" pan="0" key="51" len="12"/>
          <note vol="100" pos="36" pan="0" key="36" len="12"/>
          <note vol="75" pos="48" pan="0" key="96" len="12"/>
          <note vol="75" pos="48" pan="0" key="50" len="12"/>
          <note vol="150" pos="48" pan="0" key="38" len="12"/>
          <note vol="100" pos="48" pan="0" key="36" len="12"/>
          <note vol="100" pos="60" pan="0" key="51" len="12"/>
          <note vol="75" pos="72" pan="0" key="96" len="12"/>
          <note vol="75" pos="72" pan="0" key="50" len="12"/>
          <note vol="100" pos="72" pan="0" key="36" len="12"/>
          <note vol="75" pos="84" pan="0" key="96" len="12"/>
          <note vol="100" pos="84" pan="0" key="51" len="12"/>
          <note vol="75" pos="96" pan="0" key="50" len="12"/>
          <note vol="100" pos="96" pan="0" key="36" len="12"/>
          <note vol="75" pos="108" pan="0" key="96" len="12"/>
          <note vol="100" pos="108" pan="0" key="51" len="12"/>
          <note vol="100" pos="108" pan="0" key="36" len="12"/>
          <note vol="75" pos="120" pan="0" key="96" len="12"/>
          <note vol="75" pos="120" pan="0" key="50" len="12"/>
          <note vol="100" pos="120" pan="0" key="36" len="12"/>
          <note vol="100" pos="132" pan="0" key="51" len="12"/>
          <note vol="75" pos="144" pan="0" key="96" len="12"/>
          <note vol="75" pos="144" pan="0" key="50" len="12"/>
          <note vol="150" pos="144" pan="0" key="38" len="12"/>
          <note vol="100" pos="144" pan="0" key="36" len="12"/>
          <note vol="100" pos="156" pan="0" key="51" len="12"/>
          <note vol="75" pos="168" pan="0" key="96" len="12"/>
          <note vol="100" pos="168" pan="0" key="50" len="12"/>
          <note vol="100" pos="168" pan="0" key="36" len="12"/>
          <note vol="100" pos="180" pan="0" key="51" len="12"/>
          <note vol="100" pos="180" pan="0" key="36" len="12"/>
        </pattern>
        <pattern pos="7872" steps="16" muted="0" type="1" name="">
          <note vol="75" pos="0" pan="0" key="96" len="12"/>
          <note vol="75" pos="0" pan="0" key="50" len="12"/>
          <note vol="150" pos="0" pan="0" key="36" len="12"/>
          <note vol="75" pos="12" pan="0" key="96" len="12"/>
          <note vol="100" pos="12" pan="0" key="51" len="12"/>
          <note vol="100" pos="24" pan="0" key="50" len="12"/>
          <note vol="75" pos="36" pan="0" key="96" len="12"/>
          <note vol="100" pos="36" pan="0" key="51" len="12"/>
          <note vol="100" pos="36" pan="0" key="36" len="12"/>
          <note vol="75" pos="48" pan="0" key="96" len="12"/>
          <note vol="75" pos="48" pan="0" key="50" len="12"/>
          <note vol="150" pos="48" pan="0" key="38" len="12"/>
          <note vol="100" pos="48" pan="0" key="36" len="12"/>
          <note vol="100" pos="60" pan="0" key="51" len="12"/>
          <note vol="75" pos="72" pan="0" key="96" len="12"/>
          <note vol="75" pos="72" pan="0" key="50" len="12"/>
          <note vol="100" pos="72" pan="0" key="36" len="12"/>
          <note vol="75" pos="84" pan="0" key="96" len="12"/>
          <note vol="100" pos="84" pan="0" key="51" len="12"/>
          <note vol="75" pos="96" pan="0" key="50" len="12"/>
          <note vol="100" pos="96" pan="0" key="36" len="12"/>
          <note vol="75" pos="108" pan="0" key="96" len="12"/>
          <note vol="100" pos="108" pan="0" key="51" len="12"/>
          <note vol="100" pos="108" pan="0" key="36" len="12"/>
          <note vol="75" pos="120" pan="0" key="96" len="12"/>
          <note vol="75" pos="120" pan="0" key="50" len="12"/>
          <note vol="100" pos="120" pan="0" key="36" len="12"/>
          <note vol="100" pos="132" pan="0" key="51" len="12"/>
          <note vol="75" pos="144" pan="0" key="96" len="12"/>
          <note vol="75" pos="144" pan="0" key="50" len="12"/>
          <note vol="150" pos="144" pan="0" key="38" len="12"/>
          <note vol="100" pos="144" pan="0" key="36" len="12"/>
          <note vol="100" pos="156" pan="0" key="51" len="12"/>
          <note vol="75" pos="168" pan="0" key="96" len="12"/>
          <note vol="100" pos="168" pan="0" key="50" len="12"/>
          <note vol="100" pos="168" pan="0" key="36" len="12"/>
          <note vol="100" pos="180" pan="0" key="51" len="12"/>
          <note vol="100" pos="180" pan="0" key="36" len="12"/>
        </pattern>
        <pattern pos="8256" steps="16" muted="0" type="1" name="">
          <note vol="75" pos="0" pan="0" key="96" len="12"/>
          <note vol="75" pos="0" pan="0" key="50" len="12"/>
          <note vol="150" pos="0" pan="0" key="36" len="12"/>
          <note vol="75" pos="12" pan="0" key="96" len="12"/>
          <note vol="100" pos="12" pan="0" key="51" len="12"/>
          <note vol="100" pos="24" pan="0" key="50" len="12"/>
          <note vol="75" pos="36" pan="0" key="96" len="12"/>
          <note vol="100" pos="36" pan="0" key="51" len="12"/>
          <note vol="100" pos="36" pan="0" key="36" len="12"/>
          <note vol="75" pos="48" pan="0" key="96" len="12"/>
          <note vol="75" pos="48" pan="0" key="50" len="12"/>
          <note vol="150" pos="48" pan="0" key="38" len="12"/>
          <note vol="100" pos="48" pan="0" key="36" len="12"/>
          <note vol="100" pos="60" pan="0" key="51" len="12"/>
          <note vol="75" pos="72" pan="0" key="96" len="12"/>
          <note vol="75" pos="72" pan="0" key="50" len="12"/>
          <note vol="100" pos="72" pan="0" key="36" len="12"/>
          <note vol="75" pos="84" pan="0" key="96" len="12"/>
          <note vol="100" pos="84" pan="0" key="51" len="12"/>
          <note vol="75" pos="96" pan="0" key="50" len="12"/>
          <note vol="100" pos="96" pan="0" key="36" len="12"/>
          <note vol="75" pos="108" pan="0" key="96" len="12"/>
          <note vol="100" pos="108" pan="0" key="51" len="12"/>
          <note vol="100" pos="108" pan="0" key="36" len="12"/>
          <note vol="75" pos="120" pan="0" key="96" len="12"/>
          <note vol="75" pos="120" pan="0" key="50" len="12"/>
          <note vol="100" pos="120" pan="0" key="36" len="12"/>
          <note vol="100" pos="132" pan="0" key="51" len="12"/>
          <note vol="75" pos="144" pan="0" key="96" len="12"/>
          <note vol="75" pos="144" pan="0" key="50" len="12"/>
          <note vol="150" pos="144" pan="0" key="38" len="12"/>
          <note vol="100" pos="144" pan="0" key="36" len="12"/>
          <note vol="100" pos="156" pan="0" key="51" len="12"/>
          <note vol="75" pos="168" pan="0" key="96" len="12"/>
          <note vol="100" pos="168" pan="0" key="50" len="12"/>
          <note vol="100" pos="168" pan="0" key="36" len="12"/>
          <note vol="100" pos="180" pan="0" key="51" len="12"/>
          <note vol="100" pos="180" pan="0" key="36" len="12"/>
        </pattern>
        <pattern pos="8064" steps="16" muted="0" type="1" name="">
          <note vol="75" pos="0" pan="0" key="96" len="12"/>
          <note vol="75" pos="0" pan="0" key="50" len="12"/>
          <note vol="150" pos="0" pan="0" key="36" len="12"/>
          <note vol="75" pos="12" pan="0" key="96" len="12"/>
          <note vol="100" pos="12" pan="0" key="51" len="12"/>
          <note vol="100" pos="24" pan="0" key="50" len="12"/>
          <note vol="75" pos="36" pan="0" key="96" len="12"/>
          <note vol="100" pos="36" pan="0" key="51" len="12"/>
          <note vol="100" pos="36" pan="0" key="36" len="12"/>
          <note vol="75" pos="48" pan="0" key="96" len="12"/>
          <note vol="75" pos="48" pan="0" key="50" len="12"/>
          <note vol="150" pos="48" pan="0" key="38" len="12"/>
          <note vol="100" pos="48" pan="0" key="36" len="12"/>
          <note vol="100" pos="60" pan="0" key="51" len="12"/>
          <note vol="75" pos="72" pan="0" key="96" len="12"/>
          <note vol="75" pos="72" pan="0" key="50" len="12"/>
          <note vol="100" pos="72" pan="0" key="36" len="12"/>
          <note vol="75" pos="84" pan="0" key="96" len="12"/>
          <note vol="100" pos="84" pan="0" key="51" len="12"/>
          <note vol="75" pos="96" pan="0" key="50" len="12"/>
          <note vol="100" pos="96" pan="0" key="36" len="12"/>
          <note vol="75" pos="108" pan="0" key="96" len="12"/>
          <note vol="100" pos="108" pan="0" key="51" len="12"/>
          <note vol="100" pos="108" pan="0" key="36" len="12"/>
          <note vol="75" pos="120" pan="0" key="96" len="12"/>
          <note vol="75" pos="120" pan="0" key="50" len="12"/>
          <note vol="100" pos="120" pan="0" key="36" len="12"/>
          <note vol="100" pos="132" pan="0" key="51" len="12"/>
          <note vol="75" pos="144" pan="0" key="96" len="12"/>
          <note vol="75" pos="144" pan="0" key="50" len="12"/>
          <note vol="150" pos="144" pan="0" key="38" len="12"/>
          <note vol="100" pos="144" pan="0" key="36" len="12"/>
          <note vol="100" pos="156" pan="0" key="51" len="12"/>
          <note vol="75" pos="168" pan="0" key="96" len="12"/>
          <note vol="100" pos="168" pan="0" key="50" len="12"/>
          <note vol="100" pos="168" pan="0" key="36" len="12"/>
          <note vol="100" pos="180" pan="0" key="51" len="12"/>
          <note vol="100" pos="180" pan="0" key="36" len="12"/>
        </pattern>
        <pattern pos="8448" steps="16" muted="0" type="1" name="">
          <note vol="75" pos="0" pan="0" key="96" len="12"/>
          <note vol="75" pos="0" pan="0" key="50" len="12"/>
          <note vol="150" pos="0" pan="0" key="36" len="12"/>
          <note vol="75" pos="12" pan="0" key="96" len="12"/>
          <note vol="100" pos="12" pan="0" key="51" len="12"/>
          <note vol="100" pos="24" pan="0" key="50" len="12"/>
          <note vol="75" pos="36" pan="0" key="96" len="12"/>
          <note vol="100" pos="36" pan="0" key="51" len="12"/>
          <note vol="100" pos="36" pan="0" key="36" len="12"/>
          <note vol="75" pos="48" pan="0" key="96" len="12"/>
          <note vol="75" pos="48" pan="0" key="50" len="12"/>
          <note vol="150" pos="48" pan="0" key="38" len="12"/>
          <note vol="100" pos="48" pan="0" key="36" len="12"/>
          <note vol="100" pos="60" pan="0" key="51" len="12"/>
          <note vol="75" pos="72" pan="0" key="96" len="12"/>
          <note vol="75" pos="72" pan="0" key="50" len="12"/>
          <note vol="100" pos="72" pan="0" key="36" len="12"/>
          <note vol="75" pos="84" pan="0" key="96" len="12"/>
          <note vol="100" pos="84" pan="0" key="51" len="12"/>
          <note vol="75" pos="96" pan="0" key="50" len="12"/>
          <note vol="100" pos="96" pan="0" key="36" len="12"/>
          <note vol="75" pos="108" pan="0" key="96" len="12"/>
          <note vol="100" pos="108" pan="0" key="51" len="12"/>
          <note vol="100" pos="108" pan="0" key="36" len="12"/>
          <note vol="75" pos="120" pan="0" key="96" len="12"/>
          <note vol="75" pos="120" pan="0" key="50" len="12"/>
          <note vol="100" pos="120" pan="0" key="36" len="12"/>
          <note vol="100" pos="132" pan="0" key="51" len="12"/>
          <note vol="75" pos="144" pan="0" key="96" len="12"/>
          <note vol="75" pos="144" pan="0" key="50" len="12"/>
          <note vol="150" pos="144" pan="0" key="38" len="12"/>
          <note vol="100" pos="144" pan="0" key="36" len="12"/>
          <note vol="100" pos="156" pan="0" key="51" len="12"/>
          <note vol="75" pos="168" pan="0" key="96" len="12"/>
          <note vol="100" pos="168" pan="0" key="50" len="12"/>
          <note vol="100" pos="168" pan="0" key="36" len="12"/>
          <note vol="100" pos="180" pan="0" key="51" len="12"/>
          <note vol="100" pos="180" pan="0" key="36" len="12"/>
        </pattern>
        <pattern pos="8640" steps="16" muted="0" type="1" name="">
          <note vol="75" pos="0" pan="0" key="96" len="12"/>
          <note vol="75" pos="0" pan="0" key="50" len="12"/>
          <note vol="150" pos="0" pan="0" key="36" len="12"/>
          <note vol="75" pos="12" pan="0" key="96" len="12"/>
          <note vol="100" pos="12" pan="0" key="51" len="12"/>
          <note vol="100" pos="24" pan="0" key="50" len="12"/>
          <note vol="75" pos="36" pan="0" key="96" len="12"/>
          <note vol="100" pos="36" pan="0" key="51" len="12"/>
          <note vol="100" pos="36" pan="0" key="36" len="12"/>
          <note vol="75" pos="48" pan="0" key="96" len="12"/>
          <note vol="75" pos="48" pan="0" key="50" len="12"/>
          <note vol="150" pos="48" pan="0" key="38" len="12"/>
          <note vol="100" pos="48" pan="0" key="36" len="12"/>
          <note vol="100" pos="60" pan="0" key="51" len="12"/>
          <note vol="75" pos="72" pan="0" key="96" len="12"/>
          <note vol="75" pos="72" pan="0" key="50" len="12"/>
          <note vol="100" pos="72" pan="0" key="36" len="12"/>
          <note vol="75" pos="84" pan="0" key="96" len="12"/>
          <note vol="100" pos="84" pan="0" key="51" len="12"/>
          <note vol="75" pos="96" pan="0" key="50" len="12"/>
          <note vol="100" pos="96" pan="0" key="36" len="12"/>
          <note vol="75" pos="108" pan="0" key="96" len="12"/>
          <note vol="100" pos="108" pan="0" key="51" len="12"/>
          <note vol="100" pos="108" pan="0" key="36" len="12"/>
          <note vol="75" pos="120" pan="0" key="96" len="12"/>
          <note vol="75" pos="120" pan="0" key="50" len="12"/>
          <note vol="100" pos="120" pan="0" key="36" len="12"/>
          <note vol="100" pos="132" pan="0" key="51" len="12"/>
          <note vol="75" pos="144" pan="0" key="96" len="12"/>
          <note vol="75" pos="144" pan="0" key="50" len="12"/>
          <note vol="150" pos="144" pan="0" key="38" len="12"/>
          <note vol="100" pos="144" pan="0" key="36" len="12"/>
          <note vol="100" pos="156" pan="0" key="51" len="12"/>
          <note vol="75" pos="168" pan="0" key="96" len="12"/>
          <note vol="100" pos="168" pan="0" key="50" len="12"/>
          <note vol="100" pos="168" pan="0" key="36" len="12"/>
          <note vol="100" pos="180" pan="0" key="51" len="12"/>
          <note vol="100" pos="180" pan="0" key="36" len="12"/>
        </pattern>
        <pattern pos="8832" steps="16" muted="0" type="1" name="">
          <note vol="75" pos="0" pan="0" key="96" len="12"/>
          <note vol="75" pos="0" pan="0" key="50" len="12"/>
          <note vol="150" pos="0" pan="0" key="36" len="12"/>
          <note vol="75" pos="12" pan="0" key="96" len="12"/>
          <note vol="100" pos="12" pan="0" key="51" len="12"/>
          <note vol="100" pos="24" pan="0" key="50" len="12"/>
          <note vol="75" pos="36" pan="0" key="96" len="12"/>
          <note vol="100" pos="36" pan="0" key="51" len="12"/>
          <note vol="100" pos="36" pan="0" key="36" len="12"/>
          <note vol="75" pos="48" pan="0" key="96" len="12"/>
          <note vol="75" pos="48" pan="0" key="50" len="12"/>
          <note vol="150" pos="48" pan="0" key="38" len="12"/>
          <note vol="100" pos="48" pan="0" key="36" len="12"/>
          <note vol="100" pos="60" pan="0" key="51" len="12"/>
          <note vol="75" pos="72" pan="0" key="96" len="12"/>
          <note vol="75" pos="72" pan="0" key="50" len="12"/>
          <note vol="100" pos="72" pan="0" key="36" len="12"/>
          <note vol="75" pos="84" pan="0" key="96" len="12"/>
          <note vol="100" pos="84" pan="0" key="51" len="12"/>
          <note vol="75" pos="96" pan="0" key="50" len="12"/>
          <note vol="100" pos="96" pan="0" key="36" len="12"/>
          <note vol="75" pos="108" pan="0" key="96" len="12"/>
          <note vol="100" pos="108" pan="0" key="51" len="12"/>
          <note vol="100" pos="108" pan="0" key="36" len="12"/>
          <note vol="75" pos="120" pan="0" key="96" len="12"/>
          <note vol="75" pos="120" pan="0" key="50" len="12"/>
          <note vol="100" pos="120" pan="0" key="36" len="12"/>
          <note vol="100" pos="132" pan="0" key="51" len="12"/>
          <note vol="75" pos="144" pan="0" key="96" len="12"/>
          <note vol="75" pos="144" pan="0" key="50" len="12"/>
          <note vol="150" pos="144" pan="0" key="38" len="12"/>
          <note vol="100" pos="144" pan="0" key="36" len="12"/>
          <note vol="100" pos="156" pan="0" key="51" len="12"/>
          <note vol="75" pos="168" pan="0" key="96" len="12"/>
          <note vol="100" pos="168" pan="0" key="50" len="12"/>
          <note vol="100" pos="168" pan="0" key="36" len="12"/>
          <note vol="100" pos="180" pan="0" key="51" len="12"/>
          <note vol="100" pos="180" pan="0" key="36" len="12"/>
        </pattern>
        <pattern pos="9024" steps="16" muted="0" type="1" name="">
          <note vol="75" pos="0" pan="0" key="96" len="12"/>
          <note vol="75" pos="0" pan="0" key="50" len="12"/>
          <note vol="150" pos="0" pan="0" key="36" len="12"/>
          <note vol="75" pos="12" pan="0" key="96" len="12"/>
          <note vol="100" pos="12" pan="0" key="51" len="12"/>
          <note vol="100" pos="24" pan="0" key="50" len="12"/>
          <note vol="75" pos="36" pan="0" key="96" len="12"/>
          <note vol="100" pos="36" pan="0" key="51" len="12"/>
          <note vol="100" pos="36" pan="0" key="36" len="12"/>
          <note vol="75" pos="48" pan="0" key="96" len="12"/>
          <note vol="75" pos="48" pan="0" key="50" len="12"/>
          <note vol="150" pos="48" pan="0" key="38" len="12"/>
          <note vol="100" pos="48" pan="0" key="36" len="12"/>
          <note vol="100" pos="60" pan="0" key="51" len="12"/>
          <note vol="75" pos="72" pan="0" key="96" len="12"/>
          <note vol="75" pos="72" pan="0" key="50" len="12"/>
          <note vol="100" pos="72" pan="0" key="36" len="12"/>
          <note vol="75" pos="84" pan="0" key="96" len="12"/>
          <note vol="100" pos="84" pan="0" key="51" len="12"/>
          <note vol="75" pos="96" pan="0" key="50" len="12"/>
          <note vol="100" pos="96" pan="0" key="36" len="12"/>
          <note vol="75" pos="108" pan="0" key="96" len="12"/>
          <note vol="100" pos="108" pan="0" key="51" len="12"/>
          <note vol="100" pos="108" pan="0" key="36" len="12"/>
          <note vol="75" pos="120" pan="0" key="96" len="12"/>
          <note vol="75" pos="120" pan="0" key="50" len="12"/>
          <note vol="100" pos="120" pan="0" key="36" len="12"/>
          <note vol="100" pos="132" pan="0" key="51" len="12"/>
          <note vol="75" pos="144" pan="0" key="96" len="12"/>
          <note vol="75" pos="144" pan="0" key="50" len="12"/>
          <note vol="150" pos="144" pan="0" key="38" len="12"/>
          <note vol="100" pos="144" pan="0" key="36" len="12"/>
          <note vol="100" pos="156" pan="0" key="51" len="12"/>
          <note vol="75" pos="168" pan="0" key="96" len="12"/>
          <note vol="100" pos="168" pan="0" key="50" len="12"/>
          <note vol="100" pos="168" pan="0" key="36" len="12"/>
          <note vol="100" pos="180" pan="0" key="51" len="12"/>
          <note vol="100" pos="180" pan="0" key="36" len="12"/>
        </pattern>
        <pattern pos="9216" steps="16" muted="0" type="1" name="">
          <note vol="75" pos="0" pan="0" key="96" len="12"/>
          <note vol="75" pos="0" pan="0" key="50" len="12"/>
          <note vol="150" pos="0" pan="0" key="36" len="12"/>
          <note vol="75" pos="12" pan="0" key="96" len="12"/>
          <note vol="100" pos="12" pan="0" key="51" len="12"/>
          <note vol="100" pos="24" pan="0" key="50" len="12"/>
          <note vol="75" pos="36" pan="0" key="96" len="12"/>
          <note vol="100" pos="36" pan="0" key="51" len="12"/>
          <note vol="100" pos="36" pan="0" key="36" len="12"/>
          <note vol="75" pos="48" pan="0" key="96" len="12"/>
          <note vol="75" pos="48" pan="0" key="50" len="12"/>
          <note vol="150" pos="48" pan="0" key="38" len="12"/>
          <note vol="100" pos="48" pan="0" key="36" len="12"/>
          <note vol="100" pos="60" pan="0" key="51" len="12"/>
          <note vol="75" pos="72" pan="0" key="96" len="12"/>
          <note vol="75" pos="72" pan="0" key="50" len="12"/>
          <note vol="100" pos="72" pan="0" key="36" len="12"/>
          <note vol="75" pos="84" pan="0" key="96" len="12"/>
          <note vol="100" pos="84" pan="0" key="51" len="12"/>
          <note vol="75" pos="96" pan="0" key="50" len="12"/>
          <note vol="100" pos="96" pan="0" key="36" len="12"/>
          <note vol="75" pos="108" pan="0" key="96" len="12"/>
          <note vol="100" pos="108" pan="0" key="51" len="12"/>
          <note vol="100" pos="108" pan="0" key="36" len="12"/>
          <note vol="75" pos="120" pan="0" key="96" len="12"/>
          <note vol="75" pos="120" pan="0" key="50" len="12"/>
          <note vol="100" pos="120" pan="0" key="36" len="12"/>
          <note vol="100" pos="132" pan="0" key="51" len="12"/>
          <note vol="75" pos="144" pan="0" key="96" len="12"/>
          <note vol="75" pos="144" pan="0" key="50" len="12"/>
          <note vol="150" pos="144" pan="0" key="38" len="12"/>
          <note vol="100" pos="144" pan="0" key="36" len="12"/>
          <note vol="100" pos="156" pan="0" key="51" len="12"/>
          <note vol="75" pos="168" pan="0" key="96" len="12"/>
          <note vol="100" pos="168" pan="0" key="50" len="12"/>
          <note vol="100" pos="168" pan="0" key="36" len="12"/>
          <note vol="100" pos="180" pan="0" key="51" len="12"/>
          <note vol="100" pos="180" pan="0" key="36" len="12"/>
        </pattern>
        <pattern pos="9408" steps="16" muted="0" type="1" name="">
          <note vol="75" pos="0" pan="0" key="96" len="12"/>
          <note vol="75" pos="0" pan="0" key="50" len="12"/>
          <note vol="150" pos="0" pan="0" key="36" len="12"/>
          <note vol="75" pos="12" pan="0" key="96" len="12"/>
          <note vol="100" pos="12" pan="0" key="51" len="12"/>
          <note vol="100" pos="24" pan="0" key="50" len="12"/>
          <note vol="75" pos="36" pan="0" key="96" len="12"/>
          <note vol="100" pos="36" pan="0" key="51" len="12"/>
          <note vol="100" pos="36" pan="0" key="36" len="12"/>
          <note vol="75" pos="48" pan="0" key="96" len="12"/>
          <note vol="75" pos="48" pan="0" key="50" len="12"/>
          <note vol="150" pos="48" pan="0" key="38" len="12"/>
          <note vol="100" pos="48" pan="0" key="36" len="12"/>
          <note vol="100" pos="60" pan="0" key="51" len="12"/>
          <note vol="75" pos="72" pan="0" key="96" len="12"/>
          <note vol="75" pos="72" pan="0" key="50" len="12"/>
          <note vol="100" pos="72" pan="0" key="36" len="12"/>
          <note vol="75" pos="84" pan="0" key="96" len="12"/>
          <note vol="100" pos="84" pan="0" key="51" len="12"/>
          <note vol="75" pos="96" pan="0" key="50" len="12"/>
          <note vol="100" pos="96" pan="0" key="36" len="12"/>
          <note vol="75" pos="108" pan="0" key="96" len="12"/>
          <note vol="100" pos="108" pan="0" key="51" len="12"/>
          <note vol="100" pos="108" pan="0" key="36" len="12"/>
          <note vol="75" pos="120" pan="0" key="96" len="12"/>
          <note vol="75" pos="120" pan="0" key="50" len="12"/>
          <note vol="100" pos="120" pan="0" key="36" len="12"/>
          <note vol="100" pos="132" pan="0" key="51" len="12"/>
          <note vol="75" pos="144" pan="0" key="96" len="12"/>
          <note vol="75" pos="144" pan="0" key="50" len="12"/>
          <note vol="150" pos="144" pan="0" key="38" len="12"/>
          <note vol="100" pos="144" pan="0" key="36" len="12"/>
          <note vol="100" pos="156" pan="0" key="51" len="12"/>
          <note vol="75" pos="168" pan="0" key="96" len="12"/>
          <note vol="100" pos="168" pan="0" key="50" len="12"/>
          <note vol="100" pos="168" pan="0" key="36" len="12"/>
          <note vol="100" pos="180" pan="0" key="51" len="12"/>
          <note vol="100" pos="180" pan="0" key="36" len="12"/>
        </pattern>
        <pattern pos="9600" steps="16" muted="0" type="1" name="">
          <note vol="75" pos="0" pan="0" key="96" len="12"/>
          <note vol="75" pos="0" pan="0" key="50" len="12"/>
          <note vol="150" pos="0" pan="0" key="36" len="12"/>
          <note vol="75" pos="12" pan="0" key="96" len="12"/>
          <note vol="100" pos="12" pan="0" key="51" len="12"/>
          <note vol="100" pos="24" pan="0" key="50" len="12"/>
          <note vol="75" pos="36" pan="0" key="96" len="12"/>
          <note vol="100" pos="36" pan="0" key="51" len="12"/>
          <note vol="100" pos="36" pan="0" key="36" len="12"/>
          <note vol="75" pos="48" pan="0" key="96" len="12"/>
          <note vol="75" pos="48" pan="0" key="50" len="12"/>
          <note vol="150" pos="48" pan="0" key="38" len="12"/>
          <note vol="100" pos="48" pan="0" key="36" len="12"/>
          <note vol="100" pos="60" pan="0" key="51" len="12"/>
          <note vol="75" pos="72" pan="0" key="96" len="12"/>
          <note vol="75" pos="72" pan="0" key="50" len="12"/>
          <note vol="100" pos="72" pan="0" key="36" len="12"/>
          <note vol="75" pos="84" pan="0" key="96" len="12"/>
          <note vol="100" pos="84" pan="0" key="51" len="12"/>
          <note vol="75" pos="96" pan="0" key="50" len="12"/>
          <note vol="100" pos="96" pan="0" key="36" len="12"/>
          <note vol="75" pos="108" pan="0" key="96" len="12"/>
          <note vol="100" pos="108" pan="0" key="51" len="12"/>
          <note vol="100" pos="108" pan="0" key="36" len="12"/>
          <note vol="75" pos="120" pan="0" key="96" len="12"/>
          <note vol="75" pos="120" pan="0" key="50" len="12"/>
          <note vol="100" pos="120" pan="0" key="36" len="12"/>
          <note vol="100" pos="132" pan="0" key="51" len="12"/>
          <note vol="75" pos="144" pan="0" key="96" len="12"/>
          <note vol="75" pos="144" pan="0" key="50" len="12"/>
          <note vol="150" pos="144" pan="0" key="38" len="12"/>
          <note vol="100" pos="144" pan="0" key="36" len="12"/>
          <note vol="100" pos="156" pan="0" key="51" len="12"/>
          <note vol="75" pos="168" pan="0" key="96" len="12"/>
          <note vol="100" pos="168" pan="0" key="50" len="12"/>
          <note vol="100" pos="168" pan="0" key="36" len="12"/>
          <note vol="100" pos="180" pan="0" key="51" len="12"/>
          <note vol="100" pos="180" pan="0" key="36" len="12"/>
        </pattern>
        <pattern pos="9792" steps="16" muted="0" type="1" name="">
          <note vol="75" pos="0" pan="0" key="96" len="12"/>
          <note vol="75" pos="0" pan="0" key="50" len="12"/>
          <note vol="150" pos="0" pan="0" key="36" len="12"/>
          <note vol="75" pos="12" pan="0" key="96" len="12"/>
          <note vol="100" pos="12" pan="0" key="51" len="12"/>
          <note vol="100" pos="24" pan="0" key="50" len="12"/>
          <note vol="75" pos="36" pan="0" key="96" len="12"/>
          <note vol="100" pos="36" pan="0" key="51" len="12"/>
          <note vol="100" pos="36" pan="0" key="36" len="12"/>
          <note vol="75" pos="48" pan="0" key="96" len="12"/>
          <note vol="75" pos="48" pan="0" key="50" len="12"/>
          <note vol="150" pos="48" pan="0" key="38" len="12"/>
          <note vol="100" pos="48" pan="0" key="36" len="12"/>
          <note vol="100" pos="60" pan="0" key="51" len="12"/>
          <note vol="75" pos="72" pan="0" key="96" len="12"/>
          <note vol="75" pos="72" pan="0" key="50" len="12"/>
          <note vol="100" pos="72" pan="0" key="36" len="12"/>
          <note vol="75" pos="84" pan="0" key="96" len="12"/>
          <note vol="100" pos="84" pan="0" key="51" len="12"/>
          <note vol="75" pos="96" pan="0" key="50" len="12"/>
          <note vol="100" pos="96" pan="0" key="36" len="12"/>
          <note vol="75" pos="108" pan="0" key="96" len="12"/>
          <note vol="100" pos="108" pan="0" key="51" len="12"/>
          <note vol="100" pos="108" pan="0" key="36" len="12"/>
          <note vol="75" pos="120" pan="0" key="96" len="12"/>
          <note vol="75" pos="120" pan="0" key="50" len="12"/>
          <note vol="100" pos="120" pan="0" key="36" len="12"/>
          <note vol="100" pos="132" pan="0" key="51" len="12"/>
          <note vol="75" pos="144" pan="0" key="96" len="12"/>
          <note vol="75" pos="144" pan="0" key="50" len="12"/>
          <note vol="150" pos="144" pan="0" key="38" len="12"/>
          <note vol="100" pos="144" pan="0" key="36" len="12"/>
          <note vol="100" pos="156" pan="0" key="51" len="12"/>
          <note vol="75" pos="168" pan="0" key="96" len="12"/>
          <note vol="100" pos="168" pan="0" key="50" len="12"/>
          <note vol="100" pos="168" pan="0" key="36" len="12"/>
          <note vol="100" pos="180" pan="0" key="51" len="12"/>
          <note vol="100" pos="180" pan="0" key="36" len="12"/>
        </pattern>
        <pattern pos="9984" steps="16" muted="0" type="1" name="">
          <note vol="75" pos="0" pan="0" key="96" len="12"/>
          <note vol="75" pos="0" pan="0" key="50" len="12"/>
          <note vol="150" pos="0" pan="0" key="36" len="12"/>
          <note vol="75" pos="12" pan="0" key="96" len="12"/>
          <note vol="100" pos="12" pan="0" key="51" len="12"/>
          <note vol="100" pos="24" pan="0" key="50" len="12"/>
          <note vol="75" pos="36" pan="0" key="96" len="12"/>
          <note vol="100" pos="36" pan="0" key="51" len="12"/>
          <note vol="100" pos="36" pan="0" key="36" len="12"/>
          <note vol="75" pos="48" pan="0" key="96" len="12"/>
          <note vol="75" pos="48" pan="0" key="50" len="12"/>
          <note vol="150" pos="48" pan="0" key="38" len="12"/>
          <note vol="100" pos="48" pan="0" key="36" len="12"/>
          <note vol="100" pos="60" pan="0" key="51" len="12"/>
          <note vol="75" pos="72" pan="0" key="96" len="12"/>
          <note vol="75" pos="72" pan="0" key="50" len="12"/>
          <note vol="100" pos="72" pan="0" key="36" len="12"/>
          <note vol="75" pos="84" pan="0" key="96" len="12"/>
          <note vol="100" pos="84" pan="0" key="51" len="12"/>
          <note vol="75" pos="96" pan="0" key="50" len="12"/>
          <note vol="100" pos="96" pan="0" key="36" len="12"/>
          <note vol="75" pos="108" pan="0" key="96" len="12"/>
          <note vol="100" pos="108" pan="0" key="51" len="12"/>
          <note vol="100" pos="108" pan="0" key="36" len="12"/>
          <note vol="75" pos="120" pan="0" key="96" len="12"/>
          <note vol="75" pos="120" pan="0" key="50" len="12"/>
          <note vol="100" pos="120" pan="0" key="36" len="12"/>
          <note vol="100" pos="132" pan="0" key="51" len="12"/>
          <note vol="75" pos="144" pan="0" key="96" len="12"/>
          <note vol="75" pos="144" pan="0" key="50" len="12"/>
          <note vol="150" pos="144" pan="0" key="38" len="12"/>
          <note vol="100" pos="144" pan="0" key="36" len="12"/>
          <note vol="100" pos="156" pan="0" key="51" len="12"/>
          <note vol="75" pos="168" pan="0" key="96" len="12"/>
          <note vol="100" pos="168" pan="0" key="50" len="12"/>
          <note vol="100" pos="168" pan="0" key="36" len="12"/>
          <note vol="100" pos="180" pan="0" key="51" len="12"/>
          <note vol="100" pos="180" pan="0" key="36" len="12"/>
        </pattern>
        <pattern pos="10176" steps="16" muted="0" type="1" name="">
          <note vol="75" pos="0" pan="0" key="96" len="12"/>
          <note vol="75" pos="0" pan="0" key="50" len="12"/>
          <note vol="150" pos="0" pan="0" key="36" len="12"/>
          <note vol="75" pos="12" pan="0" key="96" len="12"/>
          <note vol="100" pos="12" pan="0" key="51" len="12"/>
          <note vol="100" pos="24" pan="0" key="50" len="12"/>
          <note vol="75" pos="36" pan="0" key="96" len="12"/>
          <note vol="100" pos="36" pan="0" key="51" len="12"/>
          <note vol="100" pos="36" pan="0" key="36" len="12"/>
          <note vol="75" pos="48" pan="0" key="96" len="12"/>
          <note vol="75" pos="48" pan="0" key="50" len="12"/>
          <note vol="150" pos="48" pan="0" key="38" len="12"/>
          <note vol="100" pos="48" pan="0" key="36" len="12"/>
          <note vol="100" pos="60" pan="0" key="51" len="12"/>
          <note vol="75" pos="72" pan="0" key="96" len="12"/>
          <note vol="75" pos="72" pan="0" key="50" len="12"/>
          <note vol="100" pos="72" pan="0" key="36" len="12"/>
          <note vol="75" pos="84" pan="0" key="96" len="12"/>
          <note vol="100" pos="84" pan="0" key="51" len="12"/>
          <note vol="75" pos="96" pan="0" key="50" len="12"/>
          <note vol="100" pos="96" pan="0" key="36" len="12"/>
          <note vol="75" pos="108" pan="0" key="96" len="12"/>
          <note vol="100" pos="108" pan="0" key="51" len="12"/>
          <note vol="100" pos="108" pan="0" key="36" len="12"/>
          <note vol="75" pos="120" pan="0" key="96" len="12"/>
          <note vol="75" pos="120" pan="0" key="50" len="12"/>
          <note vol="100" pos="120" pan="0" key="36" len="12"/>
          <note vol="100" pos="132" pan="0" key="51" len="12"/>
          <note vol="75" pos="144" pan="0" key="96" len="12"/>
          <note vol="75" pos="144" pan="0" key="50" len="12"/>
          <note vol="150" pos="144" pan="0" key="38" len="12"/>
          <note vol="100" pos="144" pan="0" key="36" len="12"/>
          <note vol="100" pos="156" pan="0" key="51" len="12"/>
          <note vol="75" pos="168" pan="0" key="96" len="12"/>
          <note vol="100" pos="168" pan="0" key="50" len="12"/>
          <note vol="100" pos="168" pan="0" key="36" len="12"/>
          <note vol="100" pos="180" pan="0" key="51" len="12"/>
          <note vol="100" pos="180" pan="0" key="36" len="12"/>
        </pattern>
        <pattern pos="10368" steps="16" muted="0" type="1" name="">
          <note vol="75" pos="0" pan="0" key="96" len="12"/>
          <note vol="75" pos="0" pan="0" key="50" len="12"/>
          <note vol="150" pos="0" pan="0" key="36" len="12"/>
          <note vol="75" pos="12" pan="0" key="96" len="12"/>
          <note vol="100" pos="12" pan="0" key="51" len="12"/>
          <note vol="100" pos="24" pan="0" key="50" len="12"/>
          <note vol="75" pos="36" pan="0" key="96" len="12"/>
          <note vol="100" pos="36" pan="0" key="51" len="12"/>
          <note vol="100" pos="36" pan="0" key="36" len="12"/>
          <note vol="75" pos="48" pan="0" key="96" len="12"/>
          <note vol="75" pos="48" pan="0" key="50" len="12"/>
          <note vol="150" pos="48" pan="0" key="38" len="12"/>
          <note vol="100" pos="48" pan="0" key="36" len="12"/>
          <note vol="100" pos="60" pan="0" key="51" len="12"/>
          <note vol="75" pos="72" pan="0" key="96" len="12"/>
          <note vol="75" pos="72" pan="0" key="50" len="12"/>
          <note vol="100" pos="72" pan="0" key="36" len="12"/>
          <note vol="75" pos="84" pan="0" key="96" len="12"/>
          <note vol="100" pos="84" pan="0" key="51" len="12"/>
          <note vol="75" pos="96" pan="0" key="50" len="12"/>
          <note vol="100" pos="96" pan="0" key="36" len="12"/>
          <note vol="75" pos="108" pan="0" key="96" len="12"/>
          <note vol="100" pos="108" pan="0" key="51" len="12"/>
          <note vol="100" pos="108" pan="0" key="36" len="12"/>
          <note vol="75" pos="120" pan="0" key="96" len="12"/>
          <note vol="75" pos="120" pan="0" key="50" len="12"/>
          <note vol="100" pos="120" pan="0" key="36" len="12"/>
          <note vol="100" pos="132" pan="0" key="51" len="12"/>
          <note vol="75" pos="144" pan="0" key="96" len="12"/>
          <note vol="75" pos="144" pan="0" key="50" len="12"/>
          <note vol="150" pos="144" pan="0" key="38" len="12"/>
          <note vol="100" pos="144" pan="0" key="36" len="12"/>
          <note vol="100" pos="156" pan="0" key="51" len="12"/>
          <note vol="75" pos="168" pan="0" key="96" len="12"/>
          <note vol="100" pos="168" pan="0" key="50" len="12"/>
          <note vol="100" pos="168" pan="0" key="36" len="12"/>
          <note vol="100" pos="180" pan="0" key="51" len="12"/>
          <note vol="100" pos="180" pan="0" key="36" len="12"/>
        </pattern>
        <pattern pos="10560" steps="16" muted="0" type="1" name="">
          <note vol="75" pos="0" pan="0" key="96" len="12"/>
          <note vol="75" pos="0" pan="0" key="50" len="12"/>
          <note vol="150" pos="0" pan="0" key="36" len="12"/>
          <note vol="75" pos="12" pan="0" key="96" len="12"/>
          <note vol="100" pos="12" pan="0" key="51" len="12"/>
          <note vol="100" pos="24" pan="0" key="50" len="12"/>
          <note vol="75" pos="36" pan="0" key="96" len="12"/>
          <note vol="100" pos="36" pan="0" key="51" len="12"/>
          <note vol="100" pos="36" pan="0" key="36" len="12"/>
          <note vol="75" pos="48" pan="0" key="96" len="12"/>
          <note vol="75" pos="48" pan="0" key="50" len="12"/>
          <note vol="150" pos="48" pan="0" key="38" len="12"/>
          <note vol="100" pos="48" pan="0" key="36" len="12"/>
          <note vol="100" pos="60" pan="0" key="51" len="12"/>
          <note vol="75" pos="72" pan="0" key="96" len="12"/>
          <note vol="75" pos="72" pan="0" key="50" len="12"/>
          <note vol="100" pos="72" pan="0" key="36" len="12"/>
          <note vol="75" pos="84" pan="0" key="96" len="12"/>
          <note vol="100" pos="84" pan="0" key="51" len="12"/>
          <note vol="75" pos="96" pan="0" key="50" len="12"/>
          <note vol="100" pos="96" pan="0" key="36" len="12"/>
          <note vol="75" pos="108" pan="0" key="96" len="12"/>
          <note vol="100" pos="108" pan="0" key="51" len="12"/>
          <note vol="100" pos="108" pan="0" key="36" len="12"/>
          <note vol="75" pos="120" pan="0" key="96" len="12"/>
          <note vol="75" pos="120" pan="0" key="50" len="12"/>
          <note vol="100" pos="120" pan="0" key="36" len="12"/>
          <note vol="100" pos="132" pan="0" key="51" len="12"/>
          <note vol="75" pos="144" pan="0" key="96" len="12"/>
          <note vol="75" pos="144" pan="0" key="50" len="12"/>
          <note vol="150" pos="144" pan="0" key="38" len="12"/>
          <note vol="100" pos="144" pan="0" key="36" len="12"/>
          <note vol="100" pos="156" pan="0" key="51" len="12"/>
          <note vol="75" pos="168" pan="0" key="96" len="12"/>
          <note vol="100" pos="168" pan="0" key="50" len="12"/>
          <note vol="100" pos="168" pan="0" key="36" len="12"/>
          <note vol="100" pos="180" pan="0" key="51" len="12"/>
          <note vol="100" pos="180" pan="0" key="36" len="12"/>
        </pattern>
        <pattern pos="10752" steps="16" muted="0" type="1" name="">
          <note vol="75" pos="0" pan="0" key="96" len="12"/>
          <note vol="75" pos="0" pan="0" key="50" len="12"/>
          <note vol="150" pos="0" pan="0" key="36" len="12"/>
          <note vol="75" pos="12" pan="0" key="96" len="12"/>
          <note vol="100" pos="12" pan="0" key="51" len="12"/>
          <note vol="100" pos="24" pan="0" key="50" len="12"/>
          <note vol="75" pos="36" pan="0" key="96" len="12"/>
          <note vol="100" pos="36" pan="0" key="51" len="12"/>
          <note vol="100" pos="36" pan="0" key="36" len="12"/>
          <note vol="75" pos="48" pan="0" key="96" len="12"/>
          <note vol="75" pos="48" pan="0" key="50" len="12"/>
          <note vol="150" pos="48" pan="0" key="38" len="12"/>
          <note vol="100" pos="48" pan="0" key="36" len="12"/>
          <note vol="100" pos="60" pan="0" key="51" len="12"/>
          <note vol="75" pos="72" pan="0" key="96" len="12"/>
          <note vol="75" pos="72" pan="0" key="50" len="12"/>
          <note vol="100" pos="72" pan="0" key="36" len="12"/>
          <note vol="75" pos="84" pan="0" key="96" len="12"/>
          <note vol="100" pos="84" pan="0" key="51" len="12"/>
          <note vol="75" pos="96" pan="0" key="50" len="12"/>
          <note vol="100" pos="96" pan="0" key="36" len="12"/>
          <note vol="75" pos="108" pan="0" key="96" len="12"/>
          <note vol="100" pos="108" pan="0" key="51" len="12"/>
          <note vol="100" pos="108" pan="0" key="36" len="12"/>
          <note vol="75" pos="120" pan="0" key="96" len="12"/>
          <note vol="75" pos="120" pan="0" key="50" len="12"/>
          <note vol="100" pos="120" pan="0" key="36" len="12"/>
          <note vol="100" pos="132" pan="0" key="51" len="12"/>
          <note vol="75" pos="144" pan="0" key="96" len="12"/>
          <note vol="75" pos="144" pan="0" key="50" len="12"/>
          <note vol="150" pos="144" pan="0" key="38" len="12"/>
          <note vol="100" pos="144" pan="0" key="36" len="12"/>
          <note vol="100" pos="156" pan="0" key="51" len="12"/>
          <note vol="75" pos="168" pan="0" key="96" len="12"/>
          <note vol="100" pos="168" pan="0" key="50" len="12"/>
          <note vol="100" pos="168" pan="0" key="36" len="12"/>
          <note vol="100" pos="180" pan="0" key="51" len="12"/>
          <note vol="100" pos="180" pan="0" key="36" len="12"/>
        </pattern>
        <pattern pos="10944" steps="16" muted="0" type="1" name="">
          <note vol="75" pos="0" pan="0" key="96" len="12"/>
          <note vol="75" pos="0" pan="0" key="50" len="12"/>
          <note vol="150" pos="0" pan="0" key="36" len="12"/>
          <note vol="75" pos="12" pan="0" key="96" len="12"/>
          <note vol="100" pos="12" pan="0" key="51" len="12"/>
          <note vol="100" pos="24" pan="0" key="50" len="12"/>
          <note vol="75" pos="36" pan="0" key="96" len="12"/>
          <note vol="100" pos="36" pan="0" key="51" len="12"/>
          <note vol="100" pos="36" pan="0" key="36" len="12"/>
          <note vol="75" pos="48" pan="0" key="96" len="12"/>
          <note vol="75" pos="48" pan="0" key="50" len="12"/>
          <note vol="150" pos="48" pan="0" key="38" len="12"/>
          <note vol="100" pos="48" pan="0" key="36" len="12"/>
          <note vol="100" pos="60" pan="0" key="51" len="12"/>
          <note vol="75" pos="72" pan="0" key="96" len="12"/>
          <note vol="75" pos="72" pan="0" key="50" len="12"/>
          <note vol="100" pos="72" pan="0" key="36" len="12"/>
          <note vol="75" pos="84" pan="0" key="96" len="12"/>
          <note vol="100" pos="84" pan="0" key="51" len="12"/>
          <note vol="75" pos="96" pan="0" key="50" len="12"/>
          <note vol="100" pos="96" pan="0" key="36" len="12"/>
          <note vol="75" pos="108" pan="0" key="96" len="12"/>
          <note vol="100" pos="108" pan="0" key="51" len="12"/>
          <note vol="100" pos="108" pan="0" key="36" len="12"/>
          <note vol="75" pos="120" pan="0" key="96" len="12"/>
          <note vol="75" pos="120" pan="0" key="50" len="12"/>
          <note vol="100" pos="120" pan="0" key="36" len="12"/>
          <note vol="100" pos="132" pan="0" key="51" len="12"/>
          <note vol="75" pos="144" pan="0" key="96" len="12"/>
          <note vol="75" pos="144" pan="0" key="50" len="12"/>
          <note vol="150" pos="144" pan="0" key="38" len="12"/>
          <note vol="100" pos="144" pan="0" key="36" len="12"/>
          <note vol="100" pos="156" pan="0" key="51" len="12"/>
          <note vol="75" pos="168" pan="0" key="96" len="12"/>
          <note vol="100" pos="168" pan="0" key="50" len="12"/>
          <note vol="100" pos="168" pan="0" key="36" len="12"/>
          <note vol="100" pos="180" pan="0" key="51" len="12"/>
          <note vol="100" pos="180" pan="0" key="36" len="12"/>
        </pattern>
        <pattern pos="11136" steps="16" muted="0" type="1" name="">
          <note vol="75" pos="0" pan="0" key="96" len="12"/>
          <note vol="75" pos="0" pan="0" key="50" len="12"/>
          <note vol="150" pos="0" pan="0" key="36" len="12"/>
          <note vol="75" pos="12" pan="0" key="96" len="12"/>
          <note vol="100" pos="12" pan="0" key="51" len="12"/>
          <note vol="100" pos="24" pan="0" key="50" len="12"/>
          <note vol="75" pos="36" pan="0" key="96" len="12"/>
          <note vol="100" pos="36" pan="0" key="51" len="12"/>
          <note vol="100" pos="36" pan="0" key="36" len="12"/>
          <note vol="75" pos="48" pan="0" key="96" len="12"/>
          <note vol="75" pos="48" pan="0" key="50" len="12"/>
          <note vol="150" pos="48" pan="0" key="38" len="12"/>
          <note vol="100" pos="48" pan="0" key="36" len="12"/>
          <note vol="100" pos="60" pan="0" key="51" len="12"/>
          <note vol="75" pos="72" pan="0" key="96" len="12"/>
          <note vol="75" pos="72" pan="0" key="50" len="12"/>
          <note vol="100" pos="72" pan="0" key="36" len="12"/>
          <note vol="75" pos="84" pan="0" key="96" len="12"/>
          <note vol="100" pos="84" pan="0" key="51" len="12"/>
          <note vol="75" pos="96" pan="0" key="50" len="12"/>
          <note vol="100" pos="96" pan="0" key="36" len="12"/>
          <note vol="75" pos="108" pan="0" key="96" len="12"/>
          <note vol="100" pos="108" pan="0" key="51" len="12"/>
          <note vol="100" pos="108" pan="0" key="36" len="12"/>
          <note vol="75" pos="120" pan="0" key="96" len="12"/>
          <note vol="75" pos="120" pan="0" key="50" len="12"/>
          <note vol="100" pos="120" pan="0" key="36" len="12"/>
          <note vol="100" pos="132" pan="0" key="51" len="12"/>
          <note vol="75" pos="144" pan="0" key="96" len="12"/>
          <note vol="75" pos="144" pan="0" key="50" len="12"/>
          <note vol="150" pos="144" pan="0" key="38" len="12"/>
          <note vol="100" pos="144" pan="0" key="36" len="12"/>
          <note vol="100" pos="156" pan="0" key="51" len="12"/>
          <note vol="75" pos="168" pan="0" key="96" len="12"/>
          <note vol="100" pos="168" pan="0" key="50" len="12"/>
          <note vol="100" pos="168" pan="0" key="36" len="12"/>
          <note vol="100" pos="180" pan="0" key="51" len="12"/>
          <note vol="100" pos="180" pan="0" key="36" len="12"/>
        </pattern>
        <pattern pos="11328" steps="16" muted="0" type="1" name="">
          <note vol="75" pos="0" pan="0" key="96" len="12"/>
          <note vol="75" pos="0" pan="0" key="50" len="12"/>
          <note vol="150" pos="0" pan="0" key="36" len="12"/>
          <note vol="75" pos="12" pan="0" key="96" len="12"/>
          <note vol="100" pos="12" pan="0" key="51" len="12"/>
          <note vol="100" pos="24" pan="0" key="50" len="12"/>
          <note vol="75" pos="36" pan="0" key="96" len="12"/>
          <note vol="100" pos="36" pan="0" key="51" len="12"/>
          <note vol="100" pos="36" pan="0" key="36" len="12"/>
          <note vol="75" pos="48" pan="0" key="96" len="12"/>
          <note vol="75" pos="48" pan="0" key="50" len="12"/>
          <note vol="150" pos="48" pan="0" key="38" len="12"/>
          <note vol="100" pos="48" pan="0" key="36" len="12"/>
          <note vol="100" pos="60" pan="0" key="51" len="12"/>
          <note vol="75" pos="72" pan="0" key="96" len="12"/>
          <note vol="75" pos="72" pan="0" key="50" len="12"/>
          <note vol="100" pos="72" pan="0" key="36" len="12"/>
          <note vol="75" pos="84" pan="0" key="96" len="12"/>
          <note vol="100" pos="84" pan="0" key="51" len="12"/>
          <note vol="75" pos="96" pan="0" key="50" len="12"/>
          <note vol="100" pos="96" pan="0" key="36" len="12"/>
          <note vol="75" pos="108" pan="0" key="96" len="12"/>
          <note vol="100" pos="108" pan="0" key="51" len="12"/>
          <note vol="100" pos="108" pan="0" key="36" len="12"/>
          <note vol="75" pos="120" pan="0" key="96" len="12"/>
          <note vol="75" pos="120" pan="0" key="50" len="12"/>
          <note vol="100" pos="120" pan="0" key="36" len="12"/>
          <note vol="100" pos="132" pan="0" key="51" len="12"/>
          <note vol="75" pos="144" pan="0" key="96" len="12"/>
          <note vol="75" pos="144" pan="0" key="50" len="12"/>
          <note vol="150" pos="144" pan="0" key="38" len="12"/>
          <note vol="100" pos="144" pan="0" key="36" len="12"/>
          <note vol="100" pos="156" pan="0" key="51" len="12"/>
          <note vol="75" pos="168" pan="0" key="96" len="12"/>
          <note vol="100" pos="168" pan="0" key="50" len="12"/>
          <note vol="100" pos="168" pan="0" key="36" len="12"/>
          <note vol="100" pos="180" pan="0" key="51" len="12"/>
          <note vol="100" pos="180" pan="0" key="36" len="12"/>
        </pattern>
        <pattern pos="11520" steps="16" muted="0" type="1" name="">
          <note vol="75" pos="0" pan="0" key="96" len="12"/>
          <note vol="75" pos="0" pan="0" key="50" len="12"/>
          <note vol="150" pos="0" pan="0" key="36" len="12"/>
          <note vol="75" pos="12" pan="0" key="96" len="12"/>
          <note vol="100" pos="12" pan="0" key="51" len="12"/>
          <note vol="100" pos="24" pan="0" key="50" len="12"/>
          <note vol="75" pos="36" pan="0" key="96" len="12"/>
          <note vol="100" pos="36" pan="0" key="51" len="12"/>
          <note vol="100" pos="36" pan="0" key="36" len="12"/>
          <note vol="75" pos="48" pan="0" key="96" len="12"/>
          <note vol="75" pos="48" pan="0" key="50" len="12"/>
          <note vol="150" pos="48" pan="0" key="38" len="12"/>
          <note vol="100" pos="48" pan="0" key="36" len="12"/>
          <note vol="100" pos="60" pan="0" key="51" len="12"/>
          <note vol="75" pos="72" pan="0" key="96" len="12"/>
          <note vol="75" pos="72" pan="0" key="50" len="12"/>
          <note vol="100" pos="72" pan="0" key="36" len="12"/>
          <note vol="75" pos="84" pan="0" key="96" len="12"/>
          <note vol="100" pos="84" pan="0" key="51" len="12"/>
          <note vol="75" pos="96" pan="0" key="50" len="12"/>
          <note vol="100" pos="96" pan="0" key="36" len="12"/>
          <note vol="75" pos="108" pan="0" key="96" len="12"/>
          <note vol="100" pos="108" pan="0" key="51" len="12"/>
          <note vol="100" pos="108" pan="0" key="36" len="12"/>
          <note vol="75" pos="120" pan="0" key="96" len="12"/>
          <note vol="75" pos="120" pan="0" key="50" len="12"/>
          <note vol="100" pos="120" pan="0" key="36" len="12"/>
          <note vol="100" pos="132" pan="0" key="51" len="12"/>
          <note vol="75" pos="144" pan="0" key="96" len="12"/>
          <note vol="75" pos="144" pan="0" key="50" len="12"/>
          <note vol="150" pos="144" pan="0" key="38" len="12"/>
          <note vol="100" pos="144" pan="0" key="36" len="12"/>
          <note vol="100" pos="156" pan="0" key="51" len="12"/>
          <note vol="75" pos="168" pan="0" key="96" len="12"/>
          <note vol="100" pos="168" pan="0" key="50" len="12"/>
          <note vol="100" pos="168" pan="0" key="36" len="12"/>
          <note vol="100" pos="180" pan="0" key="51" len="12"/>
          <note vol="100" pos="180" pan="0" key="36" len="12"/>
        </pattern>
        <pattern pos="11712" steps="16" muted="0" type="1" name="">
          <note vol="75" pos="0" pan="0" key="96" len="12"/>
          <note vol="75" pos="0" pan="0" key="50" len="12"/>
          <note vol="150" pos="0" pan="0" key="36" len="12"/>
          <note vol="75" pos="12" pan="0" key="96" len="12"/>
          <note vol="100" pos="12" pan="0" key="51" len="12"/>
          <note vol="100" pos="24" pan="0" key="50" len="12"/>
          <note vol="75" pos="36" pan="0" key="96" len="12"/>
          <note vol="100" pos="36" pan="0" key="51" len="12"/>
          <note vol="100" pos="36" pan="0" key="36" len="12"/>
          <note vol="75" pos="48" pan="0" key="96" len="12"/>
          <note vol="75" pos="48" pan="0" key="50" len="12"/>
          <note vol="150" pos="48" pan="0" key="38" len="12"/>
          <note vol="100" pos="48" pan="0" key="36" len="12"/>
          <note vol="100" pos="60" pan="0" key="51" len="12"/>
          <note vol="75" pos="72" pan="0" key="96" len="12"/>
          <note vol="75" pos="72" pan="0" key="50" len="12"/>
          <note vol="100" pos="72" pan="0" key="36" len="12"/>
          <note vol="75" pos="84" pan="0" key="96" len="12"/>
          <note vol="100" pos="84" pan="0" key="51" len="12"/>
          <note vol="75" pos="96" pan="0" key="50" len="12"/>
          <note vol="100" pos="96" pan="0" key="36" len="12"/>
          <note vol="75" pos="108" pan="0" key="96" len="12"/>
          <note vol="100" pos="108" pan="0" key="51" len="12"/>
          <note vol="100" pos="108" pan="0" key="36" len="12"/>
          <note vol="75" pos="120" pan="0" key="96" len="12"/>
          <note vol="75" pos="120" pan="0" key="50" len="12"/>
          <note vol="100" pos="120" pan="0" key="36" len="12"/>
          <note vol="100" pos="132" pan="0" key="51" len="12"/>
          <note vol="75" pos="144" pan="0" key="96" len="12"/>
          <note vol="75" pos="144" pan="0" key="50" len="12"/>
          <note vol="150" pos="144" pan="0" key="38" len="12"/>
          <note vol="100" pos="144" pan="0" key="36" len="12"/>
          <note vol="100" pos="156" pan="0" key="51" len="12"/>
          <note vol="75" pos="168" pan="0" key="96" len="12"/>
          <note vol="100" pos="168" pan="0" key="50" len="12"/>
          <note vol="100" pos="168" pan="0" key="36" len="12"/>
          <note vol="100" pos="180" pan="0" key="51" len="12"/>
          <note vol="100" pos="180" pan="0" key="36" len="12"/>
        </pattern>
        <pattern pos="11904" steps="16" muted="0" type="1" name="">
          <note vol="75" pos="0" pan="0" key="96" len="12"/>
          <note vol="75" pos="0" pan="0" key="50" len="12"/>
          <note vol="150" pos="0" pan="0" key="36" len="12"/>
          <note vol="75" pos="12" pan="0" key="96" len="12"/>
          <note vol="100" pos="12" pan="0" key="51" len="12"/>
          <note vol="100" pos="24" pan="0" key="50" len="12"/>
          <note vol="75" pos="36" pan="0" key="96" len="12"/>
          <note vol="100" pos="36" pan="0" key="51" len="12"/>
          <note vol="100" pos="36" pan="0" key="36" len="12"/>
          <note vol="75" pos="48" pan="0" key="96" len="12"/>
          <note vol="75" pos="48" pan="0" key="50" len="12"/>
          <note vol="150" pos="48" pan="0" key="38" len="12"/>
          <note vol="100" pos="48" pan="0" key="36" len="12"/>
          <note vol="100" pos="60" pan="0" key="51" len="12"/>
          <note vol="75" pos="72" pan="0" key="96" len="12"/>
          <note vol="75" pos="72" pan="0" key="50" len="12"/>
          <note vol="100" pos="72" pan="0" key="36" len="12"/>
          <note vol="75" pos="84" pan="0" key="96" len="12"/>
          <note vol="100" pos="84" pan="0" key="51" len="12"/>
          <note vol="75" pos="96" pan="0" key="50" len="12"/>
          <note vol="100" pos="96" pan="0" key="36" len="12"/>
          <note vol="75" pos="108" pan="0" key="96" len="12"/>
          <note vol="100" pos="108" pan="0" key="51" len="12"/>
          <note vol="100" pos="108" pan="0" key="36" len="12"/>
          <note vol="75" pos="120" pan="0" key="96" len="12"/>
          <note vol="75" pos="120" pan="0" key="50" len="12"/>
          <note vol="100" pos="120" pan="0" key="36" len="12"/>
          <note vol="100" pos="132" pan="0" key="51" len="12"/>
          <note vol="75" pos="144" pan="0" key="96" len="12"/>
          <note vol="75" pos="144" pan="0" key="50" len="12"/>
          <note vol="150" pos="144" pan="0" key="38" len="12"/>
          <note vol="100" pos="144" pan="0" key="36" len="12"/>
          <note vol="100" pos="156" pan="0" key="51" len="12"/>
          <note vol="75" pos="168" pan="0" key="96" len="12"/>
          <note vol="100" pos="168" pan="0" key="50" len="12"/>
          <note vol="100" pos="168" pan="0" key="36" len="12"/>
          <note vol="100" pos="180" pan="0" key="51" len="12"/>
          <note vol="100" pos="180" pan="0" key="36" len="12"/>
        </pattern>
        <pattern pos="12096" steps="16" muted="0" type="1" name="">
          <note vol="75" pos="0" pan="0" key="96" len="12"/>
          <note vol="75" pos="0" pan="0" key="50" len="12"/>
          <note vol="150" pos="0" pan="0" key="36" len="12"/>
          <note vol="75" pos="12" pan="0" key="96" len="12"/>
          <note vol="100" pos="12" pan="0" key="51" len="12"/>
          <note vol="100" pos="24" pan="0" key="50" len="12"/>
          <note vol="75" pos="36" pan="0" key="96" len="12"/>
          <note vol="100" pos="36" pan="0" key="51" len="12"/>
          <note vol="100" pos="36" pan="0" key="36" len="12"/>
          <note vol="75" pos="48" pan="0" key="96" len="12"/>
          <note vol="75" pos="48" pan="0" key="50" len="12"/>
          <note vol="150" pos="48" pan="0" key="38" len="12"/>
          <note vol="100" pos="48" pan="0" key="36" len="12"/>
          <note vol="100" pos="60" pan="0" key="51" len="12"/>
          <note vol="75" pos="72" pan="0" key="96" len="12"/>
          <note vol="75" pos="72" pan="0" key="50" len="12"/>
          <note vol="100" pos="72" pan="0" key="36" len="12"/>
          <note vol="75" pos="84" pan="0" key="96" len="12"/>
          <note vol="100" pos="84" pan="0" key="51" len="12"/>
          <note vol="75" pos="96" pan="0" key="50" len="12"/>
          <note vol="100" pos="96" pan="0" key="36" len="12"/>
          <note vol="75" pos="108" pan="0" key="96" len="12"/>
          <note vol="100" pos="108" pan="0" key="51" len="12"/>
          <note vol="100" pos="108" pan="0" key="36" len="12"/>
          <note vol="75" pos="120" pan="0" key="96" len="12"/>
          <note vol="75" pos="120" pan="0" key="50" len="12"/>
          <note vol="100" pos="120" pan="0" key="36" len="12"/>
          <note vol="100" pos="132" pan="0" key="51" len="12"/>
          <note vol="75" pos="144" pan="0" key="96" len="12"/>
          <note vol="75" pos="144" pan="0" key="50" len="12"/>
          <note vol="150" pos="144" pan="0" key="38" len="12"/>
          <note vol="100" pos="144" pan="0" key="36" len="12"/>
          <note vol="100" pos="156" pan="0" key="51" len="12"/>
          <note vol="75" pos="168" pan="0" key="96" len="12"/>
          <note vol="100" pos="168" pan="0" key="50" len="12"/>
          <note vol="100" pos="168" pan="0" key="36" len="12"/>
          <note vol="100" pos="180" pan="0" key="51" len="12"/>
          <note vol="100" pos="180" pan="0" key="36" len="12"/>
        </pattern>
        <pattern pos="12480" steps="16" muted="0" type="1" name="">
          <note vol="75" pos="0" pan="0" key="96" len="12"/>
          <note vol="75" pos="0" pan="0" key="50" len="12"/>
          <note vol="150" pos="0" pan="0" key="36" len="12"/>
          <note vol="75" pos="12" pan="0" key="96" len="12"/>
          <note vol="100" pos="12" pan="0" key="51" len="12"/>
          <note vol="100" pos="24" pan="0" key="50" len="12"/>
          <note vol="75" pos="36" pan="0" key="96" len="12"/>
          <note vol="100" pos="36" pan="0" key="51" len="12"/>
          <note vol="100" pos="36" pan="0" key="36" len="12"/>
          <note vol="75" pos="48" pan="0" key="96" len="12"/>
          <note vol="75" pos="48" pan="0" key="50" len="12"/>
          <note vol="150" pos="48" pan="0" key="38" len="12"/>
          <note vol="100" pos="48" pan="0" key="36" len="12"/>
          <note vol="100" pos="60" pan="0" key="51" len="12"/>
          <note vol="75" pos="72" pan="0" key="96" len="12"/>
          <note vol="75" pos="72" pan="0" key="50" len="12"/>
          <note vol="100" pos="72" pan="0" key="36" len="12"/>
          <note vol="75" pos="84" pan="0" key="96" len="12"/>
          <note vol="100" pos="84" pan="0" key="51" len="12"/>
          <note vol="75" pos="96" pan="0" key="50" len="12"/>
          <note vol="100" pos="96" pan="0" key="36" len="12"/>
          <note vol="75" pos="108" pan="0" key="96" len="12"/>
          <note vol="100" pos="108" pan="0" key="51" len="12"/>
          <note vol="100" pos="108" pan="0" key="36" len="12"/>
          <note vol="75" pos="120" pan="0" key="96" len="12"/>
          <note vol="75" pos="120" pan="0" key="50" len="12"/>
          <note vol="100" pos="120" pan="0" key="36" len="12"/>
          <note vol="100" pos="132" pan="0" key="51" len="12"/>
          <note vol="75" pos="144" pan="0" key="96" len="12"/>
          <note vol="75" pos="144" pan="0" key="50" len="12"/>
          <note vol="150" pos="144" pan="0" key="38" len="12"/>
          <note vol="100" pos="144" pan="0" key="36" len="12"/>
          <note vol="100" pos="156" pan="0" key="51" len="12"/>
          <note vol="75" pos="168" pan="0" key="96" len="12"/>
          <note vol="100" pos="168" pan="0" key="50" len="12"/>
          <note vol="100" pos="168" pan="0" key="36" len="12"/>
          <note vol="100" pos="180" pan="0" key="51" len="12"/>
          <note vol="100" pos="180" pan="0" key="36" len="12"/>
        </pattern>
        <pattern pos="12288" steps="16" muted="0" type="1" name="">
          <note vol="75" pos="0" pan="0" key="96" len="12"/>
          <note vol="75" pos="0" pan="0" key="50" len="12"/>
          <note vol="150" pos="0" pan="0" key="36" len="12"/>
          <note vol="75" pos="12" pan="0" key="96" len="12"/>
          <note vol="100" pos="12" pan="0" key="51" len="12"/>
          <note vol="100" pos="24" pan="0" key="50" len="12"/>
          <note vol="75" pos="36" pan="0" key="96" len="12"/>
          <note vol="100" pos="36" pan="0" key="51" len="12"/>
          <note vol="100" pos="36" pan="0" key="36" len="12"/>
          <note vol="75" pos="48" pan="0" key="96" len="12"/>
          <note vol="75" pos="48" pan="0" key="50" len="12"/>
          <note vol="150" pos="48" pan="0" key="38" len="12"/>
          <note vol="100" pos="48" pan="0" key="36" len="12"/>
          <note vol="100" pos="60" pan="0" key="51" len="12"/>
          <note vol="75" pos="72" pan="0" key="96" len="12"/>
          <note vol="75" pos="72" pan="0" key="50" len="12"/>
          <note vol="100" pos="72" pan="0" key="36" len="12"/>
          <note vol="75" pos="84" pan="0" key="96" len="12"/>
          <note vol="100" pos="84" pan="0" key="51" len="12"/>
          <note vol="75" pos="96" pan="0" key="50" len="12"/>
          <note vol="100" pos="96" pan="0" key="36" len="12"/>
          <note vol="75" pos="108" pan="0" key="96" len="12"/>
          <note vol="100" pos="108" pan="0" key="51" len="12"/>
          <note vol="100" pos="108" pan="0" key="36" len="12"/>
          <note vol="75" pos="120" pan="0" key="96" len="12"/>
          <note vol="75" pos="120" pan="0" key="50" len="12"/>
          <note vol="100" pos="120" pan="0" key="36" len="12"/>
          <note vol="100" pos="132" pan="0" key="51" len="12"/>
          <note vol="75" pos="144" pan="0" key="96" len="12"/>
          <note vol="75" pos="144" pan="0" key="50" len="12"/>
          <note vol="150" pos="144" pan="0" key="38" len="12"/>
          <note vol="100" pos="144" pan="0" key="36" len="12"/>
          <note vol="100" pos="156" pan="0" key="51" len="12"/>
          <note vol="75" pos="168" pan="0" key="96" len="12"/>
          <note vol="100" pos="168" pan="0" key="50" len="12"/>
          <note vol="100" pos="168" pan="0" key="36" len="12"/>
          <note vol="100" pos="180" pan="0" key="51" len="12"/>
          <note vol="100" pos="180" pan="0" key="36" len="12"/>
        </pattern>
        <pattern pos="12672" steps="16" muted="0" type="1" name="">
          <note vol="75" pos="0" pan="0" key="96" len="12"/>
          <note vol="75" pos="0" pan="0" key="50" len="12"/>
          <note vol="150" pos="0" pan="0" key="36" len="12"/>
          <note vol="75" pos="12" pan="0" key="96" len="12"/>
          <note vol="100" pos="12" pan="0" key="51" len="12"/>
          <note vol="100" pos="24" pan="0" key="50" len="12"/>
          <note vol="75" pos="36" pan="0" key="96" len="12"/>
          <note vol="100" pos="36" pan="0" key="51" len="12"/>
          <note vol="100" pos="36" pan="0" key="36" len="12"/>
          <note vol="75" pos="48" pan="0" key="96" len="12"/>
          <note vol="75" pos="48" pan="0" key="50" len="12"/>
          <note vol="150" pos="48" pan="0" key="38" len="12"/>
          <note vol="100" pos="48" pan="0" key="36" len="12"/>
          <note vol="100" pos="60" pan="0" key="51" len="12"/>
          <note vol="75" pos="72" pan="0" key="96" len="12"/>
          <note vol="75" pos="72" pan="0" key="50" len="12"/>
          <note vol="100" pos="72" pan="0" key="36" len="12"/>
          <note vol="75" pos="84" pan="0" key="96" len="12"/>
          <note vol="100" pos="84" pan="0" key="51" len="12"/>
          <note vol="75" pos="96" pan="0" key="50" len="12"/>
          <note vol="100" pos="96" pan="0" key="36" len="12"/>
          <note vol="75" pos="108" pan="0" key="96" len="12"/>
          <note vol="100" pos="108" pan="0" key="51" len="12"/>
          <note vol="100" pos="108" pan="0" key="36" len="12"/>
          <note vol="75" pos="120" pan="0" key="96" len="12"/>
          <note vol="75" pos="120" pan="0" key="50" len="12"/>
          <note vol="100" pos="120" pan="0" key="36" len="12"/>
          <note vol="100" pos="132" pan="0" key="51" len="12"/>
          <note vol="75" pos="144" pan="0" key="96" len="12"/>
          <note vol="75" pos="144" pan="0" key="50" len="12"/>
          <note vol="150" pos="144" pan="0" key="38" len="12"/>
          <note vol="100" pos="144" pan="0" key="36" len="12"/>
          <note vol="100" pos="156" pan="0" key="51" len="12"/>
          <note vol="75" pos="168" pan="0" key="96" len="12"/>
          <note vol="100" pos="168" pan="0" key="50" len="12"/>
          <note vol="100" pos="168" pan="0" key="36" len="12"/>
          <note vol="100" pos="180" pan="0" key="51" len="12"/>
          <note vol="100" pos="180" pan="0" key="36" len="12"/>
        </pattern>
        <pattern pos="12864" steps="16" muted="0" type="1" name="">
          <note vol="75" pos="0" pan="0" key="96" len="12"/>
          <note vol="75" pos="0" pan="0" key="50" len="12"/>
          <note vol="150" pos="0" pan="0" key="36" len="12"/>
          <note vol="75" pos="12" pan="0" key="96" len="12"/>
          <note vol="100" pos="12" pan="0" key="51" len="12"/>
          <note vol="100" pos="24" pan="0" key="50" len="12"/>
          <note vol="75" pos="36" pan="0" key="96" len="12"/>
          <note vol="100" pos="36" pan="0" key="51" len="12"/>
          <note vol="100" pos="36" pan="0" key="36" len="12"/>
          <note vol="75" pos="48" pan="0" key="96" len="12"/>
          <note vol="75" pos="48" pan="0" key="50" len="12"/>
          <note vol="150" pos="48" pan="0" key="38" len="12"/>
          <note vol="100" pos="48" pan="0" key="36" len="12"/>
          <note vol="100" pos="60" pan="0" key="51" len="12"/>
          <note vol="75" pos="72" pan="0" key="96" len="12"/>
          <note vol="75" pos="72" pan="0" key="50" len="12"/>
          <note vol="100" pos="72" pan="0" key="36" len="12"/>
          <note vol="75" pos="84" pan="0" key="96" len="12"/>
          <note vol="100" pos="84" pan="0" key="51" len="12"/>
          <note vol="75" pos="96" pan="0" key="50" len="12"/>
          <note vol="100" pos="96" pan="0" key="36" len="12"/>
          <note vol="75" pos="108" pan="0" key="96" len="12"/>
          <note vol="100" pos="108" pan="0" key="51" len="12"/>
          <note vol="100" pos="108" pan="0" key="36" len="12"/>
          <note vol="75" pos="120" pan="0" key="96" len="12"/>
          <note vol="75" pos="120" pan="0" key="50" len="12"/>
          <note vol="100" pos="120" pan="0" key="36" len="12"/>
          <note vol="100" pos="132" pan="0" key="51" len="12"/>
          <note vol="75" pos="144" pan="0" key="96" len="12"/>
          <note vol="75" pos="144" pan="0" key="50" len="12"/>
          <note vol="150" pos="144" pan="0" key="38" len="12"/>
          <note vol="100" pos="144" pan="0" key="36" len="12"/>
          <note vol="100" pos="156" pan="0" key="51" len="12"/>
          <note vol="75" pos="168" pan="0" key="96" len="12"/>
          <note vol="100" pos="168" pan="0" key="50" len="12"/>
          <note vol="100" pos="168" pan="0" key="36" len="12"/>
          <note vol="100" pos="180" pan="0" key="51" len="12"/>
          <note vol="100" pos="180" pan="0" key="36" len="12"/>
        </pattern>
        <pattern pos="13056" steps="16" muted="0" type="1" name="">
          <note vol="75" pos="0" pan="0" key="96" len="12"/>
          <note vol="75" pos="0" pan="0" key="50" len="12"/>
          <note vol="150" pos="0" pan="0" key="36" len="12"/>
          <note vol="75" pos="12" pan="0" key="96" len="12"/>
          <note vol="100" pos="12" pan="0" key="51" len="12"/>
          <note vol="100" pos="24" pan="0" key="50" len="12"/>
          <note vol="75" pos="36" pan="0" key="96" len="12"/>
          <note vol="100" pos="36" pan="0" key="51" len="12"/>
          <note vol="100" pos="36" pan="0" key="36" len="12"/>
          <note vol="75" pos="48" pan="0" key="96" len="12"/>
          <note vol="75" pos="48" pan="0" key="50" len="12"/>
          <note vol="150" pos="48" pan="0" key="38" len="12"/>
          <note vol="100" pos="48" pan="0" key="36" len="12"/>
          <note vol="100" pos="60" pan="0" key="51" len="12"/>
          <note vol="75" pos="72" pan="0" key="96" len="12"/>
          <note vol="75" pos="72" pan="0" key="50" len="12"/>
          <note vol="100" pos="72" pan="0" key="36" len="12"/>
          <note vol="75" pos="84" pan="0" key="96" len="12"/>
          <note vol="100" pos="84" pan="0" key="51" len="12"/>
          <note vol="75" pos="96" pan="0" key="50" len="12"/>
          <note vol="100" pos="96" pan="0" key="36" len="12"/>
          <note vol="75" pos="108" pan="0" key="96" len="12"/>
          <note vol="100" pos="108" pan="0" key="51" len="12"/>
          <note vol="100" pos="108" pan="0" key="36" len="12"/>
          <note vol="75" pos="120" pan="0" key="96" len="12"/>
          <note vol="75" pos="120" pan="0" key="50" len="12"/>
          <note vol="100" pos="120" pan="0" key="36" len="12"/>
          <note vol="100" pos="132" pan="0" key="51" len="12"/>
          <note vol="75" pos="144" pan="0" key="96" len="12"/>
          <note vol="75" pos="144" pan="0" key="50" len="12"/>
          <note vol="150" pos="144" pan="0" key="38" len="12"/>
          <note vol="100" pos="144" pan="0" key="36" len="12"/>
          <note vol="100" pos="156" pan="0" key="51" len="12"/>
          <note vol="75" pos="168" pan="0" key="96" len="12"/>
          <note vol="100" pos="168" pan="0" key="50" len="12"/>
          <note vol="100" pos="168" pan="0" key="36" len="12"/>
          <note vol="100" pos="180" pan="0" key="51" len="12"/>
          <note vol="100" pos="180" pan="0" key="36" len="12"/>
        </pattern>
        <pattern pos="13248" steps="16" muted="0" type="1" name="">
          <note vol="75" pos="0" pan="0" key="96" len="12"/>
          <note vol="75" pos="0" pan="0" key="50" len="12"/>
          <note vol="150" pos="0" pan="0" key="36" len="12"/>
          <note vol="75" pos="12" pan="0" key="96" len="12"/>
          <note vol="100" pos="12" pan="0" key="51" len="12"/>
          <note vol="100" pos="24" pan="0" key="50" len="12"/>
          <note vol="75" pos="36" pan="0" key="96" len="12"/>
          <note vol="100" pos="36" pan="0" key="51" len="12"/>
          <note vol="100" pos="36" pan="0" key="36" len="12"/>
          <note vol="75" pos="48" pan="0" key="96" len="12"/>
          <note vol="75" pos="48" pan="0" key="50" len="12"/>
          <note vol="150" pos="48" pan="0" key="38" len="12"/>
          <note vol="100" pos="48" pan="0" key="36" len="12"/>
          <note vol="100" pos="60" pan="0" key="51" len="12"/>
          <note vol="75" pos="72" pan="0" key="96" len="12"/>
          <note vol="75" pos="72" pan="0" key="50" len="12"/>
          <note vol="100" pos="72" pan="0" key="36" len="12"/>
          <note vol="75" pos="84" pan="0" key="96" len="12"/>
          <note vol="100" pos="84" pan="0" key="51" len="12"/>
          <note vol="75" pos="96" pan="0" key="50" len="12"/>
          <note vol="100" pos="96" pan="0" key="36" len="12"/>
          <note vol="75" pos="108" pan="0" key="96" len="12"/>
          <note vol="100" pos="108" pan="0" key="51" len="12"/>
          <note vol="100" pos="108" pan="0" key="36" len="12"/>
          <note vol="75" pos="120" pan="0" key="96" len="12"/>
          <note vol="75" pos="120" pan="0" key="50" len="12"/>
          <note vol="100" pos="120" pan="0" key="36" len="12"/>
          <note vol="100" pos="132" pan="0" key="51" len="12"/>
          <note vol="75" pos="144" pan="0" key="96" len="12"/>
          <note vol="75" pos="144" pan="0" key="50" len="12"/>
          <note vol="150" pos="144" pan="0" key="38" len="12"/>
          <note vol="100" pos="144" pan="0" key="36" len="12"/>
          <note vol="100" pos="156" pan="0" key="51" len="12"/>
          <note vol="75" pos="168" pan="0" key="96" len="12"/>
          <note vol="100" pos="168" pan="0" key="50" len="12"/>
          <note vol="100" pos="168" pan="0" key="36" len="12"/>
          <note vol="100" pos="180" pan="0" key="51" len="12"/>
          <note vol="100" pos="180" pan="0" key="36" len="12"/>
        </pattern>
        <pattern pos="13440" steps="16" muted="0" type="1" name="">
          <note vol="75" pos="0" pan="0" key="96" len="12"/>
          <note vol="75" pos="0" pan="0" key="50" len="12"/>
          <note vol="150" pos="0" pan="0" key="36" len="12"/>
          <note vol="75" pos="12" pan="0" key="96" len="12"/>
          <note vol="100" pos="12" pan="0" key="51" len="12"/>
          <note vol="100" pos="24" pan="0" key="50" len="12"/>
          <note vol="75" pos="36" pan="0" key="96" len="12"/>
          <note vol="100" pos="36" pan="0" key="51" len="12"/>
          <note vol="100" pos="36" pan="0" key="36" len="12"/>
          <note vol="75" pos="48" pan="0" key="96" len="12"/>
          <note vol="75" pos="48" pan="0" key="50" len="12"/>
          <note vol="150" pos="48" pan="0" key="38" len="12"/>
          <note vol="100" pos="48" pan="0" key="36" len="12"/>
          <note vol="100" pos="60" pan="0" key="51" len="12"/>
          <note vol="75" pos="72" pan="0" key="96" len="12"/>
          <note vol="75" pos="72" pan="0" key="50" len="12"/>
          <note vol="100" pos="72" pan="0" key="36" len="12"/>
          <note vol="75" pos="84" pan="0" key="96" len="12"/>
          <note vol="100" pos="84" pan="0" key="51" len="12"/>
          <note vol="75" pos="96" pan="0" key="50" len="12"/>
          <note vol="100" pos="96" pan="0" key="36" len="12"/>
          <note vol="75" pos="108" pan="0" key="96" len="12"/>
          <note vol="100" pos="108" pan="0" key="51" len="12"/>
          <note vol="100" pos="108" pan="0" key="36" len="12"/>
          <note vol="75" pos="120" pan="0" key="96" len="12"/>
          <note vol="75" pos="120" pan="0" key="50" len="12"/>
          <note vol="100" pos="120" pan="0" key="36" len="12"/>
          <note vol="100" pos="132" pan="0" key="51" len="12"/>
          <note vol="75" pos="144" pan="0" key="96" len="12"/>
          <note vol="75" pos="144" pan="0" key="50" len="12"/>
          <note vol="150" pos="144" pan="0" key="38" len="12"/>
          <note vol="100" pos="144" pan="0" key="36" len="12"/>
          <note vol="100" pos="156" pan="0" key="51" len="12"/>
          <note vol="75" pos="168" pan="0" key="96" len="12"/>
          <note vol="100" pos="168" pan="0" key="50" len="12"/>
          <note vol="100" pos="168" pan="0" key="36" len="12"/>
          <note vol="100" pos="180" pan="0" key="51" len="12"/>
          <note vol="100" pos="180" pan="0" key="36" len="12"/>
        </pattern>
        <pattern pos="13632" steps="16" muted="0" type="1" name="">
          <note vol="75" pos="0" pan="0" key="96" len="12"/>
          <note vol="75" pos="0" pan="0" key="50" len="12"/>
          <note vol="150" pos="0" pan="0" key="36" len="12"/>
          <note vol="75" pos="12" pan="0" key="96" len="12"/>
          <note vol="100" pos="12" pan="0" key="51" len="12"/>
          <note vol="100" pos="24" pan="0" key="50" len="12"/>
          <note vol="75" pos="36" pan="0" key="96" len="12"/>
          <note vol="100" pos="36" pan="0" key="51" len="12"/>
          <note vol="100" pos="36" pan="0" key="36" len="12"/>
          <note vol="75" pos="48" pan="0" key="96" len="12"/>
          <note vol="75" pos="48" pan="0" key="50" len="12"/>
          <note vol="150" pos="48" pan="0" key="38" len="12"/>
          <note vol="100" pos="48" pan="0" key="36" len="12"/>
          <note vol="100" pos="60" pan="0" key="51" len="12"/>
          <note vol="75" pos="72" pan="0" key="96" len="12"/>
          <note vol="75" pos="72" pan="0" key="50" len="12"/>
          <note vol="100" pos="72" pan="0" key="36" len="12"/>
          <note vol="75" pos="84" pan="0" key="96" len="12"/>
          <note vol="100" pos="84" pan="0" key="51" len="12"/>
          <note vol="75" pos="96" pan="0" key="50" len="12"/>
          <note vol="100" pos="96" pan="0" key="36" len="12"/>
          <note vol="75" pos="108" pan="0" key="96" len="12"/>
          <note vol="100" pos="108" pan="0" key="51" len="12"/>
          <note vol="100" pos="108" pan="0" key="36" len="12"/>
          <note vol="75" pos="120" pan="0" key="96" len="12"/>
          <note vol="75" pos="120" pan="0" key="50" len="12"/>
          <note vol="100" pos="120" pan="0" key="36" len="12"/>
          <note vol="100" pos="132" pan="0" key="51" len="12"/>
          <note vol="75" pos="144" pan="0" key="96" len="12"/>
          <note vol="75" pos="144" pan="0" key="50" len="12"/>
          <note vol="150" pos="144" pan="0" key="38" len="12"/>
          <note vol="100" pos="144" pan="0" key="36" len="12"/>
          <note vol="100" pos="156" pan="0" key="51" len="12"/>
          <note vol="75" pos="168" pan="0" key="96" len="12"/>
          <note vol="100" pos="168" pan="0" key="50" len="12"/>
          <note vol="100" pos="168" pan="0" key="36" len="12"/>
          <note vol="100" pos="180" pan="0" key="51" len="12"/>
          <note vol="100" pos="180" pan="0" key="36" len="12"/>
        </pattern>
        <pattern pos="13824" steps="16" muted="0" type="1" name="">
          <note vol="75" pos="0" pan="0" key="96" len="12"/>
          <note vol="75" pos="0" pan="0" key="50" len="12"/>
          <note vol="150" pos="0" pan="0" key="36" len="12"/>
          <note vol="75" pos="12" pan="0" key="96" len="12"/>
          <note vol="100" pos="12" pan="0" key="51" len="12"/>
          <note vol="100" pos="24" pan="0" key="50" len="12"/>
          <note vol="75" pos="36" pan="0" key="96" len="12"/>
          <note vol="100" pos="36" pan="0" key="51" len="12"/>
          <note vol="100" pos="36" pan="0" key="36" len="12"/>
          <note vol="75" pos="48" pan="0" key="96" len="12"/>
          <note vol="75" pos="48" pan="0" key="50" len="12"/>
          <note vol="150" pos="48" pan="0" key="38" len="12"/>
          <note vol="100" pos="48" pan="0" key="36" len="12"/>
          <note vol="100" pos="60" pan="0" key="51" len="12"/>
          <note vol="75" pos="72" pan="0" key="96" len="12"/>
          <note vol="75" pos="72" pan="0" key="50" len="12"/>
          <note vol="100" pos="72" pan="0" key="36" len="12"/>
          <note vol="75" pos="84" pan="0" key="96" len="12"/>
          <note vol="100" pos="84" pan="0" key="51" len="12"/>
          <note vol="75" pos="96" pan="0" key="50" len="12"/>
          <note vol="100" pos="96" pan="0" key="36" len="12"/>
          <note vol="75" pos="108" pan="0" key="96" len="12"/>
          <note vol="100" pos="108" pan="0" key="51" len="12"/>
          <note vol="100" pos="108" pan="0" key="36" len="12"/>
          <note vol="75" pos="120" pan="0" key="96" len="12"/>
          <note vol="75" pos="120" pan="0" key="50" len="12"/>
          <note vol="100" pos="120" pan="0" key="36" len="12"/>
          <note vol="100" pos="132" pan="0" key="51" len="12"/>
          <note vol="75" pos="144" pan="0" key="96" len="12"/>
          <note vol="75" pos="144" pan="0" key="50" len="12"/>
          <note vol="150" pos="144" pan="0" key="38" len="12"/>
          <note vol="100" pos="144" pan="0" key="36" len="12"/>
          <note vol="100" pos="156" pan="0" key="51" len="12"/>
          <note vol="75" pos="168" pan="0" key="96" len="12"/>
          <note vol="100" pos="168" pan="0" key="50" len="12"/>
          <note vol="100" pos="168" pan="0" key="36" len="12"/>
          <note vol="100" pos="180" pan="0" key="51" len="12"/>
          <note vol="100" pos="180" pan="0" key="36" len="12"/>
        </pattern>
        <pattern pos="14016" steps="16" muted="0" type="1" name="">
          <note vol="75" pos="0" pan="0" key="96" len="12"/>
          <note vol="75" pos="0" pan="0" key="50" len="12"/>
          <note vol="150" pos="0" pan="0" key="36" len="12"/>
          <note vol="75" pos="12" pan="0" key="96" len="12"/>
          <note vol="100" pos="12" pan="0" key="51" len="12"/>
          <note vol="100" pos="24" pan="0" key="50" len="12"/>
          <note vol="75" pos="36" pan="0" key="96" len="12"/>
          <note vol="100" pos="36" pan="0" key="51" len="12"/>
          <note vol="100" pos="36" pan="0" key="36" len="12"/>
          <note vol="75" pos="48" pan="0" key="96" len="12"/>
          <note vol="75" pos="48" pan="0" key="50" len="12"/>
          <note vol="150" pos="48" pan="0" key="38" len="12"/>
          <note vol="100" pos="48" pan="0" key="36" len="12"/>
          <note vol="100" pos="60" pan="0" key="51" len="12"/>
          <note vol="75" pos="72" pan="0" key="96" len="12"/>
          <note vol="75" pos="72" pan="0" key="50" len="12"/>
          <note vol="100" pos="72" pan="0" key="36" len="12"/>
          <note vol="75" pos="84" pan="0" key="96" len="12"/>
          <note vol="100" pos="84" pan="0" key="51" len="12"/>
          <note vol="75" pos="96" pan="0" key="50" len="12"/>
          <note vol="100" pos="96" pan="0" key="36" len="12"/>
          <note vol="75" pos="108" pan="0" key="96" len="12"/>
          <note vol="100" pos="108" pan="0" key="51" len="12"/>
          <note vol="100" pos="108" pan="0" key="36" len="12"/>
          <note vol="75" pos="120" pan="0" key="96" len="12"/>
          <note vol="75" pos="120" pan="0" key="50" len="12"/>
          <note vol="100" pos="120" pan="0" key="36" len="12"/>
          <note vol="100" pos="132" pan="0" key="51" len="12"/>
          <note vol="75" pos="144" pan="0" key="96" len="12"/>
          <note vol="75" pos="144" pan="0" key="50" len="12"/>
          <note vol="150" pos="144" pan="0" key="38" len="12"/>
          <note vol="100" pos="144" pan="0" key="36" len="12"/>
          <note vol="100" pos="156" pan="0" key="51" len="12"/>
          <note vol="75" pos="168" pan="0" key="96" len="12"/>
          <note vol="100" pos="168" pan="0" key="50" len="12"/>
          <note vol="100" pos="168" pan="0" key="36" len="12"/>
          <note vol="100" pos="180" pan="0" key="51" len="12"/>
          <note vol="100" pos="180" pan="0" key="36" len="12"/>
        </pattern>
        <pattern pos="14208" steps="16" muted="0" type="1" name="">
          <note vol="75" pos="0" pan="0" key="96" len="12"/>
          <note vol="75" pos="0" pan="0" key="50" len="12"/>
          <note vol="150" pos="0" pan="0" key="36" len="12"/>
          <note vol="75" pos="12" pan="0" key="96" len="12"/>
          <note vol="100" pos="12" pan="0" key="51" len="12"/>
          <note vol="100" pos="24" pan="0" key="50" len="12"/>
          <note vol="75" pos="36" pan="0" key="96" len="12"/>
          <note vol="100" pos="36" pan="0" key="51" len="12"/>
          <note vol="100" pos="36" pan="0" key="36" len="12"/>
          <note vol="75" pos="48" pan="0" key="96" len="12"/>
          <note vol="75" pos="48" pan="0" key="50" len="12"/>
          <note vol="150" pos="48" pan="0" key="38" len="12"/>
          <note vol="100" pos="48" pan="0" key="36" len="12"/>
          <note vol="100" pos="60" pan="0" key="51" len="12"/>
          <note vol="75" pos="72" pan="0" key="96" len="12"/>
          <note vol="75" pos="72" pan="0" key="50" len="12"/>
          <note vol="100" pos="72" pan="0" key="36" len="12"/>
          <note vol="75" pos="84" pan="0" key="96" len="12"/>
          <note vol="100" pos="84" pan="0" key="51" len="12"/>
          <note vol="75" pos="96" pan="0" key="50" len="12"/>
          <note vol="100" pos="96" pan="0" key="36" len="12"/>
          <note vol="75" pos="108" pan="0" key="96" len="12"/>
          <note vol="100" pos="108" pan="0" key="51" len="12"/>
          <note vol="100" pos="108" pan="0" key="36" len="12"/>
          <note vol="75" pos="120" pan="0" key="96" len="12"/>
          <note vol="75" pos="120" pan="0" key="50" len="12"/>
          <note vol="100" pos="120" pan="0" key="36" len="12"/>
          <note vol="100" pos="132" pan="0" key="51" len="12"/>
          <note vol="75" pos="144" pan="0" key="96" len="12"/>
          <note vol="75" pos="144" pan="0" key="50" len="12"/>
          <note vol="150" pos="144" pan="0" key="38" len="12"/>
          <note vol="100" pos="144" pan="0" key="36" len="12"/>
          <note vol="100" pos="156" pan="0" key="51" len="12"/>
          <note vol="75" pos="168" pan="0" key="96" len="12"/>
          <note vol="100" pos="168" pan="0" key="50" len="12"/>
          <note vol="100" pos="168" pan="0" key="36" len="12"/>
          <note vol="100" pos="180" pan="0" key="51" len="12"/>
          <note vol="100" pos="180" pan="0" key="36" len="12"/>
        </pattern>
        <pattern pos="14400" steps="16" muted="0" type="1" name="">
          <note vol="75" pos="0" pan="0" key="96" len="12"/>
          <note vol="75" pos="0" pan="0" key="50" len="12"/>
          <note vol="150" pos="0" pan="0" key="36" len="12"/>
          <note vol="75" pos="12" pan="0" key="96" len="12"/>
          <note vol="100" pos="12" pan="0" key="51" len="12"/>
          <note vol="100" pos="24" pan="0" key="50" len="12"/>
          <note vol="75" pos="36" pan="0" key="96" len="12"/>
          <note vol="100" pos="36" pan="0" key="51" len="12"/>
          <note vol="100" pos="36" pan="0" key="36" len="12"/>
          <note vol="75" pos="48" pan="0" key="96" len="12"/>
          <note vol="75" pos="48" pan="0" key="50" len="12"/>
          <note vol="150" pos="48" pan="0" key="38" len="12"/>
          <note vol="100" pos="48" pan="0" key="36" len="12"/>
          <note vol="100" pos="60" pan="0" key="51" len="12"/>
          <note vol="75" pos="72" pan="0" key="96" len="12"/>
          <note vol="75" pos="72" pan="0" key="50" len="12"/>
          <note vol="100" pos="72" pan="0" key="36" len="12"/>
          <note vol="75" pos="84" pan="0" key="96" len="12"/>
          <note vol="100" pos="84" pan="0" key="51" len="12"/>
          <note vol="75" pos="96" pan="0" key="50" len="12"/>
          <note vol="100" pos="96" pan="0" key="36" len="12"/>
          <note vol="75" pos="108" pan="0" key="96" len="12"/>
          <note vol="100" pos="108" pan="0" key="51" len="12"/>
          <note vol="100" pos="108" pan="0" key="36" len="12"/>
          <note vol="75" pos="120" pan="0" key="96" len="12"/>
          <note vol="75" pos="120" pan="0" key="50" len="12"/>
          <note vol="100" pos="120" pan="0" key="36" len="12"/>
          <note vol="100" pos="132" pan="0" key="51" len="12"/>
          <note vol="75" pos="144" pan="0" key="96" len="12"/>
          <note vol="75" pos="144" pan="0" key="50" len="12"/>
          <note vol="150" pos="144" pan="0" key="38" len="12"/>
          <note vol="100" pos="144" pan="0" key="36" len="12"/>
          <note vol="100" pos="156" pan="0" key="51" len="12"/>
          <note vol="75" pos="168" pan="0" key="96" len="12"/>
          <note vol="100" pos="168" pan="0" key="50" len="12"/>
          <note vol="100" pos="168" pan="0" key="36" len="12"/>
          <note vol="100" pos="180" pan="0" key="51" len="12"/>
          <note vol="100" pos="180" pan="0" key="36" len="12"/>
        </pattern>
        <pattern pos="14592" steps="16" muted="0" type="1" name="">
          <note vol="75" pos="0" pan="0" key="96" len="12"/>
          <note vol="75" pos="0" pan="0" key="50" len="12"/>
          <note vol="150" pos="0" pan="0" key="36" len="12"/>
          <note vol="75" pos="12" pan="0" key="96" len="12"/>
          <note vol="100" pos="12" pan="0" key="51" len="12"/>
          <note vol="100" pos="24" pan="0" key="50" len="12"/>
          <note vol="75" pos="36" pan="0" key="96" len="12"/>
          <note vol="100" pos="36" pan="0" key="51" len="12"/>
          <note vol="100" pos="36" pan="0" key="36" len="12"/>
          <note vol="75" pos="48" pan="0" key="96" len="12"/>
          <note vol="75" pos="48" pan="0" key="50" len="12"/>
          <note vol="150" pos="48" pan="0" key="38" len="12"/>
          <note vol="100" pos="48" pan="0" key="36" len="12"/>
          <note vol="100" pos="60" pan="0" key="51" len="12"/>
          <note vol="75" pos="72" pan="0" key="96" len="12"/>
          <note vol="75" pos="72" pan="0" key="50" len="12"/>
          <note vol="100" pos="72" pan="0" key="36" len="12"/>
          <note vol="75" pos="84" pan="0" key="96" len="12"/>
          <note vol="100" pos="84" pan="0" key="51" len="12"/>
          <note vol="75" pos="96" pan="0" key="50" len="12"/>
          <note vol="100" pos="96" pan="0" key="36" len="12"/>
          <note vol="75" pos="108" pan="0" key="96" len="12"/>
          <note vol="100" pos="108" pan="0" key="51" len="12"/>
          <note vol="100" pos="108" pan="0" key="36" len="12"/>
          <note vol="75" pos="120" pan="0" key="96" len="12"/>
          <note vol="75" pos="120" pan="0" key="50" len="12"/>
          <note vol="100" pos="120" pan="0" key="36" len="12"/>
          <note vol="100" pos="132" pan="0" key="51" len="12"/>
          <note vol="75" pos="144" pan="0" key="96" len="12"/>
          <note vol="75" pos="144" pan="0" key="50" len="12"/>
          <note vol="150" pos="144" pan="0" key="38" len="12"/>
          <note vol="100" pos="144" pan="0" key="36" len="12"/>
          <note vol="100" pos="156" pan="0" key="51" len="12"/>
          <note vol="75" pos="168" pan="0" key="96" len="12"/>
          <note vol="100" pos="168" pan="0" key="50" len="12"/>
          <note vol="100" pos="168" pan="0" key="36" len="12"/>
          <note vol="100" pos="180" pan="0" key="51" len="12"/>
          <note vol="100" pos="180" pan="0" key="36" len="12"/>
        </pattern>
        <pattern pos="14784" steps="16" muted="0" type="1" name="">
          <note vol="75" pos="0" pan="0" key="96" len="12"/>
          <note vol="75" pos="0" pan="0" key="50" len="12"/>
          <note vol="150" pos="0" pan="0" key="36" len="12"/>
          <note vol="75" pos="12" pan="0" key="96" len="12"/>
          <note vol="100" pos="12" pan="0" key="51" len="12"/>
          <note vol="100" pos="24" pan="0" key="50" len="12"/>
          <note vol="75" pos="36" pan="0" key="96" len="12"/>
          <note vol="100" pos="36" pan="0" key="51" len="12"/>
          <note vol="100" pos="36" pan="0" key="36" len="12"/>
          <note vol="75" pos="48" pan="0" key="96" len="12"/>
          <note vol="75" pos="48" pan="0" key="50" len="12"/>
          <note vol="150" pos="48" pan="0" key="38" len="12"/>
          <note vol="100" pos="48" pan="0" key="36" len="12"/>
          <note vol="100" pos="60" pan="0" key="51" len="12"/>
          <note vol="75" pos="72" pan="0" key="96" len="12"/>
          <note vol="75" pos="72" pan="0" key="50" len="12"/>
          <note vol="100" pos="72" pan="0" key="36" len="12"/>
          <note vol="75" pos="84" pan="0" key="96" len="12"/>
          <note vol="100" pos="84" pan="0" key="51" len="12"/>
          <note vol="75" pos="96" pan="0" key="50" len="12"/>
          <note vol="100" pos="96" pan="0" key="36" len="12"/>
          <note vol="75" pos="108" pan="0" key="96" len="12"/>
          <note vol="100" pos="108" pan="0" key="51" len="12"/>
          <note vol="100" pos="108" pan="0" key="36" len="12"/>
          <note vol="75" pos="120" pan="0" key="96" len="12"/>
          <note vol="75" pos="120" pan="0" key="50" len="12"/>
          <note vol="100" pos="120" pan="0" key="36" len="12"/>
          <note vol="100" pos="132" pan="0" key="51" len="12"/>
          <note vol="75" pos="144" pan="0" key="96" len="12"/>
          <note vol="75" pos="144" pan="0" key="50" len="12"/>
          <note vol="150" pos="144" pan="0" key="38" len="12"/>
          <note vol="100" pos="144" pan="0" key="36" len="12"/>
          <note vol="100" pos="156" pan="0" key="51" len="12"/>
          <note vol="75" pos="168" pan="0" key="96" len="12"/>
          <note vol="100" pos="168" pan="0" key="50" len="12"/>
          <note vol="100" pos="168" pan="0" key="36" len="12"/>
          <note vol="100" pos="180" pan="0" key="51" len="12"/>
          <note vol="100" pos="180" pan="0" key="36" len="12"/>
        </pattern>
        <pattern pos="14976" steps="16" muted="0" type="1" name="">
          <note vol="75" pos="0" pan="0" key="96" len="12"/>
          <note vol="75" pos="0" pan="0" key="50" len="12"/>
          <note vol="150" pos="0" pan="0" key="36" len="12"/>
          <note vol="75" pos="12" pan="0" key="96" len="12"/>
          <note vol="100" pos="12" pan="0" key="51" len="12"/>
          <note vol="100" pos="24" pan="0" key="50" len="12"/>
          <note vol="75" pos="36" pan="0" key="96" len="12"/>
          <note vol="100" pos="36" pan="0" key="51" len="12"/>
          <note vol="100" pos="36" pan="0" key="36" len="12"/>
          <note vol="75" pos="48" pan="0" key="96" len="12"/>
          <note vol="75" pos="48" pan="0" key="50" len="12"/>
          <note vol="150" pos="48" pan="0" key="38" len="12"/>
          <note vol="100" pos="48" pan="0" key="36" len="12"/>
          <note vol="100" pos="60" pan="0" key="51" len="12"/>
          <note vol="75" pos="72" pan="0" key="96" len="12"/>
          <note vol="75" pos="72" pan="0" key="50" len="12"/>
          <note vol="100" pos="72" pan="0" key="36" len="12"/>
          <note vol="75" pos="84" pan="0" key="96" len="12"/>
          <note vol="100" pos="84" pan="0" key="51" len="12"/>
          <note vol="75" pos="96" pan="0" key="50" len="12"/>
          <note vol="100" pos="96" pan="0" key="36" len="12"/>
          <note vol="75" pos="108" pan="0" key="96" len="12"/>
          <note vol="100" pos="108" pan="0" key="51" len="12"/>
          <note vol="100" pos="108" pan="0" key="36" len="12"/>
          <note vol="75" pos="120" pan="0" key="96" len="12"/>
          <note vol="75" pos="120" pan="0" key="50" len="12"/>
          <note vol="100" pos="120" pan="0" key="36" len="12"/>
          <note vol="100" pos="132" pan="0" key="51" len="12"/>
          <note vol="75" pos="144" pan="0" key="96" len="12"/>
          <note vol="75" pos="144" pan="0" key="50" len="12"/>
          <note vol="150" pos="144" pan="0" key="38" len="12"/>
          <note vol="100" pos="144" pan="0" key="36" len="12"/>
          <note vol="100" pos="156" pan="0" key="51" len="12"/>
          <note vol="75" pos="168" pan="0" key="96" len="12"/>
          <note vol="100" pos="168" pan="0" key="50" len="12"/>
          <note vol="100" pos="168" pan="0" key="36" len="12"/>
          <note vol="100" pos="180" pan="0" key="51" len="12"/>
          <note vol="100" pos="180" pan="0" key="36" len="12"/>
        </pattern>
        <pattern pos="15168" steps="16" muted="0" type="1" name="">
          <note vol="75" pos="0" pan="0" key="96" len="12"/>
          <note vol="75" pos="0" pan="0" key="50" len="12"/>
          <note vol="150" pos="0" pan="0" key="36" len="12"/>
          <note vol="75" pos="12" pan="0" key="96" len="12"/>
          <note vol="100" pos="12" pan="0" key="51" len="12"/>
          <note vol="100" pos="24" pan="0" key="50" len="12"/>
          <note vol="75" pos="36" pan="0" key="96" len="12"/>
          <note vol="100" pos="36" pan="0" key="51" len="12"/>
          <note vol="100" pos="36" pan="0" key="36" len="12"/>
          <note vol="75" pos="48" pan="0" key="96" len="12"/>
          <note vol="75" pos="48" pan="0" key="50" len="12"/>
          <note vol="150" pos="48" pan="0" key="38" len="12"/>
          <note vol="100" pos="48" pan="0" key="36" len="12"/>
          <note vol="100" pos="60" pan="0" key="51" len="12"/>
          <note vol="75" pos="72" pan="0" key="96" len="12"/>
          <note vol="75" pos="72" pan="0" key="50" len="12"/>
          <note vol="100" pos="72" pan="0" key="36" len="12"/>
          <note vol="75" pos="84" pan="0" key="96" len="12"/>
          <note vol="100" pos="84" pan="0" key="51" len="12"/>
          <note vol="75" pos="96" pan="0" key="50" len="12"/>
          <note vol="100" pos="96" pan="0" key="36" len="12"/>
          <note vol="75" pos="108" pan="0" key="96" len="12"/>
          <note vol="100" pos="108" pan="0" key="51" len="12"/>
          <note vol="100" pos="108" pan="0" key="36" len="12"/>
          <note vol="75" pos="120" pan="0" key="96" len="12"/>
          <note vol="75" pos="120" pan="0" key="50" len="12"/>
          <note vol="100" pos="120" pan="0" key="36" len="12"/>
          <note vol="100" pos="132" pan="0" key="51" len="12"/>
          <note vol="75" pos="144" pan="0" key="96" len="12"/>
          <note vol="75" pos="144" pan="0" key="50" len="12"/>
          <note vol="150" pos="144" pan="0" key="38" len="12"/>
          <note vol="100" pos="144" pan="0" key="36" len="12"/>
          <note vol="100" pos="156" pan="0" key="51" len="12"/>
          <note vol="75" pos="168" pan="0" key="96" len="12"/>
          <note vol="100" pos="168" pan="0" key="50" len="12"/>
          <note vol="100" pos="168" pan="0" key="36" len="12"/>
          <note vol="100" pos="180" pan="0" key="51" len="12"/>
          <note vol="100" pos="180" pan="0" key="36" len="12"/>
        </pattern>
      </track>
    </trackcontainer>
    <track muted="0" type="6" mutedBeforeSolo="0" solo="0" name="Automation track">
      <automationtrack/>
      <automationpattern pos="0" mute="0" name="Numerator" tens="1" len="192" prog="0"/>
      <automationpattern pos="0" mute="0" name="Denominator" tens="1" len="192" prog="0"/>
      <automationpattern pos="0" mute="0" name="Tempo" tens="1" len="192" prog="0"/>
      <automationpattern pos="0" mute="0" name="Master volume" tens="1" len="192" prog="0"/>
      <automationpattern pos="0" mute="0" name="Master pitch" tens="1" len="192" prog="0"/>
      <automationpattern pos="0" mute="0" name="Numerator" tens="1" len="192" prog="0"/>
      <automationpattern pos="0" mute="0" name="Denominator" tens="1" len="192" prog="0"/>
      <automationpattern pos="0" mute="0" name="Tempo" tens="1" len="192" prog="0"/>
      <automationpattern pos="0" mute="0" name="Master volume" tens="1" len="192" prog="0"/>
      <automationpattern pos="0" mute="0" name="Master pitch" tens="1" len="192" prog="0"/>
      <automationpattern pos="0" mute="0" name="Tempo" tens="1" len="192" prog="0">
        <time pos="0" value="117" outValue="117"/>
        <object id="22481"/>
      </automationpattern>
    </track>
    <fxmixer width="561" visible="0" y="489" height="333" minimized="0" maximized="0" x="571">
      <fxchannel muted="0" num="0" name="Master" soloed="0">
        <fxchain numofeffects="2" enabled="1">
          <effect autoquit_numerator="4" autoquit_denominator="4" autoquit="1" wet="1" gate="0" name="ladspaeffect" on="1" autoquit_syncmode="0">
            <ladspacontrols link="1" ports="4">
              <port00 link="1">
                <data scale_type="log" value="25" id="64559"/>
              </port00>
              <port01 data="0.755" link="1"/>
              <port10>
                <data scale_type="log" value="25" id="64573"/>
              </port10>
              <port11 data="0.755"/>
            </ladspacontrols>
            <key>
              <attribute value="butterworth_1902" name="file"/>
              <attribute value="butthigh_iir" name="plugin"/>
            </key>
          </effect>
          <effect autoquit_numerator="4" autoquit_denominator="4" autoquit="1" wet="1" gate="0" name="vsteffect" on="1" autoquit_syncmode="0">
            <vsteffectcontrols param2="2:Fader Link:0" param4="4:Large GUI:0" param1="1:Output:0.990682" guivisible="0" param0="0:Thresh:0.500871" plugin="LoudMax64.dll" numparams="5" program="0" param3="3:ISP Detection:0"/>
            <key>
              <attribute value="LoudMax64.dll" name="file"/>
            </key>
          </effect>
        </fxchain>
        <volume scale_type="linear" value="0.999619" id="21510"/>
      </fxchannel>
      <fxchannel muted="0" num="1" name="Rhythm" soloed="0">
        <fxchain numofeffects="0" enabled="0"/>
        <volume scale_type="linear" value="1.00074" id="60149"/>
        <send amount="1" channel="0"/>
      </fxchannel>
      <fxchannel muted="0" volume="1" num="2" name="Synth pad" soloed="0">
        <fxchain numofeffects="1" enabled="1">
          <effect autoquit_numerator="4" autoquit_denominator="4" autoquit="1" wet="1" gate="0" name="ladspaeffect" on="1" autoquit_syncmode="0">
            <ladspacontrols link="1" ports="4">
              <port00 link="1">
                <data scale_type="log" value="200" id="77458"/>
              </port00>
              <port01 data="0.755" link="1"/>
              <port10>
                <data scale_type="log" value="200" id="77472"/>
              </port10>
              <port11 data="0.755"/>
            </ladspacontrols>
            <key>
              <attribute value="butterworth_1902" name="file"/>
              <attribute value="butthigh_iir" name="plugin"/>
            </key>
          </effect>
        </fxchain>
        <send amount="1" channel="0"/>
      </fxchannel>
    </fxmixer>
    <ControllerRackView width="350" visible="1" y="407" height="200" minimized="0" maximized="0" x="836"/>
    <pianoroll width="970" visible="0" y="408" height="950" minimized="0" maximized="1" x="220"/>
    <automationeditor width="860" visible="0" y="255" height="400" minimized="0" maximized="1" x="56"/>
    <projectnotes width="686" visible="0" y="1" height="400" minimized="0" maximized="0" x="1"><![CDATA[<!DOCTYPE HTML PUBLIC "-//W3C//DTD HTML 4.0//EN" "http://www.w3.org/TR/REC-html40/strict.dtd">
<html><head><meta name="qrichtext" content="1" /><style type="text/css">
p, li { white-space: pre-wrap; }
</style></head><body style=" font-family:'MS Shell Dlg 2'; font-size:8.25pt; font-weight:400; font-style:normal;">
<p style=" margin-top:0px; margin-bottom:0px; margin-left:0px; margin-right:0px; -qt-block-indent:0; text-indent:0px;"><span style=" color:#e0e0e0;">Title: Meltdown</span></p>
<p style=" margin-top:0px; margin-bottom:0px; margin-left:0px; margin-right:0px; -qt-block-indent:0; text-indent:0px;"><span style=" color:#e0e0e0;">Composer: Martin Gulliksson</span></p>
<p style=" margin-top:0px; margin-bottom:0px; margin-left:0px; margin-right:0px; -qt-block-indent:0; text-indent:0px;"><span style=" color:#e0e0e0;">Year: 2021</span></p>
<p style=" margin-top:0px; margin-bottom:0px; margin-left:0px; margin-right:0px; -qt-block-indent:0; text-indent:0px;"><span style=" color:#e0e0e0;">License: CC BY-SA 4.0</span></p></body></html>]]></projectnotes>
    <timeline lp1pos="192" lp0pos="0" lpstate="0" stopbehaviour="1"/>
    <controllers/>
  </song>
</lmms-project>
