<?xml version="1.0"?>
<!DOCTYPE lmms-project>
<lmms-project type="song" creator="LMMS" creatorversion="1.2.2" version="1.0">
  <head mastervol="100" masterpitch="0">
    <bpm id="24925" value="105" scale_type="linear"/>
    <timesig_numerator id="7824" value="4" scale_type="linear"/>
    <timesig_denominator id="19574" value="4" scale_type="linear"/>
  </head>
  <song>
    <trackcontainer type="song" y="24" visible="1" maximized="1" x="5" height="771" width="1024" minimized="0">
      <track solo="0" type="0" name="Lead" muted="0">
        <instrumenttrack pitch="0" pan="0" vol="100" pitchrange="2" fxch="0" usemasterpitch="1" basenote="57">
          <instrument name="vestige">
            <vestige program="0" plugin="C:/Program Files/VstPlugins/helm64.dll" guivisible="0" chunk="ew0KICAibGljZW5zZSI6ICJQYXRjaCAoYykgYnkgLiAgVGhpcyBwYXRjaCBpcyBsaWNlbnNlZCB1bmRlciBhIENyZWF0aXZlIENvbW1vbnMgQXR0cmlidXRpb24gNC4wIEludGVybmF0aW9uYWwgTGljZW5zZS4gIFlvdSBzaG91bGQgaGF2ZSByZWNlaXZlZCBhIGNvcHkgb2YgdGhlIGxpY2Vuc2UgYWxvbmcgd2l0aCB0aGlzIHdvcmsuICBJZiBub3QsIHNlZSA8aHR0cDovL2NyZWF0aXZlY29tbW9ucy5vcmcvbGljZW5zZXMvYnkvNC4wLz4uIiwNCiAgInN5bnRoX3ZlcnNpb24iOiAiMC45LjAiLA0KICAicGF0Y2hfbmFtZSI6ICIiLA0KICAiZm9sZGVyX25hbWUiOiAiIiwNCiAgImF1dGhvciI6ICIiLA0KICAic2V0dGluZ3MiOiB7DQogICAgImFtcF9hdHRhY2siOiAwLjEwOTU0NTAwMDAwMDAwMDAwMzQ4LA0KICAgICJhbXBfZGVjYXkiOiAyLjU4ODIzNTI5NDExNzY0NzE4OTQsDQogICAgImFtcF9yZWxlYXNlIjogMC4yOTk5OTk5OTk5OTk5OTk5ODg5LA0KICAgICJhbXBfc3VzdGFpbiI6IDAuMzM4MjM1Mjk0MTE3NjQ3MDc4NDIsDQogICAgImFycF9mcmVxdWVuY3kiOiAyLA0KICAgICJhcnBfZ2F0ZSI6IDAuNSwNCiAgICAiYXJwX29jdGF2ZXMiOiAxLA0KICAgICJhcnBfb24iOiAwLA0KICAgICJhcnBfcGF0dGVybiI6IDAsDQogICAgImFycF9zeW5jIjogMSwNCiAgICAiYXJwX3RlbXBvIjogOSwNCiAgICAiYmVhdHNfcGVyX21pbnV0ZSI6IDEuNzUsDQogICAgImNyb3NzX21vZHVsYXRpb24iOiAwLjA4OTk5OTk5OTk5OTk5OTk5NjY2OSwNCiAgICAiY3V0b2ZmIjogMTE2LjY4NzUsDQogICAgImRlbGF5X2RyeV93ZXQiOiAwLjUsDQogICAgImRlbGF5X2ZlZWRiYWNrIjogMC40MDAwMDAwMDAwMDAwMDAwMjIyLA0KICAgICJkZWxheV9mcmVxdWVuY3kiOiAyLA0KICAgICJkZWxheV9vbiI6IDAsDQogICAgImRlbGF5X3N5bmMiOiAxLA0KICAgICJkZWxheV90ZW1wbyI6IDksDQogICAgImRpc3RvcnRpb25fZHJpdmUiOiAwLA0KICAgICJkaXN0b3J0aW9uX21peCI6IDEsDQogICAgImRpc3RvcnRpb25fb24iOiAwLA0KICAgICJkaXN0b3J0aW9uX3R5cGUiOiAwLA0KICAgICJmaWxfYXR0YWNrIjogMCwNCiAgICAiZmlsX2RlY2F5IjogMS41LA0KICAgICJmaWxfZW52X2RlcHRoIjogMCwNCiAgICAiZmlsX3JlbGVhc2UiOiAxLjUsDQogICAgImZpbF9zdXN0YWluIjogMC41LA0KICAgICJmaWx0ZXJfYmxlbmQiOiAwLA0KICAgICJmaWx0ZXJfZHJpdmUiOiAwLA0KICAgICJmaWx0ZXJfb24iOiAxLA0KICAgICJmaWx0ZXJfc2hlbGYiOiAwLA0KICAgICJmaWx0ZXJfc3R5bGUiOiAwLA0KICAgICJmb3JtYW50X29uIjogMCwNCiAgICAiZm9ybWFudF94IjogMC41LA0KICAgICJmb3JtYW50X3kiOiAwLjUsDQogICAgImtleXRyYWNrIjogMCwNCiAgICAibGVnYXRvIjogMCwNCiAgICAibW9kX2F0dGFjayI6IDAsDQogICAgIm1vZF9kZWNheSI6IDEuNSwNCiAgICAibW9kX3JlbGVhc2UiOiAxLjUsDQogICAgIm1vZF9zdXN0YWluIjogMC41LA0KICAgICJtb25vX2xmb18xX2FtcGxpdHVkZSI6IDEsDQogICAgIm1vbm9fbGZvXzFfZnJlcXVlbmN5IjogMSwNCiAgICAibW9ub19sZm9fMV9yZXRyaWdnZXIiOiAyLA0KICAgICJtb25vX2xmb18xX3N5bmMiOiAxLA0KICAgICJtb25vX2xmb18xX3RlbXBvIjogNiwNCiAgICAibW9ub19sZm9fMV93YXZlZm9ybSI6IDAsDQogICAgIm1vbm9fbGZvXzJfYW1wbGl0dWRlIjogMSwNCiAgICAibW9ub19sZm9fMl9mcmVxdWVuY3kiOiAxLA0KICAgICJtb25vX2xmb18yX3JldHJpZ2dlciI6IDIsDQogICAgIm1vbm9fbGZvXzJfc3luYyI6IDEsDQogICAgIm1vbm9fbGZvXzJfdGVtcG8iOiA3LA0KICAgICJtb25vX2xmb18yX3dhdmVmb3JtIjogMCwNCiAgICAibm9pc2Vfdm9sdW1lIjogMCwNCiAgICAibnVtX3N0ZXBzIjogOCwNCiAgICAib3NjXzFfdHJhbnNwb3NlIjogMCwNCiAgICAib3NjXzFfdHVuZSI6IDAsDQogICAgIm9zY18xX3VuaXNvbl9kZXR1bmUiOiA5LjU5OTk5OTk5OTk5OTk5OTY0NDcsDQogICAgIm9zY18xX3VuaXNvbl92b2ljZXMiOiA3LA0KICAgICJvc2NfMV92b2x1bWUiOiAwLjU5Njc3NDE5MzU0ODM4NzEyMTg0LA0KICAgICJvc2NfMV93YXZlZm9ybSI6IDgsDQogICAgIm9zY18yX3RyYW5zcG9zZSI6IDEyLA0KICAgICJvc2NfMl90dW5lIjogMCwNCiAgICAib3NjXzJfdW5pc29uX2RldHVuZSI6IDEwLA0KICAgICJvc2NfMl91bmlzb25fdm9pY2VzIjogNywNCiAgICAib3NjXzJfdm9sdW1lIjogMC4yOTAzMjI1ODA2NDUxNjEyNTQ1MSwNCiAgICAib3NjXzJfd2F2ZWZvcm0iOiA4LA0KICAgICJvc2NfZmVlZGJhY2tfYW1vdW50IjogMCwNCiAgICAib3NjX2ZlZWRiYWNrX3RyYW5zcG9zZSI6IDAsDQogICAgIm9zY19mZWVkYmFja190dW5lIjogMCwNCiAgICAicGl0Y2hfYmVuZF9yYW5nZSI6IDIsDQogICAgInBvbHlfbGZvX2FtcGxpdHVkZSI6IDEsDQogICAgInBvbHlfbGZvX2ZyZXF1ZW5jeSI6IDEsDQogICAgInBvbHlfbGZvX3N5bmMiOiAxLA0KICAgICJwb2x5X2xmb190ZW1wbyI6IDcsDQogICAgInBvbHlfbGZvX3dhdmVmb3JtIjogMCwNCiAgICAicG9seXBob255IjogNCwNCiAgICAicG9ydGFtZW50byI6IC03LA0KICAgICJwb3J0YW1lbnRvX3R5cGUiOiAwLA0KICAgICJyZXNvbmFuY2UiOiAwLA0KICAgICJyZXZlcmJfZGFtcGluZyI6IDAuODAwMDAwMDAwMDAwMDAwMDQ0NDEsDQogICAgInJldmVyYl9kcnlfd2V0IjogMC41LA0KICAgICJyZXZlcmJfZmVlZGJhY2siOiAwLjkwMDAwMDAwMDAwMDAwMDAyMjIsDQogICAgInJldmVyYl9vbiI6IDEsDQogICAgInN0ZXBfZnJlcXVlbmN5IjogMiwNCiAgICAic3RlcF9zZXFfMDAiOiAwLA0KICAgICJzdGVwX3NlcV8wMSI6IDAsDQogICAgInN0ZXBfc2VxXzAyIjogMCwNCiAgICAic3RlcF9zZXFfMDMiOiAwLA0KICAgICJzdGVwX3NlcV8wNCI6IDAsDQogICAgInN0ZXBfc2VxXzA1IjogMCwNCiAgICAic3RlcF9zZXFfMDYiOiAwLA0KICAgICJzdGVwX3NlcV8wNyI6IDAsDQogICAgInN0ZXBfc2VxXzA4IjogMCwNCiAgICAic3RlcF9zZXFfMDkiOiAwLA0KICAgICJzdGVwX3NlcV8xMCI6IDAsDQogICAgInN0ZXBfc2VxXzExIjogMCwNCiAgICAic3RlcF9zZXFfMTIiOiAwLA0KICAgICJzdGVwX3NlcV8xMyI6IDAsDQogICAgInN0ZXBfc2VxXzE0IjogMCwNCiAgICAic3RlcF9zZXFfMTUiOiAwLA0KICAgICJzdGVwX3NlcV8xNiI6IDAsDQogICAgInN0ZXBfc2VxXzE3IjogMCwNCiAgICAic3RlcF9zZXFfMTgiOiAwLA0KICAgICJzdGVwX3NlcV8xOSI6IDAsDQogICAgInN0ZXBfc2VxXzIwIjogMCwNCiAgICAic3RlcF9zZXFfMjEiOiAwLA0KICAgICJzdGVwX3NlcV8yMiI6IDAsDQogICAgInN0ZXBfc2VxXzIzIjogMCwNCiAgICAic3RlcF9zZXFfMjQiOiAwLA0KICAgICJzdGVwX3NlcV8yNSI6IDAsDQogICAgInN0ZXBfc2VxXzI2IjogMCwNCiAgICAic3RlcF9zZXFfMjciOiAwLA0KICAgICJzdGVwX3NlcV8yOCI6IDAsDQogICAgInN0ZXBfc2VxXzI5IjogMCwNCiAgICAic3RlcF9zZXFfMzAiOiAwLA0KICAgICJzdGVwX3NlcV8zMSI6IDAsDQogICAgInN0ZXBfc2VxdWVuY2VyX3JldHJpZ2dlciI6IDIsDQogICAgInN0ZXBfc2VxdWVuY2VyX3N5bmMiOiAxLA0KICAgICJzdGVwX3NlcXVlbmNlcl90ZW1wbyI6IDcsDQogICAgInN0ZXBfc21vb3RoaW5nIjogMCwNCiAgICAic3R1dHRlcl9mcmVxdWVuY3kiOiAzLA0KICAgICJzdHV0dGVyX29uIjogMCwNCiAgICAic3R1dHRlcl9yZXNhbXBsZV9mcmVxdWVuY3kiOiAxLA0KICAgICJzdHV0dGVyX3Jlc2FtcGxlX3N5bmMiOiAxLA0KICAgICJzdHV0dGVyX3Jlc2FtcGxlX3RlbXBvIjogNiwNCiAgICAic3R1dHRlcl9zb2Z0bmVzcyI6IDAuMjAwMDAwMDAwMDAwMDAwMDExMSwNCiAgICAic3R1dHRlcl9zeW5jIjogMSwNCiAgICAic3R1dHRlcl90ZW1wbyI6IDgsDQogICAgInN1Yl9vY3RhdmUiOiAwLA0KICAgICJzdWJfc2h1ZmZsZSI6IDAsDQogICAgInN1Yl92b2x1bWUiOiAwLA0KICAgICJzdWJfd2F2ZWZvcm0iOiAyLA0KICAgICJ1bmlzb25fMV9oYXJtb25pemUiOiAwLA0KICAgICJ1bmlzb25fMl9oYXJtb25pemUiOiAwLA0KICAgICJ2ZWxvY2l0eV90cmFjayI6IDAsDQogICAgInZvbHVtZSI6IDAsDQogICAgIm1vZHVsYXRpb25zIjogWw0KICAgICAgew0KICAgICAgICAic291cmNlIjogInZlbG9jaXR5IiwNCiAgICAgICAgImRlc3RpbmF0aW9uIjogInZvbHVtZSIsDQogICAgICAgICJhbW91bnQiOiAwLjk5OTkyNDA0OTc5NjM1MDUyMjUzDQogICAgICB9DQogICAgXQ0KICB9DQp9AA=="/>
          </instrument>
          <eldata ftype="0" fcut="14000" fwet="0" fres="0.5">
            <elvol sustain="0.5" lpdel="0" userwavefile="" lshp="0" lspd_denominator="4" ctlenvamt="0" lspd_numerator="4" rel="0.1" lspd_syncmode="0" amt="0" dec="0.5" x100="0" lspd="0.1" latt="0" att="0" lamt="0" hold="0.5" pdel="0"/>
            <elcut sustain="0.5" lpdel="0" userwavefile="" lshp="0" lspd_denominator="4" ctlenvamt="0" lspd_numerator="4" rel="0.1" lspd_syncmode="0" amt="0" dec="0.5" x100="0" lspd="0.1" latt="0" att="0" lamt="0" hold="0.5" pdel="0"/>
            <elres sustain="0.5" lpdel="0" userwavefile="" lshp="0" lspd_denominator="4" ctlenvamt="0" lspd_numerator="4" rel="0.1" lspd_syncmode="0" amt="0" dec="0.5" x100="0" lspd="0.1" latt="0" att="0" lamt="0" hold="0.5" pdel="0"/>
          </eldata>
          <chordcreator chord-enabled="0" chord="0" chordrange="1"/>
          <arpeggiator arprange="1" arpskip="0" arptime_numerator="4" arpgate="100" arpmiss="0" arpdir="0" arpmode="0" arp="0" arptime_syncmode="0" arptime="200" arpcycle="0" arptime_denominator="4" arp-enabled="0"/>
          <midiport writable="0" inputcontroller="0" readable="0" inputchannel="0" fixedoutputnote="-1" outputprogram="1" fixedinputvelocity="-1" basevelocity="63" fixedoutputvelocity="-1" outputcontroller="0" outputchannel="1"/>
          <fxchain numofeffects="0" enabled="0"/>
        </instrumenttrack>
        <pattern steps="16" type="1" name="Lead" pos="1536" muted="0">
          <note pan="0" vol="78" key="59" len="36" pos="0"/>
          <note pan="0" vol="78" key="47" len="192" pos="0"/>
          <note pan="0" vol="78" key="59" len="36" pos="36"/>
          <note pan="0" vol="78" key="54" len="36" pos="72"/>
          <note pan="0" vol="78" key="54" len="36" pos="108"/>
          <note pan="0" vol="78" key="52" len="48" pos="144"/>
          <note pan="0" vol="78" key="50" len="24" pos="168"/>
          <note pan="0" vol="78" key="62" len="36" pos="192"/>
          <note pan="0" vol="78" key="50" len="192" pos="192"/>
          <note pan="0" vol="78" key="62" len="36" pos="228"/>
          <note pan="0" vol="78" key="61" len="36" pos="264"/>
          <note pan="0" vol="78" key="61" len="36" pos="300"/>
          <note pan="0" vol="78" key="57" len="48" pos="336"/>
          <note pan="0" vol="78" key="54" len="24" pos="360"/>
          <note pan="0" vol="78" key="59" len="36" pos="384"/>
          <note pan="0" vol="78" key="47" len="192" pos="384"/>
          <note pan="0" vol="78" key="59" len="36" pos="420"/>
          <note pan="0" vol="78" key="54" len="36" pos="456"/>
          <note pan="0" vol="78" key="54" len="36" pos="492"/>
          <note pan="0" vol="78" key="52" len="48" pos="528"/>
          <note pan="0" vol="78" key="50" len="24" pos="552"/>
          <note pan="0" vol="78" key="62" len="36" pos="576"/>
          <note pan="0" vol="78" key="50" len="192" pos="576"/>
          <note pan="0" vol="78" key="62" len="36" pos="612"/>
          <note pan="0" vol="78" key="64" len="36" pos="648"/>
          <note pan="0" vol="78" key="64" len="36" pos="684"/>
          <note pan="0" vol="78" key="61" len="48" pos="720"/>
          <note pan="0" vol="78" key="57" len="24" pos="744"/>
          <note pan="0" vol="78" key="62" len="36" pos="768"/>
          <note pan="0" vol="78" key="50" len="192" pos="768"/>
          <note pan="0" vol="78" key="62" len="36" pos="804"/>
          <note pan="0" vol="78" key="61" len="36" pos="840"/>
          <note pan="0" vol="78" key="61" len="36" pos="876"/>
          <note pan="0" vol="78" key="57" len="48" pos="912"/>
          <note pan="0" vol="78" key="54" len="24" pos="936"/>
          <note pan="0" vol="78" key="64" len="36" pos="960"/>
          <note pan="0" vol="78" key="52" len="192" pos="960"/>
          <note pan="0" vol="78" key="64" len="36" pos="996"/>
          <note pan="0" vol="78" key="66" len="36" pos="1032"/>
          <note pan="0" vol="78" key="66" len="36" pos="1068"/>
          <note pan="0" vol="78" key="64" len="48" pos="1104"/>
          <note pan="0" vol="78" key="61" len="24" pos="1128"/>
          <note pan="0" vol="78" key="64" len="36" pos="1152"/>
          <note pan="0" vol="78" key="54" len="192" pos="1152"/>
          <note pan="0" vol="78" key="64" len="36" pos="1188"/>
          <note pan="0" vol="78" key="66" len="36" pos="1224"/>
          <note pan="0" vol="78" key="66" len="36" pos="1260"/>
          <note pan="0" vol="78" key="64" len="48" pos="1296"/>
          <note pan="0" vol="78" key="62" len="24" pos="1320"/>
          <note pan="0" vol="78" key="66" len="36" pos="1344"/>
          <note pan="0" vol="78" key="55" len="192" pos="1344"/>
          <note pan="0" vol="78" key="66" len="36" pos="1380"/>
          <note pan="0" vol="78" key="62" len="36" pos="1416"/>
          <note pan="0" vol="78" key="62" len="36" pos="1452"/>
          <note pan="0" vol="78" key="61" len="48" pos="1488"/>
          <note pan="0" vol="78" key="57" len="24" pos="1512"/>
          <note pan="0" vol="78" key="59" len="36" pos="1536"/>
          <note pan="0" vol="78" key="47" len="192" pos="1536"/>
          <note pan="0" vol="78" key="59" len="36" pos="1572"/>
          <note pan="0" vol="78" key="54" len="36" pos="1608"/>
          <note pan="0" vol="78" key="54" len="36" pos="1644"/>
          <note pan="0" vol="78" key="52" len="48" pos="1680"/>
          <note pan="0" vol="78" key="50" len="24" pos="1704"/>
          <note pan="0" vol="78" key="62" len="36" pos="1728"/>
          <note pan="0" vol="78" key="50" len="192" pos="1728"/>
          <note pan="0" vol="78" key="62" len="36" pos="1764"/>
          <note pan="0" vol="78" key="61" len="36" pos="1800"/>
          <note pan="0" vol="78" key="61" len="36" pos="1836"/>
          <note pan="0" vol="78" key="57" len="48" pos="1872"/>
          <note pan="0" vol="78" key="54" len="24" pos="1896"/>
          <note pan="0" vol="78" key="59" len="36" pos="1920"/>
          <note pan="0" vol="78" key="47" len="192" pos="1920"/>
          <note pan="0" vol="78" key="59" len="36" pos="1956"/>
          <note pan="0" vol="78" key="54" len="36" pos="1992"/>
          <note pan="0" vol="78" key="54" len="36" pos="2028"/>
          <note pan="0" vol="78" key="52" len="48" pos="2064"/>
          <note pan="0" vol="78" key="50" len="24" pos="2088"/>
          <note pan="0" vol="78" key="62" len="36" pos="2112"/>
          <note pan="0" vol="78" key="50" len="192" pos="2112"/>
          <note pan="0" vol="78" key="62" len="36" pos="2148"/>
          <note pan="0" vol="78" key="64" len="36" pos="2184"/>
          <note pan="0" vol="78" key="64" len="36" pos="2220"/>
          <note pan="0" vol="78" key="61" len="48" pos="2256"/>
          <note pan="0" vol="78" key="57" len="24" pos="2280"/>
          <note pan="0" vol="78" key="62" len="36" pos="2304"/>
          <note pan="0" vol="78" key="50" len="192" pos="2304"/>
          <note pan="0" vol="78" key="62" len="36" pos="2340"/>
          <note pan="0" vol="78" key="61" len="36" pos="2376"/>
          <note pan="0" vol="78" key="61" len="36" pos="2412"/>
          <note pan="0" vol="78" key="57" len="48" pos="2448"/>
          <note pan="0" vol="78" key="54" len="24" pos="2472"/>
          <note pan="0" vol="78" key="64" len="36" pos="2496"/>
          <note pan="0" vol="78" key="52" len="192" pos="2496"/>
          <note pan="0" vol="78" key="64" len="36" pos="2532"/>
          <note pan="0" vol="78" key="66" len="36" pos="2568"/>
          <note pan="0" vol="78" key="66" len="36" pos="2604"/>
          <note pan="0" vol="78" key="64" len="48" pos="2640"/>
          <note pan="0" vol="78" key="61" len="24" pos="2664"/>
          <note pan="0" vol="78" key="64" len="36" pos="2688"/>
          <note pan="0" vol="78" key="54" len="192" pos="2688"/>
          <note pan="0" vol="78" key="64" len="36" pos="2724"/>
          <note pan="0" vol="78" key="66" len="36" pos="2760"/>
          <note pan="0" vol="78" key="66" len="36" pos="2796"/>
          <note pan="0" vol="78" key="64" len="48" pos="2832"/>
          <note pan="0" vol="78" key="62" len="24" pos="2856"/>
          <note pan="0" vol="78" key="66" len="36" pos="2880"/>
          <note pan="0" vol="78" key="55" len="192" pos="2880"/>
          <note pan="0" vol="78" key="66" len="36" pos="2916"/>
          <note pan="0" vol="78" key="64" len="36" pos="2952"/>
          <note pan="0" vol="78" key="64" len="36" pos="2988"/>
          <note pan="0" vol="78" key="67" len="48" pos="3024"/>
          <note pan="0" vol="78" key="64" len="24" pos="3048"/>
          <note pan="0" vol="85" key="66" len="384" pos="3072"/>
          <note pan="0" vol="85" key="54" len="384" pos="3072"/>
        </pattern>
        <pattern steps="16" type="1" name="Lead" pos="6144" muted="0">
          <note pan="0" vol="72" key="47" len="24" pos="0"/>
          <note pan="0" vol="72" key="47" len="12" pos="24"/>
          <note pan="0" vol="72" key="47" len="24" pos="36"/>
          <note pan="0" vol="72" key="47" len="12" pos="60"/>
          <note pan="0" vol="72" key="47" len="24" pos="72"/>
          <note pan="0" vol="72" key="47" len="12" pos="96"/>
          <note pan="0" vol="72" key="47" len="24" pos="108"/>
          <note pan="0" vol="72" key="47" len="12" pos="132"/>
          <note pan="0" vol="72" key="45" len="12" pos="144"/>
          <note pan="0" vol="72" key="45" len="12" pos="156"/>
          <note pan="0" vol="72" key="47" len="12" pos="168"/>
          <note pan="0" vol="72" key="45" len="12" pos="180"/>
          <note pan="0" vol="72" key="50" len="24" pos="192"/>
          <note pan="0" vol="72" key="50" len="12" pos="216"/>
          <note pan="0" vol="72" key="50" len="24" pos="228"/>
          <note pan="0" vol="72" key="50" len="12" pos="252"/>
          <note pan="0" vol="72" key="50" len="24" pos="264"/>
          <note pan="0" vol="72" key="50" len="12" pos="288"/>
          <note pan="0" vol="72" key="50" len="24" pos="300"/>
          <note pan="0" vol="72" key="50" len="12" pos="324"/>
          <note pan="0" vol="72" key="49" len="12" pos="336"/>
          <note pan="0" vol="72" key="49" len="12" pos="348"/>
          <note pan="0" vol="72" key="50" len="12" pos="360"/>
          <note pan="0" vol="72" key="47" len="12" pos="372"/>
          <note pan="0" vol="72" key="49" len="24" pos="384"/>
          <note pan="0" vol="72" key="49" len="12" pos="408"/>
          <note pan="0" vol="72" key="49" len="24" pos="420"/>
          <note pan="0" vol="72" key="49" len="12" pos="444"/>
          <note pan="0" vol="72" key="49" len="24" pos="456"/>
          <note pan="0" vol="72" key="49" len="12" pos="480"/>
          <note pan="0" vol="72" key="49" len="24" pos="492"/>
          <note pan="0" vol="72" key="49" len="12" pos="516"/>
          <note pan="0" vol="72" key="49" len="12" pos="528"/>
          <note pan="0" vol="72" key="49" len="12" pos="540"/>
          <note pan="0" vol="72" key="42" len="12" pos="552"/>
          <note pan="0" vol="72" key="42" len="12" pos="564"/>
          <note pan="0" vol="80" key="47" len="24" pos="576"/>
          <note pan="0" vol="80" key="47" len="12" pos="600"/>
          <note pan="0" vol="80" key="45" len="24" pos="612"/>
          <note pan="0" vol="80" key="45" len="12" pos="636"/>
          <note pan="0" vol="80" key="47" len="24" pos="648"/>
          <note pan="0" vol="80" key="47" len="12" pos="672"/>
          <note pan="0" vol="80" key="45" len="24" pos="684"/>
          <note pan="0" vol="80" key="45" len="12" pos="708"/>
          <note pan="0" vol="71" key="42" len="12" pos="720"/>
          <note pan="0" vol="71" key="42" len="12" pos="732"/>
          <note pan="0" vol="72" key="50" len="12" pos="744"/>
          <note pan="0" vol="72" key="49" len="12" pos="756"/>
          <note pan="0" vol="72" key="47" len="24" pos="768"/>
          <note pan="0" vol="72" key="47" len="12" pos="792"/>
          <note pan="0" vol="72" key="45" len="24" pos="804"/>
          <note pan="0" vol="72" key="45" len="12" pos="828"/>
          <note pan="0" vol="72" key="47" len="24" pos="840"/>
          <note pan="0" vol="72" key="47" len="12" pos="864"/>
          <note pan="0" vol="72" key="45" len="24" pos="876"/>
          <note pan="0" vol="72" key="45" len="12" pos="900"/>
          <note pan="0" vol="72" key="42" len="12" pos="912"/>
          <note pan="0" vol="72" key="42" len="12" pos="924"/>
          <note pan="0" vol="72" key="50" len="12" pos="936"/>
          <note pan="0" vol="72" key="49" len="12" pos="948"/>
          <note pan="0" vol="72" key="50" len="24" pos="960"/>
          <note pan="0" vol="72" key="50" len="12" pos="984"/>
          <note pan="0" vol="72" key="50" len="24" pos="996"/>
          <note pan="0" vol="72" key="50" len="12" pos="1020"/>
          <note pan="0" vol="72" key="50" len="24" pos="1032"/>
          <note pan="0" vol="72" key="50" len="12" pos="1056"/>
          <note pan="0" vol="72" key="50" len="24" pos="1068"/>
          <note pan="0" vol="72" key="50" len="12" pos="1092"/>
          <note pan="0" vol="72" key="47" len="12" pos="1104"/>
          <note pan="0" vol="72" key="47" len="12" pos="1116"/>
          <note pan="0" vol="72" key="52" len="12" pos="1128"/>
          <note pan="0" vol="72" key="50" len="12" pos="1140"/>
          <note pan="0" vol="72" key="49" len="24" pos="1152"/>
          <note pan="0" vol="72" key="49" len="12" pos="1176"/>
          <note pan="0" vol="72" key="45" len="24" pos="1188"/>
          <note pan="0" vol="72" key="45" len="12" pos="1212"/>
          <note pan="0" vol="72" key="49" len="24" pos="1224"/>
          <note pan="0" vol="72" key="49" len="12" pos="1248"/>
          <note pan="0" vol="72" key="45" len="24" pos="1260"/>
          <note pan="0" vol="72" key="45" len="12" pos="1284"/>
          <note pan="0" vol="72" key="42" len="12" pos="1296"/>
          <note pan="0" vol="72" key="42" len="12" pos="1308"/>
          <note pan="0" vol="72" key="45" len="12" pos="1320"/>
          <note pan="0" vol="72" key="45" len="12" pos="1332"/>
          <note pan="0" vol="81" key="47" len="24" pos="1344"/>
          <note pan="0" vol="81" key="47" len="12" pos="1368"/>
          <note pan="0" vol="81" key="45" len="24" pos="1380"/>
          <note pan="0" vol="81" key="45" len="12" pos="1404"/>
          <note pan="0" vol="81" key="47" len="24" pos="1416"/>
          <note pan="0" vol="81" key="47" len="12" pos="1440"/>
          <note pan="0" vol="81" key="45" len="24" pos="1452"/>
          <note pan="0" vol="81" key="45" len="12" pos="1476"/>
          <note pan="0" vol="72" key="42" len="12" pos="1488"/>
          <note pan="0" vol="72" key="42" len="12" pos="1500"/>
          <note pan="0" vol="72" key="49" len="12" pos="1512"/>
          <note pan="0" vol="72" key="50" len="12" pos="1524"/>
          <note pan="0" vol="72" key="59" len="36" pos="1536"/>
          <note pan="0" vol="72" key="47" len="192" pos="1536"/>
          <note pan="0" vol="72" key="57" len="12" pos="1572"/>
          <note pan="0" vol="72" key="57" len="12" pos="1584"/>
          <note pan="0" vol="72" key="62" len="12" pos="1596"/>
          <note pan="0" vol="72" key="61" len="120" pos="1608"/>
          <note pan="0" vol="72" key="57" len="48" pos="1656"/>
          <note pan="0" vol="72" key="54" len="48" pos="1680"/>
          <note pan="0" vol="72" key="57" len="12" pos="1704"/>
          <note pan="0" vol="72" key="57" len="12" pos="1716"/>
          <note pan="0" vol="71" key="62" len="12" pos="1728"/>
          <note pan="0" vol="71" key="50" len="192" pos="1728"/>
          <note pan="0" vol="70" key="62" len="12" pos="1740"/>
          <note pan="0" vol="72" key="64" len="12" pos="1752"/>
          <note pan="0" vol="70" key="64" len="12" pos="1764"/>
          <note pan="0" vol="72" key="62" len="12" pos="1776"/>
          <note pan="0" vol="70" key="62" len="12" pos="1788"/>
          <note pan="0" vol="72" key="61" len="12" pos="1800"/>
          <note pan="0" vol="70" key="61" len="12" pos="1812"/>
          <note pan="0" vol="72" key="62" len="12" pos="1824"/>
          <note pan="0" vol="70" key="62" len="12" pos="1836"/>
          <note pan="0" vol="72" key="61" len="12" pos="1848"/>
          <note pan="0" vol="70" key="61" len="12" pos="1860"/>
          <note pan="0" vol="72" key="59" len="12" pos="1872"/>
          <note pan="0" vol="70" key="59" len="12" pos="1884"/>
          <note pan="0" vol="72" key="57" len="12" pos="1896"/>
          <note pan="0" vol="70" key="57" len="12" pos="1908"/>
          <note pan="0" vol="72" key="66" len="12" pos="1920"/>
          <note pan="0" vol="72" key="54" len="192" pos="1920"/>
          <note pan="0" vol="70" key="66" len="12" pos="1932"/>
          <note pan="0" vol="72" key="64" len="12" pos="1944"/>
          <note pan="0" vol="70" key="64" len="12" pos="1956"/>
          <note pan="0" vol="72" key="66" len="12" pos="1968"/>
          <note pan="0" vol="70" key="66" len="12" pos="1980"/>
          <note pan="0" vol="72" key="64" len="12" pos="1992"/>
          <note pan="0" vol="70" key="64" len="12" pos="2004"/>
          <note pan="0" vol="72" key="66" len="12" pos="2016"/>
          <note pan="0" vol="70" key="66" len="12" pos="2028"/>
          <note pan="0" vol="72" key="64" len="12" pos="2040"/>
          <note pan="0" vol="70" key="64" len="12" pos="2052"/>
          <note pan="0" vol="72" key="66" len="12" pos="2064"/>
          <note pan="0" vol="70" key="66" len="12" pos="2076"/>
          <note pan="0" vol="72" key="62" len="12" pos="2088"/>
          <note pan="0" vol="70" key="62" len="12" pos="2100"/>
          <note pan="0" vol="72" key="64" len="12" pos="2112"/>
          <note pan="0" vol="72" key="52" len="192" pos="2112"/>
          <note pan="0" vol="70" key="64" len="12" pos="2124"/>
          <note pan="0" vol="72" key="62" len="12" pos="2136"/>
          <note pan="0" vol="70" key="62" len="12" pos="2148"/>
          <note pan="0" vol="72" key="64" len="12" pos="2160"/>
          <note pan="0" vol="70" key="64" len="12" pos="2172"/>
          <note pan="0" vol="72" key="62" len="12" pos="2184"/>
          <note pan="0" vol="70" key="62" len="12" pos="2196"/>
          <note pan="0" vol="72" key="64" len="12" pos="2208"/>
          <note pan="0" vol="70" key="64" len="12" pos="2220"/>
          <note pan="0" vol="72" key="62" len="12" pos="2232"/>
          <note pan="0" vol="70" key="62" len="12" pos="2244"/>
          <note pan="0" vol="72" key="59" len="12" pos="2256"/>
          <note pan="0" vol="70" key="59" len="12" pos="2268"/>
          <note pan="0" vol="72" key="57" len="12" pos="2280"/>
          <note pan="0" vol="70" key="57" len="12" pos="2292"/>
          <note pan="0" vol="72" key="59" len="36" pos="2304"/>
          <note pan="0" vol="72" key="47" len="192" pos="2304"/>
          <note pan="0" vol="72" key="57" len="12" pos="2340"/>
          <note pan="0" vol="72" key="57" len="12" pos="2352"/>
          <note pan="0" vol="72" key="62" len="12" pos="2364"/>
          <note pan="0" vol="72" key="61" len="120" pos="2376"/>
          <note pan="0" vol="72" key="62" len="48" pos="2424"/>
          <note pan="0" vol="72" key="59" len="48" pos="2448"/>
          <note pan="0" vol="72" key="62" len="12" pos="2472"/>
          <note pan="0" vol="72" key="62" len="12" pos="2484"/>
          <note pan="0" vol="72" key="59" len="12" pos="2496"/>
          <note pan="0" vol="72" key="50" len="192" pos="2496"/>
          <note pan="0" vol="70" key="59" len="12" pos="2508"/>
          <note pan="0" vol="72" key="64" len="12" pos="2520"/>
          <note pan="0" vol="70" key="64" len="12" pos="2532"/>
          <note pan="0" vol="72" key="59" len="12" pos="2544"/>
          <note pan="0" vol="70" key="59" len="12" pos="2556"/>
          <note pan="0" vol="72" key="64" len="12" pos="2568"/>
          <note pan="0" vol="70" key="64" len="12" pos="2580"/>
          <note pan="0" vol="72" key="59" len="12" pos="2592"/>
          <note pan="0" vol="70" key="59" len="12" pos="2604"/>
          <note pan="0" vol="72" key="66" len="12" pos="2616"/>
          <note pan="0" vol="70" key="66" len="12" pos="2628"/>
          <note pan="0" vol="72" key="59" len="12" pos="2640"/>
          <note pan="0" vol="72" key="59" len="12" pos="2652"/>
          <note pan="0" vol="72" key="66" len="12" pos="2664"/>
          <note pan="0" vol="70" key="66" len="12" pos="2676"/>
          <note pan="0" vol="72" key="59" len="12" pos="2688"/>
          <note pan="0" vol="72" key="55" len="12" pos="2688"/>
          <note pan="0" vol="62" key="59" len="12" pos="2700"/>
          <note pan="0" vol="71" key="55" len="36" pos="2700"/>
          <note pan="0" vol="72" key="67" len="12" pos="2712"/>
          <note pan="0" vol="70" key="67" len="36" pos="2724"/>
          <note pan="0" vol="72" key="55" len="12" pos="2736"/>
          <note pan="0" vol="67" key="55" len="36" pos="2748"/>
          <note pan="0" vol="72" key="67" len="12" pos="2760"/>
          <note pan="0" vol="70" key="67" len="36" pos="2772"/>
          <note pan="0" vol="72" key="55" len="12" pos="2784"/>
          <note pan="0" vol="67" key="55" len="36" pos="2796"/>
          <note pan="0" vol="72" key="67" len="12" pos="2808"/>
          <note pan="0" vol="70" key="67" len="36" pos="2820"/>
          <note pan="0" vol="72" key="55" len="12" pos="2832"/>
          <note pan="0" vol="67" key="55" len="36" pos="2844"/>
          <note pan="0" vol="72" key="67" len="12" pos="2856"/>
          <note pan="0" vol="71" key="67" len="36" pos="2868"/>
          <note pan="0" vol="72" key="54" len="12" pos="2880"/>
          <note pan="0" vol="70" key="54" len="36" pos="2892"/>
          <note pan="0" vol="72" key="66" len="12" pos="2904"/>
          <note pan="0" vol="70" key="66" len="36" pos="2916"/>
          <note pan="0" vol="72" key="54" len="12" pos="2928"/>
          <note pan="0" vol="70" key="54" len="36" pos="2940"/>
          <note pan="0" vol="72" key="66" len="12" pos="2952"/>
          <note pan="0" vol="70" key="66" len="36" pos="2964"/>
          <note pan="0" vol="72" key="54" len="12" pos="2976"/>
          <note pan="0" vol="70" key="54" len="36" pos="2988"/>
          <note pan="0" vol="72" key="62" len="48" pos="3000"/>
          <note pan="0" vol="72" key="50" len="24" pos="3024"/>
          <note pan="0" vol="72" key="61" len="24" pos="3048"/>
          <note pan="0" vol="72" key="49" len="24" pos="3048"/>
          <note pan="0" vol="72" key="59" len="35" pos="3072"/>
          <note pan="0" vol="72" key="47" len="192" pos="3072"/>
          <note pan="0" vol="72" key="57" len="12" pos="3108"/>
          <note pan="0" vol="72" key="57" len="12" pos="3120"/>
          <note pan="0" vol="72" key="62" len="12" pos="3132"/>
          <note pan="0" vol="72" key="61" len="120" pos="3144"/>
          <note pan="0" vol="72" key="57" len="48" pos="3192"/>
          <note pan="0" vol="72" key="54" len="48" pos="3216"/>
          <note pan="0" vol="72" key="57" len="12" pos="3240"/>
          <note pan="0" vol="72" key="57" len="12" pos="3252"/>
          <note pan="0" vol="72" key="62" len="12" pos="3264"/>
          <note pan="0" vol="72" key="50" len="192" pos="3264"/>
          <note pan="0" vol="70" key="62" len="12" pos="3276"/>
          <note pan="0" vol="72" key="64" len="12" pos="3288"/>
          <note pan="0" vol="70" key="64" len="12" pos="3300"/>
          <note pan="0" vol="72" key="62" len="12" pos="3312"/>
          <note pan="0" vol="70" key="62" len="12" pos="3324"/>
          <note pan="0" vol="72" key="61" len="12" pos="3336"/>
          <note pan="0" vol="70" key="61" len="12" pos="3348"/>
          <note pan="0" vol="72" key="62" len="12" pos="3360"/>
          <note pan="0" vol="69" key="62" len="12" pos="3372"/>
          <note pan="0" vol="72" key="61" len="12" pos="3384"/>
          <note pan="0" vol="70" key="61" len="12" pos="3396"/>
          <note pan="0" vol="72" key="59" len="12" pos="3408"/>
          <note pan="0" vol="70" key="59" len="12" pos="3420"/>
          <note pan="0" vol="72" key="57" len="12" pos="3432"/>
          <note pan="0" vol="70" key="57" len="12" pos="3444"/>
          <note pan="0" vol="72" key="66" len="12" pos="3456"/>
          <note pan="0" vol="72" key="54" len="192" pos="3456"/>
          <note pan="0" vol="70" key="66" len="12" pos="3468"/>
          <note pan="0" vol="72" key="64" len="12" pos="3480"/>
          <note pan="0" vol="70" key="64" len="12" pos="3492"/>
          <note pan="0" vol="72" key="66" len="12" pos="3504"/>
          <note pan="0" vol="70" key="66" len="12" pos="3516"/>
          <note pan="0" vol="72" key="64" len="12" pos="3528"/>
          <note pan="0" vol="70" key="64" len="12" pos="3540"/>
          <note pan="0" vol="72" key="66" len="12" pos="3552"/>
          <note pan="0" vol="70" key="66" len="12" pos="3564"/>
          <note pan="0" vol="72" key="64" len="12" pos="3576"/>
          <note pan="0" vol="70" key="64" len="12" pos="3588"/>
          <note pan="0" vol="72" key="66" len="12" pos="3600"/>
          <note pan="0" vol="70" key="66" len="12" pos="3612"/>
          <note pan="0" vol="72" key="67" len="12" pos="3624"/>
          <note pan="0" vol="70" key="67" len="12" pos="3636"/>
          <note pan="0" vol="72" key="64" len="12" pos="3648"/>
          <note pan="0" vol="72" key="52" len="192" pos="3648"/>
          <note pan="0" vol="70" key="64" len="12" pos="3660"/>
          <note pan="0" vol="72" key="62" len="12" pos="3672"/>
          <note pan="0" vol="70" key="62" len="12" pos="3684"/>
          <note pan="0" vol="72" key="64" len="12" pos="3696"/>
          <note pan="0" vol="70" key="64" len="12" pos="3708"/>
          <note pan="0" vol="72" key="62" len="12" pos="3720"/>
          <note pan="0" vol="70" key="62" len="12" pos="3732"/>
          <note pan="0" vol="72" key="64" len="12" pos="3744"/>
          <note pan="0" vol="70" key="64" len="12" pos="3756"/>
          <note pan="0" vol="72" key="62" len="12" pos="3768"/>
          <note pan="0" vol="70" key="62" len="12" pos="3780"/>
          <note pan="0" vol="72" key="59" len="12" pos="3792"/>
          <note pan="0" vol="71" key="59" len="12" pos="3804"/>
          <note pan="0" vol="72" key="57" len="12" pos="3816"/>
          <note pan="0" vol="70" key="57" len="12" pos="3828"/>
          <note pan="0" vol="72" key="59" len="35" pos="3840"/>
          <note pan="0" vol="72" key="47" len="192" pos="3840"/>
          <note pan="0" vol="72" key="57" len="12" pos="3876"/>
          <note pan="0" vol="72" key="57" len="12" pos="3888"/>
          <note pan="0" vol="72" key="62" len="12" pos="3900"/>
          <note pan="0" vol="72" key="61" len="120" pos="3912"/>
          <note pan="0" vol="72" key="62" len="48" pos="3960"/>
          <note pan="0" vol="72" key="59" len="48" pos="3984"/>
          <note pan="0" vol="72" key="62" len="12" pos="4008"/>
          <note pan="0" vol="72" key="62" len="12" pos="4020"/>
          <note pan="0" vol="72" key="59" len="12" pos="4032"/>
          <note pan="0" vol="72" key="50" len="192" pos="4032"/>
          <note pan="0" vol="70" key="59" len="12" pos="4044"/>
          <note pan="0" vol="72" key="64" len="12" pos="4056"/>
          <note pan="0" vol="70" key="64" len="12" pos="4068"/>
          <note pan="0" vol="72" key="59" len="12" pos="4080"/>
          <note pan="0" vol="70" key="59" len="12" pos="4092"/>
          <note pan="0" vol="72" key="64" len="12" pos="4104"/>
          <note pan="0" vol="70" key="64" len="12" pos="4116"/>
          <note pan="0" vol="72" key="59" len="12" pos="4128"/>
          <note pan="0" vol="70" key="59" len="12" pos="4140"/>
          <note pan="0" vol="72" key="66" len="12" pos="4152"/>
          <note pan="0" vol="70" key="66" len="12" pos="4164"/>
          <note pan="0" vol="72" key="59" len="12" pos="4176"/>
          <note pan="0" vol="70" key="59" len="12" pos="4188"/>
          <note pan="0" vol="72" key="66" len="12" pos="4200"/>
          <note pan="0" vol="70" key="66" len="12" pos="4212"/>
          <note pan="0" vol="72" key="59" len="12" pos="4224"/>
          <note pan="0" vol="72" key="55" len="12" pos="4224"/>
          <note pan="0" vol="62" key="59" len="12" pos="4236"/>
          <note pan="0" vol="71" key="55" len="36" pos="4236"/>
          <note pan="0" vol="72" key="67" len="12" pos="4248"/>
          <note pan="0" vol="70" key="67" len="36" pos="4260"/>
          <note pan="0" vol="72" key="55" len="12" pos="4272"/>
          <note pan="0" vol="67" key="55" len="36" pos="4284"/>
          <note pan="0" vol="72" key="67" len="12" pos="4296"/>
          <note pan="0" vol="70" key="67" len="36" pos="4308"/>
          <note pan="0" vol="72" key="55" len="12" pos="4320"/>
          <note pan="0" vol="70" key="55" len="36" pos="4332"/>
          <note pan="0" vol="72" key="67" len="12" pos="4344"/>
          <note pan="0" vol="70" key="67" len="36" pos="4356"/>
          <note pan="0" vol="72" key="55" len="12" pos="4368"/>
          <note pan="0" vol="70" key="55" len="36" pos="4380"/>
          <note pan="0" vol="72" key="67" len="12" pos="4392"/>
          <note pan="0" vol="70" key="67" len="36" pos="4404"/>
          <note pan="0" vol="72" key="54" len="12" pos="4416"/>
          <note pan="0" vol="70" key="54" len="36" pos="4428"/>
          <note pan="0" vol="72" key="66" len="12" pos="4440"/>
          <note pan="0" vol="70" key="66" len="36" pos="4452"/>
          <note pan="0" vol="72" key="54" len="12" pos="4464"/>
          <note pan="0" vol="70" key="54" len="36" pos="4476"/>
          <note pan="0" vol="72" key="66" len="12" pos="4488"/>
          <note pan="0" vol="70" key="66" len="36" pos="4500"/>
          <note pan="0" vol="72" key="54" len="12" pos="4512"/>
          <note pan="0" vol="70" key="54" len="36" pos="4524"/>
          <note pan="0" vol="72" key="67" len="48" pos="4536"/>
          <note pan="0" vol="72" key="47" len="24" pos="4536"/>
          <note pan="0" vol="72" key="50" len="24" pos="4560"/>
          <note pan="0" vol="72" key="66" len="24" pos="4584"/>
          <note pan="0" vol="72" key="49" len="24" pos="4584"/>
          <note pan="0" vol="78" key="59" len="36" pos="4608"/>
          <note pan="0" vol="78" key="47" len="192" pos="4608"/>
          <note pan="0" vol="78" key="59" len="156" pos="4644"/>
          <note pan="0" vol="78" key="54" len="36" pos="4680"/>
          <note pan="0" vol="78" key="54" len="84" pos="4716"/>
          <note pan="0" vol="78" key="52" len="48" pos="4752"/>
          <note pan="0" vol="78" key="62" len="36" pos="4800"/>
          <note pan="0" vol="78" key="50" len="192" pos="4800"/>
          <note pan="0" vol="78" key="62" len="156" pos="4836"/>
          <note pan="0" vol="78" key="61" len="36" pos="4872"/>
          <note pan="0" vol="78" key="61" len="84" pos="4908"/>
          <note pan="0" vol="78" key="57" len="48" pos="4944"/>
          <note pan="0" vol="78" key="54" len="24" pos="4968"/>
          <note pan="0" vol="78" key="59" len="36" pos="4992"/>
          <note pan="0" vol="78" key="47" len="192" pos="4992"/>
          <note pan="0" vol="78" key="59" len="156" pos="5028"/>
          <note pan="0" vol="78" key="54" len="36" pos="5064"/>
          <note pan="0" vol="78" key="54" len="84" pos="5100"/>
          <note pan="0" vol="78" key="52" len="48" pos="5136"/>
          <note pan="0" vol="78" key="62" len="36" pos="5184"/>
          <note pan="0" vol="78" key="50" len="192" pos="5184"/>
          <note pan="0" vol="78" key="62" len="156" pos="5220"/>
          <note pan="0" vol="78" key="64" len="36" pos="5256"/>
          <note pan="0" vol="78" key="64" len="36" pos="5292"/>
          <note pan="0" vol="78" key="66" len="24" pos="5328"/>
          <note pan="0" vol="78" key="64" len="24" pos="5352"/>
          <note pan="0" vol="78" key="66" len="36" pos="5376"/>
          <note pan="0" vol="78" key="59" len="192" pos="5376"/>
          <note pan="0" vol="78" key="66" len="36" pos="5412"/>
          <note pan="0" vol="78" key="66" len="36" pos="5448"/>
          <note pan="0" vol="78" key="66" len="36" pos="5484"/>
          <note pan="0" vol="78" key="66" len="24" pos="5520"/>
          <note pan="0" vol="78" key="66" len="24" pos="5544"/>
          <note pan="0" vol="78" key="64" len="12" pos="5556"/>
          <note pan="0" vol="78" key="66" len="36" pos="5568"/>
          <note pan="0" vol="78" key="59" len="192" pos="5568"/>
          <note pan="0" vol="78" key="66" len="36" pos="5604"/>
          <note pan="0" vol="78" key="66" len="36" pos="5640"/>
          <note pan="0" vol="78" key="66" len="36" pos="5676"/>
          <note pan="0" vol="78" key="66" len="48" pos="5712"/>
          <note pan="0" vol="78" key="62" len="24" pos="5736"/>
          <note pan="0" vol="78" key="64" len="36" pos="5760"/>
          <note pan="0" vol="78" key="59" len="192" pos="5760"/>
          <note pan="0" vol="78" key="64" len="36" pos="5796"/>
          <note pan="0" vol="78" key="64" len="36" pos="5832"/>
          <note pan="0" vol="78" key="64" len="36" pos="5868"/>
          <note pan="0" vol="78" key="64" len="48" pos="5904"/>
          <note pan="0" vol="78" key="62" len="24" pos="5928"/>
          <note pan="0" vol="78" key="64" len="36" pos="5952"/>
          <note pan="0" vol="78" key="59" len="192" pos="5952"/>
          <note pan="0" vol="78" key="64" len="36" pos="5988"/>
          <note pan="0" vol="78" key="64" len="36" pos="6024"/>
          <note pan="0" vol="78" key="64" len="36" pos="6060"/>
          <note pan="0" vol="78" key="64" len="24" pos="6096"/>
          <note pan="0" vol="78" key="57" len="24" pos="6120"/>
          <note pan="0" vol="84" key="59" len="384" pos="6144"/>
          <note pan="0" vol="84" key="47" len="384" pos="6144"/>
        </pattern>
      </track>
      <track solo="0" type="0" name="BG1" muted="0">
        <instrumenttrack pitch="0" pan="-25" vol="66.8" pitchrange="2" fxch="0" usemasterpitch="1" basenote="57">
          <instrument name="vestige">
            <vestige program="0" plugin="C:/Program Files/VstPlugins/helm64.dll" guivisible="0" chunk="ew0KICAibGljZW5zZSI6ICJQYXRjaCAoYykgYnkgLiAgVGhpcyBwYXRjaCBpcyBsaWNlbnNlZCB1bmRlciBhIENyZWF0aXZlIENvbW1vbnMgQXR0cmlidXRpb24gNC4wIEludGVybmF0aW9uYWwgTGljZW5zZS4gIFlvdSBzaG91bGQgaGF2ZSByZWNlaXZlZCBhIGNvcHkgb2YgdGhlIGxpY2Vuc2UgYWxvbmcgd2l0aCB0aGlzIHdvcmsuICBJZiBub3QsIHNlZSA8aHR0cDovL2NyZWF0aXZlY29tbW9ucy5vcmcvbGljZW5zZXMvYnkvNC4wLz4uIiwNCiAgInN5bnRoX3ZlcnNpb24iOiAiMC45LjAiLA0KICAicGF0Y2hfbmFtZSI6ICIiLA0KICAiZm9sZGVyX25hbWUiOiAiIiwNCiAgImF1dGhvciI6ICIiLA0KICAic2V0dGluZ3MiOiB7DQogICAgImFtcF9hdHRhY2siOiAwLjEwOTU0NTAwMDAwMDAwMDAwMzQ4LA0KICAgICJhbXBfZGVjYXkiOiAxLjQxMTc2NDcwNTg4MjM1MzAzMjYsDQogICAgImFtcF9yZWxlYXNlIjogMC4yOTk5OTk5OTk5OTk5OTk5ODg5LA0KICAgICJhbXBfc3VzdGFpbiI6IDEsDQogICAgImFycF9mcmVxdWVuY3kiOiAyLA0KICAgICJhcnBfZ2F0ZSI6IDAuNSwNCiAgICAiYXJwX29jdGF2ZXMiOiAxLA0KICAgICJhcnBfb24iOiAwLA0KICAgICJhcnBfcGF0dGVybiI6IDAsDQogICAgImFycF9zeW5jIjogMSwNCiAgICAiYXJwX3RlbXBvIjogOSwNCiAgICAiYmVhdHNfcGVyX21pbnV0ZSI6IDEuNzUsDQogICAgImNyb3NzX21vZHVsYXRpb24iOiAwLA0KICAgICJjdXRvZmYiOiAxMjcsDQogICAgImRlbGF5X2RyeV93ZXQiOiAwLjUsDQogICAgImRlbGF5X2ZlZWRiYWNrIjogMC40MDAwMDAwMDAwMDAwMDAwMjIyLA0KICAgICJkZWxheV9mcmVxdWVuY3kiOiAyLA0KICAgICJkZWxheV9vbiI6IDAsDQogICAgImRlbGF5X3N5bmMiOiAxLA0KICAgICJkZWxheV90ZW1wbyI6IDksDQogICAgImRpc3RvcnRpb25fZHJpdmUiOiAwLA0KICAgICJkaXN0b3J0aW9uX21peCI6IDEsDQogICAgImRpc3RvcnRpb25fb24iOiAwLA0KICAgICJkaXN0b3J0aW9uX3R5cGUiOiAwLA0KICAgICJmaWxfYXR0YWNrIjogMCwNCiAgICAiZmlsX2RlY2F5IjogMS41LA0KICAgICJmaWxfZW52X2RlcHRoIjogMCwNCiAgICAiZmlsX3JlbGVhc2UiOiAxLjUsDQogICAgImZpbF9zdXN0YWluIjogMC41LA0KICAgICJmaWx0ZXJfYmxlbmQiOiAwLA0KICAgICJmaWx0ZXJfZHJpdmUiOiAwLA0KICAgICJmaWx0ZXJfb24iOiAxLA0KICAgICJmaWx0ZXJfc2hlbGYiOiAwLA0KICAgICJmaWx0ZXJfc3R5bGUiOiAwLA0KICAgICJmb3JtYW50X29uIjogMCwNCiAgICAiZm9ybWFudF94IjogMC41LA0KICAgICJmb3JtYW50X3kiOiAwLjUsDQogICAgImtleXRyYWNrIjogMCwNCiAgICAibGVnYXRvIjogMCwNCiAgICAibW9kX2F0dGFjayI6IDAsDQogICAgIm1vZF9kZWNheSI6IDEuNSwNCiAgICAibW9kX3JlbGVhc2UiOiAxLjUsDQogICAgIm1vZF9zdXN0YWluIjogMC41LA0KICAgICJtb25vX2xmb18xX2FtcGxpdHVkZSI6IDEsDQogICAgIm1vbm9fbGZvXzFfZnJlcXVlbmN5IjogMSwNCiAgICAibW9ub19sZm9fMV9yZXRyaWdnZXIiOiAyLA0KICAgICJtb25vX2xmb18xX3N5bmMiOiAxLA0KICAgICJtb25vX2xmb18xX3RlbXBvIjogNiwNCiAgICAibW9ub19sZm9fMV93YXZlZm9ybSI6IDAsDQogICAgIm1vbm9fbGZvXzJfYW1wbGl0dWRlIjogMSwNCiAgICAibW9ub19sZm9fMl9mcmVxdWVuY3kiOiAxLA0KICAgICJtb25vX2xmb18yX3JldHJpZ2dlciI6IDIsDQogICAgIm1vbm9fbGZvXzJfc3luYyI6IDEsDQogICAgIm1vbm9fbGZvXzJfdGVtcG8iOiA3LA0KICAgICJtb25vX2xmb18yX3dhdmVmb3JtIjogMCwNCiAgICAibm9pc2Vfdm9sdW1lIjogMCwNCiAgICAibnVtX3N0ZXBzIjogOCwNCiAgICAib3NjXzFfdHJhbnNwb3NlIjogMCwNCiAgICAib3NjXzFfdHVuZSI6IDAsDQogICAgIm9zY18xX3VuaXNvbl9kZXR1bmUiOiAxMCwNCiAgICAib3NjXzFfdW5pc29uX3ZvaWNlcyI6IDEsDQogICAgIm9zY18xX3ZvbHVtZSI6IDAuNTQ3NzIyNTU3NDk5OTk5OTg0NjQsDQogICAgIm9zY18xX3dhdmVmb3JtIjogNCwNCiAgICAib3NjXzJfdHJhbnNwb3NlIjogMTIsDQogICAgIm9zY18yX3R1bmUiOiAwLA0KICAgICJvc2NfMl91bmlzb25fZGV0dW5lIjogMTAsDQogICAgIm9zY18yX3VuaXNvbl92b2ljZXMiOiAxLA0KICAgICJvc2NfMl92b2x1bWUiOiAwLjU0NzcyMjU1NzQ5OTk5OTk4NDY0LA0KICAgICJvc2NfMl93YXZlZm9ybSI6IDIsDQogICAgIm9zY19mZWVkYmFja19hbW91bnQiOiAwLA0KICAgICJvc2NfZmVlZGJhY2tfdHJhbnNwb3NlIjogMCwNCiAgICAib3NjX2ZlZWRiYWNrX3R1bmUiOiAwLA0KICAgICJwaXRjaF9iZW5kX3JhbmdlIjogMiwNCiAgICAicG9seV9sZm9fYW1wbGl0dWRlIjogMSwNCiAgICAicG9seV9sZm9fZnJlcXVlbmN5IjogMSwNCiAgICAicG9seV9sZm9fc3luYyI6IDEsDQogICAgInBvbHlfbGZvX3RlbXBvIjogNywNCiAgICAicG9seV9sZm9fd2F2ZWZvcm0iOiAwLA0KICAgICJwb2x5cGhvbnkiOiA0LA0KICAgICJwb3J0YW1lbnRvIjogLTcsDQogICAgInBvcnRhbWVudG9fdHlwZSI6IDAsDQogICAgInJlc29uYW5jZSI6IDAsDQogICAgInJldmVyYl9kYW1waW5nIjogMC44MDQwMDAwMDAwMDAwMDAwNDc5NiwNCiAgICAicmV2ZXJiX2RyeV93ZXQiOiAwLjUsDQogICAgInJldmVyYl9mZWVkYmFjayI6IDAuOTAwMDAwMDAwMDAwMDAwMDIyMiwNCiAgICAicmV2ZXJiX29uIjogMSwNCiAgICAic3RlcF9mcmVxdWVuY3kiOiAyLA0KICAgICJzdGVwX3NlcV8wMCI6IDAsDQogICAgInN0ZXBfc2VxXzAxIjogMCwNCiAgICAic3RlcF9zZXFfMDIiOiAwLA0KICAgICJzdGVwX3NlcV8wMyI6IDAsDQogICAgInN0ZXBfc2VxXzA0IjogMCwNCiAgICAic3RlcF9zZXFfMDUiOiAwLA0KICAgICJzdGVwX3NlcV8wNiI6IDAsDQogICAgInN0ZXBfc2VxXzA3IjogMCwNCiAgICAic3RlcF9zZXFfMDgiOiAwLA0KICAgICJzdGVwX3NlcV8wOSI6IDAsDQogICAgInN0ZXBfc2VxXzEwIjogMCwNCiAgICAic3RlcF9zZXFfMTEiOiAwLA0KICAgICJzdGVwX3NlcV8xMiI6IDAsDQogICAgInN0ZXBfc2VxXzEzIjogMCwNCiAgICAic3RlcF9zZXFfMTQiOiAwLA0KICAgICJzdGVwX3NlcV8xNSI6IDAsDQogICAgInN0ZXBfc2VxXzE2IjogMCwNCiAgICAic3RlcF9zZXFfMTciOiAwLA0KICAgICJzdGVwX3NlcV8xOCI6IDAsDQogICAgInN0ZXBfc2VxXzE5IjogMCwNCiAgICAic3RlcF9zZXFfMjAiOiAwLA0KICAgICJzdGVwX3NlcV8yMSI6IDAsDQogICAgInN0ZXBfc2VxXzIyIjogMCwNCiAgICAic3RlcF9zZXFfMjMiOiAwLA0KICAgICJzdGVwX3NlcV8yNCI6IDAsDQogICAgInN0ZXBfc2VxXzI1IjogMCwNCiAgICAic3RlcF9zZXFfMjYiOiAwLA0KICAgICJzdGVwX3NlcV8yNyI6IDAsDQogICAgInN0ZXBfc2VxXzI4IjogMCwNCiAgICAic3RlcF9zZXFfMjkiOiAwLA0KICAgICJzdGVwX3NlcV8zMCI6IDAsDQogICAgInN0ZXBfc2VxXzMxIjogMCwNCiAgICAic3RlcF9zZXF1ZW5jZXJfcmV0cmlnZ2VyIjogMiwNCiAgICAic3RlcF9zZXF1ZW5jZXJfc3luYyI6IDEsDQogICAgInN0ZXBfc2VxdWVuY2VyX3RlbXBvIjogNywNCiAgICAic3RlcF9zbW9vdGhpbmciOiAwLA0KICAgICJzdHV0dGVyX2ZyZXF1ZW5jeSI6IDMsDQogICAgInN0dXR0ZXJfb24iOiAwLA0KICAgICJzdHV0dGVyX3Jlc2FtcGxlX2ZyZXF1ZW5jeSI6IDEsDQogICAgInN0dXR0ZXJfcmVzYW1wbGVfc3luYyI6IDEsDQogICAgInN0dXR0ZXJfcmVzYW1wbGVfdGVtcG8iOiA2LA0KICAgICJzdHV0dGVyX3NvZnRuZXNzIjogMC4yMDAwMDAwMDAwMDAwMDAwMTExLA0KICAgICJzdHV0dGVyX3N5bmMiOiAxLA0KICAgICJzdHV0dGVyX3RlbXBvIjogOCwNCiAgICAic3ViX29jdGF2ZSI6IDAsDQogICAgInN1Yl9zaHVmZmxlIjogMCwNCiAgICAic3ViX3ZvbHVtZSI6IDAsDQogICAgInN1Yl93YXZlZm9ybSI6IDIsDQogICAgInVuaXNvbl8xX2hhcm1vbml6ZSI6IDAsDQogICAgInVuaXNvbl8yX2hhcm1vbml6ZSI6IDAsDQogICAgInZlbG9jaXR5X3RyYWNrIjogMCwNCiAgICAidm9sdW1lIjogMCwNCiAgICAibW9kdWxhdGlvbnMiOiBbDQogICAgICB7DQogICAgICAgICJzb3VyY2UiOiAidmVsb2NpdHkiLA0KICAgICAgICAiZGVzdGluYXRpb24iOiAidm9sdW1lIiwNCiAgICAgICAgImFtb3VudCI6IDAuOTk5Nzc1MzcwMDM1MjI1MzE5MjINCiAgICAgIH0NCiAgICBdDQogIH0NCn0A"/>
          </instrument>
          <eldata ftype="0" fcut="14000" fwet="0" fres="0.5">
            <elvol sustain="0.5" lpdel="0" userwavefile="" lshp="0" lspd_denominator="4" ctlenvamt="0" lspd_numerator="4" rel="0.1" lspd_syncmode="0" amt="0" dec="0.5" x100="0" lspd="0.1" latt="0" att="0" lamt="0" hold="0.5" pdel="0"/>
            <elcut sustain="0.5" lpdel="0" userwavefile="" lshp="0" lspd_denominator="4" ctlenvamt="0" lspd_numerator="4" rel="0.1" lspd_syncmode="0" amt="0" dec="0.5" x100="0" lspd="0.1" latt="0" att="0" lamt="0" hold="0.5" pdel="0"/>
            <elres sustain="0.5" lpdel="0" userwavefile="" lshp="0" lspd_denominator="4" ctlenvamt="0" lspd_numerator="4" rel="0.1" lspd_syncmode="0" amt="0" dec="0.5" x100="0" lspd="0.1" latt="0" att="0" lamt="0" hold="0.5" pdel="0"/>
          </eldata>
          <chordcreator chord-enabled="0" chord="0" chordrange="1"/>
          <arpeggiator arprange="1" arpskip="0" arptime_numerator="4" arpgate="100" arpmiss="0" arpdir="0" arpmode="0" arp="0" arptime_syncmode="0" arptime="200" arpcycle="0" arptime_denominator="4" arp-enabled="0"/>
          <midiport writable="0" inputcontroller="0" readable="0" inputchannel="0" fixedoutputnote="-1" outputprogram="1" fixedinputvelocity="-1" basevelocity="63" fixedoutputvelocity="-1" outputcontroller="0" outputchannel="1"/>
          <fxchain numofeffects="0" enabled="0"/>
        </instrumenttrack>
        <pattern steps="16" type="1" name="BG1" pos="0" muted="0">
          <note pan="0" vol="83" key="47" len="11" pos="0"/>
          <note pan="0" vol="83" key="47" len="12" pos="23"/>
          <note pan="0" vol="83" key="54" len="12" pos="47"/>
          <note pan="0" vol="83" key="50" len="12" pos="71"/>
          <note pan="0" vol="83" key="47" len="12" pos="83"/>
          <note pan="0" vol="83" key="47" len="12" pos="107"/>
          <note pan="0" vol="83" key="45" len="12" pos="131"/>
          <note pan="0" vol="83" key="49" len="12" pos="143"/>
          <note pan="0" vol="83" key="50" len="12" pos="155"/>
          <note pan="0" vol="83" key="49" len="12" pos="167"/>
          <note pan="0" vol="83" key="47" len="12" pos="191"/>
          <note pan="0" vol="83" key="47" len="12" pos="215"/>
          <note pan="0" vol="83" key="54" len="12" pos="239"/>
          <note pan="0" vol="83" key="50" len="12" pos="263"/>
          <note pan="0" vol="83" key="47" len="12" pos="275"/>
          <note pan="0" vol="83" key="47" len="12" pos="299"/>
          <note pan="0" vol="83" key="45" len="12" pos="323"/>
          <note pan="0" vol="83" key="49" len="12" pos="335"/>
          <note pan="0" vol="83" key="50" len="12" pos="347"/>
          <note pan="0" vol="83" key="52" len="12" pos="359"/>
          <note pan="0" vol="83" key="47" len="12" pos="383"/>
          <note pan="0" vol="83" key="47" len="12" pos="407"/>
          <note pan="0" vol="83" key="54" len="12" pos="431"/>
          <note pan="0" vol="83" key="50" len="12" pos="455"/>
          <note pan="0" vol="83" key="47" len="12" pos="467"/>
          <note pan="0" vol="83" key="47" len="12" pos="491"/>
          <note pan="0" vol="83" key="45" len="12" pos="515"/>
          <note pan="0" vol="83" key="49" len="12" pos="527"/>
          <note pan="0" vol="83" key="50" len="12" pos="539"/>
          <note pan="0" vol="83" key="49" len="12" pos="551"/>
          <note pan="0" vol="83" key="47" len="12" pos="575"/>
          <note pan="0" vol="83" key="47" len="12" pos="599"/>
          <note pan="0" vol="83" key="54" len="12" pos="623"/>
          <note pan="0" vol="83" key="50" len="12" pos="647"/>
          <note pan="0" vol="83" key="55" len="12" pos="659"/>
          <note pan="0" vol="83" key="52" len="12" pos="683"/>
          <note pan="0" vol="83" key="54" len="12" pos="695"/>
          <note pan="0" vol="83" key="52" len="12" pos="719"/>
          <note pan="0" vol="83" key="50" len="12" pos="743"/>
          <note pan="0" vol="83" key="47" len="11" pos="767"/>
          <note pan="0" vol="83" key="47" len="12" pos="791"/>
          <note pan="0" vol="83" key="54" len="12" pos="815"/>
          <note pan="0" vol="83" key="50" len="12" pos="839"/>
          <note pan="0" vol="83" key="47" len="12" pos="851"/>
          <note pan="0" vol="83" key="47" len="12" pos="875"/>
          <note pan="0" vol="83" key="45" len="12" pos="899"/>
          <note pan="0" vol="83" key="49" len="12" pos="911"/>
          <note pan="0" vol="83" key="50" len="12" pos="923"/>
          <note pan="0" vol="83" key="49" len="12" pos="935"/>
          <note pan="0" vol="83" key="47" len="12" pos="959"/>
          <note pan="0" vol="83" key="47" len="12" pos="983"/>
          <note pan="0" vol="83" key="54" len="12" pos="1007"/>
          <note pan="0" vol="83" key="50" len="12" pos="1031"/>
          <note pan="0" vol="83" key="47" len="12" pos="1043"/>
          <note pan="0" vol="83" key="47" len="12" pos="1067"/>
          <note pan="0" vol="83" key="45" len="12" pos="1091"/>
          <note pan="0" vol="83" key="49" len="12" pos="1103"/>
          <note pan="0" vol="83" key="50" len="12" pos="1115"/>
          <note pan="0" vol="83" key="52" len="12" pos="1127"/>
          <note pan="0" vol="83" key="47" len="12" pos="1151"/>
          <note pan="0" vol="83" key="47" len="12" pos="1175"/>
          <note pan="0" vol="83" key="54" len="12" pos="1199"/>
          <note pan="0" vol="83" key="50" len="12" pos="1223"/>
          <note pan="0" vol="83" key="47" len="12" pos="1235"/>
          <note pan="0" vol="83" key="47" len="12" pos="1259"/>
          <note pan="0" vol="83" key="45" len="12" pos="1283"/>
          <note pan="0" vol="83" key="49" len="12" pos="1295"/>
          <note pan="0" vol="83" key="50" len="12" pos="1307"/>
          <note pan="0" vol="83" key="49" len="12" pos="1319"/>
          <note pan="0" vol="83" key="47" len="12" pos="1343"/>
          <note pan="0" vol="83" key="47" len="12" pos="1367"/>
          <note pan="0" vol="83" key="54" len="12" pos="1391"/>
          <note pan="0" vol="83" key="50" len="12" pos="1415"/>
          <note pan="0" vol="83" key="55" len="12" pos="1427"/>
          <note pan="0" vol="83" key="52" len="12" pos="1451"/>
          <note pan="0" vol="83" key="54" len="12" pos="1463"/>
          <note pan="0" vol="83" key="52" len="12" pos="1487"/>
          <note pan="0" vol="83" key="50" len="12" pos="1511"/>
          <note pan="0" vol="83" key="47" len="11" pos="1535"/>
          <note pan="0" vol="83" key="47" len="12" pos="1559"/>
          <note pan="0" vol="83" key="54" len="12" pos="1583"/>
          <note pan="0" vol="83" key="50" len="12" pos="1607"/>
          <note pan="0" vol="83" key="47" len="12" pos="1619"/>
          <note pan="0" vol="83" key="47" len="12" pos="1643"/>
          <note pan="0" vol="83" key="45" len="12" pos="1667"/>
          <note pan="0" vol="83" key="49" len="12" pos="1679"/>
          <note pan="0" vol="83" key="50" len="12" pos="1691"/>
          <note pan="0" vol="83" key="49" len="12" pos="1703"/>
          <note pan="0" vol="83" key="47" len="12" pos="1727"/>
          <note pan="0" vol="83" key="47" len="12" pos="1751"/>
          <note pan="0" vol="83" key="54" len="12" pos="1775"/>
          <note pan="0" vol="83" key="50" len="12" pos="1799"/>
          <note pan="0" vol="83" key="47" len="12" pos="1811"/>
          <note pan="0" vol="83" key="47" len="12" pos="1835"/>
          <note pan="0" vol="83" key="45" len="12" pos="1859"/>
          <note pan="0" vol="83" key="49" len="12" pos="1871"/>
          <note pan="0" vol="83" key="50" len="12" pos="1883"/>
          <note pan="0" vol="83" key="52" len="12" pos="1895"/>
          <note pan="0" vol="83" key="47" len="12" pos="1919"/>
          <note pan="0" vol="83" key="47" len="12" pos="1943"/>
          <note pan="0" vol="83" key="54" len="12" pos="1967"/>
          <note pan="0" vol="83" key="50" len="12" pos="1991"/>
          <note pan="0" vol="83" key="47" len="12" pos="2003"/>
          <note pan="0" vol="83" key="47" len="12" pos="2027"/>
          <note pan="0" vol="83" key="45" len="12" pos="2051"/>
          <note pan="0" vol="83" key="49" len="12" pos="2063"/>
          <note pan="0" vol="83" key="50" len="12" pos="2075"/>
          <note pan="0" vol="83" key="49" len="12" pos="2087"/>
          <note pan="0" vol="83" key="47" len="12" pos="2111"/>
          <note pan="0" vol="83" key="47" len="12" pos="2135"/>
          <note pan="0" vol="83" key="54" len="12" pos="2159"/>
          <note pan="0" vol="83" key="50" len="12" pos="2183"/>
          <note pan="0" vol="83" key="55" len="12" pos="2195"/>
          <note pan="0" vol="83" key="52" len="12" pos="2219"/>
          <note pan="0" vol="83" key="54" len="12" pos="2231"/>
          <note pan="0" vol="83" key="52" len="12" pos="2255"/>
          <note pan="0" vol="83" key="50" len="12" pos="2279"/>
          <note pan="0" vol="83" key="47" len="11" pos="2303"/>
          <note pan="0" vol="83" key="47" len="12" pos="2327"/>
          <note pan="0" vol="83" key="54" len="12" pos="2351"/>
          <note pan="0" vol="83" key="50" len="12" pos="2375"/>
          <note pan="0" vol="83" key="47" len="12" pos="2387"/>
          <note pan="0" vol="83" key="47" len="12" pos="2411"/>
          <note pan="0" vol="83" key="45" len="12" pos="2435"/>
          <note pan="0" vol="83" key="49" len="12" pos="2447"/>
          <note pan="0" vol="83" key="50" len="12" pos="2459"/>
          <note pan="0" vol="83" key="49" len="12" pos="2471"/>
          <note pan="0" vol="83" key="47" len="12" pos="2495"/>
          <note pan="0" vol="83" key="47" len="12" pos="2519"/>
          <note pan="0" vol="83" key="54" len="12" pos="2543"/>
          <note pan="0" vol="83" key="50" len="12" pos="2567"/>
          <note pan="0" vol="83" key="47" len="12" pos="2579"/>
          <note pan="0" vol="83" key="47" len="12" pos="2603"/>
          <note pan="0" vol="83" key="45" len="12" pos="2627"/>
          <note pan="0" vol="83" key="49" len="12" pos="2639"/>
          <note pan="0" vol="83" key="50" len="12" pos="2651"/>
          <note pan="0" vol="83" key="52" len="12" pos="2663"/>
          <note pan="0" vol="83" key="47" len="12" pos="2687"/>
          <note pan="0" vol="83" key="47" len="12" pos="2711"/>
          <note pan="0" vol="83" key="54" len="12" pos="2735"/>
          <note pan="0" vol="83" key="50" len="12" pos="2759"/>
          <note pan="0" vol="83" key="47" len="12" pos="2771"/>
          <note pan="0" vol="83" key="47" len="12" pos="2795"/>
          <note pan="0" vol="83" key="45" len="12" pos="2819"/>
          <note pan="0" vol="83" key="49" len="12" pos="2831"/>
          <note pan="0" vol="83" key="50" len="12" pos="2843"/>
          <note pan="0" vol="83" key="49" len="12" pos="2855"/>
          <note pan="0" vol="83" key="47" len="12" pos="2879"/>
          <note pan="0" vol="83" key="47" len="12" pos="2903"/>
          <note pan="0" vol="83" key="54" len="12" pos="2927"/>
          <note pan="0" vol="83" key="50" len="12" pos="2951"/>
          <note pan="0" vol="83" key="55" len="12" pos="2963"/>
          <note pan="0" vol="83" key="52" len="12" pos="2987"/>
          <note pan="0" vol="83" key="54" len="12" pos="2999"/>
          <note pan="0" vol="83" key="52" len="12" pos="3023"/>
          <note pan="0" vol="83" key="50" len="12" pos="3047"/>
          <note pan="0" vol="83" key="47" len="11" pos="3071"/>
          <note pan="0" vol="83" key="47" len="12" pos="3095"/>
          <note pan="0" vol="83" key="54" len="12" pos="3119"/>
          <note pan="0" vol="83" key="50" len="12" pos="3143"/>
          <note pan="0" vol="83" key="47" len="12" pos="3155"/>
          <note pan="0" vol="83" key="47" len="12" pos="3179"/>
          <note pan="0" vol="83" key="45" len="12" pos="3203"/>
          <note pan="0" vol="83" key="49" len="12" pos="3215"/>
          <note pan="0" vol="83" key="50" len="12" pos="3227"/>
          <note pan="0" vol="83" key="49" len="12" pos="3239"/>
          <note pan="0" vol="83" key="47" len="12" pos="3263"/>
          <note pan="0" vol="83" key="47" len="12" pos="3287"/>
          <note pan="0" vol="83" key="54" len="12" pos="3311"/>
          <note pan="0" vol="83" key="50" len="12" pos="3335"/>
          <note pan="0" vol="83" key="47" len="12" pos="3347"/>
          <note pan="0" vol="83" key="47" len="12" pos="3371"/>
          <note pan="0" vol="83" key="45" len="12" pos="3395"/>
          <note pan="0" vol="83" key="49" len="12" pos="3407"/>
          <note pan="0" vol="83" key="50" len="12" pos="3419"/>
          <note pan="0" vol="83" key="52" len="12" pos="3431"/>
          <note pan="0" vol="83" key="47" len="12" pos="3455"/>
          <note pan="0" vol="83" key="47" len="12" pos="3479"/>
          <note pan="0" vol="83" key="54" len="12" pos="3503"/>
          <note pan="0" vol="83" key="50" len="12" pos="3527"/>
          <note pan="0" vol="83" key="47" len="12" pos="3539"/>
          <note pan="0" vol="83" key="47" len="12" pos="3563"/>
          <note pan="0" vol="83" key="45" len="12" pos="3587"/>
          <note pan="0" vol="83" key="49" len="12" pos="3599"/>
          <note pan="0" vol="83" key="50" len="12" pos="3611"/>
          <note pan="0" vol="83" key="49" len="12" pos="3623"/>
          <note pan="0" vol="83" key="47" len="12" pos="3647"/>
          <note pan="0" vol="83" key="47" len="12" pos="3671"/>
          <note pan="0" vol="83" key="54" len="12" pos="3695"/>
          <note pan="0" vol="83" key="50" len="12" pos="3719"/>
          <note pan="0" vol="83" key="55" len="12" pos="3731"/>
          <note pan="0" vol="83" key="52" len="12" pos="3755"/>
          <note pan="0" vol="83" key="54" len="12" pos="3767"/>
          <note pan="0" vol="83" key="52" len="12" pos="3791"/>
          <note pan="0" vol="83" key="50" len="12" pos="3815"/>
          <note pan="0" vol="83" key="47" len="11" pos="3839"/>
          <note pan="0" vol="83" key="47" len="12" pos="3863"/>
          <note pan="0" vol="83" key="54" len="12" pos="3887"/>
          <note pan="0" vol="83" key="50" len="12" pos="3911"/>
          <note pan="0" vol="83" key="47" len="12" pos="3923"/>
          <note pan="0" vol="83" key="47" len="12" pos="3947"/>
          <note pan="0" vol="83" key="45" len="12" pos="3971"/>
          <note pan="0" vol="83" key="49" len="12" pos="3983"/>
          <note pan="0" vol="83" key="50" len="12" pos="3995"/>
          <note pan="0" vol="83" key="49" len="12" pos="4007"/>
          <note pan="0" vol="83" key="47" len="12" pos="4031"/>
          <note pan="0" vol="83" key="47" len="12" pos="4055"/>
          <note pan="0" vol="83" key="54" len="12" pos="4079"/>
          <note pan="0" vol="83" key="50" len="12" pos="4103"/>
          <note pan="0" vol="83" key="47" len="12" pos="4115"/>
          <note pan="0" vol="83" key="47" len="12" pos="4139"/>
          <note pan="0" vol="83" key="45" len="12" pos="4163"/>
          <note pan="0" vol="83" key="49" len="12" pos="4175"/>
          <note pan="0" vol="83" key="50" len="12" pos="4187"/>
          <note pan="0" vol="83" key="52" len="12" pos="4199"/>
          <note pan="0" vol="83" key="47" len="12" pos="4223"/>
          <note pan="0" vol="83" key="47" len="12" pos="4247"/>
          <note pan="0" vol="83" key="54" len="12" pos="4271"/>
          <note pan="0" vol="83" key="50" len="12" pos="4295"/>
          <note pan="0" vol="83" key="47" len="12" pos="4307"/>
          <note pan="0" vol="83" key="47" len="12" pos="4331"/>
          <note pan="0" vol="83" key="45" len="12" pos="4355"/>
          <note pan="0" vol="83" key="49" len="12" pos="4367"/>
          <note pan="0" vol="83" key="50" len="12" pos="4379"/>
          <note pan="0" vol="83" key="49" len="12" pos="4391"/>
          <note pan="0" vol="83" key="47" len="12" pos="4415"/>
          <note pan="0" vol="83" key="47" len="12" pos="4439"/>
          <note pan="0" vol="83" key="54" len="12" pos="4463"/>
          <note pan="0" vol="83" key="50" len="12" pos="4487"/>
          <note pan="0" vol="83" key="55" len="12" pos="4499"/>
          <note pan="0" vol="83" key="52" len="12" pos="4523"/>
          <note pan="0" vol="83" key="54" len="12" pos="4535"/>
          <note pan="0" vol="83" key="52" len="12" pos="4559"/>
          <note pan="0" vol="83" key="50" len="12" pos="4583"/>
          <note pan="0" vol="83" key="47" len="11" pos="4607"/>
          <note pan="0" vol="83" key="47" len="12" pos="4631"/>
          <note pan="0" vol="83" key="54" len="12" pos="4655"/>
          <note pan="0" vol="83" key="50" len="12" pos="4679"/>
          <note pan="0" vol="83" key="47" len="12" pos="4691"/>
          <note pan="0" vol="83" key="47" len="12" pos="4715"/>
          <note pan="0" vol="83" key="45" len="12" pos="4739"/>
          <note pan="0" vol="83" key="49" len="12" pos="4751"/>
          <note pan="0" vol="83" key="50" len="12" pos="4763"/>
          <note pan="0" vol="83" key="49" len="12" pos="4775"/>
          <note pan="0" vol="83" key="47" len="12" pos="4799"/>
          <note pan="0" vol="83" key="47" len="12" pos="4823"/>
          <note pan="0" vol="83" key="54" len="12" pos="4847"/>
          <note pan="0" vol="83" key="50" len="12" pos="4871"/>
          <note pan="0" vol="83" key="47" len="12" pos="4883"/>
          <note pan="0" vol="83" key="47" len="12" pos="4907"/>
          <note pan="0" vol="83" key="45" len="12" pos="4931"/>
          <note pan="0" vol="83" key="49" len="12" pos="4943"/>
          <note pan="0" vol="83" key="50" len="12" pos="4955"/>
          <note pan="0" vol="83" key="52" len="12" pos="4967"/>
          <note pan="0" vol="83" key="47" len="12" pos="4991"/>
          <note pan="0" vol="83" key="47" len="12" pos="5015"/>
          <note pan="0" vol="83" key="54" len="12" pos="5039"/>
          <note pan="0" vol="83" key="50" len="12" pos="5063"/>
          <note pan="0" vol="83" key="47" len="12" pos="5075"/>
          <note pan="0" vol="83" key="47" len="12" pos="5099"/>
          <note pan="0" vol="83" key="45" len="12" pos="5123"/>
          <note pan="0" vol="83" key="49" len="12" pos="5135"/>
          <note pan="0" vol="83" key="50" len="12" pos="5147"/>
          <note pan="0" vol="83" key="49" len="12" pos="5159"/>
          <note pan="0" vol="83" key="47" len="12" pos="5183"/>
          <note pan="0" vol="83" key="47" len="12" pos="5207"/>
          <note pan="0" vol="83" key="54" len="12" pos="5231"/>
          <note pan="0" vol="83" key="50" len="12" pos="5255"/>
          <note pan="0" vol="83" key="55" len="12" pos="5267"/>
          <note pan="0" vol="83" key="52" len="12" pos="5291"/>
          <note pan="0" vol="83" key="54" len="12" pos="5303"/>
          <note pan="0" vol="83" key="52" len="12" pos="5327"/>
          <note pan="0" vol="83" key="50" len="12" pos="5351"/>
          <note pan="0" vol="83" key="47" len="11" pos="5375"/>
          <note pan="0" vol="83" key="47" len="12" pos="5399"/>
          <note pan="0" vol="83" key="54" len="12" pos="5423"/>
          <note pan="0" vol="83" key="50" len="12" pos="5447"/>
          <note pan="0" vol="83" key="47" len="12" pos="5459"/>
          <note pan="0" vol="83" key="47" len="12" pos="5483"/>
          <note pan="0" vol="83" key="45" len="12" pos="5507"/>
          <note pan="0" vol="83" key="49" len="12" pos="5519"/>
          <note pan="0" vol="83" key="50" len="12" pos="5531"/>
          <note pan="0" vol="83" key="49" len="12" pos="5543"/>
          <note pan="0" vol="83" key="47" len="12" pos="5567"/>
          <note pan="0" vol="83" key="47" len="12" pos="5591"/>
          <note pan="0" vol="83" key="54" len="12" pos="5615"/>
          <note pan="0" vol="83" key="50" len="12" pos="5639"/>
          <note pan="0" vol="83" key="47" len="12" pos="5651"/>
          <note pan="0" vol="83" key="47" len="12" pos="5675"/>
          <note pan="0" vol="83" key="45" len="12" pos="5699"/>
          <note pan="0" vol="83" key="49" len="12" pos="5711"/>
          <note pan="0" vol="83" key="50" len="12" pos="5723"/>
          <note pan="0" vol="83" key="52" len="12" pos="5735"/>
          <note pan="0" vol="83" key="47" len="12" pos="5759"/>
          <note pan="0" vol="83" key="47" len="12" pos="5783"/>
          <note pan="0" vol="83" key="54" len="12" pos="5807"/>
          <note pan="0" vol="83" key="50" len="12" pos="5831"/>
          <note pan="0" vol="83" key="47" len="12" pos="5843"/>
          <note pan="0" vol="83" key="47" len="12" pos="5867"/>
          <note pan="0" vol="83" key="45" len="12" pos="5891"/>
          <note pan="0" vol="83" key="49" len="12" pos="5903"/>
          <note pan="0" vol="83" key="50" len="12" pos="5915"/>
          <note pan="0" vol="83" key="49" len="12" pos="5927"/>
          <note pan="0" vol="83" key="47" len="12" pos="5951"/>
          <note pan="0" vol="83" key="47" len="12" pos="5975"/>
          <note pan="0" vol="83" key="54" len="12" pos="5999"/>
          <note pan="0" vol="83" key="50" len="12" pos="6023"/>
          <note pan="0" vol="83" key="55" len="12" pos="6035"/>
          <note pan="0" vol="83" key="52" len="12" pos="6059"/>
          <note pan="0" vol="83" key="54" len="12" pos="6071"/>
          <note pan="0" vol="83" key="52" len="12" pos="6095"/>
          <note pan="0" vol="83" key="50" len="12" pos="6119"/>
          <note pan="0" vol="83" key="47" len="11" pos="6143"/>
          <note pan="0" vol="83" key="47" len="12" pos="6167"/>
          <note pan="0" vol="83" key="54" len="12" pos="6191"/>
          <note pan="0" vol="83" key="50" len="12" pos="6215"/>
          <note pan="0" vol="83" key="47" len="12" pos="6227"/>
          <note pan="0" vol="83" key="47" len="12" pos="6251"/>
          <note pan="0" vol="83" key="45" len="12" pos="6275"/>
          <note pan="0" vol="83" key="49" len="12" pos="6287"/>
          <note pan="0" vol="83" key="50" len="12" pos="6299"/>
          <note pan="0" vol="83" key="49" len="12" pos="6311"/>
          <note pan="0" vol="83" key="47" len="12" pos="6335"/>
          <note pan="0" vol="83" key="47" len="12" pos="6359"/>
          <note pan="0" vol="83" key="54" len="12" pos="6383"/>
          <note pan="0" vol="83" key="50" len="12" pos="6407"/>
          <note pan="0" vol="83" key="47" len="12" pos="6419"/>
          <note pan="0" vol="83" key="47" len="12" pos="6443"/>
          <note pan="0" vol="83" key="45" len="12" pos="6467"/>
          <note pan="0" vol="83" key="49" len="12" pos="6479"/>
          <note pan="0" vol="83" key="50" len="12" pos="6491"/>
          <note pan="0" vol="83" key="52" len="12" pos="6503"/>
          <note pan="0" vol="83" key="47" len="12" pos="6527"/>
          <note pan="0" vol="83" key="47" len="12" pos="6551"/>
          <note pan="0" vol="83" key="54" len="12" pos="6575"/>
          <note pan="0" vol="83" key="50" len="12" pos="6599"/>
          <note pan="0" vol="83" key="47" len="12" pos="6611"/>
          <note pan="0" vol="83" key="47" len="12" pos="6635"/>
          <note pan="0" vol="83" key="45" len="12" pos="6659"/>
          <note pan="0" vol="83" key="49" len="12" pos="6671"/>
          <note pan="0" vol="83" key="50" len="12" pos="6683"/>
          <note pan="0" vol="83" key="49" len="12" pos="6695"/>
          <note pan="0" vol="83" key="47" len="12" pos="6719"/>
          <note pan="0" vol="83" key="47" len="12" pos="6743"/>
          <note pan="0" vol="83" key="54" len="12" pos="6767"/>
          <note pan="0" vol="83" key="50" len="12" pos="6791"/>
          <note pan="0" vol="83" key="55" len="12" pos="6803"/>
          <note pan="0" vol="83" key="52" len="12" pos="6827"/>
          <note pan="0" vol="83" key="54" len="12" pos="6839"/>
          <note pan="0" vol="83" key="52" len="12" pos="6863"/>
          <note pan="0" vol="83" key="50" len="12" pos="6887"/>
          <note pan="0" vol="83" key="47" len="11" pos="6911"/>
          <note pan="0" vol="83" key="47" len="12" pos="6935"/>
          <note pan="0" vol="83" key="54" len="12" pos="6959"/>
          <note pan="0" vol="83" key="50" len="12" pos="6983"/>
          <note pan="0" vol="83" key="47" len="12" pos="6995"/>
          <note pan="0" vol="83" key="47" len="12" pos="7019"/>
          <note pan="0" vol="83" key="45" len="12" pos="7043"/>
          <note pan="0" vol="83" key="49" len="12" pos="7055"/>
          <note pan="0" vol="83" key="50" len="12" pos="7067"/>
          <note pan="0" vol="83" key="49" len="12" pos="7079"/>
          <note pan="0" vol="83" key="47" len="12" pos="7103"/>
          <note pan="0" vol="83" key="47" len="12" pos="7127"/>
          <note pan="0" vol="83" key="54" len="12" pos="7151"/>
          <note pan="0" vol="83" key="50" len="12" pos="7175"/>
          <note pan="0" vol="83" key="47" len="12" pos="7187"/>
          <note pan="0" vol="83" key="47" len="12" pos="7211"/>
          <note pan="0" vol="83" key="45" len="12" pos="7235"/>
          <note pan="0" vol="83" key="49" len="12" pos="7247"/>
          <note pan="0" vol="83" key="50" len="12" pos="7259"/>
          <note pan="0" vol="83" key="52" len="12" pos="7271"/>
          <note pan="0" vol="83" key="47" len="12" pos="7295"/>
          <note pan="0" vol="83" key="47" len="12" pos="7319"/>
          <note pan="0" vol="83" key="54" len="12" pos="7343"/>
          <note pan="0" vol="83" key="50" len="12" pos="7367"/>
          <note pan="0" vol="83" key="47" len="12" pos="7379"/>
          <note pan="0" vol="83" key="47" len="12" pos="7403"/>
          <note pan="0" vol="83" key="45" len="12" pos="7427"/>
          <note pan="0" vol="83" key="49" len="12" pos="7439"/>
          <note pan="0" vol="83" key="50" len="12" pos="7451"/>
          <note pan="0" vol="83" key="49" len="12" pos="7463"/>
          <note pan="0" vol="83" key="47" len="12" pos="7487"/>
          <note pan="0" vol="83" key="47" len="12" pos="7511"/>
          <note pan="0" vol="83" key="54" len="12" pos="7535"/>
          <note pan="0" vol="83" key="50" len="12" pos="7559"/>
          <note pan="0" vol="83" key="55" len="12" pos="7571"/>
          <note pan="0" vol="83" key="52" len="12" pos="7595"/>
          <note pan="0" vol="83" key="54" len="12" pos="7607"/>
          <note pan="0" vol="83" key="52" len="12" pos="7631"/>
          <note pan="0" vol="83" key="50" len="12" pos="7655"/>
          <note pan="0" vol="83" key="47" len="11" pos="7679"/>
          <note pan="0" vol="83" key="47" len="12" pos="7703"/>
          <note pan="0" vol="83" key="54" len="12" pos="7727"/>
          <note pan="0" vol="83" key="50" len="12" pos="7751"/>
          <note pan="0" vol="83" key="47" len="12" pos="7763"/>
          <note pan="0" vol="83" key="47" len="12" pos="7787"/>
          <note pan="0" vol="83" key="45" len="12" pos="7811"/>
          <note pan="0" vol="83" key="49" len="12" pos="7823"/>
          <note pan="0" vol="83" key="50" len="12" pos="7835"/>
          <note pan="0" vol="83" key="49" len="12" pos="7847"/>
          <note pan="0" vol="83" key="47" len="12" pos="7871"/>
          <note pan="0" vol="83" key="47" len="12" pos="7895"/>
          <note pan="0" vol="83" key="54" len="12" pos="7919"/>
          <note pan="0" vol="83" key="50" len="12" pos="7943"/>
          <note pan="0" vol="83" key="47" len="12" pos="7955"/>
          <note pan="0" vol="83" key="47" len="12" pos="7979"/>
          <note pan="0" vol="83" key="45" len="12" pos="8003"/>
          <note pan="0" vol="83" key="49" len="12" pos="8015"/>
          <note pan="0" vol="83" key="50" len="12" pos="8027"/>
          <note pan="0" vol="83" key="52" len="12" pos="8039"/>
          <note pan="0" vol="83" key="47" len="12" pos="8063"/>
          <note pan="0" vol="83" key="47" len="12" pos="8087"/>
          <note pan="0" vol="83" key="54" len="12" pos="8111"/>
          <note pan="0" vol="83" key="50" len="12" pos="8135"/>
          <note pan="0" vol="83" key="47" len="12" pos="8147"/>
          <note pan="0" vol="83" key="47" len="12" pos="8171"/>
          <note pan="0" vol="83" key="45" len="12" pos="8195"/>
          <note pan="0" vol="83" key="49" len="12" pos="8207"/>
          <note pan="0" vol="83" key="50" len="12" pos="8219"/>
          <note pan="0" vol="83" key="49" len="12" pos="8231"/>
          <note pan="0" vol="83" key="47" len="12" pos="8255"/>
          <note pan="0" vol="83" key="47" len="12" pos="8279"/>
          <note pan="0" vol="83" key="54" len="12" pos="8303"/>
          <note pan="0" vol="83" key="50" len="12" pos="8327"/>
          <note pan="0" vol="83" key="55" len="12" pos="8339"/>
          <note pan="0" vol="83" key="52" len="12" pos="8363"/>
          <note pan="0" vol="83" key="54" len="12" pos="8375"/>
          <note pan="0" vol="83" key="52" len="12" pos="8399"/>
          <note pan="0" vol="83" key="50" len="12" pos="8423"/>
          <note pan="0" vol="83" key="47" len="11" pos="8447"/>
          <note pan="0" vol="83" key="47" len="12" pos="8471"/>
          <note pan="0" vol="83" key="54" len="12" pos="8495"/>
          <note pan="0" vol="83" key="50" len="12" pos="8519"/>
          <note pan="0" vol="83" key="47" len="12" pos="8531"/>
          <note pan="0" vol="83" key="47" len="12" pos="8555"/>
          <note pan="0" vol="83" key="45" len="12" pos="8579"/>
          <note pan="0" vol="83" key="49" len="12" pos="8591"/>
          <note pan="0" vol="83" key="50" len="12" pos="8603"/>
          <note pan="0" vol="83" key="49" len="12" pos="8615"/>
          <note pan="0" vol="83" key="47" len="12" pos="8639"/>
          <note pan="0" vol="83" key="47" len="12" pos="8663"/>
          <note pan="0" vol="83" key="54" len="12" pos="8687"/>
          <note pan="0" vol="83" key="50" len="12" pos="8711"/>
          <note pan="0" vol="83" key="47" len="12" pos="8723"/>
          <note pan="0" vol="83" key="47" len="12" pos="8747"/>
          <note pan="0" vol="83" key="45" len="12" pos="8771"/>
          <note pan="0" vol="83" key="49" len="12" pos="8783"/>
          <note pan="0" vol="83" key="50" len="12" pos="8795"/>
          <note pan="0" vol="83" key="52" len="12" pos="8807"/>
          <note pan="0" vol="83" key="47" len="12" pos="8831"/>
          <note pan="0" vol="83" key="47" len="12" pos="8855"/>
          <note pan="0" vol="83" key="54" len="12" pos="8879"/>
          <note pan="0" vol="83" key="50" len="12" pos="8903"/>
          <note pan="0" vol="83" key="47" len="12" pos="8915"/>
          <note pan="0" vol="83" key="47" len="12" pos="8939"/>
          <note pan="0" vol="83" key="45" len="12" pos="8963"/>
          <note pan="0" vol="83" key="49" len="12" pos="8975"/>
          <note pan="0" vol="83" key="50" len="12" pos="8987"/>
          <note pan="0" vol="83" key="49" len="12" pos="8999"/>
          <note pan="0" vol="83" key="47" len="12" pos="9023"/>
          <note pan="0" vol="83" key="47" len="12" pos="9047"/>
          <note pan="0" vol="83" key="54" len="12" pos="9071"/>
          <note pan="0" vol="83" key="50" len="12" pos="9095"/>
          <note pan="0" vol="83" key="55" len="12" pos="9107"/>
          <note pan="0" vol="83" key="52" len="12" pos="9131"/>
          <note pan="0" vol="83" key="54" len="12" pos="9143"/>
          <note pan="0" vol="83" key="52" len="12" pos="9167"/>
          <note pan="0" vol="83" key="50" len="12" pos="9191"/>
          <note pan="0" vol="83" key="47" len="11" pos="9215"/>
          <note pan="0" vol="83" key="47" len="12" pos="9239"/>
          <note pan="0" vol="83" key="54" len="12" pos="9263"/>
          <note pan="0" vol="83" key="50" len="12" pos="9287"/>
          <note pan="0" vol="83" key="47" len="12" pos="9299"/>
          <note pan="0" vol="83" key="47" len="12" pos="9323"/>
          <note pan="0" vol="83" key="45" len="12" pos="9347"/>
          <note pan="0" vol="83" key="49" len="12" pos="9359"/>
          <note pan="0" vol="83" key="50" len="12" pos="9371"/>
          <note pan="0" vol="83" key="49" len="12" pos="9383"/>
          <note pan="0" vol="83" key="47" len="12" pos="9407"/>
          <note pan="0" vol="83" key="47" len="12" pos="9431"/>
          <note pan="0" vol="83" key="54" len="12" pos="9455"/>
          <note pan="0" vol="83" key="50" len="12" pos="9479"/>
          <note pan="0" vol="83" key="47" len="12" pos="9491"/>
          <note pan="0" vol="83" key="47" len="12" pos="9515"/>
          <note pan="0" vol="83" key="45" len="12" pos="9539"/>
          <note pan="0" vol="83" key="49" len="12" pos="9551"/>
          <note pan="0" vol="83" key="50" len="12" pos="9563"/>
          <note pan="0" vol="83" key="52" len="12" pos="9575"/>
          <note pan="0" vol="83" key="47" len="12" pos="9599"/>
          <note pan="0" vol="83" key="47" len="12" pos="9623"/>
          <note pan="0" vol="83" key="54" len="12" pos="9647"/>
          <note pan="0" vol="83" key="50" len="12" pos="9671"/>
          <note pan="0" vol="83" key="47" len="12" pos="9683"/>
          <note pan="0" vol="83" key="47" len="12" pos="9707"/>
          <note pan="0" vol="83" key="45" len="12" pos="9731"/>
          <note pan="0" vol="83" key="49" len="12" pos="9743"/>
          <note pan="0" vol="83" key="50" len="12" pos="9755"/>
          <note pan="0" vol="83" key="49" len="12" pos="9767"/>
          <note pan="0" vol="83" key="47" len="12" pos="9791"/>
          <note pan="0" vol="83" key="47" len="12" pos="9815"/>
          <note pan="0" vol="83" key="54" len="12" pos="9839"/>
          <note pan="0" vol="83" key="50" len="12" pos="9863"/>
          <note pan="0" vol="83" key="55" len="12" pos="9875"/>
          <note pan="0" vol="83" key="52" len="12" pos="9899"/>
          <note pan="0" vol="83" key="54" len="12" pos="9911"/>
          <note pan="0" vol="83" key="52" len="12" pos="9935"/>
          <note pan="0" vol="83" key="50" len="12" pos="9959"/>
          <note pan="0" vol="83" key="47" len="11" pos="9983"/>
          <note pan="0" vol="83" key="47" len="12" pos="10007"/>
          <note pan="0" vol="83" key="54" len="12" pos="10031"/>
          <note pan="0" vol="83" key="50" len="12" pos="10055"/>
          <note pan="0" vol="83" key="47" len="12" pos="10067"/>
          <note pan="0" vol="83" key="47" len="12" pos="10091"/>
          <note pan="0" vol="83" key="45" len="12" pos="10115"/>
          <note pan="0" vol="83" key="49" len="12" pos="10127"/>
          <note pan="0" vol="83" key="50" len="12" pos="10139"/>
          <note pan="0" vol="83" key="49" len="12" pos="10151"/>
          <note pan="0" vol="83" key="47" len="12" pos="10175"/>
          <note pan="0" vol="83" key="47" len="12" pos="10199"/>
          <note pan="0" vol="83" key="54" len="12" pos="10223"/>
          <note pan="0" vol="83" key="50" len="12" pos="10247"/>
          <note pan="0" vol="83" key="47" len="12" pos="10259"/>
          <note pan="0" vol="83" key="47" len="12" pos="10283"/>
          <note pan="0" vol="83" key="45" len="12" pos="10307"/>
          <note pan="0" vol="83" key="49" len="12" pos="10319"/>
          <note pan="0" vol="83" key="50" len="12" pos="10331"/>
          <note pan="0" vol="83" key="52" len="12" pos="10343"/>
          <note pan="0" vol="83" key="47" len="12" pos="10367"/>
          <note pan="0" vol="83" key="47" len="12" pos="10391"/>
          <note pan="0" vol="83" key="54" len="12" pos="10415"/>
          <note pan="0" vol="83" key="50" len="12" pos="10439"/>
          <note pan="0" vol="83" key="47" len="12" pos="10451"/>
          <note pan="0" vol="83" key="47" len="12" pos="10475"/>
          <note pan="0" vol="83" key="45" len="12" pos="10499"/>
          <note pan="0" vol="83" key="49" len="12" pos="10511"/>
          <note pan="0" vol="83" key="50" len="12" pos="10523"/>
          <note pan="0" vol="83" key="49" len="12" pos="10535"/>
          <note pan="0" vol="83" key="47" len="12" pos="10559"/>
          <note pan="0" vol="83" key="47" len="12" pos="10583"/>
          <note pan="0" vol="83" key="54" len="12" pos="10607"/>
          <note pan="0" vol="83" key="50" len="12" pos="10631"/>
          <note pan="0" vol="83" key="55" len="12" pos="10643"/>
          <note pan="0" vol="83" key="52" len="12" pos="10667"/>
          <note pan="0" vol="83" key="54" len="12" pos="10679"/>
          <note pan="0" vol="83" key="52" len="12" pos="10703"/>
          <note pan="0" vol="83" key="50" len="12" pos="10727"/>
          <note pan="0" vol="83" key="47" len="11" pos="10751"/>
          <note pan="0" vol="83" key="47" len="12" pos="10775"/>
          <note pan="0" vol="83" key="54" len="12" pos="10799"/>
          <note pan="0" vol="83" key="50" len="12" pos="10823"/>
          <note pan="0" vol="83" key="47" len="12" pos="10835"/>
          <note pan="0" vol="83" key="47" len="12" pos="10859"/>
          <note pan="0" vol="83" key="45" len="12" pos="10883"/>
          <note pan="0" vol="83" key="49" len="12" pos="10895"/>
          <note pan="0" vol="83" key="50" len="12" pos="10907"/>
          <note pan="0" vol="83" key="49" len="12" pos="10919"/>
          <note pan="0" vol="83" key="47" len="12" pos="10943"/>
          <note pan="0" vol="83" key="47" len="12" pos="10967"/>
          <note pan="0" vol="83" key="54" len="12" pos="10991"/>
          <note pan="0" vol="83" key="50" len="12" pos="11015"/>
          <note pan="0" vol="83" key="47" len="12" pos="11027"/>
          <note pan="0" vol="83" key="47" len="12" pos="11051"/>
          <note pan="0" vol="83" key="45" len="12" pos="11075"/>
          <note pan="0" vol="83" key="49" len="12" pos="11087"/>
          <note pan="0" vol="83" key="50" len="12" pos="11099"/>
          <note pan="0" vol="83" key="52" len="12" pos="11111"/>
          <note pan="0" vol="83" key="47" len="12" pos="11135"/>
          <note pan="0" vol="83" key="47" len="12" pos="11159"/>
          <note pan="0" vol="83" key="54" len="12" pos="11183"/>
          <note pan="0" vol="83" key="50" len="12" pos="11207"/>
          <note pan="0" vol="83" key="47" len="12" pos="11219"/>
          <note pan="0" vol="83" key="47" len="12" pos="11243"/>
          <note pan="0" vol="83" key="45" len="12" pos="11267"/>
          <note pan="0" vol="83" key="49" len="12" pos="11279"/>
          <note pan="0" vol="83" key="50" len="12" pos="11291"/>
          <note pan="0" vol="83" key="49" len="12" pos="11303"/>
          <note pan="0" vol="83" key="47" len="12" pos="11327"/>
          <note pan="0" vol="83" key="47" len="12" pos="11351"/>
          <note pan="0" vol="83" key="54" len="12" pos="11375"/>
          <note pan="0" vol="83" key="50" len="12" pos="11399"/>
          <note pan="0" vol="83" key="55" len="12" pos="11411"/>
          <note pan="0" vol="83" key="52" len="12" pos="11435"/>
          <note pan="0" vol="83" key="54" len="12" pos="11447"/>
          <note pan="0" vol="83" key="52" len="12" pos="11471"/>
          <note pan="0" vol="83" key="50" len="12" pos="11495"/>
          <note pan="0" vol="83" key="47" len="11" pos="11519"/>
          <note pan="0" vol="83" key="47" len="12" pos="11543"/>
          <note pan="0" vol="83" key="54" len="12" pos="11567"/>
          <note pan="0" vol="83" key="50" len="12" pos="11591"/>
          <note pan="0" vol="83" key="47" len="12" pos="11603"/>
          <note pan="0" vol="83" key="47" len="12" pos="11627"/>
          <note pan="0" vol="83" key="45" len="12" pos="11651"/>
          <note pan="0" vol="83" key="49" len="12" pos="11663"/>
          <note pan="0" vol="83" key="50" len="12" pos="11675"/>
          <note pan="0" vol="83" key="49" len="12" pos="11687"/>
          <note pan="0" vol="83" key="47" len="12" pos="11711"/>
          <note pan="0" vol="83" key="47" len="12" pos="11735"/>
          <note pan="0" vol="83" key="54" len="12" pos="11759"/>
          <note pan="0" vol="83" key="50" len="12" pos="11783"/>
          <note pan="0" vol="83" key="47" len="12" pos="11795"/>
          <note pan="0" vol="83" key="47" len="12" pos="11819"/>
          <note pan="0" vol="83" key="45" len="12" pos="11843"/>
          <note pan="0" vol="83" key="49" len="12" pos="11855"/>
          <note pan="0" vol="83" key="50" len="12" pos="11867"/>
          <note pan="0" vol="83" key="52" len="12" pos="11879"/>
          <note pan="0" vol="83" key="47" len="12" pos="11903"/>
          <note pan="0" vol="83" key="47" len="12" pos="11927"/>
          <note pan="0" vol="83" key="54" len="12" pos="11951"/>
          <note pan="0" vol="83" key="50" len="12" pos="11975"/>
          <note pan="0" vol="83" key="47" len="12" pos="11987"/>
          <note pan="0" vol="83" key="47" len="12" pos="12011"/>
          <note pan="0" vol="83" key="45" len="12" pos="12035"/>
          <note pan="0" vol="83" key="49" len="12" pos="12047"/>
          <note pan="0" vol="83" key="50" len="12" pos="12059"/>
          <note pan="0" vol="83" key="49" len="12" pos="12071"/>
          <note pan="0" vol="83" key="47" len="12" pos="12095"/>
          <note pan="0" vol="83" key="47" len="12" pos="12119"/>
          <note pan="0" vol="83" key="54" len="12" pos="12143"/>
          <note pan="0" vol="83" key="50" len="12" pos="12167"/>
          <note pan="0" vol="83" key="55" len="12" pos="12179"/>
          <note pan="0" vol="83" key="52" len="12" pos="12203"/>
          <note pan="0" vol="83" key="54" len="12" pos="12215"/>
          <note pan="0" vol="83" key="52" len="12" pos="12239"/>
          <note pan="0" vol="83" key="50" len="12" pos="12263"/>
        </pattern>
      </track>
      <track solo="0" type="0" name="BG2" muted="0">
        <instrumenttrack pitch="0" pan="25" vol="111" pitchrange="2" fxch="0" usemasterpitch="1" basenote="57">
          <instrument name="vestige">
            <vestige program="0" plugin="C:/Program Files/VstPlugins/helm64.dll" guivisible="0" chunk="ew0KICAibGljZW5zZSI6ICJQYXRjaCAoYykgYnkgLiAgVGhpcyBwYXRjaCBpcyBsaWNlbnNlZCB1bmRlciBhIENyZWF0aXZlIENvbW1vbnMgQXR0cmlidXRpb24gNC4wIEludGVybmF0aW9uYWwgTGljZW5zZS4gIFlvdSBzaG91bGQgaGF2ZSByZWNlaXZlZCBhIGNvcHkgb2YgdGhlIGxpY2Vuc2UgYWxvbmcgd2l0aCB0aGlzIHdvcmsuICBJZiBub3QsIHNlZSA8aHR0cDovL2NyZWF0aXZlY29tbW9ucy5vcmcvbGljZW5zZXMvYnkvNC4wLz4uIiwNCiAgInN5bnRoX3ZlcnNpb24iOiAiMC45LjAiLA0KICAicGF0Y2hfbmFtZSI6ICIiLA0KICAiZm9sZGVyX25hbWUiOiAiIiwNCiAgImF1dGhvciI6ICIiLA0KICAic2V0dGluZ3MiOiB7DQogICAgImFtcF9hdHRhY2siOiAwLjEwOTU0NTAwMDAwMDAwMDAwMzQ4LA0KICAgICJhbXBfZGVjYXkiOiAxLjM1Mjk0MTE3NjQ3MDU4ODMxMzcsDQogICAgImFtcF9yZWxlYXNlIjogMC4yOTk5OTk5OTk5OTk5OTk5ODg5LA0KICAgICJhbXBfc3VzdGFpbiI6IDEsDQogICAgImFycF9mcmVxdWVuY3kiOiAyLA0KICAgICJhcnBfZ2F0ZSI6IDAuNSwNCiAgICAiYXJwX29jdGF2ZXMiOiAxLA0KICAgICJhcnBfb24iOiAwLA0KICAgICJhcnBfcGF0dGVybiI6IDAsDQogICAgImFycF9zeW5jIjogMSwNCiAgICAiYXJwX3RlbXBvIjogOSwNCiAgICAiYmVhdHNfcGVyX21pbnV0ZSI6IDEuNzUsDQogICAgImNyb3NzX21vZHVsYXRpb24iOiAwLA0KICAgICJjdXRvZmYiOiAxMjcsDQogICAgImRlbGF5X2RyeV93ZXQiOiAwLjUsDQogICAgImRlbGF5X2ZlZWRiYWNrIjogMC40MDAwMDAwMDAwMDAwMDAwMjIyLA0KICAgICJkZWxheV9mcmVxdWVuY3kiOiAyLA0KICAgICJkZWxheV9vbiI6IDAsDQogICAgImRlbGF5X3N5bmMiOiAxLA0KICAgICJkZWxheV90ZW1wbyI6IDksDQogICAgImRpc3RvcnRpb25fZHJpdmUiOiAwLA0KICAgICJkaXN0b3J0aW9uX21peCI6IDEsDQogICAgImRpc3RvcnRpb25fb24iOiAwLA0KICAgICJkaXN0b3J0aW9uX3R5cGUiOiAwLA0KICAgICJmaWxfYXR0YWNrIjogMCwNCiAgICAiZmlsX2RlY2F5IjogMS41LA0KICAgICJmaWxfZW52X2RlcHRoIjogMCwNCiAgICAiZmlsX3JlbGVhc2UiOiAxLjUsDQogICAgImZpbF9zdXN0YWluIjogMC41LA0KICAgICJmaWx0ZXJfYmxlbmQiOiAwLA0KICAgICJmaWx0ZXJfZHJpdmUiOiAwLA0KICAgICJmaWx0ZXJfb24iOiAxLA0KICAgICJmaWx0ZXJfc2hlbGYiOiAyLA0KICAgICJmaWx0ZXJfc3R5bGUiOiAwLA0KICAgICJmb3JtYW50X29uIjogMCwNCiAgICAiZm9ybWFudF94IjogMC41LA0KICAgICJmb3JtYW50X3kiOiAwLjUsDQogICAgImtleXRyYWNrIjogMCwNCiAgICAibGVnYXRvIjogMCwNCiAgICAibW9kX2F0dGFjayI6IDAsDQogICAgIm1vZF9kZWNheSI6IDEuNSwNCiAgICAibW9kX3JlbGVhc2UiOiAxLjUsDQogICAgIm1vZF9zdXN0YWluIjogMC41LA0KICAgICJtb25vX2xmb18xX2FtcGxpdHVkZSI6IDEsDQogICAgIm1vbm9fbGZvXzFfZnJlcXVlbmN5IjogMSwNCiAgICAibW9ub19sZm9fMV9yZXRyaWdnZXIiOiAyLA0KICAgICJtb25vX2xmb18xX3N5bmMiOiAxLA0KICAgICJtb25vX2xmb18xX3RlbXBvIjogNiwNCiAgICAibW9ub19sZm9fMV93YXZlZm9ybSI6IDAsDQogICAgIm1vbm9fbGZvXzJfYW1wbGl0dWRlIjogMSwNCiAgICAibW9ub19sZm9fMl9mcmVxdWVuY3kiOiAxLA0KICAgICJtb25vX2xmb18yX3JldHJpZ2dlciI6IDIsDQogICAgIm1vbm9fbGZvXzJfc3luYyI6IDEsDQogICAgIm1vbm9fbGZvXzJfdGVtcG8iOiA3LA0KICAgICJtb25vX2xmb18yX3dhdmVmb3JtIjogMCwNCiAgICAibm9pc2Vfdm9sdW1lIjogMCwNCiAgICAibnVtX3N0ZXBzIjogOCwNCiAgICAib3NjXzFfdHJhbnNwb3NlIjogMCwNCiAgICAib3NjXzFfdHVuZSI6IDAsDQogICAgIm9zY18xX3VuaXNvbl9kZXR1bmUiOiAxMCwNCiAgICAib3NjXzFfdW5pc29uX3ZvaWNlcyI6IDUsDQogICAgIm9zY18xX3ZvbHVtZSI6IDAuNTQ3NzIyNTU3NDk5OTk5OTg0NjQsDQogICAgIm9zY18xX3dhdmVmb3JtIjogNCwNCiAgICAib3NjXzJfdHJhbnNwb3NlIjogMTIsDQogICAgIm9zY18yX3R1bmUiOiAwLA0KICAgICJvc2NfMl91bmlzb25fZGV0dW5lIjogMTAsDQogICAgIm9zY18yX3VuaXNvbl92b2ljZXMiOiAxLA0KICAgICJvc2NfMl92b2x1bWUiOiAwLjU0NzcyMjU1NzQ5OTk5OTk4NDY0LA0KICAgICJvc2NfMl93YXZlZm9ybSI6IDQsDQogICAgIm9zY19mZWVkYmFja19hbW91bnQiOiAwLA0KICAgICJvc2NfZmVlZGJhY2tfdHJhbnNwb3NlIjogMCwNCiAgICAib3NjX2ZlZWRiYWNrX3R1bmUiOiAwLA0KICAgICJwaXRjaF9iZW5kX3JhbmdlIjogMiwNCiAgICAicG9seV9sZm9fYW1wbGl0dWRlIjogMSwNCiAgICAicG9seV9sZm9fZnJlcXVlbmN5IjogMSwNCiAgICAicG9seV9sZm9fc3luYyI6IDEsDQogICAgInBvbHlfbGZvX3RlbXBvIjogNywNCiAgICAicG9seV9sZm9fd2F2ZWZvcm0iOiAwLA0KICAgICJwb2x5cGhvbnkiOiA0LA0KICAgICJwb3J0YW1lbnRvIjogLTcsDQogICAgInBvcnRhbWVudG9fdHlwZSI6IDAsDQogICAgInJlc29uYW5jZSI6IDAsDQogICAgInJldmVyYl9kYW1waW5nIjogMC44MDQwMDAwMDAwMDAwMDAwNDc5NiwNCiAgICAicmV2ZXJiX2RyeV93ZXQiOiAwLjUsDQogICAgInJldmVyYl9mZWVkYmFjayI6IDAuOTAwMDAwMDAwMDAwMDAwMDIyMiwNCiAgICAicmV2ZXJiX29uIjogMSwNCiAgICAic3RlcF9mcmVxdWVuY3kiOiAyLA0KICAgICJzdGVwX3NlcV8wMCI6IDAsDQogICAgInN0ZXBfc2VxXzAxIjogMCwNCiAgICAic3RlcF9zZXFfMDIiOiAwLA0KICAgICJzdGVwX3NlcV8wMyI6IDAsDQogICAgInN0ZXBfc2VxXzA0IjogMCwNCiAgICAic3RlcF9zZXFfMDUiOiAwLA0KICAgICJzdGVwX3NlcV8wNiI6IDAsDQogICAgInN0ZXBfc2VxXzA3IjogMCwNCiAgICAic3RlcF9zZXFfMDgiOiAwLA0KICAgICJzdGVwX3NlcV8wOSI6IDAsDQogICAgInN0ZXBfc2VxXzEwIjogMCwNCiAgICAic3RlcF9zZXFfMTEiOiAwLA0KICAgICJzdGVwX3NlcV8xMiI6IDAsDQogICAgInN0ZXBfc2VxXzEzIjogMCwNCiAgICAic3RlcF9zZXFfMTQiOiAwLA0KICAgICJzdGVwX3NlcV8xNSI6IDAsDQogICAgInN0ZXBfc2VxXzE2IjogMCwNCiAgICAic3RlcF9zZXFfMTciOiAwLA0KICAgICJzdGVwX3NlcV8xOCI6IDAsDQogICAgInN0ZXBfc2VxXzE5IjogMCwNCiAgICAic3RlcF9zZXFfMjAiOiAwLA0KICAgICJzdGVwX3NlcV8yMSI6IDAsDQogICAgInN0ZXBfc2VxXzIyIjogMCwNCiAgICAic3RlcF9zZXFfMjMiOiAwLA0KICAgICJzdGVwX3NlcV8yNCI6IDAsDQogICAgInN0ZXBfc2VxXzI1IjogMCwNCiAgICAic3RlcF9zZXFfMjYiOiAwLA0KICAgICJzdGVwX3NlcV8yNyI6IDAsDQogICAgInN0ZXBfc2VxXzI4IjogMCwNCiAgICAic3RlcF9zZXFfMjkiOiAwLA0KICAgICJzdGVwX3NlcV8zMCI6IDAsDQogICAgInN0ZXBfc2VxXzMxIjogMCwNCiAgICAic3RlcF9zZXF1ZW5jZXJfcmV0cmlnZ2VyIjogMiwNCiAgICAic3RlcF9zZXF1ZW5jZXJfc3luYyI6IDEsDQogICAgInN0ZXBfc2VxdWVuY2VyX3RlbXBvIjogNywNCiAgICAic3RlcF9zbW9vdGhpbmciOiAwLA0KICAgICJzdHV0dGVyX2ZyZXF1ZW5jeSI6IDMsDQogICAgInN0dXR0ZXJfb24iOiAwLA0KICAgICJzdHV0dGVyX3Jlc2FtcGxlX2ZyZXF1ZW5jeSI6IDEsDQogICAgInN0dXR0ZXJfcmVzYW1wbGVfc3luYyI6IDEsDQogICAgInN0dXR0ZXJfcmVzYW1wbGVfdGVtcG8iOiA2LA0KICAgICJzdHV0dGVyX3NvZnRuZXNzIjogMC4yMDAwMDAwMDAwMDAwMDAwMTExLA0KICAgICJzdHV0dGVyX3N5bmMiOiAxLA0KICAgICJzdHV0dGVyX3RlbXBvIjogOCwNCiAgICAic3ViX29jdGF2ZSI6IDAsDQogICAgInN1Yl9zaHVmZmxlIjogMCwNCiAgICAic3ViX3ZvbHVtZSI6IDAsDQogICAgInN1Yl93YXZlZm9ybSI6IDIsDQogICAgInVuaXNvbl8xX2hhcm1vbml6ZSI6IDAsDQogICAgInVuaXNvbl8yX2hhcm1vbml6ZSI6IDAsDQogICAgInZlbG9jaXR5X3RyYWNrIjogMCwNCiAgICAidm9sdW1lIjogMCwNCiAgICAibW9kdWxhdGlvbnMiOiBbDQogICAgICB7DQogICAgICAgICJzb3VyY2UiOiAidmVsb2NpdHkiLA0KICAgICAgICAiZGVzdGluYXRpb24iOiAidm9sdW1lIiwNCiAgICAgICAgImFtb3VudCI6IDAuOTk5ODg1NDM4NDY0MjQ4MDQ0MTgNCiAgICAgIH0NCiAgICBdDQogIH0NCn0A"/>
          </instrument>
          <eldata ftype="0" fcut="14000" fwet="0" fres="0.5">
            <elvol sustain="0.5" lpdel="0" userwavefile="" lshp="0" lspd_denominator="4" ctlenvamt="0" lspd_numerator="4" rel="0.1" lspd_syncmode="0" amt="0" dec="0.5" x100="0" lspd="0.1" latt="0" att="0" lamt="0" hold="0.5" pdel="0"/>
            <elcut sustain="0.5" lpdel="0" userwavefile="" lshp="0" lspd_denominator="4" ctlenvamt="0" lspd_numerator="4" rel="0.1" lspd_syncmode="0" amt="0" dec="0.5" x100="0" lspd="0.1" latt="0" att="0" lamt="0" hold="0.5" pdel="0"/>
            <elres sustain="0.5" lpdel="0" userwavefile="" lshp="0" lspd_denominator="4" ctlenvamt="0" lspd_numerator="4" rel="0.1" lspd_syncmode="0" amt="0" dec="0.5" x100="0" lspd="0.1" latt="0" att="0" lamt="0" hold="0.5" pdel="0"/>
          </eldata>
          <chordcreator chord-enabled="0" chord="0" chordrange="1"/>
          <arpeggiator arprange="1" arpskip="0" arptime_numerator="4" arpgate="100" arpmiss="0" arpdir="0" arpmode="0" arp="0" arptime_syncmode="0" arptime="200" arpcycle="0" arptime_denominator="4" arp-enabled="0"/>
          <midiport writable="0" inputcontroller="0" readable="0" inputchannel="0" fixedoutputnote="-1" outputprogram="1" fixedinputvelocity="-1" basevelocity="63" fixedoutputvelocity="-1" outputcontroller="0" outputchannel="1"/>
          <fxchain numofeffects="0" enabled="0"/>
        </instrumenttrack>
        <pattern steps="16" type="1" name="BG2" pos="0" muted="0">
          <note pan="0" vol="55" key="47" len="11" pos="0"/>
          <note pan="0" vol="55" key="23" len="11" pos="0"/>
          <note pan="0" vol="55" key="47" len="12" pos="23"/>
          <note pan="0" vol="55" key="23" len="12" pos="23"/>
          <note pan="0" vol="55" key="47" len="12" pos="71"/>
          <note pan="0" vol="55" key="23" len="12" pos="71"/>
          <note pan="0" vol="55" key="47" len="12" pos="107"/>
          <note pan="0" vol="55" key="23" len="12" pos="107"/>
          <note pan="0" vol="55" key="47" len="12" pos="191"/>
          <note pan="0" vol="55" key="23" len="12" pos="191"/>
          <note pan="0" vol="55" key="47" len="12" pos="215"/>
          <note pan="0" vol="55" key="23" len="12" pos="215"/>
          <note pan="0" vol="55" key="47" len="12" pos="263"/>
          <note pan="0" vol="55" key="23" len="12" pos="263"/>
          <note pan="0" vol="55" key="47" len="12" pos="299"/>
          <note pan="0" vol="55" key="23" len="12" pos="299"/>
          <note pan="0" vol="55" key="47" len="12" pos="383"/>
          <note pan="0" vol="55" key="23" len="12" pos="383"/>
          <note pan="0" vol="55" key="47" len="12" pos="407"/>
          <note pan="0" vol="55" key="23" len="12" pos="407"/>
          <note pan="0" vol="55" key="47" len="12" pos="455"/>
          <note pan="0" vol="55" key="23" len="12" pos="455"/>
          <note pan="0" vol="55" key="47" len="12" pos="491"/>
          <note pan="0" vol="55" key="23" len="12" pos="491"/>
          <note pan="0" vol="55" key="47" len="12" pos="575"/>
          <note pan="0" vol="55" key="23" len="12" pos="575"/>
          <note pan="0" vol="55" key="47" len="12" pos="599"/>
          <note pan="0" vol="55" key="23" len="12" pos="599"/>
          <note pan="0" vol="55" key="47" len="12" pos="623"/>
          <note pan="0" vol="55" key="23" len="12" pos="623"/>
          <note pan="0" vol="55" key="47" len="12" pos="647"/>
          <note pan="0" vol="55" key="23" len="12" pos="647"/>
          <note pan="0" vol="55" key="47" len="12" pos="659"/>
          <note pan="0" vol="55" key="23" len="12" pos="659"/>
          <note pan="0" vol="55" key="47" len="12" pos="683"/>
          <note pan="0" vol="55" key="23" len="12" pos="683"/>
          <note pan="0" vol="55" key="47" len="12" pos="695"/>
          <note pan="0" vol="55" key="23" len="12" pos="695"/>
          <note pan="0" vol="55" key="47" len="12" pos="719"/>
          <note pan="0" vol="55" key="23" len="12" pos="719"/>
          <note pan="0" vol="55" key="47" len="12" pos="743"/>
          <note pan="0" vol="55" key="23" len="12" pos="743"/>
          <note pan="0" vol="55" key="47" len="11" pos="767"/>
          <note pan="0" vol="55" key="23" len="11" pos="767"/>
          <note pan="0" vol="55" key="47" len="12" pos="791"/>
          <note pan="0" vol="55" key="23" len="12" pos="791"/>
          <note pan="0" vol="55" key="47" len="12" pos="839"/>
          <note pan="0" vol="55" key="23" len="12" pos="839"/>
          <note pan="0" vol="55" key="47" len="12" pos="875"/>
          <note pan="0" vol="55" key="23" len="12" pos="875"/>
          <note pan="0" vol="55" key="47" len="12" pos="959"/>
          <note pan="0" vol="55" key="23" len="12" pos="959"/>
          <note pan="0" vol="55" key="47" len="12" pos="983"/>
          <note pan="0" vol="55" key="23" len="12" pos="983"/>
          <note pan="0" vol="55" key="47" len="12" pos="1031"/>
          <note pan="0" vol="55" key="23" len="12" pos="1031"/>
          <note pan="0" vol="55" key="47" len="12" pos="1067"/>
          <note pan="0" vol="55" key="23" len="12" pos="1067"/>
          <note pan="0" vol="55" key="47" len="12" pos="1151"/>
          <note pan="0" vol="55" key="23" len="12" pos="1151"/>
          <note pan="0" vol="55" key="47" len="12" pos="1175"/>
          <note pan="0" vol="55" key="23" len="12" pos="1175"/>
          <note pan="0" vol="55" key="47" len="12" pos="1223"/>
          <note pan="0" vol="55" key="23" len="12" pos="1223"/>
          <note pan="0" vol="55" key="47" len="12" pos="1259"/>
          <note pan="0" vol="55" key="23" len="12" pos="1259"/>
          <note pan="0" vol="55" key="47" len="12" pos="1343"/>
          <note pan="0" vol="55" key="23" len="12" pos="1343"/>
          <note pan="0" vol="55" key="47" len="12" pos="1367"/>
          <note pan="0" vol="55" key="23" len="12" pos="1367"/>
          <note pan="0" vol="55" key="47" len="12" pos="1391"/>
          <note pan="0" vol="55" key="23" len="12" pos="1391"/>
          <note pan="0" vol="55" key="47" len="12" pos="1415"/>
          <note pan="0" vol="55" key="23" len="12" pos="1415"/>
          <note pan="0" vol="55" key="47" len="12" pos="1427"/>
          <note pan="0" vol="55" key="23" len="12" pos="1427"/>
          <note pan="0" vol="55" key="47" len="12" pos="1451"/>
          <note pan="0" vol="55" key="23" len="12" pos="1451"/>
          <note pan="0" vol="55" key="47" len="12" pos="1463"/>
          <note pan="0" vol="55" key="23" len="12" pos="1463"/>
          <note pan="0" vol="55" key="47" len="12" pos="1487"/>
          <note pan="0" vol="55" key="23" len="12" pos="1487"/>
          <note pan="0" vol="55" key="47" len="12" pos="1511"/>
          <note pan="0" vol="55" key="23" len="12" pos="1511"/>
          <note pan="0" vol="55" key="47" len="11" pos="1535"/>
          <note pan="0" vol="55" key="23" len="11" pos="1535"/>
          <note pan="0" vol="55" key="47" len="12" pos="1559"/>
          <note pan="0" vol="55" key="23" len="12" pos="1559"/>
          <note pan="0" vol="55" key="47" len="12" pos="1607"/>
          <note pan="0" vol="55" key="23" len="12" pos="1607"/>
          <note pan="0" vol="55" key="47" len="12" pos="1643"/>
          <note pan="0" vol="55" key="23" len="12" pos="1643"/>
          <note pan="0" vol="55" key="47" len="12" pos="1727"/>
          <note pan="0" vol="55" key="23" len="12" pos="1727"/>
          <note pan="0" vol="55" key="47" len="12" pos="1751"/>
          <note pan="0" vol="55" key="23" len="12" pos="1751"/>
          <note pan="0" vol="55" key="47" len="12" pos="1799"/>
          <note pan="0" vol="55" key="23" len="12" pos="1799"/>
          <note pan="0" vol="55" key="47" len="12" pos="1835"/>
          <note pan="0" vol="55" key="23" len="12" pos="1835"/>
          <note pan="0" vol="55" key="47" len="12" pos="1919"/>
          <note pan="0" vol="55" key="23" len="12" pos="1919"/>
          <note pan="0" vol="55" key="47" len="12" pos="1943"/>
          <note pan="0" vol="55" key="23" len="12" pos="1943"/>
          <note pan="0" vol="55" key="47" len="12" pos="1991"/>
          <note pan="0" vol="55" key="23" len="12" pos="1991"/>
          <note pan="0" vol="55" key="47" len="12" pos="2027"/>
          <note pan="0" vol="55" key="23" len="12" pos="2027"/>
          <note pan="0" vol="55" key="47" len="12" pos="2111"/>
          <note pan="0" vol="55" key="23" len="12" pos="2111"/>
          <note pan="0" vol="55" key="47" len="12" pos="2135"/>
          <note pan="0" vol="55" key="23" len="12" pos="2135"/>
          <note pan="0" vol="55" key="47" len="12" pos="2159"/>
          <note pan="0" vol="55" key="23" len="12" pos="2159"/>
          <note pan="0" vol="55" key="47" len="12" pos="2183"/>
          <note pan="0" vol="55" key="23" len="12" pos="2183"/>
          <note pan="0" vol="55" key="47" len="12" pos="2195"/>
          <note pan="0" vol="55" key="23" len="12" pos="2195"/>
          <note pan="0" vol="55" key="47" len="12" pos="2219"/>
          <note pan="0" vol="55" key="23" len="12" pos="2219"/>
          <note pan="0" vol="55" key="47" len="12" pos="2231"/>
          <note pan="0" vol="55" key="23" len="12" pos="2231"/>
          <note pan="0" vol="55" key="47" len="12" pos="2255"/>
          <note pan="0" vol="55" key="23" len="12" pos="2255"/>
          <note pan="0" vol="55" key="47" len="12" pos="2279"/>
          <note pan="0" vol="55" key="23" len="12" pos="2279"/>
          <note pan="0" vol="55" key="47" len="11" pos="2303"/>
          <note pan="0" vol="55" key="23" len="11" pos="2303"/>
          <note pan="0" vol="55" key="47" len="12" pos="2327"/>
          <note pan="0" vol="55" key="23" len="12" pos="2327"/>
          <note pan="0" vol="55" key="47" len="12" pos="2375"/>
          <note pan="0" vol="55" key="23" len="12" pos="2375"/>
          <note pan="0" vol="55" key="47" len="12" pos="2411"/>
          <note pan="0" vol="55" key="23" len="12" pos="2411"/>
          <note pan="0" vol="55" key="47" len="12" pos="2495"/>
          <note pan="0" vol="55" key="23" len="12" pos="2495"/>
          <note pan="0" vol="55" key="47" len="12" pos="2519"/>
          <note pan="0" vol="55" key="23" len="12" pos="2519"/>
          <note pan="0" vol="55" key="47" len="12" pos="2567"/>
          <note pan="0" vol="55" key="23" len="12" pos="2567"/>
          <note pan="0" vol="55" key="47" len="12" pos="2603"/>
          <note pan="0" vol="55" key="23" len="12" pos="2603"/>
          <note pan="0" vol="55" key="47" len="12" pos="2687"/>
          <note pan="0" vol="55" key="23" len="12" pos="2687"/>
          <note pan="0" vol="55" key="47" len="12" pos="2711"/>
          <note pan="0" vol="55" key="23" len="12" pos="2711"/>
          <note pan="0" vol="55" key="47" len="12" pos="2759"/>
          <note pan="0" vol="55" key="23" len="12" pos="2759"/>
          <note pan="0" vol="55" key="47" len="12" pos="2795"/>
          <note pan="0" vol="55" key="23" len="12" pos="2795"/>
          <note pan="0" vol="55" key="47" len="12" pos="2879"/>
          <note pan="0" vol="55" key="23" len="12" pos="2879"/>
          <note pan="0" vol="55" key="47" len="12" pos="2903"/>
          <note pan="0" vol="55" key="23" len="12" pos="2903"/>
          <note pan="0" vol="55" key="47" len="12" pos="2927"/>
          <note pan="0" vol="55" key="23" len="12" pos="2927"/>
          <note pan="0" vol="55" key="47" len="12" pos="2951"/>
          <note pan="0" vol="55" key="23" len="12" pos="2951"/>
          <note pan="0" vol="55" key="47" len="12" pos="2963"/>
          <note pan="0" vol="55" key="23" len="12" pos="2963"/>
          <note pan="0" vol="55" key="47" len="12" pos="2987"/>
          <note pan="0" vol="55" key="23" len="12" pos="2987"/>
          <note pan="0" vol="55" key="47" len="12" pos="2999"/>
          <note pan="0" vol="55" key="23" len="12" pos="2999"/>
          <note pan="0" vol="55" key="47" len="12" pos="3023"/>
          <note pan="0" vol="55" key="23" len="12" pos="3023"/>
          <note pan="0" vol="55" key="47" len="12" pos="3047"/>
          <note pan="0" vol="55" key="23" len="12" pos="3047"/>
          <note pan="0" vol="55" key="47" len="11" pos="3071"/>
          <note pan="0" vol="55" key="23" len="11" pos="3071"/>
          <note pan="0" vol="55" key="47" len="12" pos="3095"/>
          <note pan="0" vol="55" key="23" len="12" pos="3095"/>
          <note pan="0" vol="55" key="47" len="12" pos="3143"/>
          <note pan="0" vol="55" key="23" len="12" pos="3143"/>
          <note pan="0" vol="55" key="47" len="12" pos="3179"/>
          <note pan="0" vol="55" key="23" len="12" pos="3179"/>
          <note pan="0" vol="55" key="47" len="12" pos="3263"/>
          <note pan="0" vol="55" key="23" len="12" pos="3263"/>
          <note pan="0" vol="55" key="47" len="12" pos="3287"/>
          <note pan="0" vol="55" key="23" len="12" pos="3287"/>
          <note pan="0" vol="55" key="47" len="12" pos="3335"/>
          <note pan="0" vol="55" key="23" len="12" pos="3335"/>
          <note pan="0" vol="55" key="47" len="12" pos="3371"/>
          <note pan="0" vol="55" key="23" len="12" pos="3371"/>
          <note pan="0" vol="55" key="47" len="12" pos="3455"/>
          <note pan="0" vol="55" key="23" len="12" pos="3455"/>
          <note pan="0" vol="55" key="47" len="12" pos="3479"/>
          <note pan="0" vol="55" key="23" len="12" pos="3479"/>
          <note pan="0" vol="55" key="47" len="12" pos="3527"/>
          <note pan="0" vol="55" key="23" len="12" pos="3527"/>
          <note pan="0" vol="55" key="47" len="12" pos="3563"/>
          <note pan="0" vol="55" key="23" len="12" pos="3563"/>
          <note pan="0" vol="55" key="47" len="12" pos="3647"/>
          <note pan="0" vol="55" key="23" len="12" pos="3647"/>
          <note pan="0" vol="55" key="47" len="12" pos="3671"/>
          <note pan="0" vol="55" key="23" len="12" pos="3671"/>
          <note pan="0" vol="55" key="47" len="12" pos="3695"/>
          <note pan="0" vol="55" key="23" len="12" pos="3695"/>
          <note pan="0" vol="55" key="47" len="12" pos="3719"/>
          <note pan="0" vol="55" key="23" len="12" pos="3719"/>
          <note pan="0" vol="55" key="47" len="12" pos="3731"/>
          <note pan="0" vol="55" key="23" len="12" pos="3731"/>
          <note pan="0" vol="55" key="47" len="12" pos="3755"/>
          <note pan="0" vol="55" key="23" len="12" pos="3755"/>
          <note pan="0" vol="55" key="47" len="12" pos="3767"/>
          <note pan="0" vol="55" key="23" len="12" pos="3767"/>
          <note pan="0" vol="55" key="47" len="12" pos="3791"/>
          <note pan="0" vol="55" key="23" len="12" pos="3791"/>
          <note pan="0" vol="55" key="47" len="12" pos="3815"/>
          <note pan="0" vol="55" key="23" len="12" pos="3815"/>
          <note pan="0" vol="55" key="47" len="11" pos="3839"/>
          <note pan="0" vol="55" key="23" len="11" pos="3839"/>
          <note pan="0" vol="55" key="47" len="12" pos="3863"/>
          <note pan="0" vol="55" key="23" len="12" pos="3863"/>
          <note pan="0" vol="55" key="47" len="12" pos="3911"/>
          <note pan="0" vol="55" key="23" len="12" pos="3911"/>
          <note pan="0" vol="55" key="47" len="12" pos="3947"/>
          <note pan="0" vol="55" key="23" len="12" pos="3947"/>
          <note pan="0" vol="55" key="47" len="12" pos="4031"/>
          <note pan="0" vol="55" key="23" len="12" pos="4031"/>
          <note pan="0" vol="55" key="47" len="12" pos="4055"/>
          <note pan="0" vol="55" key="23" len="12" pos="4055"/>
          <note pan="0" vol="55" key="47" len="12" pos="4103"/>
          <note pan="0" vol="55" key="23" len="12" pos="4103"/>
          <note pan="0" vol="55" key="47" len="12" pos="4139"/>
          <note pan="0" vol="55" key="23" len="12" pos="4139"/>
          <note pan="0" vol="55" key="47" len="12" pos="4223"/>
          <note pan="0" vol="55" key="23" len="12" pos="4223"/>
          <note pan="0" vol="55" key="47" len="12" pos="4247"/>
          <note pan="0" vol="55" key="23" len="12" pos="4247"/>
          <note pan="0" vol="55" key="47" len="12" pos="4295"/>
          <note pan="0" vol="55" key="23" len="12" pos="4295"/>
          <note pan="0" vol="55" key="47" len="12" pos="4331"/>
          <note pan="0" vol="55" key="23" len="12" pos="4331"/>
          <note pan="0" vol="55" key="47" len="12" pos="4415"/>
          <note pan="0" vol="55" key="23" len="12" pos="4415"/>
          <note pan="0" vol="55" key="47" len="12" pos="4439"/>
          <note pan="0" vol="55" key="23" len="12" pos="4439"/>
          <note pan="0" vol="55" key="47" len="12" pos="4463"/>
          <note pan="0" vol="55" key="23" len="12" pos="4463"/>
          <note pan="0" vol="55" key="47" len="12" pos="4487"/>
          <note pan="0" vol="55" key="23" len="12" pos="4487"/>
          <note pan="0" vol="55" key="47" len="12" pos="4499"/>
          <note pan="0" vol="55" key="23" len="12" pos="4499"/>
          <note pan="0" vol="55" key="47" len="12" pos="4523"/>
          <note pan="0" vol="55" key="23" len="12" pos="4523"/>
          <note pan="0" vol="55" key="47" len="12" pos="4535"/>
          <note pan="0" vol="55" key="23" len="12" pos="4535"/>
          <note pan="0" vol="55" key="47" len="12" pos="4559"/>
          <note pan="0" vol="55" key="23" len="12" pos="4559"/>
          <note pan="0" vol="55" key="47" len="12" pos="4583"/>
          <note pan="0" vol="55" key="23" len="12" pos="4583"/>
          <note pan="0" vol="55" key="47" len="11" pos="4607"/>
          <note pan="0" vol="55" key="23" len="11" pos="4607"/>
          <note pan="0" vol="55" key="47" len="12" pos="4631"/>
          <note pan="0" vol="55" key="23" len="12" pos="4631"/>
          <note pan="0" vol="55" key="47" len="12" pos="4679"/>
          <note pan="0" vol="55" key="23" len="12" pos="4679"/>
          <note pan="0" vol="55" key="47" len="12" pos="4715"/>
          <note pan="0" vol="55" key="23" len="12" pos="4715"/>
          <note pan="0" vol="55" key="47" len="12" pos="4799"/>
          <note pan="0" vol="55" key="23" len="12" pos="4799"/>
          <note pan="0" vol="55" key="47" len="12" pos="4823"/>
          <note pan="0" vol="55" key="23" len="12" pos="4823"/>
          <note pan="0" vol="55" key="47" len="12" pos="4871"/>
          <note pan="0" vol="55" key="23" len="12" pos="4871"/>
          <note pan="0" vol="55" key="47" len="12" pos="4907"/>
          <note pan="0" vol="55" key="23" len="12" pos="4907"/>
          <note pan="0" vol="55" key="47" len="12" pos="4991"/>
          <note pan="0" vol="55" key="23" len="12" pos="4991"/>
          <note pan="0" vol="55" key="47" len="12" pos="5015"/>
          <note pan="0" vol="55" key="23" len="12" pos="5015"/>
          <note pan="0" vol="55" key="47" len="12" pos="5063"/>
          <note pan="0" vol="55" key="23" len="12" pos="5063"/>
          <note pan="0" vol="55" key="47" len="12" pos="5099"/>
          <note pan="0" vol="55" key="23" len="12" pos="5099"/>
          <note pan="0" vol="55" key="47" len="12" pos="5183"/>
          <note pan="0" vol="55" key="23" len="12" pos="5183"/>
          <note pan="0" vol="55" key="47" len="12" pos="5207"/>
          <note pan="0" vol="55" key="23" len="12" pos="5207"/>
          <note pan="0" vol="55" key="47" len="12" pos="5231"/>
          <note pan="0" vol="55" key="23" len="12" pos="5231"/>
          <note pan="0" vol="55" key="47" len="12" pos="5255"/>
          <note pan="0" vol="55" key="23" len="12" pos="5255"/>
          <note pan="0" vol="55" key="47" len="12" pos="5267"/>
          <note pan="0" vol="55" key="23" len="12" pos="5267"/>
          <note pan="0" vol="55" key="47" len="12" pos="5291"/>
          <note pan="0" vol="55" key="23" len="12" pos="5291"/>
          <note pan="0" vol="55" key="47" len="12" pos="5303"/>
          <note pan="0" vol="55" key="23" len="12" pos="5303"/>
          <note pan="0" vol="55" key="47" len="12" pos="5327"/>
          <note pan="0" vol="55" key="23" len="12" pos="5327"/>
          <note pan="0" vol="55" key="47" len="12" pos="5351"/>
          <note pan="0" vol="55" key="23" len="12" pos="5351"/>
          <note pan="0" vol="55" key="47" len="11" pos="5375"/>
          <note pan="0" vol="55" key="23" len="11" pos="5375"/>
          <note pan="0" vol="55" key="47" len="12" pos="5399"/>
          <note pan="0" vol="55" key="23" len="12" pos="5399"/>
          <note pan="0" vol="55" key="47" len="12" pos="5447"/>
          <note pan="0" vol="55" key="23" len="12" pos="5447"/>
          <note pan="0" vol="55" key="47" len="12" pos="5483"/>
          <note pan="0" vol="55" key="23" len="12" pos="5483"/>
          <note pan="0" vol="55" key="47" len="12" pos="5567"/>
          <note pan="0" vol="55" key="23" len="12" pos="5567"/>
          <note pan="0" vol="55" key="47" len="12" pos="5591"/>
          <note pan="0" vol="55" key="23" len="12" pos="5591"/>
          <note pan="0" vol="55" key="47" len="12" pos="5639"/>
          <note pan="0" vol="55" key="23" len="12" pos="5639"/>
          <note pan="0" vol="55" key="47" len="12" pos="5675"/>
          <note pan="0" vol="55" key="23" len="12" pos="5675"/>
          <note pan="0" vol="55" key="47" len="12" pos="5759"/>
          <note pan="0" vol="55" key="23" len="12" pos="5759"/>
          <note pan="0" vol="55" key="47" len="12" pos="5783"/>
          <note pan="0" vol="55" key="23" len="12" pos="5783"/>
          <note pan="0" vol="55" key="47" len="12" pos="5831"/>
          <note pan="0" vol="55" key="23" len="12" pos="5831"/>
          <note pan="0" vol="55" key="47" len="12" pos="5867"/>
          <note pan="0" vol="55" key="23" len="12" pos="5867"/>
          <note pan="0" vol="55" key="47" len="12" pos="5951"/>
          <note pan="0" vol="55" key="23" len="12" pos="5951"/>
          <note pan="0" vol="55" key="47" len="12" pos="5975"/>
          <note pan="0" vol="55" key="23" len="12" pos="5975"/>
          <note pan="0" vol="55" key="47" len="12" pos="5999"/>
          <note pan="0" vol="55" key="23" len="12" pos="5999"/>
          <note pan="0" vol="55" key="47" len="12" pos="6023"/>
          <note pan="0" vol="55" key="23" len="12" pos="6023"/>
          <note pan="0" vol="55" key="47" len="12" pos="6035"/>
          <note pan="0" vol="55" key="23" len="12" pos="6035"/>
          <note pan="0" vol="55" key="47" len="12" pos="6059"/>
          <note pan="0" vol="55" key="23" len="12" pos="6059"/>
          <note pan="0" vol="55" key="47" len="12" pos="6071"/>
          <note pan="0" vol="55" key="23" len="12" pos="6071"/>
          <note pan="0" vol="55" key="47" len="12" pos="6095"/>
          <note pan="0" vol="55" key="23" len="12" pos="6095"/>
          <note pan="0" vol="55" key="47" len="12" pos="6119"/>
          <note pan="0" vol="55" key="23" len="12" pos="6119"/>
          <note pan="0" vol="55" key="47" len="11" pos="6143"/>
          <note pan="0" vol="55" key="23" len="11" pos="6143"/>
          <note pan="0" vol="55" key="47" len="12" pos="6167"/>
          <note pan="0" vol="55" key="23" len="12" pos="6167"/>
          <note pan="0" vol="55" key="47" len="12" pos="6215"/>
          <note pan="0" vol="55" key="23" len="12" pos="6215"/>
          <note pan="0" vol="55" key="47" len="12" pos="6251"/>
          <note pan="0" vol="55" key="23" len="12" pos="6251"/>
          <note pan="0" vol="55" key="47" len="12" pos="6335"/>
          <note pan="0" vol="55" key="23" len="12" pos="6335"/>
          <note pan="0" vol="55" key="47" len="12" pos="6359"/>
          <note pan="0" vol="55" key="23" len="12" pos="6359"/>
          <note pan="0" vol="55" key="47" len="12" pos="6407"/>
          <note pan="0" vol="55" key="23" len="12" pos="6407"/>
          <note pan="0" vol="55" key="47" len="12" pos="6443"/>
          <note pan="0" vol="55" key="23" len="12" pos="6443"/>
          <note pan="0" vol="55" key="47" len="12" pos="6527"/>
          <note pan="0" vol="55" key="23" len="12" pos="6527"/>
          <note pan="0" vol="55" key="47" len="12" pos="6551"/>
          <note pan="0" vol="55" key="23" len="12" pos="6551"/>
          <note pan="0" vol="55" key="47" len="12" pos="6599"/>
          <note pan="0" vol="55" key="23" len="12" pos="6599"/>
          <note pan="0" vol="55" key="47" len="12" pos="6635"/>
          <note pan="0" vol="55" key="23" len="12" pos="6635"/>
          <note pan="0" vol="55" key="47" len="12" pos="6719"/>
          <note pan="0" vol="55" key="23" len="12" pos="6719"/>
          <note pan="0" vol="55" key="47" len="12" pos="6743"/>
          <note pan="0" vol="55" key="23" len="12" pos="6743"/>
          <note pan="0" vol="55" key="47" len="12" pos="6767"/>
          <note pan="0" vol="55" key="23" len="12" pos="6767"/>
          <note pan="0" vol="55" key="47" len="12" pos="6791"/>
          <note pan="0" vol="55" key="23" len="12" pos="6791"/>
          <note pan="0" vol="55" key="47" len="12" pos="6803"/>
          <note pan="0" vol="55" key="23" len="12" pos="6803"/>
          <note pan="0" vol="55" key="47" len="12" pos="6827"/>
          <note pan="0" vol="55" key="23" len="12" pos="6827"/>
          <note pan="0" vol="55" key="47" len="12" pos="6839"/>
          <note pan="0" vol="55" key="23" len="12" pos="6839"/>
          <note pan="0" vol="55" key="47" len="12" pos="6863"/>
          <note pan="0" vol="55" key="23" len="12" pos="6863"/>
          <note pan="0" vol="55" key="47" len="12" pos="6887"/>
          <note pan="0" vol="55" key="23" len="12" pos="6887"/>
          <note pan="0" vol="55" key="47" len="11" pos="6911"/>
          <note pan="0" vol="55" key="23" len="11" pos="6911"/>
          <note pan="0" vol="55" key="47" len="12" pos="6935"/>
          <note pan="0" vol="55" key="23" len="12" pos="6935"/>
          <note pan="0" vol="55" key="47" len="12" pos="6983"/>
          <note pan="0" vol="55" key="23" len="12" pos="6983"/>
          <note pan="0" vol="55" key="47" len="12" pos="7019"/>
          <note pan="0" vol="55" key="23" len="12" pos="7019"/>
          <note pan="0" vol="55" key="47" len="12" pos="7103"/>
          <note pan="0" vol="55" key="23" len="12" pos="7103"/>
          <note pan="0" vol="55" key="47" len="12" pos="7127"/>
          <note pan="0" vol="55" key="23" len="12" pos="7127"/>
          <note pan="0" vol="55" key="47" len="12" pos="7175"/>
          <note pan="0" vol="55" key="23" len="12" pos="7175"/>
          <note pan="0" vol="55" key="47" len="12" pos="7211"/>
          <note pan="0" vol="55" key="23" len="12" pos="7211"/>
          <note pan="0" vol="55" key="47" len="12" pos="7295"/>
          <note pan="0" vol="55" key="23" len="12" pos="7295"/>
          <note pan="0" vol="55" key="47" len="12" pos="7319"/>
          <note pan="0" vol="55" key="23" len="12" pos="7319"/>
          <note pan="0" vol="55" key="47" len="12" pos="7367"/>
          <note pan="0" vol="55" key="23" len="12" pos="7367"/>
          <note pan="0" vol="55" key="47" len="12" pos="7403"/>
          <note pan="0" vol="55" key="23" len="12" pos="7403"/>
          <note pan="0" vol="55" key="47" len="12" pos="7487"/>
          <note pan="0" vol="55" key="23" len="12" pos="7487"/>
          <note pan="0" vol="55" key="47" len="12" pos="7511"/>
          <note pan="0" vol="55" key="23" len="12" pos="7511"/>
          <note pan="0" vol="55" key="47" len="12" pos="7535"/>
          <note pan="0" vol="55" key="23" len="12" pos="7535"/>
          <note pan="0" vol="55" key="47" len="12" pos="7559"/>
          <note pan="0" vol="55" key="23" len="12" pos="7559"/>
          <note pan="0" vol="55" key="47" len="12" pos="7571"/>
          <note pan="0" vol="55" key="23" len="12" pos="7571"/>
          <note pan="0" vol="55" key="47" len="12" pos="7595"/>
          <note pan="0" vol="55" key="23" len="12" pos="7595"/>
          <note pan="0" vol="55" key="47" len="12" pos="7607"/>
          <note pan="0" vol="55" key="23" len="12" pos="7607"/>
          <note pan="0" vol="55" key="47" len="12" pos="7631"/>
          <note pan="0" vol="55" key="23" len="12" pos="7631"/>
          <note pan="0" vol="55" key="47" len="12" pos="7655"/>
          <note pan="0" vol="55" key="23" len="12" pos="7655"/>
          <note pan="0" vol="55" key="47" len="11" pos="7679"/>
          <note pan="0" vol="55" key="23" len="11" pos="7679"/>
          <note pan="0" vol="55" key="47" len="12" pos="7703"/>
          <note pan="0" vol="55" key="23" len="12" pos="7703"/>
          <note pan="0" vol="55" key="47" len="12" pos="7751"/>
          <note pan="0" vol="55" key="23" len="12" pos="7751"/>
          <note pan="0" vol="55" key="47" len="12" pos="7787"/>
          <note pan="0" vol="55" key="23" len="12" pos="7787"/>
          <note pan="0" vol="55" key="47" len="12" pos="7871"/>
          <note pan="0" vol="55" key="23" len="12" pos="7871"/>
          <note pan="0" vol="55" key="47" len="12" pos="7895"/>
          <note pan="0" vol="55" key="23" len="12" pos="7895"/>
          <note pan="0" vol="55" key="47" len="12" pos="7943"/>
          <note pan="0" vol="55" key="23" len="12" pos="7943"/>
          <note pan="0" vol="55" key="47" len="12" pos="7979"/>
          <note pan="0" vol="55" key="23" len="12" pos="7979"/>
          <note pan="0" vol="55" key="47" len="12" pos="8063"/>
          <note pan="0" vol="55" key="23" len="12" pos="8063"/>
          <note pan="0" vol="55" key="47" len="12" pos="8087"/>
          <note pan="0" vol="55" key="23" len="12" pos="8087"/>
          <note pan="0" vol="55" key="47" len="12" pos="8135"/>
          <note pan="0" vol="55" key="23" len="12" pos="8135"/>
          <note pan="0" vol="55" key="47" len="12" pos="8171"/>
          <note pan="0" vol="55" key="23" len="12" pos="8171"/>
          <note pan="0" vol="55" key="47" len="12" pos="8255"/>
          <note pan="0" vol="55" key="23" len="12" pos="8255"/>
          <note pan="0" vol="55" key="47" len="12" pos="8279"/>
          <note pan="0" vol="55" key="23" len="12" pos="8279"/>
          <note pan="0" vol="55" key="47" len="12" pos="8303"/>
          <note pan="0" vol="55" key="23" len="12" pos="8303"/>
          <note pan="0" vol="55" key="47" len="12" pos="8327"/>
          <note pan="0" vol="55" key="23" len="12" pos="8327"/>
          <note pan="0" vol="55" key="47" len="12" pos="8339"/>
          <note pan="0" vol="55" key="23" len="12" pos="8339"/>
          <note pan="0" vol="55" key="47" len="12" pos="8363"/>
          <note pan="0" vol="55" key="23" len="12" pos="8363"/>
          <note pan="0" vol="55" key="47" len="12" pos="8375"/>
          <note pan="0" vol="55" key="23" len="12" pos="8375"/>
          <note pan="0" vol="55" key="47" len="12" pos="8399"/>
          <note pan="0" vol="55" key="23" len="12" pos="8399"/>
          <note pan="0" vol="55" key="47" len="12" pos="8423"/>
          <note pan="0" vol="55" key="23" len="12" pos="8423"/>
          <note pan="0" vol="55" key="47" len="11" pos="8447"/>
          <note pan="0" vol="55" key="23" len="11" pos="8447"/>
          <note pan="0" vol="55" key="47" len="12" pos="8471"/>
          <note pan="0" vol="55" key="23" len="12" pos="8471"/>
          <note pan="0" vol="55" key="47" len="12" pos="8519"/>
          <note pan="0" vol="55" key="23" len="12" pos="8519"/>
          <note pan="0" vol="55" key="47" len="12" pos="8555"/>
          <note pan="0" vol="55" key="23" len="12" pos="8555"/>
          <note pan="0" vol="55" key="47" len="12" pos="8639"/>
          <note pan="0" vol="55" key="23" len="12" pos="8639"/>
          <note pan="0" vol="55" key="47" len="12" pos="8663"/>
          <note pan="0" vol="55" key="23" len="12" pos="8663"/>
          <note pan="0" vol="55" key="47" len="12" pos="8711"/>
          <note pan="0" vol="55" key="23" len="12" pos="8711"/>
          <note pan="0" vol="55" key="47" len="12" pos="8747"/>
          <note pan="0" vol="55" key="23" len="12" pos="8747"/>
          <note pan="0" vol="55" key="47" len="12" pos="8831"/>
          <note pan="0" vol="55" key="23" len="12" pos="8831"/>
          <note pan="0" vol="55" key="47" len="12" pos="8855"/>
          <note pan="0" vol="55" key="23" len="12" pos="8855"/>
          <note pan="0" vol="55" key="47" len="12" pos="8903"/>
          <note pan="0" vol="55" key="23" len="12" pos="8903"/>
          <note pan="0" vol="55" key="47" len="12" pos="8939"/>
          <note pan="0" vol="55" key="23" len="12" pos="8939"/>
          <note pan="0" vol="55" key="47" len="12" pos="9023"/>
          <note pan="0" vol="55" key="23" len="12" pos="9023"/>
          <note pan="0" vol="55" key="47" len="12" pos="9047"/>
          <note pan="0" vol="55" key="23" len="12" pos="9047"/>
          <note pan="0" vol="55" key="47" len="12" pos="9071"/>
          <note pan="0" vol="55" key="23" len="12" pos="9071"/>
          <note pan="0" vol="55" key="47" len="12" pos="9095"/>
          <note pan="0" vol="55" key="23" len="12" pos="9095"/>
          <note pan="0" vol="55" key="47" len="12" pos="9107"/>
          <note pan="0" vol="55" key="23" len="12" pos="9107"/>
          <note pan="0" vol="55" key="47" len="12" pos="9131"/>
          <note pan="0" vol="55" key="23" len="12" pos="9131"/>
          <note pan="0" vol="55" key="47" len="12" pos="9143"/>
          <note pan="0" vol="55" key="23" len="12" pos="9143"/>
          <note pan="0" vol="55" key="47" len="12" pos="9167"/>
          <note pan="0" vol="55" key="23" len="12" pos="9167"/>
          <note pan="0" vol="55" key="47" len="12" pos="9191"/>
          <note pan="0" vol="55" key="23" len="12" pos="9191"/>
          <note pan="0" vol="55" key="47" len="11" pos="9215"/>
          <note pan="0" vol="55" key="23" len="11" pos="9215"/>
          <note pan="0" vol="55" key="47" len="12" pos="9239"/>
          <note pan="0" vol="55" key="23" len="12" pos="9239"/>
          <note pan="0" vol="55" key="47" len="12" pos="9287"/>
          <note pan="0" vol="55" key="23" len="12" pos="9287"/>
          <note pan="0" vol="55" key="47" len="12" pos="9323"/>
          <note pan="0" vol="55" key="23" len="12" pos="9323"/>
          <note pan="0" vol="55" key="47" len="12" pos="9407"/>
          <note pan="0" vol="55" key="23" len="12" pos="9407"/>
          <note pan="0" vol="55" key="47" len="12" pos="9431"/>
          <note pan="0" vol="55" key="23" len="12" pos="9431"/>
          <note pan="0" vol="55" key="47" len="12" pos="9479"/>
          <note pan="0" vol="55" key="23" len="12" pos="9479"/>
          <note pan="0" vol="55" key="47" len="12" pos="9515"/>
          <note pan="0" vol="55" key="23" len="12" pos="9515"/>
          <note pan="0" vol="55" key="47" len="12" pos="9599"/>
          <note pan="0" vol="55" key="23" len="12" pos="9599"/>
          <note pan="0" vol="55" key="47" len="12" pos="9623"/>
          <note pan="0" vol="55" key="23" len="12" pos="9623"/>
          <note pan="0" vol="55" key="47" len="12" pos="9671"/>
          <note pan="0" vol="55" key="23" len="12" pos="9671"/>
          <note pan="0" vol="55" key="47" len="12" pos="9707"/>
          <note pan="0" vol="55" key="23" len="12" pos="9707"/>
          <note pan="0" vol="55" key="47" len="12" pos="9791"/>
          <note pan="0" vol="55" key="23" len="12" pos="9791"/>
          <note pan="0" vol="55" key="47" len="12" pos="9815"/>
          <note pan="0" vol="55" key="23" len="12" pos="9815"/>
          <note pan="0" vol="55" key="47" len="12" pos="9839"/>
          <note pan="0" vol="55" key="23" len="12" pos="9839"/>
          <note pan="0" vol="55" key="47" len="12" pos="9863"/>
          <note pan="0" vol="55" key="23" len="12" pos="9863"/>
          <note pan="0" vol="55" key="47" len="12" pos="9875"/>
          <note pan="0" vol="55" key="23" len="12" pos="9875"/>
          <note pan="0" vol="55" key="47" len="12" pos="9899"/>
          <note pan="0" vol="55" key="23" len="12" pos="9899"/>
          <note pan="0" vol="55" key="47" len="12" pos="9911"/>
          <note pan="0" vol="55" key="23" len="12" pos="9911"/>
          <note pan="0" vol="55" key="47" len="12" pos="9935"/>
          <note pan="0" vol="55" key="23" len="12" pos="9935"/>
          <note pan="0" vol="55" key="47" len="12" pos="9959"/>
          <note pan="0" vol="55" key="23" len="12" pos="9959"/>
          <note pan="0" vol="55" key="47" len="11" pos="9983"/>
          <note pan="0" vol="55" key="23" len="11" pos="9983"/>
          <note pan="0" vol="55" key="47" len="12" pos="10007"/>
          <note pan="0" vol="55" key="23" len="12" pos="10007"/>
          <note pan="0" vol="55" key="47" len="12" pos="10055"/>
          <note pan="0" vol="55" key="23" len="12" pos="10055"/>
          <note pan="0" vol="55" key="47" len="12" pos="10091"/>
          <note pan="0" vol="55" key="23" len="12" pos="10091"/>
          <note pan="0" vol="55" key="47" len="12" pos="10175"/>
          <note pan="0" vol="55" key="23" len="12" pos="10175"/>
          <note pan="0" vol="55" key="47" len="12" pos="10199"/>
          <note pan="0" vol="55" key="23" len="12" pos="10199"/>
          <note pan="0" vol="55" key="47" len="12" pos="10247"/>
          <note pan="0" vol="55" key="23" len="12" pos="10247"/>
          <note pan="0" vol="55" key="47" len="12" pos="10283"/>
          <note pan="0" vol="55" key="23" len="12" pos="10283"/>
          <note pan="0" vol="55" key="47" len="12" pos="10367"/>
          <note pan="0" vol="55" key="23" len="12" pos="10367"/>
          <note pan="0" vol="55" key="47" len="12" pos="10391"/>
          <note pan="0" vol="55" key="23" len="12" pos="10391"/>
          <note pan="0" vol="55" key="47" len="12" pos="10439"/>
          <note pan="0" vol="55" key="23" len="12" pos="10439"/>
          <note pan="0" vol="55" key="47" len="12" pos="10475"/>
          <note pan="0" vol="55" key="23" len="12" pos="10475"/>
          <note pan="0" vol="55" key="47" len="12" pos="10559"/>
          <note pan="0" vol="55" key="23" len="12" pos="10559"/>
          <note pan="0" vol="55" key="47" len="12" pos="10583"/>
          <note pan="0" vol="55" key="23" len="12" pos="10583"/>
          <note pan="0" vol="55" key="47" len="12" pos="10607"/>
          <note pan="0" vol="55" key="23" len="12" pos="10607"/>
          <note pan="0" vol="55" key="47" len="12" pos="10631"/>
          <note pan="0" vol="55" key="23" len="12" pos="10631"/>
          <note pan="0" vol="55" key="47" len="12" pos="10643"/>
          <note pan="0" vol="55" key="23" len="12" pos="10643"/>
          <note pan="0" vol="55" key="47" len="12" pos="10667"/>
          <note pan="0" vol="55" key="23" len="12" pos="10667"/>
          <note pan="0" vol="55" key="47" len="12" pos="10679"/>
          <note pan="0" vol="55" key="23" len="12" pos="10679"/>
          <note pan="0" vol="55" key="47" len="12" pos="10703"/>
          <note pan="0" vol="55" key="23" len="12" pos="10703"/>
          <note pan="0" vol="55" key="47" len="12" pos="10727"/>
          <note pan="0" vol="55" key="23" len="12" pos="10727"/>
          <note pan="0" vol="55" key="47" len="11" pos="10751"/>
          <note pan="0" vol="55" key="23" len="11" pos="10751"/>
          <note pan="0" vol="55" key="47" len="12" pos="10775"/>
          <note pan="0" vol="55" key="23" len="12" pos="10775"/>
          <note pan="0" vol="55" key="47" len="12" pos="10823"/>
          <note pan="0" vol="55" key="23" len="12" pos="10823"/>
          <note pan="0" vol="55" key="47" len="12" pos="10859"/>
          <note pan="0" vol="55" key="23" len="12" pos="10859"/>
          <note pan="0" vol="55" key="47" len="12" pos="10943"/>
          <note pan="0" vol="55" key="23" len="12" pos="10943"/>
          <note pan="0" vol="55" key="47" len="12" pos="10967"/>
          <note pan="0" vol="55" key="23" len="12" pos="10967"/>
          <note pan="0" vol="55" key="47" len="12" pos="11015"/>
          <note pan="0" vol="55" key="23" len="12" pos="11015"/>
          <note pan="0" vol="55" key="47" len="12" pos="11051"/>
          <note pan="0" vol="55" key="23" len="12" pos="11051"/>
          <note pan="0" vol="55" key="47" len="12" pos="11135"/>
          <note pan="0" vol="55" key="23" len="12" pos="11135"/>
          <note pan="0" vol="55" key="47" len="12" pos="11159"/>
          <note pan="0" vol="55" key="23" len="12" pos="11159"/>
          <note pan="0" vol="55" key="47" len="12" pos="11207"/>
          <note pan="0" vol="55" key="23" len="12" pos="11207"/>
          <note pan="0" vol="55" key="47" len="12" pos="11243"/>
          <note pan="0" vol="55" key="23" len="12" pos="11243"/>
          <note pan="0" vol="55" key="47" len="12" pos="11327"/>
          <note pan="0" vol="55" key="23" len="12" pos="11327"/>
          <note pan="0" vol="55" key="47" len="12" pos="11351"/>
          <note pan="0" vol="55" key="23" len="12" pos="11351"/>
          <note pan="0" vol="55" key="47" len="12" pos="11375"/>
          <note pan="0" vol="55" key="23" len="12" pos="11375"/>
          <note pan="0" vol="55" key="47" len="12" pos="11399"/>
          <note pan="0" vol="55" key="23" len="12" pos="11399"/>
          <note pan="0" vol="55" key="47" len="12" pos="11411"/>
          <note pan="0" vol="55" key="23" len="12" pos="11411"/>
          <note pan="0" vol="55" key="47" len="12" pos="11435"/>
          <note pan="0" vol="55" key="23" len="12" pos="11435"/>
          <note pan="0" vol="55" key="47" len="12" pos="11447"/>
          <note pan="0" vol="55" key="23" len="12" pos="11447"/>
          <note pan="0" vol="55" key="47" len="12" pos="11471"/>
          <note pan="0" vol="55" key="23" len="12" pos="11471"/>
          <note pan="0" vol="55" key="47" len="12" pos="11495"/>
          <note pan="0" vol="55" key="23" len="12" pos="11495"/>
          <note pan="0" vol="55" key="47" len="11" pos="11519"/>
          <note pan="0" vol="55" key="23" len="11" pos="11519"/>
          <note pan="0" vol="55" key="47" len="12" pos="11543"/>
          <note pan="0" vol="55" key="23" len="12" pos="11543"/>
          <note pan="0" vol="55" key="47" len="12" pos="11591"/>
          <note pan="0" vol="55" key="23" len="12" pos="11591"/>
          <note pan="0" vol="55" key="47" len="12" pos="11627"/>
          <note pan="0" vol="55" key="23" len="12" pos="11627"/>
          <note pan="0" vol="55" key="47" len="12" pos="11711"/>
          <note pan="0" vol="55" key="23" len="12" pos="11711"/>
          <note pan="0" vol="55" key="47" len="12" pos="11735"/>
          <note pan="0" vol="55" key="23" len="12" pos="11735"/>
          <note pan="0" vol="55" key="47" len="12" pos="11783"/>
          <note pan="0" vol="55" key="23" len="12" pos="11783"/>
          <note pan="0" vol="55" key="47" len="12" pos="11819"/>
          <note pan="0" vol="55" key="23" len="12" pos="11819"/>
          <note pan="0" vol="55" key="47" len="12" pos="11903"/>
          <note pan="0" vol="55" key="23" len="12" pos="11903"/>
          <note pan="0" vol="55" key="47" len="12" pos="11927"/>
          <note pan="0" vol="55" key="23" len="12" pos="11927"/>
          <note pan="0" vol="55" key="47" len="12" pos="11975"/>
          <note pan="0" vol="55" key="23" len="12" pos="11975"/>
          <note pan="0" vol="55" key="47" len="12" pos="12011"/>
          <note pan="0" vol="55" key="23" len="12" pos="12011"/>
          <note pan="0" vol="55" key="47" len="12" pos="12095"/>
          <note pan="0" vol="55" key="23" len="12" pos="12095"/>
          <note pan="0" vol="55" key="47" len="12" pos="12119"/>
          <note pan="0" vol="55" key="23" len="12" pos="12119"/>
          <note pan="0" vol="55" key="47" len="12" pos="12143"/>
          <note pan="0" vol="55" key="23" len="12" pos="12143"/>
          <note pan="0" vol="55" key="47" len="12" pos="12167"/>
          <note pan="0" vol="55" key="23" len="12" pos="12167"/>
          <note pan="0" vol="55" key="47" len="12" pos="12179"/>
          <note pan="0" vol="55" key="23" len="12" pos="12179"/>
          <note pan="0" vol="55" key="47" len="12" pos="12203"/>
          <note pan="0" vol="55" key="23" len="12" pos="12203"/>
          <note pan="0" vol="55" key="47" len="12" pos="12215"/>
          <note pan="0" vol="55" key="23" len="12" pos="12215"/>
          <note pan="0" vol="55" key="47" len="12" pos="12239"/>
          <note pan="0" vol="55" key="23" len="12" pos="12239"/>
          <note pan="0" vol="55" key="47" len="12" pos="12263"/>
          <note pan="0" vol="55" key="23" len="12" pos="12263"/>
          <note pan="0" vol="55" key="47" len="11" pos="12287"/>
          <note pan="0" vol="55" key="23" len="11" pos="12287"/>
          <note pan="0" vol="55" key="47" len="12" pos="12311"/>
          <note pan="0" vol="55" key="23" len="12" pos="12311"/>
          <note pan="0" vol="55" key="47" len="12" pos="12359"/>
          <note pan="0" vol="55" key="23" len="12" pos="12359"/>
          <note pan="0" vol="55" key="47" len="12" pos="12395"/>
          <note pan="0" vol="55" key="23" len="12" pos="12395"/>
          <note pan="0" vol="55" key="47" len="12" pos="12479"/>
          <note pan="0" vol="55" key="23" len="12" pos="12479"/>
          <note pan="0" vol="55" key="47" len="12" pos="12503"/>
          <note pan="0" vol="55" key="23" len="12" pos="12503"/>
          <note pan="0" vol="55" key="47" len="12" pos="12551"/>
          <note pan="0" vol="55" key="23" len="12" pos="12551"/>
          <note pan="0" vol="55" key="47" len="12" pos="12587"/>
          <note pan="0" vol="55" key="23" len="12" pos="12587"/>
          <note pan="0" vol="25" key="47" len="12" pos="12671"/>
          <note pan="0" vol="25" key="23" len="12" pos="12671"/>
          <note pan="0" vol="25" key="47" len="12" pos="12695"/>
          <note pan="0" vol="25" key="23" len="12" pos="12695"/>
          <note pan="0" vol="25" key="47" len="12" pos="12743"/>
          <note pan="0" vol="25" key="23" len="12" pos="12743"/>
          <note pan="0" vol="25" key="47" len="12" pos="12779"/>
          <note pan="0" vol="25" key="23" len="12" pos="12779"/>
          <note pan="0" vol="25" key="47" len="12" pos="12863"/>
          <note pan="0" vol="25" key="23" len="12" pos="12863"/>
          <note pan="0" vol="25" key="47" len="12" pos="12887"/>
          <note pan="0" vol="25" key="23" len="12" pos="12887"/>
          <note pan="0" vol="25" key="47" len="12" pos="12911"/>
          <note pan="0" vol="25" key="23" len="12" pos="12911"/>
          <note pan="0" vol="25" key="47" len="12" pos="12935"/>
          <note pan="0" vol="25" key="23" len="12" pos="12935"/>
          <note pan="0" vol="25" key="47" len="12" pos="12947"/>
          <note pan="0" vol="25" key="23" len="12" pos="12947"/>
          <note pan="0" vol="25" key="47" len="12" pos="12971"/>
          <note pan="0" vol="25" key="23" len="12" pos="12971"/>
          <note pan="0" vol="25" key="47" len="12" pos="12983"/>
          <note pan="0" vol="25" key="23" len="12" pos="12983"/>
          <note pan="0" vol="25" key="47" len="12" pos="13007"/>
          <note pan="0" vol="25" key="23" len="12" pos="13007"/>
          <note pan="0" vol="25" key="47" len="12" pos="13031"/>
          <note pan="0" vol="25" key="23" len="12" pos="13031"/>
        </pattern>
      </track>
      <track solo="0" type="0" name="BG3" muted="0">
        <instrumenttrack pitch="0" pan="0" vol="132.8" pitchrange="2" fxch="0" usemasterpitch="1" basenote="57">
          <instrument name="vestige">
            <vestige program="0" plugin="C:/Program Files/VstPlugins/helm64.dll" guivisible="0" chunk="ew0KICAibGljZW5zZSI6ICJQYXRjaCAoYykgYnkgLiAgVGhpcyBwYXRjaCBpcyBsaWNlbnNlZCB1bmRlciBhIENyZWF0aXZlIENvbW1vbnMgQXR0cmlidXRpb24gNC4wIEludGVybmF0aW9uYWwgTGljZW5zZS4gIFlvdSBzaG91bGQgaGF2ZSByZWNlaXZlZCBhIGNvcHkgb2YgdGhlIGxpY2Vuc2UgYWxvbmcgd2l0aCB0aGlzIHdvcmsuICBJZiBub3QsIHNlZSA8aHR0cDovL2NyZWF0aXZlY29tbW9ucy5vcmcvbGljZW5zZXMvYnkvNC4wLz4uIiwNCiAgInN5bnRoX3ZlcnNpb24iOiAiMC45LjAiLA0KICAicGF0Y2hfbmFtZSI6ICIiLA0KICAiZm9sZGVyX25hbWUiOiAiIiwNCiAgImF1dGhvciI6ICIiLA0KICAic2V0dGluZ3MiOiB7DQogICAgImFtcF9hdHRhY2siOiAwLjEwOTU0NTAwMDAwMDAwMDAwMzQ4LA0KICAgICJhbXBfZGVjYXkiOiAwLjU4ODIzNTI5NDExNzY0NzA3ODQyLA0KICAgICJhbXBfcmVsZWFzZSI6IDAuMjk5OTk5OTk5OTk5OTk5OTg4OSwNCiAgICAiYW1wX3N1c3RhaW4iOiAwLjQ4NTI5NDExNzY0NzA1ODgyMDI2LA0KICAgICJhcnBfZnJlcXVlbmN5IjogMiwNCiAgICAiYXJwX2dhdGUiOiAwLjUsDQogICAgImFycF9vY3RhdmVzIjogMSwNCiAgICAiYXJwX29uIjogMCwNCiAgICAiYXJwX3BhdHRlcm4iOiAwLA0KICAgICJhcnBfc3luYyI6IDEsDQogICAgImFycF90ZW1wbyI6IDksDQogICAgImJlYXRzX3Blcl9taW51dGUiOiAxLjc1LA0KICAgICJjcm9zc19tb2R1bGF0aW9uIjogMCwNCiAgICAiY3V0b2ZmIjogMTI3LA0KICAgICJkZWxheV9kcnlfd2V0IjogMC41LA0KICAgICJkZWxheV9mZWVkYmFjayI6IDAuNDAwMDAwMDAwMDAwMDAwMDIyMiwNCiAgICAiZGVsYXlfZnJlcXVlbmN5IjogMiwNCiAgICAiZGVsYXlfb24iOiAwLA0KICAgICJkZWxheV9zeW5jIjogMSwNCiAgICAiZGVsYXlfdGVtcG8iOiA5LA0KICAgICJkaXN0b3J0aW9uX2RyaXZlIjogMCwNCiAgICAiZGlzdG9ydGlvbl9taXgiOiAxLA0KICAgICJkaXN0b3J0aW9uX29uIjogMCwNCiAgICAiZGlzdG9ydGlvbl90eXBlIjogMCwNCiAgICAiZmlsX2F0dGFjayI6IDAsDQogICAgImZpbF9kZWNheSI6IDEuNSwNCiAgICAiZmlsX2Vudl9kZXB0aCI6IDAsDQogICAgImZpbF9yZWxlYXNlIjogMS41LA0KICAgICJmaWxfc3VzdGFpbiI6IDAuNSwNCiAgICAiZmlsdGVyX2JsZW5kIjogMCwNCiAgICAiZmlsdGVyX2RyaXZlIjogMCwNCiAgICAiZmlsdGVyX29uIjogMSwNCiAgICAiZmlsdGVyX3NoZWxmIjogMCwNCiAgICAiZmlsdGVyX3N0eWxlIjogMCwNCiAgICAiZm9ybWFudF9vbiI6IDAsDQogICAgImZvcm1hbnRfeCI6IDAuNSwNCiAgICAiZm9ybWFudF95IjogMC41LA0KICAgICJrZXl0cmFjayI6IDAsDQogICAgImxlZ2F0byI6IDAsDQogICAgIm1vZF9hdHRhY2siOiAwLA0KICAgICJtb2RfZGVjYXkiOiAxLjUsDQogICAgIm1vZF9yZWxlYXNlIjogMS41LA0KICAgICJtb2Rfc3VzdGFpbiI6IDAuNSwNCiAgICAibW9ub19sZm9fMV9hbXBsaXR1ZGUiOiAxLA0KICAgICJtb25vX2xmb18xX2ZyZXF1ZW5jeSI6IDEsDQogICAgIm1vbm9fbGZvXzFfcmV0cmlnZ2VyIjogMiwNCiAgICAibW9ub19sZm9fMV9zeW5jIjogMSwNCiAgICAibW9ub19sZm9fMV90ZW1wbyI6IDYsDQogICAgIm1vbm9fbGZvXzFfd2F2ZWZvcm0iOiAwLA0KICAgICJtb25vX2xmb18yX2FtcGxpdHVkZSI6IDEsDQogICAgIm1vbm9fbGZvXzJfZnJlcXVlbmN5IjogMSwNCiAgICAibW9ub19sZm9fMl9yZXRyaWdnZXIiOiAyLA0KICAgICJtb25vX2xmb18yX3N5bmMiOiAxLA0KICAgICJtb25vX2xmb18yX3RlbXBvIjogNywNCiAgICAibW9ub19sZm9fMl93YXZlZm9ybSI6IDAsDQogICAgIm5vaXNlX3ZvbHVtZSI6IDAsDQogICAgIm51bV9zdGVwcyI6IDgsDQogICAgIm9zY18xX3RyYW5zcG9zZSI6IDAsDQogICAgIm9zY18xX3R1bmUiOiAwLA0KICAgICJvc2NfMV91bmlzb25fZGV0dW5lIjogNS42MDAwMDAwMDAwMDAwMDA1MzI5LA0KICAgICJvc2NfMV91bmlzb25fdm9pY2VzIjogNSwNCiAgICAib3NjXzFfdm9sdW1lIjogMC41LA0KICAgICJvc2NfMV93YXZlZm9ybSI6IDQsDQogICAgIm9zY18yX3RyYW5zcG9zZSI6IDAsDQogICAgIm9zY18yX3R1bmUiOiAtMS4xMTAyMjMwMjQ2MjUxNTY1NDA0ZS0xNiwNCiAgICAib3NjXzJfdW5pc29uX2RldHVuZSI6IDEwLjQwMDAwMDAwMDAwMDAwMDM1NSwNCiAgICAib3NjXzJfdW5pc29uX3ZvaWNlcyI6IDUsDQogICAgIm9zY18yX3ZvbHVtZSI6IDAuMzA2NDUxNjEyOTAzMjI1NzU2MzEsDQogICAgIm9zY18yX3dhdmVmb3JtIjogNCwNCiAgICAib3NjX2ZlZWRiYWNrX2Ftb3VudCI6IDAsDQogICAgIm9zY19mZWVkYmFja190cmFuc3Bvc2UiOiAwLA0KICAgICJvc2NfZmVlZGJhY2tfdHVuZSI6IDAsDQogICAgInBpdGNoX2JlbmRfcmFuZ2UiOiAyLA0KICAgICJwb2x5X2xmb19hbXBsaXR1ZGUiOiAxLA0KICAgICJwb2x5X2xmb19mcmVxdWVuY3kiOiAxLA0KICAgICJwb2x5X2xmb19zeW5jIjogMSwNCiAgICAicG9seV9sZm9fdGVtcG8iOiA3LA0KICAgICJwb2x5X2xmb193YXZlZm9ybSI6IDAsDQogICAgInBvbHlwaG9ueSI6IDQsDQogICAgInBvcnRhbWVudG8iOiAtNywNCiAgICAicG9ydGFtZW50b190eXBlIjogMCwNCiAgICAicmVzb25hbmNlIjogMCwNCiAgICAicmV2ZXJiX2RhbXBpbmciOiAwLjgwNDAwMDAwMDAwMDAwMDA0Nzk2LA0KICAgICJyZXZlcmJfZHJ5X3dldCI6IDAuNSwNCiAgICAicmV2ZXJiX2ZlZWRiYWNrIjogMC45MDAwMDAwMDAwMDAwMDAwMjIyLA0KICAgICJyZXZlcmJfb24iOiAxLA0KICAgICJzdGVwX2ZyZXF1ZW5jeSI6IDIsDQogICAgInN0ZXBfc2VxXzAwIjogMCwNCiAgICAic3RlcF9zZXFfMDEiOiAwLA0KICAgICJzdGVwX3NlcV8wMiI6IDAsDQogICAgInN0ZXBfc2VxXzAzIjogMCwNCiAgICAic3RlcF9zZXFfMDQiOiAwLA0KICAgICJzdGVwX3NlcV8wNSI6IDAsDQogICAgInN0ZXBfc2VxXzA2IjogMCwNCiAgICAic3RlcF9zZXFfMDciOiAwLA0KICAgICJzdGVwX3NlcV8wOCI6IDAsDQogICAgInN0ZXBfc2VxXzA5IjogMCwNCiAgICAic3RlcF9zZXFfMTAiOiAwLA0KICAgICJzdGVwX3NlcV8xMSI6IDAsDQogICAgInN0ZXBfc2VxXzEyIjogMCwNCiAgICAic3RlcF9zZXFfMTMiOiAwLA0KICAgICJzdGVwX3NlcV8xNCI6IDAsDQogICAgInN0ZXBfc2VxXzE1IjogMCwNCiAgICAic3RlcF9zZXFfMTYiOiAwLA0KICAgICJzdGVwX3NlcV8xNyI6IDAsDQogICAgInN0ZXBfc2VxXzE4IjogMCwNCiAgICAic3RlcF9zZXFfMTkiOiAwLA0KICAgICJzdGVwX3NlcV8yMCI6IDAsDQogICAgInN0ZXBfc2VxXzIxIjogMCwNCiAgICAic3RlcF9zZXFfMjIiOiAwLA0KICAgICJzdGVwX3NlcV8yMyI6IDAsDQogICAgInN0ZXBfc2VxXzI0IjogMCwNCiAgICAic3RlcF9zZXFfMjUiOiAwLA0KICAgICJzdGVwX3NlcV8yNiI6IDAsDQogICAgInN0ZXBfc2VxXzI3IjogMCwNCiAgICAic3RlcF9zZXFfMjgiOiAwLA0KICAgICJzdGVwX3NlcV8yOSI6IDAsDQogICAgInN0ZXBfc2VxXzMwIjogMCwNCiAgICAic3RlcF9zZXFfMzEiOiAwLA0KICAgICJzdGVwX3NlcXVlbmNlcl9yZXRyaWdnZXIiOiAyLA0KICAgICJzdGVwX3NlcXVlbmNlcl9zeW5jIjogMSwNCiAgICAic3RlcF9zZXF1ZW5jZXJfdGVtcG8iOiA3LA0KICAgICJzdGVwX3Ntb290aGluZyI6IDAsDQogICAgInN0dXR0ZXJfZnJlcXVlbmN5IjogMywNCiAgICAic3R1dHRlcl9vbiI6IDAsDQogICAgInN0dXR0ZXJfcmVzYW1wbGVfZnJlcXVlbmN5IjogMSwNCiAgICAic3R1dHRlcl9yZXNhbXBsZV9zeW5jIjogMSwNCiAgICAic3R1dHRlcl9yZXNhbXBsZV90ZW1wbyI6IDYsDQogICAgInN0dXR0ZXJfc29mdG5lc3MiOiAwLjIwMDAwMDAwMDAwMDAwMDAxMTEsDQogICAgInN0dXR0ZXJfc3luYyI6IDEsDQogICAgInN0dXR0ZXJfdGVtcG8iOiA4LA0KICAgICJzdWJfb2N0YXZlIjogMCwNCiAgICAic3ViX3NodWZmbGUiOiAwLA0KICAgICJzdWJfdm9sdW1lIjogMCwNCiAgICAic3ViX3dhdmVmb3JtIjogMiwNCiAgICAidW5pc29uXzFfaGFybW9uaXplIjogMCwNCiAgICAidW5pc29uXzJfaGFybW9uaXplIjogMCwNCiAgICAidmVsb2NpdHlfdHJhY2siOiAwLA0KICAgICJ2b2x1bWUiOiAwLA0KICAgICJtb2R1bGF0aW9ucyI6IFsNCiAgICAgIHsNCiAgICAgICAgInNvdXJjZSI6ICJ2ZWxvY2l0eSIsDQogICAgICAgICJkZXN0aW5hdGlvbiI6ICJ2b2x1bWUiLA0KICAgICAgICAiYW1vdW50IjogMC45OTk3OTAxODc1MzAwMzYzNDUwMQ0KICAgICAgfQ0KICAgIF0NCiAgfQ0KfQA="/>
          </instrument>
          <eldata ftype="0" fcut="14000" fwet="0" fres="0.5">
            <elvol sustain="0.5" lpdel="0" userwavefile="" lshp="0" lspd_denominator="4" ctlenvamt="0" lspd_numerator="4" rel="0.1" lspd_syncmode="0" amt="0" dec="0.5" x100="0" lspd="0.1" latt="0" att="0" lamt="0" hold="0.5" pdel="0"/>
            <elcut sustain="0.5" lpdel="0" userwavefile="" lshp="0" lspd_denominator="4" ctlenvamt="0" lspd_numerator="4" rel="0.1" lspd_syncmode="0" amt="0" dec="0.5" x100="0" lspd="0.1" latt="0" att="0" lamt="0" hold="0.5" pdel="0"/>
            <elres sustain="0.5" lpdel="0" userwavefile="" lshp="0" lspd_denominator="4" ctlenvamt="0" lspd_numerator="4" rel="0.1" lspd_syncmode="0" amt="0" dec="0.5" x100="0" lspd="0.1" latt="0" att="0" lamt="0" hold="0.5" pdel="0"/>
          </eldata>
          <chordcreator chord-enabled="0" chord="0" chordrange="1"/>
          <arpeggiator arprange="1" arpskip="0" arptime_numerator="4" arpgate="100" arpmiss="0" arpdir="0" arpmode="0" arp="0" arptime_syncmode="0" arptime="200" arpcycle="0" arptime_denominator="4" arp-enabled="0"/>
          <midiport writable="0" inputcontroller="0" readable="0" inputchannel="0" fixedoutputnote="-1" outputprogram="1" fixedinputvelocity="-1" basevelocity="63" fixedoutputvelocity="-1" outputcontroller="0" outputchannel="1"/>
          <fxchain numofeffects="0" enabled="0"/>
        </instrumenttrack>
        <pattern steps="16" type="1" name="BG3" pos="4608" muted="0">
          <note pan="0" vol="85" key="47" len="11" pos="0"/>
          <note pan="0" vol="85" key="35" len="192" pos="0"/>
          <note pan="0" vol="85" key="49" len="12" pos="12"/>
          <note pan="0" vol="85" key="47" len="12" pos="24"/>
          <note pan="0" vol="85" key="50" len="12" pos="36"/>
          <note pan="0" vol="85" key="47" len="12" pos="48"/>
          <note pan="0" vol="85" key="52" len="12" pos="60"/>
          <note pan="0" vol="85" key="47" len="12" pos="72"/>
          <note pan="0" vol="85" key="47" len="12" pos="84"/>
          <note pan="0" vol="85" key="47" len="12" pos="96"/>
          <note pan="0" vol="85" key="49" len="12" pos="108"/>
          <note pan="0" vol="85" key="47" len="12" pos="120"/>
          <note pan="0" vol="85" key="50" len="12" pos="132"/>
          <note pan="0" vol="85" key="47" len="12" pos="144"/>
          <note pan="0" vol="85" key="52" len="12" pos="156"/>
          <note pan="0" vol="85" key="47" len="12" pos="168"/>
          <note pan="0" vol="85" key="47" len="12" pos="180"/>
          <note pan="0" vol="85" key="50" len="12" pos="192"/>
          <note pan="0" vol="85" key="38" len="192" pos="192"/>
          <note pan="0" vol="85" key="52" len="12" pos="204"/>
          <note pan="0" vol="85" key="50" len="12" pos="216"/>
          <note pan="0" vol="85" key="55" len="12" pos="228"/>
          <note pan="0" vol="85" key="50" len="12" pos="240"/>
          <note pan="0" vol="85" key="54" len="12" pos="252"/>
          <note pan="0" vol="85" key="50" len="12" pos="264"/>
          <note pan="0" vol="85" key="50" len="12" pos="276"/>
          <note pan="0" vol="85" key="50" len="12" pos="288"/>
          <note pan="0" vol="85" key="52" len="12" pos="300"/>
          <note pan="0" vol="85" key="50" len="12" pos="312"/>
          <note pan="0" vol="85" key="55" len="12" pos="324"/>
          <note pan="0" vol="85" key="50" len="12" pos="336"/>
          <note pan="0" vol="85" key="54" len="12" pos="348"/>
          <note pan="0" vol="85" key="50" len="12" pos="360"/>
          <note pan="0" vol="85" key="50" len="12" pos="372"/>
          <note pan="0" vol="85" key="49" len="12" pos="384"/>
          <note pan="0" vol="85" key="37" len="192" pos="384"/>
          <note pan="0" vol="85" key="50" len="12" pos="396"/>
          <note pan="0" vol="85" key="49" len="12" pos="408"/>
          <note pan="0" vol="85" key="52" len="12" pos="420"/>
          <note pan="0" vol="85" key="49" len="12" pos="432"/>
          <note pan="0" vol="85" key="54" len="12" pos="444"/>
          <note pan="0" vol="85" key="49" len="12" pos="456"/>
          <note pan="0" vol="85" key="49" len="12" pos="468"/>
          <note pan="0" vol="85" key="49" len="12" pos="480"/>
          <note pan="0" vol="85" key="50" len="12" pos="492"/>
          <note pan="0" vol="85" key="49" len="12" pos="504"/>
          <note pan="0" vol="85" key="52" len="12" pos="516"/>
          <note pan="0" vol="85" key="49" len="12" pos="528"/>
          <note pan="0" vol="85" key="54" len="12" pos="540"/>
          <note pan="0" vol="85" key="49" len="12" pos="552"/>
          <note pan="0" vol="85" key="49" len="12" pos="564"/>
          <note pan="0" vol="85" key="45" len="12" pos="576"/>
          <note pan="0" vol="85" key="33" len="192" pos="576"/>
          <note pan="0" vol="85" key="47" len="12" pos="588"/>
          <note pan="0" vol="85" key="45" len="12" pos="600"/>
          <note pan="0" vol="85" key="49" len="12" pos="612"/>
          <note pan="0" vol="85" key="45" len="12" pos="624"/>
          <note pan="0" vol="85" key="50" len="12" pos="636"/>
          <note pan="0" vol="85" key="45" len="12" pos="648"/>
          <note pan="0" vol="85" key="45" len="12" pos="660"/>
          <note pan="0" vol="85" key="45" len="12" pos="672"/>
          <note pan="0" vol="85" key="47" len="12" pos="684"/>
          <note pan="0" vol="85" key="45" len="12" pos="696"/>
          <note pan="0" vol="85" key="52" len="12" pos="708"/>
          <note pan="0" vol="85" key="45" len="12" pos="720"/>
          <note pan="0" vol="85" key="50" len="12" pos="732"/>
          <note pan="0" vol="85" key="45" len="12" pos="744"/>
          <note pan="0" vol="85" key="49" len="12" pos="756"/>
          <note pan="0" vol="85" key="47" len="11" pos="768"/>
          <note pan="0" vol="85" key="35" len="192" pos="768"/>
          <note pan="0" vol="85" key="49" len="12" pos="780"/>
          <note pan="0" vol="85" key="47" len="12" pos="792"/>
          <note pan="0" vol="85" key="50" len="12" pos="804"/>
          <note pan="0" vol="85" key="47" len="12" pos="816"/>
          <note pan="0" vol="85" key="52" len="12" pos="828"/>
          <note pan="0" vol="85" key="47" len="12" pos="840"/>
          <note pan="0" vol="85" key="47" len="12" pos="852"/>
          <note pan="0" vol="85" key="47" len="12" pos="864"/>
          <note pan="0" vol="85" key="49" len="12" pos="876"/>
          <note pan="0" vol="85" key="47" len="12" pos="888"/>
          <note pan="0" vol="85" key="50" len="12" pos="900"/>
          <note pan="0" vol="85" key="47" len="12" pos="912"/>
          <note pan="0" vol="85" key="52" len="12" pos="924"/>
          <note pan="0" vol="85" key="47" len="12" pos="936"/>
          <note pan="0" vol="85" key="47" len="12" pos="948"/>
          <note pan="0" vol="85" key="50" len="12" pos="960"/>
          <note pan="0" vol="85" key="38" len="192" pos="960"/>
          <note pan="0" vol="85" key="52" len="12" pos="972"/>
          <note pan="0" vol="85" key="50" len="12" pos="984"/>
          <note pan="0" vol="85" key="55" len="12" pos="996"/>
          <note pan="0" vol="85" key="50" len="12" pos="1008"/>
          <note pan="0" vol="85" key="54" len="12" pos="1020"/>
          <note pan="0" vol="85" key="50" len="12" pos="1032"/>
          <note pan="0" vol="85" key="50" len="12" pos="1044"/>
          <note pan="0" vol="85" key="50" len="12" pos="1056"/>
          <note pan="0" vol="85" key="52" len="12" pos="1068"/>
          <note pan="0" vol="85" key="50" len="12" pos="1080"/>
          <note pan="0" vol="85" key="55" len="12" pos="1092"/>
          <note pan="0" vol="85" key="50" len="12" pos="1104"/>
          <note pan="0" vol="85" key="54" len="12" pos="1116"/>
          <note pan="0" vol="85" key="50" len="12" pos="1128"/>
          <note pan="0" vol="85" key="50" len="12" pos="1140"/>
          <note pan="0" vol="85" key="49" len="12" pos="1152"/>
          <note pan="0" vol="85" key="37" len="192" pos="1152"/>
          <note pan="0" vol="85" key="50" len="12" pos="1164"/>
          <note pan="0" vol="85" key="49" len="12" pos="1176"/>
          <note pan="0" vol="85" key="52" len="12" pos="1188"/>
          <note pan="0" vol="85" key="49" len="12" pos="1200"/>
          <note pan="0" vol="85" key="54" len="12" pos="1212"/>
          <note pan="0" vol="85" key="49" len="12" pos="1224"/>
          <note pan="0" vol="85" key="49" len="12" pos="1236"/>
          <note pan="0" vol="85" key="49" len="12" pos="1248"/>
          <note pan="0" vol="85" key="50" len="12" pos="1260"/>
          <note pan="0" vol="85" key="49" len="12" pos="1272"/>
          <note pan="0" vol="85" key="52" len="12" pos="1284"/>
          <note pan="0" vol="85" key="49" len="12" pos="1296"/>
          <note pan="0" vol="85" key="54" len="12" pos="1308"/>
          <note pan="0" vol="85" key="49" len="12" pos="1320"/>
          <note pan="0" vol="85" key="49" len="12" pos="1332"/>
          <note pan="0" vol="85" key="45" len="12" pos="1344"/>
          <note pan="0" vol="85" key="33" len="192" pos="1344"/>
          <note pan="0" vol="85" key="47" len="12" pos="1356"/>
          <note pan="0" vol="85" key="45" len="12" pos="1368"/>
          <note pan="0" vol="85" key="49" len="12" pos="1380"/>
          <note pan="0" vol="85" key="45" len="12" pos="1392"/>
          <note pan="0" vol="85" key="50" len="12" pos="1404"/>
          <note pan="0" vol="85" key="45" len="12" pos="1416"/>
          <note pan="0" vol="85" key="45" len="12" pos="1428"/>
          <note pan="0" vol="85" key="45" len="12" pos="1440"/>
          <note pan="0" vol="85" key="47" len="12" pos="1452"/>
          <note pan="0" vol="85" key="45" len="12" pos="1464"/>
          <note pan="0" vol="85" key="52" len="12" pos="1476"/>
          <note pan="0" vol="85" key="45" len="12" pos="1488"/>
          <note pan="0" vol="85" key="50" len="12" pos="1500"/>
          <note pan="0" vol="85" key="45" len="12" pos="1512"/>
          <note pan="0" vol="85" key="49" len="12" pos="1524"/>
          <note pan="0" vol="85" key="47" len="11" pos="1536"/>
          <note pan="0" vol="85" key="35" len="192" pos="1536"/>
          <note pan="0" vol="85" key="49" len="12" pos="1548"/>
          <note pan="0" vol="85" key="47" len="12" pos="1560"/>
          <note pan="0" vol="85" key="50" len="12" pos="1572"/>
          <note pan="0" vol="85" key="47" len="12" pos="1584"/>
          <note pan="0" vol="85" key="52" len="12" pos="1596"/>
          <note pan="0" vol="85" key="47" len="12" pos="1608"/>
          <note pan="0" vol="85" key="47" len="12" pos="1620"/>
          <note pan="0" vol="85" key="47" len="12" pos="1632"/>
          <note pan="0" vol="85" key="49" len="12" pos="1644"/>
          <note pan="0" vol="85" key="47" len="12" pos="1656"/>
          <note pan="0" vol="85" key="50" len="12" pos="1668"/>
          <note pan="0" vol="85" key="47" len="12" pos="1680"/>
          <note pan="0" vol="85" key="52" len="12" pos="1692"/>
          <note pan="0" vol="85" key="47" len="12" pos="1704"/>
          <note pan="0" vol="85" key="47" len="12" pos="1716"/>
          <note pan="0" vol="85" key="50" len="12" pos="1728"/>
          <note pan="0" vol="85" key="38" len="192" pos="1728"/>
          <note pan="0" vol="85" key="52" len="12" pos="1740"/>
          <note pan="0" vol="85" key="50" len="12" pos="1752"/>
          <note pan="0" vol="85" key="55" len="12" pos="1764"/>
          <note pan="0" vol="85" key="50" len="12" pos="1776"/>
          <note pan="0" vol="85" key="54" len="12" pos="1788"/>
          <note pan="0" vol="85" key="50" len="12" pos="1800"/>
          <note pan="0" vol="85" key="50" len="12" pos="1812"/>
          <note pan="0" vol="85" key="50" len="12" pos="1824"/>
          <note pan="0" vol="85" key="52" len="12" pos="1836"/>
          <note pan="0" vol="85" key="50" len="12" pos="1848"/>
          <note pan="0" vol="85" key="55" len="12" pos="1860"/>
          <note pan="0" vol="85" key="50" len="12" pos="1872"/>
          <note pan="0" vol="85" key="54" len="12" pos="1884"/>
          <note pan="0" vol="85" key="50" len="12" pos="1896"/>
          <note pan="0" vol="85" key="50" len="12" pos="1908"/>
          <note pan="0" vol="85" key="49" len="12" pos="1920"/>
          <note pan="0" vol="85" key="37" len="192" pos="1920"/>
          <note pan="0" vol="85" key="50" len="12" pos="1932"/>
          <note pan="0" vol="85" key="49" len="12" pos="1944"/>
          <note pan="0" vol="85" key="52" len="12" pos="1956"/>
          <note pan="0" vol="85" key="49" len="12" pos="1968"/>
          <note pan="0" vol="85" key="54" len="12" pos="1980"/>
          <note pan="0" vol="85" key="49" len="12" pos="1992"/>
          <note pan="0" vol="85" key="49" len="12" pos="2004"/>
          <note pan="0" vol="85" key="49" len="12" pos="2016"/>
          <note pan="0" vol="85" key="50" len="12" pos="2028"/>
          <note pan="0" vol="85" key="49" len="12" pos="2040"/>
          <note pan="0" vol="85" key="52" len="12" pos="2052"/>
          <note pan="0" vol="85" key="49" len="12" pos="2064"/>
          <note pan="0" vol="85" key="54" len="12" pos="2076"/>
          <note pan="0" vol="85" key="49" len="12" pos="2088"/>
          <note pan="0" vol="85" key="49" len="12" pos="2100"/>
          <note pan="0" vol="85" key="45" len="12" pos="2112"/>
          <note pan="0" vol="85" key="33" len="192" pos="2112"/>
          <note pan="0" vol="85" key="47" len="12" pos="2124"/>
          <note pan="0" vol="85" key="45" len="12" pos="2136"/>
          <note pan="0" vol="85" key="49" len="12" pos="2148"/>
          <note pan="0" vol="85" key="45" len="12" pos="2160"/>
          <note pan="0" vol="85" key="50" len="12" pos="2172"/>
          <note pan="0" vol="85" key="45" len="12" pos="2184"/>
          <note pan="0" vol="85" key="45" len="12" pos="2196"/>
          <note pan="0" vol="85" key="45" len="12" pos="2208"/>
          <note pan="0" vol="85" key="47" len="12" pos="2220"/>
          <note pan="0" vol="85" key="45" len="12" pos="2232"/>
          <note pan="0" vol="85" key="52" len="12" pos="2244"/>
          <note pan="0" vol="85" key="45" len="12" pos="2256"/>
          <note pan="0" vol="85" key="50" len="12" pos="2268"/>
          <note pan="0" vol="85" key="45" len="12" pos="2280"/>
          <note pan="0" vol="85" key="49" len="12" pos="2292"/>
          <note pan="0" vol="85" key="47" len="11" pos="2304"/>
          <note pan="0" vol="85" key="35" len="192" pos="2304"/>
          <note pan="0" vol="85" key="49" len="12" pos="2316"/>
          <note pan="0" vol="85" key="47" len="12" pos="2328"/>
          <note pan="0" vol="85" key="50" len="12" pos="2340"/>
          <note pan="0" vol="85" key="47" len="12" pos="2352"/>
          <note pan="0" vol="85" key="52" len="12" pos="2364"/>
          <note pan="0" vol="85" key="47" len="12" pos="2376"/>
          <note pan="0" vol="85" key="47" len="12" pos="2388"/>
          <note pan="0" vol="85" key="47" len="12" pos="2400"/>
          <note pan="0" vol="85" key="49" len="12" pos="2412"/>
          <note pan="0" vol="85" key="47" len="12" pos="2424"/>
          <note pan="0" vol="85" key="50" len="12" pos="2436"/>
          <note pan="0" vol="85" key="47" len="12" pos="2448"/>
          <note pan="0" vol="85" key="52" len="12" pos="2460"/>
          <note pan="0" vol="85" key="47" len="12" pos="2472"/>
          <note pan="0" vol="85" key="47" len="12" pos="2484"/>
          <note pan="0" vol="85" key="50" len="12" pos="2496"/>
          <note pan="0" vol="85" key="38" len="192" pos="2496"/>
          <note pan="0" vol="85" key="52" len="12" pos="2508"/>
          <note pan="0" vol="85" key="50" len="12" pos="2520"/>
          <note pan="0" vol="85" key="55" len="12" pos="2532"/>
          <note pan="0" vol="85" key="50" len="12" pos="2544"/>
          <note pan="0" vol="85" key="54" len="12" pos="2556"/>
          <note pan="0" vol="85" key="50" len="12" pos="2568"/>
          <note pan="0" vol="85" key="50" len="12" pos="2580"/>
          <note pan="0" vol="85" key="50" len="12" pos="2592"/>
          <note pan="0" vol="85" key="52" len="12" pos="2604"/>
          <note pan="0" vol="85" key="50" len="12" pos="2616"/>
          <note pan="0" vol="85" key="55" len="12" pos="2628"/>
          <note pan="0" vol="85" key="50" len="12" pos="2640"/>
          <note pan="0" vol="85" key="54" len="12" pos="2652"/>
          <note pan="0" vol="85" key="50" len="12" pos="2664"/>
          <note pan="0" vol="85" key="50" len="12" pos="2676"/>
          <note pan="0" vol="85" key="49" len="12" pos="2688"/>
          <note pan="0" vol="85" key="37" len="192" pos="2688"/>
          <note pan="0" vol="85" key="50" len="12" pos="2700"/>
          <note pan="0" vol="85" key="49" len="12" pos="2712"/>
          <note pan="0" vol="85" key="52" len="12" pos="2724"/>
          <note pan="0" vol="85" key="49" len="12" pos="2736"/>
          <note pan="0" vol="85" key="54" len="12" pos="2748"/>
          <note pan="0" vol="85" key="49" len="12" pos="2760"/>
          <note pan="0" vol="85" key="49" len="12" pos="2772"/>
          <note pan="0" vol="85" key="49" len="12" pos="2784"/>
          <note pan="0" vol="85" key="50" len="12" pos="2796"/>
          <note pan="0" vol="85" key="49" len="12" pos="2808"/>
          <note pan="0" vol="85" key="52" len="12" pos="2820"/>
          <note pan="0" vol="85" key="49" len="12" pos="2832"/>
          <note pan="0" vol="85" key="54" len="12" pos="2844"/>
          <note pan="0" vol="85" key="49" len="12" pos="2856"/>
          <note pan="0" vol="85" key="49" len="12" pos="2868"/>
          <note pan="0" vol="85" key="45" len="12" pos="2880"/>
          <note pan="0" vol="85" key="33" len="192" pos="2880"/>
          <note pan="0" vol="85" key="47" len="12" pos="2892"/>
          <note pan="0" vol="85" key="45" len="12" pos="2904"/>
          <note pan="0" vol="85" key="49" len="12" pos="2916"/>
          <note pan="0" vol="85" key="45" len="12" pos="2928"/>
          <note pan="0" vol="85" key="50" len="12" pos="2940"/>
          <note pan="0" vol="85" key="45" len="12" pos="2952"/>
          <note pan="0" vol="85" key="45" len="12" pos="2964"/>
          <note pan="0" vol="85" key="45" len="12" pos="2976"/>
          <note pan="0" vol="85" key="47" len="12" pos="2988"/>
          <note pan="0" vol="85" key="45" len="12" pos="3000"/>
          <note pan="0" vol="85" key="52" len="12" pos="3012"/>
          <note pan="0" vol="85" key="45" len="12" pos="3024"/>
          <note pan="0" vol="85" key="50" len="12" pos="3036"/>
          <note pan="0" vol="85" key="45" len="12" pos="3048"/>
          <note pan="0" vol="85" key="49" len="12" pos="3060"/>
          <note pan="0" vol="75" key="47" len="11" pos="3072"/>
          <note pan="0" vol="75" key="35" len="192" pos="3072"/>
          <note pan="0" vol="75" key="49" len="12" pos="3084"/>
          <note pan="0" vol="75" key="47" len="12" pos="3096"/>
          <note pan="0" vol="75" key="50" len="12" pos="3108"/>
          <note pan="0" vol="75" key="47" len="12" pos="3120"/>
          <note pan="0" vol="75" key="52" len="12" pos="3132"/>
          <note pan="0" vol="75" key="47" len="12" pos="3144"/>
          <note pan="0" vol="75" key="47" len="12" pos="3156"/>
          <note pan="0" vol="75" key="47" len="12" pos="3168"/>
          <note pan="0" vol="75" key="49" len="12" pos="3180"/>
          <note pan="0" vol="75" key="47" len="12" pos="3192"/>
          <note pan="0" vol="75" key="50" len="12" pos="3204"/>
          <note pan="0" vol="75" key="47" len="12" pos="3216"/>
          <note pan="0" vol="75" key="52" len="12" pos="3228"/>
          <note pan="0" vol="75" key="47" len="12" pos="3240"/>
          <note pan="0" vol="75" key="47" len="12" pos="3252"/>
          <note pan="0" vol="75" key="50" len="12" pos="3264"/>
          <note pan="0" vol="75" key="38" len="192" pos="3264"/>
          <note pan="0" vol="75" key="52" len="12" pos="3276"/>
          <note pan="0" vol="75" key="50" len="12" pos="3288"/>
          <note pan="0" vol="75" key="55" len="12" pos="3300"/>
          <note pan="0" vol="75" key="50" len="12" pos="3312"/>
          <note pan="0" vol="75" key="54" len="12" pos="3324"/>
          <note pan="0" vol="75" key="50" len="12" pos="3336"/>
          <note pan="0" vol="75" key="50" len="12" pos="3348"/>
          <note pan="0" vol="75" key="50" len="12" pos="3360"/>
          <note pan="0" vol="75" key="52" len="12" pos="3372"/>
          <note pan="0" vol="75" key="50" len="12" pos="3384"/>
          <note pan="0" vol="75" key="55" len="12" pos="3396"/>
          <note pan="0" vol="75" key="50" len="12" pos="3408"/>
          <note pan="0" vol="75" key="54" len="12" pos="3420"/>
          <note pan="0" vol="75" key="50" len="12" pos="3432"/>
          <note pan="0" vol="75" key="50" len="12" pos="3444"/>
          <note pan="0" vol="75" key="49" len="12" pos="3456"/>
          <note pan="0" vol="75" key="37" len="192" pos="3456"/>
          <note pan="0" vol="75" key="50" len="12" pos="3468"/>
          <note pan="0" vol="75" key="49" len="12" pos="3480"/>
          <note pan="0" vol="75" key="52" len="12" pos="3492"/>
          <note pan="0" vol="75" key="49" len="12" pos="3504"/>
          <note pan="0" vol="75" key="54" len="12" pos="3516"/>
          <note pan="0" vol="75" key="49" len="12" pos="3528"/>
          <note pan="0" vol="75" key="49" len="12" pos="3540"/>
          <note pan="0" vol="75" key="49" len="12" pos="3552"/>
          <note pan="0" vol="75" key="50" len="12" pos="3564"/>
          <note pan="0" vol="75" key="49" len="12" pos="3576"/>
          <note pan="0" vol="75" key="52" len="12" pos="3588"/>
          <note pan="0" vol="75" key="49" len="12" pos="3600"/>
          <note pan="0" vol="75" key="54" len="12" pos="3612"/>
          <note pan="0" vol="75" key="49" len="12" pos="3624"/>
          <note pan="0" vol="75" key="49" len="12" pos="3636"/>
          <note pan="0" vol="75" key="45" len="12" pos="3648"/>
          <note pan="0" vol="75" key="33" len="192" pos="3648"/>
          <note pan="0" vol="75" key="47" len="12" pos="3660"/>
          <note pan="0" vol="75" key="45" len="12" pos="3672"/>
          <note pan="0" vol="75" key="49" len="12" pos="3684"/>
          <note pan="0" vol="75" key="45" len="12" pos="3696"/>
          <note pan="0" vol="75" key="50" len="12" pos="3708"/>
          <note pan="0" vol="75" key="45" len="12" pos="3720"/>
          <note pan="0" vol="75" key="45" len="12" pos="3732"/>
          <note pan="0" vol="75" key="45" len="12" pos="3744"/>
          <note pan="0" vol="75" key="47" len="12" pos="3756"/>
          <note pan="0" vol="75" key="45" len="12" pos="3768"/>
          <note pan="0" vol="75" key="52" len="12" pos="3780"/>
          <note pan="0" vol="75" key="45" len="12" pos="3792"/>
          <note pan="0" vol="75" key="50" len="12" pos="3804"/>
          <note pan="0" vol="75" key="45" len="12" pos="3816"/>
          <note pan="0" vol="75" key="49" len="12" pos="3828"/>
          <note pan="0" vol="75" key="47" len="11" pos="3840"/>
          <note pan="0" vol="75" key="35" len="192" pos="3840"/>
          <note pan="0" vol="75" key="49" len="12" pos="3852"/>
          <note pan="0" vol="75" key="47" len="12" pos="3864"/>
          <note pan="0" vol="75" key="50" len="12" pos="3876"/>
          <note pan="0" vol="75" key="47" len="12" pos="3888"/>
          <note pan="0" vol="75" key="52" len="12" pos="3900"/>
          <note pan="0" vol="75" key="47" len="12" pos="3912"/>
          <note pan="0" vol="75" key="47" len="12" pos="3924"/>
          <note pan="0" vol="75" key="47" len="12" pos="3936"/>
          <note pan="0" vol="75" key="49" len="12" pos="3948"/>
          <note pan="0" vol="75" key="47" len="12" pos="3960"/>
          <note pan="0" vol="75" key="50" len="12" pos="3972"/>
          <note pan="0" vol="75" key="47" len="12" pos="3984"/>
          <note pan="0" vol="75" key="52" len="12" pos="3996"/>
          <note pan="0" vol="75" key="47" len="12" pos="4008"/>
          <note pan="0" vol="75" key="47" len="12" pos="4020"/>
          <note pan="0" vol="75" key="50" len="12" pos="4032"/>
          <note pan="0" vol="75" key="38" len="192" pos="4032"/>
          <note pan="0" vol="75" key="52" len="12" pos="4044"/>
          <note pan="0" vol="75" key="50" len="12" pos="4056"/>
          <note pan="0" vol="75" key="55" len="12" pos="4068"/>
          <note pan="0" vol="75" key="50" len="12" pos="4080"/>
          <note pan="0" vol="75" key="54" len="12" pos="4092"/>
          <note pan="0" vol="75" key="50" len="12" pos="4104"/>
          <note pan="0" vol="75" key="50" len="12" pos="4116"/>
          <note pan="0" vol="75" key="50" len="12" pos="4128"/>
          <note pan="0" vol="75" key="52" len="12" pos="4140"/>
          <note pan="0" vol="75" key="50" len="12" pos="4152"/>
          <note pan="0" vol="75" key="55" len="12" pos="4164"/>
          <note pan="0" vol="75" key="50" len="12" pos="4176"/>
          <note pan="0" vol="75" key="54" len="12" pos="4188"/>
          <note pan="0" vol="75" key="50" len="12" pos="4200"/>
          <note pan="0" vol="75" key="50" len="12" pos="4212"/>
          <note pan="0" vol="75" key="49" len="12" pos="4224"/>
          <note pan="0" vol="75" key="37" len="192" pos="4224"/>
          <note pan="0" vol="75" key="50" len="12" pos="4236"/>
          <note pan="0" vol="75" key="49" len="12" pos="4248"/>
          <note pan="0" vol="75" key="52" len="12" pos="4260"/>
          <note pan="0" vol="75" key="49" len="12" pos="4272"/>
          <note pan="0" vol="75" key="54" len="12" pos="4284"/>
          <note pan="0" vol="75" key="49" len="12" pos="4296"/>
          <note pan="0" vol="75" key="49" len="12" pos="4308"/>
          <note pan="0" vol="75" key="49" len="12" pos="4320"/>
          <note pan="0" vol="75" key="50" len="12" pos="4332"/>
          <note pan="0" vol="75" key="49" len="12" pos="4344"/>
          <note pan="0" vol="75" key="52" len="12" pos="4356"/>
          <note pan="0" vol="75" key="49" len="12" pos="4368"/>
          <note pan="0" vol="75" key="54" len="12" pos="4380"/>
          <note pan="0" vol="75" key="49" len="12" pos="4392"/>
          <note pan="0" vol="75" key="49" len="12" pos="4404"/>
          <note pan="0" vol="75" key="45" len="12" pos="4416"/>
          <note pan="0" vol="75" key="33" len="192" pos="4416"/>
          <note pan="0" vol="75" key="47" len="12" pos="4428"/>
          <note pan="0" vol="75" key="45" len="12" pos="4440"/>
          <note pan="0" vol="75" key="49" len="12" pos="4452"/>
          <note pan="0" vol="75" key="45" len="12" pos="4464"/>
          <note pan="0" vol="75" key="50" len="12" pos="4476"/>
          <note pan="0" vol="75" key="45" len="12" pos="4488"/>
          <note pan="0" vol="75" key="45" len="12" pos="4500"/>
          <note pan="0" vol="75" key="45" len="12" pos="4512"/>
          <note pan="0" vol="75" key="47" len="12" pos="4524"/>
          <note pan="0" vol="75" key="45" len="12" pos="4536"/>
          <note pan="0" vol="75" key="52" len="12" pos="4548"/>
          <note pan="0" vol="75" key="45" len="12" pos="4560"/>
          <note pan="0" vol="75" key="50" len="12" pos="4572"/>
          <note pan="0" vol="75" key="45" len="12" pos="4584"/>
          <note pan="0" vol="75" key="49" len="12" pos="4596"/>
          <note pan="0" vol="75" key="47" len="11" pos="4608"/>
          <note pan="0" vol="75" key="35" len="192" pos="4608"/>
          <note pan="0" vol="75" key="49" len="12" pos="4620"/>
          <note pan="0" vol="75" key="47" len="12" pos="4632"/>
          <note pan="0" vol="75" key="50" len="12" pos="4644"/>
          <note pan="0" vol="75" key="47" len="12" pos="4656"/>
          <note pan="0" vol="75" key="52" len="12" pos="4668"/>
          <note pan="0" vol="75" key="47" len="12" pos="4680"/>
          <note pan="0" vol="75" key="47" len="12" pos="4692"/>
          <note pan="0" vol="75" key="47" len="12" pos="4704"/>
          <note pan="0" vol="75" key="49" len="12" pos="4716"/>
          <note pan="0" vol="75" key="47" len="12" pos="4728"/>
          <note pan="0" vol="75" key="50" len="12" pos="4740"/>
          <note pan="0" vol="75" key="47" len="12" pos="4752"/>
          <note pan="0" vol="75" key="52" len="12" pos="4764"/>
          <note pan="0" vol="75" key="47" len="12" pos="4776"/>
          <note pan="0" vol="75" key="47" len="12" pos="4788"/>
          <note pan="0" vol="75" key="50" len="12" pos="4800"/>
          <note pan="0" vol="75" key="38" len="192" pos="4800"/>
          <note pan="0" vol="75" key="52" len="12" pos="4812"/>
          <note pan="0" vol="75" key="50" len="12" pos="4824"/>
          <note pan="0" vol="75" key="55" len="12" pos="4836"/>
          <note pan="0" vol="75" key="50" len="12" pos="4848"/>
          <note pan="0" vol="75" key="54" len="12" pos="4860"/>
          <note pan="0" vol="75" key="50" len="12" pos="4872"/>
          <note pan="0" vol="75" key="50" len="12" pos="4884"/>
          <note pan="0" vol="75" key="50" len="12" pos="4896"/>
          <note pan="0" vol="75" key="52" len="12" pos="4908"/>
          <note pan="0" vol="75" key="50" len="12" pos="4920"/>
          <note pan="0" vol="75" key="55" len="12" pos="4932"/>
          <note pan="0" vol="75" key="50" len="12" pos="4944"/>
          <note pan="0" vol="75" key="54" len="12" pos="4956"/>
          <note pan="0" vol="75" key="50" len="12" pos="4968"/>
          <note pan="0" vol="75" key="50" len="12" pos="4980"/>
          <note pan="0" vol="75" key="49" len="12" pos="4992"/>
          <note pan="0" vol="75" key="37" len="192" pos="4992"/>
          <note pan="0" vol="75" key="50" len="12" pos="5004"/>
          <note pan="0" vol="75" key="49" len="12" pos="5016"/>
          <note pan="0" vol="75" key="52" len="12" pos="5028"/>
          <note pan="0" vol="75" key="49" len="12" pos="5040"/>
          <note pan="0" vol="75" key="54" len="12" pos="5052"/>
          <note pan="0" vol="75" key="49" len="12" pos="5064"/>
          <note pan="0" vol="75" key="49" len="12" pos="5076"/>
          <note pan="0" vol="75" key="49" len="12" pos="5088"/>
          <note pan="0" vol="75" key="50" len="12" pos="5100"/>
          <note pan="0" vol="75" key="49" len="12" pos="5112"/>
          <note pan="0" vol="75" key="52" len="12" pos="5124"/>
          <note pan="0" vol="75" key="49" len="12" pos="5136"/>
          <note pan="0" vol="75" key="54" len="12" pos="5148"/>
          <note pan="0" vol="75" key="49" len="12" pos="5160"/>
          <note pan="0" vol="75" key="49" len="12" pos="5172"/>
          <note pan="0" vol="75" key="45" len="12" pos="5184"/>
          <note pan="0" vol="75" key="33" len="192" pos="5184"/>
          <note pan="0" vol="75" key="47" len="12" pos="5196"/>
          <note pan="0" vol="75" key="45" len="12" pos="5208"/>
          <note pan="0" vol="75" key="49" len="12" pos="5220"/>
          <note pan="0" vol="75" key="45" len="12" pos="5232"/>
          <note pan="0" vol="75" key="50" len="12" pos="5244"/>
          <note pan="0" vol="75" key="45" len="12" pos="5256"/>
          <note pan="0" vol="75" key="45" len="12" pos="5268"/>
          <note pan="0" vol="75" key="45" len="12" pos="5280"/>
          <note pan="0" vol="75" key="47" len="12" pos="5292"/>
          <note pan="0" vol="75" key="45" len="12" pos="5304"/>
          <note pan="0" vol="75" key="52" len="12" pos="5316"/>
          <note pan="0" vol="75" key="45" len="12" pos="5328"/>
          <note pan="0" vol="75" key="50" len="12" pos="5340"/>
          <note pan="0" vol="75" key="45" len="12" pos="5352"/>
          <note pan="0" vol="75" key="49" len="12" pos="5364"/>
          <note pan="0" vol="75" key="47" len="11" pos="5376"/>
          <note pan="0" vol="75" key="35" len="192" pos="5376"/>
          <note pan="0" vol="75" key="49" len="12" pos="5388"/>
          <note pan="0" vol="75" key="47" len="12" pos="5400"/>
          <note pan="0" vol="75" key="50" len="12" pos="5412"/>
          <note pan="0" vol="75" key="47" len="12" pos="5424"/>
          <note pan="0" vol="75" key="52" len="12" pos="5436"/>
          <note pan="0" vol="75" key="47" len="12" pos="5448"/>
          <note pan="0" vol="75" key="47" len="12" pos="5460"/>
          <note pan="0" vol="75" key="47" len="12" pos="5472"/>
          <note pan="0" vol="75" key="49" len="12" pos="5484"/>
          <note pan="0" vol="75" key="47" len="12" pos="5496"/>
          <note pan="0" vol="75" key="50" len="12" pos="5508"/>
          <note pan="0" vol="75" key="47" len="12" pos="5520"/>
          <note pan="0" vol="75" key="52" len="12" pos="5532"/>
          <note pan="0" vol="75" key="47" len="12" pos="5544"/>
          <note pan="0" vol="75" key="47" len="12" pos="5556"/>
          <note pan="0" vol="75" key="50" len="12" pos="5568"/>
          <note pan="0" vol="75" key="38" len="192" pos="5568"/>
          <note pan="0" vol="75" key="52" len="12" pos="5580"/>
          <note pan="0" vol="75" key="50" len="12" pos="5592"/>
          <note pan="0" vol="75" key="55" len="12" pos="5604"/>
          <note pan="0" vol="75" key="50" len="12" pos="5616"/>
          <note pan="0" vol="75" key="54" len="12" pos="5628"/>
          <note pan="0" vol="75" key="50" len="12" pos="5640"/>
          <note pan="0" vol="75" key="50" len="12" pos="5652"/>
          <note pan="0" vol="75" key="50" len="12" pos="5664"/>
          <note pan="0" vol="75" key="52" len="12" pos="5676"/>
          <note pan="0" vol="75" key="50" len="12" pos="5688"/>
          <note pan="0" vol="75" key="55" len="12" pos="5700"/>
          <note pan="0" vol="75" key="50" len="12" pos="5712"/>
          <note pan="0" vol="75" key="54" len="12" pos="5724"/>
          <note pan="0" vol="75" key="50" len="12" pos="5736"/>
          <note pan="0" vol="75" key="50" len="12" pos="5748"/>
          <note pan="0" vol="75" key="49" len="12" pos="5760"/>
          <note pan="0" vol="75" key="37" len="192" pos="5760"/>
          <note pan="0" vol="75" key="50" len="12" pos="5772"/>
          <note pan="0" vol="75" key="49" len="12" pos="5784"/>
          <note pan="0" vol="75" key="52" len="12" pos="5796"/>
          <note pan="0" vol="75" key="49" len="12" pos="5808"/>
          <note pan="0" vol="75" key="54" len="12" pos="5820"/>
          <note pan="0" vol="75" key="49" len="12" pos="5832"/>
          <note pan="0" vol="75" key="49" len="12" pos="5844"/>
          <note pan="0" vol="75" key="49" len="12" pos="5856"/>
          <note pan="0" vol="75" key="50" len="12" pos="5868"/>
          <note pan="0" vol="75" key="49" len="12" pos="5880"/>
          <note pan="0" vol="75" key="52" len="12" pos="5892"/>
          <note pan="0" vol="75" key="49" len="12" pos="5904"/>
          <note pan="0" vol="75" key="54" len="12" pos="5916"/>
          <note pan="0" vol="75" key="49" len="12" pos="5928"/>
          <note pan="0" vol="75" key="49" len="12" pos="5940"/>
          <note pan="0" vol="75" key="45" len="12" pos="5952"/>
          <note pan="0" vol="75" key="33" len="192" pos="5952"/>
          <note pan="0" vol="75" key="47" len="12" pos="5964"/>
          <note pan="0" vol="75" key="45" len="12" pos="5976"/>
          <note pan="0" vol="75" key="49" len="12" pos="5988"/>
          <note pan="0" vol="75" key="45" len="12" pos="6000"/>
          <note pan="0" vol="75" key="50" len="12" pos="6012"/>
          <note pan="0" vol="75" key="45" len="12" pos="6024"/>
          <note pan="0" vol="75" key="45" len="12" pos="6036"/>
          <note pan="0" vol="75" key="45" len="12" pos="6048"/>
          <note pan="0" vol="75" key="47" len="12" pos="6060"/>
          <note pan="0" vol="75" key="45" len="12" pos="6072"/>
          <note pan="0" vol="75" key="52" len="12" pos="6084"/>
          <note pan="0" vol="75" key="45" len="12" pos="6096"/>
          <note pan="0" vol="75" key="50" len="12" pos="6108"/>
          <note pan="0" vol="75" key="45" len="12" pos="6120"/>
          <note pan="0" vol="75" key="49" len="12" pos="6132"/>
          <note pan="0" vol="75" key="47" len="11" pos="6144"/>
          <note pan="0" vol="75" key="35" len="192" pos="6144"/>
          <note pan="0" vol="75" key="49" len="12" pos="6156"/>
          <note pan="0" vol="75" key="47" len="12" pos="6168"/>
          <note pan="0" vol="75" key="50" len="12" pos="6180"/>
          <note pan="0" vol="75" key="47" len="12" pos="6192"/>
          <note pan="0" vol="75" key="52" len="12" pos="6204"/>
          <note pan="0" vol="75" key="47" len="12" pos="6216"/>
          <note pan="0" vol="75" key="47" len="12" pos="6228"/>
          <note pan="0" vol="75" key="47" len="12" pos="6240"/>
          <note pan="0" vol="75" key="49" len="12" pos="6252"/>
          <note pan="0" vol="75" key="47" len="12" pos="6264"/>
          <note pan="0" vol="75" key="50" len="12" pos="6276"/>
          <note pan="0" vol="75" key="47" len="12" pos="6288"/>
          <note pan="0" vol="75" key="52" len="12" pos="6300"/>
          <note pan="0" vol="75" key="47" len="12" pos="6312"/>
          <note pan="0" vol="75" key="47" len="12" pos="6324"/>
          <note pan="0" vol="75" key="50" len="12" pos="6336"/>
          <note pan="0" vol="75" key="38" len="192" pos="6336"/>
          <note pan="0" vol="75" key="52" len="12" pos="6348"/>
          <note pan="0" vol="75" key="50" len="12" pos="6360"/>
          <note pan="0" vol="75" key="55" len="12" pos="6372"/>
          <note pan="0" vol="75" key="50" len="12" pos="6384"/>
          <note pan="0" vol="75" key="54" len="12" pos="6396"/>
          <note pan="0" vol="75" key="50" len="12" pos="6408"/>
          <note pan="0" vol="75" key="50" len="12" pos="6420"/>
          <note pan="0" vol="75" key="50" len="12" pos="6432"/>
          <note pan="0" vol="75" key="52" len="12" pos="6444"/>
          <note pan="0" vol="75" key="50" len="12" pos="6456"/>
          <note pan="0" vol="75" key="55" len="12" pos="6468"/>
          <note pan="0" vol="75" key="50" len="12" pos="6480"/>
          <note pan="0" vol="75" key="54" len="12" pos="6492"/>
          <note pan="0" vol="75" key="50" len="12" pos="6504"/>
          <note pan="0" vol="75" key="50" len="12" pos="6516"/>
          <note pan="0" vol="75" key="49" len="12" pos="6528"/>
          <note pan="0" vol="75" key="37" len="192" pos="6528"/>
          <note pan="0" vol="75" key="50" len="12" pos="6540"/>
          <note pan="0" vol="75" key="49" len="12" pos="6552"/>
          <note pan="0" vol="75" key="52" len="12" pos="6564"/>
          <note pan="0" vol="75" key="49" len="12" pos="6576"/>
          <note pan="0" vol="75" key="54" len="12" pos="6588"/>
          <note pan="0" vol="75" key="49" len="12" pos="6600"/>
          <note pan="0" vol="75" key="49" len="12" pos="6612"/>
          <note pan="0" vol="75" key="49" len="12" pos="6624"/>
          <note pan="0" vol="75" key="50" len="12" pos="6636"/>
          <note pan="0" vol="75" key="49" len="12" pos="6648"/>
          <note pan="0" vol="75" key="52" len="12" pos="6660"/>
          <note pan="0" vol="75" key="49" len="12" pos="6672"/>
          <note pan="0" vol="75" key="54" len="12" pos="6684"/>
          <note pan="0" vol="75" key="49" len="12" pos="6696"/>
          <note pan="0" vol="75" key="49" len="12" pos="6708"/>
          <note pan="0" vol="75" key="45" len="12" pos="6720"/>
          <note pan="0" vol="75" key="33" len="192" pos="6720"/>
          <note pan="0" vol="75" key="47" len="12" pos="6732"/>
          <note pan="0" vol="75" key="45" len="12" pos="6744"/>
          <note pan="0" vol="75" key="49" len="12" pos="6756"/>
          <note pan="0" vol="75" key="45" len="12" pos="6768"/>
          <note pan="0" vol="75" key="50" len="12" pos="6780"/>
          <note pan="0" vol="75" key="45" len="12" pos="6792"/>
          <note pan="0" vol="75" key="45" len="12" pos="6804"/>
          <note pan="0" vol="75" key="45" len="12" pos="6816"/>
          <note pan="0" vol="75" key="47" len="12" pos="6828"/>
          <note pan="0" vol="75" key="45" len="12" pos="6840"/>
          <note pan="0" vol="75" key="52" len="12" pos="6852"/>
          <note pan="0" vol="75" key="45" len="12" pos="6864"/>
          <note pan="0" vol="75" key="50" len="12" pos="6876"/>
          <note pan="0" vol="75" key="45" len="12" pos="6888"/>
          <note pan="0" vol="75" key="49" len="12" pos="6900"/>
          <note pan="0" vol="75" key="47" len="11" pos="6912"/>
          <note pan="0" vol="75" key="35" len="192" pos="6912"/>
          <note pan="0" vol="75" key="49" len="12" pos="6924"/>
          <note pan="0" vol="75" key="47" len="12" pos="6936"/>
          <note pan="0" vol="75" key="50" len="12" pos="6948"/>
          <note pan="0" vol="75" key="47" len="12" pos="6960"/>
          <note pan="0" vol="75" key="52" len="12" pos="6972"/>
          <note pan="0" vol="75" key="47" len="12" pos="6984"/>
          <note pan="0" vol="75" key="47" len="12" pos="6996"/>
          <note pan="0" vol="75" key="47" len="12" pos="7008"/>
          <note pan="0" vol="75" key="49" len="12" pos="7020"/>
          <note pan="0" vol="75" key="47" len="12" pos="7032"/>
          <note pan="0" vol="75" key="50" len="12" pos="7044"/>
          <note pan="0" vol="75" key="47" len="12" pos="7056"/>
          <note pan="0" vol="75" key="52" len="12" pos="7068"/>
          <note pan="0" vol="75" key="47" len="12" pos="7080"/>
          <note pan="0" vol="75" key="47" len="12" pos="7092"/>
          <note pan="0" vol="75" key="50" len="12" pos="7104"/>
          <note pan="0" vol="75" key="38" len="192" pos="7104"/>
          <note pan="0" vol="75" key="52" len="12" pos="7116"/>
          <note pan="0" vol="75" key="50" len="12" pos="7128"/>
          <note pan="0" vol="75" key="55" len="12" pos="7140"/>
          <note pan="0" vol="75" key="50" len="12" pos="7152"/>
          <note pan="0" vol="75" key="54" len="12" pos="7164"/>
          <note pan="0" vol="75" key="50" len="12" pos="7176"/>
          <note pan="0" vol="75" key="50" len="12" pos="7188"/>
          <note pan="0" vol="75" key="50" len="12" pos="7200"/>
          <note pan="0" vol="75" key="52" len="12" pos="7212"/>
          <note pan="0" vol="75" key="50" len="12" pos="7224"/>
          <note pan="0" vol="75" key="55" len="12" pos="7236"/>
          <note pan="0" vol="75" key="50" len="12" pos="7248"/>
          <note pan="0" vol="75" key="54" len="12" pos="7260"/>
          <note pan="0" vol="75" key="50" len="12" pos="7272"/>
          <note pan="0" vol="75" key="50" len="12" pos="7284"/>
          <note pan="0" vol="75" key="49" len="12" pos="7296"/>
          <note pan="0" vol="75" key="37" len="192" pos="7296"/>
          <note pan="0" vol="75" key="50" len="12" pos="7308"/>
          <note pan="0" vol="75" key="49" len="12" pos="7320"/>
          <note pan="0" vol="75" key="52" len="12" pos="7332"/>
          <note pan="0" vol="75" key="49" len="12" pos="7344"/>
          <note pan="0" vol="75" key="54" len="12" pos="7356"/>
          <note pan="0" vol="75" key="49" len="12" pos="7368"/>
          <note pan="0" vol="75" key="49" len="12" pos="7380"/>
          <note pan="0" vol="75" key="49" len="12" pos="7392"/>
          <note pan="0" vol="75" key="50" len="12" pos="7404"/>
          <note pan="0" vol="75" key="49" len="12" pos="7416"/>
          <note pan="0" vol="75" key="52" len="12" pos="7428"/>
          <note pan="0" vol="75" key="49" len="12" pos="7440"/>
          <note pan="0" vol="75" key="54" len="12" pos="7452"/>
          <note pan="0" vol="75" key="49" len="12" pos="7464"/>
          <note pan="0" vol="75" key="49" len="12" pos="7476"/>
          <note pan="0" vol="75" key="45" len="12" pos="7488"/>
          <note pan="0" vol="75" key="33" len="192" pos="7488"/>
          <note pan="0" vol="75" key="47" len="12" pos="7500"/>
          <note pan="0" vol="75" key="45" len="12" pos="7512"/>
          <note pan="0" vol="75" key="49" len="12" pos="7524"/>
          <note pan="0" vol="75" key="45" len="12" pos="7536"/>
          <note pan="0" vol="75" key="50" len="12" pos="7548"/>
          <note pan="0" vol="75" key="45" len="12" pos="7560"/>
          <note pan="0" vol="75" key="45" len="12" pos="7572"/>
          <note pan="0" vol="75" key="45" len="12" pos="7584"/>
          <note pan="0" vol="75" key="47" len="12" pos="7596"/>
          <note pan="0" vol="75" key="45" len="12" pos="7608"/>
          <note pan="0" vol="75" key="52" len="12" pos="7620"/>
          <note pan="0" vol="75" key="45" len="12" pos="7632"/>
          <note pan="0" vol="75" key="50" len="12" pos="7644"/>
          <note pan="0" vol="75" key="45" len="12" pos="7656"/>
          <note pan="0" vol="75" key="49" len="12" pos="7668"/>
        </pattern>
      </track>
      <track solo="0" type="0" name="BG4" muted="0">
        <instrumenttrack pitch="0" pan="0" vol="159.2" pitchrange="1" fxch="0" usemasterpitch="1" basenote="57">
          <instrument name="vestige">
            <vestige program="0" plugin="C:/Program Files/VstPlugins/helm64.dll" guivisible="0" chunk="ew0KICAibGljZW5zZSI6ICJQYXRjaCAoYykgYnkgLiAgVGhpcyBwYXRjaCBpcyBsaWNlbnNlZCB1bmRlciBhIENyZWF0aXZlIENvbW1vbnMgQXR0cmlidXRpb24gNC4wIEludGVybmF0aW9uYWwgTGljZW5zZS4gIFlvdSBzaG91bGQgaGF2ZSByZWNlaXZlZCBhIGNvcHkgb2YgdGhlIGxpY2Vuc2UgYWxvbmcgd2l0aCB0aGlzIHdvcmsuICBJZiBub3QsIHNlZSA8aHR0cDovL2NyZWF0aXZlY29tbW9ucy5vcmcvbGljZW5zZXMvYnkvNC4wLz4uIiwNCiAgInN5bnRoX3ZlcnNpb24iOiAiMC45LjAiLA0KICAicGF0Y2hfbmFtZSI6ICIiLA0KICAiZm9sZGVyX25hbWUiOiAiIiwNCiAgImF1dGhvciI6ICIiLA0KICAic2V0dGluZ3MiOiB7DQogICAgImFtcF9hdHRhY2siOiAwLjEwOTU0NTAwMDAwMDAwMDAwMzQ4LA0KICAgICJhbXBfZGVjYXkiOiA0LA0KICAgICJhbXBfcmVsZWFzZSI6IDEsDQogICAgImFtcF9zdXN0YWluIjogMC4xMDI5NDExNzY0NzA1ODgyNDQyNywNCiAgICAiYXJwX2ZyZXF1ZW5jeSI6IDIsDQogICAgImFycF9nYXRlIjogMC41LA0KICAgICJhcnBfb2N0YXZlcyI6IDEsDQogICAgImFycF9vbiI6IDAsDQogICAgImFycF9wYXR0ZXJuIjogMCwNCiAgICAiYXJwX3N5bmMiOiAxLA0KICAgICJhcnBfdGVtcG8iOiA5LA0KICAgICJiZWF0c19wZXJfbWludXRlIjogMS43NSwNCiAgICAiY3Jvc3NfbW9kdWxhdGlvbiI6IDAsDQogICAgImN1dG9mZiI6IDEyNywNCiAgICAiZGVsYXlfZHJ5X3dldCI6IDAuNSwNCiAgICAiZGVsYXlfZmVlZGJhY2siOiAwLjQwMDAwMDAwMDAwMDAwMDAyMjIsDQogICAgImRlbGF5X2ZyZXF1ZW5jeSI6IDIsDQogICAgImRlbGF5X29uIjogMCwNCiAgICAiZGVsYXlfc3luYyI6IDEsDQogICAgImRlbGF5X3RlbXBvIjogOSwNCiAgICAiZGlzdG9ydGlvbl9kcml2ZSI6IDAsDQogICAgImRpc3RvcnRpb25fbWl4IjogMSwNCiAgICAiZGlzdG9ydGlvbl9vbiI6IDAsDQogICAgImRpc3RvcnRpb25fdHlwZSI6IDAsDQogICAgImZpbF9hdHRhY2siOiAwLA0KICAgICJmaWxfZGVjYXkiOiAxLjUsDQogICAgImZpbF9lbnZfZGVwdGgiOiAwLA0KICAgICJmaWxfcmVsZWFzZSI6IDEuNSwNCiAgICAiZmlsX3N1c3RhaW4iOiAwLjUsDQogICAgImZpbHRlcl9ibGVuZCI6IDAsDQogICAgImZpbHRlcl9kcml2ZSI6IDAsDQogICAgImZpbHRlcl9vbiI6IDEsDQogICAgImZpbHRlcl9zaGVsZiI6IDAsDQogICAgImZpbHRlcl9zdHlsZSI6IDAsDQogICAgImZvcm1hbnRfb24iOiAwLA0KICAgICJmb3JtYW50X3giOiAwLjUsDQogICAgImZvcm1hbnRfeSI6IDAuNSwNCiAgICAia2V5dHJhY2siOiAwLA0KICAgICJsZWdhdG8iOiAwLA0KICAgICJtb2RfYXR0YWNrIjogMCwNCiAgICAibW9kX2RlY2F5IjogMS41LA0KICAgICJtb2RfcmVsZWFzZSI6IDEuNSwNCiAgICAibW9kX3N1c3RhaW4iOiAwLjUsDQogICAgIm1vbm9fbGZvXzFfYW1wbGl0dWRlIjogMSwNCiAgICAibW9ub19sZm9fMV9mcmVxdWVuY3kiOiAxLA0KICAgICJtb25vX2xmb18xX3JldHJpZ2dlciI6IDIsDQogICAgIm1vbm9fbGZvXzFfc3luYyI6IDEsDQogICAgIm1vbm9fbGZvXzFfdGVtcG8iOiA2LA0KICAgICJtb25vX2xmb18xX3dhdmVmb3JtIjogMCwNCiAgICAibW9ub19sZm9fMl9hbXBsaXR1ZGUiOiAxLA0KICAgICJtb25vX2xmb18yX2ZyZXF1ZW5jeSI6IDEsDQogICAgIm1vbm9fbGZvXzJfcmV0cmlnZ2VyIjogMiwNCiAgICAibW9ub19sZm9fMl9zeW5jIjogMSwNCiAgICAibW9ub19sZm9fMl90ZW1wbyI6IDcsDQogICAgIm1vbm9fbGZvXzJfd2F2ZWZvcm0iOiAwLA0KICAgICJub2lzZV92b2x1bWUiOiAwLA0KICAgICJudW1fc3RlcHMiOiA4LA0KICAgICJvc2NfMV90cmFuc3Bvc2UiOiAwLA0KICAgICJvc2NfMV90dW5lIjogMCwNCiAgICAib3NjXzFfdW5pc29uX2RldHVuZSI6IDUuNjAwMDAwMDAwMDAwMDAwNTMyOSwNCiAgICAib3NjXzFfdW5pc29uX3ZvaWNlcyI6IDUsDQogICAgIm9zY18xX3ZvbHVtZSI6IDAuNSwNCiAgICAib3NjXzFfd2F2ZWZvcm0iOiA0LA0KICAgICJvc2NfMl90cmFuc3Bvc2UiOiAwLA0KICAgICJvc2NfMl90dW5lIjogMCwNCiAgICAib3NjXzJfdW5pc29uX2RldHVuZSI6IDEwLjQwMDAwMDAwMDAwMDAwMDM1NSwNCiAgICAib3NjXzJfdW5pc29uX3ZvaWNlcyI6IDUsDQogICAgIm9zY18yX3ZvbHVtZSI6IDAuMzA2NDUxNjEyOTAzMjI1NzU2MzEsDQogICAgIm9zY18yX3dhdmVmb3JtIjogNCwNCiAgICAib3NjX2ZlZWRiYWNrX2Ftb3VudCI6IDAsDQogICAgIm9zY19mZWVkYmFja190cmFuc3Bvc2UiOiAwLA0KICAgICJvc2NfZmVlZGJhY2tfdHVuZSI6IDAsDQogICAgInBpdGNoX2JlbmRfcmFuZ2UiOiAyLA0KICAgICJwb2x5X2xmb19hbXBsaXR1ZGUiOiAxLA0KICAgICJwb2x5X2xmb19mcmVxdWVuY3kiOiAxLA0KICAgICJwb2x5X2xmb19zeW5jIjogMSwNCiAgICAicG9seV9sZm9fdGVtcG8iOiA3LA0KICAgICJwb2x5X2xmb193YXZlZm9ybSI6IDAsDQogICAgInBvbHlwaG9ueSI6IDQsDQogICAgInBvcnRhbWVudG8iOiAtNywNCiAgICAicG9ydGFtZW50b190eXBlIjogMCwNCiAgICAicmVzb25hbmNlIjogMCwNCiAgICAicmV2ZXJiX2RhbXBpbmciOiAwLjgwODAwMDAwMDAwMDAwMDA1MTUxLA0KICAgICJyZXZlcmJfZHJ5X3dldCI6IDAuNSwNCiAgICAicmV2ZXJiX2ZlZWRiYWNrIjogMC45MDAwMDAwMDAwMDAwMDAwMjIyLA0KICAgICJyZXZlcmJfb24iOiAxLA0KICAgICJzdGVwX2ZyZXF1ZW5jeSI6IDIsDQogICAgInN0ZXBfc2VxXzAwIjogMCwNCiAgICAic3RlcF9zZXFfMDEiOiAwLA0KICAgICJzdGVwX3NlcV8wMiI6IDAsDQogICAgInN0ZXBfc2VxXzAzIjogMCwNCiAgICAic3RlcF9zZXFfMDQiOiAwLA0KICAgICJzdGVwX3NlcV8wNSI6IDAsDQogICAgInN0ZXBfc2VxXzA2IjogMCwNCiAgICAic3RlcF9zZXFfMDciOiAwLA0KICAgICJzdGVwX3NlcV8wOCI6IDAsDQogICAgInN0ZXBfc2VxXzA5IjogMCwNCiAgICAic3RlcF9zZXFfMTAiOiAwLA0KICAgICJzdGVwX3NlcV8xMSI6IDAsDQogICAgInN0ZXBfc2VxXzEyIjogMCwNCiAgICAic3RlcF9zZXFfMTMiOiAwLA0KICAgICJzdGVwX3NlcV8xNCI6IDAsDQogICAgInN0ZXBfc2VxXzE1IjogMCwNCiAgICAic3RlcF9zZXFfMTYiOiAwLA0KICAgICJzdGVwX3NlcV8xNyI6IDAsDQogICAgInN0ZXBfc2VxXzE4IjogMCwNCiAgICAic3RlcF9zZXFfMTkiOiAwLA0KICAgICJzdGVwX3NlcV8yMCI6IDAsDQogICAgInN0ZXBfc2VxXzIxIjogMCwNCiAgICAic3RlcF9zZXFfMjIiOiAwLA0KICAgICJzdGVwX3NlcV8yMyI6IDAsDQogICAgInN0ZXBfc2VxXzI0IjogMCwNCiAgICAic3RlcF9zZXFfMjUiOiAwLA0KICAgICJzdGVwX3NlcV8yNiI6IDAsDQogICAgInN0ZXBfc2VxXzI3IjogMCwNCiAgICAic3RlcF9zZXFfMjgiOiAwLA0KICAgICJzdGVwX3NlcV8yOSI6IDAsDQogICAgInN0ZXBfc2VxXzMwIjogMCwNCiAgICAic3RlcF9zZXFfMzEiOiAwLA0KICAgICJzdGVwX3NlcXVlbmNlcl9yZXRyaWdnZXIiOiAyLA0KICAgICJzdGVwX3NlcXVlbmNlcl9zeW5jIjogMSwNCiAgICAic3RlcF9zZXF1ZW5jZXJfdGVtcG8iOiA3LA0KICAgICJzdGVwX3Ntb290aGluZyI6IDAsDQogICAgInN0dXR0ZXJfZnJlcXVlbmN5IjogMywNCiAgICAic3R1dHRlcl9vbiI6IDAsDQogICAgInN0dXR0ZXJfcmVzYW1wbGVfZnJlcXVlbmN5IjogMSwNCiAgICAic3R1dHRlcl9yZXNhbXBsZV9zeW5jIjogMSwNCiAgICAic3R1dHRlcl9yZXNhbXBsZV90ZW1wbyI6IDYsDQogICAgInN0dXR0ZXJfc29mdG5lc3MiOiAwLjIwMDAwMDAwMDAwMDAwMDAxMTEsDQogICAgInN0dXR0ZXJfc3luYyI6IDEsDQogICAgInN0dXR0ZXJfdGVtcG8iOiA4LA0KICAgICJzdWJfb2N0YXZlIjogMCwNCiAgICAic3ViX3NodWZmbGUiOiAwLA0KICAgICJzdWJfdm9sdW1lIjogMCwNCiAgICAic3ViX3dhdmVmb3JtIjogMiwNCiAgICAidW5pc29uXzFfaGFybW9uaXplIjogMCwNCiAgICAidW5pc29uXzJfaGFybW9uaXplIjogMCwNCiAgICAidmVsb2NpdHlfdHJhY2siOiAwLA0KICAgICJ2b2x1bWUiOiAwLA0KICAgICJtb2R1bGF0aW9ucyI6IFsNCiAgICAgIHsNCiAgICAgICAgInNvdXJjZSI6ICJ2ZWxvY2l0eSIsDQogICAgICAgICJkZXN0aW5hdGlvbiI6ICJ2b2x1bWUiLA0KICAgICAgICAiYW1vdW50IjogMC45OTk4NDgyNzg2MzE5MzQ5MjgwMw0KICAgICAgfQ0KICAgIF0NCiAgfQ0KfQA="/>
          </instrument>
          <eldata ftype="0" fcut="14000" fwet="0" fres="0.5">
            <elvol sustain="0.5" lpdel="0" userwavefile="" lshp="0" lspd_denominator="4" ctlenvamt="0" lspd_numerator="4" rel="0.1" lspd_syncmode="0" amt="0" dec="0.5" x100="0" lspd="0.1" latt="0" att="0" lamt="0" hold="0.5" pdel="0"/>
            <elcut sustain="0.5" lpdel="0" userwavefile="" lshp="0" lspd_denominator="4" ctlenvamt="0" lspd_numerator="4" rel="0.1" lspd_syncmode="0" amt="0" dec="0.5" x100="0" lspd="0.1" latt="0" att="0" lamt="0" hold="0.5" pdel="0"/>
            <elres sustain="0.5" lpdel="0" userwavefile="" lshp="0" lspd_denominator="4" ctlenvamt="0" lspd_numerator="4" rel="0.1" lspd_syncmode="0" amt="0" dec="0.5" x100="0" lspd="0.1" latt="0" att="0" lamt="0" hold="0.5" pdel="0"/>
          </eldata>
          <chordcreator chord-enabled="0" chord="0" chordrange="1"/>
          <arpeggiator arprange="1" arpskip="0" arptime_numerator="4" arpgate="100" arpmiss="0" arpdir="0" arpmode="0" arp="0" arptime_syncmode="0" arptime="200" arpcycle="0" arptime_denominator="4" arp-enabled="0"/>
          <midiport writable="0" inputcontroller="0" readable="0" inputchannel="0" fixedoutputnote="-1" outputprogram="1" fixedinputvelocity="-1" basevelocity="63" fixedoutputvelocity="-1" outputcontroller="0" outputchannel="1"/>
          <fxchain numofeffects="0" enabled="0"/>
        </instrumenttrack>
        <pattern steps="16" type="1" name="BG4" pos="12288" muted="0">
          <note pan="0" vol="50" key="47" len="11" pos="0"/>
          <note pan="0" vol="58" key="35" len="191" pos="0"/>
          <note pan="0" vol="50" key="49" len="12" pos="12"/>
          <note pan="0" vol="50" key="47" len="12" pos="24"/>
          <note pan="0" vol="50" key="50" len="12" pos="36"/>
          <note pan="0" vol="50" key="47" len="12" pos="48"/>
          <note pan="0" vol="50" key="52" len="12" pos="60"/>
          <note pan="0" vol="50" key="47" len="12" pos="72"/>
          <note pan="0" vol="50" key="47" len="12" pos="84"/>
          <note pan="0" vol="53" key="47" len="12" pos="96"/>
          <note pan="0" vol="53" key="49" len="12" pos="108"/>
          <note pan="0" vol="53" key="47" len="12" pos="120"/>
          <note pan="0" vol="53" key="50" len="12" pos="132"/>
          <note pan="0" vol="53" key="47" len="12" pos="144"/>
          <note pan="0" vol="53" key="52" len="12" pos="156"/>
          <note pan="0" vol="53" key="47" len="12" pos="168"/>
          <note pan="0" vol="53" key="47" len="12" pos="180"/>
          <note pan="0" vol="58" key="47" len="12" pos="192"/>
          <note pan="0" vol="58" key="35" len="192" pos="192"/>
          <note pan="0" vol="58" key="49" len="12" pos="204"/>
          <note pan="0" vol="58" key="47" len="12" pos="216"/>
          <note pan="0" vol="58" key="50" len="12" pos="228"/>
          <note pan="0" vol="58" key="47" len="12" pos="240"/>
          <note pan="0" vol="58" key="52" len="12" pos="252"/>
          <note pan="0" vol="58" key="47" len="12" pos="264"/>
          <note pan="0" vol="58" key="47" len="12" pos="276"/>
          <note pan="0" vol="61" key="47" len="12" pos="288"/>
          <note pan="0" vol="61" key="49" len="12" pos="300"/>
          <note pan="0" vol="61" key="47" len="12" pos="312"/>
          <note pan="0" vol="61" key="50" len="12" pos="324"/>
          <note pan="0" vol="62" key="47" len="12" pos="336"/>
          <note pan="0" vol="61" key="52" len="12" pos="348"/>
          <note pan="0" vol="61" key="47" len="12" pos="360"/>
          <note pan="0" vol="61" key="47" len="12" pos="372"/>
          <note pan="0" vol="50" key="35" len="384" pos="384"/>
        </pattern>
      </track>
      <track solo="0" type="0" name="Bass" muted="0">
        <instrumenttrack pitch="0" pan="0" vol="100" pitchrange="1" fxch="0" usemasterpitch="1" basenote="57">
          <instrument name="vestige">
            <vestige program="0" plugin="C:/Program Files/VstPlugins/helm64.dll" guivisible="0" chunk="ew0KICAibGljZW5zZSI6ICJQYXRjaCAoYykgYnkgLiAgVGhpcyBwYXRjaCBpcyBsaWNlbnNlZCB1bmRlciBhIENyZWF0aXZlIENvbW1vbnMgQXR0cmlidXRpb24gNC4wIEludGVybmF0aW9uYWwgTGljZW5zZS4gIFlvdSBzaG91bGQgaGF2ZSByZWNlaXZlZCBhIGNvcHkgb2YgdGhlIGxpY2Vuc2UgYWxvbmcgd2l0aCB0aGlzIHdvcmsuICBJZiBub3QsIHNlZSA8aHR0cDovL2NyZWF0aXZlY29tbW9ucy5vcmcvbGljZW5zZXMvYnkvNC4wLz4uIiwNCiAgInN5bnRoX3ZlcnNpb24iOiAiMC45LjAiLA0KICAicGF0Y2hfbmFtZSI6ICIiLA0KICAiZm9sZGVyX25hbWUiOiAiIiwNCiAgImF1dGhvciI6ICIiLA0KICAic2V0dGluZ3MiOiB7DQogICAgImFtcF9hdHRhY2siOiAwLjEwOTU0NTAwMDAwMDAwMDAwMzQ4LA0KICAgICJhbXBfZGVjYXkiOiAyLjA1ODgyMzUyOTQxMTc2NDQ5NjksDQogICAgImFtcF9yZWxlYXNlIjogMC4yMzUyOTQxMTc2NDcwNTg3OTI1MSwNCiAgICAiYW1wX3N1c3RhaW4iOiAwLjg4MjM1Mjk0MTE3NjQ3MDU2MjExLA0KICAgICJhcnBfZnJlcXVlbmN5IjogMiwNCiAgICAiYXJwX2dhdGUiOiAwLjUsDQogICAgImFycF9vY3RhdmVzIjogMSwNCiAgICAiYXJwX29uIjogMCwNCiAgICAiYXJwX3BhdHRlcm4iOiAwLA0KICAgICJhcnBfc3luYyI6IDEsDQogICAgImFycF90ZW1wbyI6IDksDQogICAgImJlYXRzX3Blcl9taW51dGUiOiAxLjc1LA0KICAgICJjcm9zc19tb2R1bGF0aW9uIjogMC4yNSwNCiAgICAiY3V0b2ZmIjogNDAuNzg3NTAwMDAwMDAwMDAxNDIxLA0KICAgICJkZWxheV9kcnlfd2V0IjogMC41LA0KICAgICJkZWxheV9mZWVkYmFjayI6IDAuNDAwMDAwMDAwMDAwMDAwMDIyMiwNCiAgICAiZGVsYXlfZnJlcXVlbmN5IjogMiwNCiAgICAiZGVsYXlfb24iOiAwLA0KICAgICJkZWxheV9zeW5jIjogMSwNCiAgICAiZGVsYXlfdGVtcG8iOiA5LA0KICAgICJkaXN0b3J0aW9uX2RyaXZlIjogMCwNCiAgICAiZGlzdG9ydGlvbl9taXgiOiAxLA0KICAgICJkaXN0b3J0aW9uX29uIjogMCwNCiAgICAiZGlzdG9ydGlvbl90eXBlIjogMCwNCiAgICAiZmlsX2F0dGFjayI6IDAsDQogICAgImZpbF9kZWNheSI6IDEuNSwNCiAgICAiZmlsX2Vudl9kZXB0aCI6IDAsDQogICAgImZpbF9yZWxlYXNlIjogMS41LA0KICAgICJmaWxfc3VzdGFpbiI6IDAuNSwNCiAgICAiZmlsdGVyX2JsZW5kIjogMCwNCiAgICAiZmlsdGVyX2RyaXZlIjogMCwNCiAgICAiZmlsdGVyX29uIjogMSwNCiAgICAiZmlsdGVyX3NoZWxmIjogMCwNCiAgICAiZmlsdGVyX3N0eWxlIjogMCwNCiAgICAiZm9ybWFudF9vbiI6IDAsDQogICAgImZvcm1hbnRfeCI6IDAuNSwNCiAgICAiZm9ybWFudF95IjogMC41LA0KICAgICJrZXl0cmFjayI6IDAsDQogICAgImxlZ2F0byI6IDAsDQogICAgIm1vZF9hdHRhY2siOiAwLA0KICAgICJtb2RfZGVjYXkiOiAxLjUsDQogICAgIm1vZF9yZWxlYXNlIjogMS41LA0KICAgICJtb2Rfc3VzdGFpbiI6IDAuNSwNCiAgICAibW9ub19sZm9fMV9hbXBsaXR1ZGUiOiAxLA0KICAgICJtb25vX2xmb18xX2ZyZXF1ZW5jeSI6IDEsDQogICAgIm1vbm9fbGZvXzFfcmV0cmlnZ2VyIjogMiwNCiAgICAibW9ub19sZm9fMV9zeW5jIjogMSwNCiAgICAibW9ub19sZm9fMV90ZW1wbyI6IDYsDQogICAgIm1vbm9fbGZvXzFfd2F2ZWZvcm0iOiAwLA0KICAgICJtb25vX2xmb18yX2FtcGxpdHVkZSI6IDEsDQogICAgIm1vbm9fbGZvXzJfZnJlcXVlbmN5IjogMSwNCiAgICAibW9ub19sZm9fMl9yZXRyaWdnZXIiOiAyLA0KICAgICJtb25vX2xmb18yX3N5bmMiOiAxLA0KICAgICJtb25vX2xmb18yX3RlbXBvIjogNywNCiAgICAibW9ub19sZm9fMl93YXZlZm9ybSI6IDAsDQogICAgIm5vaXNlX3ZvbHVtZSI6IDAsDQogICAgIm51bV9zdGVwcyI6IDgsDQogICAgIm9zY18xX3RyYW5zcG9zZSI6IDAsDQogICAgIm9zY18xX3R1bmUiOiAwLA0KICAgICJvc2NfMV91bmlzb25fZGV0dW5lIjogMTAsDQogICAgIm9zY18xX3VuaXNvbl92b2ljZXMiOiAxLA0KICAgICJvc2NfMV92b2x1bWUiOiAwLjU0NzcyMjU1NzQ5OTk5OTk4NDY0LA0KICAgICJvc2NfMV93YXZlZm9ybSI6IDAsDQogICAgIm9zY18yX3RyYW5zcG9zZSI6IDEyLA0KICAgICJvc2NfMl90dW5lIjogMCwNCiAgICAib3NjXzJfdW5pc29uX2RldHVuZSI6IDEwLA0KICAgICJvc2NfMl91bmlzb25fdm9pY2VzIjogMSwNCiAgICAib3NjXzJfdm9sdW1lIjogMC41NDc3MjI1NTc0OTk5OTk5ODQ2NCwNCiAgICAib3NjXzJfd2F2ZWZvcm0iOiAxLA0KICAgICJvc2NfZmVlZGJhY2tfYW1vdW50IjogMCwNCiAgICAib3NjX2ZlZWRiYWNrX3RyYW5zcG9zZSI6IDAsDQogICAgIm9zY19mZWVkYmFja190dW5lIjogMCwNCiAgICAicGl0Y2hfYmVuZF9yYW5nZSI6IDIsDQogICAgInBvbHlfbGZvX2FtcGxpdHVkZSI6IDEsDQogICAgInBvbHlfbGZvX2ZyZXF1ZW5jeSI6IDEsDQogICAgInBvbHlfbGZvX3N5bmMiOiAxLA0KICAgICJwb2x5X2xmb190ZW1wbyI6IDcsDQogICAgInBvbHlfbGZvX3dhdmVmb3JtIjogMCwNCiAgICAicG9seXBob255IjogNCwNCiAgICAicG9ydGFtZW50byI6IC03LA0KICAgICJwb3J0YW1lbnRvX3R5cGUiOiAwLA0KICAgICJyZXNvbmFuY2UiOiAwLA0KICAgICJyZXZlcmJfZGFtcGluZyI6IDAuODA0MDAwMDAwMDAwMDAwMDQ3OTYsDQogICAgInJldmVyYl9kcnlfd2V0IjogMC41LA0KICAgICJyZXZlcmJfZmVlZGJhY2siOiAwLjkwMDAwMDAwMDAwMDAwMDAyMjIsDQogICAgInJldmVyYl9vbiI6IDEsDQogICAgInN0ZXBfZnJlcXVlbmN5IjogMiwNCiAgICAic3RlcF9zZXFfMDAiOiAwLA0KICAgICJzdGVwX3NlcV8wMSI6IDAsDQogICAgInN0ZXBfc2VxXzAyIjogMCwNCiAgICAic3RlcF9zZXFfMDMiOiAwLA0KICAgICJzdGVwX3NlcV8wNCI6IDAsDQogICAgInN0ZXBfc2VxXzA1IjogMCwNCiAgICAic3RlcF9zZXFfMDYiOiAwLA0KICAgICJzdGVwX3NlcV8wNyI6IDAsDQogICAgInN0ZXBfc2VxXzA4IjogMCwNCiAgICAic3RlcF9zZXFfMDkiOiAwLA0KICAgICJzdGVwX3NlcV8xMCI6IDAsDQogICAgInN0ZXBfc2VxXzExIjogMCwNCiAgICAic3RlcF9zZXFfMTIiOiAwLA0KICAgICJzdGVwX3NlcV8xMyI6IDAsDQogICAgInN0ZXBfc2VxXzE0IjogMCwNCiAgICAic3RlcF9zZXFfMTUiOiAwLA0KICAgICJzdGVwX3NlcV8xNiI6IDAsDQogICAgInN0ZXBfc2VxXzE3IjogMCwNCiAgICAic3RlcF9zZXFfMTgiOiAwLA0KICAgICJzdGVwX3NlcV8xOSI6IDAsDQogICAgInN0ZXBfc2VxXzIwIjogMCwNCiAgICAic3RlcF9zZXFfMjEiOiAwLA0KICAgICJzdGVwX3NlcV8yMiI6IDAsDQogICAgInN0ZXBfc2VxXzIzIjogMCwNCiAgICAic3RlcF9zZXFfMjQiOiAwLA0KICAgICJzdGVwX3NlcV8yNSI6IDAsDQogICAgInN0ZXBfc2VxXzI2IjogMCwNCiAgICAic3RlcF9zZXFfMjciOiAwLA0KICAgICJzdGVwX3NlcV8yOCI6IDAsDQogICAgInN0ZXBfc2VxXzI5IjogMCwNCiAgICAic3RlcF9zZXFfMzAiOiAwLA0KICAgICJzdGVwX3NlcV8zMSI6IDAsDQogICAgInN0ZXBfc2VxdWVuY2VyX3JldHJpZ2dlciI6IDIsDQogICAgInN0ZXBfc2VxdWVuY2VyX3N5bmMiOiAxLA0KICAgICJzdGVwX3NlcXVlbmNlcl90ZW1wbyI6IDcsDQogICAgInN0ZXBfc21vb3RoaW5nIjogMCwNCiAgICAic3R1dHRlcl9mcmVxdWVuY3kiOiAzLA0KICAgICJzdHV0dGVyX29uIjogMCwNCiAgICAic3R1dHRlcl9yZXNhbXBsZV9mcmVxdWVuY3kiOiAxLA0KICAgICJzdHV0dGVyX3Jlc2FtcGxlX3N5bmMiOiAxLA0KICAgICJzdHV0dGVyX3Jlc2FtcGxlX3RlbXBvIjogNiwNCiAgICAic3R1dHRlcl9zb2Z0bmVzcyI6IDAuMjAwMDAwMDAwMDAwMDAwMDExMSwNCiAgICAic3R1dHRlcl9zeW5jIjogMSwNCiAgICAic3R1dHRlcl90ZW1wbyI6IDgsDQogICAgInN1Yl9vY3RhdmUiOiAwLA0KICAgICJzdWJfc2h1ZmZsZSI6IDAsDQogICAgInN1Yl92b2x1bWUiOiAwLA0KICAgICJzdWJfd2F2ZWZvcm0iOiAyLA0KICAgICJ1bmlzb25fMV9oYXJtb25pemUiOiAwLA0KICAgICJ1bmlzb25fMl9oYXJtb25pemUiOiAwLA0KICAgICJ2ZWxvY2l0eV90cmFjayI6IDAsDQogICAgInZvbHVtZSI6IDAsDQogICAgIm1vZHVsYXRpb25zIjogWw0KICAgICAgew0KICAgICAgICAic291cmNlIjogInZlbG9jaXR5IiwNCiAgICAgICAgImRlc3RpbmF0aW9uIjogInZvbHVtZSIsDQogICAgICAgICJhbW91bnQiOiAxLjAwMDEwMzE1NjA1MzA0MDAxDQogICAgICB9DQogICAgXQ0KICB9DQp9AA=="/>
          </instrument>
          <eldata ftype="0" fcut="14000" fwet="0" fres="0.5">
            <elvol sustain="0.5" lpdel="0" userwavefile="" lshp="0" lspd_denominator="4" ctlenvamt="0" lspd_numerator="4" rel="0.1" lspd_syncmode="0" amt="0" dec="0.5" x100="0" lspd="0.1" latt="0" att="0" lamt="0" hold="0.5" pdel="0"/>
            <elcut sustain="0.5" lpdel="0" userwavefile="" lshp="0" lspd_denominator="4" ctlenvamt="0" lspd_numerator="4" rel="0.1" lspd_syncmode="0" amt="0" dec="0.5" x100="0" lspd="0.1" latt="0" att="0" lamt="0" hold="0.5" pdel="0"/>
            <elres sustain="0.5" lpdel="0" userwavefile="" lshp="0" lspd_denominator="4" ctlenvamt="0" lspd_numerator="4" rel="0.1" lspd_syncmode="0" amt="0" dec="0.5" x100="0" lspd="0.1" latt="0" att="0" lamt="0" hold="0.5" pdel="0"/>
          </eldata>
          <chordcreator chord-enabled="0" chord="0" chordrange="1"/>
          <arpeggiator arprange="1" arpskip="0" arptime_numerator="4" arpgate="100" arpmiss="0" arpdir="0" arpmode="0" arp="0" arptime_syncmode="0" arptime="200" arpcycle="0" arptime_denominator="4" arp-enabled="0"/>
          <midiport writable="0" inputcontroller="0" readable="0" inputchannel="0" fixedoutputnote="-1" outputprogram="1" fixedinputvelocity="-1" basevelocity="63" fixedoutputvelocity="-1" outputcontroller="0" outputchannel="1"/>
          <fxchain numofeffects="0" enabled="0"/>
        </instrumenttrack>
        <pattern steps="16" type="1" name="Bass" pos="1536" muted="0">
          <note pan="0" vol="144" key="35" len="192" pos="0"/>
          <note pan="0" vol="144" key="38" len="193" pos="192"/>
          <note pan="0" vol="144" key="35" len="193" pos="384"/>
          <note pan="0" vol="144" key="38" len="193" pos="576"/>
          <note pan="0" vol="144" key="38" len="192" pos="768"/>
          <note pan="0" vol="166" key="40" len="192" pos="960"/>
          <note pan="0" vol="144" key="42" len="192" pos="1152"/>
          <note pan="0" vol="144" key="43" len="192" pos="1344"/>
          <note pan="0" vol="144" key="35" len="192" pos="1536"/>
          <note pan="0" vol="144" key="38" len="192" pos="1728"/>
          <note pan="0" vol="144" key="35" len="192" pos="1920"/>
          <note pan="0" vol="144" key="38" len="192" pos="2112"/>
          <note pan="0" vol="144" key="38" len="192" pos="2304"/>
          <note pan="0" vol="144" key="40" len="192" pos="2496"/>
          <note pan="0" vol="144" key="42" len="192" pos="2688"/>
        </pattern>
        <pattern steps="16" type="1" name="Bass" pos="4416" muted="0">
          <note pan="0" vol="144" key="43" len="192" pos="0"/>
          <note pan="0" vol="144" key="35" len="192" pos="192"/>
          <note pan="0" vol="144" key="38" len="192" pos="384"/>
          <note pan="0" vol="144" key="37" len="192" pos="576"/>
          <note pan="0" vol="144" key="33" len="192" pos="768"/>
          <note pan="0" vol="144" key="35" len="192" pos="960"/>
          <note pan="0" vol="144" key="38" len="192" pos="1152"/>
          <note pan="0" vol="144" key="37" len="192" pos="1344"/>
          <note pan="0" vol="144" key="33" len="192" pos="1536"/>
          <note pan="0" vol="144" key="35" len="192" pos="1728"/>
          <note pan="0" vol="144" key="38" len="192" pos="1920"/>
          <note pan="0" vol="144" key="37" len="192" pos="2112"/>
          <note pan="0" vol="144" key="33" len="192" pos="2304"/>
          <note pan="0" vol="144" key="35" len="192" pos="2496"/>
          <note pan="0" vol="144" key="38" len="192" pos="2688"/>
          <note pan="0" vol="144" key="37" len="192" pos="2880"/>
          <note pan="0" vol="144" key="33" len="192" pos="3072"/>
          <note pan="0" vol="144" key="35" len="191" pos="3264"/>
          <note pan="0" vol="144" key="38" len="192" pos="3456"/>
          <note pan="0" vol="144" key="37" len="192" pos="3648"/>
          <note pan="0" vol="144" key="33" len="192" pos="3840"/>
          <note pan="0" vol="144" key="35" len="192" pos="4032"/>
          <note pan="0" vol="144" key="38" len="192" pos="4224"/>
          <note pan="0" vol="144" key="37" len="192" pos="4416"/>
          <note pan="0" vol="144" key="33" len="192" pos="4608"/>
          <note pan="0" vol="144" key="35" len="192" pos="4800"/>
          <note pan="0" vol="144" key="38" len="192" pos="4992"/>
          <note pan="0" vol="144" key="37" len="192" pos="5184"/>
          <note pan="0" vol="144" key="33" len="192" pos="5376"/>
          <note pan="0" vol="144" key="35" len="192" pos="5568"/>
          <note pan="0" vol="144" key="38" len="192" pos="5760"/>
          <note pan="0" vol="144" key="37" len="192" pos="5952"/>
          <note pan="0" vol="144" key="33" len="192" pos="6144"/>
          <note pan="0" vol="144" key="35" len="192" pos="6336"/>
          <note pan="0" vol="144" key="38" len="192" pos="6528"/>
          <note pan="0" vol="144" key="37" len="192" pos="6720"/>
          <note pan="0" vol="144" key="33" len="192" pos="6912"/>
          <note pan="0" vol="144" key="35" len="192" pos="7104"/>
          <note pan="0" vol="144" key="38" len="192" pos="7296"/>
          <note pan="0" vol="144" key="37" len="192" pos="7488"/>
          <note pan="0" vol="144" key="33" len="192" pos="7680"/>
          <note pan="0" vol="100" key="35" len="384" pos="7872"/>
        </pattern>
      </track>
      <track solo="0" type="0" name="Rhythm 1" muted="0">
        <instrumenttrack pitch="0" pan="-25" vol="86.4" pitchrange="1" fxch="0" usemasterpitch="1" basenote="57">
          <instrument name="vestige">
            <vestige program="0" plugin="C:/Program Files/VstPlugins/helm64.dll" guivisible="0" chunk="ew0KICAibGljZW5zZSI6ICJQYXRjaCAoYykgYnkgLiAgVGhpcyBwYXRjaCBpcyBsaWNlbnNlZCB1bmRlciBhIENyZWF0aXZlIENvbW1vbnMgQXR0cmlidXRpb24gNC4wIEludGVybmF0aW9uYWwgTGljZW5zZS4gIFlvdSBzaG91bGQgaGF2ZSByZWNlaXZlZCBhIGNvcHkgb2YgdGhlIGxpY2Vuc2UgYWxvbmcgd2l0aCB0aGlzIHdvcmsuICBJZiBub3QsIHNlZSA8aHR0cDovL2NyZWF0aXZlY29tbW9ucy5vcmcvbGljZW5zZXMvYnkvNC4wLz4uIiwNCiAgInN5bnRoX3ZlcnNpb24iOiAiMC45LjAiLA0KICAicGF0Y2hfbmFtZSI6ICIiLA0KICAiZm9sZGVyX25hbWUiOiAiIiwNCiAgImF1dGhvciI6ICIiLA0KICAic2V0dGluZ3MiOiB7DQogICAgImFtcF9hdHRhY2siOiAwLjEwOTU0NTAwMDAwMDAwMDAwMzQ4LA0KICAgICJhbXBfZGVjYXkiOiAwLjQxMTc2NDcwNTg4MjM1Mjk3NzEsDQogICAgImFtcF9yZWxlYXNlIjogMC4yOTk5OTk5OTk5OTk5OTk5ODg5LA0KICAgICJhbXBfc3VzdGFpbiI6IDAsDQogICAgImFycF9mcmVxdWVuY3kiOiAyLA0KICAgICJhcnBfZ2F0ZSI6IDAuNSwNCiAgICAiYXJwX29jdGF2ZXMiOiAxLA0KICAgICJhcnBfb24iOiAwLA0KICAgICJhcnBfcGF0dGVybiI6IDAsDQogICAgImFycF9zeW5jIjogMSwNCiAgICAiYXJwX3RlbXBvIjogOSwNCiAgICAiYmVhdHNfcGVyX21pbnV0ZSI6IDEuNzUsDQogICAgImNyb3NzX21vZHVsYXRpb24iOiAwLjA1Mzk5OTk5OTk5OTk5OTk5OTM4OSwNCiAgICAiY3V0b2ZmIjogODEuNjI1LA0KICAgICJkZWxheV9kcnlfd2V0IjogMC41LA0KICAgICJkZWxheV9mZWVkYmFjayI6IDAuNDAwMDAwMDAwMDAwMDAwMDIyMiwNCiAgICAiZGVsYXlfZnJlcXVlbmN5IjogMiwNCiAgICAiZGVsYXlfb24iOiAwLA0KICAgICJkZWxheV9zeW5jIjogMSwNCiAgICAiZGVsYXlfdGVtcG8iOiA5LA0KICAgICJkaXN0b3J0aW9uX2RyaXZlIjogMCwNCiAgICAiZGlzdG9ydGlvbl9taXgiOiAxLA0KICAgICJkaXN0b3J0aW9uX29uIjogMCwNCiAgICAiZGlzdG9ydGlvbl90eXBlIjogMCwNCiAgICAiZmlsX2F0dGFjayI6IDAsDQogICAgImZpbF9kZWNheSI6IDAuNTg4MjM1Mjk0MTE3NjQ3MDc4NDIsDQogICAgImZpbF9lbnZfZGVwdGgiOiAwLA0KICAgICJmaWxfcmVsZWFzZSI6IDAuMjk0MTE3NjQ3MDU4ODIzNTM5MjEsDQogICAgImZpbF9zdXN0YWluIjogMCwNCiAgICAiZmlsdGVyX2JsZW5kIjogMCwNCiAgICAiZmlsdGVyX2RyaXZlIjogMCwNCiAgICAiZmlsdGVyX29uIjogMSwNCiAgICAiZmlsdGVyX3NoZWxmIjogMCwNCiAgICAiZmlsdGVyX3N0eWxlIjogMCwNCiAgICAiZm9ybWFudF9vbiI6IDAsDQogICAgImZvcm1hbnRfeCI6IDAuNSwNCiAgICAiZm9ybWFudF95IjogMC41LA0KICAgICJrZXl0cmFjayI6IDAsDQogICAgImxlZ2F0byI6IDAsDQogICAgIm1vZF9hdHRhY2siOiAwLA0KICAgICJtb2RfZGVjYXkiOiAwLjQxMTc2NDcwNTg4MjM1Mjk3NzEsDQogICAgIm1vZF9yZWxlYXNlIjogMCwNCiAgICAibW9kX3N1c3RhaW4iOiAwLA0KICAgICJtb25vX2xmb18xX2FtcGxpdHVkZSI6IDEsDQogICAgIm1vbm9fbGZvXzFfZnJlcXVlbmN5IjogMSwNCiAgICAibW9ub19sZm9fMV9yZXRyaWdnZXIiOiAyLA0KICAgICJtb25vX2xmb18xX3N5bmMiOiAxLA0KICAgICJtb25vX2xmb18xX3RlbXBvIjogNiwNCiAgICAibW9ub19sZm9fMV93YXZlZm9ybSI6IDAsDQogICAgIm1vbm9fbGZvXzJfYW1wbGl0dWRlIjogMSwNCiAgICAibW9ub19sZm9fMl9mcmVxdWVuY3kiOiAxLA0KICAgICJtb25vX2xmb18yX3JldHJpZ2dlciI6IDIsDQogICAgIm1vbm9fbGZvXzJfc3luYyI6IDEsDQogICAgIm1vbm9fbGZvXzJfdGVtcG8iOiA3LA0KICAgICJtb25vX2xmb18yX3dhdmVmb3JtIjogMCwNCiAgICAibm9pc2Vfdm9sdW1lIjogMCwNCiAgICAibnVtX3N0ZXBzIjogOCwNCiAgICAib3NjXzFfdHJhbnNwb3NlIjogMCwNCiAgICAib3NjXzFfdHVuZSI6IDAsDQogICAgIm9zY18xX3VuaXNvbl9kZXR1bmUiOiAxMCwNCiAgICAib3NjXzFfdW5pc29uX3ZvaWNlcyI6IDEsDQogICAgIm9zY18xX3ZvbHVtZSI6IDAuNTQ3NzIyNTU3NDk5OTk5OTg0NjQsDQogICAgIm9zY18xX3dhdmVmb3JtIjogMCwNCiAgICAib3NjXzJfdHJhbnNwb3NlIjogMCwNCiAgICAib3NjXzJfdHVuZSI6IDAsDQogICAgIm9zY18yX3VuaXNvbl9kZXR1bmUiOiAxMCwNCiAgICAib3NjXzJfdW5pc29uX3ZvaWNlcyI6IDEsDQogICAgIm9zY18yX3ZvbHVtZSI6IDAuNTQ3NzIyNTU3NDk5OTk5OTg0NjQsDQogICAgIm9zY18yX3dhdmVmb3JtIjogMCwNCiAgICAib3NjX2ZlZWRiYWNrX2Ftb3VudCI6IDAsDQogICAgIm9zY19mZWVkYmFja190cmFuc3Bvc2UiOiAwLA0KICAgICJvc2NfZmVlZGJhY2tfdHVuZSI6IDAsDQogICAgInBpdGNoX2JlbmRfcmFuZ2UiOiAyLA0KICAgICJwb2x5X2xmb19hbXBsaXR1ZGUiOiAxLA0KICAgICJwb2x5X2xmb19mcmVxdWVuY3kiOiAxLA0KICAgICJwb2x5X2xmb19zeW5jIjogMSwNCiAgICAicG9seV9sZm9fdGVtcG8iOiA3LA0KICAgICJwb2x5X2xmb193YXZlZm9ybSI6IDAsDQogICAgInBvbHlwaG9ueSI6IDQsDQogICAgInBvcnRhbWVudG8iOiAtNywNCiAgICAicG9ydGFtZW50b190eXBlIjogMCwNCiAgICAicmVzb25hbmNlIjogMCwNCiAgICAicmV2ZXJiX2RhbXBpbmciOiAwLjgxOTk5OTk5OTk5OTk5OTk1MTE1LA0KICAgICJyZXZlcmJfZHJ5X3dldCI6IDAuMjk5OTk5OTk5OTk5OTk5OTg4OSwNCiAgICAicmV2ZXJiX2ZlZWRiYWNrIjogMC44NDQ3OTk5OTk5OTk5OTk5OTUzOCwNCiAgICAicmV2ZXJiX29uIjogMSwNCiAgICAic3RlcF9mcmVxdWVuY3kiOiAyLA0KICAgICJzdGVwX3NlcV8wMCI6IDAsDQogICAgInN0ZXBfc2VxXzAxIjogMCwNCiAgICAic3RlcF9zZXFfMDIiOiAwLA0KICAgICJzdGVwX3NlcV8wMyI6IDAsDQogICAgInN0ZXBfc2VxXzA0IjogMCwNCiAgICAic3RlcF9zZXFfMDUiOiAwLA0KICAgICJzdGVwX3NlcV8wNiI6IDAsDQogICAgInN0ZXBfc2VxXzA3IjogMCwNCiAgICAic3RlcF9zZXFfMDgiOiAwLA0KICAgICJzdGVwX3NlcV8wOSI6IDAsDQogICAgInN0ZXBfc2VxXzEwIjogMCwNCiAgICAic3RlcF9zZXFfMTEiOiAwLA0KICAgICJzdGVwX3NlcV8xMiI6IDAsDQogICAgInN0ZXBfc2VxXzEzIjogMCwNCiAgICAic3RlcF9zZXFfMTQiOiAwLA0KICAgICJzdGVwX3NlcV8xNSI6IDAsDQogICAgInN0ZXBfc2VxXzE2IjogMCwNCiAgICAic3RlcF9zZXFfMTciOiAwLA0KICAgICJzdGVwX3NlcV8xOCI6IDAsDQogICAgInN0ZXBfc2VxXzE5IjogMCwNCiAgICAic3RlcF9zZXFfMjAiOiAwLA0KICAgICJzdGVwX3NlcV8yMSI6IDAsDQogICAgInN0ZXBfc2VxXzIyIjogMCwNCiAgICAic3RlcF9zZXFfMjMiOiAwLA0KICAgICJzdGVwX3NlcV8yNCI6IDAsDQogICAgInN0ZXBfc2VxXzI1IjogMCwNCiAgICAic3RlcF9zZXFfMjYiOiAwLA0KICAgICJzdGVwX3NlcV8yNyI6IDAsDQogICAgInN0ZXBfc2VxXzI4IjogMCwNCiAgICAic3RlcF9zZXFfMjkiOiAwLA0KICAgICJzdGVwX3NlcV8zMCI6IDAsDQogICAgInN0ZXBfc2VxXzMxIjogMCwNCiAgICAic3RlcF9zZXF1ZW5jZXJfcmV0cmlnZ2VyIjogMiwNCiAgICAic3RlcF9zZXF1ZW5jZXJfc3luYyI6IDEsDQogICAgInN0ZXBfc2VxdWVuY2VyX3RlbXBvIjogNywNCiAgICAic3RlcF9zbW9vdGhpbmciOiAwLA0KICAgICJzdHV0dGVyX2ZyZXF1ZW5jeSI6IDMsDQogICAgInN0dXR0ZXJfb24iOiAwLA0KICAgICJzdHV0dGVyX3Jlc2FtcGxlX2ZyZXF1ZW5jeSI6IDEsDQogICAgInN0dXR0ZXJfcmVzYW1wbGVfc3luYyI6IDEsDQogICAgInN0dXR0ZXJfcmVzYW1wbGVfdGVtcG8iOiA2LA0KICAgICJzdHV0dGVyX3NvZnRuZXNzIjogMC4yMDAwMDAwMDAwMDAwMDAwMTExLA0KICAgICJzdHV0dGVyX3N5bmMiOiAxLA0KICAgICJzdHV0dGVyX3RlbXBvIjogOCwNCiAgICAic3ViX29jdGF2ZSI6IDAsDQogICAgInN1Yl9zaHVmZmxlIjogMCwNCiAgICAic3ViX3ZvbHVtZSI6IDAuNSwNCiAgICAic3ViX3dhdmVmb3JtIjogMCwNCiAgICAidW5pc29uXzFfaGFybW9uaXplIjogMCwNCiAgICAidW5pc29uXzJfaGFybW9uaXplIjogMCwNCiAgICAidmVsb2NpdHlfdHJhY2siOiAwLA0KICAgICJ2b2x1bWUiOiAwLA0KICAgICJtb2R1bGF0aW9ucyI6IFsNCiAgICAgIHsNCiAgICAgICAgInNvdXJjZSI6ICJtb2RfZW52ZWxvcGUiLA0KICAgICAgICAiZGVzdGluYXRpb24iOiAicmV2ZXJiX2RyeV93ZXQiLA0KICAgICAgICAiYW1vdW50IjogMC4yOTYwMDAwMDAwMDAwMDAwNDA4Ng0KICAgICAgfSwNCiAgICAgIHsNCiAgICAgICAgInNvdXJjZSI6ICJ2ZWxvY2l0eSIsDQogICAgICAgICJkZXN0aW5hdGlvbiI6ICJ2b2x1bWUiLA0KICAgICAgICAiYW1vdW50IjogMC45OTk4NDY3NzE4NDc1ODQzMDM1Nw0KICAgICAgfSwNCiAgICAgIHsNCiAgICAgICAgInNvdXJjZSI6ICJtb2RfZW52ZWxvcGUiLA0KICAgICAgICAiZGVzdGluYXRpb24iOiAib3NjXzJfdHJhbnNwb3NlIiwNCiAgICAgICAgImFtb3VudCI6IDEyDQogICAgICB9LA0KICAgICAgew0KICAgICAgICAic291cmNlIjogIm1vZF9lbnZlbG9wZSIsDQogICAgICAgICJkZXN0aW5hdGlvbiI6ICJvc2NfMV90cmFuc3Bvc2UiLA0KICAgICAgICAiYW1vdW50IjogMTINCiAgICAgIH0sDQogICAgICB7DQogICAgICAgICJzb3VyY2UiOiAiZmlsX2VudmVsb3BlIiwNCiAgICAgICAgImRlc3RpbmF0aW9uIjogImN1dG9mZiIsDQogICAgICAgICJhbW91bnQiOiA0Ni41NzQ3MTk2Mjg4ODU2NDU3NjENCiAgICAgIH0NCiAgICBdDQogIH0NCn0A"/>
          </instrument>
          <eldata ftype="0" fcut="14000" fwet="0" fres="0.5">
            <elvol sustain="0.5" lpdel="0" userwavefile="" lshp="0" lspd_denominator="4" ctlenvamt="0" lspd_numerator="4" rel="0.1" lspd_syncmode="0" amt="0" dec="0.5" x100="0" lspd="0.1" latt="0" att="0" lamt="0" hold="0.5" pdel="0"/>
            <elcut sustain="0.5" lpdel="0" userwavefile="" lshp="0" lspd_denominator="4" ctlenvamt="0" lspd_numerator="4" rel="0.1" lspd_syncmode="0" amt="0" dec="0.5" x100="0" lspd="0.1" latt="0" att="0" lamt="0" hold="0.5" pdel="0"/>
            <elres sustain="0.5" lpdel="0" userwavefile="" lshp="0" lspd_denominator="4" ctlenvamt="0" lspd_numerator="4" rel="0.1" lspd_syncmode="0" amt="0" dec="0.5" x100="0" lspd="0.1" latt="0" att="0" lamt="0" hold="0.5" pdel="0"/>
          </eldata>
          <chordcreator chord-enabled="1" chord="0" chordrange="2"/>
          <arpeggiator arprange="1" arpskip="0" arptime_numerator="4" arpgate="100" arpmiss="0" arpdir="0" arpmode="0" arp="0" arptime_syncmode="0" arptime="200" arpcycle="0" arptime_denominator="4" arp-enabled="0"/>
          <midiport writable="0" inputcontroller="0" readable="0" inputchannel="0" fixedoutputnote="-1" outputprogram="1" fixedinputvelocity="-1" basevelocity="63" fixedoutputvelocity="-1" outputcontroller="0" outputchannel="1"/>
          <fxchain numofeffects="0" enabled="0"/>
        </instrumenttrack>
        <pattern steps="16" type="1" name="Rhythm 1" pos="0" muted="0">
          <note pan="0" vol="100" key="23" len="12" pos="0"/>
          <note pan="0" vol="100" key="23" len="12" pos="12"/>
          <note pan="0" vol="100" key="23" len="12" pos="24"/>
          <note pan="0" vol="100" key="23" len="12" pos="36"/>
          <note pan="0" vol="100" key="23" len="12" pos="48"/>
          <note pan="0" vol="100" key="23" len="12" pos="72"/>
          <note pan="0" vol="100" key="23" len="12" pos="84"/>
          <note pan="0" vol="100" key="23" len="12" pos="108"/>
          <note pan="0" vol="100" key="23" len="12" pos="120"/>
          <note pan="0" vol="100" key="23" len="12" pos="144"/>
          <note pan="0" vol="100" key="23" len="12" pos="156"/>
          <note pan="0" vol="100" key="23" len="12" pos="168"/>
          <note pan="0" vol="100" key="23" len="12" pos="180"/>
          <note pan="0" vol="100" key="23" len="12" pos="192"/>
          <note pan="0" vol="100" key="23" len="12" pos="204"/>
          <note pan="0" vol="100" key="23" len="12" pos="216"/>
          <note pan="0" vol="100" key="23" len="12" pos="228"/>
          <note pan="0" vol="100" key="23" len="12" pos="240"/>
          <note pan="0" vol="100" key="23" len="12" pos="264"/>
          <note pan="0" vol="100" key="23" len="12" pos="276"/>
          <note pan="0" vol="100" key="23" len="12" pos="300"/>
          <note pan="0" vol="100" key="23" len="12" pos="312"/>
          <note pan="0" vol="100" key="23" len="12" pos="336"/>
          <note pan="0" vol="100" key="23" len="12" pos="348"/>
          <note pan="0" vol="100" key="23" len="12" pos="360"/>
          <note pan="0" vol="100" key="23" len="12" pos="372"/>
          <note pan="0" vol="100" key="23" len="12" pos="384"/>
          <note pan="0" vol="100" key="23" len="12" pos="396"/>
          <note pan="0" vol="100" key="23" len="12" pos="408"/>
          <note pan="0" vol="100" key="23" len="12" pos="420"/>
          <note pan="0" vol="100" key="23" len="12" pos="432"/>
          <note pan="0" vol="100" key="23" len="12" pos="456"/>
          <note pan="0" vol="100" key="23" len="12" pos="468"/>
          <note pan="0" vol="100" key="23" len="12" pos="492"/>
          <note pan="0" vol="100" key="23" len="12" pos="504"/>
          <note pan="0" vol="100" key="23" len="12" pos="528"/>
          <note pan="0" vol="100" key="23" len="12" pos="540"/>
          <note pan="0" vol="100" key="23" len="12" pos="552"/>
          <note pan="0" vol="100" key="23" len="12" pos="564"/>
          <note pan="0" vol="100" key="23" len="12" pos="576"/>
          <note pan="0" vol="100" key="23" len="12" pos="588"/>
          <note pan="0" vol="100" key="23" len="12" pos="600"/>
          <note pan="0" vol="100" key="23" len="12" pos="612"/>
          <note pan="0" vol="100" key="23" len="12" pos="624"/>
          <note pan="0" vol="100" key="23" len="12" pos="648"/>
          <note pan="0" vol="100" key="23" len="12" pos="660"/>
          <note pan="0" vol="100" key="23" len="12" pos="684"/>
          <note pan="0" vol="100" key="23" len="12" pos="696"/>
          <note pan="0" vol="100" key="23" len="12" pos="720"/>
          <note pan="0" vol="100" key="23" len="12" pos="732"/>
          <note pan="0" vol="100" key="23" len="12" pos="744"/>
          <note pan="0" vol="100" key="23" len="12" pos="756"/>
          <note pan="0" vol="100" key="23" len="12" pos="768"/>
          <note pan="0" vol="100" key="23" len="12" pos="780"/>
          <note pan="0" vol="100" key="23" len="12" pos="792"/>
          <note pan="0" vol="100" key="23" len="12" pos="804"/>
          <note pan="0" vol="100" key="23" len="12" pos="816"/>
          <note pan="0" vol="100" key="23" len="12" pos="840"/>
          <note pan="0" vol="100" key="23" len="12" pos="852"/>
          <note pan="0" vol="100" key="23" len="12" pos="876"/>
          <note pan="0" vol="100" key="23" len="12" pos="888"/>
          <note pan="0" vol="100" key="23" len="12" pos="912"/>
          <note pan="0" vol="100" key="23" len="12" pos="924"/>
          <note pan="0" vol="100" key="23" len="12" pos="936"/>
          <note pan="0" vol="100" key="23" len="12" pos="948"/>
          <note pan="0" vol="100" key="23" len="12" pos="960"/>
          <note pan="0" vol="100" key="23" len="12" pos="972"/>
          <note pan="0" vol="100" key="23" len="12" pos="984"/>
          <note pan="0" vol="100" key="23" len="12" pos="996"/>
          <note pan="0" vol="100" key="23" len="12" pos="1008"/>
          <note pan="0" vol="100" key="23" len="12" pos="1032"/>
          <note pan="0" vol="100" key="23" len="12" pos="1044"/>
          <note pan="0" vol="100" key="23" len="12" pos="1068"/>
          <note pan="0" vol="100" key="23" len="12" pos="1080"/>
          <note pan="0" vol="100" key="23" len="12" pos="1104"/>
          <note pan="0" vol="100" key="23" len="12" pos="1116"/>
          <note pan="0" vol="100" key="23" len="12" pos="1128"/>
          <note pan="0" vol="100" key="23" len="12" pos="1140"/>
          <note pan="0" vol="100" key="23" len="12" pos="1152"/>
          <note pan="0" vol="100" key="23" len="12" pos="1164"/>
          <note pan="0" vol="100" key="23" len="12" pos="1176"/>
          <note pan="0" vol="100" key="23" len="12" pos="1188"/>
          <note pan="0" vol="100" key="23" len="12" pos="1200"/>
          <note pan="0" vol="100" key="23" len="12" pos="1224"/>
          <note pan="0" vol="100" key="23" len="12" pos="1236"/>
          <note pan="0" vol="100" key="23" len="12" pos="1260"/>
          <note pan="0" vol="100" key="23" len="12" pos="1272"/>
          <note pan="0" vol="100" key="23" len="12" pos="1296"/>
          <note pan="0" vol="100" key="23" len="12" pos="1308"/>
          <note pan="0" vol="100" key="23" len="12" pos="1320"/>
          <note pan="0" vol="100" key="23" len="12" pos="1332"/>
          <note pan="0" vol="100" key="23" len="12" pos="1344"/>
          <note pan="0" vol="100" key="23" len="12" pos="1356"/>
          <note pan="0" vol="100" key="23" len="12" pos="1368"/>
          <note pan="0" vol="100" key="23" len="12" pos="1380"/>
          <note pan="0" vol="100" key="23" len="12" pos="1392"/>
          <note pan="0" vol="100" key="23" len="12" pos="1416"/>
          <note pan="0" vol="100" key="23" len="12" pos="1428"/>
          <note pan="0" vol="100" key="23" len="12" pos="1452"/>
          <note pan="0" vol="100" key="23" len="12" pos="1464"/>
          <note pan="0" vol="100" key="23" len="12" pos="1488"/>
          <note pan="0" vol="100" key="23" len="12" pos="1500"/>
          <note pan="0" vol="100" key="23" len="12" pos="1512"/>
          <note pan="0" vol="100" key="23" len="12" pos="1524"/>
          <note pan="0" vol="100" key="23" len="12" pos="1536"/>
          <note pan="0" vol="100" key="23" len="12" pos="1548"/>
          <note pan="0" vol="100" key="23" len="12" pos="1560"/>
          <note pan="0" vol="100" key="23" len="12" pos="1572"/>
          <note pan="0" vol="100" key="23" len="12" pos="1584"/>
          <note pan="0" vol="100" key="23" len="12" pos="1608"/>
          <note pan="0" vol="100" key="23" len="12" pos="1620"/>
          <note pan="0" vol="100" key="23" len="12" pos="1644"/>
          <note pan="0" vol="100" key="23" len="12" pos="1656"/>
          <note pan="0" vol="100" key="23" len="12" pos="1680"/>
          <note pan="0" vol="100" key="23" len="12" pos="1692"/>
          <note pan="0" vol="100" key="23" len="12" pos="1704"/>
          <note pan="0" vol="100" key="23" len="12" pos="1716"/>
          <note pan="0" vol="100" key="23" len="12" pos="1728"/>
          <note pan="0" vol="100" key="23" len="12" pos="1740"/>
          <note pan="0" vol="100" key="23" len="12" pos="1752"/>
          <note pan="0" vol="100" key="23" len="12" pos="1764"/>
          <note pan="0" vol="100" key="23" len="12" pos="1776"/>
          <note pan="0" vol="100" key="23" len="12" pos="1800"/>
          <note pan="0" vol="100" key="23" len="12" pos="1812"/>
          <note pan="0" vol="100" key="23" len="12" pos="1836"/>
          <note pan="0" vol="100" key="23" len="12" pos="1848"/>
          <note pan="0" vol="100" key="23" len="12" pos="1872"/>
          <note pan="0" vol="100" key="23" len="12" pos="1884"/>
          <note pan="0" vol="100" key="23" len="12" pos="1896"/>
          <note pan="0" vol="100" key="23" len="12" pos="1908"/>
          <note pan="0" vol="100" key="23" len="12" pos="1920"/>
          <note pan="0" vol="100" key="23" len="12" pos="1932"/>
          <note pan="0" vol="100" key="23" len="12" pos="1944"/>
          <note pan="0" vol="100" key="23" len="12" pos="1956"/>
          <note pan="0" vol="100" key="23" len="12" pos="1968"/>
          <note pan="0" vol="100" key="23" len="12" pos="1992"/>
          <note pan="0" vol="100" key="23" len="12" pos="2004"/>
          <note pan="0" vol="100" key="23" len="12" pos="2028"/>
          <note pan="0" vol="100" key="23" len="12" pos="2040"/>
          <note pan="0" vol="100" key="23" len="12" pos="2064"/>
          <note pan="0" vol="100" key="23" len="12" pos="2076"/>
          <note pan="0" vol="100" key="23" len="12" pos="2088"/>
          <note pan="0" vol="100" key="23" len="12" pos="2100"/>
          <note pan="0" vol="100" key="23" len="12" pos="2112"/>
          <note pan="0" vol="100" key="23" len="12" pos="2124"/>
          <note pan="0" vol="100" key="23" len="12" pos="2136"/>
          <note pan="0" vol="100" key="23" len="12" pos="2148"/>
          <note pan="0" vol="100" key="23" len="12" pos="2160"/>
          <note pan="0" vol="100" key="23" len="12" pos="2184"/>
          <note pan="0" vol="100" key="23" len="12" pos="2196"/>
          <note pan="0" vol="100" key="23" len="12" pos="2220"/>
          <note pan="0" vol="100" key="23" len="12" pos="2232"/>
          <note pan="0" vol="100" key="23" len="12" pos="2256"/>
          <note pan="0" vol="100" key="23" len="12" pos="2268"/>
          <note pan="0" vol="100" key="23" len="12" pos="2280"/>
          <note pan="0" vol="100" key="23" len="12" pos="2292"/>
          <note pan="0" vol="100" key="23" len="12" pos="2304"/>
          <note pan="0" vol="100" key="23" len="12" pos="2316"/>
          <note pan="0" vol="100" key="23" len="12" pos="2328"/>
          <note pan="0" vol="100" key="23" len="12" pos="2340"/>
          <note pan="0" vol="100" key="23" len="12" pos="2352"/>
          <note pan="0" vol="100" key="23" len="12" pos="2376"/>
          <note pan="0" vol="100" key="23" len="12" pos="2388"/>
          <note pan="0" vol="100" key="23" len="12" pos="2412"/>
          <note pan="0" vol="100" key="23" len="12" pos="2424"/>
          <note pan="0" vol="100" key="23" len="12" pos="2448"/>
          <note pan="0" vol="100" key="23" len="12" pos="2460"/>
          <note pan="0" vol="100" key="23" len="12" pos="2472"/>
          <note pan="0" vol="100" key="23" len="12" pos="2484"/>
          <note pan="0" vol="100" key="23" len="12" pos="2496"/>
          <note pan="0" vol="100" key="23" len="12" pos="2508"/>
          <note pan="0" vol="100" key="23" len="12" pos="2520"/>
          <note pan="0" vol="100" key="23" len="12" pos="2532"/>
          <note pan="0" vol="100" key="23" len="12" pos="2544"/>
          <note pan="0" vol="100" key="23" len="12" pos="2568"/>
          <note pan="0" vol="100" key="23" len="12" pos="2580"/>
          <note pan="0" vol="100" key="23" len="12" pos="2604"/>
          <note pan="0" vol="100" key="23" len="12" pos="2616"/>
          <note pan="0" vol="100" key="23" len="12" pos="2640"/>
          <note pan="0" vol="100" key="23" len="12" pos="2652"/>
          <note pan="0" vol="100" key="23" len="12" pos="2664"/>
          <note pan="0" vol="100" key="23" len="12" pos="2676"/>
          <note pan="0" vol="100" key="23" len="12" pos="2688"/>
          <note pan="0" vol="100" key="23" len="12" pos="2700"/>
          <note pan="0" vol="100" key="23" len="12" pos="2712"/>
          <note pan="0" vol="100" key="23" len="12" pos="2724"/>
          <note pan="0" vol="100" key="23" len="12" pos="2736"/>
          <note pan="0" vol="100" key="23" len="12" pos="2760"/>
          <note pan="0" vol="100" key="23" len="12" pos="2772"/>
          <note pan="0" vol="100" key="23" len="12" pos="2796"/>
          <note pan="0" vol="100" key="23" len="12" pos="2808"/>
          <note pan="0" vol="100" key="23" len="12" pos="2832"/>
          <note pan="0" vol="100" key="23" len="12" pos="2844"/>
          <note pan="0" vol="100" key="23" len="12" pos="2856"/>
          <note pan="0" vol="100" key="23" len="12" pos="2868"/>
          <note pan="0" vol="100" key="23" len="12" pos="2880"/>
          <note pan="0" vol="100" key="23" len="12" pos="2892"/>
          <note pan="0" vol="100" key="23" len="12" pos="2904"/>
          <note pan="0" vol="100" key="23" len="12" pos="2916"/>
          <note pan="0" vol="100" key="23" len="12" pos="2928"/>
          <note pan="0" vol="100" key="23" len="12" pos="2952"/>
          <note pan="0" vol="100" key="23" len="12" pos="2964"/>
          <note pan="0" vol="100" key="23" len="12" pos="2988"/>
          <note pan="0" vol="100" key="23" len="12" pos="3000"/>
          <note pan="0" vol="100" key="23" len="12" pos="3024"/>
          <note pan="0" vol="100" key="23" len="12" pos="3036"/>
          <note pan="0" vol="100" key="23" len="12" pos="3048"/>
          <note pan="0" vol="100" key="23" len="12" pos="3060"/>
          <note pan="0" vol="100" key="23" len="12" pos="3072"/>
          <note pan="0" vol="100" key="23" len="12" pos="3084"/>
          <note pan="0" vol="100" key="23" len="12" pos="3096"/>
          <note pan="0" vol="100" key="23" len="12" pos="3108"/>
          <note pan="0" vol="100" key="23" len="12" pos="3120"/>
          <note pan="0" vol="100" key="23" len="12" pos="3144"/>
          <note pan="0" vol="100" key="23" len="12" pos="3156"/>
          <note pan="0" vol="100" key="23" len="12" pos="3180"/>
          <note pan="0" vol="100" key="23" len="12" pos="3192"/>
          <note pan="0" vol="100" key="23" len="12" pos="3216"/>
          <note pan="0" vol="100" key="23" len="12" pos="3228"/>
          <note pan="0" vol="100" key="23" len="12" pos="3240"/>
          <note pan="0" vol="100" key="23" len="12" pos="3252"/>
          <note pan="0" vol="100" key="23" len="12" pos="3264"/>
          <note pan="0" vol="100" key="23" len="12" pos="3276"/>
          <note pan="0" vol="100" key="23" len="12" pos="3288"/>
          <note pan="0" vol="100" key="23" len="12" pos="3300"/>
          <note pan="0" vol="100" key="23" len="12" pos="3312"/>
          <note pan="0" vol="100" key="23" len="12" pos="3336"/>
          <note pan="0" vol="100" key="23" len="12" pos="3348"/>
          <note pan="0" vol="100" key="23" len="12" pos="3372"/>
          <note pan="0" vol="100" key="23" len="12" pos="3384"/>
          <note pan="0" vol="100" key="23" len="12" pos="3408"/>
          <note pan="0" vol="100" key="23" len="12" pos="3420"/>
          <note pan="0" vol="100" key="23" len="12" pos="3432"/>
          <note pan="0" vol="100" key="23" len="12" pos="3444"/>
          <note pan="0" vol="100" key="23" len="12" pos="3456"/>
          <note pan="0" vol="100" key="23" len="12" pos="3468"/>
          <note pan="0" vol="100" key="23" len="12" pos="3480"/>
          <note pan="0" vol="100" key="23" len="12" pos="3492"/>
          <note pan="0" vol="100" key="23" len="12" pos="3504"/>
          <note pan="0" vol="100" key="23" len="12" pos="3528"/>
          <note pan="0" vol="100" key="23" len="12" pos="3540"/>
          <note pan="0" vol="100" key="23" len="12" pos="3564"/>
          <note pan="0" vol="100" key="23" len="12" pos="3576"/>
          <note pan="0" vol="100" key="23" len="12" pos="3600"/>
          <note pan="0" vol="100" key="23" len="12" pos="3612"/>
          <note pan="0" vol="100" key="23" len="12" pos="3624"/>
          <note pan="0" vol="100" key="23" len="12" pos="3636"/>
          <note pan="0" vol="100" key="23" len="12" pos="3648"/>
          <note pan="0" vol="100" key="23" len="12" pos="3660"/>
          <note pan="0" vol="100" key="23" len="12" pos="3672"/>
          <note pan="0" vol="100" key="23" len="12" pos="3684"/>
          <note pan="0" vol="100" key="23" len="12" pos="3696"/>
          <note pan="0" vol="100" key="23" len="12" pos="3720"/>
          <note pan="0" vol="100" key="23" len="12" pos="3732"/>
          <note pan="0" vol="100" key="23" len="12" pos="3756"/>
          <note pan="0" vol="100" key="23" len="12" pos="3768"/>
          <note pan="0" vol="100" key="23" len="12" pos="3792"/>
          <note pan="0" vol="100" key="23" len="12" pos="3804"/>
          <note pan="0" vol="100" key="23" len="12" pos="3816"/>
          <note pan="0" vol="100" key="23" len="12" pos="3828"/>
          <note pan="0" vol="100" key="23" len="12" pos="3840"/>
          <note pan="0" vol="100" key="23" len="12" pos="3852"/>
          <note pan="0" vol="100" key="23" len="12" pos="3864"/>
          <note pan="0" vol="100" key="23" len="12" pos="3876"/>
          <note pan="0" vol="100" key="23" len="12" pos="3888"/>
          <note pan="0" vol="100" key="23" len="12" pos="3912"/>
          <note pan="0" vol="100" key="23" len="12" pos="3924"/>
          <note pan="0" vol="100" key="23" len="12" pos="3948"/>
          <note pan="0" vol="100" key="23" len="12" pos="3960"/>
          <note pan="0" vol="100" key="23" len="12" pos="3984"/>
          <note pan="0" vol="100" key="23" len="12" pos="3996"/>
          <note pan="0" vol="100" key="23" len="12" pos="4008"/>
          <note pan="0" vol="100" key="23" len="12" pos="4020"/>
          <note pan="0" vol="100" key="23" len="12" pos="4032"/>
          <note pan="0" vol="100" key="23" len="12" pos="4044"/>
          <note pan="0" vol="100" key="23" len="12" pos="4056"/>
          <note pan="0" vol="100" key="23" len="12" pos="4068"/>
          <note pan="0" vol="100" key="23" len="12" pos="4080"/>
          <note pan="0" vol="100" key="23" len="12" pos="4104"/>
          <note pan="0" vol="100" key="23" len="12" pos="4116"/>
          <note pan="0" vol="100" key="23" len="12" pos="4140"/>
          <note pan="0" vol="100" key="23" len="12" pos="4152"/>
          <note pan="0" vol="100" key="23" len="12" pos="4176"/>
          <note pan="0" vol="100" key="23" len="12" pos="4188"/>
          <note pan="0" vol="100" key="23" len="12" pos="4200"/>
          <note pan="0" vol="100" key="23" len="12" pos="4212"/>
          <note pan="0" vol="100" key="23" len="12" pos="4224"/>
          <note pan="0" vol="100" key="23" len="12" pos="4236"/>
          <note pan="0" vol="100" key="23" len="12" pos="4248"/>
          <note pan="0" vol="100" key="23" len="12" pos="4260"/>
          <note pan="0" vol="100" key="23" len="12" pos="4272"/>
          <note pan="0" vol="100" key="23" len="12" pos="4296"/>
          <note pan="0" vol="100" key="23" len="12" pos="4308"/>
          <note pan="0" vol="100" key="23" len="12" pos="4332"/>
          <note pan="0" vol="100" key="23" len="12" pos="4344"/>
          <note pan="0" vol="100" key="23" len="12" pos="4368"/>
          <note pan="0" vol="100" key="23" len="12" pos="4380"/>
          <note pan="0" vol="100" key="23" len="12" pos="4392"/>
          <note pan="0" vol="100" key="23" len="12" pos="4404"/>
          <note pan="0" vol="100" key="23" len="12" pos="4416"/>
          <note pan="0" vol="100" key="23" len="12" pos="4428"/>
          <note pan="0" vol="100" key="23" len="12" pos="4440"/>
          <note pan="0" vol="100" key="23" len="12" pos="4452"/>
          <note pan="0" vol="100" key="23" len="12" pos="4464"/>
          <note pan="0" vol="100" key="23" len="12" pos="4488"/>
          <note pan="0" vol="100" key="23" len="12" pos="4500"/>
          <note pan="0" vol="100" key="23" len="12" pos="4524"/>
          <note pan="0" vol="100" key="23" len="12" pos="4536"/>
          <note pan="0" vol="100" key="23" len="12" pos="4560"/>
          <note pan="0" vol="100" key="23" len="12" pos="4572"/>
          <note pan="0" vol="100" key="23" len="12" pos="4584"/>
          <note pan="0" vol="100" key="23" len="12" pos="4596"/>
          <note pan="0" vol="100" key="23" len="12" pos="4608"/>
          <note pan="0" vol="100" key="23" len="12" pos="4620"/>
          <note pan="0" vol="100" key="23" len="12" pos="4632"/>
          <note pan="0" vol="100" key="23" len="12" pos="4644"/>
          <note pan="0" vol="100" key="23" len="12" pos="4656"/>
          <note pan="0" vol="100" key="23" len="12" pos="4680"/>
          <note pan="0" vol="100" key="23" len="12" pos="4692"/>
          <note pan="0" vol="100" key="23" len="12" pos="4716"/>
          <note pan="0" vol="100" key="23" len="12" pos="4728"/>
          <note pan="0" vol="100" key="23" len="12" pos="4752"/>
          <note pan="0" vol="100" key="23" len="12" pos="4764"/>
          <note pan="0" vol="100" key="23" len="12" pos="4776"/>
          <note pan="0" vol="100" key="23" len="12" pos="4788"/>
          <note pan="0" vol="100" key="23" len="12" pos="4800"/>
          <note pan="0" vol="100" key="23" len="12" pos="4812"/>
          <note pan="0" vol="100" key="23" len="12" pos="4824"/>
          <note pan="0" vol="100" key="23" len="12" pos="4836"/>
          <note pan="0" vol="100" key="23" len="12" pos="4848"/>
          <note pan="0" vol="100" key="23" len="12" pos="4872"/>
          <note pan="0" vol="100" key="23" len="12" pos="4884"/>
          <note pan="0" vol="100" key="23" len="12" pos="4908"/>
          <note pan="0" vol="100" key="23" len="12" pos="4920"/>
          <note pan="0" vol="100" key="23" len="12" pos="4944"/>
          <note pan="0" vol="100" key="23" len="12" pos="4956"/>
          <note pan="0" vol="100" key="23" len="12" pos="4968"/>
          <note pan="0" vol="100" key="23" len="12" pos="4980"/>
          <note pan="0" vol="100" key="23" len="12" pos="4992"/>
          <note pan="0" vol="100" key="23" len="12" pos="5004"/>
          <note pan="0" vol="100" key="23" len="12" pos="5016"/>
          <note pan="0" vol="100" key="23" len="12" pos="5028"/>
          <note pan="0" vol="100" key="23" len="12" pos="5040"/>
          <note pan="0" vol="100" key="23" len="12" pos="5064"/>
          <note pan="0" vol="100" key="23" len="12" pos="5076"/>
          <note pan="0" vol="100" key="23" len="12" pos="5100"/>
          <note pan="0" vol="100" key="23" len="12" pos="5112"/>
          <note pan="0" vol="100" key="23" len="12" pos="5136"/>
          <note pan="0" vol="100" key="23" len="12" pos="5148"/>
          <note pan="0" vol="100" key="23" len="12" pos="5160"/>
          <note pan="0" vol="100" key="23" len="12" pos="5172"/>
          <note pan="0" vol="100" key="23" len="12" pos="5184"/>
          <note pan="0" vol="100" key="23" len="12" pos="5196"/>
          <note pan="0" vol="100" key="23" len="12" pos="5208"/>
          <note pan="0" vol="100" key="23" len="12" pos="5220"/>
          <note pan="0" vol="100" key="23" len="12" pos="5232"/>
          <note pan="0" vol="100" key="23" len="12" pos="5256"/>
          <note pan="0" vol="100" key="23" len="12" pos="5268"/>
          <note pan="0" vol="100" key="23" len="12" pos="5292"/>
          <note pan="0" vol="100" key="23" len="12" pos="5304"/>
          <note pan="0" vol="100" key="23" len="12" pos="5328"/>
          <note pan="0" vol="100" key="23" len="12" pos="5340"/>
          <note pan="0" vol="100" key="23" len="12" pos="5352"/>
          <note pan="0" vol="100" key="23" len="12" pos="5364"/>
          <note pan="0" vol="100" key="23" len="12" pos="5376"/>
          <note pan="0" vol="100" key="23" len="12" pos="5388"/>
          <note pan="0" vol="100" key="23" len="12" pos="5400"/>
          <note pan="0" vol="100" key="23" len="12" pos="5412"/>
          <note pan="0" vol="100" key="23" len="12" pos="5424"/>
          <note pan="0" vol="100" key="23" len="12" pos="5448"/>
          <note pan="0" vol="100" key="23" len="12" pos="5460"/>
          <note pan="0" vol="100" key="23" len="12" pos="5484"/>
          <note pan="0" vol="100" key="23" len="12" pos="5496"/>
          <note pan="0" vol="100" key="23" len="12" pos="5520"/>
          <note pan="0" vol="100" key="23" len="12" pos="5532"/>
          <note pan="0" vol="100" key="23" len="12" pos="5544"/>
          <note pan="0" vol="100" key="23" len="12" pos="5556"/>
          <note pan="0" vol="100" key="23" len="12" pos="5568"/>
          <note pan="0" vol="100" key="23" len="12" pos="5580"/>
          <note pan="0" vol="100" key="23" len="12" pos="5592"/>
          <note pan="0" vol="100" key="23" len="12" pos="5604"/>
          <note pan="0" vol="100" key="23" len="12" pos="5616"/>
          <note pan="0" vol="100" key="23" len="12" pos="5640"/>
          <note pan="0" vol="100" key="23" len="12" pos="5652"/>
          <note pan="0" vol="100" key="23" len="12" pos="5676"/>
          <note pan="0" vol="100" key="23" len="12" pos="5688"/>
          <note pan="0" vol="100" key="23" len="12" pos="5712"/>
          <note pan="0" vol="100" key="23" len="12" pos="5724"/>
          <note pan="0" vol="100" key="23" len="12" pos="5736"/>
          <note pan="0" vol="100" key="23" len="12" pos="5748"/>
          <note pan="0" vol="100" key="23" len="12" pos="5760"/>
          <note pan="0" vol="100" key="23" len="12" pos="5772"/>
          <note pan="0" vol="100" key="23" len="12" pos="5784"/>
          <note pan="0" vol="100" key="23" len="12" pos="5796"/>
          <note pan="0" vol="100" key="23" len="12" pos="5808"/>
          <note pan="0" vol="100" key="23" len="12" pos="5832"/>
          <note pan="0" vol="100" key="23" len="12" pos="5844"/>
          <note pan="0" vol="100" key="23" len="12" pos="5868"/>
          <note pan="0" vol="100" key="23" len="12" pos="5880"/>
          <note pan="0" vol="100" key="23" len="12" pos="5904"/>
          <note pan="0" vol="100" key="23" len="12" pos="5916"/>
          <note pan="0" vol="100" key="23" len="12" pos="5928"/>
          <note pan="0" vol="100" key="23" len="12" pos="5940"/>
          <note pan="0" vol="100" key="23" len="12" pos="5952"/>
          <note pan="0" vol="100" key="23" len="12" pos="5964"/>
          <note pan="0" vol="100" key="23" len="12" pos="5976"/>
          <note pan="0" vol="100" key="23" len="12" pos="5988"/>
          <note pan="0" vol="100" key="23" len="12" pos="6000"/>
          <note pan="0" vol="100" key="23" len="12" pos="6024"/>
          <note pan="0" vol="100" key="23" len="12" pos="6036"/>
          <note pan="0" vol="100" key="23" len="12" pos="6060"/>
          <note pan="0" vol="100" key="23" len="12" pos="6072"/>
          <note pan="0" vol="100" key="23" len="12" pos="6096"/>
          <note pan="0" vol="100" key="23" len="12" pos="6108"/>
          <note pan="0" vol="100" key="23" len="12" pos="6120"/>
          <note pan="0" vol="100" key="23" len="12" pos="6132"/>
          <note pan="0" vol="100" key="23" len="12" pos="6144"/>
          <note pan="0" vol="100" key="23" len="12" pos="6156"/>
          <note pan="0" vol="100" key="23" len="12" pos="6168"/>
          <note pan="0" vol="100" key="23" len="12" pos="6180"/>
          <note pan="0" vol="100" key="23" len="12" pos="6192"/>
          <note pan="0" vol="100" key="23" len="12" pos="6216"/>
          <note pan="0" vol="100" key="23" len="12" pos="6228"/>
          <note pan="0" vol="100" key="23" len="12" pos="6252"/>
          <note pan="0" vol="100" key="23" len="12" pos="6264"/>
          <note pan="0" vol="100" key="23" len="12" pos="6288"/>
          <note pan="0" vol="100" key="23" len="12" pos="6300"/>
          <note pan="0" vol="100" key="23" len="12" pos="6312"/>
          <note pan="0" vol="100" key="23" len="12" pos="6324"/>
          <note pan="0" vol="100" key="23" len="12" pos="6336"/>
          <note pan="0" vol="100" key="23" len="12" pos="6348"/>
          <note pan="0" vol="100" key="23" len="12" pos="6360"/>
          <note pan="0" vol="100" key="23" len="12" pos="6372"/>
          <note pan="0" vol="100" key="23" len="12" pos="6384"/>
          <note pan="0" vol="100" key="23" len="12" pos="6408"/>
          <note pan="0" vol="100" key="23" len="12" pos="6420"/>
          <note pan="0" vol="100" key="23" len="12" pos="6444"/>
          <note pan="0" vol="100" key="23" len="12" pos="6456"/>
          <note pan="0" vol="100" key="23" len="12" pos="6480"/>
          <note pan="0" vol="100" key="23" len="12" pos="6492"/>
          <note pan="0" vol="100" key="23" len="12" pos="6504"/>
          <note pan="0" vol="100" key="23" len="12" pos="6516"/>
          <note pan="0" vol="100" key="23" len="12" pos="6528"/>
          <note pan="0" vol="100" key="23" len="12" pos="6540"/>
          <note pan="0" vol="100" key="23" len="12" pos="6552"/>
          <note pan="0" vol="100" key="23" len="12" pos="6564"/>
          <note pan="0" vol="100" key="23" len="12" pos="6576"/>
          <note pan="0" vol="100" key="23" len="12" pos="6600"/>
          <note pan="0" vol="100" key="23" len="12" pos="6612"/>
          <note pan="0" vol="100" key="23" len="12" pos="6636"/>
          <note pan="0" vol="100" key="23" len="12" pos="6648"/>
          <note pan="0" vol="100" key="23" len="12" pos="6672"/>
          <note pan="0" vol="100" key="23" len="12" pos="6684"/>
          <note pan="0" vol="100" key="23" len="12" pos="6696"/>
          <note pan="0" vol="100" key="23" len="12" pos="6708"/>
          <note pan="0" vol="100" key="23" len="12" pos="6720"/>
          <note pan="0" vol="100" key="23" len="12" pos="6732"/>
          <note pan="0" vol="100" key="23" len="12" pos="6744"/>
          <note pan="0" vol="100" key="23" len="12" pos="6756"/>
          <note pan="0" vol="100" key="23" len="12" pos="6768"/>
          <note pan="0" vol="100" key="23" len="12" pos="6792"/>
          <note pan="0" vol="100" key="23" len="12" pos="6804"/>
          <note pan="0" vol="100" key="23" len="12" pos="6828"/>
          <note pan="0" vol="100" key="23" len="12" pos="6840"/>
          <note pan="0" vol="100" key="23" len="12" pos="6864"/>
          <note pan="0" vol="100" key="23" len="12" pos="6876"/>
          <note pan="0" vol="100" key="23" len="12" pos="6888"/>
          <note pan="0" vol="100" key="23" len="12" pos="6900"/>
          <note pan="0" vol="100" key="23" len="12" pos="6912"/>
          <note pan="0" vol="100" key="23" len="12" pos="6924"/>
          <note pan="0" vol="100" key="23" len="12" pos="6936"/>
          <note pan="0" vol="100" key="23" len="12" pos="6948"/>
          <note pan="0" vol="100" key="23" len="12" pos="6960"/>
          <note pan="0" vol="100" key="23" len="12" pos="6984"/>
          <note pan="0" vol="100" key="23" len="12" pos="6996"/>
          <note pan="0" vol="100" key="23" len="12" pos="7020"/>
          <note pan="0" vol="100" key="23" len="12" pos="7032"/>
          <note pan="0" vol="100" key="23" len="12" pos="7056"/>
          <note pan="0" vol="100" key="23" len="12" pos="7068"/>
          <note pan="0" vol="100" key="23" len="12" pos="7080"/>
          <note pan="0" vol="100" key="23" len="12" pos="7092"/>
          <note pan="0" vol="100" key="23" len="12" pos="7104"/>
          <note pan="0" vol="100" key="23" len="12" pos="7116"/>
          <note pan="0" vol="100" key="23" len="12" pos="7128"/>
          <note pan="0" vol="100" key="23" len="12" pos="7140"/>
          <note pan="0" vol="100" key="23" len="12" pos="7152"/>
          <note pan="0" vol="100" key="23" len="12" pos="7176"/>
          <note pan="0" vol="100" key="23" len="12" pos="7188"/>
          <note pan="0" vol="100" key="23" len="12" pos="7212"/>
          <note pan="0" vol="100" key="23" len="12" pos="7224"/>
          <note pan="0" vol="100" key="23" len="12" pos="7248"/>
          <note pan="0" vol="100" key="23" len="12" pos="7260"/>
          <note pan="0" vol="100" key="23" len="12" pos="7272"/>
          <note pan="0" vol="100" key="23" len="12" pos="7284"/>
          <note pan="0" vol="100" key="23" len="12" pos="7296"/>
          <note pan="0" vol="100" key="23" len="12" pos="7308"/>
          <note pan="0" vol="100" key="23" len="12" pos="7320"/>
          <note pan="0" vol="100" key="23" len="12" pos="7332"/>
          <note pan="0" vol="100" key="23" len="12" pos="7344"/>
          <note pan="0" vol="100" key="23" len="12" pos="7368"/>
          <note pan="0" vol="100" key="23" len="12" pos="7380"/>
          <note pan="0" vol="100" key="23" len="12" pos="7404"/>
          <note pan="0" vol="100" key="23" len="12" pos="7416"/>
          <note pan="0" vol="100" key="23" len="12" pos="7440"/>
          <note pan="0" vol="100" key="23" len="12" pos="7452"/>
          <note pan="0" vol="100" key="23" len="12" pos="7464"/>
          <note pan="0" vol="100" key="23" len="12" pos="7476"/>
          <note pan="0" vol="100" key="23" len="12" pos="7488"/>
          <note pan="0" vol="100" key="23" len="12" pos="7500"/>
          <note pan="0" vol="100" key="23" len="12" pos="7512"/>
          <note pan="0" vol="100" key="23" len="12" pos="7524"/>
          <note pan="0" vol="100" key="23" len="12" pos="7536"/>
          <note pan="0" vol="100" key="23" len="12" pos="7560"/>
          <note pan="0" vol="100" key="23" len="12" pos="7572"/>
          <note pan="0" vol="100" key="23" len="12" pos="7596"/>
          <note pan="0" vol="100" key="23" len="12" pos="7608"/>
          <note pan="0" vol="100" key="23" len="12" pos="7632"/>
          <note pan="0" vol="100" key="23" len="12" pos="7644"/>
          <note pan="0" vol="100" key="23" len="12" pos="7656"/>
          <note pan="0" vol="100" key="23" len="12" pos="7668"/>
          <note pan="0" vol="100" key="23" len="12" pos="7680"/>
          <note pan="0" vol="100" key="23" len="12" pos="7692"/>
          <note pan="0" vol="100" key="23" len="12" pos="7704"/>
          <note pan="0" vol="100" key="23" len="12" pos="7716"/>
          <note pan="0" vol="100" key="23" len="12" pos="7728"/>
          <note pan="0" vol="100" key="23" len="12" pos="7752"/>
          <note pan="0" vol="100" key="23" len="12" pos="7764"/>
          <note pan="0" vol="100" key="23" len="12" pos="7788"/>
          <note pan="0" vol="100" key="23" len="12" pos="7800"/>
          <note pan="0" vol="100" key="23" len="12" pos="7824"/>
          <note pan="0" vol="100" key="23" len="12" pos="7836"/>
          <note pan="0" vol="100" key="23" len="12" pos="7848"/>
          <note pan="0" vol="100" key="23" len="12" pos="7860"/>
          <note pan="0" vol="100" key="23" len="12" pos="7872"/>
          <note pan="0" vol="100" key="23" len="12" pos="7884"/>
          <note pan="0" vol="100" key="23" len="12" pos="7896"/>
          <note pan="0" vol="100" key="23" len="12" pos="7908"/>
          <note pan="0" vol="100" key="23" len="12" pos="7920"/>
          <note pan="0" vol="100" key="23" len="12" pos="7944"/>
          <note pan="0" vol="100" key="23" len="12" pos="7956"/>
          <note pan="0" vol="100" key="23" len="12" pos="7980"/>
          <note pan="0" vol="100" key="23" len="12" pos="7992"/>
          <note pan="0" vol="100" key="23" len="12" pos="8016"/>
          <note pan="0" vol="100" key="23" len="12" pos="8028"/>
          <note pan="0" vol="100" key="23" len="12" pos="8040"/>
          <note pan="0" vol="100" key="23" len="12" pos="8052"/>
          <note pan="0" vol="100" key="23" len="12" pos="8064"/>
          <note pan="0" vol="100" key="23" len="12" pos="8076"/>
          <note pan="0" vol="100" key="23" len="12" pos="8088"/>
          <note pan="0" vol="100" key="23" len="12" pos="8100"/>
          <note pan="0" vol="100" key="23" len="12" pos="8112"/>
          <note pan="0" vol="100" key="23" len="12" pos="8136"/>
          <note pan="0" vol="100" key="23" len="12" pos="8148"/>
          <note pan="0" vol="100" key="23" len="12" pos="8172"/>
          <note pan="0" vol="100" key="23" len="12" pos="8184"/>
          <note pan="0" vol="100" key="23" len="12" pos="8208"/>
          <note pan="0" vol="100" key="23" len="12" pos="8220"/>
          <note pan="0" vol="100" key="23" len="12" pos="8232"/>
          <note pan="0" vol="100" key="23" len="12" pos="8244"/>
          <note pan="0" vol="100" key="23" len="12" pos="8256"/>
          <note pan="0" vol="100" key="23" len="12" pos="8268"/>
          <note pan="0" vol="100" key="23" len="12" pos="8280"/>
          <note pan="0" vol="100" key="23" len="12" pos="8292"/>
          <note pan="0" vol="100" key="23" len="12" pos="8304"/>
          <note pan="0" vol="100" key="23" len="12" pos="8328"/>
          <note pan="0" vol="100" key="23" len="12" pos="8340"/>
          <note pan="0" vol="100" key="23" len="12" pos="8364"/>
          <note pan="0" vol="100" key="23" len="12" pos="8376"/>
          <note pan="0" vol="100" key="23" len="12" pos="8400"/>
          <note pan="0" vol="100" key="23" len="12" pos="8412"/>
          <note pan="0" vol="100" key="23" len="12" pos="8424"/>
          <note pan="0" vol="100" key="23" len="12" pos="8436"/>
          <note pan="0" vol="100" key="23" len="12" pos="8448"/>
          <note pan="0" vol="100" key="23" len="12" pos="8460"/>
          <note pan="0" vol="100" key="23" len="12" pos="8472"/>
          <note pan="0" vol="100" key="23" len="12" pos="8484"/>
          <note pan="0" vol="100" key="23" len="12" pos="8496"/>
          <note pan="0" vol="100" key="23" len="12" pos="8520"/>
          <note pan="0" vol="100" key="23" len="12" pos="8532"/>
          <note pan="0" vol="100" key="23" len="12" pos="8556"/>
          <note pan="0" vol="100" key="23" len="12" pos="8568"/>
          <note pan="0" vol="100" key="23" len="12" pos="8592"/>
          <note pan="0" vol="100" key="23" len="12" pos="8604"/>
          <note pan="0" vol="100" key="23" len="12" pos="8616"/>
          <note pan="0" vol="100" key="23" len="12" pos="8628"/>
          <note pan="0" vol="100" key="23" len="12" pos="8640"/>
          <note pan="0" vol="100" key="23" len="12" pos="8652"/>
          <note pan="0" vol="100" key="23" len="12" pos="8664"/>
          <note pan="0" vol="100" key="23" len="12" pos="8676"/>
          <note pan="0" vol="100" key="23" len="12" pos="8688"/>
          <note pan="0" vol="100" key="23" len="12" pos="8712"/>
          <note pan="0" vol="100" key="23" len="12" pos="8724"/>
          <note pan="0" vol="100" key="23" len="12" pos="8748"/>
          <note pan="0" vol="100" key="23" len="12" pos="8760"/>
          <note pan="0" vol="100" key="23" len="12" pos="8784"/>
          <note pan="0" vol="100" key="23" len="12" pos="8796"/>
          <note pan="0" vol="100" key="23" len="12" pos="8808"/>
          <note pan="0" vol="100" key="23" len="12" pos="8820"/>
          <note pan="0" vol="100" key="23" len="12" pos="8832"/>
          <note pan="0" vol="100" key="23" len="12" pos="8844"/>
          <note pan="0" vol="100" key="23" len="12" pos="8856"/>
          <note pan="0" vol="100" key="23" len="12" pos="8868"/>
          <note pan="0" vol="100" key="23" len="12" pos="8880"/>
          <note pan="0" vol="100" key="23" len="12" pos="8904"/>
          <note pan="0" vol="100" key="23" len="12" pos="8916"/>
          <note pan="0" vol="100" key="23" len="12" pos="8940"/>
          <note pan="0" vol="100" key="23" len="12" pos="8952"/>
          <note pan="0" vol="100" key="23" len="12" pos="8976"/>
          <note pan="0" vol="100" key="23" len="12" pos="8988"/>
          <note pan="0" vol="100" key="23" len="12" pos="9000"/>
          <note pan="0" vol="100" key="23" len="12" pos="9012"/>
          <note pan="0" vol="100" key="23" len="12" pos="9024"/>
          <note pan="0" vol="100" key="23" len="12" pos="9036"/>
          <note pan="0" vol="100" key="23" len="12" pos="9048"/>
          <note pan="0" vol="100" key="23" len="12" pos="9060"/>
          <note pan="0" vol="100" key="23" len="12" pos="9072"/>
          <note pan="0" vol="100" key="23" len="12" pos="9096"/>
          <note pan="0" vol="100" key="23" len="12" pos="9108"/>
          <note pan="0" vol="100" key="23" len="12" pos="9132"/>
          <note pan="0" vol="100" key="23" len="12" pos="9144"/>
          <note pan="0" vol="100" key="23" len="12" pos="9168"/>
          <note pan="0" vol="100" key="23" len="12" pos="9180"/>
          <note pan="0" vol="100" key="23" len="12" pos="9192"/>
          <note pan="0" vol="100" key="23" len="12" pos="9204"/>
          <note pan="0" vol="100" key="23" len="12" pos="9216"/>
          <note pan="0" vol="100" key="23" len="12" pos="9228"/>
          <note pan="0" vol="100" key="23" len="12" pos="9240"/>
          <note pan="0" vol="100" key="23" len="12" pos="9252"/>
          <note pan="0" vol="100" key="23" len="12" pos="9264"/>
          <note pan="0" vol="100" key="23" len="12" pos="9288"/>
          <note pan="0" vol="100" key="23" len="12" pos="9300"/>
          <note pan="0" vol="100" key="23" len="12" pos="9324"/>
          <note pan="0" vol="100" key="23" len="12" pos="9336"/>
          <note pan="0" vol="100" key="23" len="12" pos="9360"/>
          <note pan="0" vol="100" key="23" len="12" pos="9372"/>
          <note pan="0" vol="100" key="23" len="12" pos="9384"/>
          <note pan="0" vol="100" key="23" len="12" pos="9396"/>
          <note pan="0" vol="100" key="23" len="12" pos="9408"/>
          <note pan="0" vol="100" key="23" len="12" pos="9420"/>
          <note pan="0" vol="100" key="23" len="12" pos="9432"/>
          <note pan="0" vol="100" key="23" len="12" pos="9444"/>
          <note pan="0" vol="100" key="23" len="12" pos="9456"/>
          <note pan="0" vol="100" key="23" len="12" pos="9480"/>
          <note pan="0" vol="100" key="23" len="12" pos="9492"/>
          <note pan="0" vol="100" key="23" len="12" pos="9516"/>
          <note pan="0" vol="100" key="23" len="12" pos="9528"/>
          <note pan="0" vol="100" key="23" len="12" pos="9552"/>
          <note pan="0" vol="100" key="23" len="12" pos="9564"/>
          <note pan="0" vol="100" key="23" len="12" pos="9576"/>
          <note pan="0" vol="100" key="23" len="12" pos="9588"/>
          <note pan="0" vol="100" key="23" len="12" pos="9600"/>
          <note pan="0" vol="100" key="23" len="12" pos="9612"/>
          <note pan="0" vol="100" key="23" len="12" pos="9624"/>
          <note pan="0" vol="100" key="23" len="12" pos="9636"/>
          <note pan="0" vol="100" key="23" len="12" pos="9648"/>
          <note pan="0" vol="100" key="23" len="12" pos="9672"/>
          <note pan="0" vol="100" key="23" len="12" pos="9684"/>
          <note pan="0" vol="100" key="23" len="12" pos="9708"/>
          <note pan="0" vol="100" key="23" len="12" pos="9720"/>
          <note pan="0" vol="100" key="23" len="12" pos="9744"/>
          <note pan="0" vol="100" key="23" len="12" pos="9756"/>
          <note pan="0" vol="100" key="23" len="12" pos="9768"/>
          <note pan="0" vol="100" key="23" len="12" pos="9780"/>
          <note pan="0" vol="100" key="23" len="12" pos="9792"/>
          <note pan="0" vol="100" key="23" len="12" pos="9804"/>
          <note pan="0" vol="100" key="23" len="12" pos="9816"/>
          <note pan="0" vol="100" key="23" len="12" pos="9828"/>
          <note pan="0" vol="100" key="23" len="12" pos="9840"/>
          <note pan="0" vol="100" key="23" len="12" pos="9864"/>
          <note pan="0" vol="100" key="23" len="12" pos="9876"/>
          <note pan="0" vol="100" key="23" len="12" pos="9900"/>
          <note pan="0" vol="100" key="23" len="12" pos="9912"/>
          <note pan="0" vol="100" key="23" len="12" pos="9936"/>
          <note pan="0" vol="100" key="23" len="12" pos="9948"/>
          <note pan="0" vol="100" key="23" len="12" pos="9960"/>
          <note pan="0" vol="100" key="23" len="12" pos="9972"/>
          <note pan="0" vol="100" key="23" len="12" pos="9984"/>
          <note pan="0" vol="100" key="23" len="12" pos="9996"/>
          <note pan="0" vol="100" key="23" len="12" pos="10008"/>
          <note pan="0" vol="100" key="23" len="12" pos="10020"/>
          <note pan="0" vol="100" key="23" len="12" pos="10032"/>
          <note pan="0" vol="100" key="23" len="12" pos="10056"/>
          <note pan="0" vol="100" key="23" len="12" pos="10068"/>
          <note pan="0" vol="100" key="23" len="12" pos="10092"/>
          <note pan="0" vol="100" key="23" len="12" pos="10104"/>
          <note pan="0" vol="100" key="23" len="12" pos="10128"/>
          <note pan="0" vol="100" key="23" len="12" pos="10140"/>
          <note pan="0" vol="100" key="23" len="12" pos="10152"/>
          <note pan="0" vol="100" key="23" len="12" pos="10164"/>
          <note pan="0" vol="100" key="23" len="12" pos="10176"/>
          <note pan="0" vol="100" key="23" len="12" pos="10188"/>
          <note pan="0" vol="100" key="23" len="12" pos="10200"/>
          <note pan="0" vol="100" key="23" len="12" pos="10212"/>
          <note pan="0" vol="100" key="23" len="12" pos="10224"/>
          <note pan="0" vol="100" key="23" len="12" pos="10248"/>
          <note pan="0" vol="100" key="23" len="12" pos="10260"/>
          <note pan="0" vol="100" key="23" len="12" pos="10284"/>
          <note pan="0" vol="100" key="23" len="12" pos="10296"/>
          <note pan="0" vol="100" key="23" len="12" pos="10320"/>
          <note pan="0" vol="100" key="23" len="12" pos="10332"/>
          <note pan="0" vol="100" key="23" len="12" pos="10344"/>
          <note pan="0" vol="100" key="23" len="12" pos="10356"/>
          <note pan="0" vol="100" key="23" len="12" pos="10368"/>
          <note pan="0" vol="100" key="23" len="12" pos="10380"/>
          <note pan="0" vol="100" key="23" len="12" pos="10392"/>
          <note pan="0" vol="100" key="23" len="12" pos="10404"/>
          <note pan="0" vol="100" key="23" len="12" pos="10416"/>
          <note pan="0" vol="100" key="23" len="12" pos="10440"/>
          <note pan="0" vol="100" key="23" len="12" pos="10452"/>
          <note pan="0" vol="100" key="23" len="12" pos="10476"/>
          <note pan="0" vol="100" key="23" len="12" pos="10488"/>
          <note pan="0" vol="100" key="23" len="12" pos="10512"/>
          <note pan="0" vol="100" key="23" len="12" pos="10524"/>
          <note pan="0" vol="100" key="23" len="12" pos="10536"/>
          <note pan="0" vol="100" key="23" len="12" pos="10548"/>
          <note pan="0" vol="100" key="23" len="12" pos="10560"/>
          <note pan="0" vol="100" key="23" len="12" pos="10572"/>
          <note pan="0" vol="100" key="23" len="12" pos="10584"/>
          <note pan="0" vol="100" key="23" len="12" pos="10596"/>
          <note pan="0" vol="100" key="23" len="12" pos="10608"/>
          <note pan="0" vol="100" key="23" len="12" pos="10632"/>
          <note pan="0" vol="100" key="23" len="12" pos="10644"/>
          <note pan="0" vol="100" key="23" len="12" pos="10668"/>
          <note pan="0" vol="100" key="23" len="12" pos="10680"/>
          <note pan="0" vol="100" key="23" len="12" pos="10704"/>
          <note pan="0" vol="100" key="23" len="12" pos="10716"/>
          <note pan="0" vol="100" key="23" len="12" pos="10728"/>
          <note pan="0" vol="100" key="23" len="12" pos="10740"/>
          <note pan="0" vol="100" key="23" len="12" pos="10752"/>
          <note pan="0" vol="100" key="23" len="12" pos="10764"/>
          <note pan="0" vol="100" key="23" len="12" pos="10776"/>
          <note pan="0" vol="100" key="23" len="12" pos="10788"/>
          <note pan="0" vol="100" key="23" len="12" pos="10800"/>
          <note pan="0" vol="100" key="23" len="12" pos="10824"/>
          <note pan="0" vol="100" key="23" len="12" pos="10836"/>
          <note pan="0" vol="100" key="23" len="12" pos="10860"/>
          <note pan="0" vol="100" key="23" len="12" pos="10872"/>
          <note pan="0" vol="100" key="23" len="12" pos="10896"/>
          <note pan="0" vol="100" key="23" len="12" pos="10908"/>
          <note pan="0" vol="100" key="23" len="12" pos="10920"/>
          <note pan="0" vol="100" key="23" len="12" pos="10932"/>
          <note pan="0" vol="100" key="23" len="12" pos="10944"/>
          <note pan="0" vol="100" key="23" len="12" pos="10956"/>
          <note pan="0" vol="100" key="23" len="12" pos="10968"/>
          <note pan="0" vol="100" key="23" len="12" pos="10980"/>
          <note pan="0" vol="100" key="23" len="12" pos="10992"/>
          <note pan="0" vol="100" key="23" len="12" pos="11016"/>
          <note pan="0" vol="100" key="23" len="12" pos="11028"/>
          <note pan="0" vol="100" key="23" len="12" pos="11052"/>
          <note pan="0" vol="100" key="23" len="12" pos="11064"/>
          <note pan="0" vol="100" key="23" len="12" pos="11088"/>
          <note pan="0" vol="100" key="23" len="12" pos="11100"/>
          <note pan="0" vol="100" key="23" len="12" pos="11112"/>
          <note pan="0" vol="100" key="23" len="12" pos="11124"/>
          <note pan="0" vol="100" key="23" len="12" pos="11136"/>
          <note pan="0" vol="100" key="23" len="12" pos="11148"/>
          <note pan="0" vol="100" key="23" len="12" pos="11160"/>
          <note pan="0" vol="100" key="23" len="12" pos="11172"/>
          <note pan="0" vol="100" key="23" len="12" pos="11184"/>
          <note pan="0" vol="100" key="23" len="12" pos="11208"/>
          <note pan="0" vol="100" key="23" len="12" pos="11220"/>
          <note pan="0" vol="100" key="23" len="12" pos="11244"/>
          <note pan="0" vol="100" key="23" len="12" pos="11256"/>
          <note pan="0" vol="100" key="23" len="12" pos="11280"/>
          <note pan="0" vol="100" key="23" len="12" pos="11292"/>
          <note pan="0" vol="100" key="23" len="12" pos="11304"/>
          <note pan="0" vol="100" key="23" len="12" pos="11316"/>
          <note pan="0" vol="100" key="23" len="12" pos="11328"/>
          <note pan="0" vol="100" key="23" len="12" pos="11340"/>
          <note pan="0" vol="100" key="23" len="12" pos="11352"/>
          <note pan="0" vol="100" key="23" len="12" pos="11364"/>
          <note pan="0" vol="100" key="23" len="12" pos="11376"/>
          <note pan="0" vol="100" key="23" len="12" pos="11400"/>
          <note pan="0" vol="100" key="23" len="12" pos="11412"/>
          <note pan="0" vol="100" key="23" len="12" pos="11436"/>
          <note pan="0" vol="100" key="23" len="12" pos="11448"/>
          <note pan="0" vol="100" key="23" len="12" pos="11472"/>
          <note pan="0" vol="100" key="23" len="12" pos="11484"/>
          <note pan="0" vol="100" key="23" len="12" pos="11496"/>
          <note pan="0" vol="100" key="23" len="12" pos="11508"/>
          <note pan="0" vol="100" key="23" len="12" pos="11520"/>
          <note pan="0" vol="100" key="23" len="12" pos="11532"/>
          <note pan="0" vol="100" key="23" len="12" pos="11544"/>
          <note pan="0" vol="100" key="23" len="12" pos="11556"/>
          <note pan="0" vol="100" key="23" len="12" pos="11568"/>
          <note pan="0" vol="100" key="23" len="12" pos="11592"/>
          <note pan="0" vol="100" key="23" len="12" pos="11604"/>
          <note pan="0" vol="100" key="23" len="12" pos="11628"/>
          <note pan="0" vol="100" key="23" len="12" pos="11640"/>
          <note pan="0" vol="100" key="23" len="12" pos="11664"/>
          <note pan="0" vol="100" key="23" len="12" pos="11676"/>
          <note pan="0" vol="100" key="23" len="12" pos="11688"/>
          <note pan="0" vol="100" key="23" len="12" pos="11700"/>
          <note pan="0" vol="100" key="23" len="12" pos="11712"/>
          <note pan="0" vol="100" key="23" len="12" pos="11724"/>
          <note pan="0" vol="100" key="23" len="12" pos="11736"/>
          <note pan="0" vol="100" key="23" len="12" pos="11748"/>
          <note pan="0" vol="100" key="23" len="12" pos="11760"/>
          <note pan="0" vol="100" key="23" len="12" pos="11784"/>
          <note pan="0" vol="100" key="23" len="12" pos="11796"/>
          <note pan="0" vol="100" key="23" len="12" pos="11820"/>
          <note pan="0" vol="100" key="23" len="12" pos="11832"/>
          <note pan="0" vol="100" key="23" len="12" pos="11856"/>
          <note pan="0" vol="100" key="23" len="12" pos="11868"/>
          <note pan="0" vol="100" key="23" len="12" pos="11880"/>
          <note pan="0" vol="100" key="23" len="12" pos="11892"/>
          <note pan="0" vol="100" key="23" len="12" pos="11904"/>
          <note pan="0" vol="100" key="23" len="12" pos="11916"/>
          <note pan="0" vol="100" key="23" len="12" pos="11928"/>
          <note pan="0" vol="100" key="23" len="12" pos="11940"/>
          <note pan="0" vol="100" key="23" len="12" pos="11952"/>
          <note pan="0" vol="100" key="23" len="12" pos="11976"/>
          <note pan="0" vol="100" key="23" len="12" pos="11988"/>
          <note pan="0" vol="100" key="23" len="12" pos="12012"/>
          <note pan="0" vol="100" key="23" len="12" pos="12024"/>
          <note pan="0" vol="100" key="23" len="12" pos="12048"/>
          <note pan="0" vol="100" key="23" len="12" pos="12060"/>
          <note pan="0" vol="100" key="23" len="12" pos="12072"/>
          <note pan="0" vol="100" key="23" len="12" pos="12084"/>
          <note pan="0" vol="100" key="23" len="12" pos="12096"/>
          <note pan="0" vol="100" key="23" len="12" pos="12108"/>
          <note pan="0" vol="100" key="23" len="12" pos="12120"/>
          <note pan="0" vol="100" key="23" len="12" pos="12132"/>
          <note pan="0" vol="100" key="23" len="12" pos="12144"/>
          <note pan="0" vol="100" key="23" len="12" pos="12168"/>
          <note pan="0" vol="100" key="23" len="12" pos="12180"/>
          <note pan="0" vol="100" key="23" len="12" pos="12204"/>
          <note pan="0" vol="100" key="23" len="12" pos="12216"/>
          <note pan="0" vol="100" key="23" len="12" pos="12240"/>
          <note pan="0" vol="100" key="23" len="12" pos="12252"/>
          <note pan="0" vol="100" key="23" len="12" pos="12264"/>
          <note pan="0" vol="100" key="23" len="12" pos="12276"/>
          <note pan="0" vol="100" key="23" len="12" pos="12288"/>
          <note pan="0" vol="100" key="23" len="12" pos="12456"/>
          <note pan="0" vol="100" key="23" len="12" pos="12480"/>
          <note pan="0" vol="100" key="23" len="12" pos="12648"/>
          <note pan="0" vol="100" key="23" len="12" pos="12660"/>
          <note pan="0" vol="100" key="23" len="12" pos="12672"/>
        </pattern>
      </track>
      <track solo="0" type="0" name="Rhythm 2" muted="0">
        <instrumenttrack pitch="0" pan="25" vol="50.8" pitchrange="1" fxch="0" usemasterpitch="1" basenote="57">
          <instrument name="vestige">
            <vestige program="0" plugin="C:/Program Files/VstPlugins/helm64.dll" guivisible="0" chunk="ew0KICAibGljZW5zZSI6ICJQYXRjaCAoYykgYnkgLiAgVGhpcyBwYXRjaCBpcyBsaWNlbnNlZCB1bmRlciBhIENyZWF0aXZlIENvbW1vbnMgQXR0cmlidXRpb24gNC4wIEludGVybmF0aW9uYWwgTGljZW5zZS4gIFlvdSBzaG91bGQgaGF2ZSByZWNlaXZlZCBhIGNvcHkgb2YgdGhlIGxpY2Vuc2UgYWxvbmcgd2l0aCB0aGlzIHdvcmsuICBJZiBub3QsIHNlZSA8aHR0cDovL2NyZWF0aXZlY29tbW9ucy5vcmcvbGljZW5zZXMvYnkvNC4wLz4uIiwNCiAgInN5bnRoX3ZlcnNpb24iOiAiMC45LjAiLA0KICAicGF0Y2hfbmFtZSI6ICIiLA0KICAiZm9sZGVyX25hbWUiOiAiIiwNCiAgImF1dGhvciI6ICIiLA0KICAic2V0dGluZ3MiOiB7DQogICAgImFtcF9hdHRhY2siOiAwLjEwOTU0NTAwMDAwMDAwMDAwMzQ4LA0KICAgICJhbXBfZGVjYXkiOiAwLjc2NDcwNTg4MjM1Mjk0MTEyNDIyLA0KICAgICJhbXBfcmVsZWFzZSI6IDAuOTQxMTc2NDcwNTg4MjM1MTcwMDMsDQogICAgImFtcF9zdXN0YWluIjogMC4wNDQxMTc2NDcwNTg4MjM1MzkyMDgsDQogICAgImFycF9mcmVxdWVuY3kiOiAyLA0KICAgICJhcnBfZ2F0ZSI6IDAuNSwNCiAgICAiYXJwX29jdGF2ZXMiOiAxLA0KICAgICJhcnBfb24iOiAwLA0KICAgICJhcnBfcGF0dGVybiI6IDAsDQogICAgImFycF9zeW5jIjogMSwNCiAgICAiYXJwX3RlbXBvIjogOSwNCiAgICAiYmVhdHNfcGVyX21pbnV0ZSI6IDEuNzUsDQogICAgImNyb3NzX21vZHVsYXRpb24iOiAwLA0KICAgICJjdXRvZmYiOiA0MS42MTI0OTk5OTk5OTk5OTcxNTgsDQogICAgImRlbGF5X2RyeV93ZXQiOiAwLjUsDQogICAgImRlbGF5X2ZlZWRiYWNrIjogMC40MDAwMDAwMDAwMDAwMDAwMjIyLA0KICAgICJkZWxheV9mcmVxdWVuY3kiOiAyLA0KICAgICJkZWxheV9vbiI6IDAsDQogICAgImRlbGF5X3N5bmMiOiAxLA0KICAgICJkZWxheV90ZW1wbyI6IDksDQogICAgImRpc3RvcnRpb25fZHJpdmUiOiAwLA0KICAgICJkaXN0b3J0aW9uX21peCI6IDEsDQogICAgImRpc3RvcnRpb25fb24iOiAwLA0KICAgICJkaXN0b3J0aW9uX3R5cGUiOiAwLA0KICAgICJmaWxfYXR0YWNrIjogMCwNCiAgICAiZmlsX2RlY2F5IjogMC40NzA1ODgyMzUyOTQxMTc1ODUwMiwNCiAgICAiZmlsX2Vudl9kZXB0aCI6IDAsDQogICAgImZpbF9yZWxlYXNlIjogMCwNCiAgICAiZmlsX3N1c3RhaW4iOiAwLA0KICAgICJmaWx0ZXJfYmxlbmQiOiAwLA0KICAgICJmaWx0ZXJfZHJpdmUiOiAxMC4xMTIwMDAwMDAwMDAwMDE4NzYsDQogICAgImZpbHRlcl9vbiI6IDEsDQogICAgImZpbHRlcl9zaGVsZiI6IDAsDQogICAgImZpbHRlcl9zdHlsZSI6IDAsDQogICAgImZvcm1hbnRfb24iOiAwLA0KICAgICJmb3JtYW50X3giOiAwLjUsDQogICAgImZvcm1hbnRfeSI6IDAuNSwNCiAgICAia2V5dHJhY2siOiAwLA0KICAgICJsZWdhdG8iOiAwLA0KICAgICJtb2RfYXR0YWNrIjogMCwNCiAgICAibW9kX2RlY2F5IjogMC40NzA1ODgyMzUyOTQxMTc1ODUwMiwNCiAgICAibW9kX3JlbGVhc2UiOiAwLA0KICAgICJtb2Rfc3VzdGFpbiI6IDAsDQogICAgIm1vbm9fbGZvXzFfYW1wbGl0dWRlIjogMSwNCiAgICAibW9ub19sZm9fMV9mcmVxdWVuY3kiOiAxLA0KICAgICJtb25vX2xmb18xX3JldHJpZ2dlciI6IDIsDQogICAgIm1vbm9fbGZvXzFfc3luYyI6IDEsDQogICAgIm1vbm9fbGZvXzFfdGVtcG8iOiA2LA0KICAgICJtb25vX2xmb18xX3dhdmVmb3JtIjogMCwNCiAgICAibW9ub19sZm9fMl9hbXBsaXR1ZGUiOiAxLA0KICAgICJtb25vX2xmb18yX2ZyZXF1ZW5jeSI6IDEsDQogICAgIm1vbm9fbGZvXzJfcmV0cmlnZ2VyIjogMiwNCiAgICAibW9ub19sZm9fMl9zeW5jIjogMSwNCiAgICAibW9ub19sZm9fMl90ZW1wbyI6IDcsDQogICAgIm1vbm9fbGZvXzJfd2F2ZWZvcm0iOiAwLA0KICAgICJub2lzZV92b2x1bWUiOiAwLA0KICAgICJudW1fc3RlcHMiOiA4LA0KICAgICJvc2NfMV90cmFuc3Bvc2UiOiAwLA0KICAgICJvc2NfMV90dW5lIjogMCwNCiAgICAib3NjXzFfdW5pc29uX2RldHVuZSI6IDEwLA0KICAgICJvc2NfMV91bmlzb25fdm9pY2VzIjogMSwNCiAgICAib3NjXzFfdm9sdW1lIjogMC41LA0KICAgICJvc2NfMV93YXZlZm9ybSI6IDQsDQogICAgIm9zY18yX3RyYW5zcG9zZSI6IC0xMiwNCiAgICAib3NjXzJfdHVuZSI6IDAsDQogICAgIm9zY18yX3VuaXNvbl9kZXR1bmUiOiAxMCwNCiAgICAib3NjXzJfdW5pc29uX3ZvaWNlcyI6IDEsDQogICAgIm9zY18yX3ZvbHVtZSI6IDAuNTMyMjU4MDY0NTE2MTI5MDAzNjEsDQogICAgIm9zY18yX3dhdmVmb3JtIjogNCwNCiAgICAib3NjX2ZlZWRiYWNrX2Ftb3VudCI6IDAsDQogICAgIm9zY19mZWVkYmFja190cmFuc3Bvc2UiOiAwLA0KICAgICJvc2NfZmVlZGJhY2tfdHVuZSI6IDAsDQogICAgInBpdGNoX2JlbmRfcmFuZ2UiOiAyLA0KICAgICJwb2x5X2xmb19hbXBsaXR1ZGUiOiAxLA0KICAgICJwb2x5X2xmb19mcmVxdWVuY3kiOiAxLA0KICAgICJwb2x5X2xmb19zeW5jIjogMSwNCiAgICAicG9seV9sZm9fdGVtcG8iOiA3LA0KICAgICJwb2x5X2xmb193YXZlZm9ybSI6IDAsDQogICAgInBvbHlwaG9ueSI6IDQsDQogICAgInBvcnRhbWVudG8iOiAtNywNCiAgICAicG9ydGFtZW50b190eXBlIjogMCwNCiAgICAicmVzb25hbmNlIjogMCwNCiAgICAicmV2ZXJiX2RhbXBpbmciOiAwLjk0Nzk5OTk5OTk5OTk5OTk1MzgxLA0KICAgICJyZXZlcmJfZHJ5X3dldCI6IDAuMjI0MDAwMDAwMDAwMDAwMDMyNDIsDQogICAgInJldmVyYl9mZWVkYmFjayI6IDAuOTAwMDAwMDAwMDAwMDAwMDIyMiwNCiAgICAicmV2ZXJiX29uIjogMSwNCiAgICAic3RlcF9mcmVxdWVuY3kiOiAyLA0KICAgICJzdGVwX3NlcV8wMCI6IDAsDQogICAgInN0ZXBfc2VxXzAxIjogMCwNCiAgICAic3RlcF9zZXFfMDIiOiAwLA0KICAgICJzdGVwX3NlcV8wMyI6IDAsDQogICAgInN0ZXBfc2VxXzA0IjogMCwNCiAgICAic3RlcF9zZXFfMDUiOiAwLA0KICAgICJzdGVwX3NlcV8wNiI6IDAsDQogICAgInN0ZXBfc2VxXzA3IjogMCwNCiAgICAic3RlcF9zZXFfMDgiOiAwLA0KICAgICJzdGVwX3NlcV8wOSI6IDAsDQogICAgInN0ZXBfc2VxXzEwIjogMCwNCiAgICAic3RlcF9zZXFfMTEiOiAwLA0KICAgICJzdGVwX3NlcV8xMiI6IDAsDQogICAgInN0ZXBfc2VxXzEzIjogMCwNCiAgICAic3RlcF9zZXFfMTQiOiAwLA0KICAgICJzdGVwX3NlcV8xNSI6IDAsDQogICAgInN0ZXBfc2VxXzE2IjogMCwNCiAgICAic3RlcF9zZXFfMTciOiAwLA0KICAgICJzdGVwX3NlcV8xOCI6IDAsDQogICAgInN0ZXBfc2VxXzE5IjogMCwNCiAgICAic3RlcF9zZXFfMjAiOiAwLA0KICAgICJzdGVwX3NlcV8yMSI6IDAsDQogICAgInN0ZXBfc2VxXzIyIjogMCwNCiAgICAic3RlcF9zZXFfMjMiOiAwLA0KICAgICJzdGVwX3NlcV8yNCI6IDAsDQogICAgInN0ZXBfc2VxXzI1IjogMCwNCiAgICAic3RlcF9zZXFfMjYiOiAwLA0KICAgICJzdGVwX3NlcV8yNyI6IDAsDQogICAgInN0ZXBfc2VxXzI4IjogMCwNCiAgICAic3RlcF9zZXFfMjkiOiAwLA0KICAgICJzdGVwX3NlcV8zMCI6IDAsDQogICAgInN0ZXBfc2VxXzMxIjogMCwNCiAgICAic3RlcF9zZXF1ZW5jZXJfcmV0cmlnZ2VyIjogMiwNCiAgICAic3RlcF9zZXF1ZW5jZXJfc3luYyI6IDEsDQogICAgInN0ZXBfc2VxdWVuY2VyX3RlbXBvIjogNywNCiAgICAic3RlcF9zbW9vdGhpbmciOiAwLA0KICAgICJzdHV0dGVyX2ZyZXF1ZW5jeSI6IDMsDQogICAgInN0dXR0ZXJfb24iOiAwLA0KICAgICJzdHV0dGVyX3Jlc2FtcGxlX2ZyZXF1ZW5jeSI6IDEsDQogICAgInN0dXR0ZXJfcmVzYW1wbGVfc3luYyI6IDEsDQogICAgInN0dXR0ZXJfcmVzYW1wbGVfdGVtcG8iOiA2LA0KICAgICJzdHV0dGVyX3NvZnRuZXNzIjogMC4yMDAwMDAwMDAwMDAwMDAwMTExLA0KICAgICJzdHV0dGVyX3N5bmMiOiAxLA0KICAgICJzdHV0dGVyX3RlbXBvIjogOCwNCiAgICAic3ViX29jdGF2ZSI6IDAsDQogICAgInN1Yl9zaHVmZmxlIjogMCwNCiAgICAic3ViX3ZvbHVtZSI6IDAsDQogICAgInN1Yl93YXZlZm9ybSI6IDIsDQogICAgInVuaXNvbl8xX2hhcm1vbml6ZSI6IDAsDQogICAgInVuaXNvbl8yX2hhcm1vbml6ZSI6IDAsDQogICAgInZlbG9jaXR5X3RyYWNrIjogMCwNCiAgICAidm9sdW1lIjogMCwNCiAgICAibW9kdWxhdGlvbnMiOiBbDQogICAgICB7DQogICAgICAgICJzb3VyY2UiOiAibW9kX2VudmVsb3BlIiwNCiAgICAgICAgImRlc3RpbmF0aW9uIjogInJldmVyYl9kcnlfd2V0IiwNCiAgICAgICAgImFtb3VudCI6IDAuMjk2MDAwMDAwMDAwMDAwMDQwODYNCiAgICAgIH0sDQogICAgICB7DQogICAgICAgICJzb3VyY2UiOiAiZmlsX2VudmVsb3BlIiwNCiAgICAgICAgImRlc3RpbmF0aW9uIjogImN1dG9mZiIsDQogICAgICAgICJhbW91bnQiOiA2MC4zMTQ0MDY1MDc3MDA4ODA0MTENCiAgICAgIH0sDQogICAgICB7DQogICAgICAgICJzb3VyY2UiOiAidmVsb2NpdHkiLA0KICAgICAgICAiZGVzdGluYXRpb24iOiAidm9sdW1lIiwNCiAgICAgICAgImFtb3VudCI6IDAuOTk5NzYzNDM3ODM2ODYzODMzMDQNCiAgICAgIH0NCiAgICBdDQogIH0NCn0A"/>
          </instrument>
          <eldata ftype="0" fcut="14000" fwet="0" fres="0.5">
            <elvol sustain="0.5" lpdel="0" userwavefile="" lshp="0" lspd_denominator="4" ctlenvamt="0" lspd_numerator="4" rel="0.1" lspd_syncmode="0" amt="0" dec="0.5" x100="0" lspd="0.1" latt="0" att="0" lamt="0" hold="0.5" pdel="0"/>
            <elcut sustain="0.5" lpdel="0" userwavefile="" lshp="0" lspd_denominator="4" ctlenvamt="0" lspd_numerator="4" rel="0.1" lspd_syncmode="0" amt="0" dec="0.5" x100="0" lspd="0.1" latt="0" att="0" lamt="0" hold="0.5" pdel="0"/>
            <elres sustain="0.5" lpdel="0" userwavefile="" lshp="0" lspd_denominator="4" ctlenvamt="0" lspd_numerator="4" rel="0.1" lspd_syncmode="0" amt="0" dec="0.5" x100="0" lspd="0.1" latt="0" att="0" lamt="0" hold="0.5" pdel="0"/>
          </eldata>
          <chordcreator chord-enabled="0" chord="0" chordrange="2"/>
          <arpeggiator arprange="1" arpskip="0" arptime_numerator="4" arpgate="100" arpmiss="0" arpdir="0" arpmode="0" arp="0" arptime_syncmode="0" arptime="200" arpcycle="0" arptime_denominator="4" arp-enabled="0"/>
          <midiport writable="0" inputcontroller="0" readable="0" inputchannel="0" fixedoutputnote="-1" outputprogram="1" fixedinputvelocity="-1" basevelocity="63" fixedoutputvelocity="-1" outputcontroller="0" outputchannel="1"/>
          <fxchain numofeffects="0" enabled="0"/>
        </instrumenttrack>
        <pattern steps="16" type="1" name="Rhythm 2" pos="0" muted="0">
          <note pan="0" vol="100" key="35" len="12" pos="0"/>
          <note pan="0" vol="100" key="35" len="12" pos="12"/>
          <note pan="0" vol="100" key="35" len="12" pos="24"/>
          <note pan="0" vol="100" key="35" len="12" pos="36"/>
          <note pan="0" vol="100" key="35" len="12" pos="48"/>
          <note pan="0" vol="100" key="35" len="12" pos="72"/>
          <note pan="0" vol="100" key="35" len="12" pos="84"/>
          <note pan="0" vol="100" key="35" len="12" pos="108"/>
          <note pan="0" vol="100" key="35" len="12" pos="120"/>
          <note pan="0" vol="100" key="35" len="12" pos="144"/>
          <note pan="0" vol="100" key="35" len="12" pos="156"/>
          <note pan="0" vol="100" key="35" len="12" pos="168"/>
          <note pan="0" vol="100" key="35" len="12" pos="180"/>
          <note pan="0" vol="100" key="35" len="12" pos="192"/>
          <note pan="0" vol="100" key="35" len="12" pos="204"/>
          <note pan="0" vol="100" key="35" len="12" pos="216"/>
          <note pan="0" vol="100" key="35" len="12" pos="228"/>
          <note pan="0" vol="100" key="35" len="12" pos="240"/>
          <note pan="0" vol="100" key="35" len="12" pos="264"/>
          <note pan="0" vol="100" key="35" len="12" pos="276"/>
          <note pan="0" vol="100" key="35" len="12" pos="300"/>
          <note pan="0" vol="100" key="35" len="12" pos="312"/>
          <note pan="0" vol="100" key="35" len="12" pos="336"/>
          <note pan="0" vol="100" key="35" len="12" pos="348"/>
          <note pan="0" vol="100" key="35" len="12" pos="360"/>
          <note pan="0" vol="100" key="35" len="12" pos="372"/>
          <note pan="0" vol="100" key="35" len="12" pos="384"/>
          <note pan="0" vol="100" key="35" len="12" pos="396"/>
          <note pan="0" vol="100" key="35" len="12" pos="408"/>
          <note pan="0" vol="100" key="35" len="12" pos="420"/>
          <note pan="0" vol="100" key="35" len="12" pos="432"/>
          <note pan="0" vol="100" key="35" len="12" pos="456"/>
          <note pan="0" vol="100" key="35" len="12" pos="468"/>
          <note pan="0" vol="100" key="35" len="12" pos="492"/>
          <note pan="0" vol="100" key="35" len="12" pos="504"/>
          <note pan="0" vol="100" key="35" len="12" pos="528"/>
          <note pan="0" vol="100" key="35" len="12" pos="540"/>
          <note pan="0" vol="100" key="35" len="12" pos="552"/>
          <note pan="0" vol="100" key="35" len="12" pos="564"/>
          <note pan="0" vol="100" key="35" len="12" pos="576"/>
          <note pan="0" vol="100" key="35" len="12" pos="588"/>
          <note pan="0" vol="100" key="35" len="12" pos="600"/>
          <note pan="0" vol="100" key="35" len="12" pos="612"/>
          <note pan="0" vol="100" key="35" len="12" pos="624"/>
          <note pan="0" vol="100" key="35" len="12" pos="648"/>
          <note pan="0" vol="100" key="35" len="12" pos="660"/>
          <note pan="0" vol="100" key="35" len="12" pos="684"/>
          <note pan="0" vol="100" key="35" len="12" pos="696"/>
          <note pan="0" vol="100" key="35" len="12" pos="720"/>
          <note pan="0" vol="100" key="35" len="12" pos="732"/>
          <note pan="0" vol="100" key="35" len="12" pos="744"/>
          <note pan="0" vol="100" key="35" len="12" pos="756"/>
          <note pan="0" vol="100" key="35" len="12" pos="768"/>
          <note pan="0" vol="100" key="35" len="12" pos="780"/>
          <note pan="0" vol="100" key="35" len="12" pos="792"/>
          <note pan="0" vol="100" key="35" len="12" pos="804"/>
          <note pan="0" vol="100" key="35" len="12" pos="816"/>
          <note pan="0" vol="100" key="35" len="12" pos="840"/>
          <note pan="0" vol="100" key="35" len="12" pos="852"/>
          <note pan="0" vol="100" key="35" len="12" pos="876"/>
          <note pan="0" vol="100" key="35" len="12" pos="888"/>
          <note pan="0" vol="100" key="35" len="12" pos="912"/>
          <note pan="0" vol="100" key="35" len="12" pos="924"/>
          <note pan="0" vol="100" key="35" len="12" pos="936"/>
          <note pan="0" vol="100" key="35" len="12" pos="948"/>
          <note pan="0" vol="100" key="35" len="12" pos="960"/>
          <note pan="0" vol="100" key="35" len="12" pos="972"/>
          <note pan="0" vol="100" key="35" len="12" pos="984"/>
          <note pan="0" vol="100" key="35" len="12" pos="996"/>
          <note pan="0" vol="100" key="35" len="12" pos="1008"/>
          <note pan="0" vol="100" key="35" len="12" pos="1032"/>
          <note pan="0" vol="100" key="35" len="12" pos="1044"/>
          <note pan="0" vol="100" key="35" len="12" pos="1068"/>
          <note pan="0" vol="100" key="35" len="12" pos="1080"/>
          <note pan="0" vol="100" key="35" len="12" pos="1104"/>
          <note pan="0" vol="100" key="35" len="12" pos="1116"/>
          <note pan="0" vol="100" key="35" len="12" pos="1128"/>
          <note pan="0" vol="100" key="35" len="12" pos="1140"/>
          <note pan="0" vol="100" key="35" len="12" pos="1152"/>
          <note pan="0" vol="100" key="35" len="12" pos="1164"/>
          <note pan="0" vol="100" key="35" len="12" pos="1176"/>
          <note pan="0" vol="100" key="35" len="12" pos="1188"/>
          <note pan="0" vol="100" key="35" len="12" pos="1200"/>
          <note pan="0" vol="100" key="35" len="12" pos="1224"/>
          <note pan="0" vol="100" key="35" len="12" pos="1236"/>
          <note pan="0" vol="100" key="35" len="12" pos="1260"/>
          <note pan="0" vol="100" key="35" len="12" pos="1272"/>
          <note pan="0" vol="100" key="35" len="12" pos="1296"/>
          <note pan="0" vol="100" key="35" len="12" pos="1308"/>
          <note pan="0" vol="100" key="35" len="12" pos="1320"/>
          <note pan="0" vol="100" key="35" len="12" pos="1332"/>
          <note pan="0" vol="100" key="35" len="12" pos="1344"/>
          <note pan="0" vol="100" key="35" len="12" pos="1356"/>
          <note pan="0" vol="100" key="35" len="12" pos="1368"/>
          <note pan="0" vol="100" key="35" len="12" pos="1380"/>
          <note pan="0" vol="100" key="35" len="12" pos="1392"/>
          <note pan="0" vol="100" key="35" len="12" pos="1416"/>
          <note pan="0" vol="100" key="35" len="12" pos="1428"/>
          <note pan="0" vol="100" key="35" len="12" pos="1452"/>
          <note pan="0" vol="100" key="35" len="12" pos="1464"/>
          <note pan="0" vol="100" key="35" len="12" pos="1488"/>
          <note pan="0" vol="100" key="35" len="12" pos="1500"/>
          <note pan="0" vol="100" key="35" len="12" pos="1512"/>
          <note pan="0" vol="100" key="35" len="12" pos="1524"/>
          <note pan="0" vol="100" key="35" len="12" pos="1536"/>
          <note pan="0" vol="100" key="35" len="12" pos="1548"/>
          <note pan="0" vol="100" key="35" len="12" pos="1560"/>
          <note pan="0" vol="100" key="35" len="12" pos="1572"/>
          <note pan="0" vol="100" key="35" len="12" pos="1584"/>
          <note pan="0" vol="100" key="35" len="12" pos="1608"/>
          <note pan="0" vol="100" key="35" len="12" pos="1620"/>
          <note pan="0" vol="100" key="35" len="12" pos="1644"/>
          <note pan="0" vol="100" key="35" len="12" pos="1656"/>
          <note pan="0" vol="100" key="35" len="12" pos="1680"/>
          <note pan="0" vol="100" key="35" len="12" pos="1692"/>
          <note pan="0" vol="100" key="35" len="12" pos="1704"/>
          <note pan="0" vol="100" key="35" len="12" pos="1716"/>
          <note pan="0" vol="100" key="35" len="12" pos="1728"/>
          <note pan="0" vol="100" key="35" len="12" pos="1740"/>
          <note pan="0" vol="100" key="35" len="12" pos="1752"/>
          <note pan="0" vol="100" key="35" len="12" pos="1764"/>
          <note pan="0" vol="100" key="35" len="12" pos="1776"/>
          <note pan="0" vol="100" key="35" len="12" pos="1800"/>
          <note pan="0" vol="100" key="35" len="12" pos="1812"/>
          <note pan="0" vol="100" key="35" len="12" pos="1836"/>
          <note pan="0" vol="100" key="35" len="12" pos="1848"/>
          <note pan="0" vol="100" key="35" len="12" pos="1872"/>
          <note pan="0" vol="100" key="35" len="12" pos="1884"/>
          <note pan="0" vol="100" key="35" len="12" pos="1896"/>
          <note pan="0" vol="100" key="35" len="12" pos="1908"/>
          <note pan="0" vol="100" key="35" len="12" pos="1920"/>
          <note pan="0" vol="100" key="35" len="12" pos="1932"/>
          <note pan="0" vol="100" key="35" len="12" pos="1944"/>
          <note pan="0" vol="100" key="35" len="12" pos="1956"/>
          <note pan="0" vol="100" key="35" len="12" pos="1968"/>
          <note pan="0" vol="100" key="35" len="12" pos="1992"/>
          <note pan="0" vol="100" key="35" len="12" pos="2004"/>
          <note pan="0" vol="100" key="35" len="12" pos="2028"/>
          <note pan="0" vol="100" key="35" len="12" pos="2040"/>
          <note pan="0" vol="100" key="35" len="12" pos="2064"/>
          <note pan="0" vol="100" key="35" len="12" pos="2076"/>
          <note pan="0" vol="100" key="35" len="12" pos="2088"/>
          <note pan="0" vol="100" key="35" len="12" pos="2100"/>
          <note pan="0" vol="100" key="35" len="12" pos="2112"/>
          <note pan="0" vol="100" key="35" len="12" pos="2124"/>
          <note pan="0" vol="100" key="35" len="12" pos="2136"/>
          <note pan="0" vol="100" key="35" len="12" pos="2148"/>
          <note pan="0" vol="100" key="35" len="12" pos="2160"/>
          <note pan="0" vol="100" key="35" len="12" pos="2184"/>
          <note pan="0" vol="100" key="35" len="12" pos="2196"/>
          <note pan="0" vol="100" key="35" len="12" pos="2220"/>
          <note pan="0" vol="100" key="35" len="12" pos="2232"/>
          <note pan="0" vol="100" key="35" len="12" pos="2256"/>
          <note pan="0" vol="100" key="35" len="12" pos="2268"/>
          <note pan="0" vol="100" key="35" len="12" pos="2280"/>
          <note pan="0" vol="100" key="35" len="12" pos="2292"/>
          <note pan="0" vol="100" key="35" len="12" pos="2304"/>
          <note pan="0" vol="100" key="35" len="12" pos="2316"/>
          <note pan="0" vol="100" key="35" len="12" pos="2328"/>
          <note pan="0" vol="100" key="35" len="12" pos="2340"/>
          <note pan="0" vol="100" key="35" len="12" pos="2352"/>
          <note pan="0" vol="100" key="35" len="12" pos="2376"/>
          <note pan="0" vol="100" key="35" len="12" pos="2388"/>
          <note pan="0" vol="100" key="35" len="12" pos="2412"/>
          <note pan="0" vol="100" key="35" len="12" pos="2424"/>
          <note pan="0" vol="100" key="35" len="12" pos="2448"/>
          <note pan="0" vol="100" key="35" len="12" pos="2460"/>
          <note pan="0" vol="100" key="35" len="12" pos="2472"/>
          <note pan="0" vol="100" key="35" len="12" pos="2484"/>
          <note pan="0" vol="100" key="35" len="12" pos="2496"/>
          <note pan="0" vol="100" key="35" len="12" pos="2508"/>
          <note pan="0" vol="100" key="35" len="12" pos="2520"/>
          <note pan="0" vol="100" key="35" len="12" pos="2532"/>
          <note pan="0" vol="100" key="35" len="12" pos="2544"/>
          <note pan="0" vol="100" key="35" len="12" pos="2568"/>
          <note pan="0" vol="100" key="35" len="12" pos="2580"/>
          <note pan="0" vol="100" key="35" len="12" pos="2604"/>
          <note pan="0" vol="100" key="35" len="12" pos="2616"/>
          <note pan="0" vol="100" key="35" len="12" pos="2640"/>
          <note pan="0" vol="100" key="35" len="12" pos="2652"/>
          <note pan="0" vol="100" key="35" len="12" pos="2664"/>
          <note pan="0" vol="100" key="35" len="12" pos="2676"/>
          <note pan="0" vol="100" key="35" len="12" pos="2688"/>
          <note pan="0" vol="100" key="35" len="12" pos="2700"/>
          <note pan="0" vol="100" key="35" len="12" pos="2712"/>
          <note pan="0" vol="100" key="35" len="12" pos="2724"/>
          <note pan="0" vol="100" key="35" len="12" pos="2736"/>
          <note pan="0" vol="100" key="35" len="12" pos="2760"/>
          <note pan="0" vol="100" key="35" len="12" pos="2772"/>
          <note pan="0" vol="100" key="35" len="12" pos="2796"/>
          <note pan="0" vol="100" key="35" len="12" pos="2808"/>
          <note pan="0" vol="100" key="35" len="12" pos="2832"/>
          <note pan="0" vol="100" key="35" len="12" pos="2844"/>
          <note pan="0" vol="100" key="35" len="12" pos="2856"/>
          <note pan="0" vol="100" key="35" len="12" pos="2868"/>
          <note pan="0" vol="100" key="35" len="12" pos="2880"/>
          <note pan="0" vol="100" key="35" len="12" pos="2892"/>
          <note pan="0" vol="100" key="35" len="12" pos="2904"/>
          <note pan="0" vol="100" key="35" len="12" pos="2916"/>
          <note pan="0" vol="100" key="35" len="12" pos="2928"/>
          <note pan="0" vol="100" key="35" len="12" pos="2952"/>
          <note pan="0" vol="100" key="35" len="12" pos="2964"/>
          <note pan="0" vol="100" key="35" len="12" pos="2988"/>
          <note pan="0" vol="100" key="35" len="12" pos="3000"/>
          <note pan="0" vol="100" key="35" len="12" pos="3024"/>
          <note pan="0" vol="100" key="35" len="12" pos="3036"/>
          <note pan="0" vol="100" key="35" len="12" pos="3048"/>
          <note pan="0" vol="100" key="35" len="12" pos="3060"/>
          <note pan="0" vol="100" key="35" len="12" pos="3072"/>
          <note pan="0" vol="100" key="35" len="12" pos="3084"/>
          <note pan="0" vol="100" key="35" len="12" pos="3096"/>
          <note pan="0" vol="100" key="35" len="12" pos="3108"/>
          <note pan="0" vol="100" key="35" len="12" pos="3120"/>
          <note pan="0" vol="100" key="35" len="12" pos="3144"/>
          <note pan="0" vol="100" key="35" len="12" pos="3156"/>
          <note pan="0" vol="100" key="35" len="12" pos="3180"/>
          <note pan="0" vol="100" key="35" len="12" pos="3192"/>
          <note pan="0" vol="100" key="35" len="12" pos="3216"/>
          <note pan="0" vol="100" key="35" len="12" pos="3228"/>
          <note pan="0" vol="100" key="35" len="12" pos="3240"/>
          <note pan="0" vol="100" key="35" len="12" pos="3252"/>
          <note pan="0" vol="100" key="35" len="12" pos="3264"/>
          <note pan="0" vol="100" key="35" len="12" pos="3276"/>
          <note pan="0" vol="100" key="35" len="12" pos="3288"/>
          <note pan="0" vol="100" key="35" len="12" pos="3300"/>
          <note pan="0" vol="100" key="35" len="12" pos="3312"/>
          <note pan="0" vol="100" key="35" len="12" pos="3336"/>
          <note pan="0" vol="100" key="35" len="12" pos="3348"/>
          <note pan="0" vol="100" key="35" len="12" pos="3372"/>
          <note pan="0" vol="100" key="35" len="12" pos="3384"/>
          <note pan="0" vol="100" key="35" len="12" pos="3408"/>
          <note pan="0" vol="100" key="35" len="12" pos="3420"/>
          <note pan="0" vol="100" key="35" len="12" pos="3432"/>
          <note pan="0" vol="100" key="35" len="12" pos="3444"/>
          <note pan="0" vol="100" key="35" len="12" pos="3456"/>
          <note pan="0" vol="100" key="35" len="12" pos="3468"/>
          <note pan="0" vol="100" key="35" len="12" pos="3480"/>
          <note pan="0" vol="100" key="35" len="12" pos="3492"/>
          <note pan="0" vol="100" key="35" len="12" pos="3504"/>
          <note pan="0" vol="100" key="35" len="12" pos="3528"/>
          <note pan="0" vol="100" key="35" len="12" pos="3540"/>
          <note pan="0" vol="100" key="35" len="12" pos="3564"/>
          <note pan="0" vol="100" key="35" len="12" pos="3576"/>
          <note pan="0" vol="100" key="35" len="12" pos="3600"/>
          <note pan="0" vol="100" key="35" len="12" pos="3612"/>
          <note pan="0" vol="100" key="35" len="12" pos="3624"/>
          <note pan="0" vol="100" key="35" len="12" pos="3636"/>
          <note pan="0" vol="100" key="35" len="12" pos="3648"/>
          <note pan="0" vol="100" key="35" len="12" pos="3660"/>
          <note pan="0" vol="100" key="35" len="12" pos="3672"/>
          <note pan="0" vol="100" key="35" len="12" pos="3684"/>
          <note pan="0" vol="100" key="35" len="12" pos="3696"/>
          <note pan="0" vol="100" key="35" len="12" pos="3720"/>
          <note pan="0" vol="100" key="35" len="12" pos="3732"/>
          <note pan="0" vol="100" key="35" len="12" pos="3756"/>
          <note pan="0" vol="100" key="35" len="12" pos="3768"/>
          <note pan="0" vol="100" key="35" len="12" pos="3792"/>
          <note pan="0" vol="100" key="35" len="12" pos="3804"/>
          <note pan="0" vol="100" key="35" len="12" pos="3816"/>
          <note pan="0" vol="100" key="35" len="12" pos="3828"/>
          <note pan="0" vol="100" key="35" len="12" pos="3840"/>
          <note pan="0" vol="100" key="35" len="12" pos="3852"/>
          <note pan="0" vol="100" key="35" len="12" pos="3864"/>
          <note pan="0" vol="100" key="35" len="12" pos="3876"/>
          <note pan="0" vol="100" key="35" len="12" pos="3888"/>
          <note pan="0" vol="100" key="35" len="12" pos="3912"/>
          <note pan="0" vol="100" key="35" len="12" pos="3924"/>
          <note pan="0" vol="100" key="35" len="12" pos="3948"/>
          <note pan="0" vol="100" key="35" len="12" pos="3960"/>
          <note pan="0" vol="100" key="35" len="12" pos="3984"/>
          <note pan="0" vol="100" key="35" len="12" pos="3996"/>
          <note pan="0" vol="100" key="35" len="12" pos="4008"/>
          <note pan="0" vol="100" key="35" len="12" pos="4020"/>
          <note pan="0" vol="100" key="35" len="12" pos="4032"/>
          <note pan="0" vol="100" key="35" len="12" pos="4044"/>
          <note pan="0" vol="100" key="35" len="12" pos="4056"/>
          <note pan="0" vol="100" key="35" len="12" pos="4068"/>
          <note pan="0" vol="100" key="35" len="12" pos="4080"/>
          <note pan="0" vol="100" key="35" len="12" pos="4104"/>
          <note pan="0" vol="100" key="35" len="12" pos="4116"/>
          <note pan="0" vol="100" key="35" len="12" pos="4140"/>
          <note pan="0" vol="100" key="35" len="12" pos="4152"/>
          <note pan="0" vol="100" key="35" len="12" pos="4176"/>
          <note pan="0" vol="100" key="35" len="12" pos="4188"/>
          <note pan="0" vol="100" key="35" len="12" pos="4200"/>
          <note pan="0" vol="100" key="35" len="12" pos="4212"/>
          <note pan="0" vol="100" key="35" len="12" pos="4224"/>
          <note pan="0" vol="100" key="35" len="12" pos="4236"/>
          <note pan="0" vol="100" key="35" len="12" pos="4248"/>
          <note pan="0" vol="100" key="35" len="12" pos="4260"/>
          <note pan="0" vol="100" key="35" len="12" pos="4272"/>
          <note pan="0" vol="100" key="35" len="12" pos="4296"/>
          <note pan="0" vol="100" key="35" len="12" pos="4308"/>
          <note pan="0" vol="100" key="35" len="12" pos="4332"/>
          <note pan="0" vol="100" key="35" len="12" pos="4344"/>
          <note pan="0" vol="100" key="35" len="12" pos="4368"/>
          <note pan="0" vol="100" key="35" len="12" pos="4380"/>
          <note pan="0" vol="100" key="35" len="12" pos="4392"/>
          <note pan="0" vol="100" key="35" len="12" pos="4404"/>
          <note pan="0" vol="100" key="35" len="12" pos="4416"/>
          <note pan="0" vol="100" key="35" len="12" pos="4428"/>
          <note pan="0" vol="100" key="35" len="12" pos="4440"/>
          <note pan="0" vol="100" key="35" len="12" pos="4452"/>
          <note pan="0" vol="100" key="35" len="12" pos="4464"/>
          <note pan="0" vol="100" key="35" len="12" pos="4488"/>
          <note pan="0" vol="100" key="35" len="12" pos="4500"/>
          <note pan="0" vol="100" key="35" len="12" pos="4524"/>
          <note pan="0" vol="100" key="35" len="12" pos="4536"/>
          <note pan="0" vol="100" key="35" len="12" pos="4560"/>
          <note pan="0" vol="100" key="35" len="12" pos="4572"/>
          <note pan="0" vol="100" key="35" len="12" pos="4584"/>
          <note pan="0" vol="100" key="35" len="12" pos="4596"/>
          <note pan="0" vol="100" key="35" len="12" pos="4608"/>
          <note pan="0" vol="100" key="35" len="12" pos="4620"/>
          <note pan="0" vol="100" key="35" len="12" pos="4632"/>
          <note pan="0" vol="100" key="35" len="12" pos="4644"/>
          <note pan="0" vol="100" key="35" len="12" pos="4656"/>
          <note pan="0" vol="100" key="35" len="12" pos="4680"/>
          <note pan="0" vol="100" key="35" len="12" pos="4692"/>
          <note pan="0" vol="100" key="35" len="12" pos="4716"/>
          <note pan="0" vol="100" key="35" len="12" pos="4728"/>
          <note pan="0" vol="100" key="35" len="12" pos="4752"/>
          <note pan="0" vol="100" key="35" len="12" pos="4764"/>
          <note pan="0" vol="100" key="35" len="12" pos="4776"/>
          <note pan="0" vol="100" key="35" len="12" pos="4788"/>
          <note pan="0" vol="100" key="35" len="12" pos="4800"/>
          <note pan="0" vol="100" key="35" len="12" pos="4812"/>
          <note pan="0" vol="100" key="35" len="12" pos="4824"/>
          <note pan="0" vol="100" key="35" len="12" pos="4836"/>
          <note pan="0" vol="100" key="35" len="12" pos="4848"/>
          <note pan="0" vol="100" key="35" len="12" pos="4872"/>
          <note pan="0" vol="100" key="35" len="12" pos="4884"/>
          <note pan="0" vol="100" key="35" len="12" pos="4908"/>
          <note pan="0" vol="100" key="35" len="12" pos="4920"/>
          <note pan="0" vol="100" key="35" len="12" pos="4944"/>
          <note pan="0" vol="100" key="35" len="12" pos="4956"/>
          <note pan="0" vol="100" key="35" len="12" pos="4968"/>
          <note pan="0" vol="100" key="35" len="12" pos="4980"/>
          <note pan="0" vol="100" key="35" len="12" pos="4992"/>
          <note pan="0" vol="100" key="35" len="12" pos="5004"/>
          <note pan="0" vol="100" key="35" len="12" pos="5016"/>
          <note pan="0" vol="100" key="35" len="12" pos="5028"/>
          <note pan="0" vol="100" key="35" len="12" pos="5040"/>
          <note pan="0" vol="100" key="35" len="12" pos="5064"/>
          <note pan="0" vol="100" key="35" len="12" pos="5076"/>
          <note pan="0" vol="100" key="35" len="12" pos="5100"/>
          <note pan="0" vol="100" key="35" len="12" pos="5112"/>
          <note pan="0" vol="100" key="35" len="12" pos="5136"/>
          <note pan="0" vol="100" key="35" len="12" pos="5148"/>
          <note pan="0" vol="100" key="35" len="12" pos="5160"/>
          <note pan="0" vol="100" key="35" len="12" pos="5172"/>
          <note pan="0" vol="100" key="35" len="12" pos="5184"/>
          <note pan="0" vol="100" key="35" len="12" pos="5196"/>
          <note pan="0" vol="100" key="35" len="12" pos="5208"/>
          <note pan="0" vol="100" key="35" len="12" pos="5220"/>
          <note pan="0" vol="100" key="35" len="12" pos="5232"/>
          <note pan="0" vol="100" key="35" len="12" pos="5256"/>
          <note pan="0" vol="100" key="35" len="12" pos="5268"/>
          <note pan="0" vol="100" key="35" len="12" pos="5292"/>
          <note pan="0" vol="100" key="35" len="12" pos="5304"/>
          <note pan="0" vol="100" key="35" len="12" pos="5328"/>
          <note pan="0" vol="100" key="35" len="12" pos="5340"/>
          <note pan="0" vol="100" key="35" len="12" pos="5352"/>
          <note pan="0" vol="100" key="35" len="12" pos="5364"/>
          <note pan="0" vol="100" key="35" len="12" pos="5376"/>
          <note pan="0" vol="100" key="35" len="12" pos="5388"/>
          <note pan="0" vol="100" key="35" len="12" pos="5400"/>
          <note pan="0" vol="100" key="35" len="12" pos="5412"/>
          <note pan="0" vol="100" key="35" len="12" pos="5424"/>
          <note pan="0" vol="100" key="35" len="12" pos="5448"/>
          <note pan="0" vol="100" key="35" len="12" pos="5460"/>
          <note pan="0" vol="100" key="35" len="12" pos="5484"/>
          <note pan="0" vol="100" key="35" len="12" pos="5496"/>
          <note pan="0" vol="100" key="35" len="12" pos="5520"/>
          <note pan="0" vol="100" key="35" len="12" pos="5532"/>
          <note pan="0" vol="100" key="35" len="12" pos="5544"/>
          <note pan="0" vol="100" key="35" len="12" pos="5556"/>
          <note pan="0" vol="100" key="35" len="12" pos="5568"/>
          <note pan="0" vol="100" key="35" len="12" pos="5580"/>
          <note pan="0" vol="100" key="35" len="12" pos="5592"/>
          <note pan="0" vol="100" key="35" len="12" pos="5604"/>
          <note pan="0" vol="100" key="35" len="12" pos="5616"/>
          <note pan="0" vol="100" key="35" len="12" pos="5640"/>
          <note pan="0" vol="100" key="35" len="12" pos="5652"/>
          <note pan="0" vol="100" key="35" len="12" pos="5676"/>
          <note pan="0" vol="100" key="35" len="12" pos="5688"/>
          <note pan="0" vol="100" key="35" len="12" pos="5712"/>
          <note pan="0" vol="100" key="35" len="12" pos="5724"/>
          <note pan="0" vol="100" key="35" len="12" pos="5736"/>
          <note pan="0" vol="100" key="35" len="12" pos="5748"/>
          <note pan="0" vol="100" key="35" len="12" pos="5760"/>
          <note pan="0" vol="100" key="35" len="12" pos="5772"/>
          <note pan="0" vol="100" key="35" len="12" pos="5784"/>
          <note pan="0" vol="100" key="35" len="12" pos="5796"/>
          <note pan="0" vol="100" key="35" len="12" pos="5808"/>
          <note pan="0" vol="100" key="35" len="12" pos="5832"/>
          <note pan="0" vol="100" key="35" len="12" pos="5844"/>
          <note pan="0" vol="100" key="35" len="12" pos="5868"/>
          <note pan="0" vol="100" key="35" len="12" pos="5880"/>
          <note pan="0" vol="100" key="35" len="12" pos="5904"/>
          <note pan="0" vol="100" key="35" len="12" pos="5916"/>
          <note pan="0" vol="100" key="35" len="12" pos="5928"/>
          <note pan="0" vol="100" key="35" len="12" pos="5940"/>
          <note pan="0" vol="100" key="35" len="12" pos="5952"/>
          <note pan="0" vol="100" key="35" len="12" pos="5964"/>
          <note pan="0" vol="100" key="35" len="12" pos="5976"/>
          <note pan="0" vol="100" key="35" len="12" pos="5988"/>
          <note pan="0" vol="100" key="35" len="12" pos="6000"/>
          <note pan="0" vol="100" key="35" len="12" pos="6024"/>
          <note pan="0" vol="100" key="35" len="12" pos="6036"/>
          <note pan="0" vol="100" key="35" len="12" pos="6060"/>
          <note pan="0" vol="100" key="35" len="12" pos="6072"/>
          <note pan="0" vol="100" key="35" len="12" pos="6096"/>
          <note pan="0" vol="100" key="35" len="12" pos="6108"/>
          <note pan="0" vol="100" key="35" len="12" pos="6120"/>
          <note pan="0" vol="100" key="35" len="12" pos="6132"/>
          <note pan="0" vol="100" key="35" len="12" pos="6144"/>
          <note pan="0" vol="100" key="35" len="12" pos="6156"/>
          <note pan="0" vol="100" key="35" len="12" pos="6168"/>
          <note pan="0" vol="100" key="35" len="12" pos="6180"/>
          <note pan="0" vol="100" key="35" len="12" pos="6192"/>
          <note pan="0" vol="100" key="35" len="12" pos="6216"/>
          <note pan="0" vol="100" key="35" len="12" pos="6228"/>
          <note pan="0" vol="100" key="35" len="12" pos="6252"/>
          <note pan="0" vol="100" key="35" len="12" pos="6264"/>
          <note pan="0" vol="100" key="35" len="12" pos="6288"/>
          <note pan="0" vol="100" key="35" len="12" pos="6300"/>
          <note pan="0" vol="100" key="35" len="12" pos="6312"/>
          <note pan="0" vol="100" key="35" len="12" pos="6324"/>
          <note pan="0" vol="100" key="35" len="12" pos="6336"/>
          <note pan="0" vol="100" key="35" len="12" pos="6348"/>
          <note pan="0" vol="100" key="35" len="12" pos="6360"/>
          <note pan="0" vol="100" key="35" len="12" pos="6372"/>
          <note pan="0" vol="100" key="35" len="12" pos="6384"/>
          <note pan="0" vol="100" key="35" len="12" pos="6408"/>
          <note pan="0" vol="100" key="35" len="12" pos="6420"/>
          <note pan="0" vol="100" key="35" len="12" pos="6444"/>
          <note pan="0" vol="100" key="35" len="12" pos="6456"/>
          <note pan="0" vol="100" key="35" len="12" pos="6480"/>
          <note pan="0" vol="100" key="35" len="12" pos="6492"/>
          <note pan="0" vol="100" key="35" len="12" pos="6504"/>
          <note pan="0" vol="100" key="35" len="12" pos="6516"/>
          <note pan="0" vol="100" key="35" len="12" pos="6528"/>
          <note pan="0" vol="100" key="35" len="12" pos="6540"/>
          <note pan="0" vol="100" key="35" len="12" pos="6552"/>
          <note pan="0" vol="100" key="35" len="12" pos="6564"/>
          <note pan="0" vol="100" key="35" len="12" pos="6576"/>
          <note pan="0" vol="100" key="35" len="12" pos="6600"/>
          <note pan="0" vol="100" key="35" len="12" pos="6612"/>
          <note pan="0" vol="100" key="35" len="12" pos="6636"/>
          <note pan="0" vol="100" key="35" len="12" pos="6648"/>
          <note pan="0" vol="100" key="35" len="12" pos="6672"/>
          <note pan="0" vol="100" key="35" len="12" pos="6684"/>
          <note pan="0" vol="100" key="35" len="12" pos="6696"/>
          <note pan="0" vol="100" key="35" len="12" pos="6708"/>
          <note pan="0" vol="100" key="35" len="12" pos="6720"/>
          <note pan="0" vol="100" key="35" len="12" pos="6732"/>
          <note pan="0" vol="100" key="35" len="12" pos="6744"/>
          <note pan="0" vol="100" key="35" len="12" pos="6756"/>
          <note pan="0" vol="100" key="35" len="12" pos="6768"/>
          <note pan="0" vol="100" key="35" len="12" pos="6792"/>
          <note pan="0" vol="100" key="35" len="12" pos="6804"/>
          <note pan="0" vol="100" key="35" len="12" pos="6828"/>
          <note pan="0" vol="100" key="35" len="12" pos="6840"/>
          <note pan="0" vol="100" key="35" len="12" pos="6864"/>
          <note pan="0" vol="100" key="35" len="12" pos="6876"/>
          <note pan="0" vol="100" key="35" len="12" pos="6888"/>
          <note pan="0" vol="100" key="35" len="12" pos="6900"/>
          <note pan="0" vol="100" key="35" len="12" pos="6912"/>
          <note pan="0" vol="100" key="35" len="12" pos="6924"/>
          <note pan="0" vol="100" key="35" len="12" pos="6936"/>
          <note pan="0" vol="100" key="35" len="12" pos="6948"/>
          <note pan="0" vol="100" key="35" len="12" pos="6960"/>
          <note pan="0" vol="100" key="35" len="12" pos="6984"/>
          <note pan="0" vol="100" key="35" len="12" pos="6996"/>
          <note pan="0" vol="100" key="35" len="12" pos="7020"/>
          <note pan="0" vol="100" key="35" len="12" pos="7032"/>
          <note pan="0" vol="100" key="35" len="12" pos="7056"/>
          <note pan="0" vol="100" key="35" len="12" pos="7068"/>
          <note pan="0" vol="100" key="35" len="12" pos="7080"/>
          <note pan="0" vol="100" key="35" len="12" pos="7092"/>
          <note pan="0" vol="100" key="35" len="12" pos="7104"/>
          <note pan="0" vol="100" key="35" len="12" pos="7116"/>
          <note pan="0" vol="100" key="35" len="12" pos="7128"/>
          <note pan="0" vol="100" key="35" len="12" pos="7140"/>
          <note pan="0" vol="100" key="35" len="12" pos="7152"/>
          <note pan="0" vol="100" key="35" len="12" pos="7176"/>
          <note pan="0" vol="100" key="35" len="12" pos="7188"/>
          <note pan="0" vol="100" key="35" len="12" pos="7212"/>
          <note pan="0" vol="100" key="35" len="12" pos="7224"/>
          <note pan="0" vol="100" key="35" len="12" pos="7248"/>
          <note pan="0" vol="100" key="35" len="12" pos="7260"/>
          <note pan="0" vol="100" key="35" len="12" pos="7272"/>
          <note pan="0" vol="100" key="35" len="12" pos="7284"/>
          <note pan="0" vol="100" key="35" len="12" pos="7296"/>
          <note pan="0" vol="100" key="35" len="12" pos="7308"/>
          <note pan="0" vol="100" key="35" len="12" pos="7320"/>
          <note pan="0" vol="100" key="35" len="12" pos="7332"/>
          <note pan="0" vol="100" key="35" len="12" pos="7344"/>
          <note pan="0" vol="100" key="35" len="12" pos="7368"/>
          <note pan="0" vol="100" key="35" len="12" pos="7380"/>
          <note pan="0" vol="100" key="35" len="12" pos="7404"/>
          <note pan="0" vol="100" key="35" len="12" pos="7416"/>
          <note pan="0" vol="100" key="35" len="12" pos="7440"/>
          <note pan="0" vol="100" key="35" len="12" pos="7452"/>
          <note pan="0" vol="100" key="35" len="12" pos="7464"/>
          <note pan="0" vol="100" key="35" len="12" pos="7476"/>
          <note pan="0" vol="100" key="35" len="12" pos="7488"/>
          <note pan="0" vol="100" key="35" len="12" pos="7500"/>
          <note pan="0" vol="100" key="35" len="12" pos="7512"/>
          <note pan="0" vol="100" key="35" len="12" pos="7524"/>
          <note pan="0" vol="100" key="35" len="12" pos="7536"/>
          <note pan="0" vol="100" key="35" len="12" pos="7560"/>
          <note pan="0" vol="100" key="35" len="12" pos="7572"/>
          <note pan="0" vol="100" key="35" len="12" pos="7596"/>
          <note pan="0" vol="100" key="35" len="12" pos="7608"/>
          <note pan="0" vol="100" key="35" len="12" pos="7632"/>
          <note pan="0" vol="100" key="35" len="12" pos="7644"/>
          <note pan="0" vol="100" key="35" len="12" pos="7656"/>
          <note pan="0" vol="100" key="35" len="12" pos="7668"/>
          <note pan="0" vol="100" key="35" len="12" pos="7680"/>
          <note pan="0" vol="100" key="35" len="12" pos="7692"/>
          <note pan="0" vol="100" key="35" len="12" pos="7704"/>
          <note pan="0" vol="100" key="35" len="12" pos="7716"/>
          <note pan="0" vol="100" key="35" len="12" pos="7728"/>
          <note pan="0" vol="100" key="35" len="12" pos="7752"/>
          <note pan="0" vol="100" key="35" len="12" pos="7764"/>
          <note pan="0" vol="100" key="35" len="12" pos="7788"/>
          <note pan="0" vol="100" key="35" len="12" pos="7800"/>
          <note pan="0" vol="100" key="35" len="12" pos="7824"/>
          <note pan="0" vol="100" key="35" len="12" pos="7836"/>
          <note pan="0" vol="100" key="35" len="12" pos="7848"/>
          <note pan="0" vol="100" key="35" len="12" pos="7860"/>
          <note pan="0" vol="100" key="35" len="12" pos="7872"/>
          <note pan="0" vol="100" key="35" len="12" pos="7884"/>
          <note pan="0" vol="100" key="35" len="12" pos="7896"/>
          <note pan="0" vol="100" key="35" len="12" pos="7908"/>
          <note pan="0" vol="100" key="35" len="12" pos="7920"/>
          <note pan="0" vol="100" key="35" len="12" pos="7944"/>
          <note pan="0" vol="100" key="35" len="12" pos="7956"/>
          <note pan="0" vol="100" key="35" len="12" pos="7980"/>
          <note pan="0" vol="100" key="35" len="12" pos="7992"/>
          <note pan="0" vol="100" key="35" len="12" pos="8016"/>
          <note pan="0" vol="100" key="35" len="12" pos="8028"/>
          <note pan="0" vol="100" key="35" len="12" pos="8040"/>
          <note pan="0" vol="100" key="35" len="12" pos="8052"/>
          <note pan="0" vol="100" key="35" len="12" pos="8064"/>
          <note pan="0" vol="100" key="35" len="12" pos="8076"/>
          <note pan="0" vol="100" key="35" len="12" pos="8088"/>
          <note pan="0" vol="100" key="35" len="12" pos="8100"/>
          <note pan="0" vol="100" key="35" len="12" pos="8112"/>
          <note pan="0" vol="100" key="35" len="12" pos="8136"/>
          <note pan="0" vol="100" key="35" len="12" pos="8148"/>
          <note pan="0" vol="100" key="35" len="12" pos="8172"/>
          <note pan="0" vol="100" key="35" len="12" pos="8184"/>
          <note pan="0" vol="100" key="35" len="12" pos="8208"/>
          <note pan="0" vol="100" key="35" len="12" pos="8220"/>
          <note pan="0" vol="100" key="35" len="12" pos="8232"/>
          <note pan="0" vol="100" key="35" len="12" pos="8244"/>
          <note pan="0" vol="100" key="35" len="12" pos="8256"/>
          <note pan="0" vol="100" key="35" len="12" pos="8268"/>
          <note pan="0" vol="100" key="35" len="12" pos="8280"/>
          <note pan="0" vol="100" key="35" len="12" pos="8292"/>
          <note pan="0" vol="100" key="35" len="12" pos="8304"/>
          <note pan="0" vol="100" key="35" len="12" pos="8328"/>
          <note pan="0" vol="100" key="35" len="12" pos="8340"/>
          <note pan="0" vol="100" key="35" len="12" pos="8364"/>
          <note pan="0" vol="100" key="35" len="12" pos="8376"/>
          <note pan="0" vol="100" key="35" len="12" pos="8400"/>
          <note pan="0" vol="100" key="35" len="12" pos="8412"/>
          <note pan="0" vol="100" key="35" len="12" pos="8424"/>
          <note pan="0" vol="100" key="35" len="12" pos="8436"/>
          <note pan="0" vol="100" key="35" len="12" pos="8448"/>
          <note pan="0" vol="100" key="35" len="12" pos="8460"/>
          <note pan="0" vol="100" key="35" len="12" pos="8472"/>
          <note pan="0" vol="100" key="35" len="12" pos="8484"/>
          <note pan="0" vol="100" key="35" len="12" pos="8496"/>
          <note pan="0" vol="100" key="35" len="12" pos="8520"/>
          <note pan="0" vol="100" key="35" len="12" pos="8532"/>
          <note pan="0" vol="100" key="35" len="12" pos="8556"/>
          <note pan="0" vol="100" key="35" len="12" pos="8568"/>
          <note pan="0" vol="100" key="35" len="12" pos="8592"/>
          <note pan="0" vol="100" key="35" len="12" pos="8604"/>
          <note pan="0" vol="100" key="35" len="12" pos="8616"/>
          <note pan="0" vol="100" key="35" len="12" pos="8628"/>
          <note pan="0" vol="100" key="35" len="12" pos="8640"/>
          <note pan="0" vol="100" key="35" len="12" pos="8652"/>
          <note pan="0" vol="100" key="35" len="12" pos="8664"/>
          <note pan="0" vol="100" key="35" len="12" pos="8676"/>
          <note pan="0" vol="100" key="35" len="12" pos="8688"/>
          <note pan="0" vol="100" key="35" len="12" pos="8712"/>
          <note pan="0" vol="100" key="35" len="12" pos="8724"/>
          <note pan="0" vol="100" key="35" len="12" pos="8748"/>
          <note pan="0" vol="100" key="35" len="12" pos="8760"/>
          <note pan="0" vol="100" key="35" len="12" pos="8784"/>
          <note pan="0" vol="100" key="35" len="12" pos="8796"/>
          <note pan="0" vol="100" key="35" len="12" pos="8808"/>
          <note pan="0" vol="100" key="35" len="12" pos="8820"/>
          <note pan="0" vol="100" key="35" len="12" pos="8832"/>
          <note pan="0" vol="100" key="35" len="12" pos="8844"/>
          <note pan="0" vol="100" key="35" len="12" pos="8856"/>
          <note pan="0" vol="100" key="35" len="12" pos="8868"/>
          <note pan="0" vol="100" key="35" len="12" pos="8880"/>
          <note pan="0" vol="100" key="35" len="12" pos="8904"/>
          <note pan="0" vol="100" key="35" len="12" pos="8916"/>
          <note pan="0" vol="100" key="35" len="12" pos="8940"/>
          <note pan="0" vol="100" key="35" len="12" pos="8952"/>
          <note pan="0" vol="100" key="35" len="12" pos="8976"/>
          <note pan="0" vol="100" key="35" len="12" pos="8988"/>
          <note pan="0" vol="100" key="35" len="12" pos="9000"/>
          <note pan="0" vol="100" key="35" len="12" pos="9012"/>
          <note pan="0" vol="100" key="35" len="12" pos="9024"/>
          <note pan="0" vol="100" key="35" len="12" pos="9036"/>
          <note pan="0" vol="100" key="35" len="12" pos="9048"/>
          <note pan="0" vol="100" key="35" len="12" pos="9060"/>
          <note pan="0" vol="100" key="35" len="12" pos="9072"/>
          <note pan="0" vol="100" key="35" len="12" pos="9096"/>
          <note pan="0" vol="100" key="35" len="12" pos="9108"/>
          <note pan="0" vol="100" key="35" len="12" pos="9132"/>
          <note pan="0" vol="100" key="35" len="12" pos="9144"/>
          <note pan="0" vol="100" key="35" len="12" pos="9168"/>
          <note pan="0" vol="100" key="35" len="12" pos="9180"/>
          <note pan="0" vol="100" key="35" len="12" pos="9192"/>
          <note pan="0" vol="100" key="35" len="12" pos="9204"/>
          <note pan="0" vol="100" key="35" len="12" pos="9216"/>
          <note pan="0" vol="100" key="35" len="12" pos="9228"/>
          <note pan="0" vol="100" key="35" len="12" pos="9240"/>
          <note pan="0" vol="100" key="35" len="12" pos="9252"/>
          <note pan="0" vol="100" key="35" len="12" pos="9264"/>
          <note pan="0" vol="100" key="35" len="12" pos="9288"/>
          <note pan="0" vol="100" key="35" len="12" pos="9300"/>
          <note pan="0" vol="100" key="35" len="12" pos="9324"/>
          <note pan="0" vol="100" key="35" len="12" pos="9336"/>
          <note pan="0" vol="100" key="35" len="12" pos="9360"/>
          <note pan="0" vol="100" key="35" len="12" pos="9372"/>
          <note pan="0" vol="100" key="35" len="12" pos="9384"/>
          <note pan="0" vol="100" key="35" len="12" pos="9396"/>
          <note pan="0" vol="100" key="35" len="12" pos="9408"/>
          <note pan="0" vol="100" key="35" len="12" pos="9420"/>
          <note pan="0" vol="100" key="35" len="12" pos="9432"/>
          <note pan="0" vol="100" key="35" len="12" pos="9444"/>
          <note pan="0" vol="100" key="35" len="12" pos="9456"/>
          <note pan="0" vol="100" key="35" len="12" pos="9480"/>
          <note pan="0" vol="100" key="35" len="12" pos="9492"/>
          <note pan="0" vol="100" key="35" len="12" pos="9516"/>
          <note pan="0" vol="100" key="35" len="12" pos="9528"/>
          <note pan="0" vol="100" key="35" len="12" pos="9552"/>
          <note pan="0" vol="100" key="35" len="12" pos="9564"/>
          <note pan="0" vol="100" key="35" len="12" pos="9576"/>
          <note pan="0" vol="100" key="35" len="12" pos="9588"/>
          <note pan="0" vol="100" key="35" len="12" pos="9600"/>
          <note pan="0" vol="100" key="35" len="12" pos="9612"/>
          <note pan="0" vol="100" key="35" len="12" pos="9624"/>
          <note pan="0" vol="100" key="35" len="12" pos="9636"/>
          <note pan="0" vol="100" key="35" len="12" pos="9648"/>
          <note pan="0" vol="100" key="35" len="12" pos="9672"/>
          <note pan="0" vol="100" key="35" len="12" pos="9684"/>
          <note pan="0" vol="100" key="35" len="12" pos="9708"/>
          <note pan="0" vol="100" key="35" len="12" pos="9720"/>
          <note pan="0" vol="100" key="35" len="12" pos="9744"/>
          <note pan="0" vol="100" key="35" len="12" pos="9756"/>
          <note pan="0" vol="100" key="35" len="12" pos="9768"/>
          <note pan="0" vol="100" key="35" len="12" pos="9780"/>
          <note pan="0" vol="100" key="35" len="12" pos="9792"/>
          <note pan="0" vol="100" key="35" len="12" pos="9804"/>
          <note pan="0" vol="100" key="35" len="12" pos="9816"/>
          <note pan="0" vol="100" key="35" len="12" pos="9828"/>
          <note pan="0" vol="100" key="35" len="12" pos="9840"/>
          <note pan="0" vol="100" key="35" len="12" pos="9864"/>
          <note pan="0" vol="100" key="35" len="12" pos="9876"/>
          <note pan="0" vol="100" key="35" len="12" pos="9900"/>
          <note pan="0" vol="100" key="35" len="12" pos="9912"/>
          <note pan="0" vol="100" key="35" len="12" pos="9936"/>
          <note pan="0" vol="100" key="35" len="12" pos="9948"/>
          <note pan="0" vol="100" key="35" len="12" pos="9960"/>
          <note pan="0" vol="100" key="35" len="12" pos="9972"/>
          <note pan="0" vol="100" key="35" len="12" pos="9984"/>
          <note pan="0" vol="100" key="35" len="12" pos="9996"/>
          <note pan="0" vol="100" key="35" len="12" pos="10008"/>
          <note pan="0" vol="100" key="35" len="12" pos="10020"/>
          <note pan="0" vol="100" key="35" len="12" pos="10032"/>
          <note pan="0" vol="100" key="35" len="12" pos="10056"/>
          <note pan="0" vol="100" key="35" len="12" pos="10068"/>
          <note pan="0" vol="100" key="35" len="12" pos="10092"/>
          <note pan="0" vol="100" key="35" len="12" pos="10104"/>
          <note pan="0" vol="100" key="35" len="12" pos="10128"/>
          <note pan="0" vol="100" key="35" len="12" pos="10140"/>
          <note pan="0" vol="100" key="35" len="12" pos="10152"/>
          <note pan="0" vol="100" key="35" len="12" pos="10164"/>
          <note pan="0" vol="100" key="35" len="12" pos="10176"/>
          <note pan="0" vol="100" key="35" len="12" pos="10188"/>
          <note pan="0" vol="100" key="35" len="12" pos="10200"/>
          <note pan="0" vol="100" key="35" len="12" pos="10212"/>
          <note pan="0" vol="100" key="35" len="12" pos="10224"/>
          <note pan="0" vol="100" key="35" len="12" pos="10248"/>
          <note pan="0" vol="100" key="35" len="12" pos="10260"/>
          <note pan="0" vol="100" key="35" len="12" pos="10284"/>
          <note pan="0" vol="100" key="35" len="12" pos="10296"/>
          <note pan="0" vol="100" key="35" len="12" pos="10320"/>
          <note pan="0" vol="100" key="35" len="12" pos="10332"/>
          <note pan="0" vol="100" key="35" len="12" pos="10344"/>
          <note pan="0" vol="100" key="35" len="12" pos="10356"/>
          <note pan="0" vol="100" key="35" len="12" pos="10368"/>
          <note pan="0" vol="100" key="35" len="12" pos="10380"/>
          <note pan="0" vol="100" key="35" len="12" pos="10392"/>
          <note pan="0" vol="100" key="35" len="12" pos="10404"/>
          <note pan="0" vol="100" key="35" len="12" pos="10416"/>
          <note pan="0" vol="100" key="35" len="12" pos="10440"/>
          <note pan="0" vol="100" key="35" len="12" pos="10452"/>
          <note pan="0" vol="100" key="35" len="12" pos="10476"/>
          <note pan="0" vol="100" key="35" len="12" pos="10488"/>
          <note pan="0" vol="100" key="35" len="12" pos="10512"/>
          <note pan="0" vol="100" key="35" len="12" pos="10524"/>
          <note pan="0" vol="100" key="35" len="12" pos="10536"/>
          <note pan="0" vol="100" key="35" len="12" pos="10548"/>
          <note pan="0" vol="100" key="35" len="12" pos="10560"/>
          <note pan="0" vol="100" key="35" len="12" pos="10572"/>
          <note pan="0" vol="100" key="35" len="12" pos="10584"/>
          <note pan="0" vol="100" key="35" len="12" pos="10596"/>
          <note pan="0" vol="100" key="35" len="12" pos="10608"/>
          <note pan="0" vol="100" key="35" len="12" pos="10632"/>
          <note pan="0" vol="100" key="35" len="12" pos="10644"/>
          <note pan="0" vol="100" key="35" len="12" pos="10668"/>
          <note pan="0" vol="100" key="35" len="12" pos="10680"/>
          <note pan="0" vol="100" key="35" len="12" pos="10704"/>
          <note pan="0" vol="100" key="35" len="12" pos="10716"/>
          <note pan="0" vol="100" key="35" len="12" pos="10728"/>
          <note pan="0" vol="100" key="35" len="12" pos="10740"/>
          <note pan="0" vol="100" key="35" len="12" pos="10752"/>
          <note pan="0" vol="100" key="35" len="12" pos="10764"/>
          <note pan="0" vol="100" key="35" len="12" pos="10776"/>
          <note pan="0" vol="100" key="35" len="12" pos="10788"/>
          <note pan="0" vol="100" key="35" len="12" pos="10800"/>
          <note pan="0" vol="100" key="35" len="12" pos="10824"/>
          <note pan="0" vol="100" key="35" len="12" pos="10836"/>
          <note pan="0" vol="100" key="35" len="12" pos="10860"/>
          <note pan="0" vol="100" key="35" len="12" pos="10872"/>
          <note pan="0" vol="100" key="35" len="12" pos="10896"/>
          <note pan="0" vol="100" key="35" len="12" pos="10908"/>
          <note pan="0" vol="100" key="35" len="12" pos="10920"/>
          <note pan="0" vol="100" key="35" len="12" pos="10932"/>
          <note pan="0" vol="100" key="35" len="12" pos="10944"/>
          <note pan="0" vol="100" key="35" len="12" pos="10956"/>
          <note pan="0" vol="100" key="35" len="12" pos="10968"/>
          <note pan="0" vol="100" key="35" len="12" pos="10980"/>
          <note pan="0" vol="100" key="35" len="12" pos="10992"/>
          <note pan="0" vol="100" key="35" len="12" pos="11016"/>
          <note pan="0" vol="100" key="35" len="12" pos="11028"/>
          <note pan="0" vol="100" key="35" len="12" pos="11052"/>
          <note pan="0" vol="100" key="35" len="12" pos="11064"/>
          <note pan="0" vol="100" key="35" len="12" pos="11088"/>
          <note pan="0" vol="100" key="35" len="12" pos="11100"/>
          <note pan="0" vol="100" key="35" len="12" pos="11112"/>
          <note pan="0" vol="100" key="35" len="12" pos="11124"/>
          <note pan="0" vol="100" key="35" len="12" pos="11136"/>
          <note pan="0" vol="100" key="35" len="12" pos="11148"/>
          <note pan="0" vol="100" key="35" len="12" pos="11160"/>
          <note pan="0" vol="100" key="35" len="12" pos="11172"/>
          <note pan="0" vol="100" key="35" len="12" pos="11184"/>
          <note pan="0" vol="100" key="35" len="12" pos="11208"/>
          <note pan="0" vol="100" key="35" len="12" pos="11220"/>
          <note pan="0" vol="100" key="35" len="12" pos="11244"/>
          <note pan="0" vol="100" key="35" len="12" pos="11256"/>
          <note pan="0" vol="100" key="35" len="12" pos="11280"/>
          <note pan="0" vol="100" key="35" len="12" pos="11292"/>
          <note pan="0" vol="100" key="35" len="12" pos="11304"/>
          <note pan="0" vol="100" key="35" len="12" pos="11316"/>
          <note pan="0" vol="100" key="35" len="12" pos="11328"/>
          <note pan="0" vol="100" key="35" len="12" pos="11340"/>
          <note pan="0" vol="100" key="35" len="12" pos="11352"/>
          <note pan="0" vol="100" key="35" len="12" pos="11364"/>
          <note pan="0" vol="100" key="35" len="12" pos="11376"/>
          <note pan="0" vol="100" key="35" len="12" pos="11400"/>
          <note pan="0" vol="100" key="35" len="12" pos="11412"/>
          <note pan="0" vol="100" key="35" len="12" pos="11436"/>
          <note pan="0" vol="100" key="35" len="12" pos="11448"/>
          <note pan="0" vol="100" key="35" len="12" pos="11472"/>
          <note pan="0" vol="100" key="35" len="12" pos="11484"/>
          <note pan="0" vol="100" key="35" len="12" pos="11496"/>
          <note pan="0" vol="100" key="35" len="12" pos="11508"/>
          <note pan="0" vol="100" key="35" len="12" pos="11520"/>
          <note pan="0" vol="100" key="35" len="12" pos="11532"/>
          <note pan="0" vol="100" key="35" len="12" pos="11544"/>
          <note pan="0" vol="100" key="35" len="12" pos="11556"/>
          <note pan="0" vol="100" key="35" len="12" pos="11568"/>
          <note pan="0" vol="100" key="35" len="12" pos="11592"/>
          <note pan="0" vol="100" key="35" len="12" pos="11604"/>
          <note pan="0" vol="100" key="35" len="12" pos="11628"/>
          <note pan="0" vol="100" key="35" len="12" pos="11640"/>
          <note pan="0" vol="100" key="35" len="12" pos="11664"/>
          <note pan="0" vol="100" key="35" len="12" pos="11676"/>
          <note pan="0" vol="100" key="35" len="12" pos="11688"/>
          <note pan="0" vol="100" key="35" len="12" pos="11700"/>
          <note pan="0" vol="100" key="35" len="12" pos="11712"/>
          <note pan="0" vol="100" key="35" len="12" pos="11724"/>
          <note pan="0" vol="100" key="35" len="12" pos="11736"/>
          <note pan="0" vol="100" key="35" len="12" pos="11748"/>
          <note pan="0" vol="100" key="35" len="12" pos="11760"/>
          <note pan="0" vol="100" key="35" len="12" pos="11784"/>
          <note pan="0" vol="100" key="35" len="12" pos="11796"/>
          <note pan="0" vol="100" key="35" len="12" pos="11820"/>
          <note pan="0" vol="100" key="35" len="12" pos="11832"/>
          <note pan="0" vol="100" key="35" len="12" pos="11856"/>
          <note pan="0" vol="100" key="35" len="12" pos="11868"/>
          <note pan="0" vol="100" key="35" len="12" pos="11880"/>
          <note pan="0" vol="100" key="35" len="12" pos="11892"/>
          <note pan="0" vol="100" key="35" len="12" pos="11904"/>
          <note pan="0" vol="100" key="35" len="12" pos="11916"/>
          <note pan="0" vol="100" key="35" len="12" pos="11928"/>
          <note pan="0" vol="100" key="35" len="12" pos="11940"/>
          <note pan="0" vol="100" key="35" len="12" pos="11952"/>
          <note pan="0" vol="100" key="35" len="12" pos="11976"/>
          <note pan="0" vol="100" key="35" len="12" pos="11988"/>
          <note pan="0" vol="100" key="35" len="12" pos="12012"/>
          <note pan="0" vol="100" key="35" len="12" pos="12024"/>
          <note pan="0" vol="100" key="35" len="12" pos="12048"/>
          <note pan="0" vol="100" key="35" len="12" pos="12060"/>
          <note pan="0" vol="100" key="35" len="12" pos="12072"/>
          <note pan="0" vol="100" key="35" len="12" pos="12084"/>
          <note pan="0" vol="100" key="35" len="12" pos="12096"/>
          <note pan="0" vol="100" key="35" len="12" pos="12108"/>
          <note pan="0" vol="100" key="35" len="12" pos="12120"/>
          <note pan="0" vol="100" key="35" len="12" pos="12132"/>
          <note pan="0" vol="100" key="35" len="12" pos="12144"/>
          <note pan="0" vol="100" key="35" len="12" pos="12168"/>
          <note pan="0" vol="100" key="35" len="12" pos="12180"/>
          <note pan="0" vol="100" key="35" len="12" pos="12204"/>
          <note pan="0" vol="100" key="35" len="12" pos="12216"/>
          <note pan="0" vol="100" key="35" len="12" pos="12240"/>
          <note pan="0" vol="100" key="35" len="12" pos="12252"/>
          <note pan="0" vol="100" key="35" len="12" pos="12264"/>
          <note pan="0" vol="100" key="35" len="12" pos="12276"/>
          <note pan="0" vol="100" key="35" len="12" pos="12288"/>
          <note pan="0" vol="100" key="35" len="12" pos="12456"/>
          <note pan="0" vol="100" key="35" len="12" pos="12480"/>
          <note pan="0" vol="100" key="35" len="12" pos="12648"/>
          <note pan="0" vol="100" key="35" len="12" pos="12660"/>
          <note pan="0" vol="100" key="35" len="12" pos="12672"/>
        </pattern>
      </track>
      <track solo="0" type="0" name="Rhythm 3" muted="0">
        <instrumenttrack pitch="0" pan="-25" vol="29.6" pitchrange="1" fxch="0" usemasterpitch="1" basenote="57">
          <instrument name="vestige">
            <vestige program="0" plugin="C:/Program Files/VstPlugins/helm64.dll" guivisible="0" chunk="ew0KICAibGljZW5zZSI6ICJQYXRjaCAoYykgYnkgLiAgVGhpcyBwYXRjaCBpcyBsaWNlbnNlZCB1bmRlciBhIENyZWF0aXZlIENvbW1vbnMgQXR0cmlidXRpb24gNC4wIEludGVybmF0aW9uYWwgTGljZW5zZS4gIFlvdSBzaG91bGQgaGF2ZSByZWNlaXZlZCBhIGNvcHkgb2YgdGhlIGxpY2Vuc2UgYWxvbmcgd2l0aCB0aGlzIHdvcmsuICBJZiBub3QsIHNlZSA8aHR0cDovL2NyZWF0aXZlY29tbW9ucy5vcmcvbGljZW5zZXMvYnkvNC4wLz4uIiwNCiAgInN5bnRoX3ZlcnNpb24iOiAiMC45LjAiLA0KICAicGF0Y2hfbmFtZSI6ICIiLA0KICAiZm9sZGVyX25hbWUiOiAiIiwNCiAgImF1dGhvciI6ICIiLA0KICAic2V0dGluZ3MiOiB7DQogICAgImFtcF9hdHRhY2siOiAwLjEwOTU0NTAwMDAwMDAwMDAwMzQ4LA0KICAgICJhbXBfZGVjYXkiOiAwLjU4ODIzNTI5NDExNzY0NzA3ODQyLA0KICAgICJhbXBfcmVsZWFzZSI6IDAuMjk5OTk5OTk5OTk5OTk5OTg4OSwNCiAgICAiYW1wX3N1c3RhaW4iOiAwLA0KICAgICJhcnBfZnJlcXVlbmN5IjogMiwNCiAgICAiYXJwX2dhdGUiOiAwLjUsDQogICAgImFycF9vY3RhdmVzIjogMSwNCiAgICAiYXJwX29uIjogMCwNCiAgICAiYXJwX3BhdHRlcm4iOiAwLA0KICAgICJhcnBfc3luYyI6IDEsDQogICAgImFycF90ZW1wbyI6IDksDQogICAgImJlYXRzX3Blcl9taW51dGUiOiAxLjc1LA0KICAgICJjcm9zc19tb2R1bGF0aW9uIjogMCwNCiAgICAiY3V0b2ZmIjogNjcuMTg3NSwNCiAgICAiZGVsYXlfZHJ5X3dldCI6IDAuNSwNCiAgICAiZGVsYXlfZmVlZGJhY2siOiAwLjQwMDAwMDAwMDAwMDAwMDAyMjIsDQogICAgImRlbGF5X2ZyZXF1ZW5jeSI6IDIsDQogICAgImRlbGF5X29uIjogMCwNCiAgICAiZGVsYXlfc3luYyI6IDEsDQogICAgImRlbGF5X3RlbXBvIjogOSwNCiAgICAiZGlzdG9ydGlvbl9kcml2ZSI6IDAsDQogICAgImRpc3RvcnRpb25fbWl4IjogMSwNCiAgICAiZGlzdG9ydGlvbl9vbiI6IDAsDQogICAgImRpc3RvcnRpb25fdHlwZSI6IDAsDQogICAgImZpbF9hdHRhY2siOiAwLA0KICAgICJmaWxfZGVjYXkiOiAxLA0KICAgICJmaWxfZW52X2RlcHRoIjogMCwNCiAgICAiZmlsX3JlbGVhc2UiOiAwLjI5NDExNzY0NzA1ODgyMzUzOTIxLA0KICAgICJmaWxfc3VzdGFpbiI6IDAsDQogICAgImZpbHRlcl9ibGVuZCI6IDAsDQogICAgImZpbHRlcl9kcml2ZSI6IDQuMzUyMDAwMDAwMDAwMDAwMzEyNiwNCiAgICAiZmlsdGVyX29uIjogMSwNCiAgICAiZmlsdGVyX3NoZWxmIjogMCwNCiAgICAiZmlsdGVyX3N0eWxlIjogMCwNCiAgICAiZm9ybWFudF9vbiI6IDAsDQogICAgImZvcm1hbnRfeCI6IDAuNSwNCiAgICAiZm9ybWFudF95IjogMC41LA0KICAgICJrZXl0cmFjayI6IDAsDQogICAgImxlZ2F0byI6IDAsDQogICAgIm1vZF9hdHRhY2siOiAwLA0KICAgICJtb2RfZGVjYXkiOiAwLjUyOTQxMTc2NDcwNTg4MjM1OTQ3LA0KICAgICJtb2RfcmVsZWFzZSI6IDAsDQogICAgIm1vZF9zdXN0YWluIjogMCwNCiAgICAibW9ub19sZm9fMV9hbXBsaXR1ZGUiOiAxLA0KICAgICJtb25vX2xmb18xX2ZyZXF1ZW5jeSI6IDEsDQogICAgIm1vbm9fbGZvXzFfcmV0cmlnZ2VyIjogMiwNCiAgICAibW9ub19sZm9fMV9zeW5jIjogMSwNCiAgICAibW9ub19sZm9fMV90ZW1wbyI6IDYsDQogICAgIm1vbm9fbGZvXzFfd2F2ZWZvcm0iOiAwLA0KICAgICJtb25vX2xmb18yX2FtcGxpdHVkZSI6IDEsDQogICAgIm1vbm9fbGZvXzJfZnJlcXVlbmN5IjogMSwNCiAgICAibW9ub19sZm9fMl9yZXRyaWdnZXIiOiAyLA0KICAgICJtb25vX2xmb18yX3N5bmMiOiAxLA0KICAgICJtb25vX2xmb18yX3RlbXBvIjogNywNCiAgICAibW9ub19sZm9fMl93YXZlZm9ybSI6IDAsDQogICAgIm5vaXNlX3ZvbHVtZSI6IDAuNjI5MDMyMjU4MDY0NTE2MTI1NDUsDQogICAgIm51bV9zdGVwcyI6IDgsDQogICAgIm9zY18xX3RyYW5zcG9zZSI6IDAsDQogICAgIm9zY18xX3R1bmUiOiAwLA0KICAgICJvc2NfMV91bmlzb25fZGV0dW5lIjogMTAsDQogICAgIm9zY18xX3VuaXNvbl92b2ljZXMiOiAxLA0KICAgICJvc2NfMV92b2x1bWUiOiAwLjMwNjQ1MTYxMjkwMzIyNTc1NjMxLA0KICAgICJvc2NfMV93YXZlZm9ybSI6IDQsDQogICAgIm9zY18yX3RyYW5zcG9zZSI6IDAsDQogICAgIm9zY18yX3R1bmUiOiAwLA0KICAgICJvc2NfMl91bmlzb25fZGV0dW5lIjogMTAsDQogICAgIm9zY18yX3VuaXNvbl92b2ljZXMiOiAxLA0KICAgICJvc2NfMl92b2x1bWUiOiAwLA0KICAgICJvc2NfMl93YXZlZm9ybSI6IDQsDQogICAgIm9zY19mZWVkYmFja19hbW91bnQiOiAwLA0KICAgICJvc2NfZmVlZGJhY2tfdHJhbnNwb3NlIjogMCwNCiAgICAib3NjX2ZlZWRiYWNrX3R1bmUiOiAwLA0KICAgICJwaXRjaF9iZW5kX3JhbmdlIjogMiwNCiAgICAicG9seV9sZm9fYW1wbGl0dWRlIjogMSwNCiAgICAicG9seV9sZm9fZnJlcXVlbmN5IjogMSwNCiAgICAicG9seV9sZm9fc3luYyI6IDEsDQogICAgInBvbHlfbGZvX3RlbXBvIjogNywNCiAgICAicG9seV9sZm9fd2F2ZWZvcm0iOiAwLA0KICAgICJwb2x5cGhvbnkiOiA0LA0KICAgICJwb3J0YW1lbnRvIjogLTcsDQogICAgInBvcnRhbWVudG9fdHlwZSI6IDAsDQogICAgInJlc29uYW5jZSI6IDAsDQogICAgInJldmVyYl9kYW1waW5nIjogMC45NDM5OTk5OTk5OTk5OTk5NTAyNiwNCiAgICAicmV2ZXJiX2RyeV93ZXQiOiAwLjE5MjAwMDAwMDAwMDAwMDAwNCwNCiAgICAicmV2ZXJiX2ZlZWRiYWNrIjogMC45MDAwMDAwMDAwMDAwMDAwMjIyLA0KICAgICJyZXZlcmJfb24iOiAxLA0KICAgICJzdGVwX2ZyZXF1ZW5jeSI6IDIsDQogICAgInN0ZXBfc2VxXzAwIjogMCwNCiAgICAic3RlcF9zZXFfMDEiOiAwLA0KICAgICJzdGVwX3NlcV8wMiI6IDAsDQogICAgInN0ZXBfc2VxXzAzIjogMCwNCiAgICAic3RlcF9zZXFfMDQiOiAwLA0KICAgICJzdGVwX3NlcV8wNSI6IDAsDQogICAgInN0ZXBfc2VxXzA2IjogMCwNCiAgICAic3RlcF9zZXFfMDciOiAwLA0KICAgICJzdGVwX3NlcV8wOCI6IDAsDQogICAgInN0ZXBfc2VxXzA5IjogMCwNCiAgICAic3RlcF9zZXFfMTAiOiAwLA0KICAgICJzdGVwX3NlcV8xMSI6IDAsDQogICAgInN0ZXBfc2VxXzEyIjogMCwNCiAgICAic3RlcF9zZXFfMTMiOiAwLA0KICAgICJzdGVwX3NlcV8xNCI6IDAsDQogICAgInN0ZXBfc2VxXzE1IjogMCwNCiAgICAic3RlcF9zZXFfMTYiOiAwLA0KICAgICJzdGVwX3NlcV8xNyI6IDAsDQogICAgInN0ZXBfc2VxXzE4IjogMCwNCiAgICAic3RlcF9zZXFfMTkiOiAwLA0KICAgICJzdGVwX3NlcV8yMCI6IDAsDQogICAgInN0ZXBfc2VxXzIxIjogMCwNCiAgICAic3RlcF9zZXFfMjIiOiAwLA0KICAgICJzdGVwX3NlcV8yMyI6IDAsDQogICAgInN0ZXBfc2VxXzI0IjogMCwNCiAgICAic3RlcF9zZXFfMjUiOiAwLA0KICAgICJzdGVwX3NlcV8yNiI6IDAsDQogICAgInN0ZXBfc2VxXzI3IjogMCwNCiAgICAic3RlcF9zZXFfMjgiOiAwLA0KICAgICJzdGVwX3NlcV8yOSI6IDAsDQogICAgInN0ZXBfc2VxXzMwIjogMCwNCiAgICAic3RlcF9zZXFfMzEiOiAwLA0KICAgICJzdGVwX3NlcXVlbmNlcl9yZXRyaWdnZXIiOiAyLA0KICAgICJzdGVwX3NlcXVlbmNlcl9zeW5jIjogMSwNCiAgICAic3RlcF9zZXF1ZW5jZXJfdGVtcG8iOiA3LA0KICAgICJzdGVwX3Ntb290aGluZyI6IDAsDQogICAgInN0dXR0ZXJfZnJlcXVlbmN5IjogMywNCiAgICAic3R1dHRlcl9vbiI6IDAsDQogICAgInN0dXR0ZXJfcmVzYW1wbGVfZnJlcXVlbmN5IjogMSwNCiAgICAic3R1dHRlcl9yZXNhbXBsZV9zeW5jIjogMSwNCiAgICAic3R1dHRlcl9yZXNhbXBsZV90ZW1wbyI6IDYsDQogICAgInN0dXR0ZXJfc29mdG5lc3MiOiAwLjIwMDAwMDAwMDAwMDAwMDAxMTEsDQogICAgInN0dXR0ZXJfc3luYyI6IDEsDQogICAgInN0dXR0ZXJfdGVtcG8iOiA4LA0KICAgICJzdWJfb2N0YXZlIjogMCwNCiAgICAic3ViX3NodWZmbGUiOiAwLA0KICAgICJzdWJfdm9sdW1lIjogMC41NDgzODcwOTY3NzQxOTM1MDU0MSwNCiAgICAic3ViX3dhdmVmb3JtIjogMCwNCiAgICAidW5pc29uXzFfaGFybW9uaXplIjogMCwNCiAgICAidW5pc29uXzJfaGFybW9uaXplIjogMCwNCiAgICAidmVsb2NpdHlfdHJhY2siOiAwLA0KICAgICJ2b2x1bWUiOiAwLA0KICAgICJtb2R1bGF0aW9ucyI6IFsNCiAgICAgIHsNCiAgICAgICAgInNvdXJjZSI6ICJmaWxfZW52ZWxvcGUiLA0KICAgICAgICAiZGVzdGluYXRpb24iOiAiY3V0b2ZmIiwNCiAgICAgICAgImFtb3VudCI6IDcyLjU3NDM3NTgyOTkxNjUzMzU3Ng0KICAgICAgfSwNCiAgICAgIHsNCiAgICAgICAgInNvdXJjZSI6ICJtb2RfZW52ZWxvcGUiLA0KICAgICAgICAiZGVzdGluYXRpb24iOiAicmV2ZXJiX2RyeV93ZXQiLA0KICAgICAgICAiYW1vdW50IjogMC41OTYwMDAwMDAwMDAwMDAwODUyNw0KICAgICAgfSwNCiAgICAgIHsNCiAgICAgICAgInNvdXJjZSI6ICJ2ZWxvY2l0eSIsDQogICAgICAgICJkZXN0aW5hdGlvbiI6ICJ2b2x1bWUiLA0KICAgICAgICAiYW1vdW50IjogMS4wMDAyMDg4MzcwNjcwNTI3Njk1DQogICAgICB9DQogICAgXQ0KICB9DQp9AA=="/>
          </instrument>
          <eldata ftype="0" fcut="14000" fwet="0" fres="0.5">
            <elvol sustain="0.5" lpdel="0" userwavefile="" lshp="0" lspd_denominator="4" ctlenvamt="0" lspd_numerator="4" rel="0.1" lspd_syncmode="0" amt="0" dec="0.5" x100="0" lspd="0.1" latt="0" att="0" lamt="0" hold="0.5" pdel="0"/>
            <elcut sustain="0.5" lpdel="0" userwavefile="" lshp="0" lspd_denominator="4" ctlenvamt="0" lspd_numerator="4" rel="0.1" lspd_syncmode="0" amt="0" dec="0.5" x100="0" lspd="0.1" latt="0" att="0" lamt="0" hold="0.5" pdel="0"/>
            <elres sustain="0.5" lpdel="0" userwavefile="" lshp="0" lspd_denominator="4" ctlenvamt="0" lspd_numerator="4" rel="0.1" lspd_syncmode="0" amt="0" dec="0.5" x100="0" lspd="0.1" latt="0" att="0" lamt="0" hold="0.5" pdel="0"/>
          </eldata>
          <chordcreator chord-enabled="0" chord="0" chordrange="1"/>
          <arpeggiator arprange="1" arpskip="0" arptime_numerator="4" arpgate="100" arpmiss="0" arpdir="0" arpmode="0" arp="0" arptime_syncmode="0" arptime="200" arpcycle="0" arptime_denominator="4" arp-enabled="0"/>
          <midiport writable="0" inputcontroller="0" readable="0" inputchannel="0" fixedoutputnote="-1" outputprogram="1" fixedinputvelocity="-1" basevelocity="63" fixedoutputvelocity="-1" outputcontroller="0" outputchannel="1"/>
          <fxchain numofeffects="0" enabled="0"/>
        </instrumenttrack>
        <pattern steps="16" type="1" name="Rhythm 3" pos="0" muted="0">
          <note pan="0" vol="100" key="59" len="12" pos="0"/>
          <note pan="0" vol="100" key="59" len="12" pos="12"/>
          <note pan="0" vol="100" key="59" len="12" pos="24"/>
          <note pan="0" vol="100" key="59" len="12" pos="36"/>
          <note pan="0" vol="100" key="59" len="12" pos="48"/>
          <note pan="0" vol="100" key="59" len="12" pos="72"/>
          <note pan="0" vol="100" key="59" len="12" pos="84"/>
          <note pan="0" vol="100" key="59" len="12" pos="108"/>
          <note pan="0" vol="100" key="59" len="12" pos="120"/>
          <note pan="0" vol="100" key="59" len="12" pos="144"/>
          <note pan="0" vol="100" key="59" len="12" pos="156"/>
          <note pan="0" vol="100" key="59" len="12" pos="168"/>
          <note pan="0" vol="100" key="59" len="12" pos="180"/>
          <note pan="0" vol="100" key="59" len="12" pos="192"/>
          <note pan="0" vol="100" key="59" len="12" pos="204"/>
          <note pan="0" vol="100" key="59" len="12" pos="216"/>
          <note pan="0" vol="100" key="59" len="12" pos="228"/>
          <note pan="0" vol="100" key="59" len="12" pos="240"/>
          <note pan="0" vol="100" key="59" len="12" pos="264"/>
          <note pan="0" vol="100" key="59" len="12" pos="276"/>
          <note pan="0" vol="100" key="59" len="12" pos="300"/>
          <note pan="0" vol="100" key="59" len="12" pos="312"/>
          <note pan="0" vol="100" key="59" len="12" pos="336"/>
          <note pan="0" vol="100" key="59" len="12" pos="348"/>
          <note pan="0" vol="100" key="59" len="12" pos="360"/>
          <note pan="0" vol="100" key="59" len="12" pos="372"/>
          <note pan="0" vol="100" key="59" len="12" pos="384"/>
          <note pan="0" vol="100" key="59" len="12" pos="396"/>
          <note pan="0" vol="100" key="59" len="12" pos="408"/>
          <note pan="0" vol="100" key="59" len="12" pos="420"/>
          <note pan="0" vol="100" key="59" len="12" pos="432"/>
          <note pan="0" vol="100" key="59" len="12" pos="456"/>
          <note pan="0" vol="100" key="59" len="12" pos="468"/>
          <note pan="0" vol="100" key="59" len="12" pos="492"/>
          <note pan="0" vol="100" key="59" len="12" pos="504"/>
          <note pan="0" vol="100" key="59" len="12" pos="528"/>
          <note pan="0" vol="100" key="59" len="12" pos="540"/>
          <note pan="0" vol="100" key="59" len="12" pos="552"/>
          <note pan="0" vol="100" key="59" len="12" pos="564"/>
          <note pan="0" vol="100" key="59" len="12" pos="576"/>
          <note pan="0" vol="100" key="59" len="12" pos="588"/>
          <note pan="0" vol="100" key="59" len="12" pos="600"/>
          <note pan="0" vol="100" key="59" len="12" pos="612"/>
          <note pan="0" vol="100" key="59" len="12" pos="624"/>
          <note pan="0" vol="100" key="59" len="12" pos="648"/>
          <note pan="0" vol="100" key="59" len="12" pos="660"/>
          <note pan="0" vol="100" key="59" len="12" pos="684"/>
          <note pan="0" vol="100" key="59" len="12" pos="696"/>
          <note pan="0" vol="100" key="59" len="12" pos="720"/>
          <note pan="0" vol="100" key="59" len="12" pos="732"/>
          <note pan="0" vol="100" key="59" len="12" pos="744"/>
          <note pan="0" vol="100" key="59" len="12" pos="756"/>
          <note pan="0" vol="100" key="59" len="12" pos="768"/>
          <note pan="0" vol="100" key="59" len="12" pos="780"/>
          <note pan="0" vol="100" key="59" len="12" pos="792"/>
          <note pan="0" vol="100" key="59" len="12" pos="804"/>
          <note pan="0" vol="100" key="59" len="12" pos="816"/>
          <note pan="0" vol="100" key="59" len="12" pos="840"/>
          <note pan="0" vol="100" key="59" len="12" pos="852"/>
          <note pan="0" vol="100" key="59" len="12" pos="876"/>
          <note pan="0" vol="100" key="59" len="12" pos="888"/>
          <note pan="0" vol="100" key="59" len="12" pos="912"/>
          <note pan="0" vol="100" key="59" len="12" pos="924"/>
          <note pan="0" vol="100" key="59" len="12" pos="936"/>
          <note pan="0" vol="100" key="59" len="12" pos="948"/>
          <note pan="0" vol="100" key="59" len="12" pos="960"/>
          <note pan="0" vol="100" key="59" len="12" pos="972"/>
          <note pan="0" vol="100" key="59" len="12" pos="984"/>
          <note pan="0" vol="100" key="59" len="12" pos="996"/>
          <note pan="0" vol="100" key="59" len="12" pos="1008"/>
          <note pan="0" vol="100" key="59" len="12" pos="1032"/>
          <note pan="0" vol="100" key="59" len="12" pos="1044"/>
          <note pan="0" vol="100" key="59" len="12" pos="1068"/>
          <note pan="0" vol="100" key="59" len="12" pos="1080"/>
          <note pan="0" vol="100" key="59" len="12" pos="1104"/>
          <note pan="0" vol="100" key="59" len="12" pos="1116"/>
          <note pan="0" vol="100" key="59" len="12" pos="1128"/>
          <note pan="0" vol="100" key="59" len="12" pos="1140"/>
          <note pan="0" vol="100" key="59" len="12" pos="1152"/>
          <note pan="0" vol="100" key="59" len="12" pos="1164"/>
          <note pan="0" vol="100" key="59" len="12" pos="1176"/>
          <note pan="0" vol="100" key="59" len="12" pos="1188"/>
          <note pan="0" vol="100" key="59" len="12" pos="1200"/>
          <note pan="0" vol="100" key="59" len="12" pos="1224"/>
          <note pan="0" vol="100" key="59" len="12" pos="1236"/>
          <note pan="0" vol="100" key="59" len="12" pos="1260"/>
          <note pan="0" vol="100" key="59" len="12" pos="1272"/>
          <note pan="0" vol="100" key="59" len="12" pos="1296"/>
          <note pan="0" vol="100" key="59" len="12" pos="1308"/>
          <note pan="0" vol="100" key="59" len="12" pos="1320"/>
          <note pan="0" vol="100" key="59" len="12" pos="1332"/>
          <note pan="0" vol="100" key="59" len="12" pos="1344"/>
          <note pan="0" vol="100" key="59" len="12" pos="1356"/>
          <note pan="0" vol="100" key="59" len="12" pos="1368"/>
          <note pan="0" vol="100" key="59" len="12" pos="1380"/>
          <note pan="0" vol="100" key="59" len="12" pos="1392"/>
          <note pan="0" vol="100" key="59" len="12" pos="1416"/>
          <note pan="0" vol="100" key="59" len="12" pos="1428"/>
          <note pan="0" vol="100" key="59" len="12" pos="1452"/>
          <note pan="0" vol="100" key="59" len="12" pos="1464"/>
          <note pan="0" vol="100" key="59" len="12" pos="1488"/>
          <note pan="0" vol="100" key="59" len="12" pos="1500"/>
          <note pan="0" vol="100" key="59" len="12" pos="1512"/>
          <note pan="0" vol="100" key="59" len="12" pos="1524"/>
          <note pan="0" vol="100" key="59" len="12" pos="1536"/>
          <note pan="0" vol="100" key="59" len="12" pos="1548"/>
          <note pan="0" vol="100" key="59" len="12" pos="1560"/>
          <note pan="0" vol="100" key="59" len="12" pos="1572"/>
          <note pan="0" vol="100" key="59" len="12" pos="1584"/>
          <note pan="0" vol="100" key="59" len="12" pos="1608"/>
          <note pan="0" vol="100" key="59" len="12" pos="1620"/>
          <note pan="0" vol="100" key="59" len="12" pos="1644"/>
          <note pan="0" vol="100" key="59" len="12" pos="1656"/>
          <note pan="0" vol="100" key="59" len="12" pos="1680"/>
          <note pan="0" vol="100" key="59" len="12" pos="1692"/>
          <note pan="0" vol="100" key="59" len="12" pos="1704"/>
          <note pan="0" vol="100" key="59" len="12" pos="1716"/>
          <note pan="0" vol="100" key="59" len="12" pos="1728"/>
          <note pan="0" vol="100" key="59" len="12" pos="1740"/>
          <note pan="0" vol="100" key="59" len="12" pos="1752"/>
          <note pan="0" vol="100" key="59" len="12" pos="1764"/>
          <note pan="0" vol="100" key="59" len="12" pos="1776"/>
          <note pan="0" vol="100" key="59" len="12" pos="1800"/>
          <note pan="0" vol="100" key="59" len="12" pos="1812"/>
          <note pan="0" vol="100" key="59" len="12" pos="1836"/>
          <note pan="0" vol="100" key="59" len="12" pos="1848"/>
          <note pan="0" vol="100" key="59" len="12" pos="1872"/>
          <note pan="0" vol="100" key="59" len="12" pos="1884"/>
          <note pan="0" vol="100" key="59" len="12" pos="1896"/>
          <note pan="0" vol="100" key="59" len="12" pos="1908"/>
          <note pan="0" vol="100" key="59" len="12" pos="1920"/>
          <note pan="0" vol="100" key="59" len="12" pos="1932"/>
          <note pan="0" vol="100" key="59" len="12" pos="1944"/>
          <note pan="0" vol="100" key="59" len="12" pos="1956"/>
          <note pan="0" vol="100" key="59" len="12" pos="1968"/>
          <note pan="0" vol="100" key="59" len="12" pos="1992"/>
          <note pan="0" vol="100" key="59" len="12" pos="2004"/>
          <note pan="0" vol="100" key="59" len="12" pos="2028"/>
          <note pan="0" vol="100" key="59" len="12" pos="2040"/>
          <note pan="0" vol="100" key="59" len="12" pos="2064"/>
          <note pan="0" vol="100" key="59" len="12" pos="2076"/>
          <note pan="0" vol="100" key="59" len="12" pos="2088"/>
          <note pan="0" vol="100" key="59" len="12" pos="2100"/>
          <note pan="0" vol="100" key="59" len="12" pos="2112"/>
          <note pan="0" vol="100" key="59" len="12" pos="2124"/>
          <note pan="0" vol="100" key="59" len="12" pos="2136"/>
          <note pan="0" vol="100" key="59" len="12" pos="2148"/>
          <note pan="0" vol="100" key="59" len="12" pos="2160"/>
          <note pan="0" vol="100" key="59" len="12" pos="2184"/>
          <note pan="0" vol="100" key="59" len="12" pos="2196"/>
          <note pan="0" vol="100" key="59" len="12" pos="2220"/>
          <note pan="0" vol="100" key="59" len="12" pos="2232"/>
          <note pan="0" vol="100" key="59" len="12" pos="2256"/>
          <note pan="0" vol="100" key="59" len="12" pos="2268"/>
          <note pan="0" vol="100" key="59" len="12" pos="2280"/>
          <note pan="0" vol="100" key="59" len="12" pos="2292"/>
          <note pan="0" vol="100" key="59" len="12" pos="2304"/>
          <note pan="0" vol="100" key="59" len="12" pos="2316"/>
          <note pan="0" vol="100" key="59" len="12" pos="2328"/>
          <note pan="0" vol="100" key="59" len="12" pos="2340"/>
          <note pan="0" vol="100" key="59" len="12" pos="2352"/>
          <note pan="0" vol="100" key="59" len="12" pos="2376"/>
          <note pan="0" vol="100" key="59" len="12" pos="2388"/>
          <note pan="0" vol="100" key="59" len="12" pos="2412"/>
          <note pan="0" vol="100" key="59" len="12" pos="2424"/>
          <note pan="0" vol="100" key="59" len="12" pos="2448"/>
          <note pan="0" vol="100" key="59" len="12" pos="2460"/>
          <note pan="0" vol="100" key="59" len="12" pos="2472"/>
          <note pan="0" vol="100" key="59" len="12" pos="2484"/>
          <note pan="0" vol="100" key="59" len="12" pos="2496"/>
          <note pan="0" vol="100" key="59" len="12" pos="2508"/>
          <note pan="0" vol="100" key="59" len="12" pos="2520"/>
          <note pan="0" vol="100" key="59" len="12" pos="2532"/>
          <note pan="0" vol="100" key="59" len="12" pos="2544"/>
          <note pan="0" vol="100" key="59" len="12" pos="2568"/>
          <note pan="0" vol="100" key="59" len="12" pos="2580"/>
          <note pan="0" vol="100" key="59" len="12" pos="2604"/>
          <note pan="0" vol="100" key="59" len="12" pos="2616"/>
          <note pan="0" vol="100" key="59" len="12" pos="2640"/>
          <note pan="0" vol="100" key="59" len="12" pos="2652"/>
          <note pan="0" vol="100" key="59" len="12" pos="2664"/>
          <note pan="0" vol="100" key="59" len="12" pos="2676"/>
          <note pan="0" vol="100" key="59" len="12" pos="2688"/>
          <note pan="0" vol="100" key="59" len="12" pos="2700"/>
          <note pan="0" vol="100" key="59" len="12" pos="2712"/>
          <note pan="0" vol="100" key="59" len="12" pos="2724"/>
          <note pan="0" vol="100" key="59" len="12" pos="2736"/>
          <note pan="0" vol="100" key="59" len="12" pos="2760"/>
          <note pan="0" vol="100" key="59" len="12" pos="2772"/>
          <note pan="0" vol="100" key="59" len="12" pos="2796"/>
          <note pan="0" vol="100" key="59" len="12" pos="2808"/>
          <note pan="0" vol="100" key="59" len="12" pos="2832"/>
          <note pan="0" vol="100" key="59" len="12" pos="2844"/>
          <note pan="0" vol="100" key="59" len="12" pos="2856"/>
          <note pan="0" vol="100" key="59" len="12" pos="2868"/>
          <note pan="0" vol="100" key="59" len="12" pos="2880"/>
          <note pan="0" vol="100" key="59" len="12" pos="2892"/>
          <note pan="0" vol="100" key="59" len="12" pos="2904"/>
          <note pan="0" vol="100" key="59" len="12" pos="2916"/>
          <note pan="0" vol="100" key="59" len="12" pos="2928"/>
          <note pan="0" vol="100" key="59" len="12" pos="2952"/>
          <note pan="0" vol="100" key="59" len="12" pos="2964"/>
          <note pan="0" vol="100" key="59" len="12" pos="2988"/>
          <note pan="0" vol="100" key="59" len="12" pos="3000"/>
          <note pan="0" vol="100" key="59" len="12" pos="3024"/>
          <note pan="0" vol="100" key="59" len="12" pos="3036"/>
          <note pan="0" vol="100" key="59" len="12" pos="3048"/>
          <note pan="0" vol="100" key="59" len="12" pos="3060"/>
          <note pan="0" vol="100" key="59" len="12" pos="3072"/>
          <note pan="0" vol="100" key="59" len="12" pos="3084"/>
          <note pan="0" vol="100" key="59" len="12" pos="3096"/>
          <note pan="0" vol="100" key="59" len="12" pos="3108"/>
          <note pan="0" vol="100" key="59" len="12" pos="3120"/>
          <note pan="0" vol="100" key="59" len="12" pos="3144"/>
          <note pan="0" vol="100" key="59" len="12" pos="3156"/>
          <note pan="0" vol="100" key="59" len="12" pos="3180"/>
          <note pan="0" vol="100" key="59" len="12" pos="3192"/>
          <note pan="0" vol="100" key="59" len="12" pos="3216"/>
          <note pan="0" vol="100" key="59" len="12" pos="3228"/>
          <note pan="0" vol="100" key="59" len="12" pos="3240"/>
          <note pan="0" vol="100" key="59" len="12" pos="3252"/>
          <note pan="0" vol="100" key="59" len="12" pos="3264"/>
          <note pan="0" vol="100" key="59" len="12" pos="3276"/>
          <note pan="0" vol="100" key="59" len="12" pos="3288"/>
          <note pan="0" vol="100" key="59" len="12" pos="3300"/>
          <note pan="0" vol="100" key="59" len="12" pos="3312"/>
          <note pan="0" vol="100" key="59" len="12" pos="3336"/>
          <note pan="0" vol="100" key="59" len="12" pos="3348"/>
          <note pan="0" vol="100" key="59" len="12" pos="3372"/>
          <note pan="0" vol="100" key="59" len="12" pos="3384"/>
          <note pan="0" vol="100" key="59" len="12" pos="3408"/>
          <note pan="0" vol="100" key="59" len="12" pos="3420"/>
          <note pan="0" vol="100" key="59" len="12" pos="3432"/>
          <note pan="0" vol="100" key="59" len="12" pos="3444"/>
          <note pan="0" vol="100" key="59" len="12" pos="3456"/>
          <note pan="0" vol="100" key="59" len="12" pos="3468"/>
          <note pan="0" vol="100" key="59" len="12" pos="3480"/>
          <note pan="0" vol="100" key="59" len="12" pos="3492"/>
          <note pan="0" vol="100" key="59" len="12" pos="3504"/>
          <note pan="0" vol="100" key="59" len="12" pos="3528"/>
          <note pan="0" vol="100" key="59" len="12" pos="3540"/>
          <note pan="0" vol="100" key="59" len="12" pos="3564"/>
          <note pan="0" vol="100" key="59" len="12" pos="3576"/>
          <note pan="0" vol="100" key="59" len="12" pos="3600"/>
          <note pan="0" vol="100" key="59" len="12" pos="3612"/>
          <note pan="0" vol="100" key="59" len="12" pos="3624"/>
          <note pan="0" vol="100" key="59" len="12" pos="3636"/>
          <note pan="0" vol="100" key="59" len="12" pos="3648"/>
          <note pan="0" vol="100" key="59" len="12" pos="3660"/>
          <note pan="0" vol="100" key="59" len="12" pos="3672"/>
          <note pan="0" vol="100" key="59" len="12" pos="3684"/>
          <note pan="0" vol="100" key="59" len="12" pos="3696"/>
          <note pan="0" vol="100" key="59" len="12" pos="3720"/>
          <note pan="0" vol="100" key="59" len="12" pos="3732"/>
          <note pan="0" vol="100" key="59" len="12" pos="3756"/>
          <note pan="0" vol="100" key="59" len="12" pos="3768"/>
          <note pan="0" vol="100" key="59" len="12" pos="3792"/>
          <note pan="0" vol="100" key="59" len="12" pos="3804"/>
          <note pan="0" vol="100" key="59" len="12" pos="3816"/>
          <note pan="0" vol="100" key="59" len="12" pos="3828"/>
          <note pan="0" vol="100" key="59" len="12" pos="3840"/>
          <note pan="0" vol="100" key="59" len="12" pos="3852"/>
          <note pan="0" vol="100" key="59" len="12" pos="3864"/>
          <note pan="0" vol="100" key="59" len="12" pos="3876"/>
          <note pan="0" vol="100" key="59" len="12" pos="3888"/>
          <note pan="0" vol="100" key="59" len="12" pos="3912"/>
          <note pan="0" vol="100" key="59" len="12" pos="3924"/>
          <note pan="0" vol="100" key="59" len="12" pos="3948"/>
          <note pan="0" vol="100" key="59" len="12" pos="3960"/>
          <note pan="0" vol="100" key="59" len="12" pos="3984"/>
          <note pan="0" vol="100" key="59" len="12" pos="3996"/>
          <note pan="0" vol="100" key="59" len="12" pos="4008"/>
          <note pan="0" vol="100" key="59" len="12" pos="4020"/>
          <note pan="0" vol="100" key="59" len="12" pos="4032"/>
          <note pan="0" vol="100" key="59" len="12" pos="4044"/>
          <note pan="0" vol="100" key="59" len="12" pos="4056"/>
          <note pan="0" vol="100" key="59" len="12" pos="4068"/>
          <note pan="0" vol="100" key="59" len="12" pos="4080"/>
          <note pan="0" vol="100" key="59" len="12" pos="4104"/>
          <note pan="0" vol="100" key="59" len="12" pos="4116"/>
          <note pan="0" vol="100" key="59" len="12" pos="4140"/>
          <note pan="0" vol="100" key="59" len="12" pos="4152"/>
          <note pan="0" vol="100" key="59" len="12" pos="4176"/>
          <note pan="0" vol="100" key="59" len="12" pos="4188"/>
          <note pan="0" vol="100" key="59" len="12" pos="4200"/>
          <note pan="0" vol="100" key="59" len="12" pos="4212"/>
          <note pan="0" vol="100" key="59" len="12" pos="4224"/>
          <note pan="0" vol="100" key="59" len="12" pos="4236"/>
          <note pan="0" vol="100" key="59" len="12" pos="4248"/>
          <note pan="0" vol="100" key="59" len="12" pos="4260"/>
          <note pan="0" vol="100" key="59" len="12" pos="4272"/>
          <note pan="0" vol="100" key="59" len="12" pos="4296"/>
          <note pan="0" vol="100" key="59" len="12" pos="4308"/>
          <note pan="0" vol="100" key="59" len="12" pos="4332"/>
          <note pan="0" vol="100" key="59" len="12" pos="4344"/>
          <note pan="0" vol="100" key="59" len="12" pos="4368"/>
          <note pan="0" vol="100" key="59" len="12" pos="4380"/>
          <note pan="0" vol="100" key="59" len="12" pos="4392"/>
          <note pan="0" vol="100" key="59" len="12" pos="4404"/>
          <note pan="0" vol="100" key="59" len="12" pos="4416"/>
          <note pan="0" vol="100" key="59" len="12" pos="4428"/>
          <note pan="0" vol="100" key="59" len="12" pos="4440"/>
          <note pan="0" vol="100" key="59" len="12" pos="4452"/>
          <note pan="0" vol="100" key="59" len="12" pos="4464"/>
          <note pan="0" vol="100" key="59" len="12" pos="4488"/>
          <note pan="0" vol="100" key="59" len="12" pos="4500"/>
          <note pan="0" vol="100" key="59" len="12" pos="4524"/>
          <note pan="0" vol="100" key="59" len="12" pos="4536"/>
          <note pan="0" vol="100" key="59" len="12" pos="4560"/>
          <note pan="0" vol="100" key="59" len="12" pos="4572"/>
          <note pan="0" vol="100" key="59" len="12" pos="4584"/>
          <note pan="0" vol="100" key="59" len="12" pos="4596"/>
          <note pan="0" vol="100" key="59" len="12" pos="4608"/>
          <note pan="0" vol="100" key="59" len="12" pos="4620"/>
          <note pan="0" vol="100" key="59" len="12" pos="4632"/>
          <note pan="0" vol="100" key="59" len="12" pos="4644"/>
          <note pan="0" vol="100" key="59" len="12" pos="4656"/>
          <note pan="0" vol="100" key="59" len="12" pos="4680"/>
          <note pan="0" vol="100" key="59" len="12" pos="4692"/>
          <note pan="0" vol="100" key="59" len="12" pos="4716"/>
          <note pan="0" vol="100" key="59" len="12" pos="4728"/>
          <note pan="0" vol="100" key="59" len="12" pos="4752"/>
          <note pan="0" vol="100" key="59" len="12" pos="4764"/>
          <note pan="0" vol="100" key="59" len="12" pos="4776"/>
          <note pan="0" vol="100" key="59" len="12" pos="4788"/>
          <note pan="0" vol="100" key="59" len="12" pos="4800"/>
          <note pan="0" vol="100" key="59" len="12" pos="4812"/>
          <note pan="0" vol="100" key="59" len="12" pos="4824"/>
          <note pan="0" vol="100" key="59" len="12" pos="4836"/>
          <note pan="0" vol="100" key="59" len="12" pos="4848"/>
          <note pan="0" vol="100" key="59" len="12" pos="4872"/>
          <note pan="0" vol="100" key="59" len="12" pos="4884"/>
          <note pan="0" vol="100" key="59" len="12" pos="4908"/>
          <note pan="0" vol="100" key="59" len="12" pos="4920"/>
          <note pan="0" vol="100" key="59" len="12" pos="4944"/>
          <note pan="0" vol="100" key="59" len="12" pos="4956"/>
          <note pan="0" vol="100" key="59" len="12" pos="4968"/>
          <note pan="0" vol="100" key="59" len="12" pos="4980"/>
          <note pan="0" vol="100" key="59" len="12" pos="4992"/>
          <note pan="0" vol="100" key="59" len="12" pos="5004"/>
          <note pan="0" vol="100" key="59" len="12" pos="5016"/>
          <note pan="0" vol="100" key="59" len="12" pos="5028"/>
          <note pan="0" vol="100" key="59" len="12" pos="5040"/>
          <note pan="0" vol="100" key="59" len="12" pos="5064"/>
          <note pan="0" vol="100" key="59" len="12" pos="5076"/>
          <note pan="0" vol="100" key="59" len="12" pos="5100"/>
          <note pan="0" vol="100" key="59" len="12" pos="5112"/>
          <note pan="0" vol="100" key="59" len="12" pos="5136"/>
          <note pan="0" vol="100" key="59" len="12" pos="5148"/>
          <note pan="0" vol="100" key="59" len="12" pos="5160"/>
          <note pan="0" vol="100" key="59" len="12" pos="5172"/>
          <note pan="0" vol="100" key="59" len="12" pos="5184"/>
          <note pan="0" vol="100" key="59" len="12" pos="5196"/>
          <note pan="0" vol="100" key="59" len="12" pos="5208"/>
          <note pan="0" vol="100" key="59" len="12" pos="5220"/>
          <note pan="0" vol="100" key="59" len="12" pos="5232"/>
          <note pan="0" vol="100" key="59" len="12" pos="5256"/>
          <note pan="0" vol="100" key="59" len="12" pos="5268"/>
          <note pan="0" vol="100" key="59" len="12" pos="5292"/>
          <note pan="0" vol="100" key="59" len="12" pos="5304"/>
          <note pan="0" vol="100" key="59" len="12" pos="5328"/>
          <note pan="0" vol="100" key="59" len="12" pos="5340"/>
          <note pan="0" vol="100" key="59" len="12" pos="5352"/>
          <note pan="0" vol="100" key="59" len="12" pos="5364"/>
          <note pan="0" vol="100" key="59" len="12" pos="5376"/>
          <note pan="0" vol="100" key="59" len="12" pos="5388"/>
          <note pan="0" vol="100" key="59" len="12" pos="5400"/>
          <note pan="0" vol="100" key="59" len="12" pos="5412"/>
          <note pan="0" vol="100" key="59" len="12" pos="5424"/>
          <note pan="0" vol="100" key="59" len="12" pos="5448"/>
          <note pan="0" vol="100" key="59" len="12" pos="5460"/>
          <note pan="0" vol="100" key="59" len="12" pos="5484"/>
          <note pan="0" vol="100" key="59" len="12" pos="5496"/>
          <note pan="0" vol="100" key="59" len="12" pos="5520"/>
          <note pan="0" vol="100" key="59" len="12" pos="5532"/>
          <note pan="0" vol="100" key="59" len="12" pos="5544"/>
          <note pan="0" vol="100" key="59" len="12" pos="5556"/>
          <note pan="0" vol="100" key="59" len="12" pos="5568"/>
          <note pan="0" vol="100" key="59" len="12" pos="5580"/>
          <note pan="0" vol="100" key="59" len="12" pos="5592"/>
          <note pan="0" vol="100" key="59" len="12" pos="5604"/>
          <note pan="0" vol="100" key="59" len="12" pos="5616"/>
          <note pan="0" vol="100" key="59" len="12" pos="5640"/>
          <note pan="0" vol="100" key="59" len="12" pos="5652"/>
          <note pan="0" vol="100" key="59" len="12" pos="5676"/>
          <note pan="0" vol="100" key="59" len="12" pos="5688"/>
          <note pan="0" vol="100" key="59" len="12" pos="5712"/>
          <note pan="0" vol="100" key="59" len="12" pos="5724"/>
          <note pan="0" vol="100" key="59" len="12" pos="5736"/>
          <note pan="0" vol="100" key="59" len="12" pos="5748"/>
          <note pan="0" vol="100" key="59" len="12" pos="5760"/>
          <note pan="0" vol="100" key="59" len="12" pos="5772"/>
          <note pan="0" vol="100" key="59" len="12" pos="5784"/>
          <note pan="0" vol="100" key="59" len="12" pos="5796"/>
          <note pan="0" vol="100" key="59" len="12" pos="5808"/>
          <note pan="0" vol="100" key="59" len="12" pos="5832"/>
          <note pan="0" vol="100" key="59" len="12" pos="5844"/>
          <note pan="0" vol="100" key="59" len="12" pos="5868"/>
          <note pan="0" vol="100" key="59" len="12" pos="5880"/>
          <note pan="0" vol="100" key="59" len="12" pos="5904"/>
          <note pan="0" vol="100" key="59" len="12" pos="5916"/>
          <note pan="0" vol="100" key="59" len="12" pos="5928"/>
          <note pan="0" vol="100" key="59" len="12" pos="5940"/>
          <note pan="0" vol="100" key="59" len="12" pos="5952"/>
          <note pan="0" vol="100" key="59" len="12" pos="5964"/>
          <note pan="0" vol="100" key="59" len="12" pos="5976"/>
          <note pan="0" vol="100" key="59" len="12" pos="5988"/>
          <note pan="0" vol="100" key="59" len="12" pos="6000"/>
          <note pan="0" vol="100" key="59" len="12" pos="6024"/>
          <note pan="0" vol="100" key="59" len="12" pos="6036"/>
          <note pan="0" vol="100" key="59" len="12" pos="6060"/>
          <note pan="0" vol="100" key="59" len="12" pos="6072"/>
          <note pan="0" vol="100" key="59" len="12" pos="6096"/>
          <note pan="0" vol="100" key="59" len="12" pos="6108"/>
          <note pan="0" vol="100" key="59" len="12" pos="6120"/>
          <note pan="0" vol="100" key="59" len="12" pos="6132"/>
          <note pan="0" vol="100" key="59" len="12" pos="6144"/>
          <note pan="0" vol="100" key="59" len="12" pos="6156"/>
          <note pan="0" vol="100" key="59" len="12" pos="6168"/>
          <note pan="0" vol="100" key="59" len="12" pos="6180"/>
          <note pan="0" vol="100" key="59" len="12" pos="6192"/>
          <note pan="0" vol="100" key="59" len="12" pos="6216"/>
          <note pan="0" vol="100" key="59" len="12" pos="6228"/>
          <note pan="0" vol="100" key="59" len="12" pos="6252"/>
          <note pan="0" vol="100" key="59" len="12" pos="6264"/>
          <note pan="0" vol="100" key="59" len="12" pos="6288"/>
          <note pan="0" vol="100" key="59" len="12" pos="6300"/>
          <note pan="0" vol="100" key="59" len="12" pos="6312"/>
          <note pan="0" vol="100" key="59" len="12" pos="6324"/>
          <note pan="0" vol="100" key="59" len="12" pos="6336"/>
          <note pan="0" vol="100" key="59" len="12" pos="6348"/>
          <note pan="0" vol="100" key="59" len="12" pos="6360"/>
          <note pan="0" vol="100" key="59" len="12" pos="6372"/>
          <note pan="0" vol="100" key="59" len="12" pos="6384"/>
          <note pan="0" vol="100" key="59" len="12" pos="6408"/>
          <note pan="0" vol="100" key="59" len="12" pos="6420"/>
          <note pan="0" vol="100" key="59" len="12" pos="6444"/>
          <note pan="0" vol="100" key="59" len="12" pos="6456"/>
          <note pan="0" vol="100" key="59" len="12" pos="6480"/>
          <note pan="0" vol="100" key="59" len="12" pos="6492"/>
          <note pan="0" vol="100" key="59" len="12" pos="6504"/>
          <note pan="0" vol="100" key="59" len="12" pos="6516"/>
          <note pan="0" vol="100" key="59" len="12" pos="6528"/>
          <note pan="0" vol="100" key="59" len="12" pos="6540"/>
          <note pan="0" vol="100" key="59" len="12" pos="6552"/>
          <note pan="0" vol="100" key="59" len="12" pos="6564"/>
          <note pan="0" vol="100" key="59" len="12" pos="6576"/>
          <note pan="0" vol="100" key="59" len="12" pos="6600"/>
          <note pan="0" vol="100" key="59" len="12" pos="6612"/>
          <note pan="0" vol="100" key="59" len="12" pos="6636"/>
          <note pan="0" vol="100" key="59" len="12" pos="6648"/>
          <note pan="0" vol="100" key="59" len="12" pos="6672"/>
          <note pan="0" vol="100" key="59" len="12" pos="6684"/>
          <note pan="0" vol="100" key="59" len="12" pos="6696"/>
          <note pan="0" vol="100" key="59" len="12" pos="6708"/>
          <note pan="0" vol="100" key="59" len="12" pos="6720"/>
          <note pan="0" vol="100" key="59" len="12" pos="6732"/>
          <note pan="0" vol="100" key="59" len="12" pos="6744"/>
          <note pan="0" vol="100" key="59" len="12" pos="6756"/>
          <note pan="0" vol="100" key="59" len="12" pos="6768"/>
          <note pan="0" vol="100" key="59" len="12" pos="6792"/>
          <note pan="0" vol="100" key="59" len="12" pos="6804"/>
          <note pan="0" vol="100" key="59" len="12" pos="6828"/>
          <note pan="0" vol="100" key="59" len="12" pos="6840"/>
          <note pan="0" vol="100" key="59" len="12" pos="6864"/>
          <note pan="0" vol="100" key="59" len="12" pos="6876"/>
          <note pan="0" vol="100" key="59" len="12" pos="6888"/>
          <note pan="0" vol="100" key="59" len="12" pos="6900"/>
          <note pan="0" vol="100" key="59" len="12" pos="6912"/>
          <note pan="0" vol="100" key="59" len="12" pos="6924"/>
          <note pan="0" vol="100" key="59" len="12" pos="6936"/>
          <note pan="0" vol="100" key="59" len="12" pos="6948"/>
          <note pan="0" vol="100" key="59" len="12" pos="6960"/>
          <note pan="0" vol="100" key="59" len="12" pos="6984"/>
          <note pan="0" vol="100" key="59" len="12" pos="6996"/>
          <note pan="0" vol="100" key="59" len="12" pos="7020"/>
          <note pan="0" vol="100" key="59" len="12" pos="7032"/>
          <note pan="0" vol="100" key="59" len="12" pos="7056"/>
          <note pan="0" vol="100" key="59" len="12" pos="7068"/>
          <note pan="0" vol="100" key="59" len="12" pos="7080"/>
          <note pan="0" vol="100" key="59" len="12" pos="7092"/>
          <note pan="0" vol="100" key="59" len="12" pos="7104"/>
          <note pan="0" vol="100" key="59" len="12" pos="7116"/>
          <note pan="0" vol="100" key="59" len="12" pos="7128"/>
          <note pan="0" vol="100" key="59" len="12" pos="7140"/>
          <note pan="0" vol="100" key="59" len="12" pos="7152"/>
          <note pan="0" vol="100" key="59" len="12" pos="7176"/>
          <note pan="0" vol="100" key="59" len="12" pos="7188"/>
          <note pan="0" vol="100" key="59" len="12" pos="7212"/>
          <note pan="0" vol="100" key="59" len="12" pos="7224"/>
          <note pan="0" vol="100" key="59" len="12" pos="7248"/>
          <note pan="0" vol="100" key="59" len="12" pos="7260"/>
          <note pan="0" vol="100" key="59" len="12" pos="7272"/>
          <note pan="0" vol="100" key="59" len="12" pos="7284"/>
          <note pan="0" vol="100" key="59" len="12" pos="7296"/>
          <note pan="0" vol="100" key="59" len="12" pos="7308"/>
          <note pan="0" vol="100" key="59" len="12" pos="7320"/>
          <note pan="0" vol="100" key="59" len="12" pos="7332"/>
          <note pan="0" vol="100" key="59" len="12" pos="7344"/>
          <note pan="0" vol="100" key="59" len="12" pos="7368"/>
          <note pan="0" vol="100" key="59" len="12" pos="7380"/>
          <note pan="0" vol="100" key="59" len="12" pos="7404"/>
          <note pan="0" vol="100" key="59" len="12" pos="7416"/>
          <note pan="0" vol="100" key="59" len="12" pos="7440"/>
          <note pan="0" vol="100" key="59" len="12" pos="7452"/>
          <note pan="0" vol="100" key="59" len="12" pos="7464"/>
          <note pan="0" vol="100" key="59" len="12" pos="7476"/>
          <note pan="0" vol="100" key="59" len="12" pos="7488"/>
          <note pan="0" vol="100" key="59" len="12" pos="7500"/>
          <note pan="0" vol="100" key="59" len="12" pos="7512"/>
          <note pan="0" vol="100" key="59" len="12" pos="7524"/>
          <note pan="0" vol="100" key="59" len="12" pos="7536"/>
          <note pan="0" vol="100" key="59" len="12" pos="7560"/>
          <note pan="0" vol="100" key="59" len="12" pos="7572"/>
          <note pan="0" vol="100" key="59" len="12" pos="7596"/>
          <note pan="0" vol="100" key="59" len="12" pos="7608"/>
          <note pan="0" vol="100" key="59" len="12" pos="7632"/>
          <note pan="0" vol="100" key="59" len="12" pos="7644"/>
          <note pan="0" vol="100" key="59" len="12" pos="7656"/>
          <note pan="0" vol="100" key="59" len="12" pos="7668"/>
          <note pan="0" vol="100" key="59" len="12" pos="7680"/>
          <note pan="0" vol="100" key="59" len="12" pos="7692"/>
          <note pan="0" vol="100" key="59" len="12" pos="7704"/>
          <note pan="0" vol="100" key="59" len="12" pos="7716"/>
          <note pan="0" vol="100" key="59" len="12" pos="7728"/>
          <note pan="0" vol="100" key="59" len="12" pos="7752"/>
          <note pan="0" vol="100" key="59" len="12" pos="7764"/>
          <note pan="0" vol="100" key="59" len="12" pos="7788"/>
          <note pan="0" vol="100" key="59" len="12" pos="7800"/>
          <note pan="0" vol="100" key="59" len="12" pos="7824"/>
          <note pan="0" vol="100" key="59" len="12" pos="7836"/>
          <note pan="0" vol="100" key="59" len="12" pos="7848"/>
          <note pan="0" vol="100" key="59" len="12" pos="7860"/>
          <note pan="0" vol="100" key="59" len="12" pos="7872"/>
          <note pan="0" vol="100" key="59" len="12" pos="7884"/>
          <note pan="0" vol="100" key="59" len="12" pos="7896"/>
          <note pan="0" vol="100" key="59" len="12" pos="7908"/>
          <note pan="0" vol="100" key="59" len="12" pos="7920"/>
          <note pan="0" vol="100" key="59" len="12" pos="7944"/>
          <note pan="0" vol="100" key="59" len="12" pos="7956"/>
          <note pan="0" vol="100" key="59" len="12" pos="7980"/>
          <note pan="0" vol="100" key="59" len="12" pos="7992"/>
          <note pan="0" vol="100" key="59" len="12" pos="8016"/>
          <note pan="0" vol="100" key="59" len="12" pos="8028"/>
          <note pan="0" vol="100" key="59" len="12" pos="8040"/>
          <note pan="0" vol="100" key="59" len="12" pos="8052"/>
          <note pan="0" vol="100" key="59" len="12" pos="8064"/>
          <note pan="0" vol="100" key="59" len="12" pos="8076"/>
          <note pan="0" vol="100" key="59" len="12" pos="8088"/>
          <note pan="0" vol="100" key="59" len="12" pos="8100"/>
          <note pan="0" vol="100" key="59" len="12" pos="8112"/>
          <note pan="0" vol="100" key="59" len="12" pos="8136"/>
          <note pan="0" vol="100" key="59" len="12" pos="8148"/>
          <note pan="0" vol="100" key="59" len="12" pos="8172"/>
          <note pan="0" vol="100" key="59" len="12" pos="8184"/>
          <note pan="0" vol="100" key="59" len="12" pos="8208"/>
          <note pan="0" vol="100" key="59" len="12" pos="8220"/>
          <note pan="0" vol="100" key="59" len="12" pos="8232"/>
          <note pan="0" vol="100" key="59" len="12" pos="8244"/>
          <note pan="0" vol="100" key="59" len="12" pos="8256"/>
          <note pan="0" vol="100" key="59" len="12" pos="8268"/>
          <note pan="0" vol="100" key="59" len="12" pos="8280"/>
          <note pan="0" vol="100" key="59" len="12" pos="8292"/>
          <note pan="0" vol="100" key="59" len="12" pos="8304"/>
          <note pan="0" vol="100" key="59" len="12" pos="8328"/>
          <note pan="0" vol="100" key="59" len="12" pos="8340"/>
          <note pan="0" vol="100" key="59" len="12" pos="8364"/>
          <note pan="0" vol="100" key="59" len="12" pos="8376"/>
          <note pan="0" vol="100" key="59" len="12" pos="8400"/>
          <note pan="0" vol="100" key="59" len="12" pos="8412"/>
          <note pan="0" vol="100" key="59" len="12" pos="8424"/>
          <note pan="0" vol="100" key="59" len="12" pos="8436"/>
          <note pan="0" vol="100" key="59" len="12" pos="8448"/>
          <note pan="0" vol="100" key="59" len="12" pos="8460"/>
          <note pan="0" vol="100" key="59" len="12" pos="8472"/>
          <note pan="0" vol="100" key="59" len="12" pos="8484"/>
          <note pan="0" vol="100" key="59" len="12" pos="8496"/>
          <note pan="0" vol="100" key="59" len="12" pos="8520"/>
          <note pan="0" vol="100" key="59" len="12" pos="8532"/>
          <note pan="0" vol="100" key="59" len="12" pos="8556"/>
          <note pan="0" vol="100" key="59" len="12" pos="8568"/>
          <note pan="0" vol="100" key="59" len="12" pos="8592"/>
          <note pan="0" vol="100" key="59" len="12" pos="8604"/>
          <note pan="0" vol="100" key="59" len="12" pos="8616"/>
          <note pan="0" vol="100" key="59" len="12" pos="8628"/>
          <note pan="0" vol="100" key="59" len="12" pos="8640"/>
          <note pan="0" vol="100" key="59" len="12" pos="8652"/>
          <note pan="0" vol="100" key="59" len="12" pos="8664"/>
          <note pan="0" vol="100" key="59" len="12" pos="8676"/>
          <note pan="0" vol="100" key="59" len="12" pos="8688"/>
          <note pan="0" vol="100" key="59" len="12" pos="8712"/>
          <note pan="0" vol="100" key="59" len="12" pos="8724"/>
          <note pan="0" vol="100" key="59" len="12" pos="8748"/>
          <note pan="0" vol="100" key="59" len="12" pos="8760"/>
          <note pan="0" vol="100" key="59" len="12" pos="8784"/>
          <note pan="0" vol="100" key="59" len="12" pos="8796"/>
          <note pan="0" vol="100" key="59" len="12" pos="8808"/>
          <note pan="0" vol="100" key="59" len="12" pos="8820"/>
          <note pan="0" vol="100" key="59" len="12" pos="8832"/>
          <note pan="0" vol="100" key="59" len="12" pos="8844"/>
          <note pan="0" vol="100" key="59" len="12" pos="8856"/>
          <note pan="0" vol="100" key="59" len="12" pos="8868"/>
          <note pan="0" vol="100" key="59" len="12" pos="8880"/>
          <note pan="0" vol="100" key="59" len="12" pos="8904"/>
          <note pan="0" vol="100" key="59" len="12" pos="8916"/>
          <note pan="0" vol="100" key="59" len="12" pos="8940"/>
          <note pan="0" vol="100" key="59" len="12" pos="8952"/>
          <note pan="0" vol="100" key="59" len="12" pos="8976"/>
          <note pan="0" vol="100" key="59" len="12" pos="8988"/>
          <note pan="0" vol="100" key="59" len="12" pos="9000"/>
          <note pan="0" vol="100" key="59" len="12" pos="9012"/>
          <note pan="0" vol="100" key="59" len="12" pos="9024"/>
          <note pan="0" vol="100" key="59" len="12" pos="9036"/>
          <note pan="0" vol="100" key="59" len="12" pos="9048"/>
          <note pan="0" vol="100" key="59" len="12" pos="9060"/>
          <note pan="0" vol="100" key="59" len="12" pos="9072"/>
          <note pan="0" vol="100" key="59" len="12" pos="9096"/>
          <note pan="0" vol="100" key="59" len="12" pos="9108"/>
          <note pan="0" vol="100" key="59" len="12" pos="9132"/>
          <note pan="0" vol="100" key="59" len="12" pos="9144"/>
          <note pan="0" vol="100" key="59" len="12" pos="9168"/>
          <note pan="0" vol="100" key="59" len="12" pos="9180"/>
          <note pan="0" vol="100" key="59" len="12" pos="9192"/>
          <note pan="0" vol="100" key="59" len="12" pos="9204"/>
          <note pan="0" vol="100" key="59" len="12" pos="9216"/>
          <note pan="0" vol="100" key="59" len="12" pos="9228"/>
          <note pan="0" vol="100" key="59" len="12" pos="9240"/>
          <note pan="0" vol="100" key="59" len="12" pos="9252"/>
          <note pan="0" vol="100" key="59" len="12" pos="9264"/>
          <note pan="0" vol="100" key="59" len="12" pos="9288"/>
          <note pan="0" vol="100" key="59" len="12" pos="9300"/>
          <note pan="0" vol="100" key="59" len="12" pos="9324"/>
          <note pan="0" vol="100" key="59" len="12" pos="9336"/>
          <note pan="0" vol="100" key="59" len="12" pos="9360"/>
          <note pan="0" vol="100" key="59" len="12" pos="9372"/>
          <note pan="0" vol="100" key="59" len="12" pos="9384"/>
          <note pan="0" vol="100" key="59" len="12" pos="9396"/>
          <note pan="0" vol="100" key="59" len="12" pos="9408"/>
          <note pan="0" vol="100" key="59" len="12" pos="9420"/>
          <note pan="0" vol="100" key="59" len="12" pos="9432"/>
          <note pan="0" vol="100" key="59" len="12" pos="9444"/>
          <note pan="0" vol="100" key="59" len="12" pos="9456"/>
          <note pan="0" vol="100" key="59" len="12" pos="9480"/>
          <note pan="0" vol="100" key="59" len="12" pos="9492"/>
          <note pan="0" vol="100" key="59" len="12" pos="9516"/>
          <note pan="0" vol="100" key="59" len="12" pos="9528"/>
          <note pan="0" vol="100" key="59" len="12" pos="9552"/>
          <note pan="0" vol="100" key="59" len="12" pos="9564"/>
          <note pan="0" vol="100" key="59" len="12" pos="9576"/>
          <note pan="0" vol="100" key="59" len="12" pos="9588"/>
          <note pan="0" vol="100" key="59" len="12" pos="9600"/>
          <note pan="0" vol="100" key="59" len="12" pos="9612"/>
          <note pan="0" vol="100" key="59" len="12" pos="9624"/>
          <note pan="0" vol="100" key="59" len="12" pos="9636"/>
          <note pan="0" vol="100" key="59" len="12" pos="9648"/>
          <note pan="0" vol="100" key="59" len="12" pos="9672"/>
          <note pan="0" vol="100" key="59" len="12" pos="9684"/>
          <note pan="0" vol="100" key="59" len="12" pos="9708"/>
          <note pan="0" vol="100" key="59" len="12" pos="9720"/>
          <note pan="0" vol="100" key="59" len="12" pos="9744"/>
          <note pan="0" vol="100" key="59" len="12" pos="9756"/>
          <note pan="0" vol="100" key="59" len="12" pos="9768"/>
          <note pan="0" vol="100" key="59" len="12" pos="9780"/>
          <note pan="0" vol="100" key="59" len="12" pos="9792"/>
          <note pan="0" vol="100" key="59" len="12" pos="9804"/>
          <note pan="0" vol="100" key="59" len="12" pos="9816"/>
          <note pan="0" vol="100" key="59" len="12" pos="9828"/>
          <note pan="0" vol="100" key="59" len="12" pos="9840"/>
          <note pan="0" vol="100" key="59" len="12" pos="9864"/>
          <note pan="0" vol="100" key="59" len="12" pos="9876"/>
          <note pan="0" vol="100" key="59" len="12" pos="9900"/>
          <note pan="0" vol="100" key="59" len="12" pos="9912"/>
          <note pan="0" vol="100" key="59" len="12" pos="9936"/>
          <note pan="0" vol="100" key="59" len="12" pos="9948"/>
          <note pan="0" vol="100" key="59" len="12" pos="9960"/>
          <note pan="0" vol="100" key="59" len="12" pos="9972"/>
          <note pan="0" vol="100" key="59" len="12" pos="9984"/>
          <note pan="0" vol="100" key="59" len="12" pos="9996"/>
          <note pan="0" vol="100" key="59" len="12" pos="10008"/>
          <note pan="0" vol="100" key="59" len="12" pos="10020"/>
          <note pan="0" vol="100" key="59" len="12" pos="10032"/>
          <note pan="0" vol="100" key="59" len="12" pos="10056"/>
          <note pan="0" vol="100" key="59" len="12" pos="10068"/>
          <note pan="0" vol="100" key="59" len="12" pos="10092"/>
          <note pan="0" vol="100" key="59" len="12" pos="10104"/>
          <note pan="0" vol="100" key="59" len="12" pos="10128"/>
          <note pan="0" vol="100" key="59" len="12" pos="10140"/>
          <note pan="0" vol="100" key="59" len="12" pos="10152"/>
          <note pan="0" vol="100" key="59" len="12" pos="10164"/>
          <note pan="0" vol="100" key="59" len="12" pos="10176"/>
          <note pan="0" vol="100" key="59" len="12" pos="10188"/>
          <note pan="0" vol="100" key="59" len="12" pos="10200"/>
          <note pan="0" vol="100" key="59" len="12" pos="10212"/>
          <note pan="0" vol="100" key="59" len="12" pos="10224"/>
          <note pan="0" vol="100" key="59" len="12" pos="10248"/>
          <note pan="0" vol="100" key="59" len="12" pos="10260"/>
          <note pan="0" vol="100" key="59" len="12" pos="10284"/>
          <note pan="0" vol="100" key="59" len="12" pos="10296"/>
          <note pan="0" vol="100" key="59" len="12" pos="10320"/>
          <note pan="0" vol="100" key="59" len="12" pos="10332"/>
          <note pan="0" vol="100" key="59" len="12" pos="10344"/>
          <note pan="0" vol="100" key="59" len="12" pos="10356"/>
          <note pan="0" vol="100" key="59" len="12" pos="10368"/>
          <note pan="0" vol="100" key="59" len="12" pos="10380"/>
          <note pan="0" vol="100" key="59" len="12" pos="10392"/>
          <note pan="0" vol="100" key="59" len="12" pos="10404"/>
          <note pan="0" vol="100" key="59" len="12" pos="10416"/>
          <note pan="0" vol="100" key="59" len="12" pos="10440"/>
          <note pan="0" vol="100" key="59" len="12" pos="10452"/>
          <note pan="0" vol="100" key="59" len="12" pos="10476"/>
          <note pan="0" vol="100" key="59" len="12" pos="10488"/>
          <note pan="0" vol="100" key="59" len="12" pos="10512"/>
          <note pan="0" vol="100" key="59" len="12" pos="10524"/>
          <note pan="0" vol="100" key="59" len="12" pos="10536"/>
          <note pan="0" vol="100" key="59" len="12" pos="10548"/>
          <note pan="0" vol="100" key="59" len="12" pos="10560"/>
          <note pan="0" vol="100" key="59" len="12" pos="10572"/>
          <note pan="0" vol="100" key="59" len="12" pos="10584"/>
          <note pan="0" vol="100" key="59" len="12" pos="10596"/>
          <note pan="0" vol="100" key="59" len="12" pos="10608"/>
          <note pan="0" vol="100" key="59" len="12" pos="10632"/>
          <note pan="0" vol="100" key="59" len="12" pos="10644"/>
          <note pan="0" vol="100" key="59" len="12" pos="10668"/>
          <note pan="0" vol="100" key="59" len="12" pos="10680"/>
          <note pan="0" vol="100" key="59" len="12" pos="10704"/>
          <note pan="0" vol="100" key="59" len="12" pos="10716"/>
          <note pan="0" vol="100" key="59" len="12" pos="10728"/>
          <note pan="0" vol="100" key="59" len="12" pos="10740"/>
          <note pan="0" vol="100" key="59" len="12" pos="10752"/>
          <note pan="0" vol="100" key="59" len="12" pos="10764"/>
          <note pan="0" vol="100" key="59" len="12" pos="10776"/>
          <note pan="0" vol="100" key="59" len="12" pos="10788"/>
          <note pan="0" vol="100" key="59" len="12" pos="10800"/>
          <note pan="0" vol="100" key="59" len="12" pos="10824"/>
          <note pan="0" vol="100" key="59" len="12" pos="10836"/>
          <note pan="0" vol="100" key="59" len="12" pos="10860"/>
          <note pan="0" vol="100" key="59" len="12" pos="10872"/>
          <note pan="0" vol="100" key="59" len="12" pos="10896"/>
          <note pan="0" vol="100" key="59" len="12" pos="10908"/>
          <note pan="0" vol="100" key="59" len="12" pos="10920"/>
          <note pan="0" vol="100" key="59" len="12" pos="10932"/>
          <note pan="0" vol="100" key="59" len="12" pos="10944"/>
          <note pan="0" vol="100" key="59" len="12" pos="10956"/>
          <note pan="0" vol="100" key="59" len="12" pos="10968"/>
          <note pan="0" vol="100" key="59" len="12" pos="10980"/>
          <note pan="0" vol="100" key="59" len="12" pos="10992"/>
          <note pan="0" vol="100" key="59" len="12" pos="11016"/>
          <note pan="0" vol="100" key="59" len="12" pos="11028"/>
          <note pan="0" vol="100" key="59" len="12" pos="11052"/>
          <note pan="0" vol="100" key="59" len="12" pos="11064"/>
          <note pan="0" vol="100" key="59" len="12" pos="11088"/>
          <note pan="0" vol="100" key="59" len="12" pos="11100"/>
          <note pan="0" vol="100" key="59" len="12" pos="11112"/>
          <note pan="0" vol="100" key="59" len="12" pos="11124"/>
          <note pan="0" vol="100" key="59" len="12" pos="11136"/>
          <note pan="0" vol="100" key="59" len="12" pos="11148"/>
          <note pan="0" vol="100" key="59" len="12" pos="11160"/>
          <note pan="0" vol="100" key="59" len="12" pos="11172"/>
          <note pan="0" vol="100" key="59" len="12" pos="11184"/>
          <note pan="0" vol="100" key="59" len="12" pos="11208"/>
          <note pan="0" vol="100" key="59" len="12" pos="11220"/>
          <note pan="0" vol="100" key="59" len="12" pos="11244"/>
          <note pan="0" vol="100" key="59" len="12" pos="11256"/>
          <note pan="0" vol="100" key="59" len="12" pos="11280"/>
          <note pan="0" vol="100" key="59" len="12" pos="11292"/>
          <note pan="0" vol="100" key="59" len="12" pos="11304"/>
          <note pan="0" vol="100" key="59" len="12" pos="11316"/>
          <note pan="0" vol="100" key="59" len="12" pos="11328"/>
          <note pan="0" vol="100" key="59" len="12" pos="11340"/>
          <note pan="0" vol="100" key="59" len="12" pos="11352"/>
          <note pan="0" vol="100" key="59" len="12" pos="11364"/>
          <note pan="0" vol="100" key="59" len="12" pos="11376"/>
          <note pan="0" vol="100" key="59" len="12" pos="11400"/>
          <note pan="0" vol="100" key="59" len="12" pos="11412"/>
          <note pan="0" vol="100" key="59" len="12" pos="11436"/>
          <note pan="0" vol="100" key="59" len="12" pos="11448"/>
          <note pan="0" vol="100" key="59" len="12" pos="11472"/>
          <note pan="0" vol="100" key="59" len="12" pos="11484"/>
          <note pan="0" vol="100" key="59" len="12" pos="11496"/>
          <note pan="0" vol="100" key="59" len="12" pos="11508"/>
          <note pan="0" vol="100" key="59" len="12" pos="11520"/>
          <note pan="0" vol="100" key="59" len="12" pos="11532"/>
          <note pan="0" vol="100" key="59" len="12" pos="11544"/>
          <note pan="0" vol="100" key="59" len="12" pos="11556"/>
          <note pan="0" vol="100" key="59" len="12" pos="11568"/>
          <note pan="0" vol="100" key="59" len="12" pos="11592"/>
          <note pan="0" vol="100" key="59" len="12" pos="11604"/>
          <note pan="0" vol="100" key="59" len="12" pos="11628"/>
          <note pan="0" vol="100" key="59" len="12" pos="11640"/>
          <note pan="0" vol="100" key="59" len="12" pos="11664"/>
          <note pan="0" vol="100" key="59" len="12" pos="11676"/>
          <note pan="0" vol="100" key="59" len="12" pos="11688"/>
          <note pan="0" vol="100" key="59" len="12" pos="11700"/>
          <note pan="0" vol="100" key="59" len="12" pos="11712"/>
          <note pan="0" vol="100" key="59" len="12" pos="11724"/>
          <note pan="0" vol="100" key="59" len="12" pos="11736"/>
          <note pan="0" vol="100" key="59" len="12" pos="11748"/>
          <note pan="0" vol="100" key="59" len="12" pos="11760"/>
          <note pan="0" vol="100" key="59" len="12" pos="11784"/>
          <note pan="0" vol="100" key="59" len="12" pos="11796"/>
          <note pan="0" vol="100" key="59" len="12" pos="11820"/>
          <note pan="0" vol="100" key="59" len="12" pos="11832"/>
          <note pan="0" vol="100" key="59" len="12" pos="11856"/>
          <note pan="0" vol="100" key="59" len="12" pos="11868"/>
          <note pan="0" vol="100" key="59" len="12" pos="11880"/>
          <note pan="0" vol="100" key="59" len="12" pos="11892"/>
          <note pan="0" vol="100" key="59" len="12" pos="11904"/>
          <note pan="0" vol="100" key="59" len="12" pos="11916"/>
          <note pan="0" vol="100" key="59" len="12" pos="11928"/>
          <note pan="0" vol="100" key="59" len="12" pos="11940"/>
          <note pan="0" vol="100" key="59" len="12" pos="11952"/>
          <note pan="0" vol="100" key="59" len="12" pos="11976"/>
          <note pan="0" vol="100" key="59" len="12" pos="11988"/>
          <note pan="0" vol="100" key="59" len="12" pos="12012"/>
          <note pan="0" vol="100" key="59" len="12" pos="12024"/>
          <note pan="0" vol="100" key="59" len="12" pos="12048"/>
          <note pan="0" vol="100" key="59" len="12" pos="12060"/>
          <note pan="0" vol="100" key="59" len="12" pos="12072"/>
          <note pan="0" vol="100" key="59" len="12" pos="12084"/>
          <note pan="0" vol="100" key="59" len="12" pos="12096"/>
          <note pan="0" vol="100" key="59" len="12" pos="12108"/>
          <note pan="0" vol="100" key="59" len="12" pos="12120"/>
          <note pan="0" vol="100" key="59" len="12" pos="12132"/>
          <note pan="0" vol="100" key="59" len="12" pos="12144"/>
          <note pan="0" vol="100" key="59" len="12" pos="12168"/>
          <note pan="0" vol="100" key="59" len="12" pos="12180"/>
          <note pan="0" vol="100" key="59" len="12" pos="12204"/>
          <note pan="0" vol="100" key="59" len="12" pos="12216"/>
          <note pan="0" vol="100" key="59" len="12" pos="12240"/>
          <note pan="0" vol="100" key="59" len="12" pos="12252"/>
          <note pan="0" vol="100" key="59" len="12" pos="12264"/>
          <note pan="0" vol="100" key="59" len="12" pos="12276"/>
          <note pan="0" vol="100" key="59" len="12" pos="12288"/>
          <note pan="0" vol="100" key="59" len="12" pos="12456"/>
          <note pan="0" vol="100" key="59" len="12" pos="12480"/>
          <note pan="0" vol="100" key="59" len="12" pos="12648"/>
          <note pan="0" vol="100" key="59" len="12" pos="12660"/>
          <note pan="0" vol="100" key="59" len="12" pos="12672"/>
        </pattern>
      </track>
      <track solo="0" type="0" name="Rhythm 4" muted="0">
        <instrumenttrack pitch="0" pan="25" vol="32.8" pitchrange="1" fxch="0" usemasterpitch="1" basenote="57">
          <instrument name="vestige">
            <vestige program="0" plugin="C:/Program Files/VstPlugins/helm64.dll" guivisible="0" chunk="ew0KICAibGljZW5zZSI6ICJQYXRjaCAoYykgYnkgLiAgVGhpcyBwYXRjaCBpcyBsaWNlbnNlZCB1bmRlciBhIENyZWF0aXZlIENvbW1vbnMgQXR0cmlidXRpb24gNC4wIEludGVybmF0aW9uYWwgTGljZW5zZS4gIFlvdSBzaG91bGQgaGF2ZSByZWNlaXZlZCBhIGNvcHkgb2YgdGhlIGxpY2Vuc2UgYWxvbmcgd2l0aCB0aGlzIHdvcmsuICBJZiBub3QsIHNlZSA8aHR0cDovL2NyZWF0aXZlY29tbW9ucy5vcmcvbGljZW5zZXMvYnkvNC4wLz4uIiwNCiAgInN5bnRoX3ZlcnNpb24iOiAiMC45LjAiLA0KICAicGF0Y2hfbmFtZSI6ICIiLA0KICAiZm9sZGVyX25hbWUiOiAiIiwNCiAgImF1dGhvciI6ICIiLA0KICAic2V0dGluZ3MiOiB7DQogICAgImFtcF9hdHRhY2siOiAwLjA1ODgyMzUyOTQxMTc2NDcwNTA2NiwNCiAgICAiYW1wX2RlY2F5IjogMC44MjM1Mjk0MTE3NjQ3MDU5NTQxOSwNCiAgICAiYW1wX3JlbGVhc2UiOiAwLjUyOTQxMTc2NDcwNTg4MjM1OTQ3LA0KICAgICJhbXBfc3VzdGFpbiI6IDAsDQogICAgImFycF9mcmVxdWVuY3kiOiAyLA0KICAgICJhcnBfZ2F0ZSI6IDAuNSwNCiAgICAiYXJwX29jdGF2ZXMiOiAxLA0KICAgICJhcnBfb24iOiAwLA0KICAgICJhcnBfcGF0dGVybiI6IDAsDQogICAgImFycF9zeW5jIjogMSwNCiAgICAiYXJwX3RlbXBvIjogOSwNCiAgICAiYmVhdHNfcGVyX21pbnV0ZSI6IDEuNzUsDQogICAgImNyb3NzX21vZHVsYXRpb24iOiAwLA0KICAgICJjdXRvZmYiOiA5My4zMDY3MjI2ODkwNzU2MjczODYsDQogICAgImRlbGF5X2RyeV93ZXQiOiAwLjUsDQogICAgImRlbGF5X2ZlZWRiYWNrIjogMC40MDAwMDAwMDAwMDAwMDAwMjIyLA0KICAgICJkZWxheV9mcmVxdWVuY3kiOiAyLA0KICAgICJkZWxheV9vbiI6IDAsDQogICAgImRlbGF5X3N5bmMiOiAxLA0KICAgICJkZWxheV90ZW1wbyI6IDksDQogICAgImRpc3RvcnRpb25fZHJpdmUiOiAwLA0KICAgICJkaXN0b3J0aW9uX21peCI6IDEsDQogICAgImRpc3RvcnRpb25fb24iOiAwLA0KICAgICJkaXN0b3J0aW9uX3R5cGUiOiAwLA0KICAgICJmaWxfYXR0YWNrIjogMCwNCiAgICAiZmlsX2RlY2F5IjogMC43NjQ3MDU4ODIzNTI5NDExMjQyMiwNCiAgICAiZmlsX2Vudl9kZXB0aCI6IDAsDQogICAgImZpbF9yZWxlYXNlIjogMC4zNTI5NDExNzY0NzA1ODgyNTgxNSwNCiAgICAiZmlsX3N1c3RhaW4iOiAwLA0KICAgICJmaWx0ZXJfYmxlbmQiOiAwLA0KICAgICJmaWx0ZXJfZHJpdmUiOiAtNy40MjQwMDAwMDAwMDAwMDAzNzY2LA0KICAgICJmaWx0ZXJfb24iOiAxLA0KICAgICJmaWx0ZXJfc2hlbGYiOiAwLA0KICAgICJmaWx0ZXJfc3R5bGUiOiAwLA0KICAgICJmb3JtYW50X29uIjogMCwNCiAgICAiZm9ybWFudF94IjogMC41LA0KICAgICJmb3JtYW50X3kiOiAwLjUsDQogICAgImtleXRyYWNrIjogMCwNCiAgICAibGVnYXRvIjogMCwNCiAgICAibW9kX2F0dGFjayI6IDAsDQogICAgIm1vZF9kZWNheSI6IDAuNDExNzY0NzA1ODgyMzUyOTc3MSwNCiAgICAibW9kX3JlbGVhc2UiOiAwLjIzNTI5NDExNzY0NzA1ODc5MjUxLA0KICAgICJtb2Rfc3VzdGFpbiI6IDAsDQogICAgIm1vbm9fbGZvXzFfYW1wbGl0dWRlIjogMSwNCiAgICAibW9ub19sZm9fMV9mcmVxdWVuY3kiOiAxLA0KICAgICJtb25vX2xmb18xX3JldHJpZ2dlciI6IDIsDQogICAgIm1vbm9fbGZvXzFfc3luYyI6IDEsDQogICAgIm1vbm9fbGZvXzFfdGVtcG8iOiA2LA0KICAgICJtb25vX2xmb18xX3dhdmVmb3JtIjogMCwNCiAgICAibW9ub19sZm9fMl9hbXBsaXR1ZGUiOiAxLA0KICAgICJtb25vX2xmb18yX2ZyZXF1ZW5jeSI6IDEsDQogICAgIm1vbm9fbGZvXzJfcmV0cmlnZ2VyIjogMiwNCiAgICAibW9ub19sZm9fMl9zeW5jIjogMSwNCiAgICAibW9ub19sZm9fMl90ZW1wbyI6IDcsDQogICAgIm1vbm9fbGZvXzJfd2F2ZWZvcm0iOiAwLA0KICAgICJub2lzZV92b2x1bWUiOiAwLjUxNjEyOTAzMjI1ODA2NDUwMTgsDQogICAgIm51bV9zdGVwcyI6IDgsDQogICAgIm9zY18xX3RyYW5zcG9zZSI6IDAsDQogICAgIm9zY18xX3R1bmUiOiAwLA0KICAgICJvc2NfMV91bmlzb25fZGV0dW5lIjogMTAsDQogICAgIm9zY18xX3VuaXNvbl92b2ljZXMiOiAxLA0KICAgICJvc2NfMV92b2x1bWUiOiAwLjMwNjQ1MTYxMjkwMzIyNTc1NjMxLA0KICAgICJvc2NfMV93YXZlZm9ybSI6IDAsDQogICAgIm9zY18yX3RyYW5zcG9zZSI6IDAsDQogICAgIm9zY18yX3R1bmUiOiAwLA0KICAgICJvc2NfMl91bmlzb25fZGV0dW5lIjogMTAsDQogICAgIm9zY18yX3VuaXNvbl92b2ljZXMiOiAxLA0KICAgICJvc2NfMl92b2x1bWUiOiAwLjY0NTE2MTI5MDMyMjU4MDYyNzI1LA0KICAgICJvc2NfMl93YXZlZm9ybSI6IDAsDQogICAgIm9zY19mZWVkYmFja19hbW91bnQiOiAwLA0KICAgICJvc2NfZmVlZGJhY2tfdHJhbnNwb3NlIjogMCwNCiAgICAib3NjX2ZlZWRiYWNrX3R1bmUiOiAwLA0KICAgICJwaXRjaF9iZW5kX3JhbmdlIjogMiwNCiAgICAicG9seV9sZm9fYW1wbGl0dWRlIjogMSwNCiAgICAicG9seV9sZm9fZnJlcXVlbmN5IjogMSwNCiAgICAicG9seV9sZm9fc3luYyI6IDEsDQogICAgInBvbHlfbGZvX3RlbXBvIjogNywNCiAgICAicG9seV9sZm9fd2F2ZWZvcm0iOiAwLA0KICAgICJwb2x5cGhvbnkiOiA0LA0KICAgICJwb3J0YW1lbnRvIjogLTcsDQogICAgInBvcnRhbWVudG9fdHlwZSI6IDAsDQogICAgInJlc29uYW5jZSI6IDAuMDc5OTk5OTk5OTk5OTk5OTczOTEsDQogICAgInJldmVyYl9kYW1waW5nIjogMC45MTYwMDAwMDAwMDAwMDAwMzY0MiwNCiAgICAicmV2ZXJiX2RyeV93ZXQiOiAwLjE4ODAwMDAwMDAwMDAwMDAwMDQ0LA0KICAgICJyZXZlcmJfZmVlZGJhY2siOiAwLjkwMDAwMDAwMDAwMDAwMDAyMjIsDQogICAgInJldmVyYl9vbiI6IDEsDQogICAgInN0ZXBfZnJlcXVlbmN5IjogMiwNCiAgICAic3RlcF9zZXFfMDAiOiAwLA0KICAgICJzdGVwX3NlcV8wMSI6IDAsDQogICAgInN0ZXBfc2VxXzAyIjogMCwNCiAgICAic3RlcF9zZXFfMDMiOiAwLA0KICAgICJzdGVwX3NlcV8wNCI6IDAsDQogICAgInN0ZXBfc2VxXzA1IjogMCwNCiAgICAic3RlcF9zZXFfMDYiOiAwLA0KICAgICJzdGVwX3NlcV8wNyI6IDAsDQogICAgInN0ZXBfc2VxXzA4IjogMCwNCiAgICAic3RlcF9zZXFfMDkiOiAwLA0KICAgICJzdGVwX3NlcV8xMCI6IDAsDQogICAgInN0ZXBfc2VxXzExIjogMCwNCiAgICAic3RlcF9zZXFfMTIiOiAwLA0KICAgICJzdGVwX3NlcV8xMyI6IDAsDQogICAgInN0ZXBfc2VxXzE0IjogMCwNCiAgICAic3RlcF9zZXFfMTUiOiAwLA0KICAgICJzdGVwX3NlcV8xNiI6IDAsDQogICAgInN0ZXBfc2VxXzE3IjogMCwNCiAgICAic3RlcF9zZXFfMTgiOiAwLA0KICAgICJzdGVwX3NlcV8xOSI6IDAsDQogICAgInN0ZXBfc2VxXzIwIjogMCwNCiAgICAic3RlcF9zZXFfMjEiOiAwLA0KICAgICJzdGVwX3NlcV8yMiI6IDAsDQogICAgInN0ZXBfc2VxXzIzIjogMCwNCiAgICAic3RlcF9zZXFfMjQiOiAwLA0KICAgICJzdGVwX3NlcV8yNSI6IDAsDQogICAgInN0ZXBfc2VxXzI2IjogMCwNCiAgICAic3RlcF9zZXFfMjciOiAwLA0KICAgICJzdGVwX3NlcV8yOCI6IDAsDQogICAgInN0ZXBfc2VxXzI5IjogMCwNCiAgICAic3RlcF9zZXFfMzAiOiAwLA0KICAgICJzdGVwX3NlcV8zMSI6IDAsDQogICAgInN0ZXBfc2VxdWVuY2VyX3JldHJpZ2dlciI6IDIsDQogICAgInN0ZXBfc2VxdWVuY2VyX3N5bmMiOiAxLA0KICAgICJzdGVwX3NlcXVlbmNlcl90ZW1wbyI6IDcsDQogICAgInN0ZXBfc21vb3RoaW5nIjogMCwNCiAgICAic3R1dHRlcl9mcmVxdWVuY3kiOiAzLA0KICAgICJzdHV0dGVyX29uIjogMCwNCiAgICAic3R1dHRlcl9yZXNhbXBsZV9mcmVxdWVuY3kiOiAxLA0KICAgICJzdHV0dGVyX3Jlc2FtcGxlX3N5bmMiOiAxLA0KICAgICJzdHV0dGVyX3Jlc2FtcGxlX3RlbXBvIjogNiwNCiAgICAic3R1dHRlcl9zb2Z0bmVzcyI6IDAuMjAwMDAwMDAwMDAwMDAwMDExMSwNCiAgICAic3R1dHRlcl9zeW5jIjogMSwNCiAgICAic3R1dHRlcl90ZW1wbyI6IDgsDQogICAgInN1Yl9vY3RhdmUiOiAwLA0KICAgICJzdWJfc2h1ZmZsZSI6IDAsDQogICAgInN1Yl92b2x1bWUiOiAwLA0KICAgICJzdWJfd2F2ZWZvcm0iOiAyLA0KICAgICJ1bmlzb25fMV9oYXJtb25pemUiOiAwLA0KICAgICJ1bmlzb25fMl9oYXJtb25pemUiOiAwLA0KICAgICJ2ZWxvY2l0eV90cmFjayI6IDAsDQogICAgInZvbHVtZSI6IDAsDQogICAgIm1vZHVsYXRpb25zIjogWw0KICAgICAgew0KICAgICAgICAic291cmNlIjogInZlbG9jaXR5IiwNCiAgICAgICAgImRlc3RpbmF0aW9uIjogInZvbHVtZSIsDQogICAgICAgICJhbW91bnQiOiAwLjk5OTk2MzAyOTU2NTE4NDY4MDA4DQogICAgICB9LA0KICAgICAgew0KICAgICAgICAic291cmNlIjogIm1vZF9lbnZlbG9wZSIsDQogICAgICAgICJkZXN0aW5hdGlvbiI6ICJjcm9zc19tb2R1bGF0aW9uIiwNCiAgICAgICAgImFtb3VudCI6IDAuMjY0MDAwMDAwMDAwMDAwMDEyNDMNCiAgICAgIH0sDQogICAgICB7DQogICAgICAgICJzb3VyY2UiOiAibW9kX2VudmVsb3BlIiwNCiAgICAgICAgImRlc3RpbmF0aW9uIjogInJldmVyYl9kcnlfd2V0IiwNCiAgICAgICAgImFtb3VudCI6IDAuNjA4MDAwMDAwMDAwMDAwMDk1OTINCiAgICAgIH0sDQogICAgICB7DQogICAgICAgICJzb3VyY2UiOiAiZmlsX2VudmVsb3BlIiwNCiAgICAgICAgImRlc3RpbmF0aW9uIjogImN1dG9mZiIsDQogICAgICAgICJhbW91bnQiOiAxOS4yOTc5ODM2NDE2ODk5NjcyNzENCiAgICAgIH0NCiAgICBdDQogIH0NCn0A"/>
          </instrument>
          <eldata ftype="0" fcut="14000" fwet="0" fres="0.5">
            <elvol sustain="0.5" lpdel="0" userwavefile="" lshp="0" lspd_denominator="4" ctlenvamt="0" lspd_numerator="4" rel="0.1" lspd_syncmode="0" amt="0" dec="0.5" x100="0" lspd="0.1" latt="0" att="0" lamt="0" hold="0.5" pdel="0"/>
            <elcut sustain="0.5" lpdel="0" userwavefile="" lshp="0" lspd_denominator="4" ctlenvamt="0" lspd_numerator="4" rel="0.1" lspd_syncmode="0" amt="0" dec="0.5" x100="0" lspd="0.1" latt="0" att="0" lamt="0" hold="0.5" pdel="0"/>
            <elres sustain="0.5" lpdel="0" userwavefile="" lshp="0" lspd_denominator="4" ctlenvamt="0" lspd_numerator="4" rel="0.1" lspd_syncmode="0" amt="0" dec="0.5" x100="0" lspd="0.1" latt="0" att="0" lamt="0" hold="0.5" pdel="0"/>
          </eldata>
          <chordcreator chord-enabled="1" chord="0" chordrange="3"/>
          <arpeggiator arprange="1" arpskip="0" arptime_numerator="4" arpgate="100" arpmiss="0" arpdir="0" arpmode="0" arp="0" arptime_syncmode="0" arptime="200" arpcycle="0" arptime_denominator="4" arp-enabled="0"/>
          <midiport writable="0" inputcontroller="0" readable="0" inputchannel="0" fixedoutputnote="-1" outputprogram="1" fixedinputvelocity="-1" basevelocity="63" fixedoutputvelocity="-1" outputcontroller="0" outputchannel="1"/>
          <fxchain numofeffects="0" enabled="0"/>
        </instrumenttrack>
        <pattern steps="16" type="1" name="Rhythm 4" pos="0" muted="0">
          <note pan="0" vol="100" key="47" len="12" pos="0"/>
          <note pan="0" vol="100" key="47" len="12" pos="12"/>
          <note pan="0" vol="100" key="47" len="12" pos="24"/>
          <note pan="0" vol="100" key="47" len="12" pos="36"/>
          <note pan="0" vol="100" key="47" len="12" pos="48"/>
          <note pan="0" vol="100" key="47" len="12" pos="72"/>
          <note pan="0" vol="100" key="47" len="12" pos="84"/>
          <note pan="0" vol="100" key="47" len="12" pos="108"/>
          <note pan="0" vol="100" key="47" len="12" pos="120"/>
          <note pan="0" vol="100" key="47" len="12" pos="144"/>
          <note pan="0" vol="100" key="47" len="12" pos="156"/>
          <note pan="0" vol="100" key="47" len="12" pos="168"/>
          <note pan="0" vol="100" key="47" len="12" pos="180"/>
          <note pan="0" vol="100" key="47" len="12" pos="192"/>
          <note pan="0" vol="100" key="47" len="12" pos="204"/>
          <note pan="0" vol="100" key="47" len="12" pos="216"/>
          <note pan="0" vol="100" key="47" len="12" pos="228"/>
          <note pan="0" vol="100" key="47" len="12" pos="240"/>
          <note pan="0" vol="100" key="47" len="12" pos="264"/>
          <note pan="0" vol="100" key="47" len="12" pos="276"/>
          <note pan="0" vol="100" key="47" len="12" pos="300"/>
          <note pan="0" vol="100" key="47" len="12" pos="312"/>
          <note pan="0" vol="100" key="47" len="12" pos="336"/>
          <note pan="0" vol="100" key="47" len="12" pos="348"/>
          <note pan="0" vol="100" key="47" len="12" pos="360"/>
          <note pan="0" vol="100" key="47" len="12" pos="372"/>
          <note pan="0" vol="100" key="47" len="12" pos="384"/>
          <note pan="0" vol="100" key="47" len="12" pos="396"/>
          <note pan="0" vol="100" key="47" len="12" pos="408"/>
          <note pan="0" vol="100" key="47" len="12" pos="420"/>
          <note pan="0" vol="100" key="47" len="12" pos="432"/>
          <note pan="0" vol="100" key="47" len="12" pos="456"/>
          <note pan="0" vol="100" key="47" len="12" pos="468"/>
          <note pan="0" vol="100" key="47" len="12" pos="492"/>
          <note pan="0" vol="100" key="47" len="12" pos="504"/>
          <note pan="0" vol="100" key="47" len="12" pos="528"/>
          <note pan="0" vol="100" key="47" len="12" pos="540"/>
          <note pan="0" vol="100" key="47" len="12" pos="552"/>
          <note pan="0" vol="100" key="47" len="12" pos="564"/>
          <note pan="0" vol="100" key="47" len="12" pos="576"/>
          <note pan="0" vol="100" key="47" len="12" pos="588"/>
          <note pan="0" vol="100" key="47" len="12" pos="600"/>
          <note pan="0" vol="100" key="47" len="12" pos="612"/>
          <note pan="0" vol="100" key="47" len="12" pos="624"/>
          <note pan="0" vol="100" key="47" len="12" pos="648"/>
          <note pan="0" vol="100" key="47" len="12" pos="660"/>
          <note pan="0" vol="100" key="47" len="12" pos="684"/>
          <note pan="0" vol="100" key="47" len="12" pos="696"/>
          <note pan="0" vol="100" key="47" len="12" pos="720"/>
          <note pan="0" vol="100" key="47" len="12" pos="732"/>
          <note pan="0" vol="100" key="47" len="12" pos="744"/>
          <note pan="0" vol="100" key="47" len="12" pos="756"/>
          <note pan="0" vol="100" key="47" len="12" pos="768"/>
          <note pan="0" vol="100" key="47" len="12" pos="780"/>
          <note pan="0" vol="100" key="47" len="12" pos="792"/>
          <note pan="0" vol="100" key="47" len="12" pos="804"/>
          <note pan="0" vol="100" key="47" len="12" pos="816"/>
          <note pan="0" vol="100" key="47" len="12" pos="840"/>
          <note pan="0" vol="100" key="47" len="12" pos="852"/>
          <note pan="0" vol="100" key="47" len="12" pos="876"/>
          <note pan="0" vol="100" key="47" len="12" pos="888"/>
          <note pan="0" vol="100" key="47" len="12" pos="912"/>
          <note pan="0" vol="100" key="47" len="12" pos="924"/>
          <note pan="0" vol="100" key="47" len="12" pos="936"/>
          <note pan="0" vol="100" key="47" len="12" pos="948"/>
          <note pan="0" vol="100" key="47" len="12" pos="960"/>
          <note pan="0" vol="100" key="47" len="12" pos="972"/>
          <note pan="0" vol="100" key="47" len="12" pos="984"/>
          <note pan="0" vol="100" key="47" len="12" pos="996"/>
          <note pan="0" vol="100" key="47" len="12" pos="1008"/>
          <note pan="0" vol="100" key="47" len="12" pos="1032"/>
          <note pan="0" vol="100" key="47" len="12" pos="1044"/>
          <note pan="0" vol="100" key="47" len="12" pos="1068"/>
          <note pan="0" vol="100" key="47" len="12" pos="1080"/>
          <note pan="0" vol="100" key="47" len="12" pos="1104"/>
          <note pan="0" vol="100" key="47" len="12" pos="1116"/>
          <note pan="0" vol="100" key="47" len="12" pos="1128"/>
          <note pan="0" vol="100" key="47" len="12" pos="1140"/>
          <note pan="0" vol="100" key="47" len="12" pos="1152"/>
          <note pan="0" vol="100" key="47" len="12" pos="1164"/>
          <note pan="0" vol="100" key="47" len="12" pos="1176"/>
          <note pan="0" vol="100" key="47" len="12" pos="1188"/>
          <note pan="0" vol="100" key="47" len="12" pos="1200"/>
          <note pan="0" vol="100" key="47" len="12" pos="1224"/>
          <note pan="0" vol="100" key="47" len="12" pos="1236"/>
          <note pan="0" vol="100" key="47" len="12" pos="1260"/>
          <note pan="0" vol="100" key="47" len="12" pos="1272"/>
          <note pan="0" vol="100" key="47" len="12" pos="1296"/>
          <note pan="0" vol="100" key="47" len="12" pos="1308"/>
          <note pan="0" vol="100" key="47" len="12" pos="1320"/>
          <note pan="0" vol="100" key="47" len="12" pos="1332"/>
          <note pan="0" vol="100" key="47" len="12" pos="1344"/>
          <note pan="0" vol="100" key="47" len="12" pos="1356"/>
          <note pan="0" vol="100" key="47" len="12" pos="1368"/>
          <note pan="0" vol="100" key="47" len="12" pos="1380"/>
          <note pan="0" vol="100" key="47" len="12" pos="1392"/>
          <note pan="0" vol="100" key="47" len="12" pos="1416"/>
          <note pan="0" vol="100" key="47" len="12" pos="1428"/>
          <note pan="0" vol="100" key="47" len="12" pos="1452"/>
          <note pan="0" vol="100" key="47" len="12" pos="1464"/>
          <note pan="0" vol="100" key="47" len="12" pos="1488"/>
          <note pan="0" vol="100" key="47" len="12" pos="1500"/>
          <note pan="0" vol="100" key="47" len="12" pos="1512"/>
          <note pan="0" vol="100" key="47" len="12" pos="1524"/>
          <note pan="0" vol="100" key="47" len="12" pos="1536"/>
          <note pan="0" vol="100" key="47" len="12" pos="1548"/>
          <note pan="0" vol="100" key="47" len="12" pos="1560"/>
          <note pan="0" vol="100" key="47" len="12" pos="1572"/>
          <note pan="0" vol="100" key="47" len="12" pos="1584"/>
          <note pan="0" vol="100" key="47" len="12" pos="1608"/>
          <note pan="0" vol="100" key="47" len="12" pos="1620"/>
          <note pan="0" vol="100" key="47" len="12" pos="1644"/>
          <note pan="0" vol="100" key="47" len="12" pos="1656"/>
          <note pan="0" vol="100" key="47" len="12" pos="1680"/>
          <note pan="0" vol="100" key="47" len="12" pos="1692"/>
          <note pan="0" vol="100" key="47" len="12" pos="1704"/>
          <note pan="0" vol="100" key="47" len="12" pos="1716"/>
          <note pan="0" vol="100" key="47" len="12" pos="1728"/>
          <note pan="0" vol="100" key="47" len="12" pos="1740"/>
          <note pan="0" vol="100" key="47" len="12" pos="1752"/>
          <note pan="0" vol="100" key="47" len="12" pos="1764"/>
          <note pan="0" vol="100" key="47" len="12" pos="1776"/>
          <note pan="0" vol="100" key="47" len="12" pos="1800"/>
          <note pan="0" vol="100" key="47" len="12" pos="1812"/>
          <note pan="0" vol="100" key="47" len="12" pos="1836"/>
          <note pan="0" vol="100" key="47" len="12" pos="1848"/>
          <note pan="0" vol="100" key="47" len="12" pos="1872"/>
          <note pan="0" vol="100" key="47" len="12" pos="1884"/>
          <note pan="0" vol="100" key="47" len="12" pos="1896"/>
          <note pan="0" vol="100" key="47" len="12" pos="1908"/>
          <note pan="0" vol="100" key="47" len="12" pos="1920"/>
          <note pan="0" vol="100" key="47" len="12" pos="1932"/>
          <note pan="0" vol="100" key="47" len="12" pos="1944"/>
          <note pan="0" vol="100" key="47" len="12" pos="1956"/>
          <note pan="0" vol="100" key="47" len="12" pos="1968"/>
          <note pan="0" vol="100" key="47" len="12" pos="1992"/>
          <note pan="0" vol="100" key="47" len="12" pos="2004"/>
          <note pan="0" vol="100" key="47" len="12" pos="2028"/>
          <note pan="0" vol="100" key="47" len="12" pos="2040"/>
          <note pan="0" vol="100" key="47" len="12" pos="2064"/>
          <note pan="0" vol="100" key="47" len="12" pos="2076"/>
          <note pan="0" vol="100" key="47" len="12" pos="2088"/>
          <note pan="0" vol="100" key="47" len="12" pos="2100"/>
          <note pan="0" vol="100" key="47" len="12" pos="2112"/>
          <note pan="0" vol="100" key="47" len="12" pos="2124"/>
          <note pan="0" vol="100" key="47" len="12" pos="2136"/>
          <note pan="0" vol="100" key="47" len="12" pos="2148"/>
          <note pan="0" vol="100" key="47" len="12" pos="2160"/>
          <note pan="0" vol="100" key="47" len="12" pos="2184"/>
          <note pan="0" vol="100" key="47" len="12" pos="2196"/>
          <note pan="0" vol="100" key="47" len="12" pos="2220"/>
          <note pan="0" vol="100" key="47" len="12" pos="2232"/>
          <note pan="0" vol="100" key="47" len="12" pos="2256"/>
          <note pan="0" vol="100" key="47" len="12" pos="2268"/>
          <note pan="0" vol="100" key="47" len="12" pos="2280"/>
          <note pan="0" vol="100" key="47" len="12" pos="2292"/>
          <note pan="0" vol="100" key="47" len="12" pos="2304"/>
          <note pan="0" vol="100" key="47" len="12" pos="2316"/>
          <note pan="0" vol="100" key="47" len="12" pos="2328"/>
          <note pan="0" vol="100" key="47" len="12" pos="2340"/>
          <note pan="0" vol="100" key="47" len="12" pos="2352"/>
          <note pan="0" vol="100" key="47" len="12" pos="2376"/>
          <note pan="0" vol="100" key="47" len="12" pos="2388"/>
          <note pan="0" vol="100" key="47" len="12" pos="2412"/>
          <note pan="0" vol="100" key="47" len="12" pos="2424"/>
          <note pan="0" vol="100" key="47" len="12" pos="2448"/>
          <note pan="0" vol="100" key="47" len="12" pos="2460"/>
          <note pan="0" vol="100" key="47" len="12" pos="2472"/>
          <note pan="0" vol="100" key="47" len="12" pos="2484"/>
          <note pan="0" vol="100" key="47" len="12" pos="2496"/>
          <note pan="0" vol="100" key="47" len="12" pos="2508"/>
          <note pan="0" vol="100" key="47" len="12" pos="2520"/>
          <note pan="0" vol="100" key="47" len="12" pos="2532"/>
          <note pan="0" vol="100" key="47" len="12" pos="2544"/>
          <note pan="0" vol="100" key="47" len="12" pos="2568"/>
          <note pan="0" vol="100" key="47" len="12" pos="2580"/>
          <note pan="0" vol="100" key="47" len="12" pos="2604"/>
          <note pan="0" vol="100" key="47" len="12" pos="2616"/>
          <note pan="0" vol="100" key="47" len="12" pos="2640"/>
          <note pan="0" vol="100" key="47" len="12" pos="2652"/>
          <note pan="0" vol="100" key="47" len="12" pos="2664"/>
          <note pan="0" vol="100" key="47" len="12" pos="2676"/>
          <note pan="0" vol="100" key="47" len="12" pos="2688"/>
          <note pan="0" vol="100" key="47" len="12" pos="2700"/>
          <note pan="0" vol="100" key="47" len="12" pos="2712"/>
          <note pan="0" vol="100" key="47" len="12" pos="2724"/>
          <note pan="0" vol="100" key="47" len="12" pos="2736"/>
          <note pan="0" vol="100" key="47" len="12" pos="2760"/>
          <note pan="0" vol="100" key="47" len="12" pos="2772"/>
          <note pan="0" vol="100" key="47" len="12" pos="2796"/>
          <note pan="0" vol="100" key="47" len="12" pos="2808"/>
          <note pan="0" vol="100" key="47" len="12" pos="2832"/>
          <note pan="0" vol="100" key="47" len="12" pos="2844"/>
          <note pan="0" vol="100" key="47" len="12" pos="2856"/>
          <note pan="0" vol="100" key="47" len="12" pos="2868"/>
          <note pan="0" vol="100" key="47" len="12" pos="2880"/>
          <note pan="0" vol="100" key="47" len="12" pos="2892"/>
          <note pan="0" vol="100" key="47" len="12" pos="2904"/>
          <note pan="0" vol="100" key="47" len="12" pos="2916"/>
          <note pan="0" vol="100" key="47" len="12" pos="2928"/>
          <note pan="0" vol="100" key="47" len="12" pos="2952"/>
          <note pan="0" vol="100" key="47" len="12" pos="2964"/>
          <note pan="0" vol="100" key="47" len="12" pos="2988"/>
          <note pan="0" vol="100" key="47" len="12" pos="3000"/>
          <note pan="0" vol="100" key="47" len="12" pos="3024"/>
          <note pan="0" vol="100" key="47" len="12" pos="3036"/>
          <note pan="0" vol="100" key="47" len="12" pos="3048"/>
          <note pan="0" vol="100" key="47" len="12" pos="3060"/>
          <note pan="0" vol="100" key="47" len="12" pos="3072"/>
          <note pan="0" vol="100" key="47" len="12" pos="3084"/>
          <note pan="0" vol="100" key="47" len="12" pos="3096"/>
          <note pan="0" vol="100" key="47" len="12" pos="3108"/>
          <note pan="0" vol="100" key="47" len="12" pos="3120"/>
          <note pan="0" vol="100" key="47" len="12" pos="3144"/>
          <note pan="0" vol="100" key="47" len="12" pos="3156"/>
          <note pan="0" vol="100" key="47" len="12" pos="3180"/>
          <note pan="0" vol="100" key="47" len="12" pos="3192"/>
          <note pan="0" vol="100" key="47" len="12" pos="3216"/>
          <note pan="0" vol="100" key="47" len="12" pos="3228"/>
          <note pan="0" vol="100" key="47" len="12" pos="3240"/>
          <note pan="0" vol="100" key="47" len="12" pos="3252"/>
          <note pan="0" vol="100" key="47" len="12" pos="3264"/>
          <note pan="0" vol="100" key="47" len="12" pos="3276"/>
          <note pan="0" vol="100" key="47" len="12" pos="3288"/>
          <note pan="0" vol="100" key="47" len="12" pos="3300"/>
          <note pan="0" vol="100" key="47" len="12" pos="3312"/>
          <note pan="0" vol="100" key="47" len="12" pos="3336"/>
          <note pan="0" vol="100" key="47" len="12" pos="3348"/>
          <note pan="0" vol="100" key="47" len="12" pos="3372"/>
          <note pan="0" vol="100" key="47" len="12" pos="3384"/>
          <note pan="0" vol="100" key="47" len="12" pos="3408"/>
          <note pan="0" vol="100" key="47" len="12" pos="3420"/>
          <note pan="0" vol="100" key="47" len="12" pos="3432"/>
          <note pan="0" vol="100" key="47" len="12" pos="3444"/>
          <note pan="0" vol="100" key="47" len="12" pos="3456"/>
          <note pan="0" vol="100" key="47" len="12" pos="3468"/>
          <note pan="0" vol="100" key="47" len="12" pos="3480"/>
          <note pan="0" vol="100" key="47" len="12" pos="3492"/>
          <note pan="0" vol="100" key="47" len="12" pos="3504"/>
          <note pan="0" vol="100" key="47" len="12" pos="3528"/>
          <note pan="0" vol="100" key="47" len="12" pos="3540"/>
          <note pan="0" vol="100" key="47" len="12" pos="3564"/>
          <note pan="0" vol="100" key="47" len="12" pos="3576"/>
          <note pan="0" vol="100" key="47" len="12" pos="3600"/>
          <note pan="0" vol="100" key="47" len="12" pos="3612"/>
          <note pan="0" vol="100" key="47" len="12" pos="3624"/>
          <note pan="0" vol="100" key="47" len="12" pos="3636"/>
          <note pan="0" vol="100" key="47" len="12" pos="3648"/>
          <note pan="0" vol="100" key="47" len="12" pos="3660"/>
          <note pan="0" vol="100" key="47" len="12" pos="3672"/>
          <note pan="0" vol="100" key="47" len="12" pos="3684"/>
          <note pan="0" vol="100" key="47" len="12" pos="3696"/>
          <note pan="0" vol="100" key="47" len="12" pos="3720"/>
          <note pan="0" vol="100" key="47" len="12" pos="3732"/>
          <note pan="0" vol="100" key="47" len="12" pos="3756"/>
          <note pan="0" vol="100" key="47" len="12" pos="3768"/>
          <note pan="0" vol="100" key="47" len="12" pos="3792"/>
          <note pan="0" vol="100" key="47" len="12" pos="3804"/>
          <note pan="0" vol="100" key="47" len="12" pos="3816"/>
          <note pan="0" vol="100" key="47" len="12" pos="3828"/>
          <note pan="0" vol="100" key="47" len="12" pos="3840"/>
          <note pan="0" vol="100" key="47" len="12" pos="3852"/>
          <note pan="0" vol="100" key="47" len="12" pos="3864"/>
          <note pan="0" vol="100" key="47" len="12" pos="3876"/>
          <note pan="0" vol="100" key="47" len="12" pos="3888"/>
          <note pan="0" vol="100" key="47" len="12" pos="3912"/>
          <note pan="0" vol="100" key="47" len="12" pos="3924"/>
          <note pan="0" vol="100" key="47" len="12" pos="3948"/>
          <note pan="0" vol="100" key="47" len="12" pos="3960"/>
          <note pan="0" vol="100" key="47" len="12" pos="3984"/>
          <note pan="0" vol="100" key="47" len="12" pos="3996"/>
          <note pan="0" vol="100" key="47" len="12" pos="4008"/>
          <note pan="0" vol="100" key="47" len="12" pos="4020"/>
          <note pan="0" vol="100" key="47" len="12" pos="4032"/>
          <note pan="0" vol="100" key="47" len="12" pos="4044"/>
          <note pan="0" vol="100" key="47" len="12" pos="4056"/>
          <note pan="0" vol="100" key="47" len="12" pos="4068"/>
          <note pan="0" vol="100" key="47" len="12" pos="4080"/>
          <note pan="0" vol="100" key="47" len="12" pos="4104"/>
          <note pan="0" vol="100" key="47" len="12" pos="4116"/>
          <note pan="0" vol="100" key="47" len="12" pos="4140"/>
          <note pan="0" vol="100" key="47" len="12" pos="4152"/>
          <note pan="0" vol="100" key="47" len="12" pos="4176"/>
          <note pan="0" vol="100" key="47" len="12" pos="4188"/>
          <note pan="0" vol="100" key="47" len="12" pos="4200"/>
          <note pan="0" vol="100" key="47" len="12" pos="4212"/>
          <note pan="0" vol="100" key="47" len="12" pos="4224"/>
          <note pan="0" vol="100" key="47" len="12" pos="4236"/>
          <note pan="0" vol="100" key="47" len="12" pos="4248"/>
          <note pan="0" vol="100" key="47" len="12" pos="4260"/>
          <note pan="0" vol="100" key="47" len="12" pos="4272"/>
          <note pan="0" vol="100" key="47" len="12" pos="4296"/>
          <note pan="0" vol="100" key="47" len="12" pos="4308"/>
          <note pan="0" vol="100" key="47" len="12" pos="4332"/>
          <note pan="0" vol="100" key="47" len="12" pos="4344"/>
          <note pan="0" vol="100" key="47" len="12" pos="4368"/>
          <note pan="0" vol="100" key="47" len="12" pos="4380"/>
          <note pan="0" vol="100" key="47" len="12" pos="4392"/>
          <note pan="0" vol="100" key="47" len="12" pos="4404"/>
          <note pan="0" vol="100" key="47" len="12" pos="4416"/>
          <note pan="0" vol="100" key="47" len="12" pos="4428"/>
          <note pan="0" vol="100" key="47" len="12" pos="4440"/>
          <note pan="0" vol="100" key="47" len="12" pos="4452"/>
          <note pan="0" vol="100" key="47" len="12" pos="4464"/>
          <note pan="0" vol="100" key="47" len="12" pos="4488"/>
          <note pan="0" vol="100" key="47" len="12" pos="4500"/>
          <note pan="0" vol="100" key="47" len="12" pos="4524"/>
          <note pan="0" vol="100" key="47" len="12" pos="4536"/>
          <note pan="0" vol="100" key="47" len="12" pos="4560"/>
          <note pan="0" vol="100" key="47" len="12" pos="4572"/>
          <note pan="0" vol="100" key="47" len="12" pos="4584"/>
          <note pan="0" vol="100" key="47" len="12" pos="4596"/>
          <note pan="0" vol="100" key="47" len="12" pos="4608"/>
          <note pan="0" vol="100" key="47" len="12" pos="4620"/>
          <note pan="0" vol="100" key="47" len="12" pos="4632"/>
          <note pan="0" vol="100" key="47" len="12" pos="4644"/>
          <note pan="0" vol="100" key="47" len="12" pos="4656"/>
          <note pan="0" vol="100" key="47" len="12" pos="4680"/>
          <note pan="0" vol="100" key="47" len="12" pos="4692"/>
          <note pan="0" vol="100" key="47" len="12" pos="4716"/>
          <note pan="0" vol="100" key="47" len="12" pos="4728"/>
          <note pan="0" vol="100" key="47" len="12" pos="4752"/>
          <note pan="0" vol="100" key="47" len="12" pos="4764"/>
          <note pan="0" vol="100" key="47" len="12" pos="4776"/>
          <note pan="0" vol="100" key="47" len="12" pos="4788"/>
          <note pan="0" vol="100" key="47" len="12" pos="4800"/>
          <note pan="0" vol="100" key="47" len="12" pos="4812"/>
          <note pan="0" vol="100" key="47" len="12" pos="4824"/>
          <note pan="0" vol="100" key="47" len="12" pos="4836"/>
          <note pan="0" vol="100" key="47" len="12" pos="4848"/>
          <note pan="0" vol="100" key="47" len="12" pos="4872"/>
          <note pan="0" vol="100" key="47" len="12" pos="4884"/>
          <note pan="0" vol="100" key="47" len="12" pos="4908"/>
          <note pan="0" vol="100" key="47" len="12" pos="4920"/>
          <note pan="0" vol="100" key="47" len="12" pos="4944"/>
          <note pan="0" vol="100" key="47" len="12" pos="4956"/>
          <note pan="0" vol="100" key="47" len="12" pos="4968"/>
          <note pan="0" vol="100" key="47" len="12" pos="4980"/>
          <note pan="0" vol="100" key="47" len="12" pos="4992"/>
          <note pan="0" vol="100" key="47" len="12" pos="5004"/>
          <note pan="0" vol="100" key="47" len="12" pos="5016"/>
          <note pan="0" vol="100" key="47" len="12" pos="5028"/>
          <note pan="0" vol="100" key="47" len="12" pos="5040"/>
          <note pan="0" vol="100" key="47" len="12" pos="5064"/>
          <note pan="0" vol="100" key="47" len="12" pos="5076"/>
          <note pan="0" vol="100" key="47" len="12" pos="5100"/>
          <note pan="0" vol="100" key="47" len="12" pos="5112"/>
          <note pan="0" vol="100" key="47" len="12" pos="5136"/>
          <note pan="0" vol="100" key="47" len="12" pos="5148"/>
          <note pan="0" vol="100" key="47" len="12" pos="5160"/>
          <note pan="0" vol="100" key="47" len="12" pos="5172"/>
          <note pan="0" vol="100" key="47" len="12" pos="5184"/>
          <note pan="0" vol="100" key="47" len="12" pos="5196"/>
          <note pan="0" vol="100" key="47" len="12" pos="5208"/>
          <note pan="0" vol="100" key="47" len="12" pos="5220"/>
          <note pan="0" vol="100" key="47" len="12" pos="5232"/>
          <note pan="0" vol="100" key="47" len="12" pos="5256"/>
          <note pan="0" vol="100" key="47" len="12" pos="5268"/>
          <note pan="0" vol="100" key="47" len="12" pos="5292"/>
          <note pan="0" vol="100" key="47" len="12" pos="5304"/>
          <note pan="0" vol="100" key="47" len="12" pos="5328"/>
          <note pan="0" vol="100" key="47" len="12" pos="5340"/>
          <note pan="0" vol="100" key="47" len="12" pos="5352"/>
          <note pan="0" vol="100" key="47" len="12" pos="5364"/>
          <note pan="0" vol="100" key="47" len="12" pos="5376"/>
          <note pan="0" vol="100" key="47" len="12" pos="5388"/>
          <note pan="0" vol="100" key="47" len="12" pos="5400"/>
          <note pan="0" vol="100" key="47" len="12" pos="5412"/>
          <note pan="0" vol="100" key="47" len="12" pos="5424"/>
          <note pan="0" vol="100" key="47" len="12" pos="5448"/>
          <note pan="0" vol="100" key="47" len="12" pos="5460"/>
          <note pan="0" vol="100" key="47" len="12" pos="5484"/>
          <note pan="0" vol="100" key="47" len="12" pos="5496"/>
          <note pan="0" vol="100" key="47" len="12" pos="5520"/>
          <note pan="0" vol="100" key="47" len="12" pos="5532"/>
          <note pan="0" vol="100" key="47" len="12" pos="5544"/>
          <note pan="0" vol="100" key="47" len="12" pos="5556"/>
          <note pan="0" vol="100" key="47" len="12" pos="5568"/>
          <note pan="0" vol="100" key="47" len="12" pos="5580"/>
          <note pan="0" vol="100" key="47" len="12" pos="5592"/>
          <note pan="0" vol="100" key="47" len="12" pos="5604"/>
          <note pan="0" vol="100" key="47" len="12" pos="5616"/>
          <note pan="0" vol="100" key="47" len="12" pos="5640"/>
          <note pan="0" vol="100" key="47" len="12" pos="5652"/>
          <note pan="0" vol="100" key="47" len="12" pos="5676"/>
          <note pan="0" vol="100" key="47" len="12" pos="5688"/>
          <note pan="0" vol="100" key="47" len="12" pos="5712"/>
          <note pan="0" vol="100" key="47" len="12" pos="5724"/>
          <note pan="0" vol="100" key="47" len="12" pos="5736"/>
          <note pan="0" vol="100" key="47" len="12" pos="5748"/>
          <note pan="0" vol="100" key="47" len="12" pos="5760"/>
          <note pan="0" vol="100" key="47" len="12" pos="5772"/>
          <note pan="0" vol="100" key="47" len="12" pos="5784"/>
          <note pan="0" vol="100" key="47" len="12" pos="5796"/>
          <note pan="0" vol="100" key="47" len="12" pos="5808"/>
          <note pan="0" vol="100" key="47" len="12" pos="5832"/>
          <note pan="0" vol="100" key="47" len="12" pos="5844"/>
          <note pan="0" vol="100" key="47" len="12" pos="5868"/>
          <note pan="0" vol="100" key="47" len="12" pos="5880"/>
          <note pan="0" vol="100" key="47" len="12" pos="5904"/>
          <note pan="0" vol="100" key="47" len="12" pos="5916"/>
          <note pan="0" vol="100" key="47" len="12" pos="5928"/>
          <note pan="0" vol="100" key="47" len="12" pos="5940"/>
          <note pan="0" vol="100" key="47" len="12" pos="5952"/>
          <note pan="0" vol="100" key="47" len="12" pos="5964"/>
          <note pan="0" vol="100" key="47" len="12" pos="5976"/>
          <note pan="0" vol="100" key="47" len="12" pos="5988"/>
          <note pan="0" vol="100" key="47" len="12" pos="6000"/>
          <note pan="0" vol="100" key="47" len="12" pos="6024"/>
          <note pan="0" vol="100" key="47" len="12" pos="6036"/>
          <note pan="0" vol="100" key="47" len="12" pos="6060"/>
          <note pan="0" vol="100" key="47" len="12" pos="6072"/>
          <note pan="0" vol="100" key="47" len="12" pos="6096"/>
          <note pan="0" vol="100" key="47" len="12" pos="6108"/>
          <note pan="0" vol="100" key="47" len="12" pos="6120"/>
          <note pan="0" vol="100" key="47" len="12" pos="6132"/>
          <note pan="0" vol="100" key="47" len="12" pos="6144"/>
          <note pan="0" vol="100" key="47" len="12" pos="6156"/>
          <note pan="0" vol="100" key="47" len="12" pos="6168"/>
          <note pan="0" vol="100" key="47" len="12" pos="6180"/>
          <note pan="0" vol="100" key="47" len="12" pos="6192"/>
          <note pan="0" vol="100" key="47" len="12" pos="6216"/>
          <note pan="0" vol="100" key="47" len="12" pos="6228"/>
          <note pan="0" vol="100" key="47" len="12" pos="6252"/>
          <note pan="0" vol="100" key="47" len="12" pos="6264"/>
          <note pan="0" vol="100" key="47" len="12" pos="6288"/>
          <note pan="0" vol="100" key="47" len="12" pos="6300"/>
          <note pan="0" vol="100" key="47" len="12" pos="6312"/>
          <note pan="0" vol="100" key="47" len="12" pos="6324"/>
          <note pan="0" vol="100" key="47" len="12" pos="6336"/>
          <note pan="0" vol="100" key="47" len="12" pos="6348"/>
          <note pan="0" vol="100" key="47" len="12" pos="6360"/>
          <note pan="0" vol="100" key="47" len="12" pos="6372"/>
          <note pan="0" vol="100" key="47" len="12" pos="6384"/>
          <note pan="0" vol="100" key="47" len="12" pos="6408"/>
          <note pan="0" vol="100" key="47" len="12" pos="6420"/>
          <note pan="0" vol="100" key="47" len="12" pos="6444"/>
          <note pan="0" vol="100" key="47" len="12" pos="6456"/>
          <note pan="0" vol="100" key="47" len="12" pos="6480"/>
          <note pan="0" vol="100" key="47" len="12" pos="6492"/>
          <note pan="0" vol="100" key="47" len="12" pos="6504"/>
          <note pan="0" vol="100" key="47" len="12" pos="6516"/>
          <note pan="0" vol="100" key="47" len="12" pos="6528"/>
          <note pan="0" vol="100" key="47" len="12" pos="6540"/>
          <note pan="0" vol="100" key="47" len="12" pos="6552"/>
          <note pan="0" vol="100" key="47" len="12" pos="6564"/>
          <note pan="0" vol="100" key="47" len="12" pos="6576"/>
          <note pan="0" vol="100" key="47" len="12" pos="6600"/>
          <note pan="0" vol="100" key="47" len="12" pos="6612"/>
          <note pan="0" vol="100" key="47" len="12" pos="6636"/>
          <note pan="0" vol="100" key="47" len="12" pos="6648"/>
          <note pan="0" vol="100" key="47" len="12" pos="6672"/>
          <note pan="0" vol="100" key="47" len="12" pos="6684"/>
          <note pan="0" vol="100" key="47" len="12" pos="6696"/>
          <note pan="0" vol="100" key="47" len="12" pos="6708"/>
          <note pan="0" vol="100" key="47" len="12" pos="6720"/>
          <note pan="0" vol="100" key="47" len="12" pos="6732"/>
          <note pan="0" vol="100" key="47" len="12" pos="6744"/>
          <note pan="0" vol="100" key="47" len="12" pos="6756"/>
          <note pan="0" vol="100" key="47" len="12" pos="6768"/>
          <note pan="0" vol="100" key="47" len="12" pos="6792"/>
          <note pan="0" vol="100" key="47" len="12" pos="6804"/>
          <note pan="0" vol="100" key="47" len="12" pos="6828"/>
          <note pan="0" vol="100" key="47" len="12" pos="6840"/>
          <note pan="0" vol="100" key="47" len="12" pos="6864"/>
          <note pan="0" vol="100" key="47" len="12" pos="6876"/>
          <note pan="0" vol="100" key="47" len="12" pos="6888"/>
          <note pan="0" vol="100" key="47" len="12" pos="6900"/>
          <note pan="0" vol="100" key="47" len="12" pos="6912"/>
          <note pan="0" vol="100" key="47" len="12" pos="6924"/>
          <note pan="0" vol="100" key="47" len="12" pos="6936"/>
          <note pan="0" vol="100" key="47" len="12" pos="6948"/>
          <note pan="0" vol="100" key="47" len="12" pos="6960"/>
          <note pan="0" vol="100" key="47" len="12" pos="6984"/>
          <note pan="0" vol="100" key="47" len="12" pos="6996"/>
          <note pan="0" vol="100" key="47" len="12" pos="7020"/>
          <note pan="0" vol="100" key="47" len="12" pos="7032"/>
          <note pan="0" vol="100" key="47" len="12" pos="7056"/>
          <note pan="0" vol="100" key="47" len="12" pos="7068"/>
          <note pan="0" vol="100" key="47" len="12" pos="7080"/>
          <note pan="0" vol="100" key="47" len="12" pos="7092"/>
          <note pan="0" vol="100" key="47" len="12" pos="7104"/>
          <note pan="0" vol="100" key="47" len="12" pos="7116"/>
          <note pan="0" vol="100" key="47" len="12" pos="7128"/>
          <note pan="0" vol="100" key="47" len="12" pos="7140"/>
          <note pan="0" vol="100" key="47" len="12" pos="7152"/>
          <note pan="0" vol="100" key="47" len="12" pos="7176"/>
          <note pan="0" vol="100" key="47" len="12" pos="7188"/>
          <note pan="0" vol="100" key="47" len="12" pos="7212"/>
          <note pan="0" vol="100" key="47" len="12" pos="7224"/>
          <note pan="0" vol="100" key="47" len="12" pos="7248"/>
          <note pan="0" vol="100" key="47" len="12" pos="7260"/>
          <note pan="0" vol="100" key="47" len="12" pos="7272"/>
          <note pan="0" vol="100" key="47" len="12" pos="7284"/>
          <note pan="0" vol="100" key="47" len="12" pos="7296"/>
          <note pan="0" vol="100" key="47" len="12" pos="7308"/>
          <note pan="0" vol="100" key="47" len="12" pos="7320"/>
          <note pan="0" vol="100" key="47" len="12" pos="7332"/>
          <note pan="0" vol="100" key="47" len="12" pos="7344"/>
          <note pan="0" vol="100" key="47" len="12" pos="7368"/>
          <note pan="0" vol="100" key="47" len="12" pos="7380"/>
          <note pan="0" vol="100" key="47" len="12" pos="7404"/>
          <note pan="0" vol="100" key="47" len="12" pos="7416"/>
          <note pan="0" vol="100" key="47" len="12" pos="7440"/>
          <note pan="0" vol="100" key="47" len="12" pos="7452"/>
          <note pan="0" vol="100" key="47" len="12" pos="7464"/>
          <note pan="0" vol="100" key="47" len="12" pos="7476"/>
          <note pan="0" vol="100" key="47" len="12" pos="7488"/>
          <note pan="0" vol="100" key="47" len="12" pos="7500"/>
          <note pan="0" vol="100" key="47" len="12" pos="7512"/>
          <note pan="0" vol="100" key="47" len="12" pos="7524"/>
          <note pan="0" vol="100" key="47" len="12" pos="7536"/>
          <note pan="0" vol="100" key="47" len="12" pos="7560"/>
          <note pan="0" vol="100" key="47" len="12" pos="7572"/>
          <note pan="0" vol="100" key="47" len="12" pos="7596"/>
          <note pan="0" vol="100" key="47" len="12" pos="7608"/>
          <note pan="0" vol="100" key="47" len="12" pos="7632"/>
          <note pan="0" vol="100" key="47" len="12" pos="7644"/>
          <note pan="0" vol="100" key="47" len="12" pos="7656"/>
          <note pan="0" vol="100" key="47" len="12" pos="7668"/>
          <note pan="0" vol="100" key="47" len="12" pos="7680"/>
          <note pan="0" vol="100" key="47" len="12" pos="7692"/>
          <note pan="0" vol="100" key="47" len="12" pos="7704"/>
          <note pan="0" vol="100" key="47" len="12" pos="7716"/>
          <note pan="0" vol="100" key="47" len="12" pos="7728"/>
          <note pan="0" vol="100" key="47" len="12" pos="7752"/>
          <note pan="0" vol="100" key="47" len="12" pos="7764"/>
          <note pan="0" vol="100" key="47" len="12" pos="7788"/>
          <note pan="0" vol="100" key="47" len="12" pos="7800"/>
          <note pan="0" vol="100" key="47" len="12" pos="7824"/>
          <note pan="0" vol="100" key="47" len="12" pos="7836"/>
          <note pan="0" vol="100" key="47" len="12" pos="7848"/>
          <note pan="0" vol="100" key="47" len="12" pos="7860"/>
          <note pan="0" vol="100" key="47" len="12" pos="7872"/>
          <note pan="0" vol="100" key="47" len="12" pos="7884"/>
          <note pan="0" vol="100" key="47" len="12" pos="7896"/>
          <note pan="0" vol="100" key="47" len="12" pos="7908"/>
          <note pan="0" vol="100" key="47" len="12" pos="7920"/>
          <note pan="0" vol="100" key="47" len="12" pos="7944"/>
          <note pan="0" vol="100" key="47" len="12" pos="7956"/>
          <note pan="0" vol="100" key="47" len="12" pos="7980"/>
          <note pan="0" vol="100" key="47" len="12" pos="7992"/>
          <note pan="0" vol="100" key="47" len="12" pos="8016"/>
          <note pan="0" vol="100" key="47" len="12" pos="8028"/>
          <note pan="0" vol="100" key="47" len="12" pos="8040"/>
          <note pan="0" vol="100" key="47" len="12" pos="8052"/>
          <note pan="0" vol="100" key="47" len="12" pos="8064"/>
          <note pan="0" vol="100" key="47" len="12" pos="8076"/>
          <note pan="0" vol="100" key="47" len="12" pos="8088"/>
          <note pan="0" vol="100" key="47" len="12" pos="8100"/>
          <note pan="0" vol="100" key="47" len="12" pos="8112"/>
          <note pan="0" vol="100" key="47" len="12" pos="8136"/>
          <note pan="0" vol="100" key="47" len="12" pos="8148"/>
          <note pan="0" vol="100" key="47" len="12" pos="8172"/>
          <note pan="0" vol="100" key="47" len="12" pos="8184"/>
          <note pan="0" vol="100" key="47" len="12" pos="8208"/>
          <note pan="0" vol="100" key="47" len="12" pos="8220"/>
          <note pan="0" vol="100" key="47" len="12" pos="8232"/>
          <note pan="0" vol="100" key="47" len="12" pos="8244"/>
          <note pan="0" vol="100" key="47" len="12" pos="8256"/>
          <note pan="0" vol="100" key="47" len="12" pos="8268"/>
          <note pan="0" vol="100" key="47" len="12" pos="8280"/>
          <note pan="0" vol="100" key="47" len="12" pos="8292"/>
          <note pan="0" vol="100" key="47" len="12" pos="8304"/>
          <note pan="0" vol="100" key="47" len="12" pos="8328"/>
          <note pan="0" vol="100" key="47" len="12" pos="8340"/>
          <note pan="0" vol="100" key="47" len="12" pos="8364"/>
          <note pan="0" vol="100" key="47" len="12" pos="8376"/>
          <note pan="0" vol="100" key="47" len="12" pos="8400"/>
          <note pan="0" vol="100" key="47" len="12" pos="8412"/>
          <note pan="0" vol="100" key="47" len="12" pos="8424"/>
          <note pan="0" vol="100" key="47" len="12" pos="8436"/>
          <note pan="0" vol="100" key="47" len="12" pos="8448"/>
          <note pan="0" vol="100" key="47" len="12" pos="8460"/>
          <note pan="0" vol="100" key="47" len="12" pos="8472"/>
          <note pan="0" vol="100" key="47" len="12" pos="8484"/>
          <note pan="0" vol="100" key="47" len="12" pos="8496"/>
          <note pan="0" vol="100" key="47" len="12" pos="8520"/>
          <note pan="0" vol="100" key="47" len="12" pos="8532"/>
          <note pan="0" vol="100" key="47" len="12" pos="8556"/>
          <note pan="0" vol="100" key="47" len="12" pos="8568"/>
          <note pan="0" vol="100" key="47" len="12" pos="8592"/>
          <note pan="0" vol="100" key="47" len="12" pos="8604"/>
          <note pan="0" vol="100" key="47" len="12" pos="8616"/>
          <note pan="0" vol="100" key="47" len="12" pos="8628"/>
          <note pan="0" vol="100" key="47" len="12" pos="8640"/>
          <note pan="0" vol="100" key="47" len="12" pos="8652"/>
          <note pan="0" vol="100" key="47" len="12" pos="8664"/>
          <note pan="0" vol="100" key="47" len="12" pos="8676"/>
          <note pan="0" vol="100" key="47" len="12" pos="8688"/>
          <note pan="0" vol="100" key="47" len="12" pos="8712"/>
          <note pan="0" vol="100" key="47" len="12" pos="8724"/>
          <note pan="0" vol="100" key="47" len="12" pos="8748"/>
          <note pan="0" vol="100" key="47" len="12" pos="8760"/>
          <note pan="0" vol="100" key="47" len="12" pos="8784"/>
          <note pan="0" vol="100" key="47" len="12" pos="8796"/>
          <note pan="0" vol="100" key="47" len="12" pos="8808"/>
          <note pan="0" vol="100" key="47" len="12" pos="8820"/>
          <note pan="0" vol="100" key="47" len="12" pos="8832"/>
          <note pan="0" vol="100" key="47" len="12" pos="8844"/>
          <note pan="0" vol="100" key="47" len="12" pos="8856"/>
          <note pan="0" vol="100" key="47" len="12" pos="8868"/>
          <note pan="0" vol="100" key="47" len="12" pos="8880"/>
          <note pan="0" vol="100" key="47" len="12" pos="8904"/>
          <note pan="0" vol="100" key="47" len="12" pos="8916"/>
          <note pan="0" vol="100" key="47" len="12" pos="8940"/>
          <note pan="0" vol="100" key="47" len="12" pos="8952"/>
          <note pan="0" vol="100" key="47" len="12" pos="8976"/>
          <note pan="0" vol="100" key="47" len="12" pos="8988"/>
          <note pan="0" vol="100" key="47" len="12" pos="9000"/>
          <note pan="0" vol="100" key="47" len="12" pos="9012"/>
          <note pan="0" vol="100" key="47" len="12" pos="9024"/>
          <note pan="0" vol="100" key="47" len="12" pos="9036"/>
          <note pan="0" vol="100" key="47" len="12" pos="9048"/>
          <note pan="0" vol="100" key="47" len="12" pos="9060"/>
          <note pan="0" vol="100" key="47" len="12" pos="9072"/>
          <note pan="0" vol="100" key="47" len="12" pos="9096"/>
          <note pan="0" vol="100" key="47" len="12" pos="9108"/>
          <note pan="0" vol="100" key="47" len="12" pos="9132"/>
          <note pan="0" vol="100" key="47" len="12" pos="9144"/>
          <note pan="0" vol="100" key="47" len="12" pos="9168"/>
          <note pan="0" vol="100" key="47" len="12" pos="9180"/>
          <note pan="0" vol="100" key="47" len="12" pos="9192"/>
          <note pan="0" vol="100" key="47" len="12" pos="9204"/>
          <note pan="0" vol="100" key="47" len="12" pos="9216"/>
          <note pan="0" vol="100" key="47" len="12" pos="9228"/>
          <note pan="0" vol="100" key="47" len="12" pos="9240"/>
          <note pan="0" vol="100" key="47" len="12" pos="9252"/>
          <note pan="0" vol="100" key="47" len="12" pos="9264"/>
          <note pan="0" vol="100" key="47" len="12" pos="9288"/>
          <note pan="0" vol="100" key="47" len="12" pos="9300"/>
          <note pan="0" vol="100" key="47" len="12" pos="9324"/>
          <note pan="0" vol="100" key="47" len="12" pos="9336"/>
          <note pan="0" vol="100" key="47" len="12" pos="9360"/>
          <note pan="0" vol="100" key="47" len="12" pos="9372"/>
          <note pan="0" vol="100" key="47" len="12" pos="9384"/>
          <note pan="0" vol="100" key="47" len="12" pos="9396"/>
          <note pan="0" vol="100" key="47" len="12" pos="9408"/>
          <note pan="0" vol="100" key="47" len="12" pos="9420"/>
          <note pan="0" vol="100" key="47" len="12" pos="9432"/>
          <note pan="0" vol="100" key="47" len="12" pos="9444"/>
          <note pan="0" vol="100" key="47" len="12" pos="9456"/>
          <note pan="0" vol="100" key="47" len="12" pos="9480"/>
          <note pan="0" vol="100" key="47" len="12" pos="9492"/>
          <note pan="0" vol="100" key="47" len="12" pos="9516"/>
          <note pan="0" vol="100" key="47" len="12" pos="9528"/>
          <note pan="0" vol="100" key="47" len="12" pos="9552"/>
          <note pan="0" vol="100" key="47" len="12" pos="9564"/>
          <note pan="0" vol="100" key="47" len="12" pos="9576"/>
          <note pan="0" vol="100" key="47" len="12" pos="9588"/>
          <note pan="0" vol="100" key="47" len="12" pos="9600"/>
          <note pan="0" vol="100" key="47" len="12" pos="9612"/>
          <note pan="0" vol="100" key="47" len="12" pos="9624"/>
          <note pan="0" vol="100" key="47" len="12" pos="9636"/>
          <note pan="0" vol="100" key="47" len="12" pos="9648"/>
          <note pan="0" vol="100" key="47" len="12" pos="9672"/>
          <note pan="0" vol="100" key="47" len="12" pos="9684"/>
          <note pan="0" vol="100" key="47" len="12" pos="9708"/>
          <note pan="0" vol="100" key="47" len="12" pos="9720"/>
          <note pan="0" vol="100" key="47" len="12" pos="9744"/>
          <note pan="0" vol="100" key="47" len="12" pos="9756"/>
          <note pan="0" vol="100" key="47" len="12" pos="9768"/>
          <note pan="0" vol="100" key="47" len="12" pos="9780"/>
          <note pan="0" vol="100" key="47" len="12" pos="9792"/>
          <note pan="0" vol="100" key="47" len="12" pos="9804"/>
          <note pan="0" vol="100" key="47" len="12" pos="9816"/>
          <note pan="0" vol="100" key="47" len="12" pos="9828"/>
          <note pan="0" vol="100" key="47" len="12" pos="9840"/>
          <note pan="0" vol="100" key="47" len="12" pos="9864"/>
          <note pan="0" vol="100" key="47" len="12" pos="9876"/>
          <note pan="0" vol="100" key="47" len="12" pos="9900"/>
          <note pan="0" vol="100" key="47" len="12" pos="9912"/>
          <note pan="0" vol="100" key="47" len="12" pos="9936"/>
          <note pan="0" vol="100" key="47" len="12" pos="9948"/>
          <note pan="0" vol="100" key="47" len="12" pos="9960"/>
          <note pan="0" vol="100" key="47" len="12" pos="9972"/>
          <note pan="0" vol="100" key="47" len="12" pos="9984"/>
          <note pan="0" vol="100" key="47" len="12" pos="9996"/>
          <note pan="0" vol="100" key="47" len="12" pos="10008"/>
          <note pan="0" vol="100" key="47" len="12" pos="10020"/>
          <note pan="0" vol="100" key="47" len="12" pos="10032"/>
          <note pan="0" vol="100" key="47" len="12" pos="10056"/>
          <note pan="0" vol="100" key="47" len="12" pos="10068"/>
          <note pan="0" vol="100" key="47" len="12" pos="10092"/>
          <note pan="0" vol="100" key="47" len="12" pos="10104"/>
          <note pan="0" vol="100" key="47" len="12" pos="10128"/>
          <note pan="0" vol="100" key="47" len="12" pos="10140"/>
          <note pan="0" vol="100" key="47" len="12" pos="10152"/>
          <note pan="0" vol="100" key="47" len="12" pos="10164"/>
          <note pan="0" vol="100" key="47" len="12" pos="10176"/>
          <note pan="0" vol="100" key="47" len="12" pos="10188"/>
          <note pan="0" vol="100" key="47" len="12" pos="10200"/>
          <note pan="0" vol="100" key="47" len="12" pos="10212"/>
          <note pan="0" vol="100" key="47" len="12" pos="10224"/>
          <note pan="0" vol="100" key="47" len="12" pos="10248"/>
          <note pan="0" vol="100" key="47" len="12" pos="10260"/>
          <note pan="0" vol="100" key="47" len="12" pos="10284"/>
          <note pan="0" vol="100" key="47" len="12" pos="10296"/>
          <note pan="0" vol="100" key="47" len="12" pos="10320"/>
          <note pan="0" vol="100" key="47" len="12" pos="10332"/>
          <note pan="0" vol="100" key="47" len="12" pos="10344"/>
          <note pan="0" vol="100" key="47" len="12" pos="10356"/>
          <note pan="0" vol="100" key="47" len="12" pos="10368"/>
          <note pan="0" vol="100" key="47" len="12" pos="10380"/>
          <note pan="0" vol="100" key="47" len="12" pos="10392"/>
          <note pan="0" vol="100" key="47" len="12" pos="10404"/>
          <note pan="0" vol="100" key="47" len="12" pos="10416"/>
          <note pan="0" vol="100" key="47" len="12" pos="10440"/>
          <note pan="0" vol="100" key="47" len="12" pos="10452"/>
          <note pan="0" vol="100" key="47" len="12" pos="10476"/>
          <note pan="0" vol="100" key="47" len="12" pos="10488"/>
          <note pan="0" vol="100" key="47" len="12" pos="10512"/>
          <note pan="0" vol="100" key="47" len="12" pos="10524"/>
          <note pan="0" vol="100" key="47" len="12" pos="10536"/>
          <note pan="0" vol="100" key="47" len="12" pos="10548"/>
          <note pan="0" vol="100" key="47" len="12" pos="10560"/>
          <note pan="0" vol="100" key="47" len="12" pos="10572"/>
          <note pan="0" vol="100" key="47" len="12" pos="10584"/>
          <note pan="0" vol="100" key="47" len="12" pos="10596"/>
          <note pan="0" vol="100" key="47" len="12" pos="10608"/>
          <note pan="0" vol="100" key="47" len="12" pos="10632"/>
          <note pan="0" vol="100" key="47" len="12" pos="10644"/>
          <note pan="0" vol="100" key="47" len="12" pos="10668"/>
          <note pan="0" vol="100" key="47" len="12" pos="10680"/>
          <note pan="0" vol="100" key="47" len="12" pos="10704"/>
          <note pan="0" vol="100" key="47" len="12" pos="10716"/>
          <note pan="0" vol="100" key="47" len="12" pos="10728"/>
          <note pan="0" vol="100" key="47" len="12" pos="10740"/>
          <note pan="0" vol="100" key="47" len="12" pos="10752"/>
          <note pan="0" vol="100" key="47" len="12" pos="10764"/>
          <note pan="0" vol="100" key="47" len="12" pos="10776"/>
          <note pan="0" vol="100" key="47" len="12" pos="10788"/>
          <note pan="0" vol="100" key="47" len="12" pos="10800"/>
          <note pan="0" vol="100" key="47" len="12" pos="10824"/>
          <note pan="0" vol="100" key="47" len="12" pos="10836"/>
          <note pan="0" vol="100" key="47" len="12" pos="10860"/>
          <note pan="0" vol="100" key="47" len="12" pos="10872"/>
          <note pan="0" vol="100" key="47" len="12" pos="10896"/>
          <note pan="0" vol="100" key="47" len="12" pos="10908"/>
          <note pan="0" vol="100" key="47" len="12" pos="10920"/>
          <note pan="0" vol="100" key="47" len="12" pos="10932"/>
          <note pan="0" vol="100" key="47" len="12" pos="10944"/>
          <note pan="0" vol="100" key="47" len="12" pos="10956"/>
          <note pan="0" vol="100" key="47" len="12" pos="10968"/>
          <note pan="0" vol="100" key="47" len="12" pos="10980"/>
          <note pan="0" vol="100" key="47" len="12" pos="10992"/>
          <note pan="0" vol="100" key="47" len="12" pos="11016"/>
          <note pan="0" vol="100" key="47" len="12" pos="11028"/>
          <note pan="0" vol="100" key="47" len="12" pos="11052"/>
          <note pan="0" vol="100" key="47" len="12" pos="11064"/>
          <note pan="0" vol="100" key="47" len="12" pos="11088"/>
          <note pan="0" vol="100" key="47" len="12" pos="11100"/>
          <note pan="0" vol="100" key="47" len="12" pos="11112"/>
          <note pan="0" vol="100" key="47" len="12" pos="11124"/>
          <note pan="0" vol="100" key="47" len="12" pos="11136"/>
          <note pan="0" vol="100" key="47" len="12" pos="11148"/>
          <note pan="0" vol="100" key="47" len="12" pos="11160"/>
          <note pan="0" vol="100" key="47" len="12" pos="11172"/>
          <note pan="0" vol="100" key="47" len="12" pos="11184"/>
          <note pan="0" vol="100" key="47" len="12" pos="11208"/>
          <note pan="0" vol="100" key="47" len="12" pos="11220"/>
          <note pan="0" vol="100" key="47" len="12" pos="11244"/>
          <note pan="0" vol="100" key="47" len="12" pos="11256"/>
          <note pan="0" vol="100" key="47" len="12" pos="11280"/>
          <note pan="0" vol="100" key="47" len="12" pos="11292"/>
          <note pan="0" vol="100" key="47" len="12" pos="11304"/>
          <note pan="0" vol="100" key="47" len="12" pos="11316"/>
          <note pan="0" vol="100" key="47" len="12" pos="11328"/>
          <note pan="0" vol="100" key="47" len="12" pos="11340"/>
          <note pan="0" vol="100" key="47" len="12" pos="11352"/>
          <note pan="0" vol="100" key="47" len="12" pos="11364"/>
          <note pan="0" vol="100" key="47" len="12" pos="11376"/>
          <note pan="0" vol="100" key="47" len="12" pos="11400"/>
          <note pan="0" vol="100" key="47" len="12" pos="11412"/>
          <note pan="0" vol="100" key="47" len="12" pos="11436"/>
          <note pan="0" vol="100" key="47" len="12" pos="11448"/>
          <note pan="0" vol="100" key="47" len="12" pos="11472"/>
          <note pan="0" vol="100" key="47" len="12" pos="11484"/>
          <note pan="0" vol="100" key="47" len="12" pos="11496"/>
          <note pan="0" vol="100" key="47" len="12" pos="11508"/>
          <note pan="0" vol="100" key="47" len="12" pos="11520"/>
          <note pan="0" vol="100" key="47" len="12" pos="11532"/>
          <note pan="0" vol="100" key="47" len="12" pos="11544"/>
          <note pan="0" vol="100" key="47" len="12" pos="11556"/>
          <note pan="0" vol="100" key="47" len="12" pos="11568"/>
          <note pan="0" vol="100" key="47" len="12" pos="11592"/>
          <note pan="0" vol="100" key="47" len="12" pos="11604"/>
          <note pan="0" vol="100" key="47" len="12" pos="11628"/>
          <note pan="0" vol="100" key="47" len="12" pos="11640"/>
          <note pan="0" vol="100" key="47" len="12" pos="11664"/>
          <note pan="0" vol="100" key="47" len="12" pos="11676"/>
          <note pan="0" vol="100" key="47" len="12" pos="11688"/>
          <note pan="0" vol="100" key="47" len="12" pos="11700"/>
          <note pan="0" vol="100" key="47" len="12" pos="11712"/>
          <note pan="0" vol="100" key="47" len="12" pos="11724"/>
          <note pan="0" vol="100" key="47" len="12" pos="11736"/>
          <note pan="0" vol="100" key="47" len="12" pos="11748"/>
          <note pan="0" vol="100" key="47" len="12" pos="11760"/>
          <note pan="0" vol="100" key="47" len="12" pos="11784"/>
          <note pan="0" vol="100" key="47" len="12" pos="11796"/>
          <note pan="0" vol="100" key="47" len="12" pos="11820"/>
          <note pan="0" vol="100" key="47" len="12" pos="11832"/>
          <note pan="0" vol="100" key="47" len="12" pos="11856"/>
          <note pan="0" vol="100" key="47" len="12" pos="11868"/>
          <note pan="0" vol="100" key="47" len="12" pos="11880"/>
          <note pan="0" vol="100" key="47" len="12" pos="11892"/>
          <note pan="0" vol="100" key="47" len="12" pos="11904"/>
          <note pan="0" vol="100" key="47" len="12" pos="11916"/>
          <note pan="0" vol="100" key="47" len="12" pos="11928"/>
          <note pan="0" vol="100" key="47" len="12" pos="11940"/>
          <note pan="0" vol="100" key="47" len="12" pos="11952"/>
          <note pan="0" vol="100" key="47" len="12" pos="11976"/>
          <note pan="0" vol="100" key="47" len="12" pos="11988"/>
          <note pan="0" vol="100" key="47" len="12" pos="12012"/>
          <note pan="0" vol="100" key="47" len="12" pos="12024"/>
          <note pan="0" vol="100" key="47" len="12" pos="12048"/>
          <note pan="0" vol="100" key="47" len="12" pos="12060"/>
          <note pan="0" vol="100" key="47" len="12" pos="12072"/>
          <note pan="0" vol="100" key="47" len="12" pos="12084"/>
          <note pan="0" vol="100" key="47" len="12" pos="12096"/>
          <note pan="0" vol="100" key="47" len="12" pos="12108"/>
          <note pan="0" vol="100" key="47" len="12" pos="12120"/>
          <note pan="0" vol="100" key="47" len="12" pos="12132"/>
          <note pan="0" vol="100" key="47" len="12" pos="12144"/>
          <note pan="0" vol="100" key="47" len="12" pos="12168"/>
          <note pan="0" vol="100" key="47" len="12" pos="12180"/>
          <note pan="0" vol="100" key="47" len="12" pos="12204"/>
          <note pan="0" vol="100" key="47" len="12" pos="12216"/>
          <note pan="0" vol="100" key="47" len="12" pos="12240"/>
          <note pan="0" vol="100" key="47" len="12" pos="12252"/>
          <note pan="0" vol="100" key="47" len="12" pos="12264"/>
          <note pan="0" vol="100" key="47" len="12" pos="12276"/>
          <note pan="0" vol="100" key="47" len="12" pos="12288"/>
          <note pan="0" vol="100" key="47" len="12" pos="12456"/>
          <note pan="0" vol="100" key="47" len="12" pos="12480"/>
          <note pan="0" vol="100" key="47" len="12" pos="12648"/>
          <note pan="0" vol="100" key="47" len="12" pos="12660"/>
          <note pan="0" vol="100" key="47" len="12" pos="12672"/>
        </pattern>
      </track>
      <track solo="0" type="5" name="Automation track" muted="0">
        <automationtrack/>
        <automationpattern tens="1" name="Glame Highpass Filter>>>Cutoff Frequency" mute="0" pos="1344" len="768" prog="1">
          <time value="4.41" pos="0"/>
          <time value="9964.94" pos="190"/>
          <time value="4.41" pos="192"/>
          <object id="11155"/>
          <object id="11155"/>
          <object id="11155"/>
        </automationpattern>
      </track>
      <track solo="0" type="5" name="Automation track" muted="0">
        <automationtrack/>
        <automationpattern tens="1" name="Amplifier>>Volume" mute="0" pos="1344" len="768" prog="1">
          <time value="100" pos="0"/>
          <time value="200" pos="191"/>
          <time value="98.6" pos="192"/>
          <object id="13233"/>
        </automationpattern>
      </track>
      <track solo="0" type="0" name="Hihat" muted="0">
        <instrumenttrack pitch="50" pan="0" vol="4.99993" pitchrange="1" fxch="0" usemasterpitch="1" basenote="57">
          <instrument name="vestige">
            <vestige program="2" plugin="C:/Program Files/VstPlugins/Drum Pro 64.dll" guivisible="0" chunk="RHJ1bS1IaXAtSG9wIDAzLm1zZQBErAAARKwAAAEAAAABAAAAAQAAAAEAAAAgAAAAIAAAAAIAAAAAAAAAAAAAAAAAAAAAAAAAAAAAAAAAAAABAAAAAQAAAAAAQEAAAAAAAAAAAND///8AAAAAAAAAAAAAAAAAAAAAAAAAAAAAAAAAAAAAAAAAAAAAAAAAAAAAAAAAAAAAAAAAAAAAAAAAAAAAAAAAAAAAAAAAAAAAAAAAAAAAAAAAAAAAAAAAAAAAAAAAAAAAAAAAAAAAAAAAAAAAAAAAAAAAAAAAAAAAAAAAAAAAAAAAAAAAAAAAAAAAAAAAAAAAAAAAAAAAAAAAAAAAAAAAAAAAAAAAAAAAAAAAAAAAAAAAAAAAAAAAAAAAAAAAAAAAAAAAAAAAAAAAAAAAAAAAAAAAAAAAAAAAAAAAAAAAAAAAAAAAAAAAAAAAAAAAAAAAAAAAAAAAAAAAAAAAAAAAAAAAAAAAAAAAAAAAAAAAAAAAAAAAAAAAAAAAAAAAAAAAAAAAAAAAAAAAAAAAAAAAAAAAAAAAAAAAAAAAAAAAAAAAAAAAAAAAAAAAAAAAAAAAAAAAAAAAAAAAAAAAAAAAAAAAAAAAAAAAAAAAAAAAAAAAAAAAAAAAAAAAAAAAAAAAAAAAAAAAAAAAAAAAAAAAAAAAAAAAAAAAAAAAAAAAAAAAAAAAAAAAAAAAAAAAAAAAAAAAAAAAAAAAAAAAAAAAAAAAAAAAAAAAAAAAAAAAAAAAAAAAAAAAAAAAAAAAAAAAAAAAAAAAAAAAAAAAAAAAAAAAAAAAAAAAAAAAAAAADAAAAAAAAAAAAAAAAAAAAAAAAAABAAAAAAAAAAAAAAAAAAAAAAAAAAAAAAAAAAAAAAAAAAAAAAAAAAAAfwAAAH8AAAAAAAAAAAAAAAAAAAAAAAAAAAAAAAAAAAAAAAAAAAAAAAAAAAAAAAAAAAAAAAAAAAAAAAAAAAAAAAAAAAAAAAAAAAAAAAAAAAAAAAAAAAAAAAAAAAAAAAAAAAAAAAAAAAAAAAAAAAAAAAAAAAAAAAAAAAAAAAAAAAAAAAAAAAAAAAAAAAAAAAAAAAAAAAAAAAAAAAAAAAAAAAAAAAAAAAAAAAAAAAAAAAAAAAAAAAAAAAAAAAAAAAAAAAAAAAAAAAAAAAAAAAAAAAAAAAAAAAAAAAAAAAAAAAAAAAAAAAAAAAAAAAAAAAAAAAAAAAAAAAAAAAAAAAAAAAAAAAAAAAAAAAAAAAAAAAAAAAAAAAAAAAAAAAAAAAAAAAAAAAAAAAAAAAAAAAAAAAAAAAAAAAAAAAAAAAAAAAAAAAAAAAAAAAAAAAAAAAAAAAAAAAAAAAAAAAAAAAAAAAAAAAAAAAAAAAAAAAAAAAAAAAAAAAAAAAAAAAAAAAAAAAAAAAAAAAAAAAAAAAAAAAAAAAAAAAAAAAAAAAAAAAAAAAAAAAAAAAAAAAAAAAAAAAAAAAAAAAAAAAAAAAAAAAAAAAAAAAAAAAAAAAAAAAAAAAAAAAAAAAAAAAAAAAAAAAAAAAAAAAAAAAAAAAAAAAAAAAAAAAAAAAAAAAAAAAAAAAAAAAAAAAAAAAAAAAAAAAAAAAAAAAAAAAAAAQAAAAAAAAAAAAAAAAAAAAAAAAAAAAAAAAAAAAAAAAAAAAAAAAAAAH8AAAB/AAAAAAAAAAAAAAAAAAAAAAAAAAAAAAAAAAAAAAAAAAAAAAAAAAAAAAAAAAAAAAAAAAAAAAAAAAAAAAAAAAAAAAAAAAAAAAAAAAAAAAAAAAAAAAAAAAAAAAAAAAAAAAAAAAAAAAAAAAAAAAAAAAAAAAAAAAAAAAAAAAAAAAAAAAAAAAAAAAAAAAAAAAAAAAAAAAAAAAAAAAAAAAAAAAAAAAAAAAAAAAAAAAAAAAAAAAAAAAAAAAAAAAAAAAAAAAAAAAAAAAAAAAAAAAAAAAAAAAAAAAAAAAAAAAAAAAAAAAAAAAAAAAAAAAAAAAAAAAAAAAAAAAAAAAAAAAAAAAAAAAAAAAAAAAAAAAAAAAAAAAAAAAAAAAAAAAAAAAAAAAAAAAAAAAAAAAAAAAAAAAAAAAAAAAAAAAAAAAAAAAAAAAAAAAAAAAAAAAAAAAAAAAAAAAAAAAAAAAAAAAAAAAAAAAAAAAAAAAAAAAAAAAAAAAAAAAAAAAAAAAAAAAAAAAAAAAAAAAAAAAAAAAAAAAAAAAAAAAAAAAAAAAAAAAAAAAAAAAAAAAAAAAAAAAAAAAAAAAAAAAAAAAAAAAAAAAAAAAAAAAAAAAAAAAAAAAAAAAAAAAAAAAAAAAAAAAAAAAAAAAAAAAAAAAAAAAAAAAAAAAAAAAAAAAAAAAAAAAAAAAAAAAAAAAAAAAAAAAAAAAAAAAAAAAAAAAEAAAAAAAAAAAAAAAAAAAAAAAAAAAAAAAAAAAAAAAAAAAAAAAAAAAB/AAAAfwAAAAAAAAAAAAAAAAAAAAAAAAAAAAAAAAAAAAAAAAAAAAAAAAAAAAAAAAAAAAAAAAAAAAAAAAAAAAAAAAAAAAAAAAAAAAAAAAAAAAAAAAAAAAAAAAAAAAAAAAAAAAAAAAAAAAAAAAAAAAAAAAAAAAAAAAAAAAAAAAAAAAAAAAAAAAAAAAAAAAAAAAAAAAAAAAAAAAAAAAAAAAAAAAAAAAAAAAAAAAAAAAAAAAAAAAAAAAAAAAAAAAAAAAAAAAAAAAAAAAAAAAAAAAAAAAAAAAAAAAAAAAAAAAAAAAAAAAAAAAAAAAAAAAAAAAAAAAAAAAAAAAAAAAAAAAAAAAAAAAAAAAAAAAAAAAAAAAAAAAAAAAAAAAAAAAAAAAAAAAAAAAAAAAAAAAAAAAAAAAAAAAAAAAAAAAAAAAAAAAAAAAAAAAAAAAAAAAAAAAAAAAAAAAAAAAAAAAAAAAAAAAAAAAAAAAAAAAAAAAAAAAAAAAAAAAAAAAAAAAAAAAAAAAAAAAAAAAAAAAAAAAAAAAAAAAAAAAAAAAAAAAAAAAAAAAAAAAAAAAAAAAAAAAAAAAAAAAAAAAAAAAAAAAAAAAAAAAAAAAAAAAAAAAAAAAAAAAAAAAAAAAAAAAAAAAAAAAAAAAAAAAAAAAAAAAAAAAAAAAAAAAAAAAAAAAAAAAAAAAAAAAAAAAAAAAAAAAAAAAAAAAAAAAAAAAABAAAAAAAAAAAAAAAAAAAAAAAAAAAAAAAAAAAAAAAAAAAAAAAAAAAAfwAAAH8AAAAAAAAAAAAAAAAAAAAAAAAAAAAAAAAAAAAAAAAAAAAAAAAAAAAAAAAAAAAAAAAAAAAAAAAAAAAAAAAAAAAAAAAAAAAAAAAAAAAAAAAAAAAAAAAAAAAAAAAAAAAAAAAAAAAAAAAAAAAAAAAAAAAAAAAAAAAAAAAAAAAAAAAAAAAAAAAAAAAAAAAAAAAAAAAAAAAAAAAAAAAAAAAAAAAAAAAAAAAAAAAAAAAAAAAAAAAAAAAAAAAAAAAAAAAAAAAAAAAAAAAAAAAAAAAAAAAAAAAAAAAAAAAAAAAAAAAAAAAAAAAAAAAAAAAAAAAAAAAAAAAAAAAAAAAAAAAAAAAAAAAAAAAAAAAAAAAAAAAAAAAAAAAAAAAAAAAAAAAAAAAAAAAAAAAAAAAAAAAAAAAAAAAAAAAAAAAAAAAAAAAAAAAAAAAAAAAAAAAAAAAAAAAAAAAAAAAAAAAAAAAAAAAAAAAAAAAAAAAAAAAAAAAAAAAAAAAAAAAAAAAAAAAAAAAAAAAAAAAAAAAAAAAAAAAAAAAAAAAAAAAAAAAAAAAAAAAAAAAAAAAAAAAAAAAAAAAAAAAAAAAAAAAAAAAAAAAAAAAAAAAAAAAAAAAAAAAAAAAAAAAAAAAAAAAAAAAAAAAAAAAAAAAAAAAAAAAAAAAAAAAAAAAAAAAAAAAAAAAAAAAAAAAAAAAAAAAAAAAAAAAAAAAAAAAAAQAAAAAAAAAAAAAAAAAAAAAAAAAAAAAAAAAAAAAAAAAAAAAAAAAAAH8AAAB/AAAAAAAAAAAAAAAAAAAAAAAAAAAAAAAAAAAAAAAAAAAAAAAAAAAAAAAAAAAAAAAAAAAAAAAAAAAAAAAAAAAAAAAAAAAAAAAAAAAAAAAAAAAAAAAAAAAAAAAAAAAAAAAAAAAAAAAAAAAAAAAAAAAAAAAAAAAAAAAAAAAAAAAAAAAAAAAAAAAAAAAAAAAAAAAAAAAAAAAAAAAAAAAAAAAAAAAAAAAAAAAAAAAAAAAAAAAAAAAAAAAAAAAAAAAAAAAAAAAAAAAAAAAAAAAAAAAAAAAAAAAAAAAAAAAAAAAAAAAAAAAAAAAAAAAAAAAAAAAAAAAAAAAAAAAAAAAAAAAAAAAAAAAAAAAAAAAAAAAAAAAAAAAAAAAAAAAAAAAAAAAAAAAAAAAAAAAAAAAAAAAAAAAAAAAAAAAAAAAAAAAAAAAAAAAAAAAAAAAAAAAAAAAAAAAAAAAAAAAAAAAAAAAAAAAAAAAAAAAAAAAAAAAAAAAAAAAAAAAAAAAAAAAAAAAAAAAAAAAAAAAAAAAAAAAAAAAAAAAAAAAAAAAAAAAAAAAAAAAAAAAAAAAAAAAAAAAAAAAAAAAAAAAAAAAAAAAAAAAAAAAAAAAAAAAAAAAAAAAAAAAAAAAAAAAAAAAAAAAAAAAAAAAAAAAAAAAAAAAAAAAAAAAAAAAAAAAAAAAAAAAAAAAAAAAAAAAAAAAAAAAAAAAAAAAAAAEAAAAAAAAAAAAAAAAAAAAAAAAAAAAAAAAAAAAAAAAAAAAAAAAAAAB/AAAAfwAAAAAAAAAAAAAAAAAAAAAAAAAAAAAAAAAAAAAAAAAAAAAAAAAAAAAAAAAAAAAAAAAAAAAAAAAAAAAAAAAAAAAAAAAAAAAAAAAAAAAAAAAAAAAAAAAAAAAAAAAAAAAAAAAAAAAAAAAAAAAAAAAAAAAAAAAAAAAAAAAAAAAAAAAAAAAAAAAAAAAAAAAAAAAAAAAAAAAAAAAAAAAAAAAAAAAAAAAAAAAAAAAAAAAAAAAAAAAAAAAAAAAAAAAAAAAAAAAAAAAAAAAAAAAAAAAAAAAAAAAAAAAAAAAAAAAAAAAAAAAAAAAAAAAAAAAAAAAAAAAAAAAAAAAAAAAAAAAAAAAAAAAAAAAAAAAAAAAAAAAAAAAAAAAAAAAAAAAAAAAAAAAAAAAAAAAAAAAAAAAAAAAAAAAAAAAAAAAAAAAAAAAAAAAAAAAAAAAAAAAAAAAAAAAAAAAAAAAAAAAAAAAAAAAAAAAAAAAAAAAAAAAAAAAAAAAAAAAAAAAAAAAAAAAAAAAAAAAAAAAAAAAAAAAAAAAAAAAAAAAAAAAAAAAAAAAAAAAAAAAAAAAAAAAAAAAAAAAAAAAAAAAAAAAAAAAAAAAAAAAAAAAAAAAAAAAAAAAAAAAAAAAAAAAAAAAAAAAAAAAAAAAAAAAAAAAAAAAAAAAAAAAAAAAAAAAAAAAAAAAAAAAAAAAAAAAAAAAAAAAAAAAAAAAAAAABAAAAAAAAAAAAAAAAAAAAAAAAAAAAAAAAAAAAAAAAAAAAAAAAAAAAfwAAAH8AAAAAAAAAAAAAAAAAAAAAAAAAAAAAAAAAAAAAAAAAAAAAAAAAAAAAAAAAAAAAAAAAAAAAAAAAAAAAAAAAAAAAAAAAAAAAAAAAAAAAAAAAAAAAAAAAAAAAAAAAAAAAAAAAAAAAAAAAAAAAAAAAAAAAAAAAAAAAAAAAAAAAAAAAAAAAAAAAAAAAAAAAAAAAAAAAAAAAAAAAAAAAAAAAAAAAAAAAAAAAAAAAAAAAAAAAAAAAAAAAAAAAAAAAAAAAAAAAAAAAAAAAAAAAAAAAAAAAAAAAAAAAAAAAAAAAAAAAAAAAAAAAAAAAAAAAAAAAAAAAAAAAAAAAAAAAAAAAAAAAAAAAAAAAAAAAAAAAAAAAAAAAAAAAAAAAAAAAAAAAAAAAAAAAAAAAAAAAAAAAAAAAAAAAAAAAAAAAAAAAAAAAAAAAAAAAAAAAAAAAAAAAAAAAAAAAAAAAAAAAAAAAAAAAAAAAAAAAAAAAAAAAAAAAAAAAAAAAAAAAAAAAAAAAAAAAAAAAAAAAAAAAAAAAAAAAAAAAAAAAAAAAAAAAAAAAAAAAAAAAAAAAAAAAAAAAAAAAAAAAAAAAAAAAAAAAAAAAAAAAAAAAAAAAAAAAAAAAAAAAAAAAAAAAAAAAAAAAAAAAAAAAAAAAAAAAAAAAAAAAAAAAAAAAAAAAAAAAAAAAAAAAAAAAAAAAAAAAAAAAAAAAAAAAAAAAAQAAAAAAAAAAAAAAAAAAAAAAAAAAAAAAAAAAAAAAAAAAAAAAAAAAAH8AAAB/AAAAAAAAAAAAAAAAAAAAAAAAAAAAAAAAAAAAAAAAAAAAAAAAAAAAAAAAAAAAAAAAAAAAAAAAAAAAAAAAAAAAAAAAAAAAAAAAAAAAAAAAAAAAAAAAAAAAAAAAAAAAAAAAAAAAAAAAAAAAAAAAAAAAAAAAAAAAAAAAAAAAAAAAAAAAAAAAAAAAAAAAAAAAAAAAAAAAAAAAAAAAAAAAAAAAAAAAAAAAAAAAAAAAAAAAAAAAAAAAAAAAAAAAAAAAAAAAAAAAAAAAAAAAAAAAAAAAAAAAAAAAAAAAAAAAAAAAAAAAAAAAAAAAAAAAAAAAAAAAAAAAAAAAAAAAAAAAAAAAAAAAAAAAAAAAAAAAAAAAAAAAAAAAAAAAAAAAAAAAAAAAAAAAAAAAAAAAAAAAAAAAAAAAAAAAAAAAAAAAAAAAAAAAAAAAAAAAAAAAAAAAAAAAAAAAAAAAAAAAAAAAAAAAAAAAAAAAAAAAAAAAAAAAAAAAAAAAAAAAAAAAAAAAAAAAAAAAAAAAAAAAAAAAAAAAAAAAAAAAAAAAAAAAAAAAAAAAAAAAAAAAAAAAAAAAAAAAAAAAAAAAAAAAAAAAAAAAAAAAAAAAAAAAAAAAAAAAAAAAAAAAAAAAAAAAAAAAAAAAAAAAAAAAAAAAAAAAAAAAAAAAAAAAAAAAAAAAAAAAAAAAAAAAAAAAAAAAAAAAAAAAAAAAAAAAAAEAAAAAAAAAAAAAAAAAAAAAAAAAAAAAAAAAAAAAAAAAAAAAAAAAAAB/AAAAfwAAAAAAAAAAAAAAAAAAAAAAAAAAAAAAAAAAAAAAAAAAAAAAAAAAAAAAAAAAAAAAAAAAAAAAAAAAAAAAAAAAAAAAAAAAAAAAAAAAAAAAAAAAAAAAAAAAAAAAAAAAAAAAAAAAAAAAAAAAAAAAAAAAAAAAAAAAAAAAAAAAAAAAAAAAAAAAAAAAAAAAAAAAAAAAAAAAAAAAAAAAAAAAAAAAAAAAAAAAAAAAAAAAAAAAAAAAAAAAAAAAAAAAAAAAAAAAAAAAAAAAAAAAAAAAAAAAAAAAAAAAAAAAAAAAAAAAAAAAAAAAAAAAAAAAAAAAAAAAAAAAAAAAAAAAAAAAAAAAAAAAAAAAAAAAAAAAAAAAAAAAAAAAAAAAAAAAAAAAAAAAAAAAAAAAAAAAAAAAAAAAAAAAAAAAAAAAAAAAAAAAAAAAAAAAAAAAAAAAAAAAAAAAAAAAAAAAAAAAAAAAAAAAAAAAAAAAAAAAAAAAAAAAAAAAAAAAAAAAAAAAAAAAAAAAAAAAAAAAAAAAAAAAAAAAAAAAAAAAAAAAAAAAAAAAAAAAAAAAAAAAAAAAAAAAAAAAAAAAAAAAAAAAAAAAAAAAAAAAAAAAAAAAAAAAAAAAAAAAAAAAAAAAAAAAAAAAAAAAAAAAAAAAAAAAAAAAAAAAAAAAAAAAAAAAAAAAAAAAAAAAAAAAAAAAAAAAAAAAAAAAAAAAAAAAAAABAAAAAAAAAAAAAAAAAAAAAAAAAAAAAAAAAAAAAAAAAAAAAAAAAAAAfwAAAH8AAAAAAAAAAAAAAAAAAAAAAAAAAAAAAAAAAAAAAAAAAAAAAAAAAAAAAAAAAAAAAAAAAAAAAAAAAAAAAAAAAAAAAAAAAAAAAAAAAAAAAAAAAAAAAAAAAAAAAAAAAAAAAAAAAAAAAAAAAAAAAAAAAAAAAAAAAAAAAAAAAAAAAAAAAAAAAAAAAAAAAAAAAAAAAAAAAAAAAAAAAAAAAAAAAAAAAAAAAAAAAAAAAAAAAAAAAAAAAAAAAAAAAAAAAAAAAAAAAAAAAAAAAAAAAAAAAAAAAAAAAAAAAAAAAAAAAAAAAAAAAAAAAAAAAAAAAAAAAAAAAAAAAAAAAAAAAAAAAAAAAAAAAAAAAAAAAAAAAAAAAAAAAAAAAAAAAAAAAAAAAAAAAAAAAAAAAAAAAAAAAAAAAAAAAAAAAAAAAAAAAAAAAAAAAAAAAAAAAAAAAAAAAAAAAAAAAAAAAAAAAAAAAAAAAAAAAAAAAAAAAAAAAAAAAAAAAAAAAAAAAAAAAAAAAAAAAAAAAAAAAAAAAAAAAAAAAAAAAAAAAAAAAAAAAAAAAAAAAAAAAAAAAAAAAAAAAAAAAAAAAAAAAAAAAAAAAAAAAAAAAAAAAAAAAAAAAAAAAAAAAAAAAAAAAAAAAAAAAAAAAAAAAAAAAAAAAAAAAAAAAAAAAAAAAAAAAAAAAAAAAAAAAAAAAAAAAAAAAAAAAAAAAAAAAAAAAQAAAAAAAAAAAAAAAAAAAAAAAAAAAAAAAAAAAAAAAAAAAAAAAAAAAH8AAAB/AAAAAAAAAAAAAAAAAAAAAAAAAAAAAAAAAAAAAAAAAAAAAAAAAAAAAAAAAAAAAAAAAAAAAAAAAAAAAAAAAAAAAAAAAAAAAAAAAAAAAAAAAAAAAAAAAAAAAAAAAAAAAAAAAAAAAAAAAAAAAAAAAAAAAAAAAAAAAAAAAAAAAAAAAAAAAAAAAAAAAAAAAAAAAAAAAAAAAAAAAAAAAAAAAAAAAAAAAAAAAAAAAAAAAAAAAAAAAAAAAAAAAAAAAAAAAAAAAAAAAAAAAAAAAAAAAAAAAAAAAAAAAAAAAAAAAAAAAAAAAAAAAAAAAAAAAAAAAAAAAAAAAAAAAAAAAAAAAAAAAAAAAAAAAAAAAAAAAAAAAAAAAAAAAAAAAAAAAAAAAAAAAAAAAAAAAAAAAAAAAAAAAAAAAAAAAAAAAAAAAAAAAAAAAAAAAAAAAAAAAAAAAAAAAAAAAAAAAAAAAAAAAAAAAAAAAAAAAAAAAAAAAAAAAAAAAAAAAAAAAAAAAAAAAAAAAAAAAAAAAAAAAAAAAAAAAAAAAAAAAAAAAAAAAAAAAAAAAAAAAAAAAAAAAAAAAAAAAAAAAAAAAAAAAAAAAAAAAAAAAAAAAAAAAAAAAAAAAAAAAAAAAAAAAAAAAAAAAAAAAAAAAAAAAAAAAAAAAAAAAAAAAAAAAAAAAAAAAAAAAAAAAAAAAAAAAAAAAAAAAAAAAAAAAAAAAAEAAAAAAAAAAAAAAAAAAAAAAAAAAAAAAAAAAAAAAAAAAAAAAAAAAAB/AAAAfwAAAAAAAAAAAAAAAAAAAAAAAAAAAAAAAAAAAAAAAAAAAAAAAAAAAAAAAAAAAAAAAAAAAAAAAAAAAAAAAAAAAAAAAAAAAAAAAAAAAAAAAAAAAAAAAAAAAAAAAAAAAAAAAAAAAAAAAAAAAAAAAAAAAAAAAAAAAAAAAAAAAAAAAAAAAAAAAAAAAAAAAAAAAAAAAAAAAAAAAAAAAAAAAAAAAAAAAAAAAAAAAAAAAAAAAAAAAAAAAAAAAAAAAAAAAAAAAAAAAAAAAAAAAAAAAAAAAAAAAAAAAAAAAAAAAAAAAAAAAAAAAAAAAAAAAAAAAAAAAAAAAAAAAAAAAAAAAAAAAAAAAAAAAAAAAAAAAAAAAAAAAAAAAAAAAAAAAAAAAAAAAAAAAAAAAAAAAAAAAAAAAAAAAAAAAAAAAAAAAAAAAAAAAAAAAAAAAAAAAAAAAAAAAAAAAAAAAAAAAAAAAAAAAAAAAAAAAAAAAAAAAAAAAAAAAAAAAAAAAAAAAAAAAAAAAAAAAAAAAAAAAAAAAAAAAAAAAAAAAAAAAAAAAAAAAAAAAAAAAAAAAAAAAAAAAAAAAAAAAAAAAAAAAAAAAAAAAAAAAAAAAAAAAAAAAAAAAAAAAAAAAAAAAAAAAAAAAAAAAAAAAAAAAAAAAAAAAAAAAAAAAAAAAAAAAAAAAAAAAAAAAAAAAAAAAAAAAAA="/>
          </instrument>
          <eldata ftype="0" fcut="14000" fwet="0" fres="0.5">
            <elvol sustain="0.5" lpdel="0" userwavefile="" lshp="0" lspd_denominator="4" ctlenvamt="0" lspd_numerator="4" rel="0.1" lspd_syncmode="0" amt="0" dec="0.5" x100="0" lspd="0.1" latt="0" att="0" lamt="0" hold="0.5" pdel="0"/>
            <elcut sustain="0.5" lpdel="0" userwavefile="" lshp="0" lspd_denominator="4" ctlenvamt="0" lspd_numerator="4" rel="0.1" lspd_syncmode="0" amt="0" dec="0.5" x100="0" lspd="0.1" latt="0" att="0" lamt="0" hold="0.5" pdel="0"/>
            <elres sustain="0.5" lpdel="0" userwavefile="" lshp="0" lspd_denominator="4" ctlenvamt="0" lspd_numerator="4" rel="0.1" lspd_syncmode="0" amt="0" dec="0.5" x100="0" lspd="0.1" latt="0" att="0" lamt="0" hold="0.5" pdel="0"/>
          </eldata>
          <chordcreator chord-enabled="0" chord="0" chordrange="1"/>
          <arpeggiator arprange="1" arpskip="0" arptime_numerator="4" arpgate="100" arpmiss="0" arpdir="0" arpmode="0" arp="0" arptime_syncmode="0" arptime="200" arpcycle="0" arptime_denominator="4" arp-enabled="0"/>
          <midiport writable="0" inputcontroller="0" readable="0" inputchannel="0" fixedoutputnote="-1" outputprogram="1" fixedinputvelocity="-1" basevelocity="63" fixedoutputvelocity="-1" outputcontroller="0" outputchannel="1"/>
          <fxchain numofeffects="1" enabled="0">
            <effect autoquit_numerator="4" gate="0" wet="1" on="1" autoquit="1" name="ladspaeffect" autoquit_syncmode="0" autoquit_denominator="4">
              <ladspacontrols ports="4" link="1">
                <port00 link="1">
                  <data id="37249" value="3767.23" scale_type="log"/>
                </port00>
                <port01 data="0.755" link="1"/>
                <port10>
                  <data id="37263" value="3767.23" scale_type="log"/>
                </port10>
                <port11 data="0.755"/>
              </ladspacontrols>
              <key>
                <attribute value="butterworth_1902" name="file"/>
                <attribute value="buttlow_iir" name="plugin"/>
              </key>
            </effect>
          </fxchain>
        </instrumenttrack>
        <pattern steps="16" type="1" name="Hihat" pos="0" muted="0">
          <note pan="0" vol="100" key="67" len="12" pos="0"/>
          <note pan="0" vol="100" key="66" len="12" pos="0"/>
          <note pan="0" vol="100" key="67" len="12" pos="12"/>
          <note pan="0" vol="100" key="66" len="12" pos="12"/>
          <note pan="0" vol="100" key="67" len="12" pos="24"/>
          <note pan="0" vol="100" key="66" len="12" pos="24"/>
          <note pan="0" vol="100" key="67" len="12" pos="36"/>
          <note pan="0" vol="100" key="66" len="12" pos="36"/>
          <note pan="0" vol="100" key="67" len="12" pos="48"/>
          <note pan="0" vol="100" key="66" len="12" pos="48"/>
          <note pan="0" vol="100" key="67" len="12" pos="72"/>
          <note pan="0" vol="100" key="66" len="12" pos="72"/>
          <note pan="0" vol="100" key="67" len="12" pos="84"/>
          <note pan="0" vol="100" key="66" len="12" pos="84"/>
          <note pan="0" vol="100" key="67" len="12" pos="108"/>
          <note pan="0" vol="100" key="66" len="12" pos="108"/>
          <note pan="0" vol="100" key="67" len="12" pos="120"/>
          <note pan="0" vol="100" key="66" len="12" pos="120"/>
          <note pan="0" vol="100" key="67" len="12" pos="144"/>
          <note pan="0" vol="100" key="66" len="12" pos="144"/>
          <note pan="0" vol="100" key="67" len="12" pos="156"/>
          <note pan="0" vol="100" key="66" len="12" pos="156"/>
          <note pan="0" vol="100" key="67" len="12" pos="168"/>
          <note pan="0" vol="100" key="66" len="12" pos="168"/>
          <note pan="0" vol="100" key="67" len="12" pos="180"/>
          <note pan="0" vol="100" key="66" len="12" pos="180"/>
          <note pan="0" vol="100" key="67" len="12" pos="192"/>
          <note pan="0" vol="100" key="66" len="12" pos="192"/>
          <note pan="0" vol="100" key="67" len="12" pos="204"/>
          <note pan="0" vol="100" key="66" len="12" pos="204"/>
          <note pan="0" vol="100" key="67" len="12" pos="216"/>
          <note pan="0" vol="100" key="66" len="12" pos="216"/>
          <note pan="0" vol="100" key="67" len="12" pos="228"/>
          <note pan="0" vol="100" key="66" len="12" pos="228"/>
          <note pan="0" vol="100" key="67" len="12" pos="240"/>
          <note pan="0" vol="100" key="66" len="12" pos="240"/>
          <note pan="0" vol="100" key="67" len="12" pos="264"/>
          <note pan="0" vol="100" key="66" len="12" pos="264"/>
          <note pan="0" vol="100" key="67" len="12" pos="276"/>
          <note pan="0" vol="100" key="66" len="12" pos="276"/>
          <note pan="0" vol="100" key="67" len="12" pos="300"/>
          <note pan="0" vol="100" key="66" len="12" pos="300"/>
          <note pan="0" vol="100" key="67" len="12" pos="312"/>
          <note pan="0" vol="100" key="66" len="12" pos="312"/>
          <note pan="0" vol="100" key="67" len="12" pos="336"/>
          <note pan="0" vol="100" key="66" len="12" pos="336"/>
          <note pan="0" vol="100" key="67" len="12" pos="348"/>
          <note pan="0" vol="100" key="66" len="12" pos="348"/>
          <note pan="0" vol="100" key="67" len="12" pos="360"/>
          <note pan="0" vol="100" key="66" len="12" pos="360"/>
          <note pan="0" vol="100" key="67" len="12" pos="372"/>
          <note pan="0" vol="100" key="66" len="12" pos="372"/>
          <note pan="0" vol="100" key="67" len="12" pos="384"/>
          <note pan="0" vol="100" key="66" len="12" pos="384"/>
          <note pan="0" vol="100" key="67" len="12" pos="396"/>
          <note pan="0" vol="100" key="66" len="12" pos="396"/>
          <note pan="0" vol="100" key="67" len="12" pos="408"/>
          <note pan="0" vol="100" key="66" len="12" pos="408"/>
          <note pan="0" vol="100" key="67" len="12" pos="420"/>
          <note pan="0" vol="100" key="66" len="12" pos="420"/>
          <note pan="0" vol="100" key="67" len="12" pos="432"/>
          <note pan="0" vol="100" key="66" len="12" pos="432"/>
          <note pan="0" vol="100" key="67" len="12" pos="456"/>
          <note pan="0" vol="100" key="66" len="12" pos="456"/>
          <note pan="0" vol="100" key="67" len="12" pos="468"/>
          <note pan="0" vol="100" key="66" len="12" pos="468"/>
          <note pan="0" vol="100" key="67" len="12" pos="492"/>
          <note pan="0" vol="100" key="66" len="12" pos="492"/>
          <note pan="0" vol="100" key="67" len="12" pos="504"/>
          <note pan="0" vol="100" key="66" len="12" pos="504"/>
          <note pan="0" vol="100" key="67" len="12" pos="528"/>
          <note pan="0" vol="100" key="66" len="12" pos="528"/>
          <note pan="0" vol="100" key="67" len="12" pos="540"/>
          <note pan="0" vol="100" key="66" len="12" pos="540"/>
          <note pan="0" vol="100" key="67" len="12" pos="552"/>
          <note pan="0" vol="100" key="66" len="12" pos="552"/>
          <note pan="0" vol="100" key="67" len="12" pos="564"/>
          <note pan="0" vol="100" key="66" len="12" pos="564"/>
          <note pan="0" vol="100" key="67" len="12" pos="576"/>
          <note pan="0" vol="100" key="66" len="12" pos="576"/>
          <note pan="0" vol="100" key="67" len="12" pos="588"/>
          <note pan="0" vol="100" key="66" len="12" pos="588"/>
          <note pan="0" vol="100" key="67" len="12" pos="600"/>
          <note pan="0" vol="100" key="66" len="12" pos="600"/>
          <note pan="0" vol="100" key="67" len="12" pos="612"/>
          <note pan="0" vol="100" key="66" len="12" pos="612"/>
          <note pan="0" vol="100" key="67" len="12" pos="624"/>
          <note pan="0" vol="100" key="66" len="12" pos="624"/>
          <note pan="0" vol="100" key="67" len="12" pos="648"/>
          <note pan="0" vol="100" key="66" len="12" pos="648"/>
          <note pan="0" vol="100" key="67" len="12" pos="660"/>
          <note pan="0" vol="100" key="66" len="12" pos="660"/>
          <note pan="0" vol="100" key="67" len="12" pos="684"/>
          <note pan="0" vol="100" key="66" len="12" pos="684"/>
          <note pan="0" vol="100" key="67" len="12" pos="696"/>
          <note pan="0" vol="100" key="66" len="12" pos="696"/>
          <note pan="0" vol="100" key="67" len="12" pos="720"/>
          <note pan="0" vol="100" key="66" len="12" pos="720"/>
          <note pan="0" vol="100" key="67" len="12" pos="732"/>
          <note pan="0" vol="100" key="66" len="12" pos="732"/>
          <note pan="0" vol="100" key="67" len="12" pos="744"/>
          <note pan="0" vol="100" key="66" len="12" pos="744"/>
          <note pan="0" vol="100" key="67" len="12" pos="756"/>
          <note pan="0" vol="100" key="66" len="12" pos="756"/>
          <note pan="0" vol="100" key="67" len="12" pos="768"/>
          <note pan="0" vol="100" key="66" len="12" pos="768"/>
          <note pan="0" vol="100" key="67" len="12" pos="780"/>
          <note pan="0" vol="100" key="66" len="12" pos="780"/>
          <note pan="0" vol="100" key="67" len="12" pos="792"/>
          <note pan="0" vol="100" key="66" len="12" pos="792"/>
          <note pan="0" vol="100" key="67" len="12" pos="804"/>
          <note pan="0" vol="100" key="66" len="12" pos="804"/>
          <note pan="0" vol="100" key="67" len="12" pos="816"/>
          <note pan="0" vol="100" key="66" len="12" pos="816"/>
          <note pan="0" vol="100" key="67" len="12" pos="840"/>
          <note pan="0" vol="100" key="66" len="12" pos="840"/>
          <note pan="0" vol="100" key="67" len="12" pos="852"/>
          <note pan="0" vol="100" key="66" len="12" pos="852"/>
          <note pan="0" vol="100" key="67" len="12" pos="876"/>
          <note pan="0" vol="100" key="66" len="12" pos="876"/>
          <note pan="0" vol="100" key="67" len="12" pos="888"/>
          <note pan="0" vol="100" key="66" len="12" pos="888"/>
          <note pan="0" vol="100" key="67" len="12" pos="912"/>
          <note pan="0" vol="100" key="66" len="12" pos="912"/>
          <note pan="0" vol="100" key="67" len="12" pos="924"/>
          <note pan="0" vol="100" key="66" len="12" pos="924"/>
          <note pan="0" vol="100" key="67" len="12" pos="936"/>
          <note pan="0" vol="100" key="66" len="12" pos="936"/>
          <note pan="0" vol="100" key="67" len="12" pos="948"/>
          <note pan="0" vol="100" key="66" len="12" pos="948"/>
          <note pan="0" vol="100" key="67" len="12" pos="960"/>
          <note pan="0" vol="100" key="66" len="12" pos="960"/>
          <note pan="0" vol="100" key="67" len="12" pos="972"/>
          <note pan="0" vol="100" key="66" len="12" pos="972"/>
          <note pan="0" vol="100" key="67" len="12" pos="984"/>
          <note pan="0" vol="100" key="66" len="12" pos="984"/>
          <note pan="0" vol="100" key="67" len="12" pos="996"/>
          <note pan="0" vol="100" key="66" len="12" pos="996"/>
          <note pan="0" vol="100" key="67" len="12" pos="1008"/>
          <note pan="0" vol="100" key="66" len="12" pos="1008"/>
          <note pan="0" vol="100" key="67" len="12" pos="1032"/>
          <note pan="0" vol="100" key="66" len="12" pos="1032"/>
          <note pan="0" vol="100" key="67" len="12" pos="1044"/>
          <note pan="0" vol="100" key="66" len="12" pos="1044"/>
          <note pan="0" vol="100" key="67" len="12" pos="1068"/>
          <note pan="0" vol="100" key="66" len="12" pos="1068"/>
          <note pan="0" vol="100" key="67" len="12" pos="1080"/>
          <note pan="0" vol="100" key="66" len="12" pos="1080"/>
          <note pan="0" vol="100" key="67" len="12" pos="1104"/>
          <note pan="0" vol="100" key="66" len="12" pos="1104"/>
          <note pan="0" vol="100" key="67" len="12" pos="1116"/>
          <note pan="0" vol="100" key="66" len="12" pos="1116"/>
          <note pan="0" vol="100" key="67" len="12" pos="1128"/>
          <note pan="0" vol="100" key="66" len="12" pos="1128"/>
          <note pan="0" vol="100" key="67" len="12" pos="1140"/>
          <note pan="0" vol="100" key="66" len="12" pos="1140"/>
          <note pan="0" vol="100" key="67" len="12" pos="1152"/>
          <note pan="0" vol="100" key="66" len="12" pos="1152"/>
          <note pan="0" vol="100" key="67" len="12" pos="1164"/>
          <note pan="0" vol="100" key="66" len="12" pos="1164"/>
          <note pan="0" vol="100" key="67" len="12" pos="1176"/>
          <note pan="0" vol="100" key="66" len="12" pos="1176"/>
          <note pan="0" vol="100" key="67" len="12" pos="1188"/>
          <note pan="0" vol="100" key="66" len="12" pos="1188"/>
          <note pan="0" vol="100" key="67" len="12" pos="1200"/>
          <note pan="0" vol="100" key="66" len="12" pos="1200"/>
          <note pan="0" vol="100" key="67" len="12" pos="1224"/>
          <note pan="0" vol="100" key="66" len="12" pos="1224"/>
          <note pan="0" vol="100" key="67" len="12" pos="1236"/>
          <note pan="0" vol="100" key="66" len="12" pos="1236"/>
          <note pan="0" vol="100" key="67" len="12" pos="1260"/>
          <note pan="0" vol="100" key="66" len="12" pos="1260"/>
          <note pan="0" vol="100" key="67" len="12" pos="1272"/>
          <note pan="0" vol="100" key="66" len="12" pos="1272"/>
          <note pan="0" vol="100" key="67" len="12" pos="1296"/>
          <note pan="0" vol="100" key="66" len="12" pos="1296"/>
          <note pan="0" vol="100" key="67" len="12" pos="1308"/>
          <note pan="0" vol="100" key="66" len="12" pos="1308"/>
          <note pan="0" vol="100" key="67" len="12" pos="1320"/>
          <note pan="0" vol="100" key="66" len="12" pos="1320"/>
          <note pan="0" vol="100" key="67" len="12" pos="1332"/>
          <note pan="0" vol="100" key="66" len="12" pos="1332"/>
          <note pan="0" vol="100" key="67" len="12" pos="1344"/>
          <note pan="0" vol="100" key="66" len="12" pos="1344"/>
          <note pan="0" vol="100" key="67" len="12" pos="1356"/>
          <note pan="0" vol="100" key="66" len="12" pos="1356"/>
          <note pan="0" vol="100" key="67" len="12" pos="1368"/>
          <note pan="0" vol="100" key="66" len="12" pos="1368"/>
          <note pan="0" vol="100" key="67" len="12" pos="1380"/>
          <note pan="0" vol="100" key="66" len="12" pos="1380"/>
          <note pan="0" vol="100" key="67" len="12" pos="1392"/>
          <note pan="0" vol="100" key="66" len="12" pos="1392"/>
          <note pan="0" vol="100" key="67" len="12" pos="1416"/>
          <note pan="0" vol="100" key="66" len="12" pos="1416"/>
          <note pan="0" vol="100" key="67" len="12" pos="1428"/>
          <note pan="0" vol="100" key="66" len="12" pos="1428"/>
          <note pan="0" vol="100" key="67" len="12" pos="1452"/>
          <note pan="0" vol="100" key="66" len="12" pos="1452"/>
          <note pan="0" vol="100" key="67" len="12" pos="1464"/>
          <note pan="0" vol="100" key="66" len="12" pos="1464"/>
          <note pan="0" vol="100" key="67" len="12" pos="1488"/>
          <note pan="0" vol="100" key="66" len="12" pos="1488"/>
          <note pan="0" vol="100" key="67" len="12" pos="1500"/>
          <note pan="0" vol="100" key="66" len="12" pos="1500"/>
          <note pan="0" vol="100" key="67" len="12" pos="1512"/>
          <note pan="0" vol="100" key="66" len="12" pos="1512"/>
          <note pan="0" vol="100" key="67" len="12" pos="1524"/>
          <note pan="0" vol="100" key="66" len="12" pos="1524"/>
          <note pan="0" vol="100" key="67" len="12" pos="1536"/>
          <note pan="0" vol="100" key="66" len="12" pos="1536"/>
          <note pan="0" vol="100" key="67" len="12" pos="1548"/>
          <note pan="0" vol="100" key="66" len="12" pos="1548"/>
          <note pan="0" vol="100" key="67" len="12" pos="1560"/>
          <note pan="0" vol="100" key="66" len="12" pos="1560"/>
          <note pan="0" vol="100" key="67" len="12" pos="1572"/>
          <note pan="0" vol="100" key="66" len="12" pos="1572"/>
          <note pan="0" vol="100" key="67" len="12" pos="1584"/>
          <note pan="0" vol="100" key="66" len="12" pos="1584"/>
          <note pan="0" vol="100" key="67" len="12" pos="1608"/>
          <note pan="0" vol="100" key="66" len="12" pos="1608"/>
          <note pan="0" vol="100" key="67" len="12" pos="1620"/>
          <note pan="0" vol="100" key="66" len="12" pos="1620"/>
          <note pan="0" vol="100" key="67" len="12" pos="1644"/>
          <note pan="0" vol="100" key="66" len="12" pos="1644"/>
          <note pan="0" vol="100" key="67" len="12" pos="1656"/>
          <note pan="0" vol="100" key="66" len="12" pos="1656"/>
          <note pan="0" vol="100" key="67" len="12" pos="1680"/>
          <note pan="0" vol="100" key="66" len="12" pos="1680"/>
          <note pan="0" vol="100" key="67" len="12" pos="1692"/>
          <note pan="0" vol="100" key="66" len="12" pos="1692"/>
          <note pan="0" vol="100" key="67" len="12" pos="1704"/>
          <note pan="0" vol="100" key="66" len="12" pos="1704"/>
          <note pan="0" vol="100" key="67" len="12" pos="1716"/>
          <note pan="0" vol="100" key="66" len="12" pos="1716"/>
          <note pan="0" vol="100" key="67" len="12" pos="1728"/>
          <note pan="0" vol="100" key="66" len="12" pos="1728"/>
          <note pan="0" vol="100" key="67" len="12" pos="1740"/>
          <note pan="0" vol="100" key="66" len="12" pos="1740"/>
          <note pan="0" vol="100" key="67" len="12" pos="1752"/>
          <note pan="0" vol="100" key="66" len="12" pos="1752"/>
          <note pan="0" vol="100" key="67" len="12" pos="1764"/>
          <note pan="0" vol="100" key="66" len="12" pos="1764"/>
          <note pan="0" vol="100" key="67" len="12" pos="1776"/>
          <note pan="0" vol="100" key="66" len="12" pos="1776"/>
          <note pan="0" vol="100" key="67" len="12" pos="1800"/>
          <note pan="0" vol="100" key="66" len="12" pos="1800"/>
          <note pan="0" vol="100" key="67" len="12" pos="1812"/>
          <note pan="0" vol="100" key="66" len="12" pos="1812"/>
          <note pan="0" vol="100" key="67" len="12" pos="1836"/>
          <note pan="0" vol="100" key="66" len="12" pos="1836"/>
          <note pan="0" vol="100" key="67" len="12" pos="1848"/>
          <note pan="0" vol="100" key="66" len="12" pos="1848"/>
          <note pan="0" vol="100" key="67" len="12" pos="1872"/>
          <note pan="0" vol="100" key="66" len="12" pos="1872"/>
          <note pan="0" vol="100" key="67" len="12" pos="1884"/>
          <note pan="0" vol="100" key="66" len="12" pos="1884"/>
          <note pan="0" vol="100" key="67" len="12" pos="1896"/>
          <note pan="0" vol="100" key="66" len="12" pos="1896"/>
          <note pan="0" vol="100" key="67" len="12" pos="1908"/>
          <note pan="0" vol="100" key="66" len="12" pos="1908"/>
          <note pan="0" vol="100" key="67" len="12" pos="1920"/>
          <note pan="0" vol="100" key="66" len="12" pos="1920"/>
          <note pan="0" vol="100" key="67" len="12" pos="1932"/>
          <note pan="0" vol="100" key="66" len="12" pos="1932"/>
          <note pan="0" vol="100" key="67" len="12" pos="1944"/>
          <note pan="0" vol="100" key="66" len="12" pos="1944"/>
          <note pan="0" vol="100" key="67" len="12" pos="1956"/>
          <note pan="0" vol="100" key="66" len="12" pos="1956"/>
          <note pan="0" vol="100" key="67" len="12" pos="1968"/>
          <note pan="0" vol="100" key="66" len="12" pos="1968"/>
          <note pan="0" vol="100" key="67" len="12" pos="1992"/>
          <note pan="0" vol="100" key="66" len="12" pos="1992"/>
          <note pan="0" vol="100" key="67" len="12" pos="2004"/>
          <note pan="0" vol="100" key="66" len="12" pos="2004"/>
          <note pan="0" vol="100" key="67" len="12" pos="2028"/>
          <note pan="0" vol="100" key="66" len="12" pos="2028"/>
          <note pan="0" vol="100" key="67" len="12" pos="2040"/>
          <note pan="0" vol="100" key="66" len="12" pos="2040"/>
          <note pan="0" vol="100" key="67" len="12" pos="2064"/>
          <note pan="0" vol="100" key="66" len="12" pos="2064"/>
          <note pan="0" vol="100" key="67" len="12" pos="2076"/>
          <note pan="0" vol="100" key="66" len="12" pos="2076"/>
          <note pan="0" vol="100" key="67" len="12" pos="2088"/>
          <note pan="0" vol="100" key="66" len="12" pos="2088"/>
          <note pan="0" vol="100" key="67" len="12" pos="2100"/>
          <note pan="0" vol="100" key="66" len="12" pos="2100"/>
          <note pan="0" vol="100" key="67" len="12" pos="2112"/>
          <note pan="0" vol="100" key="66" len="12" pos="2112"/>
          <note pan="0" vol="100" key="67" len="12" pos="2124"/>
          <note pan="0" vol="100" key="66" len="12" pos="2124"/>
          <note pan="0" vol="100" key="67" len="12" pos="2136"/>
          <note pan="0" vol="100" key="66" len="12" pos="2136"/>
          <note pan="0" vol="100" key="67" len="12" pos="2148"/>
          <note pan="0" vol="100" key="66" len="12" pos="2148"/>
          <note pan="0" vol="100" key="67" len="12" pos="2160"/>
          <note pan="0" vol="100" key="66" len="12" pos="2160"/>
          <note pan="0" vol="100" key="67" len="12" pos="2184"/>
          <note pan="0" vol="100" key="66" len="12" pos="2184"/>
          <note pan="0" vol="100" key="67" len="12" pos="2196"/>
          <note pan="0" vol="100" key="66" len="12" pos="2196"/>
          <note pan="0" vol="100" key="67" len="12" pos="2220"/>
          <note pan="0" vol="100" key="66" len="12" pos="2220"/>
          <note pan="0" vol="100" key="67" len="12" pos="2232"/>
          <note pan="0" vol="100" key="66" len="12" pos="2232"/>
          <note pan="0" vol="100" key="67" len="12" pos="2256"/>
          <note pan="0" vol="100" key="66" len="12" pos="2256"/>
          <note pan="0" vol="100" key="67" len="12" pos="2268"/>
          <note pan="0" vol="100" key="66" len="12" pos="2268"/>
          <note pan="0" vol="100" key="67" len="12" pos="2280"/>
          <note pan="0" vol="100" key="66" len="12" pos="2280"/>
          <note pan="0" vol="100" key="67" len="12" pos="2292"/>
          <note pan="0" vol="100" key="66" len="12" pos="2292"/>
          <note pan="0" vol="100" key="67" len="12" pos="2304"/>
          <note pan="0" vol="100" key="66" len="12" pos="2304"/>
          <note pan="0" vol="100" key="67" len="12" pos="2316"/>
          <note pan="0" vol="100" key="66" len="12" pos="2316"/>
          <note pan="0" vol="100" key="67" len="12" pos="2328"/>
          <note pan="0" vol="100" key="66" len="12" pos="2328"/>
          <note pan="0" vol="100" key="67" len="12" pos="2340"/>
          <note pan="0" vol="100" key="66" len="12" pos="2340"/>
          <note pan="0" vol="100" key="67" len="12" pos="2352"/>
          <note pan="0" vol="100" key="66" len="12" pos="2352"/>
          <note pan="0" vol="100" key="67" len="12" pos="2376"/>
          <note pan="0" vol="100" key="66" len="12" pos="2376"/>
          <note pan="0" vol="100" key="67" len="12" pos="2388"/>
          <note pan="0" vol="100" key="66" len="12" pos="2388"/>
          <note pan="0" vol="100" key="67" len="12" pos="2412"/>
          <note pan="0" vol="100" key="66" len="12" pos="2412"/>
          <note pan="0" vol="100" key="67" len="12" pos="2424"/>
          <note pan="0" vol="100" key="66" len="12" pos="2424"/>
          <note pan="0" vol="100" key="67" len="12" pos="2448"/>
          <note pan="0" vol="100" key="66" len="12" pos="2448"/>
          <note pan="0" vol="100" key="67" len="12" pos="2460"/>
          <note pan="0" vol="100" key="66" len="12" pos="2460"/>
          <note pan="0" vol="100" key="67" len="12" pos="2472"/>
          <note pan="0" vol="100" key="66" len="12" pos="2472"/>
          <note pan="0" vol="100" key="67" len="12" pos="2484"/>
          <note pan="0" vol="100" key="66" len="12" pos="2484"/>
          <note pan="0" vol="100" key="67" len="12" pos="2496"/>
          <note pan="0" vol="100" key="66" len="12" pos="2496"/>
          <note pan="0" vol="100" key="67" len="12" pos="2508"/>
          <note pan="0" vol="100" key="66" len="12" pos="2508"/>
          <note pan="0" vol="100" key="67" len="12" pos="2520"/>
          <note pan="0" vol="100" key="66" len="12" pos="2520"/>
          <note pan="0" vol="100" key="67" len="12" pos="2532"/>
          <note pan="0" vol="100" key="66" len="12" pos="2532"/>
          <note pan="0" vol="100" key="67" len="12" pos="2544"/>
          <note pan="0" vol="100" key="66" len="12" pos="2544"/>
          <note pan="0" vol="100" key="67" len="12" pos="2568"/>
          <note pan="0" vol="100" key="66" len="12" pos="2568"/>
          <note pan="0" vol="100" key="67" len="12" pos="2580"/>
          <note pan="0" vol="100" key="66" len="12" pos="2580"/>
          <note pan="0" vol="100" key="67" len="12" pos="2604"/>
          <note pan="0" vol="100" key="66" len="12" pos="2604"/>
          <note pan="0" vol="100" key="67" len="12" pos="2616"/>
          <note pan="0" vol="100" key="66" len="12" pos="2616"/>
          <note pan="0" vol="100" key="67" len="12" pos="2640"/>
          <note pan="0" vol="100" key="66" len="12" pos="2640"/>
          <note pan="0" vol="100" key="67" len="12" pos="2652"/>
          <note pan="0" vol="100" key="66" len="12" pos="2652"/>
          <note pan="0" vol="100" key="67" len="12" pos="2664"/>
          <note pan="0" vol="100" key="66" len="12" pos="2664"/>
          <note pan="0" vol="100" key="67" len="12" pos="2676"/>
          <note pan="0" vol="100" key="66" len="12" pos="2676"/>
          <note pan="0" vol="100" key="67" len="12" pos="2688"/>
          <note pan="0" vol="100" key="66" len="12" pos="2688"/>
          <note pan="0" vol="100" key="67" len="12" pos="2700"/>
          <note pan="0" vol="100" key="66" len="12" pos="2700"/>
          <note pan="0" vol="100" key="67" len="12" pos="2712"/>
          <note pan="0" vol="100" key="66" len="12" pos="2712"/>
          <note pan="0" vol="100" key="67" len="12" pos="2724"/>
          <note pan="0" vol="100" key="66" len="12" pos="2724"/>
          <note pan="0" vol="100" key="67" len="12" pos="2736"/>
          <note pan="0" vol="100" key="66" len="12" pos="2736"/>
          <note pan="0" vol="100" key="67" len="12" pos="2760"/>
          <note pan="0" vol="100" key="66" len="12" pos="2760"/>
          <note pan="0" vol="100" key="67" len="12" pos="2772"/>
          <note pan="0" vol="100" key="66" len="12" pos="2772"/>
          <note pan="0" vol="100" key="67" len="12" pos="2796"/>
          <note pan="0" vol="100" key="66" len="12" pos="2796"/>
          <note pan="0" vol="100" key="67" len="12" pos="2808"/>
          <note pan="0" vol="100" key="66" len="12" pos="2808"/>
          <note pan="0" vol="100" key="67" len="12" pos="2832"/>
          <note pan="0" vol="100" key="66" len="12" pos="2832"/>
          <note pan="0" vol="100" key="67" len="12" pos="2844"/>
          <note pan="0" vol="100" key="66" len="12" pos="2844"/>
          <note pan="0" vol="100" key="67" len="12" pos="2856"/>
          <note pan="0" vol="100" key="66" len="12" pos="2856"/>
          <note pan="0" vol="100" key="67" len="12" pos="2868"/>
          <note pan="0" vol="100" key="66" len="12" pos="2868"/>
          <note pan="0" vol="100" key="67" len="12" pos="2880"/>
          <note pan="0" vol="100" key="66" len="12" pos="2880"/>
          <note pan="0" vol="100" key="67" len="12" pos="2892"/>
          <note pan="0" vol="100" key="66" len="12" pos="2892"/>
          <note pan="0" vol="100" key="67" len="12" pos="2904"/>
          <note pan="0" vol="100" key="66" len="12" pos="2904"/>
          <note pan="0" vol="100" key="67" len="12" pos="2916"/>
          <note pan="0" vol="100" key="66" len="12" pos="2916"/>
          <note pan="0" vol="100" key="67" len="12" pos="2928"/>
          <note pan="0" vol="100" key="66" len="12" pos="2928"/>
          <note pan="0" vol="100" key="67" len="12" pos="2952"/>
          <note pan="0" vol="100" key="66" len="12" pos="2952"/>
          <note pan="0" vol="100" key="67" len="12" pos="2964"/>
          <note pan="0" vol="100" key="66" len="12" pos="2964"/>
          <note pan="0" vol="100" key="67" len="12" pos="2988"/>
          <note pan="0" vol="100" key="66" len="12" pos="2988"/>
          <note pan="0" vol="100" key="67" len="12" pos="3000"/>
          <note pan="0" vol="100" key="66" len="12" pos="3000"/>
          <note pan="0" vol="100" key="67" len="12" pos="3024"/>
          <note pan="0" vol="100" key="66" len="12" pos="3024"/>
          <note pan="0" vol="100" key="67" len="12" pos="3036"/>
          <note pan="0" vol="100" key="66" len="12" pos="3036"/>
          <note pan="0" vol="100" key="67" len="12" pos="3048"/>
          <note pan="0" vol="100" key="66" len="12" pos="3048"/>
          <note pan="0" vol="100" key="67" len="12" pos="3060"/>
          <note pan="0" vol="100" key="66" len="12" pos="3060"/>
          <note pan="0" vol="100" key="67" len="12" pos="3072"/>
          <note pan="0" vol="100" key="66" len="12" pos="3072"/>
          <note pan="0" vol="100" key="67" len="12" pos="3084"/>
          <note pan="0" vol="100" key="66" len="12" pos="3084"/>
          <note pan="0" vol="100" key="67" len="12" pos="3096"/>
          <note pan="0" vol="100" key="66" len="12" pos="3096"/>
          <note pan="0" vol="100" key="67" len="12" pos="3108"/>
          <note pan="0" vol="100" key="66" len="12" pos="3108"/>
          <note pan="0" vol="100" key="67" len="12" pos="3120"/>
          <note pan="0" vol="100" key="66" len="12" pos="3120"/>
          <note pan="0" vol="100" key="67" len="12" pos="3144"/>
          <note pan="0" vol="100" key="66" len="12" pos="3144"/>
          <note pan="0" vol="100" key="67" len="12" pos="3156"/>
          <note pan="0" vol="100" key="66" len="12" pos="3156"/>
          <note pan="0" vol="100" key="67" len="12" pos="3180"/>
          <note pan="0" vol="100" key="66" len="12" pos="3180"/>
          <note pan="0" vol="100" key="67" len="12" pos="3192"/>
          <note pan="0" vol="100" key="66" len="12" pos="3192"/>
          <note pan="0" vol="100" key="67" len="12" pos="3216"/>
          <note pan="0" vol="100" key="66" len="12" pos="3216"/>
          <note pan="0" vol="100" key="67" len="12" pos="3228"/>
          <note pan="0" vol="100" key="66" len="12" pos="3228"/>
          <note pan="0" vol="100" key="67" len="12" pos="3240"/>
          <note pan="0" vol="100" key="66" len="12" pos="3240"/>
          <note pan="0" vol="100" key="67" len="12" pos="3252"/>
          <note pan="0" vol="100" key="66" len="12" pos="3252"/>
          <note pan="0" vol="100" key="67" len="12" pos="3264"/>
          <note pan="0" vol="100" key="66" len="12" pos="3264"/>
          <note pan="0" vol="100" key="67" len="12" pos="3276"/>
          <note pan="0" vol="100" key="66" len="12" pos="3276"/>
          <note pan="0" vol="100" key="67" len="12" pos="3288"/>
          <note pan="0" vol="100" key="66" len="12" pos="3288"/>
          <note pan="0" vol="100" key="67" len="12" pos="3300"/>
          <note pan="0" vol="100" key="66" len="12" pos="3300"/>
          <note pan="0" vol="100" key="67" len="12" pos="3312"/>
          <note pan="0" vol="100" key="66" len="12" pos="3312"/>
          <note pan="0" vol="100" key="67" len="12" pos="3336"/>
          <note pan="0" vol="100" key="66" len="12" pos="3336"/>
          <note pan="0" vol="100" key="67" len="12" pos="3348"/>
          <note pan="0" vol="100" key="66" len="12" pos="3348"/>
          <note pan="0" vol="100" key="67" len="12" pos="3372"/>
          <note pan="0" vol="100" key="66" len="12" pos="3372"/>
          <note pan="0" vol="100" key="67" len="12" pos="3384"/>
          <note pan="0" vol="100" key="66" len="12" pos="3384"/>
          <note pan="0" vol="100" key="67" len="12" pos="3408"/>
          <note pan="0" vol="100" key="66" len="12" pos="3408"/>
          <note pan="0" vol="100" key="67" len="12" pos="3420"/>
          <note pan="0" vol="100" key="66" len="12" pos="3420"/>
          <note pan="0" vol="100" key="67" len="12" pos="3432"/>
          <note pan="0" vol="100" key="66" len="12" pos="3432"/>
          <note pan="0" vol="100" key="67" len="12" pos="3444"/>
          <note pan="0" vol="100" key="66" len="12" pos="3444"/>
          <note pan="0" vol="100" key="67" len="12" pos="3456"/>
          <note pan="0" vol="100" key="66" len="12" pos="3456"/>
          <note pan="0" vol="100" key="67" len="12" pos="3468"/>
          <note pan="0" vol="100" key="66" len="12" pos="3468"/>
          <note pan="0" vol="100" key="67" len="12" pos="3480"/>
          <note pan="0" vol="100" key="66" len="12" pos="3480"/>
          <note pan="0" vol="100" key="67" len="12" pos="3492"/>
          <note pan="0" vol="100" key="66" len="12" pos="3492"/>
          <note pan="0" vol="100" key="67" len="12" pos="3504"/>
          <note pan="0" vol="100" key="66" len="12" pos="3504"/>
          <note pan="0" vol="100" key="67" len="12" pos="3528"/>
          <note pan="0" vol="100" key="66" len="12" pos="3528"/>
          <note pan="0" vol="100" key="67" len="12" pos="3540"/>
          <note pan="0" vol="100" key="66" len="12" pos="3540"/>
          <note pan="0" vol="100" key="67" len="12" pos="3564"/>
          <note pan="0" vol="100" key="66" len="12" pos="3564"/>
          <note pan="0" vol="100" key="67" len="12" pos="3576"/>
          <note pan="0" vol="100" key="66" len="12" pos="3576"/>
          <note pan="0" vol="100" key="67" len="12" pos="3600"/>
          <note pan="0" vol="100" key="66" len="12" pos="3600"/>
          <note pan="0" vol="100" key="67" len="12" pos="3612"/>
          <note pan="0" vol="100" key="66" len="12" pos="3612"/>
          <note pan="0" vol="100" key="67" len="12" pos="3624"/>
          <note pan="0" vol="100" key="66" len="12" pos="3624"/>
          <note pan="0" vol="100" key="67" len="12" pos="3636"/>
          <note pan="0" vol="100" key="66" len="12" pos="3636"/>
          <note pan="0" vol="100" key="67" len="12" pos="3648"/>
          <note pan="0" vol="100" key="66" len="12" pos="3648"/>
          <note pan="0" vol="100" key="67" len="12" pos="3660"/>
          <note pan="0" vol="100" key="66" len="12" pos="3660"/>
          <note pan="0" vol="100" key="67" len="12" pos="3672"/>
          <note pan="0" vol="100" key="66" len="12" pos="3672"/>
          <note pan="0" vol="100" key="67" len="12" pos="3684"/>
          <note pan="0" vol="100" key="66" len="12" pos="3684"/>
          <note pan="0" vol="100" key="67" len="12" pos="3696"/>
          <note pan="0" vol="100" key="66" len="12" pos="3696"/>
          <note pan="0" vol="100" key="67" len="12" pos="3720"/>
          <note pan="0" vol="100" key="66" len="12" pos="3720"/>
          <note pan="0" vol="100" key="67" len="12" pos="3732"/>
          <note pan="0" vol="100" key="66" len="12" pos="3732"/>
          <note pan="0" vol="100" key="67" len="12" pos="3756"/>
          <note pan="0" vol="100" key="66" len="12" pos="3756"/>
          <note pan="0" vol="100" key="67" len="12" pos="3768"/>
          <note pan="0" vol="100" key="66" len="12" pos="3768"/>
          <note pan="0" vol="100" key="67" len="12" pos="3792"/>
          <note pan="0" vol="100" key="66" len="12" pos="3792"/>
          <note pan="0" vol="100" key="67" len="12" pos="3804"/>
          <note pan="0" vol="100" key="66" len="12" pos="3804"/>
          <note pan="0" vol="100" key="67" len="12" pos="3816"/>
          <note pan="0" vol="100" key="66" len="12" pos="3816"/>
          <note pan="0" vol="100" key="67" len="12" pos="3828"/>
          <note pan="0" vol="100" key="66" len="12" pos="3828"/>
          <note pan="0" vol="100" key="67" len="12" pos="3840"/>
          <note pan="0" vol="100" key="66" len="12" pos="3840"/>
          <note pan="0" vol="100" key="67" len="12" pos="3852"/>
          <note pan="0" vol="100" key="66" len="12" pos="3852"/>
          <note pan="0" vol="100" key="67" len="12" pos="3864"/>
          <note pan="0" vol="100" key="66" len="12" pos="3864"/>
          <note pan="0" vol="100" key="67" len="12" pos="3876"/>
          <note pan="0" vol="100" key="66" len="12" pos="3876"/>
          <note pan="0" vol="100" key="67" len="12" pos="3888"/>
          <note pan="0" vol="100" key="66" len="12" pos="3888"/>
          <note pan="0" vol="100" key="67" len="12" pos="3912"/>
          <note pan="0" vol="100" key="66" len="12" pos="3912"/>
          <note pan="0" vol="100" key="67" len="12" pos="3924"/>
          <note pan="0" vol="100" key="66" len="12" pos="3924"/>
          <note pan="0" vol="100" key="67" len="12" pos="3948"/>
          <note pan="0" vol="100" key="66" len="12" pos="3948"/>
          <note pan="0" vol="100" key="67" len="12" pos="3960"/>
          <note pan="0" vol="100" key="66" len="12" pos="3960"/>
          <note pan="0" vol="100" key="67" len="12" pos="3984"/>
          <note pan="0" vol="100" key="66" len="12" pos="3984"/>
          <note pan="0" vol="100" key="67" len="12" pos="3996"/>
          <note pan="0" vol="100" key="66" len="12" pos="3996"/>
          <note pan="0" vol="100" key="67" len="12" pos="4008"/>
          <note pan="0" vol="100" key="66" len="12" pos="4008"/>
          <note pan="0" vol="100" key="67" len="12" pos="4020"/>
          <note pan="0" vol="100" key="66" len="12" pos="4020"/>
          <note pan="0" vol="100" key="67" len="12" pos="4032"/>
          <note pan="0" vol="100" key="66" len="12" pos="4032"/>
          <note pan="0" vol="100" key="67" len="12" pos="4044"/>
          <note pan="0" vol="100" key="66" len="12" pos="4044"/>
          <note pan="0" vol="100" key="67" len="12" pos="4056"/>
          <note pan="0" vol="100" key="66" len="12" pos="4056"/>
          <note pan="0" vol="100" key="67" len="12" pos="4068"/>
          <note pan="0" vol="100" key="66" len="12" pos="4068"/>
          <note pan="0" vol="100" key="67" len="12" pos="4080"/>
          <note pan="0" vol="100" key="66" len="12" pos="4080"/>
          <note pan="0" vol="100" key="67" len="12" pos="4104"/>
          <note pan="0" vol="100" key="66" len="12" pos="4104"/>
          <note pan="0" vol="100" key="67" len="12" pos="4116"/>
          <note pan="0" vol="100" key="66" len="12" pos="4116"/>
          <note pan="0" vol="100" key="67" len="12" pos="4140"/>
          <note pan="0" vol="100" key="66" len="12" pos="4140"/>
          <note pan="0" vol="100" key="67" len="12" pos="4152"/>
          <note pan="0" vol="100" key="66" len="12" pos="4152"/>
          <note pan="0" vol="100" key="67" len="12" pos="4176"/>
          <note pan="0" vol="100" key="66" len="12" pos="4176"/>
          <note pan="0" vol="100" key="67" len="12" pos="4188"/>
          <note pan="0" vol="100" key="66" len="12" pos="4188"/>
          <note pan="0" vol="100" key="67" len="12" pos="4200"/>
          <note pan="0" vol="100" key="66" len="12" pos="4200"/>
          <note pan="0" vol="100" key="67" len="12" pos="4212"/>
          <note pan="0" vol="100" key="66" len="12" pos="4212"/>
          <note pan="0" vol="100" key="67" len="12" pos="4224"/>
          <note pan="0" vol="100" key="66" len="12" pos="4224"/>
          <note pan="0" vol="100" key="67" len="12" pos="4236"/>
          <note pan="0" vol="100" key="66" len="12" pos="4236"/>
          <note pan="0" vol="100" key="67" len="12" pos="4248"/>
          <note pan="0" vol="100" key="66" len="12" pos="4248"/>
          <note pan="0" vol="100" key="67" len="12" pos="4260"/>
          <note pan="0" vol="100" key="66" len="12" pos="4260"/>
          <note pan="0" vol="100" key="67" len="12" pos="4272"/>
          <note pan="0" vol="100" key="66" len="12" pos="4272"/>
          <note pan="0" vol="100" key="67" len="12" pos="4296"/>
          <note pan="0" vol="100" key="66" len="12" pos="4296"/>
          <note pan="0" vol="100" key="67" len="12" pos="4308"/>
          <note pan="0" vol="100" key="66" len="12" pos="4308"/>
          <note pan="0" vol="100" key="67" len="12" pos="4332"/>
          <note pan="0" vol="100" key="66" len="12" pos="4332"/>
          <note pan="0" vol="100" key="67" len="12" pos="4344"/>
          <note pan="0" vol="100" key="66" len="12" pos="4344"/>
          <note pan="0" vol="100" key="67" len="12" pos="4368"/>
          <note pan="0" vol="100" key="66" len="12" pos="4368"/>
          <note pan="0" vol="100" key="67" len="12" pos="4380"/>
          <note pan="0" vol="100" key="66" len="12" pos="4380"/>
          <note pan="0" vol="100" key="67" len="12" pos="4392"/>
          <note pan="0" vol="100" key="66" len="12" pos="4392"/>
          <note pan="0" vol="100" key="67" len="12" pos="4404"/>
          <note pan="0" vol="100" key="66" len="12" pos="4404"/>
          <note pan="0" vol="100" key="67" len="12" pos="4416"/>
          <note pan="0" vol="100" key="66" len="12" pos="4416"/>
          <note pan="0" vol="100" key="67" len="12" pos="4428"/>
          <note pan="0" vol="100" key="66" len="12" pos="4428"/>
          <note pan="0" vol="100" key="67" len="12" pos="4440"/>
          <note pan="0" vol="100" key="66" len="12" pos="4440"/>
          <note pan="0" vol="100" key="67" len="12" pos="4452"/>
          <note pan="0" vol="100" key="66" len="12" pos="4452"/>
          <note pan="0" vol="100" key="67" len="12" pos="4464"/>
          <note pan="0" vol="100" key="66" len="12" pos="4464"/>
          <note pan="0" vol="100" key="67" len="12" pos="4488"/>
          <note pan="0" vol="100" key="66" len="12" pos="4488"/>
          <note pan="0" vol="100" key="67" len="12" pos="4500"/>
          <note pan="0" vol="100" key="66" len="12" pos="4500"/>
          <note pan="0" vol="100" key="67" len="12" pos="4524"/>
          <note pan="0" vol="100" key="66" len="12" pos="4524"/>
          <note pan="0" vol="100" key="67" len="12" pos="4536"/>
          <note pan="0" vol="100" key="66" len="12" pos="4536"/>
          <note pan="0" vol="100" key="67" len="12" pos="4560"/>
          <note pan="0" vol="100" key="66" len="12" pos="4560"/>
          <note pan="0" vol="100" key="67" len="12" pos="4572"/>
          <note pan="0" vol="100" key="66" len="12" pos="4572"/>
          <note pan="0" vol="100" key="67" len="12" pos="4584"/>
          <note pan="0" vol="100" key="66" len="12" pos="4584"/>
          <note pan="0" vol="100" key="67" len="12" pos="4596"/>
          <note pan="0" vol="100" key="66" len="12" pos="4596"/>
          <note pan="0" vol="100" key="67" len="12" pos="4608"/>
          <note pan="0" vol="100" key="66" len="12" pos="4608"/>
          <note pan="0" vol="100" key="67" len="12" pos="4620"/>
          <note pan="0" vol="100" key="66" len="12" pos="4620"/>
          <note pan="0" vol="100" key="67" len="12" pos="4632"/>
          <note pan="0" vol="100" key="66" len="12" pos="4632"/>
          <note pan="0" vol="100" key="67" len="12" pos="4644"/>
          <note pan="0" vol="100" key="66" len="12" pos="4644"/>
          <note pan="0" vol="100" key="67" len="12" pos="4656"/>
          <note pan="0" vol="100" key="66" len="12" pos="4656"/>
          <note pan="0" vol="100" key="67" len="12" pos="4680"/>
          <note pan="0" vol="100" key="66" len="12" pos="4680"/>
          <note pan="0" vol="100" key="67" len="12" pos="4692"/>
          <note pan="0" vol="100" key="66" len="12" pos="4692"/>
          <note pan="0" vol="100" key="67" len="12" pos="4716"/>
          <note pan="0" vol="100" key="66" len="12" pos="4716"/>
          <note pan="0" vol="100" key="67" len="12" pos="4728"/>
          <note pan="0" vol="100" key="66" len="12" pos="4728"/>
          <note pan="0" vol="100" key="67" len="12" pos="4752"/>
          <note pan="0" vol="100" key="66" len="12" pos="4752"/>
          <note pan="0" vol="100" key="67" len="12" pos="4764"/>
          <note pan="0" vol="100" key="66" len="12" pos="4764"/>
          <note pan="0" vol="100" key="67" len="12" pos="4776"/>
          <note pan="0" vol="100" key="66" len="12" pos="4776"/>
          <note pan="0" vol="100" key="67" len="12" pos="4788"/>
          <note pan="0" vol="100" key="66" len="12" pos="4788"/>
          <note pan="0" vol="100" key="67" len="12" pos="4800"/>
          <note pan="0" vol="100" key="66" len="12" pos="4800"/>
          <note pan="0" vol="100" key="67" len="12" pos="4812"/>
          <note pan="0" vol="100" key="66" len="12" pos="4812"/>
          <note pan="0" vol="100" key="67" len="12" pos="4824"/>
          <note pan="0" vol="100" key="66" len="12" pos="4824"/>
          <note pan="0" vol="100" key="67" len="12" pos="4836"/>
          <note pan="0" vol="100" key="66" len="12" pos="4836"/>
          <note pan="0" vol="100" key="67" len="12" pos="4848"/>
          <note pan="0" vol="100" key="66" len="12" pos="4848"/>
          <note pan="0" vol="100" key="67" len="12" pos="4872"/>
          <note pan="0" vol="100" key="66" len="12" pos="4872"/>
          <note pan="0" vol="100" key="67" len="12" pos="4884"/>
          <note pan="0" vol="100" key="66" len="12" pos="4884"/>
          <note pan="0" vol="100" key="67" len="12" pos="4908"/>
          <note pan="0" vol="100" key="66" len="12" pos="4908"/>
          <note pan="0" vol="100" key="67" len="12" pos="4920"/>
          <note pan="0" vol="100" key="66" len="12" pos="4920"/>
          <note pan="0" vol="100" key="67" len="12" pos="4944"/>
          <note pan="0" vol="100" key="66" len="12" pos="4944"/>
          <note pan="0" vol="100" key="67" len="12" pos="4956"/>
          <note pan="0" vol="100" key="66" len="12" pos="4956"/>
          <note pan="0" vol="100" key="67" len="12" pos="4968"/>
          <note pan="0" vol="100" key="66" len="12" pos="4968"/>
          <note pan="0" vol="100" key="67" len="12" pos="4980"/>
          <note pan="0" vol="100" key="66" len="12" pos="4980"/>
          <note pan="0" vol="100" key="67" len="12" pos="4992"/>
          <note pan="0" vol="100" key="66" len="12" pos="4992"/>
          <note pan="0" vol="100" key="67" len="12" pos="5004"/>
          <note pan="0" vol="100" key="66" len="12" pos="5004"/>
          <note pan="0" vol="100" key="67" len="12" pos="5016"/>
          <note pan="0" vol="100" key="66" len="12" pos="5016"/>
          <note pan="0" vol="100" key="67" len="12" pos="5028"/>
          <note pan="0" vol="100" key="66" len="12" pos="5028"/>
          <note pan="0" vol="100" key="67" len="12" pos="5040"/>
          <note pan="0" vol="100" key="66" len="12" pos="5040"/>
          <note pan="0" vol="100" key="67" len="12" pos="5064"/>
          <note pan="0" vol="100" key="66" len="12" pos="5064"/>
          <note pan="0" vol="100" key="67" len="12" pos="5076"/>
          <note pan="0" vol="100" key="66" len="12" pos="5076"/>
          <note pan="0" vol="100" key="67" len="12" pos="5100"/>
          <note pan="0" vol="100" key="66" len="12" pos="5100"/>
          <note pan="0" vol="100" key="67" len="12" pos="5112"/>
          <note pan="0" vol="100" key="66" len="12" pos="5112"/>
          <note pan="0" vol="100" key="67" len="12" pos="5136"/>
          <note pan="0" vol="100" key="66" len="12" pos="5136"/>
          <note pan="0" vol="100" key="67" len="12" pos="5148"/>
          <note pan="0" vol="100" key="66" len="12" pos="5148"/>
          <note pan="0" vol="100" key="67" len="12" pos="5160"/>
          <note pan="0" vol="100" key="66" len="12" pos="5160"/>
          <note pan="0" vol="100" key="67" len="12" pos="5172"/>
          <note pan="0" vol="100" key="66" len="12" pos="5172"/>
          <note pan="0" vol="100" key="67" len="12" pos="5184"/>
          <note pan="0" vol="100" key="66" len="12" pos="5184"/>
          <note pan="0" vol="100" key="67" len="12" pos="5196"/>
          <note pan="0" vol="100" key="66" len="12" pos="5196"/>
          <note pan="0" vol="100" key="67" len="12" pos="5208"/>
          <note pan="0" vol="100" key="66" len="12" pos="5208"/>
          <note pan="0" vol="100" key="67" len="12" pos="5220"/>
          <note pan="0" vol="100" key="66" len="12" pos="5220"/>
          <note pan="0" vol="100" key="67" len="12" pos="5232"/>
          <note pan="0" vol="100" key="66" len="12" pos="5232"/>
          <note pan="0" vol="100" key="67" len="12" pos="5256"/>
          <note pan="0" vol="100" key="66" len="12" pos="5256"/>
          <note pan="0" vol="100" key="67" len="12" pos="5268"/>
          <note pan="0" vol="100" key="66" len="12" pos="5268"/>
          <note pan="0" vol="100" key="67" len="12" pos="5292"/>
          <note pan="0" vol="100" key="66" len="12" pos="5292"/>
          <note pan="0" vol="100" key="67" len="12" pos="5304"/>
          <note pan="0" vol="100" key="66" len="12" pos="5304"/>
          <note pan="0" vol="100" key="67" len="12" pos="5328"/>
          <note pan="0" vol="100" key="66" len="12" pos="5328"/>
          <note pan="0" vol="100" key="67" len="12" pos="5340"/>
          <note pan="0" vol="100" key="66" len="12" pos="5340"/>
          <note pan="0" vol="100" key="67" len="12" pos="5352"/>
          <note pan="0" vol="100" key="66" len="12" pos="5352"/>
          <note pan="0" vol="100" key="67" len="12" pos="5364"/>
          <note pan="0" vol="100" key="66" len="12" pos="5364"/>
          <note pan="0" vol="100" key="67" len="12" pos="5376"/>
          <note pan="0" vol="100" key="66" len="12" pos="5376"/>
          <note pan="0" vol="100" key="67" len="12" pos="5388"/>
          <note pan="0" vol="100" key="66" len="12" pos="5388"/>
          <note pan="0" vol="100" key="67" len="12" pos="5400"/>
          <note pan="0" vol="100" key="66" len="12" pos="5400"/>
          <note pan="0" vol="100" key="67" len="12" pos="5412"/>
          <note pan="0" vol="100" key="66" len="12" pos="5412"/>
          <note pan="0" vol="100" key="67" len="12" pos="5424"/>
          <note pan="0" vol="100" key="66" len="12" pos="5424"/>
          <note pan="0" vol="100" key="67" len="12" pos="5448"/>
          <note pan="0" vol="100" key="66" len="12" pos="5448"/>
          <note pan="0" vol="100" key="67" len="12" pos="5460"/>
          <note pan="0" vol="100" key="66" len="12" pos="5460"/>
          <note pan="0" vol="100" key="67" len="12" pos="5484"/>
          <note pan="0" vol="100" key="66" len="12" pos="5484"/>
          <note pan="0" vol="100" key="67" len="12" pos="5496"/>
          <note pan="0" vol="100" key="66" len="12" pos="5496"/>
          <note pan="0" vol="100" key="67" len="12" pos="5520"/>
          <note pan="0" vol="100" key="66" len="12" pos="5520"/>
          <note pan="0" vol="100" key="67" len="12" pos="5532"/>
          <note pan="0" vol="100" key="66" len="12" pos="5532"/>
          <note pan="0" vol="100" key="67" len="12" pos="5544"/>
          <note pan="0" vol="100" key="66" len="12" pos="5544"/>
          <note pan="0" vol="100" key="67" len="12" pos="5556"/>
          <note pan="0" vol="100" key="66" len="12" pos="5556"/>
          <note pan="0" vol="100" key="67" len="12" pos="5568"/>
          <note pan="0" vol="100" key="66" len="12" pos="5568"/>
          <note pan="0" vol="100" key="67" len="12" pos="5580"/>
          <note pan="0" vol="100" key="66" len="12" pos="5580"/>
          <note pan="0" vol="100" key="67" len="12" pos="5592"/>
          <note pan="0" vol="100" key="66" len="12" pos="5592"/>
          <note pan="0" vol="100" key="67" len="12" pos="5604"/>
          <note pan="0" vol="100" key="66" len="12" pos="5604"/>
          <note pan="0" vol="100" key="67" len="12" pos="5616"/>
          <note pan="0" vol="100" key="66" len="12" pos="5616"/>
          <note pan="0" vol="100" key="67" len="12" pos="5640"/>
          <note pan="0" vol="100" key="66" len="12" pos="5640"/>
          <note pan="0" vol="100" key="67" len="12" pos="5652"/>
          <note pan="0" vol="100" key="66" len="12" pos="5652"/>
          <note pan="0" vol="100" key="67" len="12" pos="5676"/>
          <note pan="0" vol="100" key="66" len="12" pos="5676"/>
          <note pan="0" vol="100" key="67" len="12" pos="5688"/>
          <note pan="0" vol="100" key="66" len="12" pos="5688"/>
          <note pan="0" vol="100" key="67" len="12" pos="5712"/>
          <note pan="0" vol="100" key="66" len="12" pos="5712"/>
          <note pan="0" vol="100" key="67" len="12" pos="5724"/>
          <note pan="0" vol="100" key="66" len="12" pos="5724"/>
          <note pan="0" vol="100" key="67" len="12" pos="5736"/>
          <note pan="0" vol="100" key="66" len="12" pos="5736"/>
          <note pan="0" vol="100" key="67" len="12" pos="5748"/>
          <note pan="0" vol="100" key="66" len="12" pos="5748"/>
          <note pan="0" vol="100" key="67" len="12" pos="5760"/>
          <note pan="0" vol="100" key="66" len="12" pos="5760"/>
          <note pan="0" vol="100" key="67" len="12" pos="5772"/>
          <note pan="0" vol="100" key="66" len="12" pos="5772"/>
          <note pan="0" vol="100" key="67" len="12" pos="5784"/>
          <note pan="0" vol="100" key="66" len="12" pos="5784"/>
          <note pan="0" vol="100" key="67" len="12" pos="5796"/>
          <note pan="0" vol="100" key="66" len="12" pos="5796"/>
          <note pan="0" vol="100" key="67" len="12" pos="5808"/>
          <note pan="0" vol="100" key="66" len="12" pos="5808"/>
          <note pan="0" vol="100" key="67" len="12" pos="5832"/>
          <note pan="0" vol="100" key="66" len="12" pos="5832"/>
          <note pan="0" vol="100" key="67" len="12" pos="5844"/>
          <note pan="0" vol="100" key="66" len="12" pos="5844"/>
          <note pan="0" vol="100" key="67" len="12" pos="5868"/>
          <note pan="0" vol="100" key="66" len="12" pos="5868"/>
          <note pan="0" vol="100" key="67" len="12" pos="5880"/>
          <note pan="0" vol="100" key="66" len="12" pos="5880"/>
          <note pan="0" vol="100" key="67" len="12" pos="5904"/>
          <note pan="0" vol="100" key="66" len="12" pos="5904"/>
          <note pan="0" vol="100" key="67" len="12" pos="5916"/>
          <note pan="0" vol="100" key="66" len="12" pos="5916"/>
          <note pan="0" vol="100" key="67" len="12" pos="5928"/>
          <note pan="0" vol="100" key="66" len="12" pos="5928"/>
          <note pan="0" vol="100" key="67" len="12" pos="5940"/>
          <note pan="0" vol="100" key="66" len="12" pos="5940"/>
          <note pan="0" vol="100" key="67" len="12" pos="5952"/>
          <note pan="0" vol="100" key="66" len="12" pos="5952"/>
          <note pan="0" vol="100" key="67" len="12" pos="5964"/>
          <note pan="0" vol="100" key="66" len="12" pos="5964"/>
          <note pan="0" vol="100" key="67" len="12" pos="5976"/>
          <note pan="0" vol="100" key="66" len="12" pos="5976"/>
          <note pan="0" vol="100" key="67" len="12" pos="5988"/>
          <note pan="0" vol="100" key="66" len="12" pos="5988"/>
          <note pan="0" vol="100" key="67" len="12" pos="6000"/>
          <note pan="0" vol="100" key="66" len="12" pos="6000"/>
          <note pan="0" vol="100" key="67" len="12" pos="6024"/>
          <note pan="0" vol="100" key="66" len="12" pos="6024"/>
          <note pan="0" vol="100" key="67" len="12" pos="6036"/>
          <note pan="0" vol="100" key="66" len="12" pos="6036"/>
          <note pan="0" vol="100" key="67" len="12" pos="6060"/>
          <note pan="0" vol="100" key="66" len="12" pos="6060"/>
          <note pan="0" vol="100" key="67" len="12" pos="6072"/>
          <note pan="0" vol="100" key="66" len="12" pos="6072"/>
          <note pan="0" vol="100" key="67" len="12" pos="6096"/>
          <note pan="0" vol="100" key="66" len="12" pos="6096"/>
          <note pan="0" vol="100" key="67" len="12" pos="6108"/>
          <note pan="0" vol="100" key="66" len="12" pos="6108"/>
          <note pan="0" vol="100" key="67" len="12" pos="6120"/>
          <note pan="0" vol="100" key="66" len="12" pos="6120"/>
          <note pan="0" vol="100" key="67" len="12" pos="6132"/>
          <note pan="0" vol="100" key="66" len="12" pos="6132"/>
          <note pan="0" vol="100" key="67" len="12" pos="6144"/>
          <note pan="0" vol="100" key="66" len="12" pos="6144"/>
          <note pan="0" vol="100" key="67" len="12" pos="6156"/>
          <note pan="0" vol="100" key="66" len="12" pos="6156"/>
          <note pan="0" vol="100" key="67" len="12" pos="6168"/>
          <note pan="0" vol="100" key="66" len="12" pos="6168"/>
          <note pan="0" vol="100" key="67" len="12" pos="6180"/>
          <note pan="0" vol="100" key="66" len="12" pos="6180"/>
          <note pan="0" vol="100" key="67" len="12" pos="6192"/>
          <note pan="0" vol="100" key="66" len="12" pos="6192"/>
          <note pan="0" vol="100" key="67" len="12" pos="6216"/>
          <note pan="0" vol="100" key="66" len="12" pos="6216"/>
          <note pan="0" vol="100" key="67" len="12" pos="6228"/>
          <note pan="0" vol="100" key="66" len="12" pos="6228"/>
          <note pan="0" vol="100" key="67" len="12" pos="6252"/>
          <note pan="0" vol="100" key="66" len="12" pos="6252"/>
          <note pan="0" vol="100" key="67" len="12" pos="6264"/>
          <note pan="0" vol="100" key="66" len="12" pos="6264"/>
          <note pan="0" vol="100" key="67" len="12" pos="6288"/>
          <note pan="0" vol="100" key="66" len="12" pos="6288"/>
          <note pan="0" vol="100" key="67" len="12" pos="6300"/>
          <note pan="0" vol="100" key="66" len="12" pos="6300"/>
          <note pan="0" vol="100" key="67" len="12" pos="6312"/>
          <note pan="0" vol="100" key="66" len="12" pos="6312"/>
          <note pan="0" vol="100" key="67" len="12" pos="6324"/>
          <note pan="0" vol="100" key="66" len="12" pos="6324"/>
          <note pan="0" vol="100" key="67" len="12" pos="6336"/>
          <note pan="0" vol="100" key="66" len="12" pos="6336"/>
          <note pan="0" vol="100" key="67" len="12" pos="6348"/>
          <note pan="0" vol="100" key="66" len="12" pos="6348"/>
          <note pan="0" vol="100" key="67" len="12" pos="6360"/>
          <note pan="0" vol="100" key="66" len="12" pos="6360"/>
          <note pan="0" vol="100" key="67" len="12" pos="6372"/>
          <note pan="0" vol="100" key="66" len="12" pos="6372"/>
          <note pan="0" vol="100" key="67" len="12" pos="6384"/>
          <note pan="0" vol="100" key="66" len="12" pos="6384"/>
          <note pan="0" vol="100" key="67" len="12" pos="6408"/>
          <note pan="0" vol="100" key="66" len="12" pos="6408"/>
          <note pan="0" vol="100" key="67" len="12" pos="6420"/>
          <note pan="0" vol="100" key="66" len="12" pos="6420"/>
          <note pan="0" vol="100" key="67" len="12" pos="6444"/>
          <note pan="0" vol="100" key="66" len="12" pos="6444"/>
          <note pan="0" vol="100" key="67" len="12" pos="6456"/>
          <note pan="0" vol="100" key="66" len="12" pos="6456"/>
          <note pan="0" vol="100" key="67" len="12" pos="6480"/>
          <note pan="0" vol="100" key="66" len="12" pos="6480"/>
          <note pan="0" vol="100" key="67" len="12" pos="6492"/>
          <note pan="0" vol="100" key="66" len="12" pos="6492"/>
          <note pan="0" vol="100" key="67" len="12" pos="6504"/>
          <note pan="0" vol="100" key="66" len="12" pos="6504"/>
          <note pan="0" vol="100" key="67" len="12" pos="6516"/>
          <note pan="0" vol="100" key="66" len="12" pos="6516"/>
          <note pan="0" vol="100" key="67" len="12" pos="6528"/>
          <note pan="0" vol="100" key="66" len="12" pos="6528"/>
          <note pan="0" vol="100" key="67" len="12" pos="6540"/>
          <note pan="0" vol="100" key="66" len="12" pos="6540"/>
          <note pan="0" vol="100" key="67" len="12" pos="6552"/>
          <note pan="0" vol="100" key="66" len="12" pos="6552"/>
          <note pan="0" vol="100" key="67" len="12" pos="6564"/>
          <note pan="0" vol="100" key="66" len="12" pos="6564"/>
          <note pan="0" vol="100" key="67" len="12" pos="6576"/>
          <note pan="0" vol="100" key="66" len="12" pos="6576"/>
          <note pan="0" vol="100" key="67" len="12" pos="6600"/>
          <note pan="0" vol="100" key="66" len="12" pos="6600"/>
          <note pan="0" vol="100" key="67" len="12" pos="6612"/>
          <note pan="0" vol="100" key="66" len="12" pos="6612"/>
          <note pan="0" vol="100" key="67" len="12" pos="6636"/>
          <note pan="0" vol="100" key="66" len="12" pos="6636"/>
          <note pan="0" vol="100" key="67" len="12" pos="6648"/>
          <note pan="0" vol="100" key="66" len="12" pos="6648"/>
          <note pan="0" vol="100" key="67" len="12" pos="6672"/>
          <note pan="0" vol="100" key="66" len="12" pos="6672"/>
          <note pan="0" vol="100" key="67" len="12" pos="6684"/>
          <note pan="0" vol="100" key="66" len="12" pos="6684"/>
          <note pan="0" vol="100" key="67" len="12" pos="6696"/>
          <note pan="0" vol="100" key="66" len="12" pos="6696"/>
          <note pan="0" vol="100" key="67" len="12" pos="6708"/>
          <note pan="0" vol="100" key="66" len="12" pos="6708"/>
          <note pan="0" vol="100" key="67" len="12" pos="6720"/>
          <note pan="0" vol="100" key="66" len="12" pos="6720"/>
          <note pan="0" vol="100" key="67" len="12" pos="6732"/>
          <note pan="0" vol="100" key="66" len="12" pos="6732"/>
          <note pan="0" vol="100" key="67" len="12" pos="6744"/>
          <note pan="0" vol="100" key="66" len="12" pos="6744"/>
          <note pan="0" vol="100" key="67" len="12" pos="6756"/>
          <note pan="0" vol="100" key="66" len="12" pos="6756"/>
          <note pan="0" vol="100" key="67" len="12" pos="6768"/>
          <note pan="0" vol="100" key="66" len="12" pos="6768"/>
          <note pan="0" vol="100" key="67" len="12" pos="6792"/>
          <note pan="0" vol="100" key="66" len="12" pos="6792"/>
          <note pan="0" vol="100" key="67" len="12" pos="6804"/>
          <note pan="0" vol="100" key="66" len="12" pos="6804"/>
          <note pan="0" vol="100" key="67" len="12" pos="6828"/>
          <note pan="0" vol="100" key="66" len="12" pos="6828"/>
          <note pan="0" vol="100" key="67" len="12" pos="6840"/>
          <note pan="0" vol="100" key="66" len="12" pos="6840"/>
          <note pan="0" vol="100" key="67" len="12" pos="6864"/>
          <note pan="0" vol="100" key="66" len="12" pos="6864"/>
          <note pan="0" vol="100" key="67" len="12" pos="6876"/>
          <note pan="0" vol="100" key="66" len="12" pos="6876"/>
          <note pan="0" vol="100" key="67" len="12" pos="6888"/>
          <note pan="0" vol="100" key="66" len="12" pos="6888"/>
          <note pan="0" vol="100" key="67" len="12" pos="6900"/>
          <note pan="0" vol="100" key="66" len="12" pos="6900"/>
          <note pan="0" vol="100" key="67" len="12" pos="6912"/>
          <note pan="0" vol="100" key="66" len="12" pos="6912"/>
          <note pan="0" vol="100" key="67" len="12" pos="6924"/>
          <note pan="0" vol="100" key="66" len="12" pos="6924"/>
          <note pan="0" vol="100" key="67" len="12" pos="6936"/>
          <note pan="0" vol="100" key="66" len="12" pos="6936"/>
          <note pan="0" vol="100" key="67" len="12" pos="6948"/>
          <note pan="0" vol="100" key="66" len="12" pos="6948"/>
          <note pan="0" vol="100" key="67" len="12" pos="6960"/>
          <note pan="0" vol="100" key="66" len="12" pos="6960"/>
          <note pan="0" vol="100" key="67" len="12" pos="6984"/>
          <note pan="0" vol="100" key="66" len="12" pos="6984"/>
          <note pan="0" vol="100" key="67" len="12" pos="6996"/>
          <note pan="0" vol="100" key="66" len="12" pos="6996"/>
          <note pan="0" vol="100" key="67" len="12" pos="7020"/>
          <note pan="0" vol="100" key="66" len="12" pos="7020"/>
          <note pan="0" vol="100" key="67" len="12" pos="7032"/>
          <note pan="0" vol="100" key="66" len="12" pos="7032"/>
          <note pan="0" vol="100" key="67" len="12" pos="7056"/>
          <note pan="0" vol="100" key="66" len="12" pos="7056"/>
          <note pan="0" vol="100" key="67" len="12" pos="7068"/>
          <note pan="0" vol="100" key="66" len="12" pos="7068"/>
          <note pan="0" vol="100" key="67" len="12" pos="7080"/>
          <note pan="0" vol="100" key="66" len="12" pos="7080"/>
          <note pan="0" vol="100" key="67" len="12" pos="7092"/>
          <note pan="0" vol="100" key="66" len="12" pos="7092"/>
          <note pan="0" vol="100" key="67" len="12" pos="7104"/>
          <note pan="0" vol="100" key="66" len="12" pos="7104"/>
          <note pan="0" vol="100" key="67" len="12" pos="7116"/>
          <note pan="0" vol="100" key="66" len="12" pos="7116"/>
          <note pan="0" vol="100" key="67" len="12" pos="7128"/>
          <note pan="0" vol="100" key="66" len="12" pos="7128"/>
          <note pan="0" vol="100" key="67" len="12" pos="7140"/>
          <note pan="0" vol="100" key="66" len="12" pos="7140"/>
          <note pan="0" vol="100" key="67" len="12" pos="7152"/>
          <note pan="0" vol="100" key="66" len="12" pos="7152"/>
          <note pan="0" vol="100" key="67" len="12" pos="7176"/>
          <note pan="0" vol="100" key="66" len="12" pos="7176"/>
          <note pan="0" vol="100" key="67" len="12" pos="7188"/>
          <note pan="0" vol="100" key="66" len="12" pos="7188"/>
          <note pan="0" vol="100" key="67" len="12" pos="7212"/>
          <note pan="0" vol="100" key="66" len="12" pos="7212"/>
          <note pan="0" vol="100" key="67" len="12" pos="7224"/>
          <note pan="0" vol="100" key="66" len="12" pos="7224"/>
          <note pan="0" vol="100" key="67" len="12" pos="7248"/>
          <note pan="0" vol="100" key="66" len="12" pos="7248"/>
          <note pan="0" vol="100" key="67" len="12" pos="7260"/>
          <note pan="0" vol="100" key="66" len="12" pos="7260"/>
          <note pan="0" vol="100" key="67" len="12" pos="7272"/>
          <note pan="0" vol="100" key="66" len="12" pos="7272"/>
          <note pan="0" vol="100" key="67" len="12" pos="7284"/>
          <note pan="0" vol="100" key="66" len="12" pos="7284"/>
          <note pan="0" vol="100" key="67" len="12" pos="7296"/>
          <note pan="0" vol="100" key="66" len="12" pos="7296"/>
          <note pan="0" vol="100" key="67" len="12" pos="7308"/>
          <note pan="0" vol="100" key="66" len="12" pos="7308"/>
          <note pan="0" vol="100" key="67" len="12" pos="7320"/>
          <note pan="0" vol="100" key="66" len="12" pos="7320"/>
          <note pan="0" vol="100" key="67" len="12" pos="7332"/>
          <note pan="0" vol="100" key="66" len="12" pos="7332"/>
          <note pan="0" vol="100" key="67" len="12" pos="7344"/>
          <note pan="0" vol="100" key="66" len="12" pos="7344"/>
          <note pan="0" vol="100" key="67" len="12" pos="7368"/>
          <note pan="0" vol="100" key="66" len="12" pos="7368"/>
          <note pan="0" vol="100" key="67" len="12" pos="7380"/>
          <note pan="0" vol="100" key="66" len="12" pos="7380"/>
          <note pan="0" vol="100" key="67" len="12" pos="7404"/>
          <note pan="0" vol="100" key="66" len="12" pos="7404"/>
          <note pan="0" vol="100" key="67" len="12" pos="7416"/>
          <note pan="0" vol="100" key="66" len="12" pos="7416"/>
          <note pan="0" vol="100" key="67" len="12" pos="7440"/>
          <note pan="0" vol="100" key="66" len="12" pos="7440"/>
          <note pan="0" vol="100" key="67" len="12" pos="7452"/>
          <note pan="0" vol="100" key="66" len="12" pos="7452"/>
          <note pan="0" vol="100" key="67" len="12" pos="7464"/>
          <note pan="0" vol="100" key="66" len="12" pos="7464"/>
          <note pan="0" vol="100" key="67" len="12" pos="7476"/>
          <note pan="0" vol="100" key="66" len="12" pos="7476"/>
          <note pan="0" vol="100" key="67" len="12" pos="7488"/>
          <note pan="0" vol="100" key="66" len="12" pos="7488"/>
          <note pan="0" vol="100" key="67" len="12" pos="7500"/>
          <note pan="0" vol="100" key="66" len="12" pos="7500"/>
          <note pan="0" vol="100" key="67" len="12" pos="7512"/>
          <note pan="0" vol="100" key="66" len="12" pos="7512"/>
          <note pan="0" vol="100" key="67" len="12" pos="7524"/>
          <note pan="0" vol="100" key="66" len="12" pos="7524"/>
          <note pan="0" vol="100" key="67" len="12" pos="7536"/>
          <note pan="0" vol="100" key="66" len="12" pos="7536"/>
          <note pan="0" vol="100" key="67" len="12" pos="7560"/>
          <note pan="0" vol="100" key="66" len="12" pos="7560"/>
          <note pan="0" vol="100" key="67" len="12" pos="7572"/>
          <note pan="0" vol="100" key="66" len="12" pos="7572"/>
          <note pan="0" vol="100" key="67" len="12" pos="7596"/>
          <note pan="0" vol="100" key="66" len="12" pos="7596"/>
          <note pan="0" vol="100" key="67" len="12" pos="7608"/>
          <note pan="0" vol="100" key="66" len="12" pos="7608"/>
          <note pan="0" vol="100" key="67" len="12" pos="7632"/>
          <note pan="0" vol="100" key="66" len="12" pos="7632"/>
          <note pan="0" vol="100" key="67" len="12" pos="7644"/>
          <note pan="0" vol="100" key="66" len="12" pos="7644"/>
          <note pan="0" vol="100" key="67" len="12" pos="7656"/>
          <note pan="0" vol="100" key="66" len="12" pos="7656"/>
          <note pan="0" vol="100" key="67" len="12" pos="7668"/>
          <note pan="0" vol="100" key="66" len="12" pos="7668"/>
          <note pan="0" vol="100" key="67" len="12" pos="7680"/>
          <note pan="0" vol="100" key="66" len="12" pos="7680"/>
          <note pan="0" vol="100" key="67" len="12" pos="7692"/>
          <note pan="0" vol="100" key="66" len="12" pos="7692"/>
          <note pan="0" vol="100" key="67" len="12" pos="7704"/>
          <note pan="0" vol="100" key="66" len="12" pos="7704"/>
          <note pan="0" vol="100" key="67" len="12" pos="7716"/>
          <note pan="0" vol="100" key="66" len="12" pos="7716"/>
          <note pan="0" vol="100" key="67" len="12" pos="7728"/>
          <note pan="0" vol="100" key="66" len="12" pos="7728"/>
          <note pan="0" vol="100" key="67" len="12" pos="7752"/>
          <note pan="0" vol="100" key="66" len="12" pos="7752"/>
          <note pan="0" vol="100" key="67" len="12" pos="7764"/>
          <note pan="0" vol="100" key="66" len="12" pos="7764"/>
          <note pan="0" vol="100" key="67" len="12" pos="7788"/>
          <note pan="0" vol="100" key="66" len="12" pos="7788"/>
          <note pan="0" vol="100" key="67" len="12" pos="7800"/>
          <note pan="0" vol="100" key="66" len="12" pos="7800"/>
          <note pan="0" vol="100" key="67" len="12" pos="7824"/>
          <note pan="0" vol="100" key="66" len="12" pos="7824"/>
          <note pan="0" vol="100" key="67" len="12" pos="7836"/>
          <note pan="0" vol="100" key="66" len="12" pos="7836"/>
          <note pan="0" vol="100" key="67" len="12" pos="7848"/>
          <note pan="0" vol="100" key="66" len="12" pos="7848"/>
          <note pan="0" vol="100" key="67" len="12" pos="7860"/>
          <note pan="0" vol="100" key="66" len="12" pos="7860"/>
          <note pan="0" vol="100" key="67" len="12" pos="7872"/>
          <note pan="0" vol="100" key="66" len="12" pos="7872"/>
          <note pan="0" vol="100" key="67" len="12" pos="7884"/>
          <note pan="0" vol="100" key="66" len="12" pos="7884"/>
          <note pan="0" vol="100" key="67" len="12" pos="7896"/>
          <note pan="0" vol="100" key="66" len="12" pos="7896"/>
          <note pan="0" vol="100" key="67" len="12" pos="7908"/>
          <note pan="0" vol="100" key="66" len="12" pos="7908"/>
          <note pan="0" vol="100" key="67" len="12" pos="7920"/>
          <note pan="0" vol="100" key="66" len="12" pos="7920"/>
          <note pan="0" vol="100" key="67" len="12" pos="7944"/>
          <note pan="0" vol="100" key="66" len="12" pos="7944"/>
          <note pan="0" vol="100" key="67" len="12" pos="7956"/>
          <note pan="0" vol="100" key="66" len="12" pos="7956"/>
          <note pan="0" vol="100" key="67" len="12" pos="7980"/>
          <note pan="0" vol="100" key="66" len="12" pos="7980"/>
          <note pan="0" vol="100" key="67" len="12" pos="7992"/>
          <note pan="0" vol="100" key="66" len="12" pos="7992"/>
          <note pan="0" vol="100" key="67" len="12" pos="8016"/>
          <note pan="0" vol="100" key="66" len="12" pos="8016"/>
          <note pan="0" vol="100" key="67" len="12" pos="8028"/>
          <note pan="0" vol="100" key="66" len="12" pos="8028"/>
          <note pan="0" vol="100" key="67" len="12" pos="8040"/>
          <note pan="0" vol="100" key="66" len="12" pos="8040"/>
          <note pan="0" vol="100" key="67" len="12" pos="8052"/>
          <note pan="0" vol="100" key="66" len="12" pos="8052"/>
          <note pan="0" vol="100" key="67" len="12" pos="8064"/>
          <note pan="0" vol="100" key="66" len="12" pos="8064"/>
          <note pan="0" vol="100" key="67" len="12" pos="8076"/>
          <note pan="0" vol="100" key="66" len="12" pos="8076"/>
          <note pan="0" vol="100" key="67" len="12" pos="8088"/>
          <note pan="0" vol="100" key="66" len="12" pos="8088"/>
          <note pan="0" vol="100" key="67" len="12" pos="8100"/>
          <note pan="0" vol="100" key="66" len="12" pos="8100"/>
          <note pan="0" vol="100" key="67" len="12" pos="8112"/>
          <note pan="0" vol="100" key="66" len="12" pos="8112"/>
          <note pan="0" vol="100" key="67" len="12" pos="8136"/>
          <note pan="0" vol="100" key="66" len="12" pos="8136"/>
          <note pan="0" vol="100" key="67" len="12" pos="8148"/>
          <note pan="0" vol="100" key="66" len="12" pos="8148"/>
          <note pan="0" vol="100" key="67" len="12" pos="8172"/>
          <note pan="0" vol="100" key="66" len="12" pos="8172"/>
          <note pan="0" vol="100" key="67" len="12" pos="8184"/>
          <note pan="0" vol="100" key="66" len="12" pos="8184"/>
          <note pan="0" vol="100" key="67" len="12" pos="8208"/>
          <note pan="0" vol="100" key="66" len="12" pos="8208"/>
          <note pan="0" vol="100" key="67" len="12" pos="8220"/>
          <note pan="0" vol="100" key="66" len="12" pos="8220"/>
          <note pan="0" vol="100" key="67" len="12" pos="8232"/>
          <note pan="0" vol="100" key="66" len="12" pos="8232"/>
          <note pan="0" vol="100" key="67" len="12" pos="8244"/>
          <note pan="0" vol="100" key="66" len="12" pos="8244"/>
          <note pan="0" vol="100" key="67" len="12" pos="8256"/>
          <note pan="0" vol="100" key="66" len="12" pos="8256"/>
          <note pan="0" vol="100" key="67" len="12" pos="8268"/>
          <note pan="0" vol="100" key="66" len="12" pos="8268"/>
          <note pan="0" vol="100" key="67" len="12" pos="8280"/>
          <note pan="0" vol="100" key="66" len="12" pos="8280"/>
          <note pan="0" vol="100" key="67" len="12" pos="8292"/>
          <note pan="0" vol="100" key="66" len="12" pos="8292"/>
          <note pan="0" vol="100" key="67" len="12" pos="8304"/>
          <note pan="0" vol="100" key="66" len="12" pos="8304"/>
          <note pan="0" vol="100" key="67" len="12" pos="8328"/>
          <note pan="0" vol="100" key="66" len="12" pos="8328"/>
          <note pan="0" vol="100" key="67" len="12" pos="8340"/>
          <note pan="0" vol="100" key="66" len="12" pos="8340"/>
          <note pan="0" vol="100" key="67" len="12" pos="8364"/>
          <note pan="0" vol="100" key="66" len="12" pos="8364"/>
          <note pan="0" vol="100" key="67" len="12" pos="8376"/>
          <note pan="0" vol="100" key="66" len="12" pos="8376"/>
          <note pan="0" vol="100" key="67" len="12" pos="8400"/>
          <note pan="0" vol="100" key="66" len="12" pos="8400"/>
          <note pan="0" vol="100" key="67" len="12" pos="8412"/>
          <note pan="0" vol="100" key="66" len="12" pos="8412"/>
          <note pan="0" vol="100" key="67" len="12" pos="8424"/>
          <note pan="0" vol="100" key="66" len="12" pos="8424"/>
          <note pan="0" vol="100" key="67" len="12" pos="8436"/>
          <note pan="0" vol="100" key="66" len="12" pos="8436"/>
          <note pan="0" vol="100" key="67" len="12" pos="8448"/>
          <note pan="0" vol="100" key="66" len="12" pos="8448"/>
          <note pan="0" vol="100" key="67" len="12" pos="8460"/>
          <note pan="0" vol="100" key="66" len="12" pos="8460"/>
          <note pan="0" vol="100" key="67" len="12" pos="8472"/>
          <note pan="0" vol="100" key="66" len="12" pos="8472"/>
          <note pan="0" vol="100" key="67" len="12" pos="8484"/>
          <note pan="0" vol="100" key="66" len="12" pos="8484"/>
          <note pan="0" vol="100" key="67" len="12" pos="8496"/>
          <note pan="0" vol="100" key="66" len="12" pos="8496"/>
          <note pan="0" vol="100" key="67" len="12" pos="8520"/>
          <note pan="0" vol="100" key="66" len="12" pos="8520"/>
          <note pan="0" vol="100" key="67" len="12" pos="8532"/>
          <note pan="0" vol="100" key="66" len="12" pos="8532"/>
          <note pan="0" vol="100" key="67" len="12" pos="8556"/>
          <note pan="0" vol="100" key="66" len="12" pos="8556"/>
          <note pan="0" vol="100" key="67" len="12" pos="8568"/>
          <note pan="0" vol="100" key="66" len="12" pos="8568"/>
          <note pan="0" vol="100" key="67" len="12" pos="8592"/>
          <note pan="0" vol="100" key="66" len="12" pos="8592"/>
          <note pan="0" vol="100" key="67" len="12" pos="8604"/>
          <note pan="0" vol="100" key="66" len="12" pos="8604"/>
          <note pan="0" vol="100" key="67" len="12" pos="8616"/>
          <note pan="0" vol="100" key="66" len="12" pos="8616"/>
          <note pan="0" vol="100" key="67" len="12" pos="8628"/>
          <note pan="0" vol="100" key="66" len="12" pos="8628"/>
          <note pan="0" vol="100" key="67" len="12" pos="8640"/>
          <note pan="0" vol="100" key="66" len="12" pos="8640"/>
          <note pan="0" vol="100" key="67" len="12" pos="8652"/>
          <note pan="0" vol="100" key="66" len="12" pos="8652"/>
          <note pan="0" vol="100" key="67" len="12" pos="8664"/>
          <note pan="0" vol="100" key="66" len="12" pos="8664"/>
          <note pan="0" vol="100" key="67" len="12" pos="8676"/>
          <note pan="0" vol="100" key="66" len="12" pos="8676"/>
          <note pan="0" vol="100" key="67" len="12" pos="8688"/>
          <note pan="0" vol="100" key="66" len="12" pos="8688"/>
          <note pan="0" vol="100" key="67" len="12" pos="8712"/>
          <note pan="0" vol="100" key="66" len="12" pos="8712"/>
          <note pan="0" vol="100" key="67" len="12" pos="8724"/>
          <note pan="0" vol="100" key="66" len="12" pos="8724"/>
          <note pan="0" vol="100" key="67" len="12" pos="8748"/>
          <note pan="0" vol="100" key="66" len="12" pos="8748"/>
          <note pan="0" vol="100" key="67" len="12" pos="8760"/>
          <note pan="0" vol="100" key="66" len="12" pos="8760"/>
          <note pan="0" vol="100" key="67" len="12" pos="8784"/>
          <note pan="0" vol="100" key="66" len="12" pos="8784"/>
          <note pan="0" vol="100" key="67" len="12" pos="8796"/>
          <note pan="0" vol="100" key="66" len="12" pos="8796"/>
          <note pan="0" vol="100" key="67" len="12" pos="8808"/>
          <note pan="0" vol="100" key="66" len="12" pos="8808"/>
          <note pan="0" vol="100" key="67" len="12" pos="8820"/>
          <note pan="0" vol="100" key="66" len="12" pos="8820"/>
          <note pan="0" vol="100" key="67" len="12" pos="8832"/>
          <note pan="0" vol="100" key="66" len="12" pos="8832"/>
          <note pan="0" vol="100" key="67" len="12" pos="8844"/>
          <note pan="0" vol="100" key="66" len="12" pos="8844"/>
          <note pan="0" vol="100" key="67" len="12" pos="8856"/>
          <note pan="0" vol="100" key="66" len="12" pos="8856"/>
          <note pan="0" vol="100" key="67" len="12" pos="8868"/>
          <note pan="0" vol="100" key="66" len="12" pos="8868"/>
          <note pan="0" vol="100" key="67" len="12" pos="8880"/>
          <note pan="0" vol="100" key="66" len="12" pos="8880"/>
          <note pan="0" vol="100" key="67" len="12" pos="8904"/>
          <note pan="0" vol="100" key="66" len="12" pos="8904"/>
          <note pan="0" vol="100" key="67" len="12" pos="8916"/>
          <note pan="0" vol="100" key="66" len="12" pos="8916"/>
          <note pan="0" vol="100" key="67" len="12" pos="8940"/>
          <note pan="0" vol="100" key="66" len="12" pos="8940"/>
          <note pan="0" vol="100" key="67" len="12" pos="8952"/>
          <note pan="0" vol="100" key="66" len="12" pos="8952"/>
          <note pan="0" vol="100" key="67" len="12" pos="8976"/>
          <note pan="0" vol="100" key="66" len="12" pos="8976"/>
          <note pan="0" vol="100" key="67" len="12" pos="8988"/>
          <note pan="0" vol="100" key="66" len="12" pos="8988"/>
          <note pan="0" vol="100" key="67" len="12" pos="9000"/>
          <note pan="0" vol="100" key="66" len="12" pos="9000"/>
          <note pan="0" vol="100" key="67" len="12" pos="9012"/>
          <note pan="0" vol="100" key="66" len="12" pos="9012"/>
          <note pan="0" vol="100" key="67" len="12" pos="9024"/>
          <note pan="0" vol="100" key="66" len="12" pos="9024"/>
          <note pan="0" vol="100" key="67" len="12" pos="9036"/>
          <note pan="0" vol="100" key="66" len="12" pos="9036"/>
          <note pan="0" vol="100" key="67" len="12" pos="9048"/>
          <note pan="0" vol="100" key="66" len="12" pos="9048"/>
          <note pan="0" vol="100" key="67" len="12" pos="9060"/>
          <note pan="0" vol="100" key="66" len="12" pos="9060"/>
          <note pan="0" vol="100" key="67" len="12" pos="9072"/>
          <note pan="0" vol="100" key="66" len="12" pos="9072"/>
          <note pan="0" vol="100" key="67" len="12" pos="9096"/>
          <note pan="0" vol="100" key="66" len="12" pos="9096"/>
          <note pan="0" vol="100" key="67" len="12" pos="9108"/>
          <note pan="0" vol="100" key="66" len="12" pos="9108"/>
          <note pan="0" vol="100" key="67" len="12" pos="9132"/>
          <note pan="0" vol="100" key="66" len="12" pos="9132"/>
          <note pan="0" vol="100" key="67" len="12" pos="9144"/>
          <note pan="0" vol="100" key="66" len="12" pos="9144"/>
          <note pan="0" vol="100" key="67" len="12" pos="9168"/>
          <note pan="0" vol="100" key="66" len="12" pos="9168"/>
          <note pan="0" vol="100" key="67" len="12" pos="9180"/>
          <note pan="0" vol="100" key="66" len="12" pos="9180"/>
          <note pan="0" vol="100" key="67" len="12" pos="9192"/>
          <note pan="0" vol="100" key="66" len="12" pos="9192"/>
          <note pan="0" vol="100" key="67" len="12" pos="9204"/>
          <note pan="0" vol="100" key="66" len="12" pos="9204"/>
          <note pan="0" vol="100" key="67" len="12" pos="9216"/>
          <note pan="0" vol="100" key="66" len="12" pos="9216"/>
          <note pan="0" vol="100" key="67" len="12" pos="9228"/>
          <note pan="0" vol="100" key="66" len="12" pos="9228"/>
          <note pan="0" vol="100" key="67" len="12" pos="9240"/>
          <note pan="0" vol="100" key="66" len="12" pos="9240"/>
          <note pan="0" vol="100" key="67" len="12" pos="9252"/>
          <note pan="0" vol="100" key="66" len="12" pos="9252"/>
          <note pan="0" vol="100" key="67" len="12" pos="9264"/>
          <note pan="0" vol="100" key="66" len="12" pos="9264"/>
          <note pan="0" vol="100" key="67" len="12" pos="9288"/>
          <note pan="0" vol="100" key="66" len="12" pos="9288"/>
          <note pan="0" vol="100" key="67" len="12" pos="9300"/>
          <note pan="0" vol="100" key="66" len="12" pos="9300"/>
          <note pan="0" vol="100" key="67" len="12" pos="9324"/>
          <note pan="0" vol="100" key="66" len="12" pos="9324"/>
          <note pan="0" vol="100" key="67" len="12" pos="9336"/>
          <note pan="0" vol="100" key="66" len="12" pos="9336"/>
          <note pan="0" vol="100" key="67" len="12" pos="9360"/>
          <note pan="0" vol="100" key="66" len="12" pos="9360"/>
          <note pan="0" vol="100" key="67" len="12" pos="9372"/>
          <note pan="0" vol="100" key="66" len="12" pos="9372"/>
          <note pan="0" vol="100" key="67" len="12" pos="9384"/>
          <note pan="0" vol="100" key="66" len="12" pos="9384"/>
          <note pan="0" vol="100" key="67" len="12" pos="9396"/>
          <note pan="0" vol="100" key="66" len="12" pos="9396"/>
          <note pan="0" vol="100" key="67" len="12" pos="9408"/>
          <note pan="0" vol="100" key="66" len="12" pos="9408"/>
          <note pan="0" vol="100" key="67" len="12" pos="9420"/>
          <note pan="0" vol="100" key="66" len="12" pos="9420"/>
          <note pan="0" vol="100" key="67" len="12" pos="9432"/>
          <note pan="0" vol="100" key="66" len="12" pos="9432"/>
          <note pan="0" vol="100" key="67" len="12" pos="9444"/>
          <note pan="0" vol="100" key="66" len="12" pos="9444"/>
          <note pan="0" vol="100" key="67" len="12" pos="9456"/>
          <note pan="0" vol="100" key="66" len="12" pos="9456"/>
          <note pan="0" vol="100" key="67" len="12" pos="9480"/>
          <note pan="0" vol="100" key="66" len="12" pos="9480"/>
          <note pan="0" vol="100" key="67" len="12" pos="9492"/>
          <note pan="0" vol="100" key="66" len="12" pos="9492"/>
          <note pan="0" vol="100" key="67" len="12" pos="9516"/>
          <note pan="0" vol="100" key="66" len="12" pos="9516"/>
          <note pan="0" vol="100" key="67" len="12" pos="9528"/>
          <note pan="0" vol="100" key="66" len="12" pos="9528"/>
          <note pan="0" vol="100" key="67" len="12" pos="9552"/>
          <note pan="0" vol="100" key="66" len="12" pos="9552"/>
          <note pan="0" vol="100" key="67" len="12" pos="9564"/>
          <note pan="0" vol="100" key="66" len="12" pos="9564"/>
          <note pan="0" vol="100" key="67" len="12" pos="9576"/>
          <note pan="0" vol="100" key="66" len="12" pos="9576"/>
          <note pan="0" vol="100" key="67" len="12" pos="9588"/>
          <note pan="0" vol="100" key="66" len="12" pos="9588"/>
          <note pan="0" vol="100" key="67" len="12" pos="9600"/>
          <note pan="0" vol="100" key="66" len="12" pos="9600"/>
          <note pan="0" vol="100" key="67" len="12" pos="9612"/>
          <note pan="0" vol="100" key="66" len="12" pos="9612"/>
          <note pan="0" vol="100" key="67" len="12" pos="9624"/>
          <note pan="0" vol="100" key="66" len="12" pos="9624"/>
          <note pan="0" vol="100" key="67" len="12" pos="9636"/>
          <note pan="0" vol="100" key="66" len="12" pos="9636"/>
          <note pan="0" vol="100" key="67" len="12" pos="9648"/>
          <note pan="0" vol="100" key="66" len="12" pos="9648"/>
          <note pan="0" vol="100" key="67" len="12" pos="9672"/>
          <note pan="0" vol="100" key="66" len="12" pos="9672"/>
          <note pan="0" vol="100" key="67" len="12" pos="9684"/>
          <note pan="0" vol="100" key="66" len="12" pos="9684"/>
          <note pan="0" vol="100" key="67" len="12" pos="9708"/>
          <note pan="0" vol="100" key="66" len="12" pos="9708"/>
          <note pan="0" vol="100" key="67" len="12" pos="9720"/>
          <note pan="0" vol="100" key="66" len="12" pos="9720"/>
          <note pan="0" vol="100" key="67" len="12" pos="9744"/>
          <note pan="0" vol="100" key="66" len="12" pos="9744"/>
          <note pan="0" vol="100" key="67" len="12" pos="9756"/>
          <note pan="0" vol="100" key="66" len="12" pos="9756"/>
          <note pan="0" vol="100" key="67" len="12" pos="9768"/>
          <note pan="0" vol="100" key="66" len="12" pos="9768"/>
          <note pan="0" vol="100" key="67" len="12" pos="9780"/>
          <note pan="0" vol="100" key="66" len="12" pos="9780"/>
          <note pan="0" vol="100" key="67" len="12" pos="9792"/>
          <note pan="0" vol="100" key="66" len="12" pos="9792"/>
          <note pan="0" vol="100" key="67" len="12" pos="9804"/>
          <note pan="0" vol="100" key="66" len="12" pos="9804"/>
          <note pan="0" vol="100" key="67" len="12" pos="9816"/>
          <note pan="0" vol="100" key="66" len="12" pos="9816"/>
          <note pan="0" vol="100" key="67" len="12" pos="9828"/>
          <note pan="0" vol="100" key="66" len="12" pos="9828"/>
          <note pan="0" vol="100" key="67" len="12" pos="9840"/>
          <note pan="0" vol="100" key="66" len="12" pos="9840"/>
          <note pan="0" vol="100" key="67" len="12" pos="9864"/>
          <note pan="0" vol="100" key="66" len="12" pos="9864"/>
          <note pan="0" vol="100" key="67" len="12" pos="9876"/>
          <note pan="0" vol="100" key="66" len="12" pos="9876"/>
          <note pan="0" vol="100" key="67" len="12" pos="9900"/>
          <note pan="0" vol="100" key="66" len="12" pos="9900"/>
          <note pan="0" vol="100" key="67" len="12" pos="9912"/>
          <note pan="0" vol="100" key="66" len="12" pos="9912"/>
          <note pan="0" vol="100" key="67" len="12" pos="9936"/>
          <note pan="0" vol="100" key="66" len="12" pos="9936"/>
          <note pan="0" vol="100" key="67" len="12" pos="9948"/>
          <note pan="0" vol="100" key="66" len="12" pos="9948"/>
          <note pan="0" vol="100" key="67" len="12" pos="9960"/>
          <note pan="0" vol="100" key="66" len="12" pos="9960"/>
          <note pan="0" vol="100" key="67" len="12" pos="9972"/>
          <note pan="0" vol="100" key="66" len="12" pos="9972"/>
          <note pan="0" vol="100" key="67" len="12" pos="9984"/>
          <note pan="0" vol="100" key="66" len="12" pos="9984"/>
          <note pan="0" vol="100" key="67" len="12" pos="9996"/>
          <note pan="0" vol="100" key="66" len="12" pos="9996"/>
          <note pan="0" vol="100" key="67" len="12" pos="10008"/>
          <note pan="0" vol="100" key="66" len="12" pos="10008"/>
          <note pan="0" vol="100" key="67" len="12" pos="10020"/>
          <note pan="0" vol="100" key="66" len="12" pos="10020"/>
          <note pan="0" vol="100" key="67" len="12" pos="10032"/>
          <note pan="0" vol="100" key="66" len="12" pos="10032"/>
          <note pan="0" vol="100" key="67" len="12" pos="10056"/>
          <note pan="0" vol="100" key="66" len="12" pos="10056"/>
          <note pan="0" vol="100" key="67" len="12" pos="10068"/>
          <note pan="0" vol="100" key="66" len="12" pos="10068"/>
          <note pan="0" vol="100" key="67" len="12" pos="10092"/>
          <note pan="0" vol="100" key="66" len="12" pos="10092"/>
          <note pan="0" vol="100" key="67" len="12" pos="10104"/>
          <note pan="0" vol="100" key="66" len="12" pos="10104"/>
          <note pan="0" vol="100" key="67" len="12" pos="10128"/>
          <note pan="0" vol="100" key="66" len="12" pos="10128"/>
          <note pan="0" vol="100" key="67" len="12" pos="10140"/>
          <note pan="0" vol="100" key="66" len="12" pos="10140"/>
          <note pan="0" vol="100" key="67" len="12" pos="10152"/>
          <note pan="0" vol="100" key="66" len="12" pos="10152"/>
          <note pan="0" vol="100" key="67" len="12" pos="10164"/>
          <note pan="0" vol="100" key="66" len="12" pos="10164"/>
          <note pan="0" vol="100" key="67" len="12" pos="10176"/>
          <note pan="0" vol="100" key="66" len="12" pos="10176"/>
          <note pan="0" vol="100" key="67" len="12" pos="10188"/>
          <note pan="0" vol="100" key="66" len="12" pos="10188"/>
          <note pan="0" vol="100" key="67" len="12" pos="10200"/>
          <note pan="0" vol="100" key="66" len="12" pos="10200"/>
          <note pan="0" vol="100" key="67" len="12" pos="10212"/>
          <note pan="0" vol="100" key="66" len="12" pos="10212"/>
          <note pan="0" vol="100" key="67" len="12" pos="10224"/>
          <note pan="0" vol="100" key="66" len="12" pos="10224"/>
          <note pan="0" vol="100" key="67" len="12" pos="10248"/>
          <note pan="0" vol="100" key="66" len="12" pos="10248"/>
          <note pan="0" vol="100" key="67" len="12" pos="10260"/>
          <note pan="0" vol="100" key="66" len="12" pos="10260"/>
          <note pan="0" vol="100" key="67" len="12" pos="10284"/>
          <note pan="0" vol="100" key="66" len="12" pos="10284"/>
          <note pan="0" vol="100" key="67" len="12" pos="10296"/>
          <note pan="0" vol="100" key="66" len="12" pos="10296"/>
          <note pan="0" vol="100" key="67" len="12" pos="10320"/>
          <note pan="0" vol="100" key="66" len="12" pos="10320"/>
          <note pan="0" vol="100" key="67" len="12" pos="10332"/>
          <note pan="0" vol="100" key="66" len="12" pos="10332"/>
          <note pan="0" vol="100" key="67" len="12" pos="10344"/>
          <note pan="0" vol="100" key="66" len="12" pos="10344"/>
          <note pan="0" vol="100" key="67" len="12" pos="10356"/>
          <note pan="0" vol="100" key="66" len="12" pos="10356"/>
          <note pan="0" vol="100" key="67" len="12" pos="10368"/>
          <note pan="0" vol="100" key="66" len="12" pos="10368"/>
          <note pan="0" vol="100" key="67" len="12" pos="10380"/>
          <note pan="0" vol="100" key="66" len="12" pos="10380"/>
          <note pan="0" vol="100" key="67" len="12" pos="10392"/>
          <note pan="0" vol="100" key="66" len="12" pos="10392"/>
          <note pan="0" vol="100" key="67" len="12" pos="10404"/>
          <note pan="0" vol="100" key="66" len="12" pos="10404"/>
          <note pan="0" vol="100" key="67" len="12" pos="10416"/>
          <note pan="0" vol="100" key="66" len="12" pos="10416"/>
          <note pan="0" vol="100" key="67" len="12" pos="10440"/>
          <note pan="0" vol="100" key="66" len="12" pos="10440"/>
          <note pan="0" vol="100" key="67" len="12" pos="10452"/>
          <note pan="0" vol="100" key="66" len="12" pos="10452"/>
          <note pan="0" vol="100" key="67" len="12" pos="10476"/>
          <note pan="0" vol="100" key="66" len="12" pos="10476"/>
          <note pan="0" vol="100" key="67" len="12" pos="10488"/>
          <note pan="0" vol="100" key="66" len="12" pos="10488"/>
          <note pan="0" vol="100" key="67" len="12" pos="10512"/>
          <note pan="0" vol="100" key="66" len="12" pos="10512"/>
          <note pan="0" vol="100" key="67" len="12" pos="10524"/>
          <note pan="0" vol="100" key="66" len="12" pos="10524"/>
          <note pan="0" vol="100" key="67" len="12" pos="10536"/>
          <note pan="0" vol="100" key="66" len="12" pos="10536"/>
          <note pan="0" vol="100" key="67" len="12" pos="10548"/>
          <note pan="0" vol="100" key="66" len="12" pos="10548"/>
          <note pan="0" vol="100" key="67" len="12" pos="10560"/>
          <note pan="0" vol="100" key="66" len="12" pos="10560"/>
          <note pan="0" vol="100" key="67" len="12" pos="10572"/>
          <note pan="0" vol="100" key="66" len="12" pos="10572"/>
          <note pan="0" vol="100" key="67" len="12" pos="10584"/>
          <note pan="0" vol="100" key="66" len="12" pos="10584"/>
          <note pan="0" vol="100" key="67" len="12" pos="10596"/>
          <note pan="0" vol="100" key="66" len="12" pos="10596"/>
          <note pan="0" vol="100" key="67" len="12" pos="10608"/>
          <note pan="0" vol="100" key="66" len="12" pos="10608"/>
          <note pan="0" vol="100" key="67" len="12" pos="10632"/>
          <note pan="0" vol="100" key="66" len="12" pos="10632"/>
          <note pan="0" vol="100" key="67" len="12" pos="10644"/>
          <note pan="0" vol="100" key="66" len="12" pos="10644"/>
          <note pan="0" vol="100" key="67" len="12" pos="10668"/>
          <note pan="0" vol="100" key="66" len="12" pos="10668"/>
          <note pan="0" vol="100" key="67" len="12" pos="10680"/>
          <note pan="0" vol="100" key="66" len="12" pos="10680"/>
          <note pan="0" vol="100" key="67" len="12" pos="10704"/>
          <note pan="0" vol="100" key="66" len="12" pos="10704"/>
          <note pan="0" vol="100" key="67" len="12" pos="10716"/>
          <note pan="0" vol="100" key="66" len="12" pos="10716"/>
          <note pan="0" vol="100" key="67" len="12" pos="10728"/>
          <note pan="0" vol="100" key="66" len="12" pos="10728"/>
          <note pan="0" vol="100" key="67" len="12" pos="10740"/>
          <note pan="0" vol="100" key="66" len="12" pos="10740"/>
          <note pan="0" vol="100" key="67" len="12" pos="10752"/>
          <note pan="0" vol="100" key="66" len="12" pos="10752"/>
          <note pan="0" vol="100" key="67" len="12" pos="10764"/>
          <note pan="0" vol="100" key="66" len="12" pos="10764"/>
          <note pan="0" vol="100" key="67" len="12" pos="10776"/>
          <note pan="0" vol="100" key="66" len="12" pos="10776"/>
          <note pan="0" vol="100" key="67" len="12" pos="10788"/>
          <note pan="0" vol="100" key="66" len="12" pos="10788"/>
          <note pan="0" vol="100" key="67" len="12" pos="10800"/>
          <note pan="0" vol="100" key="66" len="12" pos="10800"/>
          <note pan="0" vol="100" key="67" len="12" pos="10824"/>
          <note pan="0" vol="100" key="66" len="12" pos="10824"/>
          <note pan="0" vol="100" key="67" len="12" pos="10836"/>
          <note pan="0" vol="100" key="66" len="12" pos="10836"/>
          <note pan="0" vol="100" key="67" len="12" pos="10860"/>
          <note pan="0" vol="100" key="66" len="12" pos="10860"/>
          <note pan="0" vol="100" key="67" len="12" pos="10872"/>
          <note pan="0" vol="100" key="66" len="12" pos="10872"/>
          <note pan="0" vol="100" key="67" len="12" pos="10896"/>
          <note pan="0" vol="100" key="66" len="12" pos="10896"/>
          <note pan="0" vol="100" key="67" len="12" pos="10908"/>
          <note pan="0" vol="100" key="66" len="12" pos="10908"/>
          <note pan="0" vol="100" key="67" len="12" pos="10920"/>
          <note pan="0" vol="100" key="66" len="12" pos="10920"/>
          <note pan="0" vol="100" key="67" len="12" pos="10932"/>
          <note pan="0" vol="100" key="66" len="12" pos="10932"/>
          <note pan="0" vol="100" key="67" len="12" pos="10944"/>
          <note pan="0" vol="100" key="66" len="12" pos="10944"/>
          <note pan="0" vol="100" key="67" len="12" pos="10956"/>
          <note pan="0" vol="100" key="66" len="12" pos="10956"/>
          <note pan="0" vol="100" key="67" len="12" pos="10968"/>
          <note pan="0" vol="100" key="66" len="12" pos="10968"/>
          <note pan="0" vol="100" key="67" len="12" pos="10980"/>
          <note pan="0" vol="100" key="66" len="12" pos="10980"/>
          <note pan="0" vol="100" key="67" len="12" pos="10992"/>
          <note pan="0" vol="100" key="66" len="12" pos="10992"/>
          <note pan="0" vol="100" key="67" len="12" pos="11016"/>
          <note pan="0" vol="100" key="66" len="12" pos="11016"/>
          <note pan="0" vol="100" key="67" len="12" pos="11028"/>
          <note pan="0" vol="100" key="66" len="12" pos="11028"/>
          <note pan="0" vol="100" key="67" len="12" pos="11052"/>
          <note pan="0" vol="100" key="66" len="12" pos="11052"/>
          <note pan="0" vol="100" key="67" len="12" pos="11064"/>
          <note pan="0" vol="100" key="66" len="12" pos="11064"/>
          <note pan="0" vol="100" key="67" len="12" pos="11088"/>
          <note pan="0" vol="100" key="66" len="12" pos="11088"/>
          <note pan="0" vol="100" key="67" len="12" pos="11100"/>
          <note pan="0" vol="100" key="66" len="12" pos="11100"/>
          <note pan="0" vol="100" key="67" len="12" pos="11112"/>
          <note pan="0" vol="100" key="66" len="12" pos="11112"/>
          <note pan="0" vol="100" key="67" len="12" pos="11124"/>
          <note pan="0" vol="100" key="66" len="12" pos="11124"/>
          <note pan="0" vol="100" key="67" len="12" pos="11136"/>
          <note pan="0" vol="100" key="66" len="12" pos="11136"/>
          <note pan="0" vol="100" key="67" len="12" pos="11148"/>
          <note pan="0" vol="100" key="66" len="12" pos="11148"/>
          <note pan="0" vol="100" key="67" len="12" pos="11160"/>
          <note pan="0" vol="100" key="66" len="12" pos="11160"/>
          <note pan="0" vol="100" key="67" len="12" pos="11172"/>
          <note pan="0" vol="100" key="66" len="12" pos="11172"/>
          <note pan="0" vol="100" key="67" len="12" pos="11184"/>
          <note pan="0" vol="100" key="66" len="12" pos="11184"/>
          <note pan="0" vol="100" key="67" len="12" pos="11208"/>
          <note pan="0" vol="100" key="66" len="12" pos="11208"/>
          <note pan="0" vol="100" key="67" len="12" pos="11220"/>
          <note pan="0" vol="100" key="66" len="12" pos="11220"/>
          <note pan="0" vol="100" key="67" len="12" pos="11244"/>
          <note pan="0" vol="100" key="66" len="12" pos="11244"/>
          <note pan="0" vol="100" key="67" len="12" pos="11256"/>
          <note pan="0" vol="100" key="66" len="12" pos="11256"/>
          <note pan="0" vol="100" key="67" len="12" pos="11280"/>
          <note pan="0" vol="100" key="66" len="12" pos="11280"/>
          <note pan="0" vol="100" key="67" len="12" pos="11292"/>
          <note pan="0" vol="100" key="66" len="12" pos="11292"/>
          <note pan="0" vol="100" key="67" len="12" pos="11304"/>
          <note pan="0" vol="100" key="66" len="12" pos="11304"/>
          <note pan="0" vol="100" key="67" len="12" pos="11316"/>
          <note pan="0" vol="100" key="66" len="12" pos="11316"/>
          <note pan="0" vol="100" key="67" len="12" pos="11328"/>
          <note pan="0" vol="100" key="66" len="12" pos="11328"/>
          <note pan="0" vol="100" key="67" len="12" pos="11340"/>
          <note pan="0" vol="100" key="66" len="12" pos="11340"/>
          <note pan="0" vol="100" key="67" len="12" pos="11352"/>
          <note pan="0" vol="100" key="66" len="12" pos="11352"/>
          <note pan="0" vol="100" key="67" len="12" pos="11364"/>
          <note pan="0" vol="100" key="66" len="12" pos="11364"/>
          <note pan="0" vol="100" key="67" len="12" pos="11376"/>
          <note pan="0" vol="100" key="66" len="12" pos="11376"/>
          <note pan="0" vol="100" key="67" len="12" pos="11400"/>
          <note pan="0" vol="100" key="66" len="12" pos="11400"/>
          <note pan="0" vol="100" key="67" len="12" pos="11412"/>
          <note pan="0" vol="100" key="66" len="12" pos="11412"/>
          <note pan="0" vol="100" key="67" len="12" pos="11436"/>
          <note pan="0" vol="100" key="66" len="12" pos="11436"/>
          <note pan="0" vol="100" key="67" len="12" pos="11448"/>
          <note pan="0" vol="100" key="66" len="12" pos="11448"/>
          <note pan="0" vol="100" key="67" len="12" pos="11472"/>
          <note pan="0" vol="100" key="66" len="12" pos="11472"/>
          <note pan="0" vol="100" key="67" len="12" pos="11484"/>
          <note pan="0" vol="100" key="66" len="12" pos="11484"/>
          <note pan="0" vol="100" key="67" len="12" pos="11496"/>
          <note pan="0" vol="100" key="66" len="12" pos="11496"/>
          <note pan="0" vol="100" key="67" len="12" pos="11508"/>
          <note pan="0" vol="100" key="66" len="12" pos="11508"/>
          <note pan="0" vol="100" key="67" len="12" pos="11520"/>
          <note pan="0" vol="100" key="66" len="12" pos="11520"/>
          <note pan="0" vol="100" key="67" len="12" pos="11532"/>
          <note pan="0" vol="100" key="66" len="12" pos="11532"/>
          <note pan="0" vol="100" key="67" len="12" pos="11544"/>
          <note pan="0" vol="100" key="66" len="12" pos="11544"/>
          <note pan="0" vol="100" key="67" len="12" pos="11556"/>
          <note pan="0" vol="100" key="66" len="12" pos="11556"/>
          <note pan="0" vol="100" key="67" len="12" pos="11568"/>
          <note pan="0" vol="100" key="66" len="12" pos="11568"/>
          <note pan="0" vol="100" key="67" len="12" pos="11592"/>
          <note pan="0" vol="100" key="66" len="12" pos="11592"/>
          <note pan="0" vol="100" key="67" len="12" pos="11604"/>
          <note pan="0" vol="100" key="66" len="12" pos="11604"/>
          <note pan="0" vol="100" key="67" len="12" pos="11628"/>
          <note pan="0" vol="100" key="66" len="12" pos="11628"/>
          <note pan="0" vol="100" key="67" len="12" pos="11640"/>
          <note pan="0" vol="100" key="66" len="12" pos="11640"/>
          <note pan="0" vol="100" key="67" len="12" pos="11664"/>
          <note pan="0" vol="100" key="66" len="12" pos="11664"/>
          <note pan="0" vol="100" key="67" len="12" pos="11676"/>
          <note pan="0" vol="100" key="66" len="12" pos="11676"/>
          <note pan="0" vol="100" key="67" len="12" pos="11688"/>
          <note pan="0" vol="100" key="66" len="12" pos="11688"/>
          <note pan="0" vol="100" key="67" len="12" pos="11700"/>
          <note pan="0" vol="100" key="66" len="12" pos="11700"/>
          <note pan="0" vol="100" key="67" len="12" pos="11712"/>
          <note pan="0" vol="100" key="66" len="12" pos="11712"/>
          <note pan="0" vol="100" key="67" len="12" pos="11724"/>
          <note pan="0" vol="100" key="66" len="12" pos="11724"/>
          <note pan="0" vol="100" key="67" len="12" pos="11736"/>
          <note pan="0" vol="100" key="66" len="12" pos="11736"/>
          <note pan="0" vol="100" key="67" len="12" pos="11748"/>
          <note pan="0" vol="100" key="66" len="12" pos="11748"/>
          <note pan="0" vol="100" key="67" len="12" pos="11760"/>
          <note pan="0" vol="100" key="66" len="12" pos="11760"/>
          <note pan="0" vol="100" key="67" len="12" pos="11784"/>
          <note pan="0" vol="100" key="66" len="12" pos="11784"/>
          <note pan="0" vol="100" key="67" len="12" pos="11796"/>
          <note pan="0" vol="100" key="66" len="12" pos="11796"/>
          <note pan="0" vol="100" key="67" len="12" pos="11820"/>
          <note pan="0" vol="100" key="66" len="12" pos="11820"/>
          <note pan="0" vol="100" key="67" len="12" pos="11832"/>
          <note pan="0" vol="100" key="66" len="12" pos="11832"/>
          <note pan="0" vol="100" key="67" len="12" pos="11856"/>
          <note pan="0" vol="100" key="66" len="12" pos="11856"/>
          <note pan="0" vol="100" key="67" len="12" pos="11868"/>
          <note pan="0" vol="100" key="66" len="12" pos="11868"/>
          <note pan="0" vol="100" key="67" len="12" pos="11880"/>
          <note pan="0" vol="100" key="66" len="12" pos="11880"/>
          <note pan="0" vol="100" key="67" len="12" pos="11892"/>
          <note pan="0" vol="100" key="66" len="12" pos="11892"/>
          <note pan="0" vol="100" key="67" len="12" pos="11904"/>
          <note pan="0" vol="100" key="66" len="12" pos="11904"/>
          <note pan="0" vol="100" key="67" len="12" pos="11916"/>
          <note pan="0" vol="100" key="66" len="12" pos="11916"/>
          <note pan="0" vol="100" key="67" len="12" pos="11928"/>
          <note pan="0" vol="100" key="66" len="12" pos="11928"/>
          <note pan="0" vol="100" key="67" len="12" pos="11940"/>
          <note pan="0" vol="100" key="66" len="12" pos="11940"/>
          <note pan="0" vol="100" key="67" len="12" pos="11952"/>
          <note pan="0" vol="100" key="66" len="12" pos="11952"/>
          <note pan="0" vol="100" key="67" len="12" pos="11976"/>
          <note pan="0" vol="100" key="66" len="12" pos="11976"/>
          <note pan="0" vol="100" key="67" len="12" pos="11988"/>
          <note pan="0" vol="100" key="66" len="12" pos="11988"/>
          <note pan="0" vol="100" key="67" len="12" pos="12012"/>
          <note pan="0" vol="100" key="66" len="12" pos="12012"/>
          <note pan="0" vol="100" key="67" len="12" pos="12024"/>
          <note pan="0" vol="100" key="66" len="12" pos="12024"/>
          <note pan="0" vol="100" key="67" len="12" pos="12048"/>
          <note pan="0" vol="100" key="66" len="12" pos="12048"/>
          <note pan="0" vol="100" key="67" len="12" pos="12060"/>
          <note pan="0" vol="100" key="66" len="12" pos="12060"/>
          <note pan="0" vol="100" key="67" len="12" pos="12072"/>
          <note pan="0" vol="100" key="66" len="12" pos="12072"/>
          <note pan="0" vol="100" key="67" len="12" pos="12084"/>
          <note pan="0" vol="100" key="66" len="12" pos="12084"/>
          <note pan="0" vol="100" key="67" len="12" pos="12096"/>
          <note pan="0" vol="100" key="66" len="12" pos="12096"/>
          <note pan="0" vol="100" key="67" len="12" pos="12108"/>
          <note pan="0" vol="100" key="66" len="12" pos="12108"/>
          <note pan="0" vol="100" key="67" len="12" pos="12120"/>
          <note pan="0" vol="100" key="66" len="12" pos="12120"/>
          <note pan="0" vol="100" key="67" len="12" pos="12132"/>
          <note pan="0" vol="100" key="66" len="12" pos="12132"/>
          <note pan="0" vol="100" key="67" len="12" pos="12144"/>
          <note pan="0" vol="100" key="66" len="12" pos="12144"/>
          <note pan="0" vol="100" key="67" len="12" pos="12168"/>
          <note pan="0" vol="100" key="66" len="12" pos="12168"/>
          <note pan="0" vol="100" key="67" len="12" pos="12180"/>
          <note pan="0" vol="100" key="66" len="12" pos="12180"/>
          <note pan="0" vol="100" key="67" len="12" pos="12204"/>
          <note pan="0" vol="100" key="66" len="12" pos="12204"/>
          <note pan="0" vol="100" key="67" len="12" pos="12216"/>
          <note pan="0" vol="100" key="66" len="12" pos="12216"/>
          <note pan="0" vol="100" key="67" len="12" pos="12240"/>
          <note pan="0" vol="100" key="66" len="12" pos="12240"/>
          <note pan="0" vol="100" key="67" len="12" pos="12252"/>
          <note pan="0" vol="100" key="66" len="12" pos="12252"/>
          <note pan="0" vol="100" key="67" len="12" pos="12264"/>
          <note pan="0" vol="100" key="66" len="12" pos="12264"/>
          <note pan="0" vol="100" key="67" len="12" pos="12276"/>
          <note pan="0" vol="100" key="66" len="12" pos="12276"/>
          <note pan="0" vol="100" key="67" len="12" pos="12288"/>
          <note pan="0" vol="100" key="66" len="12" pos="12288"/>
          <note pan="0" vol="100" key="67" len="12" pos="12456"/>
          <note pan="0" vol="100" key="66" len="12" pos="12456"/>
          <note pan="0" vol="100" key="67" len="12" pos="12480"/>
          <note pan="0" vol="100" key="66" len="12" pos="12480"/>
          <note pan="0" vol="100" key="67" len="12" pos="12648"/>
          <note pan="0" vol="100" key="66" len="12" pos="12648"/>
          <note pan="0" vol="100" key="67" len="12" pos="12660"/>
          <note pan="0" vol="100" key="66" len="12" pos="12660"/>
          <note pan="0" vol="100" key="67" len="12" pos="12672"/>
          <note pan="0" vol="100" key="66" len="12" pos="12672"/>
        </pattern>
      </track>
      <track solo="0" type="0" name="Kick drum" muted="0">
        <instrumenttrack pitch="0" pan="0" vol="12" pitchrange="1" fxch="0" usemasterpitch="1" basenote="57">
          <instrument name="vestige">
            <vestige program="2" plugin="C:/Program Files/VstPlugins/Drum Pro 64.dll" guivisible="0" chunk="RHJ1bS1IaXAtSG9wIDAzLm1zZQBErAAARKwAAAEAAAABAAAAAQAAAAEAAAAgAAAAIAAAAAIAAAAAAAAAAAAAAAAAAAAAAAAAAAAAAAAAAAABAAAAAQAAAAAAQEAAAAAAAAAAAND///8AAAAAAAAAAAAAAAAAAAAAAAAAAAAAAAAAAAAAAAAAAAAAAAAAAAAAAAAAAAAAAAAAAAAAAAAAAAAAAAAAAAAAAAAAAAAAAAAAAAAAAAAAAAAAAAAAAAAAAAAAAAAAAAAAAAAAAAAAAAAAAAAAAAAAAAAAAAAAAAAAAAAAAAAAAAAAAAAAAAAAAAAAAAAAAAAAAAAAAAAAAAAAAAAAAAAAAAAAAAAAAAAAAAAAAAAAAAAAAAAAAAAAAAAAAAAAAAAAAAAAAAAAAAAAAAAAAAAAAAAAAAAAAAAAAAAAAAAAAAAAAAAAAAAAAAAAAAAAAAAAAAAAAAAAAAAAAAAAAAAAAAAAAAAAAAAAAAAAAAAAAAAAAAAAAAAAAAAAAAAAAAAAAAAAAAAAAAAAAAAAAAAAAAAAAAAAAAAAAAAAAAAAAAAAAAAAAAAAAAAAAAAAAAAAAAAAAAAAAAAAAAAAAAAAAAAAAAAAAAAAAAAAAAAAAAAAAAAAAAAAAAAAAAAAAAAAAAAAAAAAAAAAAAAAAAAAAAAAAAAAAAAAAAAAAAAAAAAAAAAAAAAAAAAAAAAAAAAAAAAAAAAAAAAAAAAAAAAAAAAAAAAAAAAAAAAAAAAAAAAAAAAAAAAAAAAAAAAAAAAAAAAAAAAAAAAAAAAAAAAAAAAAAAAAAAAAAAAADAAAAAAAAAAAAAAAAAAAAAAAAAABAAAAAAAAAAAAAAAAAAAAAAAAAAAAAAAAAAAAAAAAAABAnEUAAAAAfwAAAH8AAAAAAAAAAAAAAAAAAAAAAAAAAAAAAAAAAAAAAAAAAAAAAAAAAAAAAAAAAAAAAAAAAAAAAAAAAAAAAAAAAAAAAAAAAAAAAAAAAAAAAAAAAAAAAAAAAAAAAAAAAAAAAAAAAAAAAAAAAAAAAAAAAAAAAAAAAAAAAAAAAAAAAAAAAAAAAAAAAAAAAAAAAAAAAAAAAAAAAAAAAAAAAAAAAAAAAAAAAAAAAAAAAAAAAAAAAAAAAAAAAAAAAAAAAAAAAAAAAAAAAAAAAAAAAAAAAAAAAAAAAAAAAAAAAAAAAAAAAAAAAAAAAAAAAAAAAAAAAAAAAAAAAAAAAAAAAAAAAAAAAAAAAAAAAAAAAAAAAAAAAAAAAAAAAAAAAAAAAAAAAAAAAAAAAAAAAAAAAAAAAAAAAAAAAAAAAAAAAAAAAAAAAAAAAAAAAAAAAAAAAAAAAAAAAAAAAAAAAAAAAAAAAAAAAAAAAAAAAAAAAAAAAAAAAAAAAAAAAAAAAAAAAAAAAAAAAAAAAAAAAAAAAAAAAAAAAAAAAAAAAAAAAAAAAAAAAAAAAAAAAAAAAAAAAAAAAAAAAAAAAAAAAAAAAAAAAAAAAAAAAAAAAAAAAAAAAAAAAAAAAAAAAAAAAAAAAAAAAAAAAAAAAAAAAAAAAAAAAAAAAAAAAAAAAAAAAAAAAAAAAAAAAAAAAAAAAAAAAAAAAAAAAAAAAAAAAQAAAAAAAAAAAAAAAAAAAAAAAAAAAAAAAAAAAAAAAAAAQJxFAAAAAH8AAAB/AAAAAAAAAAAAAAAAAAAAAAAAAAAAAAAAAAAAAAAAAAAAAAAAAAAAAAAAAAAAAAAAAAAAAAAAAAAAAAAAAAAAAAAAAAAAAAAAAAAAAAAAAAAAAAAAAAAAAAAAAAAAAAAAAAAAAAAAAAAAAAAAAAAAAAAAAAAAAAAAAAAAAAAAAAAAAAAAAAAAAAAAAAAAAAAAAAAAAAAAAAAAAAAAAAAAAAAAAAAAAAAAAAAAAAAAAAAAAAAAAAAAAAAAAAAAAAAAAAAAAAAAAAAAAAAAAAAAAAAAAAAAAAAAAAAAAAAAAAAAAAAAAAAAAAAAAAAAAAAAAAAAAAAAAAAAAAAAAAAAAAAAAAAAAAAAAAAAAAAAAAAAAAAAAAAAAAAAAAAAAAAAAAAAAAAAAAAAAAAAAAAAAAAAAAAAAAAAAAAAAAAAAAAAAAAAAAAAAAAAAAAAAAAAAAAAAAAAAAAAAAAAAAAAAAAAAAAAAAAAAAAAAAAAAAAAAAAAAAAAAAAAAAAAAAAAAAAAAAAAAAAAAAAAAAAAAAAAAAAAAAAAAAAAAAAAAAAAAAAAAAAAAAAAAAAAAAAAAAAAAAAAAAAAAAAAAAAAAAAAAAAAAAAAAAAAAAAAAAAAAAAAAAAAAAAAAAAAAAAAAAAAAAAAAAAAAAAAAAAAAAAAAAAAAAAAAAAAAAAAAAAAAAAAAAAAAAAAAAAAAAAAAAAAAAAAAAEAAAAAAAAAAAAAAAAAAAAAAAAAAAAAAAAAAAAAAAAAAECcRQAAAAB/AAAAfwAAAAAAAAAAAAAAAAAAAAAAAAAAAAAAAAAAAAAAAAAAAAAAAAAAAAAAAAAAAAAAAAAAAAAAAAAAAAAAAAAAAAAAAAAAAAAAAAAAAAAAAAAAAAAAAAAAAAAAAAAAAAAAAAAAAAAAAAAAAAAAAAAAAAAAAAAAAAAAAAAAAAAAAAAAAAAAAAAAAAAAAAAAAAAAAAAAAAAAAAAAAAAAAAAAAAAAAAAAAAAAAAAAAAAAAAAAAAAAAAAAAAAAAAAAAAAAAAAAAAAAAAAAAAAAAAAAAAAAAAAAAAAAAAAAAAAAAAAAAAAAAAAAAAAAAAAAAAAAAAAAAAAAAAAAAAAAAAAAAAAAAAAAAAAAAAAAAAAAAAAAAAAAAAAAAAAAAAAAAAAAAAAAAAAAAAAAAAAAAAAAAAAAAAAAAAAAAAAAAAAAAAAAAAAAAAAAAAAAAAAAAAAAAAAAAAAAAAAAAAAAAAAAAAAAAAAAAAAAAAAAAAAAAAAAAAAAAAAAAAAAAAAAAAAAAAAAAAAAAAAAAAAAAAAAAAAAAAAAAAAAAAAAAAAAAAAAAAAAAAAAAAAAAAAAAAAAAAAAAAAAAAAAAAAAAAAAAAAAAAAAAAAAAAAAAAAAAAAAAAAAAAAAAAAAAAAAAAAAAAAAAAAAAAAAAAAAAAAAAAAAAAAAAAAAAAAAAAAAAAAAAAAAAAAAAAAAAAAAAAAAAAAAAAAAAAABAAAAAAAAAAAAAAAAAAAAAAAAAAAAAAAAAAAAAAAAAABAnEUAAAAAfwAAAH8AAAAAAAAAAAAAAAAAAAAAAAAAAAAAAAAAAAAAAAAAAAAAAAAAAAAAAAAAAAAAAAAAAAAAAAAAAAAAAAAAAAAAAAAAAAAAAAAAAAAAAAAAAAAAAAAAAAAAAAAAAAAAAAAAAAAAAAAAAAAAAAAAAAAAAAAAAAAAAAAAAAAAAAAAAAAAAAAAAAAAAAAAAAAAAAAAAAAAAAAAAAAAAAAAAAAAAAAAAAAAAAAAAAAAAAAAAAAAAAAAAAAAAAAAAAAAAAAAAAAAAAAAAAAAAAAAAAAAAAAAAAAAAAAAAAAAAAAAAAAAAAAAAAAAAAAAAAAAAAAAAAAAAAAAAAAAAAAAAAAAAAAAAAAAAAAAAAAAAAAAAAAAAAAAAAAAAAAAAAAAAAAAAAAAAAAAAAAAAAAAAAAAAAAAAAAAAAAAAAAAAAAAAAAAAAAAAAAAAAAAAAAAAAAAAAAAAAAAAAAAAAAAAAAAAAAAAAAAAAAAAAAAAAAAAAAAAAAAAAAAAAAAAAAAAAAAAAAAAAAAAAAAAAAAAAAAAAAAAAAAAAAAAAAAAAAAAAAAAAAAAAAAAAAAAAAAAAAAAAAAAAAAAAAAAAAAAAAAAAAAAAAAAAAAAAAAAAAAAAAAAAAAAAAAAAAAAAAAAAAAAAAAAAAAAAAAAAAAAAAAAAAAAAAAAAAAAAAAAAAAAAAAAAAAAAAAAAAAAAAAAAAAAAAAAAAAAQAAAAAAAAAAAAAAAAAAAAAAAAAAAAAAAAAAAAAAAAAAQJxFAAAAAH8AAAB/AAAAAAAAAAAAAAAAAAAAAAAAAAAAAAAAAAAAAAAAAAAAAAAAAAAAAAAAAAAAAAAAAAAAAAAAAAAAAAAAAAAAAAAAAAAAAAAAAAAAAAAAAAAAAAAAAAAAAAAAAAAAAAAAAAAAAAAAAAAAAAAAAAAAAAAAAAAAAAAAAAAAAAAAAAAAAAAAAAAAAAAAAAAAAAAAAAAAAAAAAAAAAAAAAAAAAAAAAAAAAAAAAAAAAAAAAAAAAAAAAAAAAAAAAAAAAAAAAAAAAAAAAAAAAAAAAAAAAAAAAAAAAAAAAAAAAAAAAAAAAAAAAAAAAAAAAAAAAAAAAAAAAAAAAAAAAAAAAAAAAAAAAAAAAAAAAAAAAAAAAAAAAAAAAAAAAAAAAAAAAAAAAAAAAAAAAAAAAAAAAAAAAAAAAAAAAAAAAAAAAAAAAAAAAAAAAAAAAAAAAAAAAAAAAAAAAAAAAAAAAAAAAAAAAAAAAAAAAAAAAAAAAAAAAAAAAAAAAAAAAAAAAAAAAAAAAAAAAAAAAAAAAAAAAAAAAAAAAAAAAAAAAAAAAAAAAAAAAAAAAAAAAAAAAAAAAAAAAAAAAAAAAAAAAAAAAAAAAAAAAAAAAAAAAAAAAAAAAAAAAAAAAAAAAAAAAAAAAAAAAAAAAAAAAAAAAAAAAAAAAAAAAAAAAAAAAAAAAAAAAAAAAAAAAAAAAAAAAAAAAAAAAAAAAAAAAAEAAAAAAAAAAAAAAAAAAAAAAAAAAAAAAAAAAAAAAAAAAECcRQAAAAB/AAAAfwAAAAAAAAAAAAAAAAAAAAAAAAAAAAAAAAAAAAAAAAAAAAAAAAAAAAAAAAAAAAAAAAAAAAAAAAAAAAAAAAAAAAAAAAAAAAAAAAAAAAAAAAAAAAAAAAAAAAAAAAAAAAAAAAAAAAAAAAAAAAAAAAAAAAAAAAAAAAAAAAAAAAAAAAAAAAAAAAAAAAAAAAAAAAAAAAAAAAAAAAAAAAAAAAAAAAAAAAAAAAAAAAAAAAAAAAAAAAAAAAAAAAAAAAAAAAAAAAAAAAAAAAAAAAAAAAAAAAAAAAAAAAAAAAAAAAAAAAAAAAAAAAAAAAAAAAAAAAAAAAAAAAAAAAAAAAAAAAAAAAAAAAAAAAAAAAAAAAAAAAAAAAAAAAAAAAAAAAAAAAAAAAAAAAAAAAAAAAAAAAAAAAAAAAAAAAAAAAAAAAAAAAAAAAAAAAAAAAAAAAAAAAAAAAAAAAAAAAAAAAAAAAAAAAAAAAAAAAAAAAAAAAAAAAAAAAAAAAAAAAAAAAAAAAAAAAAAAAAAAAAAAAAAAAAAAAAAAAAAAAAAAAAAAAAAAAAAAAAAAAAAAAAAAAAAAAAAAAAAAAAAAAAAAAAAAAAAAAAAAAAAAAAAAAAAAAAAAAAAAAAAAAAAAAAAAAAAAAAAAAAAAAAAAAAAAAAAAAAAAAAAAAAAAAAAAAAAAAAAAAAAAAAAAAAAAAAAAAAAAAAAAAAAAAAAAAABAAAAAAAAAAAAAAAAAAAAAAAAAAAAAAAAAAAAAAAAAABAnEUAAAAAfwAAAH8AAAAAAAAAAAAAAAAAAAAAAAAAAAAAAAAAAAAAAAAAAAAAAAAAAAAAAAAAAAAAAAAAAAAAAAAAAAAAAAAAAAAAAAAAAAAAAAAAAAAAAAAAAAAAAAAAAAAAAAAAAAAAAAAAAAAAAAAAAAAAAAAAAAAAAAAAAAAAAAAAAAAAAAAAAAAAAAAAAAAAAAAAAAAAAAAAAAAAAAAAAAAAAAAAAAAAAAAAAAAAAAAAAAAAAAAAAAAAAAAAAAAAAAAAAAAAAAAAAAAAAAAAAAAAAAAAAAAAAAAAAAAAAAAAAAAAAAAAAAAAAAAAAAAAAAAAAAAAAAAAAAAAAAAAAAAAAAAAAAAAAAAAAAAAAAAAAAAAAAAAAAAAAAAAAAAAAAAAAAAAAAAAAAAAAAAAAAAAAAAAAAAAAAAAAAAAAAAAAAAAAAAAAAAAAAAAAAAAAAAAAAAAAAAAAAAAAAAAAAAAAAAAAAAAAAAAAAAAAAAAAAAAAAAAAAAAAAAAAAAAAAAAAAAAAAAAAAAAAAAAAAAAAAAAAAAAAAAAAAAAAAAAAAAAAAAAAAAAAAAAAAAAAAAAAAAAAAAAAAAAAAAAAAAAAAAAAAAAAAAAAAAAAAAAAAAAAAAAAAAAAAAAAAAAAAAAAAAAAAAAAAAAAAAAAAAAAAAAAAAAAAAAAAAAAAAAAAAAAAAAAAAAAAAAAAAAAAAAAAAAAAAAAAAAAAAAAQAAAAAAAAAAAAAAAAAAAAAAAAAAAAAAAAAAAAAAAAAAQJxFAAAAAH8AAAB/AAAAAAAAAAAAAAAAAAAAAAAAAAAAAAAAAAAAAAAAAAAAAAAAAAAAAAAAAAAAAAAAAAAAAAAAAAAAAAAAAAAAAAAAAAAAAAAAAAAAAAAAAAAAAAAAAAAAAAAAAAAAAAAAAAAAAAAAAAAAAAAAAAAAAAAAAAAAAAAAAAAAAAAAAAAAAAAAAAAAAAAAAAAAAAAAAAAAAAAAAAAAAAAAAAAAAAAAAAAAAAAAAAAAAAAAAAAAAAAAAAAAAAAAAAAAAAAAAAAAAAAAAAAAAAAAAAAAAAAAAAAAAAAAAAAAAAAAAAAAAAAAAAAAAAAAAAAAAAAAAAAAAAAAAAAAAAAAAAAAAAAAAAAAAAAAAAAAAAAAAAAAAAAAAAAAAAAAAAAAAAAAAAAAAAAAAAAAAAAAAAAAAAAAAAAAAAAAAAAAAAAAAAAAAAAAAAAAAAAAAAAAAAAAAAAAAAAAAAAAAAAAAAAAAAAAAAAAAAAAAAAAAAAAAAAAAAAAAAAAAAAAAAAAAAAAAAAAAAAAAAAAAAAAAAAAAAAAAAAAAAAAAAAAAAAAAAAAAAAAAAAAAAAAAAAAAAAAAAAAAAAAAAAAAAAAAAAAAAAAAAAAAAAAAAAAAAAAAAAAAAAAAAAAAAAAAAAAAAAAAAAAAAAAAAAAAAAAAAAAAAAAAAAAAAAAAAAAAAAAAAAAAAAAAAAAAAAAAAAAAAAAAAAAAAAAAAEAAAAAAAAAAAAAAAAAAAAAAAAAAAAAAAAAAAAAAAAAAECcRQAAAAB/AAAAfwAAAAAAAAAAAAAAAAAAAAAAAAAAAAAAAAAAAAAAAAAAAAAAAAAAAAAAAAAAAAAAAAAAAAAAAAAAAAAAAAAAAAAAAAAAAAAAAAAAAAAAAAAAAAAAAAAAAAAAAAAAAAAAAAAAAAAAAAAAAAAAAAAAAAAAAAAAAAAAAAAAAAAAAAAAAAAAAAAAAAAAAAAAAAAAAAAAAAAAAAAAAAAAAAAAAAAAAAAAAAAAAAAAAAAAAAAAAAAAAAAAAAAAAAAAAAAAAAAAAAAAAAAAAAAAAAAAAAAAAAAAAAAAAAAAAAAAAAAAAAAAAAAAAAAAAAAAAAAAAAAAAAAAAAAAAAAAAAAAAAAAAAAAAAAAAAAAAAAAAAAAAAAAAAAAAAAAAAAAAAAAAAAAAAAAAAAAAAAAAAAAAAAAAAAAAAAAAAAAAAAAAAAAAAAAAAAAAAAAAAAAAAAAAAAAAAAAAAAAAAAAAAAAAAAAAAAAAAAAAAAAAAAAAAAAAAAAAAAAAAAAAAAAAAAAAAAAAAAAAAAAAAAAAAAAAAAAAAAAAAAAAAAAAAAAAAAAAAAAAAAAAAAAAAAAAAAAAAAAAAAAAAAAAAAAAAAAAAAAAAAAAAAAAAAAAAAAAAAAAAAAAAAAAAAAAAAAAAAAAAAAAAAAAAAAAAAAAAAAAAAAAAAAAAAAAAAAAAAAAAAAAAAAAAAAAAAAAAAAAAAAAAAAAAAAAAABAAAAAAAAAAAAAAAAAAAAAAAAAAAAAAAAAAAAAAAAAABAnEUAAAAAfwAAAH8AAAAAAAAAAAAAAAAAAAAAAAAAAAAAAAAAAAAAAAAAAAAAAAAAAAAAAAAAAAAAAAAAAAAAAAAAAAAAAAAAAAAAAAAAAAAAAAAAAAAAAAAAAAAAAAAAAAAAAAAAAAAAAAAAAAAAAAAAAAAAAAAAAAAAAAAAAAAAAAAAAAAAAAAAAAAAAAAAAAAAAAAAAAAAAAAAAAAAAAAAAAAAAAAAAAAAAAAAAAAAAAAAAAAAAAAAAAAAAAAAAAAAAAAAAAAAAAAAAAAAAAAAAAAAAAAAAAAAAAAAAAAAAAAAAAAAAAAAAAAAAAAAAAAAAAAAAAAAAAAAAAAAAAAAAAAAAAAAAAAAAAAAAAAAAAAAAAAAAAAAAAAAAAAAAAAAAAAAAAAAAAAAAAAAAAAAAAAAAAAAAAAAAAAAAAAAAAAAAAAAAAAAAAAAAAAAAAAAAAAAAAAAAAAAAAAAAAAAAAAAAAAAAAAAAAAAAAAAAAAAAAAAAAAAAAAAAAAAAAAAAAAAAAAAAAAAAAAAAAAAAAAAAAAAAAAAAAAAAAAAAAAAAAAAAAAAAAAAAAAAAAAAAAAAAAAAAAAAAAAAAAAAAAAAAAAAAAAAAAAAAAAAAAAAAAAAAAAAAAAAAAAAAAAAAAAAAAAAAAAAAAAAAAAAAAAAAAAAAAAAAAAAAAAAAAAAAAAAAAAAAAAAAAAAAAAAAAAAAAAAAAAAAAAAAAAAAQAAAAAAAAAAAAAAAAAAAAAAAAAAAAAAAAAAAAAAAAAAQJxFAAAAAH8AAAB/AAAAAAAAAAAAAAAAAAAAAAAAAAAAAAAAAAAAAAAAAAAAAAAAAAAAAAAAAAAAAAAAAAAAAAAAAAAAAAAAAAAAAAAAAAAAAAAAAAAAAAAAAAAAAAAAAAAAAAAAAAAAAAAAAAAAAAAAAAAAAAAAAAAAAAAAAAAAAAAAAAAAAAAAAAAAAAAAAAAAAAAAAAAAAAAAAAAAAAAAAAAAAAAAAAAAAAAAAAAAAAAAAAAAAAAAAAAAAAAAAAAAAAAAAAAAAAAAAAAAAAAAAAAAAAAAAAAAAAAAAAAAAAAAAAAAAAAAAAAAAAAAAAAAAAAAAAAAAAAAAAAAAAAAAAAAAAAAAAAAAAAAAAAAAAAAAAAAAAAAAAAAAAAAAAAAAAAAAAAAAAAAAAAAAAAAAAAAAAAAAAAAAAAAAAAAAAAAAAAAAAAAAAAAAAAAAAAAAAAAAAAAAAAAAAAAAAAAAAAAAAAAAAAAAAAAAAAAAAAAAAAAAAAAAAAAAAAAAAAAAAAAAAAAAAAAAAAAAAAAAAAAAAAAAAAAAAAAAAAAAAAAAAAAAAAAAAAAAAAAAAAAAAAAAAAAAAAAAAAAAAAAAAAAAAAAAAAAAAAAAAAAAAAAAAAAAAAAAAAAAAAAAAAAAAAAAAAAAAAAAAAAAAAAAAAAAAAAAAAAAAAAAAAAAAAAAAAAAAAAAAAAAAAAAAAAAAAAAAAAAAAAAAAAAAAAAAEAAAAAAAAAAAAAAAAAAAAAAAAAAAAAAAAAAAAAAAAAAECcRQAAAAB/AAAAfwAAAAAAAAAAAAAAAAAAAAAAAAAAAAAAAAAAAAAAAAAAAAAAAAAAAAAAAAAAAAAAAAAAAAAAAAAAAAAAAAAAAAAAAAAAAAAAAAAAAAAAAAAAAAAAAAAAAAAAAAAAAAAAAAAAAAAAAAAAAAAAAAAAAAAAAAAAAAAAAAAAAAAAAAAAAAAAAAAAAAAAAAAAAAAAAAAAAAAAAAAAAAAAAAAAAAAAAAAAAAAAAAAAAAAAAAAAAAAAAAAAAAAAAAAAAAAAAAAAAAAAAAAAAAAAAAAAAAAAAAAAAAAAAAAAAAAAAAAAAAAAAAAAAAAAAAAAAAAAAAAAAAAAAAAAAAAAAAAAAAAAAAAAAAAAAAAAAAAAAAAAAAAAAAAAAAAAAAAAAAAAAAAAAAAAAAAAAAAAAAAAAAAAAAAAAAAAAAAAAAAAAAAAAAAAAAAAAAAAAAAAAAAAAAAAAAAAAAAAAAAAAAAAAAAAAAAAAAAAAAAAAAAAAAAAAAAAAAAAAAAAAAAAAAAAAAAAAAAAAAAAAAAAAAAAAAAAAAAAAAAAAAAAAAAAAAAAAAAAAAAAAAAAAAAAAAAAAAAAAAAAAAAAAAAAAAAAAAAAAAAAAAAAAAAAAAAAAAAAAAAAAAAAAAAAAAAAAAAAAAAAAAAAAAAAAAAAAAAAAAAAAAAAAAAAAAAAAAAAAAAAAAAAAAAAAAAAAAA="/>
          </instrument>
          <eldata ftype="0" fcut="14000" fwet="0" fres="0.5">
            <elvol sustain="0.5" lpdel="0" userwavefile="" lshp="0" lspd_denominator="4" ctlenvamt="0" lspd_numerator="4" rel="0.1" lspd_syncmode="0" amt="0" dec="0.5" x100="0" lspd="0.1" latt="0" att="0" lamt="0" hold="0.5" pdel="0"/>
            <elcut sustain="0.5" lpdel="0" userwavefile="" lshp="0" lspd_denominator="4" ctlenvamt="0" lspd_numerator="4" rel="0.1" lspd_syncmode="0" amt="0" dec="0.5" x100="0" lspd="0.1" latt="0" att="0" lamt="0" hold="0.5" pdel="0"/>
            <elres sustain="0.5" lpdel="0" userwavefile="" lshp="0" lspd_denominator="4" ctlenvamt="0" lspd_numerator="4" rel="0.1" lspd_syncmode="0" amt="0" dec="0.5" x100="0" lspd="0.1" latt="0" att="0" lamt="0" hold="0.5" pdel="0"/>
          </eldata>
          <chordcreator chord-enabled="0" chord="0" chordrange="1"/>
          <arpeggiator arprange="1" arpskip="0" arptime_numerator="4" arpgate="100" arpmiss="0" arpdir="0" arpmode="0" arp="0" arptime_syncmode="0" arptime="200" arpcycle="0" arptime_denominator="4" arp-enabled="0"/>
          <midiport writable="0" inputcontroller="0" readable="0" inputchannel="0" fixedoutputnote="-1" outputprogram="1" fixedinputvelocity="-1" basevelocity="63" fixedoutputvelocity="-1" outputcontroller="0" outputchannel="1"/>
          <fxchain numofeffects="0" enabled="0"/>
        </instrumenttrack>
        <pattern steps="16" type="1" name="Kick drum" pos="0" muted="0">
          <note pan="0" vol="170" key="61" len="12" pos="0"/>
          <note pan="0" vol="170" key="60" len="12" pos="0"/>
          <note pan="0" vol="150" key="61" len="12" pos="48"/>
          <note pan="0" vol="150" key="60" len="12" pos="48"/>
          <note pan="0" vol="150" key="61" len="11" pos="96"/>
          <note pan="0" vol="150" key="60" len="11" pos="96"/>
          <note pan="0" vol="150" key="61" len="12" pos="144"/>
          <note pan="0" vol="150" key="60" len="12" pos="144"/>
          <note pan="0" vol="160" key="61" len="12" pos="192"/>
          <note pan="0" vol="160" key="60" len="12" pos="192"/>
          <note pan="0" vol="150" key="61" len="12" pos="240"/>
          <note pan="0" vol="150" key="60" len="12" pos="240"/>
          <note pan="0" vol="150" key="61" len="12" pos="288"/>
          <note pan="0" vol="150" key="60" len="12" pos="288"/>
          <note pan="0" vol="150" key="61" len="12" pos="336"/>
          <note pan="0" vol="150" key="60" len="12" pos="336"/>
          <note pan="0" vol="160" key="61" len="12" pos="384"/>
          <note pan="0" vol="160" key="60" len="12" pos="384"/>
          <note pan="0" vol="150" key="61" len="12" pos="432"/>
          <note pan="0" vol="150" key="60" len="12" pos="432"/>
          <note pan="0" vol="150" key="61" len="12" pos="480"/>
          <note pan="0" vol="150" key="60" len="12" pos="480"/>
          <note pan="0" vol="150" key="61" len="12" pos="528"/>
          <note pan="0" vol="150" key="60" len="12" pos="528"/>
          <note pan="0" vol="160" key="61" len="12" pos="576"/>
          <note pan="0" vol="160" key="60" len="12" pos="576"/>
          <note pan="0" vol="150" key="61" len="12" pos="624"/>
          <note pan="0" vol="150" key="60" len="12" pos="624"/>
          <note pan="0" vol="150" key="61" len="12" pos="672"/>
          <note pan="0" vol="150" key="60" len="12" pos="672"/>
          <note pan="0" vol="150" key="61" len="12" pos="720"/>
          <note pan="0" vol="150" key="60" len="12" pos="720"/>
          <note pan="0" vol="160" key="61" len="12" pos="744"/>
          <note pan="0" vol="160" key="60" len="12" pos="744"/>
        </pattern>
        <pattern steps="16" type="1" name="Kick drum" pos="12288" muted="0">
          <note pan="0" vol="170" key="61" len="12" pos="0"/>
          <note pan="0" vol="170" key="60" len="12" pos="0"/>
          <note pan="0" vol="160" key="61" len="12" pos="168"/>
          <note pan="0" vol="160" key="60" len="12" pos="168"/>
          <note pan="0" vol="160" key="61" len="12" pos="192"/>
          <note pan="0" vol="160" key="60" len="12" pos="192"/>
          <note pan="0" vol="160" key="61" len="12" pos="360"/>
          <note pan="0" vol="160" key="60" len="12" pos="360"/>
          <note pan="0" vol="160" key="61" len="12" pos="372"/>
          <note pan="0" vol="160" key="60" len="12" pos="372"/>
          <note pan="0" vol="160" key="61" len="12" pos="384"/>
          <note pan="0" vol="160" key="60" len="12" pos="384"/>
        </pattern>
        <pattern steps="16" type="1" name="Kick drum" pos="768" muted="0">
          <note pan="0" vol="170" key="61" len="12" pos="0"/>
          <note pan="0" vol="170" key="60" len="12" pos="0"/>
          <note pan="0" vol="150" key="61" len="12" pos="48"/>
          <note pan="0" vol="150" key="60" len="12" pos="48"/>
          <note pan="0" vol="150" key="61" len="11" pos="96"/>
          <note pan="0" vol="150" key="60" len="11" pos="96"/>
          <note pan="0" vol="150" key="61" len="12" pos="144"/>
          <note pan="0" vol="150" key="60" len="12" pos="144"/>
          <note pan="0" vol="160" key="61" len="12" pos="192"/>
          <note pan="0" vol="160" key="60" len="12" pos="192"/>
          <note pan="0" vol="150" key="61" len="12" pos="240"/>
          <note pan="0" vol="150" key="60" len="12" pos="240"/>
          <note pan="0" vol="150" key="61" len="12" pos="288"/>
          <note pan="0" vol="150" key="60" len="12" pos="288"/>
          <note pan="0" vol="150" key="61" len="12" pos="336"/>
          <note pan="0" vol="150" key="60" len="12" pos="336"/>
          <note pan="0" vol="160" key="61" len="12" pos="384"/>
          <note pan="0" vol="160" key="60" len="12" pos="384"/>
          <note pan="0" vol="150" key="61" len="12" pos="432"/>
          <note pan="0" vol="150" key="60" len="12" pos="432"/>
          <note pan="0" vol="150" key="61" len="12" pos="480"/>
          <note pan="0" vol="150" key="60" len="12" pos="480"/>
          <note pan="0" vol="150" key="61" len="12" pos="528"/>
          <note pan="0" vol="150" key="60" len="12" pos="528"/>
          <note pan="0" vol="160" key="61" len="12" pos="576"/>
          <note pan="0" vol="160" key="60" len="12" pos="576"/>
          <note pan="0" vol="150" key="61" len="12" pos="624"/>
          <note pan="0" vol="150" key="60" len="12" pos="624"/>
          <note pan="0" vol="150" key="61" len="12" pos="672"/>
          <note pan="0" vol="150" key="60" len="12" pos="672"/>
          <note pan="0" vol="150" key="61" len="12" pos="720"/>
          <note pan="0" vol="150" key="60" len="12" pos="720"/>
          <note pan="0" vol="160" key="61" len="12" pos="744"/>
          <note pan="0" vol="160" key="60" len="12" pos="744"/>
        </pattern>
        <pattern steps="16" type="1" name="Kick drum" pos="1536" muted="0">
          <note pan="0" vol="170" key="61" len="12" pos="0"/>
          <note pan="0" vol="170" key="60" len="12" pos="0"/>
          <note pan="0" vol="150" key="61" len="12" pos="48"/>
          <note pan="0" vol="150" key="60" len="12" pos="48"/>
          <note pan="0" vol="150" key="61" len="11" pos="96"/>
          <note pan="0" vol="150" key="60" len="11" pos="96"/>
          <note pan="0" vol="150" key="61" len="12" pos="144"/>
          <note pan="0" vol="150" key="60" len="12" pos="144"/>
          <note pan="0" vol="160" key="61" len="12" pos="192"/>
          <note pan="0" vol="160" key="60" len="12" pos="192"/>
          <note pan="0" vol="150" key="61" len="12" pos="240"/>
          <note pan="0" vol="150" key="60" len="12" pos="240"/>
          <note pan="0" vol="150" key="61" len="12" pos="288"/>
          <note pan="0" vol="150" key="60" len="12" pos="288"/>
          <note pan="0" vol="150" key="61" len="12" pos="336"/>
          <note pan="0" vol="150" key="60" len="12" pos="336"/>
          <note pan="0" vol="160" key="61" len="12" pos="384"/>
          <note pan="0" vol="160" key="60" len="12" pos="384"/>
          <note pan="0" vol="150" key="61" len="12" pos="432"/>
          <note pan="0" vol="150" key="60" len="12" pos="432"/>
          <note pan="0" vol="150" key="61" len="12" pos="480"/>
          <note pan="0" vol="150" key="60" len="12" pos="480"/>
          <note pan="0" vol="150" key="61" len="12" pos="528"/>
          <note pan="0" vol="150" key="60" len="12" pos="528"/>
          <note pan="0" vol="160" key="61" len="12" pos="576"/>
          <note pan="0" vol="160" key="60" len="12" pos="576"/>
          <note pan="0" vol="150" key="61" len="12" pos="624"/>
          <note pan="0" vol="150" key="60" len="12" pos="624"/>
          <note pan="0" vol="150" key="61" len="12" pos="672"/>
          <note pan="0" vol="150" key="60" len="12" pos="672"/>
          <note pan="0" vol="150" key="61" len="12" pos="720"/>
          <note pan="0" vol="150" key="60" len="12" pos="720"/>
          <note pan="0" vol="160" key="61" len="12" pos="744"/>
          <note pan="0" vol="160" key="60" len="12" pos="744"/>
        </pattern>
        <pattern steps="16" type="1" name="Kick drum" pos="2304" muted="0">
          <note pan="0" vol="170" key="61" len="12" pos="0"/>
          <note pan="0" vol="170" key="60" len="12" pos="0"/>
          <note pan="0" vol="150" key="61" len="12" pos="48"/>
          <note pan="0" vol="150" key="60" len="12" pos="48"/>
          <note pan="0" vol="150" key="61" len="11" pos="96"/>
          <note pan="0" vol="150" key="60" len="11" pos="96"/>
          <note pan="0" vol="150" key="61" len="12" pos="144"/>
          <note pan="0" vol="150" key="60" len="12" pos="144"/>
          <note pan="0" vol="160" key="61" len="12" pos="192"/>
          <note pan="0" vol="160" key="60" len="12" pos="192"/>
          <note pan="0" vol="150" key="61" len="12" pos="240"/>
          <note pan="0" vol="150" key="60" len="12" pos="240"/>
          <note pan="0" vol="150" key="61" len="12" pos="288"/>
          <note pan="0" vol="150" key="60" len="12" pos="288"/>
          <note pan="0" vol="150" key="61" len="12" pos="336"/>
          <note pan="0" vol="150" key="60" len="12" pos="336"/>
          <note pan="0" vol="160" key="61" len="12" pos="384"/>
          <note pan="0" vol="160" key="60" len="12" pos="384"/>
          <note pan="0" vol="150" key="61" len="12" pos="432"/>
          <note pan="0" vol="150" key="60" len="12" pos="432"/>
          <note pan="0" vol="150" key="61" len="12" pos="480"/>
          <note pan="0" vol="150" key="60" len="12" pos="480"/>
          <note pan="0" vol="150" key="61" len="12" pos="528"/>
          <note pan="0" vol="150" key="60" len="12" pos="528"/>
          <note pan="0" vol="160" key="61" len="12" pos="576"/>
          <note pan="0" vol="160" key="60" len="12" pos="576"/>
          <note pan="0" vol="150" key="61" len="12" pos="624"/>
          <note pan="0" vol="150" key="60" len="12" pos="624"/>
          <note pan="0" vol="150" key="61" len="12" pos="672"/>
          <note pan="0" vol="150" key="60" len="12" pos="672"/>
          <note pan="0" vol="150" key="61" len="12" pos="720"/>
          <note pan="0" vol="150" key="60" len="12" pos="720"/>
          <note pan="0" vol="160" key="61" len="12" pos="744"/>
          <note pan="0" vol="160" key="60" len="12" pos="744"/>
        </pattern>
        <pattern steps="16" type="1" name="Kick drum" pos="3072" muted="0">
          <note pan="0" vol="170" key="61" len="12" pos="0"/>
          <note pan="0" vol="170" key="60" len="12" pos="0"/>
          <note pan="0" vol="150" key="61" len="12" pos="48"/>
          <note pan="0" vol="150" key="60" len="12" pos="48"/>
          <note pan="0" vol="150" key="61" len="11" pos="96"/>
          <note pan="0" vol="150" key="60" len="11" pos="96"/>
          <note pan="0" vol="150" key="61" len="12" pos="144"/>
          <note pan="0" vol="150" key="60" len="12" pos="144"/>
          <note pan="0" vol="160" key="61" len="12" pos="192"/>
          <note pan="0" vol="160" key="60" len="12" pos="192"/>
          <note pan="0" vol="150" key="61" len="12" pos="240"/>
          <note pan="0" vol="150" key="60" len="12" pos="240"/>
          <note pan="0" vol="150" key="61" len="12" pos="288"/>
          <note pan="0" vol="150" key="60" len="12" pos="288"/>
          <note pan="0" vol="150" key="61" len="12" pos="336"/>
          <note pan="0" vol="150" key="60" len="12" pos="336"/>
          <note pan="0" vol="160" key="61" len="12" pos="384"/>
          <note pan="0" vol="160" key="60" len="12" pos="384"/>
          <note pan="0" vol="150" key="61" len="12" pos="432"/>
          <note pan="0" vol="150" key="60" len="12" pos="432"/>
          <note pan="0" vol="150" key="61" len="12" pos="480"/>
          <note pan="0" vol="150" key="60" len="12" pos="480"/>
          <note pan="0" vol="150" key="61" len="12" pos="528"/>
          <note pan="0" vol="150" key="60" len="12" pos="528"/>
          <note pan="0" vol="160" key="61" len="12" pos="576"/>
          <note pan="0" vol="160" key="60" len="12" pos="576"/>
          <note pan="0" vol="150" key="61" len="12" pos="624"/>
          <note pan="0" vol="150" key="60" len="12" pos="624"/>
          <note pan="0" vol="150" key="61" len="12" pos="672"/>
          <note pan="0" vol="150" key="60" len="12" pos="672"/>
          <note pan="0" vol="150" key="61" len="12" pos="720"/>
          <note pan="0" vol="150" key="60" len="12" pos="720"/>
          <note pan="0" vol="160" key="61" len="12" pos="744"/>
          <note pan="0" vol="160" key="60" len="12" pos="744"/>
        </pattern>
        <pattern steps="16" type="1" name="Kick drum" pos="3840" muted="0">
          <note pan="0" vol="170" key="61" len="12" pos="0"/>
          <note pan="0" vol="170" key="60" len="12" pos="0"/>
          <note pan="0" vol="150" key="61" len="12" pos="48"/>
          <note pan="0" vol="150" key="60" len="12" pos="48"/>
          <note pan="0" vol="150" key="61" len="11" pos="96"/>
          <note pan="0" vol="150" key="60" len="11" pos="96"/>
          <note pan="0" vol="150" key="61" len="12" pos="144"/>
          <note pan="0" vol="150" key="60" len="12" pos="144"/>
          <note pan="0" vol="160" key="61" len="12" pos="192"/>
          <note pan="0" vol="160" key="60" len="12" pos="192"/>
          <note pan="0" vol="150" key="61" len="12" pos="240"/>
          <note pan="0" vol="150" key="60" len="12" pos="240"/>
          <note pan="0" vol="150" key="61" len="12" pos="288"/>
          <note pan="0" vol="150" key="60" len="12" pos="288"/>
          <note pan="0" vol="150" key="61" len="12" pos="336"/>
          <note pan="0" vol="150" key="60" len="12" pos="336"/>
          <note pan="0" vol="160" key="61" len="12" pos="384"/>
          <note pan="0" vol="160" key="60" len="12" pos="384"/>
          <note pan="0" vol="150" key="61" len="12" pos="432"/>
          <note pan="0" vol="150" key="60" len="12" pos="432"/>
          <note pan="0" vol="150" key="61" len="12" pos="480"/>
          <note pan="0" vol="150" key="60" len="12" pos="480"/>
          <note pan="0" vol="150" key="61" len="12" pos="528"/>
          <note pan="0" vol="150" key="60" len="12" pos="528"/>
          <note pan="0" vol="160" key="61" len="12" pos="576"/>
          <note pan="0" vol="160" key="60" len="12" pos="576"/>
          <note pan="0" vol="150" key="61" len="12" pos="624"/>
          <note pan="0" vol="150" key="60" len="12" pos="624"/>
          <note pan="0" vol="150" key="61" len="12" pos="672"/>
          <note pan="0" vol="150" key="60" len="12" pos="672"/>
          <note pan="0" vol="150" key="61" len="12" pos="720"/>
          <note pan="0" vol="150" key="60" len="12" pos="720"/>
          <note pan="0" vol="160" key="61" len="12" pos="744"/>
          <note pan="0" vol="160" key="60" len="12" pos="744"/>
        </pattern>
        <pattern steps="16" type="1" name="Kick drum" pos="4608" muted="0">
          <note pan="0" vol="170" key="61" len="12" pos="0"/>
          <note pan="0" vol="170" key="60" len="12" pos="0"/>
          <note pan="0" vol="150" key="61" len="12" pos="48"/>
          <note pan="0" vol="150" key="60" len="12" pos="48"/>
          <note pan="0" vol="150" key="61" len="11" pos="96"/>
          <note pan="0" vol="150" key="60" len="11" pos="96"/>
          <note pan="0" vol="150" key="61" len="12" pos="144"/>
          <note pan="0" vol="150" key="60" len="12" pos="144"/>
          <note pan="0" vol="160" key="61" len="12" pos="192"/>
          <note pan="0" vol="160" key="60" len="12" pos="192"/>
          <note pan="0" vol="150" key="61" len="12" pos="240"/>
          <note pan="0" vol="150" key="60" len="12" pos="240"/>
          <note pan="0" vol="150" key="61" len="12" pos="288"/>
          <note pan="0" vol="150" key="60" len="12" pos="288"/>
          <note pan="0" vol="150" key="61" len="12" pos="336"/>
          <note pan="0" vol="150" key="60" len="12" pos="336"/>
          <note pan="0" vol="160" key="61" len="12" pos="384"/>
          <note pan="0" vol="160" key="60" len="12" pos="384"/>
          <note pan="0" vol="150" key="61" len="12" pos="432"/>
          <note pan="0" vol="150" key="60" len="12" pos="432"/>
          <note pan="0" vol="150" key="61" len="12" pos="480"/>
          <note pan="0" vol="150" key="60" len="12" pos="480"/>
          <note pan="0" vol="150" key="61" len="12" pos="528"/>
          <note pan="0" vol="150" key="60" len="12" pos="528"/>
          <note pan="0" vol="160" key="61" len="12" pos="576"/>
          <note pan="0" vol="160" key="60" len="12" pos="576"/>
          <note pan="0" vol="150" key="61" len="12" pos="624"/>
          <note pan="0" vol="150" key="60" len="12" pos="624"/>
          <note pan="0" vol="150" key="61" len="12" pos="672"/>
          <note pan="0" vol="150" key="60" len="12" pos="672"/>
          <note pan="0" vol="150" key="61" len="12" pos="720"/>
          <note pan="0" vol="150" key="60" len="12" pos="720"/>
          <note pan="0" vol="160" key="61" len="12" pos="744"/>
          <note pan="0" vol="160" key="60" len="12" pos="744"/>
        </pattern>
        <pattern steps="16" type="1" name="Kick drum" pos="5376" muted="0">
          <note pan="0" vol="170" key="61" len="12" pos="0"/>
          <note pan="0" vol="170" key="60" len="12" pos="0"/>
          <note pan="0" vol="150" key="61" len="12" pos="48"/>
          <note pan="0" vol="150" key="60" len="12" pos="48"/>
          <note pan="0" vol="150" key="61" len="11" pos="96"/>
          <note pan="0" vol="150" key="60" len="11" pos="96"/>
          <note pan="0" vol="150" key="61" len="12" pos="144"/>
          <note pan="0" vol="150" key="60" len="12" pos="144"/>
          <note pan="0" vol="160" key="61" len="12" pos="192"/>
          <note pan="0" vol="160" key="60" len="12" pos="192"/>
          <note pan="0" vol="150" key="61" len="12" pos="240"/>
          <note pan="0" vol="150" key="60" len="12" pos="240"/>
          <note pan="0" vol="150" key="61" len="12" pos="288"/>
          <note pan="0" vol="150" key="60" len="12" pos="288"/>
          <note pan="0" vol="150" key="61" len="12" pos="336"/>
          <note pan="0" vol="150" key="60" len="12" pos="336"/>
          <note pan="0" vol="160" key="61" len="12" pos="384"/>
          <note pan="0" vol="160" key="60" len="12" pos="384"/>
          <note pan="0" vol="150" key="61" len="12" pos="432"/>
          <note pan="0" vol="150" key="60" len="12" pos="432"/>
          <note pan="0" vol="150" key="61" len="12" pos="480"/>
          <note pan="0" vol="150" key="60" len="12" pos="480"/>
          <note pan="0" vol="150" key="61" len="12" pos="528"/>
          <note pan="0" vol="150" key="60" len="12" pos="528"/>
          <note pan="0" vol="160" key="61" len="12" pos="576"/>
          <note pan="0" vol="160" key="60" len="12" pos="576"/>
          <note pan="0" vol="150" key="61" len="12" pos="624"/>
          <note pan="0" vol="150" key="60" len="12" pos="624"/>
          <note pan="0" vol="150" key="61" len="12" pos="672"/>
          <note pan="0" vol="150" key="60" len="12" pos="672"/>
          <note pan="0" vol="150" key="61" len="12" pos="720"/>
          <note pan="0" vol="150" key="60" len="12" pos="720"/>
          <note pan="0" vol="160" key="61" len="12" pos="744"/>
          <note pan="0" vol="160" key="60" len="12" pos="744"/>
        </pattern>
        <pattern steps="16" type="1" name="Kick drum" pos="6144" muted="0">
          <note pan="0" vol="170" key="61" len="12" pos="0"/>
          <note pan="0" vol="170" key="60" len="12" pos="0"/>
          <note pan="0" vol="150" key="61" len="12" pos="48"/>
          <note pan="0" vol="150" key="60" len="12" pos="48"/>
          <note pan="0" vol="150" key="61" len="11" pos="96"/>
          <note pan="0" vol="150" key="60" len="11" pos="96"/>
          <note pan="0" vol="150" key="61" len="12" pos="144"/>
          <note pan="0" vol="150" key="60" len="12" pos="144"/>
          <note pan="0" vol="160" key="61" len="12" pos="192"/>
          <note pan="0" vol="160" key="60" len="12" pos="192"/>
          <note pan="0" vol="150" key="61" len="12" pos="240"/>
          <note pan="0" vol="150" key="60" len="12" pos="240"/>
          <note pan="0" vol="150" key="61" len="12" pos="288"/>
          <note pan="0" vol="150" key="60" len="12" pos="288"/>
          <note pan="0" vol="150" key="61" len="12" pos="336"/>
          <note pan="0" vol="150" key="60" len="12" pos="336"/>
          <note pan="0" vol="160" key="61" len="12" pos="384"/>
          <note pan="0" vol="160" key="60" len="12" pos="384"/>
          <note pan="0" vol="150" key="61" len="12" pos="432"/>
          <note pan="0" vol="150" key="60" len="12" pos="432"/>
          <note pan="0" vol="150" key="61" len="12" pos="480"/>
          <note pan="0" vol="150" key="60" len="12" pos="480"/>
          <note pan="0" vol="150" key="61" len="12" pos="528"/>
          <note pan="0" vol="150" key="60" len="12" pos="528"/>
          <note pan="0" vol="160" key="61" len="12" pos="576"/>
          <note pan="0" vol="160" key="60" len="12" pos="576"/>
          <note pan="0" vol="150" key="61" len="12" pos="624"/>
          <note pan="0" vol="150" key="60" len="12" pos="624"/>
          <note pan="0" vol="150" key="61" len="12" pos="672"/>
          <note pan="0" vol="150" key="60" len="12" pos="672"/>
          <note pan="0" vol="150" key="61" len="12" pos="720"/>
          <note pan="0" vol="150" key="60" len="12" pos="720"/>
          <note pan="0" vol="160" key="61" len="12" pos="744"/>
          <note pan="0" vol="160" key="60" len="12" pos="744"/>
        </pattern>
        <pattern steps="16" type="1" name="Kick drum" pos="6912" muted="0">
          <note pan="0" vol="170" key="61" len="12" pos="0"/>
          <note pan="0" vol="170" key="60" len="12" pos="0"/>
          <note pan="0" vol="150" key="61" len="12" pos="48"/>
          <note pan="0" vol="150" key="60" len="12" pos="48"/>
          <note pan="0" vol="150" key="61" len="11" pos="96"/>
          <note pan="0" vol="150" key="60" len="11" pos="96"/>
          <note pan="0" vol="150" key="61" len="12" pos="144"/>
          <note pan="0" vol="150" key="60" len="12" pos="144"/>
          <note pan="0" vol="160" key="61" len="12" pos="192"/>
          <note pan="0" vol="160" key="60" len="12" pos="192"/>
          <note pan="0" vol="150" key="61" len="12" pos="240"/>
          <note pan="0" vol="150" key="60" len="12" pos="240"/>
          <note pan="0" vol="150" key="61" len="12" pos="288"/>
          <note pan="0" vol="150" key="60" len="12" pos="288"/>
          <note pan="0" vol="150" key="61" len="12" pos="336"/>
          <note pan="0" vol="150" key="60" len="12" pos="336"/>
          <note pan="0" vol="160" key="61" len="12" pos="384"/>
          <note pan="0" vol="160" key="60" len="12" pos="384"/>
          <note pan="0" vol="150" key="61" len="12" pos="432"/>
          <note pan="0" vol="150" key="60" len="12" pos="432"/>
          <note pan="0" vol="150" key="61" len="12" pos="480"/>
          <note pan="0" vol="150" key="60" len="12" pos="480"/>
          <note pan="0" vol="150" key="61" len="12" pos="528"/>
          <note pan="0" vol="150" key="60" len="12" pos="528"/>
          <note pan="0" vol="160" key="61" len="12" pos="576"/>
          <note pan="0" vol="160" key="60" len="12" pos="576"/>
          <note pan="0" vol="150" key="61" len="12" pos="624"/>
          <note pan="0" vol="150" key="60" len="12" pos="624"/>
          <note pan="0" vol="150" key="61" len="12" pos="672"/>
          <note pan="0" vol="150" key="60" len="12" pos="672"/>
          <note pan="0" vol="150" key="61" len="12" pos="720"/>
          <note pan="0" vol="150" key="60" len="12" pos="720"/>
          <note pan="0" vol="160" key="61" len="12" pos="744"/>
          <note pan="0" vol="160" key="60" len="12" pos="744"/>
        </pattern>
        <pattern steps="16" type="1" name="Kick drum" pos="7680" muted="0">
          <note pan="0" vol="170" key="61" len="12" pos="0"/>
          <note pan="0" vol="170" key="60" len="12" pos="0"/>
          <note pan="0" vol="150" key="61" len="12" pos="48"/>
          <note pan="0" vol="150" key="60" len="12" pos="48"/>
          <note pan="0" vol="150" key="61" len="11" pos="96"/>
          <note pan="0" vol="150" key="60" len="11" pos="96"/>
          <note pan="0" vol="150" key="61" len="12" pos="144"/>
          <note pan="0" vol="150" key="60" len="12" pos="144"/>
          <note pan="0" vol="160" key="61" len="12" pos="192"/>
          <note pan="0" vol="160" key="60" len="12" pos="192"/>
          <note pan="0" vol="150" key="61" len="12" pos="240"/>
          <note pan="0" vol="150" key="60" len="12" pos="240"/>
          <note pan="0" vol="150" key="61" len="12" pos="288"/>
          <note pan="0" vol="150" key="60" len="12" pos="288"/>
          <note pan="0" vol="150" key="61" len="12" pos="336"/>
          <note pan="0" vol="150" key="60" len="12" pos="336"/>
          <note pan="0" vol="160" key="61" len="12" pos="384"/>
          <note pan="0" vol="160" key="60" len="12" pos="384"/>
          <note pan="0" vol="150" key="61" len="12" pos="432"/>
          <note pan="0" vol="150" key="60" len="12" pos="432"/>
          <note pan="0" vol="150" key="61" len="12" pos="480"/>
          <note pan="0" vol="150" key="60" len="12" pos="480"/>
          <note pan="0" vol="150" key="61" len="12" pos="528"/>
          <note pan="0" vol="150" key="60" len="12" pos="528"/>
          <note pan="0" vol="160" key="61" len="12" pos="576"/>
          <note pan="0" vol="160" key="60" len="12" pos="576"/>
          <note pan="0" vol="150" key="61" len="12" pos="624"/>
          <note pan="0" vol="150" key="60" len="12" pos="624"/>
          <note pan="0" vol="150" key="61" len="12" pos="672"/>
          <note pan="0" vol="150" key="60" len="12" pos="672"/>
          <note pan="0" vol="150" key="61" len="12" pos="720"/>
          <note pan="0" vol="150" key="60" len="12" pos="720"/>
          <note pan="0" vol="160" key="61" len="12" pos="744"/>
          <note pan="0" vol="160" key="60" len="12" pos="744"/>
        </pattern>
        <pattern steps="16" type="1" name="Kick drum" pos="8448" muted="0">
          <note pan="0" vol="170" key="61" len="12" pos="0"/>
          <note pan="0" vol="170" key="60" len="12" pos="0"/>
          <note pan="0" vol="150" key="61" len="12" pos="48"/>
          <note pan="0" vol="150" key="60" len="12" pos="48"/>
          <note pan="0" vol="150" key="61" len="11" pos="96"/>
          <note pan="0" vol="150" key="60" len="11" pos="96"/>
          <note pan="0" vol="150" key="61" len="12" pos="144"/>
          <note pan="0" vol="150" key="60" len="12" pos="144"/>
          <note pan="0" vol="160" key="61" len="12" pos="192"/>
          <note pan="0" vol="160" key="60" len="12" pos="192"/>
          <note pan="0" vol="150" key="61" len="12" pos="240"/>
          <note pan="0" vol="150" key="60" len="12" pos="240"/>
          <note pan="0" vol="150" key="61" len="12" pos="288"/>
          <note pan="0" vol="150" key="60" len="12" pos="288"/>
          <note pan="0" vol="150" key="61" len="12" pos="336"/>
          <note pan="0" vol="150" key="60" len="12" pos="336"/>
          <note pan="0" vol="160" key="61" len="12" pos="384"/>
          <note pan="0" vol="160" key="60" len="12" pos="384"/>
          <note pan="0" vol="150" key="61" len="12" pos="432"/>
          <note pan="0" vol="150" key="60" len="12" pos="432"/>
          <note pan="0" vol="150" key="61" len="12" pos="480"/>
          <note pan="0" vol="150" key="60" len="12" pos="480"/>
          <note pan="0" vol="150" key="61" len="12" pos="528"/>
          <note pan="0" vol="150" key="60" len="12" pos="528"/>
          <note pan="0" vol="160" key="61" len="12" pos="576"/>
          <note pan="0" vol="160" key="60" len="12" pos="576"/>
          <note pan="0" vol="150" key="61" len="12" pos="624"/>
          <note pan="0" vol="150" key="60" len="12" pos="624"/>
          <note pan="0" vol="150" key="61" len="12" pos="672"/>
          <note pan="0" vol="150" key="60" len="12" pos="672"/>
          <note pan="0" vol="150" key="61" len="12" pos="720"/>
          <note pan="0" vol="150" key="60" len="12" pos="720"/>
          <note pan="0" vol="160" key="61" len="12" pos="744"/>
          <note pan="0" vol="160" key="60" len="12" pos="744"/>
        </pattern>
        <pattern steps="16" type="1" name="Kick drum" pos="9216" muted="0">
          <note pan="0" vol="170" key="61" len="12" pos="0"/>
          <note pan="0" vol="170" key="60" len="12" pos="0"/>
          <note pan="0" vol="150" key="61" len="12" pos="48"/>
          <note pan="0" vol="150" key="60" len="12" pos="48"/>
          <note pan="0" vol="150" key="61" len="11" pos="96"/>
          <note pan="0" vol="150" key="60" len="11" pos="96"/>
          <note pan="0" vol="150" key="61" len="12" pos="144"/>
          <note pan="0" vol="150" key="60" len="12" pos="144"/>
          <note pan="0" vol="160" key="61" len="12" pos="192"/>
          <note pan="0" vol="160" key="60" len="12" pos="192"/>
          <note pan="0" vol="150" key="61" len="12" pos="240"/>
          <note pan="0" vol="150" key="60" len="12" pos="240"/>
          <note pan="0" vol="150" key="61" len="12" pos="288"/>
          <note pan="0" vol="150" key="60" len="12" pos="288"/>
          <note pan="0" vol="150" key="61" len="12" pos="336"/>
          <note pan="0" vol="150" key="60" len="12" pos="336"/>
          <note pan="0" vol="160" key="61" len="12" pos="384"/>
          <note pan="0" vol="160" key="60" len="12" pos="384"/>
          <note pan="0" vol="150" key="61" len="12" pos="432"/>
          <note pan="0" vol="150" key="60" len="12" pos="432"/>
          <note pan="0" vol="150" key="61" len="12" pos="480"/>
          <note pan="0" vol="150" key="60" len="12" pos="480"/>
          <note pan="0" vol="150" key="61" len="12" pos="528"/>
          <note pan="0" vol="150" key="60" len="12" pos="528"/>
          <note pan="0" vol="160" key="61" len="12" pos="576"/>
          <note pan="0" vol="160" key="60" len="12" pos="576"/>
          <note pan="0" vol="150" key="61" len="12" pos="624"/>
          <note pan="0" vol="150" key="60" len="12" pos="624"/>
          <note pan="0" vol="150" key="61" len="12" pos="672"/>
          <note pan="0" vol="150" key="60" len="12" pos="672"/>
          <note pan="0" vol="150" key="61" len="12" pos="720"/>
          <note pan="0" vol="150" key="60" len="12" pos="720"/>
          <note pan="0" vol="160" key="61" len="12" pos="744"/>
          <note pan="0" vol="160" key="60" len="12" pos="744"/>
        </pattern>
        <pattern steps="16" type="1" name="Kick drum" pos="9984" muted="0">
          <note pan="0" vol="170" key="61" len="12" pos="0"/>
          <note pan="0" vol="170" key="60" len="12" pos="0"/>
          <note pan="0" vol="150" key="61" len="12" pos="48"/>
          <note pan="0" vol="150" key="60" len="12" pos="48"/>
          <note pan="0" vol="150" key="61" len="11" pos="96"/>
          <note pan="0" vol="150" key="60" len="11" pos="96"/>
          <note pan="0" vol="150" key="61" len="12" pos="144"/>
          <note pan="0" vol="150" key="60" len="12" pos="144"/>
          <note pan="0" vol="160" key="61" len="12" pos="192"/>
          <note pan="0" vol="160" key="60" len="12" pos="192"/>
          <note pan="0" vol="150" key="61" len="12" pos="240"/>
          <note pan="0" vol="150" key="60" len="12" pos="240"/>
          <note pan="0" vol="150" key="61" len="12" pos="288"/>
          <note pan="0" vol="150" key="60" len="12" pos="288"/>
          <note pan="0" vol="150" key="61" len="12" pos="336"/>
          <note pan="0" vol="150" key="60" len="12" pos="336"/>
          <note pan="0" vol="160" key="61" len="12" pos="384"/>
          <note pan="0" vol="160" key="60" len="12" pos="384"/>
          <note pan="0" vol="150" key="61" len="12" pos="432"/>
          <note pan="0" vol="150" key="60" len="12" pos="432"/>
          <note pan="0" vol="150" key="61" len="12" pos="480"/>
          <note pan="0" vol="150" key="60" len="12" pos="480"/>
          <note pan="0" vol="150" key="61" len="12" pos="528"/>
          <note pan="0" vol="150" key="60" len="12" pos="528"/>
          <note pan="0" vol="160" key="61" len="12" pos="576"/>
          <note pan="0" vol="160" key="60" len="12" pos="576"/>
          <note pan="0" vol="150" key="61" len="12" pos="624"/>
          <note pan="0" vol="150" key="60" len="12" pos="624"/>
          <note pan="0" vol="150" key="61" len="12" pos="672"/>
          <note pan="0" vol="150" key="60" len="12" pos="672"/>
          <note pan="0" vol="150" key="61" len="12" pos="720"/>
          <note pan="0" vol="150" key="60" len="12" pos="720"/>
          <note pan="0" vol="160" key="61" len="12" pos="744"/>
          <note pan="0" vol="160" key="60" len="12" pos="744"/>
        </pattern>
        <pattern steps="16" type="1" name="Kick drum" pos="10752" muted="0">
          <note pan="0" vol="170" key="61" len="12" pos="0"/>
          <note pan="0" vol="170" key="60" len="12" pos="0"/>
          <note pan="0" vol="150" key="61" len="12" pos="48"/>
          <note pan="0" vol="150" key="60" len="12" pos="48"/>
          <note pan="0" vol="150" key="61" len="11" pos="96"/>
          <note pan="0" vol="150" key="60" len="11" pos="96"/>
          <note pan="0" vol="150" key="61" len="12" pos="144"/>
          <note pan="0" vol="150" key="60" len="12" pos="144"/>
          <note pan="0" vol="160" key="61" len="12" pos="192"/>
          <note pan="0" vol="160" key="60" len="12" pos="192"/>
          <note pan="0" vol="150" key="61" len="12" pos="240"/>
          <note pan="0" vol="150" key="60" len="12" pos="240"/>
          <note pan="0" vol="150" key="61" len="12" pos="288"/>
          <note pan="0" vol="150" key="60" len="12" pos="288"/>
          <note pan="0" vol="150" key="61" len="12" pos="336"/>
          <note pan="0" vol="150" key="60" len="12" pos="336"/>
          <note pan="0" vol="160" key="61" len="12" pos="384"/>
          <note pan="0" vol="160" key="60" len="12" pos="384"/>
          <note pan="0" vol="150" key="61" len="12" pos="432"/>
          <note pan="0" vol="150" key="60" len="12" pos="432"/>
          <note pan="0" vol="150" key="61" len="12" pos="480"/>
          <note pan="0" vol="150" key="60" len="12" pos="480"/>
          <note pan="0" vol="150" key="61" len="12" pos="528"/>
          <note pan="0" vol="150" key="60" len="12" pos="528"/>
          <note pan="0" vol="160" key="61" len="12" pos="576"/>
          <note pan="0" vol="160" key="60" len="12" pos="576"/>
          <note pan="0" vol="150" key="61" len="12" pos="624"/>
          <note pan="0" vol="150" key="60" len="12" pos="624"/>
          <note pan="0" vol="150" key="61" len="12" pos="672"/>
          <note pan="0" vol="150" key="60" len="12" pos="672"/>
          <note pan="0" vol="150" key="61" len="12" pos="720"/>
          <note pan="0" vol="150" key="60" len="12" pos="720"/>
          <note pan="0" vol="160" key="61" len="12" pos="744"/>
          <note pan="0" vol="160" key="60" len="12" pos="744"/>
        </pattern>
        <pattern steps="16" type="1" name="Kick drum" pos="11520" muted="0">
          <note pan="0" vol="170" key="61" len="12" pos="0"/>
          <note pan="0" vol="170" key="60" len="12" pos="0"/>
          <note pan="0" vol="150" key="61" len="12" pos="48"/>
          <note pan="0" vol="150" key="60" len="12" pos="48"/>
          <note pan="0" vol="150" key="61" len="11" pos="96"/>
          <note pan="0" vol="150" key="60" len="11" pos="96"/>
          <note pan="0" vol="150" key="61" len="12" pos="144"/>
          <note pan="0" vol="150" key="60" len="12" pos="144"/>
          <note pan="0" vol="160" key="61" len="12" pos="192"/>
          <note pan="0" vol="160" key="60" len="12" pos="192"/>
          <note pan="0" vol="150" key="61" len="12" pos="240"/>
          <note pan="0" vol="150" key="60" len="12" pos="240"/>
          <note pan="0" vol="150" key="61" len="12" pos="288"/>
          <note pan="0" vol="150" key="60" len="12" pos="288"/>
          <note pan="0" vol="150" key="61" len="12" pos="336"/>
          <note pan="0" vol="150" key="60" len="12" pos="336"/>
          <note pan="0" vol="160" key="61" len="12" pos="384"/>
          <note pan="0" vol="160" key="60" len="12" pos="384"/>
          <note pan="0" vol="150" key="61" len="12" pos="432"/>
          <note pan="0" vol="150" key="60" len="12" pos="432"/>
          <note pan="0" vol="150" key="61" len="12" pos="480"/>
          <note pan="0" vol="150" key="60" len="12" pos="480"/>
          <note pan="0" vol="150" key="61" len="12" pos="528"/>
          <note pan="0" vol="150" key="60" len="12" pos="528"/>
          <note pan="0" vol="160" key="61" len="12" pos="576"/>
          <note pan="0" vol="160" key="60" len="12" pos="576"/>
          <note pan="0" vol="150" key="61" len="12" pos="624"/>
          <note pan="0" vol="150" key="60" len="12" pos="624"/>
          <note pan="0" vol="150" key="61" len="12" pos="672"/>
          <note pan="0" vol="150" key="60" len="12" pos="672"/>
          <note pan="0" vol="150" key="61" len="12" pos="720"/>
          <note pan="0" vol="150" key="60" len="12" pos="720"/>
          <note pan="0" vol="160" key="61" len="12" pos="744"/>
          <note pan="0" vol="160" key="60" len="12" pos="744"/>
        </pattern>
      </track>
      <track solo="0" type="0" name="Snare drum" muted="0">
        <instrumenttrack pitch="92" pan="0" vol="12" pitchrange="1" fxch="0" usemasterpitch="1" basenote="57">
          <instrument name="vestige">
            <vestige program="0" plugin="C:/Program Files/VstPlugins/Addictive Drums 2.dll" guivisible="0" chunk="Q09UVEFEMlN0YXRlVmVyc2lvbgAzAEFkdmFuY2VkR1VJRW5hYmxlADAAQXVkaW9QbGF5ZXJfR2FpbgAxAEF1ZGlvUGxheWVyX0xvb3AAMABBdWRpb1BsYXllcl9QbGF5ADAAQXVkaW9SZWNfQXV0b1JlY29yZAAxAEJlYXRzVGFiAEdhbGxlcnkAQmVhdHNfV2FudGVkX1RpbWVTaWduR1NPZmYAQWxsAEJlYXRzX1dhbnRlZF9UaW1lU2lnbkdTT24ANC80AENoU2VsZWN0aW9uAE1hc3RlcgBEb0xvYWREZWZhdWx0UHJlc2V0ADAARXhwbG9yZUZpbGVBbmRQYXJhbXMAeyBFeHBsb3JlRmlsZSA9ICJGYWlyZmF4Vm9sMV9TZWxlY3Rpb25zLkV4cGxvcmUiLCBQYXJhbXMgPSB7IER5bmFtaWNyYW5nZSA9IDAuNSwgRnggPSAwLjUsIFRvbmUgPSAwLjV9fQBFeHBsb3JlV2FybmluZ1Zpc2libGUAMABGWF9CdXMvRVFfQ3V0SGlGcmVxADAuOTAyNDM5MDU4AEZYX0J1cy9FUV9DdXRIaVEAMC40OTU3ODk0NjgARlhfQnVzL0VRX0N1dExvRnJlcQAwLjA2MjcxNzc2NTYARlhfQnVzL0VRX0N1dExvUQAwLjUARlhfQnVzL0VRX0VuYWJsZQAxAEZYX0J1cy9FUV9IaTJGcmVxADAuODAwMDAwMDEyAEZYX0J1cy9FUV9IaTJHYWluADAuNQBGWF9CdXMvRVFfSGkyUQAwLjY5OTk5OTk4OABGWF9CdXMvRVFfSGlGcmVxADAuODc4NzUwNzQxAEZYX0J1cy9FUV9IaUdhaW4AMC41AEZYX0J1cy9FUV9IaVEAMC4zMjUyNTc1MQBGWF9CdXMvRVFfTG9GcmVxADAuMjMyOTg5OTk3AEZYX0J1cy9FUV9Mb0dhaW4AMC41AEZYX0J1cy9FUV9Mb1EAMC4zMjUyNTc1MQBGWF9CdXMvRVFfTWlkRnJlcQAwLjU2NjMyMzM0AEZYX0J1cy9FUV9NaWRHYWluADAuNQBGWF9CdXMvRVFfTWlkUQAwLjMyNTI1NzUxAEZYX0J1cy9FbmFibGUAMQBGWF9CdXMvRW5hYmxlRlgAMQBGWF9CdXMvRmlsdGVyX0VuYWJsZQAwAEZYX0J1cy9GaWx0ZXJfSGkAMQBGWF9CdXMvRmlsdGVyX0xvADAARlhfQnVzL0dVSU11dGUAMABGWF9CdXMvR1VJU29sbwAwAEZYX0J1cy9JbnZlcnQAMABGWF9CdXMvTGV2ZWwAMC42NzgyMzQyNzkARlhfQnVzL011bHRpRlgxL0NvbXBfQXR0YWNrADAARlhfQnVzL011bHRpRlgxL0NvbXBfRW5hYmxlADAARlhfQnVzL011bHRpRlgxL0NvbXBfUmF0aW8AMABGWF9CdXMvTXVsdGlGWDEvQ29tcF9SZWxlYXNlADAARlhfQnVzL011bHRpRlgxL0NvbXBfVGhyZXNob2xkADEARlhfQnVzL011bHRpRlgxL0N1cnJlbnRTZWxlY3Rpb24AQ29tcABGWF9CdXMvTXVsdGlGWDEvRGlzdF9BbW91bnQAMQBGWF9CdXMvTXVsdGlGWDEvRGlzdF9FbmFibGUAMQBGWF9CdXMvTXVsdGlGWDEvRGlzdF9GcmVxSGkAMC41NDAwMzE5MQBGWF9CdXMvTXVsdGlGWDEvRGlzdF9GcmVxTG8AMC4xMTc3ODUwNzQARlhfQnVzL011bHRpRlgxL0Rpc3RfTWl4ADEARlhfQnVzL011bHRpRlgxL0Rpc3RfVHlwZQA2AEZYX0J1cy9NdWx0aUZYMS9FbmFibGUAMQBGWF9CdXMvTXVsdGlGWDEvTGltaXRlcl9FbmFibGUAMABGWF9CdXMvTXVsdGlGWDEvTGltaXRlcl9UaHJlc2hvbGQAMC41AEZYX0J1cy9NdWx0aUZYMS9UYXBlX0Ftb3VudAAwLjUARlhfQnVzL011bHRpRlgxL1RhcGVfQ29sb3IAMABGWF9CdXMvTXVsdGlGWDEvVGFwZV9FbmFibGUAMABGWF9CdXMvTXVsdGlGWDEvVHJhbnNpZW50X0F0dGFjawAwLjUARlhfQnVzL011bHRpRlgxL1RyYW5zaWVudF9EZWNheQAwLjUARlhfQnVzL011bHRpRlgxL1RyYW5zaWVudF9FbmFibGUAMABGWF9CdXMvTXVsdGlGWDIvQ29tcF9BdHRhY2sAMC4yMDAwMDAwMDMARlhfQnVzL011bHRpRlgyL0NvbXBfRW5hYmxlADAARlhfQnVzL011bHRpRlgyL0NvbXBfUmF0aW8AMC41AEZYX0J1cy9NdWx0aUZYMi9Db21wX1JlbGVhc2UAMC4yMDAwMDAwMDMARlhfQnVzL011bHRpRlgyL0NvbXBfVGhyZXNob2xkADAuNQBGWF9CdXMvTXVsdGlGWDIvQ3VycmVudFNlbGVjdGlvbgBNYXN0ZXIARlhfQnVzL011bHRpRlgyL0Rpc3RfQW1vdW50ADAuNQBGWF9CdXMvTXVsdGlGWDIvRGlzdF9FbmFibGUAMABGWF9CdXMvTXVsdGlGWDIvRGlzdF9GcmVxSGkAMQBGWF9CdXMvTXVsdGlGWDIvRGlzdF9GcmVxTG8AMABGWF9CdXMvTXVsdGlGWDIvRGlzdF9NaXgAMC41AEZYX0J1cy9NdWx0aUZYMi9EaXN0X1R5cGUANQBGWF9CdXMvTXVsdGlGWDIvRW5hYmxlADEARlhfQnVzL011bHRpRlgyL0xpbWl0ZXJfRW5hYmxlADAARlhfQnVzL011bHRpRlgyL0xpbWl0ZXJfVGhyZXNob2xkADAuNQBGWF9CdXMvTXVsdGlGWDIvVGFwZV9BbW91bnQAMQBGWF9CdXMvTXVsdGlGWDIvVGFwZV9Db2xvcgAxAEZYX0J1cy9NdWx0aUZYMi9UYXBlX0VuYWJsZQAxAEZYX0J1cy9NdWx0aUZYMi9UcmFuc2llbnRfQXR0YWNrADAuNQBGWF9CdXMvTXVsdGlGWDIvVHJhbnNpZW50X0RlY2F5ADAuNQBGWF9CdXMvTXVsdGlGWDIvVHJhbnNpZW50X0VuYWJsZQAwAEZYX0J1cy9Ob2lzZV9EZWNheVRpbWUAMC41AEZYX0J1cy9Ob2lzZV9FbmFibGUAMABGWF9CdXMvTm9pc2VfR2F0ZUxldmVsADAuNDQ5OTk5OTg4AEZYX0J1cy9Ob2lzZV9Ob2lzZUxldmVsADAuNQBGWF9CdXMvTm9pc2VfTm9pc2VUeXBlADAARlhfQnVzL091dExldmVsADAuNQBGWF9CdXMvUGFuX1BhbgAwLjUARlhfQnVzL1Bhbl9XaWR0aAAxAEZYX0J1cy9TZW5kMUxldmVsADAARlhfQnVzL1NlbmQyTGV2ZWwAMC43OTIzODA4MQBGWF9CdXMvU2VuZHNfRW5hYmxlADEARlhfQnVzL1NlbmRzX0VuYWJsZV9JbnRlcm5hbAAxAEZYX0J1cy9TZXBhcmF0ZU91dAAwAEZYX0J1cy9TZXBhcmF0ZU91dE1vZGUAMQBGWF9CdXMvU2VwYXJhdGVPdXRNdXRlTWFzdGVyADAARlhfQnVzL1NlcGFyYXRlT3V0UG9zdEZhZGVyADAARlhfRkxYMS9FUV9DdXRIaUZyZXEAMQBGWF9GTFgxL0VRX0N1dEhpUQAwLjUyNTI2MzEzMQBGWF9GTFgxL0VRX0N1dExvRnJlcQAwLjQ1Mjk2MTY4MwBGWF9GTFgxL0VRX0N1dExvUQAwLjM4NDIxMDUyNwBGWF9GTFgxL0VRX0VuYWJsZQAxAEZYX0ZMWDEvRVFfSGkyRnJlcQAwLjgwMDAwMDAxMgBGWF9GTFgxL0VRX0hpMkdhaW4AMC41AEZYX0ZMWDEvRVFfSGkyUQAwLjM2OTk5OTk3NQBGWF9GTFgxL0VRX0hpRnJlcQAwLjgwNTU3OTk2AEZYX0ZMWDEvRVFfSGlHYWluADAuNjc4OTQ3Mzg5AEZYX0ZMWDEvRVFfSGlRADAuNTY1MjU3NDkARlhfRkxYMS9FUV9Mb0ZyZXEAMC4yMzI5ODk5OTcARlhfRkxYMS9FUV9Mb0dhaW4AMC41AEZYX0ZMWDEvRVFfTG9RADAuMzI1MjU3NTEARlhfRkxYMS9FUV9NaWRGcmVxADAuNDAwMDAwMDA2AEZYX0ZMWDEvRVFfTWlkR2FpbgAwLjUARlhfRkxYMS9FUV9NaWRRADAuMzI1MjU3NTEARlhfRkxYMS9FbmFibGUAMQBGWF9GTFgxL0VuYWJsZUZYADEARlhfRkxYMS9HVUlNdXRlADAARlhfRkxYMS9HVUlTb2xvADAARlhfRkxYMS9JbnZlcnQAMABGWF9GTFgxL0xldmVsADEARlhfRkxYMS9NdWx0aUZYMS9Db21wX0F0dGFjawAwLjcxOTc4MDIwNwBGWF9GTFgxL011bHRpRlgxL0NvbXBfRW5hYmxlADEARlhfRkxYMS9NdWx0aUZYMS9Db21wX1JhdGlvADAuNjM3MzYyNjU5AEZYX0ZMWDEvTXVsdGlGWDEvQ29tcF9SZWxlYXNlADAuMzE4NjgxMzI5AEZYX0ZMWDEvTXVsdGlGWDEvQ29tcF9UaHJlc2hvbGQAMC4xNDAwMDAwMTUARlhfRkxYMS9NdWx0aUZYMS9DdXJyZW50U2VsZWN0aW9uAENvbXAARlhfRkxYMS9NdWx0aUZYMS9EaXN0X0Ftb3VudAAxAEZYX0ZMWDEvTXVsdGlGWDEvRGlzdF9FbmFibGUAMQBGWF9GTFgxL011bHRpRlgxL0Rpc3RfRnJlcUhpADEARlhfRkxYMS9NdWx0aUZYMS9EaXN0X0ZyZXFMbwAwAEZYX0ZMWDEvTXVsdGlGWDEvRGlzdF9NaXgAMQBGWF9GTFgxL011bHRpRlgxL0Rpc3RfVHlwZQA1AEZYX0ZMWDEvTXVsdGlGWDEvRW5hYmxlADEARlhfRkxYMS9NdWx0aUZYMS9MaW1pdGVyX0VuYWJsZQAwAEZYX0ZMWDEvTXVsdGlGWDEvTGltaXRlcl9UaHJlc2hvbGQAMC41AEZYX0ZMWDEvTXVsdGlGWDEvVGFwZV9BbW91bnQAMC41AEZYX0ZMWDEvTXVsdGlGWDEvVGFwZV9Db2xvcgAwAEZYX0ZMWDEvTXVsdGlGWDEvVGFwZV9FbmFibGUAMABGWF9GTFgxL011bHRpRlgxL1RyYW5zaWVudF9BdHRhY2sAMC41AEZYX0ZMWDEvTXVsdGlGWDEvVHJhbnNpZW50X0RlY2F5ADAuNQBGWF9GTFgxL011bHRpRlgxL1RyYW5zaWVudF9FbmFibGUAMABGWF9GTFgxL011bHRpRlgyL0NvbXBfQXR0YWNrADAuMjAwMDAwMDAzAEZYX0ZMWDEvTXVsdGlGWDIvQ29tcF9FbmFibGUAMABGWF9GTFgxL011bHRpRlgyL0NvbXBfUmF0aW8AMC41AEZYX0ZMWDEvTXVsdGlGWDIvQ29tcF9SZWxlYXNlADAuMjAwMDAwMDAzAEZYX0ZMWDEvTXVsdGlGWDIvQ29tcF9UaHJlc2hvbGQAMC41AEZYX0ZMWDEvTXVsdGlGWDIvQ3VycmVudFNlbGVjdGlvbgBNYXN0ZXIARlhfRkxYMS9NdWx0aUZYMi9EaXN0X0Ftb3VudAAwLjUARlhfRkxYMS9NdWx0aUZYMi9EaXN0X0VuYWJsZQAwAEZYX0ZMWDEvTXVsdGlGWDIvRGlzdF9GcmVxSGkAMQBGWF9GTFgxL011bHRpRlgyL0Rpc3RfRnJlcUxvADAARlhfRkxYMS9NdWx0aUZYMi9EaXN0X01peAAwLjUARlhfRkxYMS9NdWx0aUZYMi9EaXN0X1R5cGUANQBGWF9GTFgxL011bHRpRlgyL0VuYWJsZQAxAEZYX0ZMWDEvTXVsdGlGWDIvTGltaXRlcl9FbmFibGUAMABGWF9GTFgxL011bHRpRlgyL0xpbWl0ZXJfVGhyZXNob2xkADAuNQBGWF9GTFgxL011bHRpRlgyL1RhcGVfQW1vdW50ADAuNTY0Mjg1Njk2AEZYX0ZMWDEvTXVsdGlGWDIvVGFwZV9Db2xvcgAwLjI5OTk5OTk4MgBGWF9GTFgxL011bHRpRlgyL1RhcGVfRW5hYmxlADEARlhfRkxYMS9NdWx0aUZYMi9UcmFuc2llbnRfQXR0YWNrADAuNQBGWF9GTFgxL011bHRpRlgyL1RyYW5zaWVudF9EZWNheQAwLjUARlhfRkxYMS9NdWx0aUZYMi9UcmFuc2llbnRfRW5hYmxlADAARlhfRkxYMS9Ob2lzZV9EZWNheVRpbWUAMC41AEZYX0ZMWDEvTm9pc2VfRW5hYmxlADAARlhfRkxYMS9Ob2lzZV9HYXRlTGV2ZWwAMC40NDk5OTk5ODgARlhfRkxYMS9Ob2lzZV9Ob2lzZUxldmVsADAuNQBGWF9GTFgxL05vaXNlX05vaXNlVHlwZQAwAEZYX0ZMWDEvT3V0TGV2ZWwAMC42NDY3NDI3MDIARlhfRkxYMS9QYW5fUGFuADAuNQBGWF9GTFgxL1NlbmQxTGV2ZWwAMC42NDkwOTg3NTQARlhfRkxYMS9TZW5kMkxldmVsADAARlhfRkxYMS9TZW5kQnVzTGV2ZWwAMABGWF9GTFgxL1NlbmRzX0VuYWJsZQAxAEZYX0ZMWDEvU2VuZHNfRW5hYmxlX0ludGVybmFsADEARlhfRkxYMS9TZXBhcmF0ZU91dAAwAEZYX0ZMWDEvU2VwYXJhdGVPdXRNb2RlADEARlhfRkxYMS9TZXBhcmF0ZU91dE11dGVNYXN0ZXIAMABGWF9GTFgxL1NlcGFyYXRlT3V0UG9zdEZhZGVyADAARlhfRkxYMi9FUV9DdXRIaUZyZXEAMQBGWF9GTFgyL0VRX0N1dEhpUQAwLjUARlhfRkxYMi9FUV9DdXRMb0ZyZXEAMABGWF9GTFgyL0VRX0N1dExvUQAwLjUARlhfRkxYMi9FUV9FbmFibGUAMABGWF9GTFgyL0VRX0hpMkZyZXEAMC44MDAwMDAwMTIARlhfRkxYMi9FUV9IaTJHYWluADAuNQBGWF9GTFgyL0VRX0hpMlEAMC42OTk5OTk5ODgARlhfRkxYMi9FUV9IaUZyZXEAMC42MDAwMDAwMjQARlhfRkxYMi9FUV9IaUdhaW4AMC41AEZYX0ZMWDIvRVFfSGlRADAuNjk5OTk5OTg4AEZYX0ZMWDIvRVFfTG9GcmVxADAuMjAwMDAwMDAzAEZYX0ZMWDIvRVFfTG9HYWluADAuNQBGWF9GTFgyL0VRX0xvUQAwLjY5OTk5OTk4OABGWF9GTFgyL0VRX01pZEZyZXEAMC40MDAwMDAwMDYARlhfRkxYMi9FUV9NaWRHYWluADAuNQBGWF9GTFgyL0VRX01pZFEAMC42OTk5OTk5ODgARlhfRkxYMi9FbmFibGUAMQBGWF9GTFgyL0VuYWJsZUZYADEARlhfRkxYMi9HVUlNdXRlADAARlhfRkxYMi9HVUlTb2xvADAARlhfRkxYMi9JbnZlcnQAMABGWF9GTFgyL0xldmVsADAuNTUyODU0MTIxAEZYX0ZMWDIvTXVsdGlGWDEvQ29tcF9BdHRhY2sAMC44MjYzNzM2MzcARlhfRkxYMi9NdWx0aUZYMS9Db21wX0VuYWJsZQAxAEZYX0ZMWDIvTXVsdGlGWDEvQ29tcF9SYXRpbwAwLjcwODc5MTI1NgBGWF9GTFgyL011bHRpRlgxL0NvbXBfUmVsZWFzZQAwLjE5MjMwNzY5NgBGWF9GTFgyL011bHRpRlgxL0NvbXBfVGhyZXNob2xkADAuMzczMzMzMzA1AEZYX0ZMWDIvTXVsdGlGWDEvQ3VycmVudFNlbGVjdGlvbgBDb21wAEZYX0ZMWDIvTXVsdGlGWDEvRGlzdF9BbW91bnQAMC41AEZYX0ZMWDIvTXVsdGlGWDEvRGlzdF9FbmFibGUAMABGWF9GTFgyL011bHRpRlgxL0Rpc3RfRnJlcUhpADEARlhfRkxYMi9NdWx0aUZYMS9EaXN0X0ZyZXFMbwAwAEZYX0ZMWDIvTXVsdGlGWDEvRGlzdF9NaXgAMC41AEZYX0ZMWDIvTXVsdGlGWDEvRGlzdF9UeXBlADUARlhfRkxYMi9NdWx0aUZYMS9FbmFibGUAMQBGWF9GTFgyL011bHRpRlgxL0xpbWl0ZXJfRW5hYmxlADAARlhfRkxYMi9NdWx0aUZYMS9MaW1pdGVyX1RocmVzaG9sZAAwLjUARlhfRkxYMi9NdWx0aUZYMS9UYXBlX0Ftb3VudAAwLjUARlhfRkxYMi9NdWx0aUZYMS9UYXBlX0NvbG9yADAARlhfRkxYMi9NdWx0aUZYMS9UYXBlX0VuYWJsZQAwAEZYX0ZMWDIvTXVsdGlGWDEvVHJhbnNpZW50X0F0dGFjawAwLjUARlhfRkxYMi9NdWx0aUZYMS9UcmFuc2llbnRfRGVjYXkAMC41AEZYX0ZMWDIvTXVsdGlGWDEvVHJhbnNpZW50X0VuYWJsZQAwAEZYX0ZMWDIvTXVsdGlGWDIvQ29tcF9BdHRhY2sAMC4yMDAwMDAwMDMARlhfRkxYMi9NdWx0aUZYMi9Db21wX0VuYWJsZQAwAEZYX0ZMWDIvTXVsdGlGWDIvQ29tcF9SYXRpbwAwLjUARlhfRkxYMi9NdWx0aUZYMi9Db21wX1JlbGVhc2UAMC4yMDAwMDAwMDMARlhfRkxYMi9NdWx0aUZYMi9Db21wX1RocmVzaG9sZAAwLjUARlhfRkxYMi9NdWx0aUZYMi9DdXJyZW50U2VsZWN0aW9uAE1hc3RlcgBGWF9GTFgyL011bHRpRlgyL0Rpc3RfQW1vdW50ADAuNQBGWF9GTFgyL011bHRpRlgyL0Rpc3RfRW5hYmxlADAARlhfRkxYMi9NdWx0aUZYMi9EaXN0X0ZyZXFIaQAxAEZYX0ZMWDIvTXVsdGlGWDIvRGlzdF9GcmVxTG8AMABGWF9GTFgyL011bHRpRlgyL0Rpc3RfTWl4ADAuNQBGWF9GTFgyL011bHRpRlgyL0Rpc3RfVHlwZQA1AEZYX0ZMWDIvTXVsdGlGWDIvRW5hYmxlADEARlhfRkxYMi9NdWx0aUZYMi9MaW1pdGVyX0VuYWJsZQAwAEZYX0ZMWDIvTXVsdGlGWDIvTGltaXRlcl9UaHJlc2hvbGQAMC41AEZYX0ZMWDIvTXVsdGlGWDIvVGFwZV9BbW91bnQAMQBGWF9GTFgyL011bHRpRlgyL1RhcGVfQ29sb3IAMC42Nzg1NzE0MDMARlhfRkxYMi9NdWx0aUZYMi9UYXBlX0VuYWJsZQAxAEZYX0ZMWDIvTXVsdGlGWDIvVHJhbnNpZW50X0F0dGFjawAwLjkxNDI4NTcxOQBGWF9GTFgyL011bHRpRlgyL1RyYW5zaWVudF9EZWNheQAwLjUARlhfRkxYMi9NdWx0aUZYMi9UcmFuc2llbnRfRW5hYmxlADEARlhfRkxYMi9Ob2lzZV9EZWNheVRpbWUAMC41AEZYX0ZMWDIvTm9pc2VfRW5hYmxlADAARlhfRkxYMi9Ob2lzZV9HYXRlTGV2ZWwAMC40NDk5OTk5ODgARlhfRkxYMi9Ob2lzZV9Ob2lzZUxldmVsADAuNQBGWF9GTFgyL05vaXNlX05vaXNlVHlwZQAwAEZYX0ZMWDIvT3V0TGV2ZWwAMC41AEZYX0ZMWDIvUGFuX1BhbgAwLjUARlhfRkxYMi9TZW5kMUxldmVsADAARlhfRkxYMi9TZW5kMkxldmVsADAARlhfRkxYMi9TZW5kQnVzTGV2ZWwAMABGWF9GTFgyL1NlbmRzX0VuYWJsZQAwAEZYX0ZMWDIvU2VuZHNfRW5hYmxlX0ludGVybmFsADAARlhfRkxYMi9TZXBhcmF0ZU91dAAwAEZYX0ZMWDIvU2VwYXJhdGVPdXRNb2RlADEARlhfRkxYMi9TZXBhcmF0ZU91dE11dGVNYXN0ZXIAMABGWF9GTFgyL1NlcGFyYXRlT3V0UG9zdEZhZGVyADAARlhfRkxYMy9FUV9DdXRIaUZyZXEAMC45ODYwNjI3NjUARlhfRkxYMy9FUV9DdXRIaVEAMC41AEZYX0ZMWDMvRVFfQ3V0TG9GcmVxADAARlhfRkxYMy9FUV9DdXRMb1EAMC41AEZYX0ZMWDMvRVFfRW5hYmxlADEARlhfRkxYMy9FUV9IaTJGcmVxADAuODc0NTY0NDY5AEZYX0ZMWDMvRVFfSGkyR2FpbgAwLjc1MjYzMTYwNQBGWF9GTFgzL0VRX0hpMlEAMC4yOTk5OTk5ODIARlhfRkxYMy9FUV9IaUZyZXEAMQBGWF9GTFgzL0VRX0hpR2FpbgAwLjUyNTI2MzEzMQBGWF9GTFgzL0VRX0hpUQAwLjY5OTk5OTk4OABGWF9GTFgzL0VRX0xvRnJlcQAwLjIwMDAwMDAwMwBGWF9GTFgzL0VRX0xvR2FpbgAwLjUARlhfRkxYMy9FUV9Mb1EAMC42OTk5OTk5ODgARlhfRkxYMy9FUV9NaWRGcmVxADAuNDAwMDAwMDA2AEZYX0ZMWDMvRVFfTWlkR2FpbgAwLjUARlhfRkxYMy9FUV9NaWRRADAuNjk5OTk5OTg4AEZYX0ZMWDMvRW5hYmxlADEARlhfRkxYMy9FbmFibGVGWAAxAEZYX0ZMWDMvR1VJTXV0ZQAwAEZYX0ZMWDMvR1VJU29sbwAwAEZYX0ZMWDMvSW52ZXJ0ADAARlhfRkxYMy9MZXZlbAAwLjY3ODEwNjcyNQBGWF9GTFgzL011bHRpRlgxL0NvbXBfQXR0YWNrADAuMjAwMDAwMDAzAEZYX0ZMWDMvTXVsdGlGWDEvQ29tcF9FbmFibGUAMABGWF9GTFgzL011bHRpRlgxL0NvbXBfUmF0aW8AMC41AEZYX0ZMWDMvTXVsdGlGWDEvQ29tcF9SZWxlYXNlADAuMjAwMDAwMDAzAEZYX0ZMWDMvTXVsdGlGWDEvQ29tcF9UaHJlc2hvbGQAMC41AEZYX0ZMWDMvTXVsdGlGWDEvQ3VycmVudFNlbGVjdGlvbgBNYXN0ZXIARlhfRkxYMy9NdWx0aUZYMS9EaXN0X0Ftb3VudAAwLjUARlhfRkxYMy9NdWx0aUZYMS9EaXN0X0VuYWJsZQAwAEZYX0ZMWDMvTXVsdGlGWDEvRGlzdF9GcmVxSGkAMQBGWF9GTFgzL011bHRpRlgxL0Rpc3RfRnJlcUxvADAARlhfRkxYMy9NdWx0aUZYMS9EaXN0X01peAAwLjUARlhfRkxYMy9NdWx0aUZYMS9EaXN0X1R5cGUANQBGWF9GTFgzL011bHRpRlgxL0VuYWJsZQAwAEZYX0ZMWDMvTXVsdGlGWDEvTGltaXRlcl9FbmFibGUAMABGWF9GTFgzL011bHRpRlgxL0xpbWl0ZXJfVGhyZXNob2xkADAuNQBGWF9GTFgzL011bHRpRlgxL1RhcGVfQW1vdW50ADAuNQBGWF9GTFgzL011bHRpRlgxL1RhcGVfQ29sb3IAMABGWF9GTFgzL011bHRpRlgxL1RhcGVfRW5hYmxlADAARlhfRkxYMy9NdWx0aUZYMS9UcmFuc2llbnRfQXR0YWNrADAuNQBGWF9GTFgzL011bHRpRlgxL1RyYW5zaWVudF9EZWNheQAwLjUARlhfRkxYMy9NdWx0aUZYMS9UcmFuc2llbnRfRW5hYmxlADAARlhfRkxYMy9NdWx0aUZYMi9Db21wX0F0dGFjawAwLjIwMDAwMDAwMwBGWF9GTFgzL011bHRpRlgyL0NvbXBfRW5hYmxlADAARlhfRkxYMy9NdWx0aUZYMi9Db21wX1JhdGlvADAuNQBGWF9GTFgzL011bHRpRlgyL0NvbXBfUmVsZWFzZQAwLjIwMDAwMDAwMwBGWF9GTFgzL011bHRpRlgyL0NvbXBfVGhyZXNob2xkADAuNQBGWF9GTFgzL011bHRpRlgyL0N1cnJlbnRTZWxlY3Rpb24ATWFzdGVyAEZYX0ZMWDMvTXVsdGlGWDIvRGlzdF9BbW91bnQAMC41AEZYX0ZMWDMvTXVsdGlGWDIvRGlzdF9FbmFibGUAMABGWF9GTFgzL011bHRpRlgyL0Rpc3RfRnJlcUhpADEARlhfRkxYMy9NdWx0aUZYMi9EaXN0X0ZyZXFMbwAwAEZYX0ZMWDMvTXVsdGlGWDIvRGlzdF9NaXgAMC41AEZYX0ZMWDMvTXVsdGlGWDIvRGlzdF9UeXBlADUARlhfRkxYMy9NdWx0aUZYMi9FbmFibGUAMABGWF9GTFgzL011bHRpRlgyL0xpbWl0ZXJfRW5hYmxlADAARlhfRkxYMy9NdWx0aUZYMi9MaW1pdGVyX1RocmVzaG9sZAAwLjUARlhfRkxYMy9NdWx0aUZYMi9UYXBlX0Ftb3VudAAwLjUARlhfRkxYMy9NdWx0aUZYMi9UYXBlX0NvbG9yADAARlhfRkxYMy9NdWx0aUZYMi9UYXBlX0VuYWJsZQAwAEZYX0ZMWDMvTXVsdGlGWDIvVHJhbnNpZW50X0F0dGFjawAwLjUARlhfRkxYMy9NdWx0aUZYMi9UcmFuc2llbnRfRGVjYXkAMC41AEZYX0ZMWDMvTXVsdGlGWDIvVHJhbnNpZW50X0VuYWJsZQAwAEZYX0ZMWDMvTm9pc2VfRGVjYXlUaW1lADAuNQBGWF9GTFgzL05vaXNlX0VuYWJsZQAwAEZYX0ZMWDMvTm9pc2VfR2F0ZUxldmVsADAuNDQ5OTk5OTg4AEZYX0ZMWDMvTm9pc2VfTm9pc2VMZXZlbAAwLjUARlhfRkxYMy9Ob2lzZV9Ob2lzZVR5cGUAMABGWF9GTFgzL091dExldmVsADAuNjQ2NzQyNzAyAEZYX0ZMWDMvUGFuX1BhbgAwLjUARlhfRkxYMy9TZW5kMUxldmVsADAuNTQ4MjM4MzM3AEZYX0ZMWDMvU2VuZDJMZXZlbAAwAEZYX0ZMWDMvU2VuZEJ1c0xldmVsADAARlhfRkxYMy9TZW5kc19FbmFibGUAMQBGWF9GTFgzL1NlbmRzX0VuYWJsZV9JbnRlcm5hbAAxAEZYX0ZMWDMvU2VwYXJhdGVPdXQAMABGWF9GTFgzL1NlcGFyYXRlT3V0TW9kZQAxAEZYX0ZMWDMvU2VwYXJhdGVPdXRNdXRlTWFzdGVyADAARlhfRkxYMy9TZXBhcmF0ZU91dFBvc3RGYWRlcgAwAEZYX0hIQVQvRVFfQ3V0SGlGcmVxADAuOTUxMjE5NDk5AEZYX0hIQVQvRVFfQ3V0SGlRADAuNjI2MzE1NzczAEZYX0hIQVQvRVFfQ3V0TG9GcmVxADAuNTQ3MDM4MzE3AEZYX0hIQVQvRVFfQ3V0TG9RADAuNQBGWF9ISEFUL0VRX0VuYWJsZQAxAEZYX0hIQVQvRVFfSGkyRnJlcQAwLjgyNDM5MDI5MgBGWF9ISEFUL0VRX0hpMkdhaW4AMC43ODQyMTA1MDMARlhfSEhBVC9FUV9IaTJRADAuMjU5OTk5OTkARlhfSEhBVC9FUV9IaUZyZXEAMC44OTk2NTY2NTMARlhfSEhBVC9FUV9IaUdhaW4AMC41AEZYX0hIQVQvRVFfSGlRADAuMzI1MjU3NTEARlhfSEhBVC9FUV9Mb0ZyZXEAMC4yMzI5ODk5OTcARlhfSEhBVC9FUV9Mb0dhaW4AMC41AEZYX0hIQVQvRVFfTG9RADAuMzI1MjU3NTEARlhfSEhBVC9FUV9NaWRGcmVxADAuNTY2MzIzMzQARlhfSEhBVC9FUV9NaWRHYWluADAuNQBGWF9ISEFUL0VRX01pZFEAMC4zMjUyNTc1MQBGWF9ISEFUL0VuYWJsZQAxAEZYX0hIQVQvRW5hYmxlRlgAMQBGWF9ISEFUL0dVSU11dGUAMABGWF9ISEFUL0dVSVNvbG8AMABGWF9ISEFUL0ludmVydAAwAEZYX0hIQVQvTGV2ZWwAMC44MDA3MTczNTQARlhfSEhBVC9NdWx0aUZYMS9Db21wX0F0dGFjawAwAEZYX0hIQVQvTXVsdGlGWDEvQ29tcF9FbmFibGUAMABGWF9ISEFUL011bHRpRlgxL0NvbXBfUmF0aW8AMABGWF9ISEFUL011bHRpRlgxL0NvbXBfUmVsZWFzZQAwAEZYX0hIQVQvTXVsdGlGWDEvQ29tcF9UaHJlc2hvbGQAMQBGWF9ISEFUL011bHRpRlgxL0N1cnJlbnRTZWxlY3Rpb24AQ29tcABGWF9ISEFUL011bHRpRlgxL0Rpc3RfQW1vdW50ADEARlhfSEhBVC9NdWx0aUZYMS9EaXN0X0VuYWJsZQAxAEZYX0hIQVQvTXVsdGlGWDEvRGlzdF9GcmVxSGkAMC41NDQzODUwNzYARlhfSEhBVC9NdWx0aUZYMS9EaXN0X0ZyZXFMbwAwLjE4NTM3MTk2NQBGWF9ISEFUL011bHRpRlgxL0Rpc3RfTWl4ADEARlhfSEhBVC9NdWx0aUZYMS9EaXN0X1R5cGUANQBGWF9ISEFUL011bHRpRlgxL0VuYWJsZQAxAEZYX0hIQVQvTXVsdGlGWDEvTGltaXRlcl9FbmFibGUAMABGWF9ISEFUL011bHRpRlgxL0xpbWl0ZXJfVGhyZXNob2xkADAuNQBGWF9ISEFUL011bHRpRlgxL1RhcGVfQW1vdW50ADAuNQBGWF9ISEFUL011bHRpRlgxL1RhcGVfQ29sb3IAMABGWF9ISEFUL011bHRpRlgxL1RhcGVfRW5hYmxlADAARlhfSEhBVC9NdWx0aUZYMS9UcmFuc2llbnRfQXR0YWNrADAuNQBGWF9ISEFUL011bHRpRlgxL1RyYW5zaWVudF9EZWNheQAwLjUARlhfSEhBVC9NdWx0aUZYMS9UcmFuc2llbnRfRW5hYmxlADAARlhfSEhBVC9NdWx0aUZYMi9Db21wX0F0dGFjawAwLjIwMDAwMDAwMwBGWF9ISEFUL011bHRpRlgyL0NvbXBfRW5hYmxlADAARlhfSEhBVC9NdWx0aUZYMi9Db21wX1JhdGlvADAuNQBGWF9ISEFUL011bHRpRlgyL0NvbXBfUmVsZWFzZQAwLjIwMDAwMDAwMwBGWF9ISEFUL011bHRpRlgyL0NvbXBfVGhyZXNob2xkADAuNQBGWF9ISEFUL011bHRpRlgyL0N1cnJlbnRTZWxlY3Rpb24ATWFzdGVyAEZYX0hIQVQvTXVsdGlGWDIvRGlzdF9BbW91bnQAMC41AEZYX0hIQVQvTXVsdGlGWDIvRGlzdF9FbmFibGUAMABGWF9ISEFUL011bHRpRlgyL0Rpc3RfRnJlcUhpADEARlhfSEhBVC9NdWx0aUZYMi9EaXN0X0ZyZXFMbwAwAEZYX0hIQVQvTXVsdGlGWDIvRGlzdF9NaXgAMC41AEZYX0hIQVQvTXVsdGlGWDIvRGlzdF9UeXBlADUARlhfSEhBVC9NdWx0aUZYMi9FbmFibGUAMABGWF9ISEFUL011bHRpRlgyL0xpbWl0ZXJfRW5hYmxlADAARlhfSEhBVC9NdWx0aUZYMi9MaW1pdGVyX1RocmVzaG9sZAAwLjUARlhfSEhBVC9NdWx0aUZYMi9UYXBlX0Ftb3VudAAwLjUARlhfSEhBVC9NdWx0aUZYMi9UYXBlX0NvbG9yADAARlhfSEhBVC9NdWx0aUZYMi9UYXBlX0VuYWJsZQAwAEZYX0hIQVQvTXVsdGlGWDIvVHJhbnNpZW50X0F0dGFjawAwLjUARlhfSEhBVC9NdWx0aUZYMi9UcmFuc2llbnRfRGVjYXkAMC41AEZYX0hIQVQvTXVsdGlGWDIvVHJhbnNpZW50X0VuYWJsZQAwAEZYX0hIQVQvTm9pc2VfRGVjYXlUaW1lADAuNQBGWF9ISEFUL05vaXNlX0VuYWJsZQAwAEZYX0hIQVQvTm9pc2VfR2F0ZUxldmVsADAuNDQ5OTk5OTg4AEZYX0hIQVQvTm9pc2VfTm9pc2VMZXZlbAAwLjUARlhfSEhBVC9Ob2lzZV9Ob2lzZVR5cGUAMABGWF9ISEFUL091dExldmVsADAuNjQ2NzQyNzAyAEZYX0hIQVQvUGFuX1BhbgAwLjM5NDczNjgyNgBGWF9ISEFUL1NlbmQxTGV2ZWwAMABGWF9ISEFUL1NlbmQyTGV2ZWwAMABGWF9ISEFUL1NlbmRCdXNMZXZlbAAwAEZYX0hIQVQvU2VuZHNfRW5hYmxlADAARlhfSEhBVC9TZW5kc19FbmFibGVfSW50ZXJuYWwAMABGWF9ISEFUL1NlcGFyYXRlT3V0ADAARlhfSEhBVC9TZXBhcmF0ZU91dE1vZGUAMQBGWF9ISEFUL1NlcGFyYXRlT3V0TXV0ZU1hc3RlcgAwAEZYX0hIQVQvU2VwYXJhdGVPdXRQb3N0RmFkZXIAMABGWF9LSUNLL0VRX0N1dEhpRnJlcQAwLjg1NzE0Mjg2NgBGWF9LSUNLL0VRX0N1dEhpUQAwLjYzNjg0MjEzMgBGWF9LSUNLL0VRX0N1dExvRnJlcQAwLjExNDk4MjU4MwBGWF9LSUNLL0VRX0N1dExvUQAwLjYyODQyMDk0OQBGWF9LSUNLL0VRX0VuYWJsZQAxAEZYX0tJQ0svRVFfSGkyRnJlcQAwLjgwMDAwMDAxMgBGWF9LSUNLL0VRX0hpMkdhaW4AMC41AEZYX0tJQ0svRVFfSGkyUQAwLjY5OTk5OTk4OABGWF9LSUNLL0VRX0hpRnJlcQAwLjg5OTY1NjY1MwBGWF9LSUNLL0VRX0hpR2FpbgAwLjUARlhfS0lDSy9FUV9IaVEAMC4zMjUyNTc1MQBGWF9LSUNLL0VRX0xvRnJlcQAwLjQ3Njg5MjQ0MgBGWF9LSUNLL0VRX0xvR2FpbgAwLjMzMTU3ODk0AEZYX0tJQ0svRVFfTG9RADAuMzI1MjU3NTEARlhfS0lDSy9FUV9NaWRGcmVxADAuNDAwMDAwMDA2AEZYX0tJQ0svRVFfTWlkR2FpbgAwLjUARlhfS0lDSy9FUV9NaWRRADAuMzI1MjU3NTEARlhfS0lDSy9FbmFibGUAMQBGWF9LSUNLL0VuYWJsZUZYADEARlhfS0lDSy9HVUlNdXRlADAARlhfS0lDSy9HVUlTb2xvADAARlhfS0lDSy9JbnZlcnQAMABGWF9LSUNLL0xldmVsADAuNzU3OTgyMzE0AEZYX0tJQ0svTXVsdGlGWDEvQ29tcF9BdHRhY2sAMC42ODY4MTMxNzYARlhfS0lDSy9NdWx0aUZYMS9Db21wX0VuYWJsZQAwAEZYX0tJQ0svTXVsdGlGWDEvQ29tcF9SYXRpbwAwLjQxNzU4MjQyMgBGWF9LSUNLL011bHRpRlgxL0NvbXBfUmVsZWFzZQAwAEZYX0tJQ0svTXVsdGlGWDEvQ29tcF9UaHJlc2hvbGQAMC41MTgzMzMzMTYARlhfS0lDSy9NdWx0aUZYMS9DdXJyZW50U2VsZWN0aW9uAENvbXAARlhfS0lDSy9NdWx0aUZYMS9EaXN0X0Ftb3VudAAwLjAzODQ2MTUzOTkARlhfS0lDSy9NdWx0aUZYMS9EaXN0X0VuYWJsZQAwAEZYX0tJQ0svTXVsdGlGWDEvRGlzdF9GcmVxSGkAMC41MjYzMTU4MDgARlhfS0lDSy9NdWx0aUZYMS9EaXN0X0ZyZXFMbwAwAEZYX0tJQ0svTXVsdGlGWDEvRGlzdF9NaXgAMQBGWF9LSUNLL011bHRpRlgxL0Rpc3RfVHlwZQA1AEZYX0tJQ0svTXVsdGlGWDEvRW5hYmxlADEARlhfS0lDSy9NdWx0aUZYMS9MaW1pdGVyX0VuYWJsZQAwAEZYX0tJQ0svTXVsdGlGWDEvTGltaXRlcl9UaHJlc2hvbGQAMC41AEZYX0tJQ0svTXVsdGlGWDEvVGFwZV9BbW91bnQAMC41AEZYX0tJQ0svTXVsdGlGWDEvVGFwZV9Db2xvcgAwAEZYX0tJQ0svTXVsdGlGWDEvVGFwZV9FbmFibGUAMABGWF9LSUNLL011bHRpRlgxL1RyYW5zaWVudF9BdHRhY2sAMC41AEZYX0tJQ0svTXVsdGlGWDEvVHJhbnNpZW50X0RlY2F5ADAuNQBGWF9LSUNLL011bHRpRlgxL1RyYW5zaWVudF9FbmFibGUAMABGWF9LSUNLL011bHRpRlgyL0NvbXBfQXR0YWNrADAuMjAwMDAwMDAzAEZYX0tJQ0svTXVsdGlGWDIvQ29tcF9FbmFibGUAMABGWF9LSUNLL011bHRpRlgyL0NvbXBfUmF0aW8AMC41AEZYX0tJQ0svTXVsdGlGWDIvQ29tcF9SZWxlYXNlADAuMjAwMDAwMDAzAEZYX0tJQ0svTXVsdGlGWDIvQ29tcF9UaHJlc2hvbGQAMC41AEZYX0tJQ0svTXVsdGlGWDIvQ3VycmVudFNlbGVjdGlvbgBNYXN0ZXIARlhfS0lDSy9NdWx0aUZYMi9EaXN0X0Ftb3VudAAwLjUARlhfS0lDSy9NdWx0aUZYMi9EaXN0X0VuYWJsZQAwAEZYX0tJQ0svTXVsdGlGWDIvRGlzdF9GcmVxSGkAMQBGWF9LSUNLL011bHRpRlgyL0Rpc3RfRnJlcUxvADAARlhfS0lDSy9NdWx0aUZYMi9EaXN0X01peAAwLjUARlhfS0lDSy9NdWx0aUZYMi9EaXN0X1R5cGUANQBGWF9LSUNLL011bHRpRlgyL0VuYWJsZQAxAEZYX0tJQ0svTXVsdGlGWDIvTGltaXRlcl9FbmFibGUAMABGWF9LSUNLL011bHRpRlgyL0xpbWl0ZXJfVGhyZXNob2xkADAuNQBGWF9LSUNLL011bHRpRlgyL1RhcGVfQW1vdW50ADAARlhfS0lDSy9NdWx0aUZYMi9UYXBlX0NvbG9yADAuNjcxNDI4NTYxAEZYX0tJQ0svTXVsdGlGWDIvVGFwZV9FbmFibGUAMQBGWF9LSUNLL011bHRpRlgyL1RyYW5zaWVudF9BdHRhY2sAMC45Mzg3MTkzOTIARlhfS0lDSy9NdWx0aUZYMi9UcmFuc2llbnRfRGVjYXkAMC4zNjQ5MjQxOTIARlhfS0lDSy9NdWx0aUZYMi9UcmFuc2llbnRfRW5hYmxlADEARlhfS0lDSy9Ob2lzZV9EZWNheVRpbWUAMC41AEZYX0tJQ0svTm9pc2VfRW5hYmxlADAARlhfS0lDSy9Ob2lzZV9HYXRlTGV2ZWwAMC40NDk5OTk5ODgARlhfS0lDSy9Ob2lzZV9Ob2lzZUxldmVsADAuNQBGWF9LSUNLL05vaXNlX05vaXNlVHlwZQAwAEZYX0tJQ0svT3V0TGV2ZWwAMC42NDY3NDI3MDIARlhfS0lDSy9QYW5fUGFuADAuNQBGWF9LSUNLL1NlbmQxTGV2ZWwAMABGWF9LSUNLL1NlbmQyTGV2ZWwAMC4xODI0MzIyMDQARlhfS0lDSy9TZW5kQnVzTGV2ZWwAMC40NTU3NzU4ODcARlhfS0lDSy9TZW5kc19FbmFibGUAMQBGWF9LSUNLL1NlbmRzX0VuYWJsZV9JbnRlcm5hbAAxAEZYX0tJQ0svU2VwYXJhdGVPdXQAMABGWF9LSUNLL1NlcGFyYXRlT3V0TW9kZQAxAEZYX0tJQ0svU2VwYXJhdGVPdXRNdXRlTWFzdGVyADAARlhfS0lDSy9TZXBhcmF0ZU91dFBvc3RGYWRlcgAwAEZYX01hc3Rlci9FUV9DdXRIaUZyZXEAMQBGWF9NYXN0ZXIvRVFfQ3V0SGlRADAuOTk0NTA1NDY1AEZYX01hc3Rlci9FUV9DdXRMb0ZyZXEAMABGWF9NYXN0ZXIvRVFfQ3V0TG9RADAuNQBGWF9NYXN0ZXIvRVFfRW5hYmxlADEARlhfTWFzdGVyL0VRX0hpMkZyZXEAMC44MDAwMDAwMTIARlhfTWFzdGVyL0VRX0hpMkdhaW4AMC42MTU3ODk0NzMARlhfTWFzdGVyL0VRX0hpMlEAMC4yNjA1NTU0NDYARlhfTWFzdGVyL0VRX0hpRnJlcQAxAEZYX01hc3Rlci9FUV9IaUdhaW4AMC4wMzg0NjE1Mzk5AEZYX01hc3Rlci9FUV9IaVEAMC4zMjUyNTc1MQBGWF9NYXN0ZXIvRVFfTG9GcmVxADAuMTQ5MzY2MzA0AEZYX01hc3Rlci9FUV9Mb0dhaW4AMC41OTQ3MzY4MTQARlhfTWFzdGVyL0VRX0xvUQAwLjMyNTI1NzUxAEZYX01hc3Rlci9FUV9NaWRGcmVxADAuNDk2NjM2OTU3AEZYX01hc3Rlci9FUV9NaWRHYWluADAuMzg0MjEwNTI3AEZYX01hc3Rlci9FUV9NaWRRADAuMzYwNTM1MjM0AEZYX01hc3Rlci9FbmFibGUAMQBGWF9NYXN0ZXIvRW5hYmxlRlgAMQBGWF9NYXN0ZXIvRmlsdGVyX0VuYWJsZQAwAEZYX01hc3Rlci9GaWx0ZXJfSGkAMQBGWF9NYXN0ZXIvRmlsdGVyX0xvADAARlhfTWFzdGVyL0dVSU11dGUAMABGWF9NYXN0ZXIvR1VJU29sbwAwAEZYX01hc3Rlci9MZXZlbAAwLjc0NTgzMjgwMQBGWF9NYXN0ZXIvTXVsdGlGWDEvQ29tcF9BdHRhY2sAMC42NTM4NDYxNDUARlhfTWFzdGVyL011bHRpRlgxL0NvbXBfRW5hYmxlADEARlhfTWFzdGVyL011bHRpRlgxL0NvbXBfUmF0aW8AMC4xMzE4NjgxMzkARlhfTWFzdGVyL011bHRpRlgxL0NvbXBfUmVsZWFzZQAwLjM0MDY1OTM1AEZYX01hc3Rlci9NdWx0aUZYMS9Db21wX1RocmVzaG9sZAAwLjg5MzMzMzMxNgBGWF9NYXN0ZXIvTXVsdGlGWDEvQ3VycmVudFNlbGVjdGlvbgBDb21wAEZYX01hc3Rlci9NdWx0aUZYMS9EaXN0X0Ftb3VudAAwAEZYX01hc3Rlci9NdWx0aUZYMS9EaXN0X0VuYWJsZQAwAEZYX01hc3Rlci9NdWx0aUZYMS9EaXN0X0ZyZXFIaQAxAEZYX01hc3Rlci9NdWx0aUZYMS9EaXN0X0ZyZXFMbwAwAEZYX01hc3Rlci9NdWx0aUZYMS9EaXN0X01peAAxAEZYX01hc3Rlci9NdWx0aUZYMS9EaXN0X1R5cGUAMABGWF9NYXN0ZXIvTXVsdGlGWDEvRW5hYmxlADEARlhfTWFzdGVyL011bHRpRlgxL0xpbWl0ZXJfRW5hYmxlADAARlhfTWFzdGVyL011bHRpRlgxL0xpbWl0ZXJfVGhyZXNob2xkADAuNQBGWF9NYXN0ZXIvTXVsdGlGWDEvVGFwZV9BbW91bnQAMC41AEZYX01hc3Rlci9NdWx0aUZYMS9UYXBlX0NvbG9yADAARlhfTWFzdGVyL011bHRpRlgxL1RhcGVfRW5hYmxlADAARlhfTWFzdGVyL011bHRpRlgxL1RyYW5zaWVudF9BdHRhY2sAMC41AEZYX01hc3Rlci9NdWx0aUZYMS9UcmFuc2llbnRfRGVjYXkAMC41AEZYX01hc3Rlci9NdWx0aUZYMS9UcmFuc2llbnRfRW5hYmxlADAARlhfTWFzdGVyL011bHRpRlgyL0NvbXBfQXR0YWNrADAuMjAwMDAwMDAzAEZYX01hc3Rlci9NdWx0aUZYMi9Db21wX0VuYWJsZQAwAEZYX01hc3Rlci9NdWx0aUZYMi9Db21wX1JhdGlvADAuNQBGWF9NYXN0ZXIvTXVsdGlGWDIvQ29tcF9SZWxlYXNlADAuMjAwMDAwMDAzAEZYX01hc3Rlci9NdWx0aUZYMi9Db21wX1RocmVzaG9sZAAwLjUARlhfTWFzdGVyL011bHRpRlgyL0N1cnJlbnRTZWxlY3Rpb24ATWFzdGVyAEZYX01hc3Rlci9NdWx0aUZYMi9EaXN0X0Ftb3VudAAwLjUARlhfTWFzdGVyL011bHRpRlgyL0Rpc3RfRW5hYmxlADAARlhfTWFzdGVyL011bHRpRlgyL0Rpc3RfRnJlcUhpADEARlhfTWFzdGVyL011bHRpRlgyL0Rpc3RfRnJlcUxvADAARlhfTWFzdGVyL011bHRpRlgyL0Rpc3RfTWl4ADAuNQBGWF9NYXN0ZXIvTXVsdGlGWDIvRGlzdF9UeXBlADUARlhfTWFzdGVyL011bHRpRlgyL0VuYWJsZQAxAEZYX01hc3Rlci9NdWx0aUZYMi9MaW1pdGVyX0VuYWJsZQAxAEZYX01hc3Rlci9NdWx0aUZYMi9MaW1pdGVyX1RocmVzaG9sZAAwLjcwNjg0OTMzNwBGWF9NYXN0ZXIvTXVsdGlGWDIvVGFwZV9BbW91bnQAMC4wNzg1NzE0MzEzAEZYX01hc3Rlci9NdWx0aUZYMi9UYXBlX0NvbG9yADAuMTAwMDAwMDAxAEZYX01hc3Rlci9NdWx0aUZYMi9UYXBlX0VuYWJsZQAxAEZYX01hc3Rlci9NdWx0aUZYMi9UcmFuc2llbnRfQXR0YWNrADAuNQBGWF9NYXN0ZXIvTXVsdGlGWDIvVHJhbnNpZW50X0RlY2F5ADAuNQBGWF9NYXN0ZXIvTXVsdGlGWDIvVHJhbnNpZW50X0VuYWJsZQAwAEZYX01hc3Rlci9Ob2lzZV9EZWNheVRpbWUAMC41AEZYX01hc3Rlci9Ob2lzZV9FbmFibGUAMABGWF9NYXN0ZXIvTm9pc2VfR2F0ZUxldmVsADAuNDQ5OTk5OTg4AEZYX01hc3Rlci9Ob2lzZV9Ob2lzZUxldmVsADAuNQBGWF9NYXN0ZXIvTm9pc2VfTm9pc2VUeXBlADAARlhfTWFzdGVyL091dExldmVsADAuMjQ5ODIyMDA2AEZYX01hc3Rlci9QYW5fUGFuADAuNQBGWF9NYXN0ZXIvUGFuX1dpZHRoADEARlhfTWFzdGVyL1NlbmQxTGV2ZWwAMABGWF9NYXN0ZXIvU2VuZDJMZXZlbAAwAEZYX01hc3Rlci9TZW5kc19FbmFibGUAMQBGWF9NYXN0ZXIvU2VuZHNfRW5hYmxlX0ludGVybmFsADEARlhfTWFzdGVyL1NlcGFyYXRlT3V0ADAARlhfTWFzdGVyL1NlcGFyYXRlT3V0TW9kZQAxAEZYX01hc3Rlci9TZXBhcmF0ZU91dE11dGVNYXN0ZXIAMABGWF9NYXN0ZXIvU2VwYXJhdGVPdXRQb3N0RmFkZXIAMABGWF9PSC9FUV9DdXRIaUZyZXEAMQBGWF9PSC9FUV9DdXRIaVEAMC41AEZYX09IL0VRX0N1dExvRnJlcQAwLjI3NTI2MTMxMwBGWF9PSC9FUV9DdXRMb1EAMC41ODQyMTA1MTUARlhfT0gvRVFfRW5hYmxlADEARlhfT0gvRVFfSGkyRnJlcQAwLjgxMDQ1Mjk5OABGWF9PSC9FUV9IaTJHYWluADAuNjc4OTQ3Mzg5AEZYX09IL0VRX0hpMlEAMABGWF9PSC9FUV9IaUZyZXEAMC44OTk2NTY2NTMARlhfT0gvRVFfSGlHYWluADAuNQBGWF9PSC9FUV9IaVEAMC4zMjUyNTc1MQBGWF9PSC9FUV9Mb0ZyZXEAMC4yMzI5ODk5OTcARlhfT0gvRVFfTG9HYWluADAuNQBGWF9PSC9FUV9Mb1EAMC4zMjUyNTc1MQBGWF9PSC9FUV9NaWRGcmVxADAuNTY2MzIzMzQARlhfT0gvRVFfTWlkR2FpbgAwLjUARlhfT0gvRVFfTWlkUQAwLjMyNTI1NzUxAEZYX09IL0VuYWJsZQAxAEZYX09IL0VuYWJsZUZYADEARlhfT0gvR1VJTXV0ZQAwAEZYX09IL0dVSVNvbG8AMABGWF9PSC9JbnZlcnQAMABGWF9PSC9MZXZlbAAwLjY3MjU1NzcxMgBGWF9PSC9NdWx0aUZYMS9Db21wX0F0dGFjawAwAEZYX09IL011bHRpRlgxL0NvbXBfRW5hYmxlADEARlhfT0gvTXVsdGlGWDEvQ29tcF9SYXRpbwAwLjQ2MTUzODQ2NABGWF9PSC9NdWx0aUZYMS9Db21wX1JlbGVhc2UAMQBGWF9PSC9NdWx0aUZYMS9Db21wX1RocmVzaG9sZAAwLjc1ODMzMzMyNQBGWF9PSC9NdWx0aUZYMS9DdXJyZW50U2VsZWN0aW9uAENvbXAARlhfT0gvTXVsdGlGWDEvRGlzdF9BbW91bnQAMABGWF9PSC9NdWx0aUZYMS9EaXN0X0VuYWJsZQAwAEZYX09IL011bHRpRlgxL0Rpc3RfRnJlcUhpADEARlhfT0gvTXVsdGlGWDEvRGlzdF9GcmVxTG8AMABGWF9PSC9NdWx0aUZYMS9EaXN0X01peAAxAEZYX09IL011bHRpRlgxL0Rpc3RfVHlwZQAwAEZYX09IL011bHRpRlgxL0VuYWJsZQAxAEZYX09IL011bHRpRlgxL0xpbWl0ZXJfRW5hYmxlADAARlhfT0gvTXVsdGlGWDEvTGltaXRlcl9UaHJlc2hvbGQAMC41AEZYX09IL011bHRpRlgxL1RhcGVfQW1vdW50ADAuNQBGWF9PSC9NdWx0aUZYMS9UYXBlX0NvbG9yADAARlhfT0gvTXVsdGlGWDEvVGFwZV9FbmFibGUAMABGWF9PSC9NdWx0aUZYMS9UcmFuc2llbnRfQXR0YWNrADAuNQBGWF9PSC9NdWx0aUZYMS9UcmFuc2llbnRfRGVjYXkAMC41AEZYX09IL011bHRpRlgxL1RyYW5zaWVudF9FbmFibGUAMABGWF9PSC9NdWx0aUZYMi9Db21wX0F0dGFjawAwLjIwMDAwMDAwMwBGWF9PSC9NdWx0aUZYMi9Db21wX0VuYWJsZQAwAEZYX09IL011bHRpRlgyL0NvbXBfUmF0aW8AMC41AEZYX09IL011bHRpRlgyL0NvbXBfUmVsZWFzZQAwLjIwMDAwMDAwMwBGWF9PSC9NdWx0aUZYMi9Db21wX1RocmVzaG9sZAAwLjUARlhfT0gvTXVsdGlGWDIvQ3VycmVudFNlbGVjdGlvbgBNYXN0ZXIARlhfT0gvTXVsdGlGWDIvRGlzdF9BbW91bnQAMC41AEZYX09IL011bHRpRlgyL0Rpc3RfRW5hYmxlADAARlhfT0gvTXVsdGlGWDIvRGlzdF9GcmVxSGkAMQBGWF9PSC9NdWx0aUZYMi9EaXN0X0ZyZXFMbwAwAEZYX09IL011bHRpRlgyL0Rpc3RfTWl4ADAuNQBGWF9PSC9NdWx0aUZYMi9EaXN0X1R5cGUANQBGWF9PSC9NdWx0aUZYMi9FbmFibGUAMQBGWF9PSC9NdWx0aUZYMi9MaW1pdGVyX0VuYWJsZQAwAEZYX09IL011bHRpRlgyL0xpbWl0ZXJfVGhyZXNob2xkADAuNQBGWF9PSC9NdWx0aUZYMi9UYXBlX0Ftb3VudAAwLjM4NTcxNDI5MwBGWF9PSC9NdWx0aUZYMi9UYXBlX0NvbG9yADAuNTY0Mjg1Njk2AEZYX09IL011bHRpRlgyL1RhcGVfRW5hYmxlADEARlhfT0gvTXVsdGlGWDIvVHJhbnNpZW50X0F0dGFjawAwLjUARlhfT0gvTXVsdGlGWDIvVHJhbnNpZW50X0RlY2F5ADAuNQBGWF9PSC9NdWx0aUZYMi9UcmFuc2llbnRfRW5hYmxlADAARlhfT0gvTm9pc2VfRGVjYXlUaW1lADAuNQBGWF9PSC9Ob2lzZV9FbmFibGUAMABGWF9PSC9Ob2lzZV9HYXRlTGV2ZWwAMC40NDk5OTk5ODgARlhfT0gvTm9pc2VfTm9pc2VMZXZlbAAwLjUARlhfT0gvTm9pc2VfTm9pc2VUeXBlADAARlhfT0gvT3V0TGV2ZWwAMC41AEZYX09IL1Bhbl9QYW4AMC41AEZYX09IL1Bhbl9XaWR0aAAxAEZYX09IL1NlbmQxTGV2ZWwAMABGWF9PSC9TZW5kMkxldmVsADAARlhfT0gvU2VuZEJ1c0xldmVsADAARlhfT0gvU2VuZHNfRW5hYmxlADAARlhfT0gvU2VuZHNfRW5hYmxlX0ludGVybmFsADAARlhfT0gvU2VwYXJhdGVPdXQAMABGWF9PSC9TZXBhcmF0ZU91dE1vZGUAMQBGWF9PSC9TZXBhcmF0ZU91dE11dGVNYXN0ZXIAMABGWF9PSC9TZXBhcmF0ZU91dFBvc3RGYWRlcgAwAEZYX1Jvb20vRGVsYXlfVGltZQAwLjMyMDIyNjkzOABGWF9Sb29tL0VRX0N1dEhpRnJlcQAxAEZYX1Jvb20vRVFfQ3V0SGlRADAuNjA1MjYzMTc0AEZYX1Jvb20vRVFfQ3V0TG9GcmVxADAuMTQ5ODI1Nzk2AEZYX1Jvb20vRVFfQ3V0TG9RADAuNDMyNjMxNTgyAEZYX1Jvb20vRVFfRW5hYmxlADEARlhfUm9vbS9FUV9IaTJGcmVxADAuOTE4NDY2OTI2AEZYX1Jvb20vRVFfSGkyR2FpbgAwLjUARlhfUm9vbS9FUV9IaTJRADAuNjk5OTk5OTg4AEZYX1Jvb20vRVFfSGlGcmVxADEARlhfUm9vbS9FUV9IaUdhaW4AMC41OTQ3MzY4MTQARlhfUm9vbS9FUV9IaVEAMC4zMjUyNTc1MQBGWF9Sb29tL0VRX0xvRnJlcQAwLjQ5MDgyOTcwNgBGWF9Sb29tL0VRX0xvR2FpbgAwLjYzNjg0MjEzMgBGWF9Sb29tL0VRX0xvUQAwLjMyNTI1NzUxAEZYX1Jvb20vRVFfTWlkRnJlcQAwLjE1ODY1Nzc4OQBGWF9Sb29tL0VRX01pZEdhaW4AMC42MjIxMDUyNDEARlhfUm9vbS9FUV9NaWRRADAuMzk5MTQ2ODU1AEZYX1Jvb20vRW5hYmxlADEARlhfUm9vbS9FbmFibGVGWAAxAEZYX1Jvb20vR1VJTXV0ZQAwAEZYX1Jvb20vR1VJU29sbwAwAEZYX1Jvb20vSW52ZXJ0ADAARlhfUm9vbS9MZXZlbAAwLjY4MDc1NTQzNgBGWF9Sb29tL011bHRpRlgxL0NvbXBfQXR0YWNrADAuODU0MTE2MzIxAEZYX1Jvb20vTXVsdGlGWDEvQ29tcF9FbmFibGUAMQBGWF9Sb29tL011bHRpRlgxL0NvbXBfUmF0aW8AMC4zMjU3OTM1NjQARlhfUm9vbS9NdWx0aUZYMS9Db21wX1JlbGVhc2UAMC4zNzkxMjA4ODYARlhfUm9vbS9NdWx0aUZYMS9Db21wX1RocmVzaG9sZAAwLjIzOTk5OTk5NQBGWF9Sb29tL011bHRpRlgxL0N1cnJlbnRTZWxlY3Rpb24AQ29tcABGWF9Sb29tL011bHRpRlgxL0Rpc3RfQW1vdW50ADAuMDg3OTEyMDkwMQBGWF9Sb29tL011bHRpRlgxL0Rpc3RfRW5hYmxlADEARlhfUm9vbS9NdWx0aUZYMS9EaXN0X0ZyZXFIaQAxAEZYX1Jvb20vTXVsdGlGWDEvRGlzdF9GcmVxTG8AMABGWF9Sb29tL011bHRpRlgxL0Rpc3RfTWl4ADAuNDQ2NDI4NTk3AEZYX1Jvb20vTXVsdGlGWDEvRGlzdF9UeXBlADcARlhfUm9vbS9NdWx0aUZYMS9FbmFibGUAMQBGWF9Sb29tL011bHRpRlgxL0xpbWl0ZXJfRW5hYmxlADAARlhfUm9vbS9NdWx0aUZYMS9MaW1pdGVyX1RocmVzaG9sZAAwLjUARlhfUm9vbS9NdWx0aUZYMS9UYXBlX0Ftb3VudAAwLjUARlhfUm9vbS9NdWx0aUZYMS9UYXBlX0NvbG9yADAARlhfUm9vbS9NdWx0aUZYMS9UYXBlX0VuYWJsZQAwAEZYX1Jvb20vTXVsdGlGWDEvVHJhbnNpZW50X0F0dGFjawAwLjUARlhfUm9vbS9NdWx0aUZYMS9UcmFuc2llbnRfRGVjYXkAMC41AEZYX1Jvb20vTXVsdGlGWDEvVHJhbnNpZW50X0VuYWJsZQAwAEZYX1Jvb20vTXVsdGlGWDIvQ29tcF9BdHRhY2sAMC4yMDAwMDAwMDMARlhfUm9vbS9NdWx0aUZYMi9Db21wX0VuYWJsZQAwAEZYX1Jvb20vTXVsdGlGWDIvQ29tcF9SYXRpbwAwLjUARlhfUm9vbS9NdWx0aUZYMi9Db21wX1JlbGVhc2UAMC4yMDAwMDAwMDMARlhfUm9vbS9NdWx0aUZYMi9Db21wX1RocmVzaG9sZAAwLjUARlhfUm9vbS9NdWx0aUZYMi9DdXJyZW50U2VsZWN0aW9uAE1hc3RlcgBGWF9Sb29tL011bHRpRlgyL0Rpc3RfQW1vdW50ADAuNQBGWF9Sb29tL011bHRpRlgyL0Rpc3RfRW5hYmxlADAARlhfUm9vbS9NdWx0aUZYMi9EaXN0X0ZyZXFIaQAxAEZYX1Jvb20vTXVsdGlGWDIvRGlzdF9GcmVxTG8AMABGWF9Sb29tL011bHRpRlgyL0Rpc3RfTWl4ADAuNQBGWF9Sb29tL011bHRpRlgyL0Rpc3RfVHlwZQA1AEZYX1Jvb20vTXVsdGlGWDIvRW5hYmxlADEARlhfUm9vbS9NdWx0aUZYMi9MaW1pdGVyX0VuYWJsZQAwAEZYX1Jvb20vTXVsdGlGWDIvTGltaXRlcl9UaHJlc2hvbGQAMC41AEZYX1Jvb20vTXVsdGlGWDIvVGFwZV9BbW91bnQAMC4yMDAwMDAwMDMARlhfUm9vbS9NdWx0aUZYMi9UYXBlX0NvbG9yADAuMTI4NTcxNDM2AEZYX1Jvb20vTXVsdGlGWDIvVGFwZV9FbmFibGUAMQBGWF9Sb29tL011bHRpRlgyL1RyYW5zaWVudF9BdHRhY2sAMC4xNTcxNDI4NjMARlhfUm9vbS9NdWx0aUZYMi9UcmFuc2llbnRfRGVjYXkAMC43ODExMjgxNjgARlhfUm9vbS9NdWx0aUZYMi9UcmFuc2llbnRfRW5hYmxlADEARlhfUm9vbS9Ob2lzZV9EZWNheVRpbWUAMC41AEZYX1Jvb20vTm9pc2VfRW5hYmxlADAARlhfUm9vbS9Ob2lzZV9HYXRlTGV2ZWwAMC40NDk5OTk5ODgARlhfUm9vbS9Ob2lzZV9Ob2lzZUxldmVsADAuNQBGWF9Sb29tL05vaXNlX05vaXNlVHlwZQAwAEZYX1Jvb20vT3V0TGV2ZWwAMC41AEZYX1Jvb20vUGFuX1BhbgAwLjUARlhfUm9vbS9QYW5fV2lkdGgAMQBGWF9Sb29tL1NlbmQxTGV2ZWwAMABGWF9Sb29tL1NlbmQyTGV2ZWwAMABGWF9Sb29tL1NlbmRCdXNMZXZlbAAwLjQxMzc5MzExNwBGWF9Sb29tL1NlbmRzX0VuYWJsZQAwAEZYX1Jvb20vU2VuZHNfRW5hYmxlX0ludGVybmFsADAARlhfUm9vbS9TZXBhcmF0ZU91dAAwAEZYX1Jvb20vU2VwYXJhdGVPdXRNb2RlADEARlhfUm9vbS9TZXBhcmF0ZU91dE11dGVNYXN0ZXIAMABGWF9Sb29tL1NlcGFyYXRlT3V0UG9zdEZhZGVyADAARlhfU05BUi9FUV9DdXRIaUZyZXEAMQBGWF9TTkFSL0VRX0N1dEhpUQAwLjUARlhfU05BUi9FUV9DdXRMb0ZyZXEAMC4xMzU4ODg1MDIARlhfU05BUi9FUV9DdXRMb1EAMC41AEZYX1NOQVIvRVFfRW5hYmxlADEARlhfU05BUi9FUV9IaTJGcmVxADAuOTE4NDY2OTg1AEZYX1NOQVIvRVFfSGkyR2FpbgAwLjc2NjYwMzU4OQBGWF9TTkFSL0VRX0hpMlEAMC40MDU1Mzc2OTUARlhfU05BUi9FUV9IaUZyZXEAMC44OTk2NTY2NTMARlhfU05BUi9FUV9IaUdhaW4AMC41AEZYX1NOQVIvRVFfSGlRADAuMzI1MjU3NTEARlhfU05BUi9FUV9Mb0ZyZXEAMC4yODg3MzkxNDUARlhfU05BUi9FUV9Mb0dhaW4AMC42NDczNjg0MzEARlhfU05BUi9FUV9Mb1EAMC4zMjUyNTc1MQBGWF9TTkFSL0VRX01pZEZyZXEAMC41MDcwODk4NTMARlhfU05BUi9FUV9NaWRHYWluADAuMzk0NzM2ODU2AEZYX1NOQVIvRVFfTWlkUQAwLjU3NTI1NzQ4AEZYX1NOQVIvRW5hYmxlADEARlhfU05BUi9FbmFibGVGWAAxAEZYX1NOQVIvR1VJTXV0ZQAwAEZYX1NOQVIvR1VJU29sbwAwAEZYX1NOQVIvSW52ZXJ0ADAARlhfU05BUi9MZXZlbAAwLjc1Nzk4MjMxNABGWF9TTkFSL011bHRpRlgxL0NvbXBfQXR0YWNrADAARlhfU05BUi9NdWx0aUZYMS9Db21wX0VuYWJsZQAwAEZYX1NOQVIvTXVsdGlGWDEvQ29tcF9SYXRpbwAwAEZYX1NOQVIvTXVsdGlGWDEvQ29tcF9SZWxlYXNlADAARlhfU05BUi9NdWx0aUZYMS9Db21wX1RocmVzaG9sZAAxAEZYX1NOQVIvTXVsdGlGWDEvQ3VycmVudFNlbGVjdGlvbgBNYXN0ZXIARlhfU05BUi9NdWx0aUZYMS9EaXN0X0Ftb3VudAAwLjI4MDIxOTc2NABGWF9TTkFSL011bHRpRlgxL0Rpc3RfRW5hYmxlADEARlhfU05BUi9NdWx0aUZYMS9EaXN0X0ZyZXFIaQAxAEZYX1NOQVIvTXVsdGlGWDEvRGlzdF9GcmVxTG8AMC40MDc4OTQ3MzEARlhfU05BUi9NdWx0aUZYMS9EaXN0X01peAAwLjk1ODMzMzMxMwBGWF9TTkFSL011bHRpRlgxL0Rpc3RfVHlwZQA3AEZYX1NOQVIvTXVsdGlGWDEvRW5hYmxlADEARlhfU05BUi9NdWx0aUZYMS9MaW1pdGVyX0VuYWJsZQAwAEZYX1NOQVIvTXVsdGlGWDEvTGltaXRlcl9UaHJlc2hvbGQAMC41AEZYX1NOQVIvTXVsdGlGWDEvVGFwZV9BbW91bnQAMC4zMjg1NzE0MzkARlhfU05BUi9NdWx0aUZYMS9UYXBlX0NvbG9yADAuNDcxNDI4NTczAEZYX1NOQVIvTXVsdGlGWDEvVGFwZV9FbmFibGUAMQBGWF9TTkFSL011bHRpRlgxL1RyYW5zaWVudF9BdHRhY2sAMC43NjQyODU2ODQARlhfU05BUi9NdWx0aUZYMS9UcmFuc2llbnRfRGVjYXkAMC40OTI4NTcxNTgARlhfU05BUi9NdWx0aUZYMS9UcmFuc2llbnRfRW5hYmxlADEARlhfU05BUi9NdWx0aUZYMi9Db21wX0F0dGFjawAwLjcwNjY5NzQwNABGWF9TTkFSL011bHRpRlgyL0NvbXBfRW5hYmxlADEARlhfU05BUi9NdWx0aUZYMi9Db21wX1JhdGlvADAuMzU3MTQyODY2AEZYX1NOQVIvTXVsdGlGWDIvQ29tcF9SZWxlYXNlADAuMjAwMDAwMDAzAEZYX1NOQVIvTXVsdGlGWDIvQ29tcF9UaHJlc2hvbGQAMC42MjUARlhfU05BUi9NdWx0aUZYMi9DdXJyZW50U2VsZWN0aW9uAENvbXAARlhfU05BUi9NdWx0aUZYMi9EaXN0X0Ftb3VudAAwLjUARlhfU05BUi9NdWx0aUZYMi9EaXN0X0VuYWJsZQAwAEZYX1NOQVIvTXVsdGlGWDIvRGlzdF9GcmVxSGkAMQBGWF9TTkFSL011bHRpRlgyL0Rpc3RfRnJlcUxvADAARlhfU05BUi9NdWx0aUZYMi9EaXN0X01peAAwLjUARlhfU05BUi9NdWx0aUZYMi9EaXN0X1R5cGUANQBGWF9TTkFSL011bHRpRlgyL0VuYWJsZQAxAEZYX1NOQVIvTXVsdGlGWDIvTGltaXRlcl9FbmFibGUAMABGWF9TTkFSL011bHRpRlgyL0xpbWl0ZXJfVGhyZXNob2xkADAuNQBGWF9TTkFSL011bHRpRlgyL1RhcGVfQW1vdW50ADAuNQBGWF9TTkFSL011bHRpRlgyL1RhcGVfQ29sb3IAMABGWF9TTkFSL011bHRpRlgyL1RhcGVfRW5hYmxlADAARlhfU05BUi9NdWx0aUZYMi9UcmFuc2llbnRfQXR0YWNrADAuNQBGWF9TTkFSL011bHRpRlgyL1RyYW5zaWVudF9EZWNheQAwLjUARlhfU05BUi9NdWx0aUZYMi9UcmFuc2llbnRfRW5hYmxlADAARlhfU05BUi9Ob2lzZV9EZWNheVRpbWUAMC41AEZYX1NOQVIvTm9pc2VfRW5hYmxlADAARlhfU05BUi9Ob2lzZV9HYXRlTGV2ZWwAMC40NDk5OTk5ODgARlhfU05BUi9Ob2lzZV9Ob2lzZUxldmVsADAuNQBGWF9TTkFSL05vaXNlX05vaXNlVHlwZQAwAEZYX1NOQVIvT3V0TGV2ZWwAMC42NDY3NDI3MDIARlhfU05BUi9QYW5fUGFuADAuNQBGWF9TTkFSL1NlbmQxTGV2ZWwAMC4yOTMwMjkzMzgARlhfU05BUi9TZW5kMkxldmVsADAuNDMzMDM1ODgARlhfU05BUi9TZW5kQnVzTGV2ZWwAMC42NzI0MTM3NjYARlhfU05BUi9TZW5kc19FbmFibGUAMQBGWF9TTkFSL1NlbmRzX0VuYWJsZV9JbnRlcm5hbAAxAEZYX1NOQVIvU2VwYXJhdGVPdXQAMABGWF9TTkFSL1NlcGFyYXRlT3V0TW9kZQAxAEZYX1NOQVIvU2VwYXJhdGVPdXRNdXRlTWFzdGVyADAARlhfU05BUi9TZXBhcmF0ZU91dFBvc3RGYWRlcgAwAEZYX1NlbmQxL0RlbGF5X0ZpbHRlcl9IaQAxAEZYX1NlbmQxL0RlbGF5X0ZpbHRlcl9MbwAwAEZYX1NlbmQxL0RlbGF5X0xldmVsADAuNQBGWF9TZW5kMS9EZWxheV9QaW5nUG9uZwAwLjUARlhfU2VuZDEvRGVsYXlfU3dpbmcAMC41AEZYX1NlbmQxL0RlbGF5X1RlbXBvU3luYwAwAEZYX1NlbmQxL0RlbGF5X1RpbWUAMC4yMzA2MTIyNDgARlhfU2VuZDEvRGVsZXJiX0VuYWJsZQAxAEZYX1NlbmQxL0VRX0N1dEhpRnJlcQAxAEZYX1NlbmQxL0VRX0N1dEhpUQAwLjUARlhfU2VuZDEvRVFfQ3V0TG9GcmVxADAuMjM2NjA3MTQ5AEZYX1NlbmQxL0VRX0N1dExvUQAwLjUARlhfU2VuZDEvRVFfRW5hYmxlADEARlhfU2VuZDEvRVFfSGlGcmVxADAuODk5NjU2NjUzAEZYX1NlbmQxL0VRX0hpR2FpbgAwLjUARlhfU2VuZDEvRVFfSGlRADAARlhfU2VuZDEvRVFfTG9GcmVxADAuMjMyOTg5OTk3AEZYX1NlbmQxL0VRX0xvR2FpbgAwLjUARlhfU2VuZDEvRVFfTG9RADAARlhfU2VuZDEvR1VJU29sbwAwAEZYX1NlbmQxL0xldmVsADAuMjYzNTczOTQ1AEZYX1NlbmQxL01ha3JvTWl4RGVsYXlSZXZlcmIAMQBGWF9TZW5kMS9QYW5fUGFuADAuNQBGWF9TZW5kMS9QYW5fV2lkdGgAMQBGWF9TZW5kMS9QcmVJbnNlcnRzADAARlhfU2VuZDEvUmV2R2F0ZV9BbW91bnQAMABGWF9TZW5kMS9SZXZHYXRlX1NoYXBlADAuNQBGWF9TZW5kMS9SZXZTbWVhcl9NaXgAMC40NDA0NzYxNzkARlhfU2VuZDEvUmV2ZXJiX0RhbXAAMC4xNDI4NTcxNDkARlhfU2VuZDEvUmV2ZXJiX0RlY2F5ADAuNzExMTU1ODkxAEZYX1NlbmQxL1JldmVyYl9QcmVEZWxheQAwLjQxMDcxNDI5OABGWF9TZW5kMS9SZXZlcmJfVHlwZQAzAEZYX1NlbmQyL0RlbGF5X0ZpbHRlcl9IaQAxAEZYX1NlbmQyL0RlbGF5X0ZpbHRlcl9MbwAwAEZYX1NlbmQyL0RlbGF5X0xldmVsADAuNQBGWF9TZW5kMi9EZWxheV9QaW5nUG9uZwAwLjUARlhfU2VuZDIvRGVsYXlfU3dpbmcAMC41AEZYX1NlbmQyL0RlbGF5X1RlbXBvU3luYwAwAEZYX1NlbmQyL0RlbGF5X1RpbWUAMC41AEZYX1NlbmQyL0RlbGVyYl9FbmFibGUAMQBGWF9TZW5kMi9FUV9DdXRIaUZyZXEAMC42MDI2Nzg1OTcARlhfU2VuZDIvRVFfQ3V0SGlRADAuNjAyNzk1NzIARlhfU2VuZDIvRVFfQ3V0TG9GcmVxADAARlhfU2VuZDIvRVFfQ3V0TG9RADAuNQBGWF9TZW5kMi9FUV9FbmFibGUAMQBGWF9TZW5kMi9FUV9IaUZyZXEAMC44OTk2NTY2NTMARlhfU2VuZDIvRVFfSGlHYWluADAuNQBGWF9TZW5kMi9FUV9IaVEAMABGWF9TZW5kMi9FUV9Mb0ZyZXEAMC4yMzI5ODk5OTcARlhfU2VuZDIvRVFfTG9HYWluADAuNQBGWF9TZW5kMi9FUV9Mb1EAMABGWF9TZW5kMi9HVUlTb2xvADAARlhfU2VuZDIvTGV2ZWwAMC4yNjU0Nzk1MzUARlhfU2VuZDIvTWFrcm9NaXhEZWxheVJldmVyYgAxAEZYX1NlbmQyL1Bhbl9QYW4AMC41AEZYX1NlbmQyL1Bhbl9XaWR0aAAxAEZYX1NlbmQyL1ByZUluc2VydHMAMABGWF9TZW5kMi9SZXZHYXRlX0Ftb3VudAAwAEZYX1NlbmQyL1JldkdhdGVfU2hhcGUAMC41AEZYX1NlbmQyL1JldlNtZWFyX01peAAwAEZYX1NlbmQyL1JldmVyYl9EYW1wADAARlhfU2VuZDIvUmV2ZXJiX0RlY2F5ADAuMTUwODU4Njg1AEZYX1NlbmQyL1JldmVyYl9QcmVEZWxheQAwAEZYX1NlbmQyL1JldmVyYl9UeXBlADIARlhfVE9NMS9FUV9DdXRIaUZyZXEAMC45NTEyMTk1NTkARlhfVE9NMS9FUV9DdXRIaVEAMC43OTQ3MzY4NjIARlhfVE9NMS9FUV9DdXRMb0ZyZXEAMC4xODExODQ2NjQARlhfVE9NMS9FUV9DdXRMb1EAMC41OTY4NDIxMQBGWF9UT00xL0VRX0VuYWJsZQAxAEZYX1RPTTEvRVFfSGkyRnJlcQAwLjczMzc5NzkwOABGWF9UT00xL0VRX0hpMkdhaW4AMC43OTQ3MzY4MDMARlhfVE9NMS9FUV9IaTJRADAuMzA5OTk5OTczAEZYX1RPTTEvRVFfSGlGcmVxADAuODI5OTcwMjQxAEZYX1RPTTEvRVFfSGlHYWluADAuNzIxMDUyNjQ3AEZYX1RPTTEvRVFfSGlRADAuMzI1MjU3NTEARlhfVE9NMS9FUV9Mb0ZyZXEAMC4yMzk5NTg2MTQARlhfVE9NMS9FUV9Mb0dhaW4AMC42MjYzMTU4MzIARlhfVE9NMS9FUV9Mb1EAMC4zMjUyNTc1MQBGWF9UT00xL0VRX01pZEZyZXEAMC41NzMyOTE5NTcARlhfVE9NMS9FUV9NaWRHYWluADAuMjM2ODQyMTExAEZYX1RPTTEvRVFfTWlkUQAwLjMyNTI1NzUxAEZYX1RPTTEvRW5hYmxlADEARlhfVE9NMS9FbmFibGVGWAAxAEZYX1RPTTEvR1VJTXV0ZQAwAEZYX1RPTTEvR1VJU29sbwAwAEZYX1RPTTEvSW52ZXJ0ADAARlhfVE9NMS9MZXZlbAAwLjc1ODIwNDUyAEZYX1RPTTEvTXVsdGlGWDEvQ29tcF9BdHRhY2sAMABGWF9UT00xL011bHRpRlgxL0NvbXBfRW5hYmxlADAARlhfVE9NMS9NdWx0aUZYMS9Db21wX1JhdGlvADAARlhfVE9NMS9NdWx0aUZYMS9Db21wX1JlbGVhc2UAMABGWF9UT00xL011bHRpRlgxL0NvbXBfVGhyZXNob2xkADEARlhfVE9NMS9NdWx0aUZYMS9DdXJyZW50U2VsZWN0aW9uAENvbXAARlhfVE9NMS9NdWx0aUZYMS9EaXN0X0Ftb3VudAAwLjMzNjY4NzI2NwBGWF9UT00xL011bHRpRlgxL0Rpc3RfRW5hYmxlADEARlhfVE9NMS9NdWx0aUZYMS9EaXN0X0ZyZXFIaQAxAEZYX1RPTTEvTXVsdGlGWDEvRGlzdF9GcmVxTG8AMABGWF9UT00xL011bHRpRlgxL0Rpc3RfTWl4ADEARlhfVE9NMS9NdWx0aUZYMS9EaXN0X1R5cGUANQBGWF9UT00xL011bHRpRlgxL0VuYWJsZQAxAEZYX1RPTTEvTXVsdGlGWDEvTGltaXRlcl9FbmFibGUAMABGWF9UT00xL011bHRpRlgxL0xpbWl0ZXJfVGhyZXNob2xkADAuNQBGWF9UT00xL011bHRpRlgxL1RhcGVfQW1vdW50ADAuNQBGWF9UT00xL011bHRpRlgxL1RhcGVfQ29sb3IAMABGWF9UT00xL011bHRpRlgxL1RhcGVfRW5hYmxlADAARlhfVE9NMS9NdWx0aUZYMS9UcmFuc2llbnRfQXR0YWNrADAuNQBGWF9UT00xL011bHRpRlgxL1RyYW5zaWVudF9EZWNheQAwLjUARlhfVE9NMS9NdWx0aUZYMS9UcmFuc2llbnRfRW5hYmxlADAARlhfVE9NMS9NdWx0aUZYMi9Db21wX0F0dGFjawAwLjIwMDAwMDAwMwBGWF9UT00xL011bHRpRlgyL0NvbXBfRW5hYmxlADAARlhfVE9NMS9NdWx0aUZYMi9Db21wX1JhdGlvADAuNQBGWF9UT00xL011bHRpRlgyL0NvbXBfUmVsZWFzZQAwLjIwMDAwMDAwMwBGWF9UT00xL011bHRpRlgyL0NvbXBfVGhyZXNob2xkADAuNQBGWF9UT00xL011bHRpRlgyL0N1cnJlbnRTZWxlY3Rpb24ATWFzdGVyAEZYX1RPTTEvTXVsdGlGWDIvRGlzdF9BbW91bnQAMC41AEZYX1RPTTEvTXVsdGlGWDIvRGlzdF9FbmFibGUAMABGWF9UT00xL011bHRpRlgyL0Rpc3RfRnJlcUhpADEARlhfVE9NMS9NdWx0aUZYMi9EaXN0X0ZyZXFMbwAwAEZYX1RPTTEvTXVsdGlGWDIvRGlzdF9NaXgAMC41AEZYX1RPTTEvTXVsdGlGWDIvRGlzdF9UeXBlADUARlhfVE9NMS9NdWx0aUZYMi9FbmFibGUAMQBGWF9UT00xL011bHRpRlgyL0xpbWl0ZXJfRW5hYmxlADAARlhfVE9NMS9NdWx0aUZYMi9MaW1pdGVyX1RocmVzaG9sZAAwLjUARlhfVE9NMS9NdWx0aUZYMi9UYXBlX0Ftb3VudAAwLjM0MzYwNDExOABGWF9UT00xL011bHRpRlgyL1RhcGVfQ29sb3IAMC4wOTAyMzU3NjIzAEZYX1RPTTEvTXVsdGlGWDIvVGFwZV9FbmFibGUAMQBGWF9UT00xL011bHRpRlgyL1RyYW5zaWVudF9BdHRhY2sAMC4zOTI4NTcxMzQARlhfVE9NMS9NdWx0aUZYMi9UcmFuc2llbnRfRGVjYXkAMC43NTEyMTU2MzcARlhfVE9NMS9NdWx0aUZYMi9UcmFuc2llbnRfRW5hYmxlADEARlhfVE9NMS9Ob2lzZV9EZWNheVRpbWUAMC41AEZYX1RPTTEvTm9pc2VfRW5hYmxlADAARlhfVE9NMS9Ob2lzZV9HYXRlTGV2ZWwAMC40NDk5OTk5ODgARlhfVE9NMS9Ob2lzZV9Ob2lzZUxldmVsADAuNQBGWF9UT00xL05vaXNlX05vaXNlVHlwZQAwAEZYX1RPTTEvT3V0TGV2ZWwAMC42NDY3NDI3MDIARlhfVE9NMS9QYW5fUGFuADAuODA3NjkyMjg5AEZYX1RPTTEvU2VuZDFMZXZlbAAwLjQzMjQ1MjcwOABGWF9UT00xL1NlbmQyTGV2ZWwAMABGWF9UT00xL1NlbmRCdXNMZXZlbAAwAEZYX1RPTTEvU2VuZHNfRW5hYmxlADEARlhfVE9NMS9TZW5kc19FbmFibGVfSW50ZXJuYWwAMQBGWF9UT00xL1NlcGFyYXRlT3V0ADAARlhfVE9NMS9TZXBhcmF0ZU91dE1vZGUAMQBGWF9UT00xL1NlcGFyYXRlT3V0TXV0ZU1hc3RlcgAwAEZYX1RPTTEvU2VwYXJhdGVPdXRQb3N0RmFkZXIAMABGWF9UT00yL0VRX0N1dEhpRnJlcQAwLjk1MTIxOTU1OQBGWF9UT00yL0VRX0N1dEhpUQAwLjc5NDczNjg2MgBGWF9UT00yL0VRX0N1dExvRnJlcQAwLjE4MTE4NDY2NABGWF9UT00yL0VRX0N1dExvUQAwLjU5Njg0MjExAEZYX1RPTTIvRVFfRW5hYmxlADEARlhfVE9NMi9FUV9IaTJGcmVxADAuNzMzNzk3OTA4AEZYX1RPTTIvRVFfSGkyR2FpbgAwLjc5NDczNjgwMwBGWF9UT00yL0VRX0hpMlEAMC4zMDk5OTk5NzMARlhfVE9NMi9FUV9IaUZyZXEAMC44Mjk5NzAyNDEARlhfVE9NMi9FUV9IaUdhaW4AMC43MjEwNTI2NDcARlhfVE9NMi9FUV9IaVEAMC4zMjUyNTc1MQBGWF9UT00yL0VRX0xvRnJlcQAwLjIzOTk1ODYxNABGWF9UT00yL0VRX0xvR2FpbgAwLjYyNjMxNTgzMgBGWF9UT00yL0VRX0xvUQAwLjMyNTI1NzUxAEZYX1RPTTIvRVFfTWlkRnJlcQAwLjU3MzI5MTk1NwBGWF9UT00yL0VRX01pZEdhaW4AMC4yMzY4NDIxMTEARlhfVE9NMi9FUV9NaWRRADAuMzI1MjU3NTEARlhfVE9NMi9FbmFibGUAMQBGWF9UT00yL0VuYWJsZUZYADEARlhfVE9NMi9HVUlNdXRlADAARlhfVE9NMi9HVUlTb2xvADAARlhfVE9NMi9JbnZlcnQAMABGWF9UT00yL0xldmVsADAuNzU4MjA0NTIARlhfVE9NMi9NdWx0aUZYMS9Db21wX0F0dGFjawAwAEZYX1RPTTIvTXVsdGlGWDEvQ29tcF9FbmFibGUAMABGWF9UT00yL011bHRpRlgxL0NvbXBfUmF0aW8AMABGWF9UT00yL011bHRpRlgxL0NvbXBfUmVsZWFzZQAwAEZYX1RPTTIvTXVsdGlGWDEvQ29tcF9UaHJlc2hvbGQAMQBGWF9UT00yL011bHRpRlgxL0N1cnJlbnRTZWxlY3Rpb24AQ29tcABGWF9UT00yL011bHRpRlgxL0Rpc3RfQW1vdW50ADAuMzM2Njg3MjY3AEZYX1RPTTIvTXVsdGlGWDEvRGlzdF9FbmFibGUAMQBGWF9UT00yL011bHRpRlgxL0Rpc3RfRnJlcUhpADEARlhfVE9NMi9NdWx0aUZYMS9EaXN0X0ZyZXFMbwAwAEZYX1RPTTIvTXVsdGlGWDEvRGlzdF9NaXgAMQBGWF9UT00yL011bHRpRlgxL0Rpc3RfVHlwZQA1AEZYX1RPTTIvTXVsdGlGWDEvRW5hYmxlADEARlhfVE9NMi9NdWx0aUZYMS9MaW1pdGVyX0VuYWJsZQAwAEZYX1RPTTIvTXVsdGlGWDEvTGltaXRlcl9UaHJlc2hvbGQAMC41AEZYX1RPTTIvTXVsdGlGWDEvVGFwZV9BbW91bnQAMC41AEZYX1RPTTIvTXVsdGlGWDEvVGFwZV9Db2xvcgAwAEZYX1RPTTIvTXVsdGlGWDEvVGFwZV9FbmFibGUAMABGWF9UT00yL011bHRpRlgxL1RyYW5zaWVudF9BdHRhY2sAMC41AEZYX1RPTTIvTXVsdGlGWDEvVHJhbnNpZW50X0RlY2F5ADAuNQBGWF9UT00yL011bHRpRlgxL1RyYW5zaWVudF9FbmFibGUAMABGWF9UT00yL011bHRpRlgyL0NvbXBfQXR0YWNrADAuMjAwMDAwMDAzAEZYX1RPTTIvTXVsdGlGWDIvQ29tcF9FbmFibGUAMABGWF9UT00yL011bHRpRlgyL0NvbXBfUmF0aW8AMC41AEZYX1RPTTIvTXVsdGlGWDIvQ29tcF9SZWxlYXNlADAuMjAwMDAwMDAzAEZYX1RPTTIvTXVsdGlGWDIvQ29tcF9UaHJlc2hvbGQAMC41AEZYX1RPTTIvTXVsdGlGWDIvQ3VycmVudFNlbGVjdGlvbgBNYXN0ZXIARlhfVE9NMi9NdWx0aUZYMi9EaXN0X0Ftb3VudAAwLjUARlhfVE9NMi9NdWx0aUZYMi9EaXN0X0VuYWJsZQAwAEZYX1RPTTIvTXVsdGlGWDIvRGlzdF9GcmVxSGkAMQBGWF9UT00yL011bHRpRlgyL0Rpc3RfRnJlcUxvADAARlhfVE9NMi9NdWx0aUZYMi9EaXN0X01peAAwLjUARlhfVE9NMi9NdWx0aUZYMi9EaXN0X1R5cGUANQBGWF9UT00yL011bHRpRlgyL0VuYWJsZQAxAEZYX1RPTTIvTXVsdGlGWDIvTGltaXRlcl9FbmFibGUAMABGWF9UT00yL011bHRpRlgyL0xpbWl0ZXJfVGhyZXNob2xkADAuNQBGWF9UT00yL011bHRpRlgyL1RhcGVfQW1vdW50ADAuMzQzNjA0MTE4AEZYX1RPTTIvTXVsdGlGWDIvVGFwZV9Db2xvcgAwLjA5MDIzNTc2MjMARlhfVE9NMi9NdWx0aUZYMi9UYXBlX0VuYWJsZQAxAEZYX1RPTTIvTXVsdGlGWDIvVHJhbnNpZW50X0F0dGFjawAwLjM2MzAxMTgzNwBGWF9UT00yL011bHRpRlgyL1RyYW5zaWVudF9EZWNheQAwLjgyMjY0NDIzNABGWF9UT00yL011bHRpRlgyL1RyYW5zaWVudF9FbmFibGUAMQBGWF9UT00yL05vaXNlX0RlY2F5VGltZQAwLjUARlhfVE9NMi9Ob2lzZV9FbmFibGUAMABGWF9UT00yL05vaXNlX0dhdGVMZXZlbAAwLjQ0OTk5OTk4OABGWF9UT00yL05vaXNlX05vaXNlTGV2ZWwAMC41AEZYX1RPTTIvTm9pc2VfTm9pc2VUeXBlADAARlhfVE9NMi9PdXRMZXZlbAAwLjY0Njc0MjcwMgBGWF9UT00yL1Bhbl9QYW4AMC44MDc2OTIyODkARlhfVE9NMi9TZW5kMUxldmVsADAuNDMyNDUyNzA4AEZYX1RPTTIvU2VuZDJMZXZlbAAwAEZYX1RPTTIvU2VuZEJ1c0xldmVsADAARlhfVE9NMi9TZW5kc19FbmFibGUAMQBGWF9UT00yL1NlbmRzX0VuYWJsZV9JbnRlcm5hbAAxAEZYX1RPTTIvU2VwYXJhdGVPdXQAMABGWF9UT00yL1NlcGFyYXRlT3V0TW9kZQAxAEZYX1RPTTIvU2VwYXJhdGVPdXRNdXRlTWFzdGVyADAARlhfVE9NMi9TZXBhcmF0ZU91dFBvc3RGYWRlcgAwAEZYX1RPTTMvRVFfQ3V0SGlGcmVxADAuOTUxMjE5NTU5AEZYX1RPTTMvRVFfQ3V0SGlRADAuNzk0NzM2ODYyAEZYX1RPTTMvRVFfQ3V0TG9GcmVxADAuMTA0NTI5NjE5AEZYX1RPTTMvRVFfQ3V0TG9RADAuNjM2ODQyMTMyAEZYX1RPTTMvRVFfRW5hYmxlADEARlhfVE9NMy9FUV9IaTJGcmVxADAuNzMzNzk3OTA4AEZYX1RPTTMvRVFfSGkyR2FpbgAwLjc5NDczNjgwMwBGWF9UT00zL0VRX0hpMlEAMC4zMDk5OTk5NzMARlhfVE9NMy9FUV9IaUZyZXEAMC44Mjk5NzAyNDEARlhfVE9NMy9FUV9IaUdhaW4AMC43MjEwNTI2NDcARlhfVE9NMy9FUV9IaVEAMC4zMjUyNTc1MQBGWF9UT00zL0VRX0xvRnJlcQAwLjIwOTk1ODYxMwBGWF9UT00zL0VRX0xvR2FpbgAwLjIwNjMxNTgwMQBGWF9UT00zL0VRX0xvUQAxAEZYX1RPTTMvRVFfTWlkRnJlcQAwLjQ0NDM3MjA4OABGWF9UT00zL0VRX01pZEdhaW4AMC4xNjMxNTc4OTUARlhfVE9NMy9FUV9NaWRRADAuMzI1MjU3NTEARlhfVE9NMy9FbmFibGUAMQBGWF9UT00zL0VuYWJsZUZYADEARlhfVE9NMy9HVUlNdXRlADAARlhfVE9NMy9HVUlTb2xvADAARlhfVE9NMy9JbnZlcnQAMABGWF9UT00zL0xldmVsADAuNzU4MjA0NTIARlhfVE9NMy9NdWx0aUZYMS9Db21wX0F0dGFjawAwAEZYX1RPTTMvTXVsdGlGWDEvQ29tcF9FbmFibGUAMABGWF9UT00zL011bHRpRlgxL0NvbXBfUmF0aW8AMABGWF9UT00zL011bHRpRlgxL0NvbXBfUmVsZWFzZQAwAEZYX1RPTTMvTXVsdGlGWDEvQ29tcF9UaHJlc2hvbGQAMQBGWF9UT00zL011bHRpRlgxL0N1cnJlbnRTZWxlY3Rpb24AQ29tcABGWF9UT00zL011bHRpRlgxL0Rpc3RfQW1vdW50ADAuMzM2Njg3MjY3AEZYX1RPTTMvTXVsdGlGWDEvRGlzdF9FbmFibGUAMQBGWF9UT00zL011bHRpRlgxL0Rpc3RfRnJlcUhpADEARlhfVE9NMy9NdWx0aUZYMS9EaXN0X0ZyZXFMbwAwAEZYX1RPTTMvTXVsdGlGWDEvRGlzdF9NaXgAMQBGWF9UT00zL011bHRpRlgxL0Rpc3RfVHlwZQA1AEZYX1RPTTMvTXVsdGlGWDEvRW5hYmxlADEARlhfVE9NMy9NdWx0aUZYMS9MaW1pdGVyX0VuYWJsZQAwAEZYX1RPTTMvTXVsdGlGWDEvTGltaXRlcl9UaHJlc2hvbGQAMC41AEZYX1RPTTMvTXVsdGlGWDEvVGFwZV9BbW91bnQAMC41AEZYX1RPTTMvTXVsdGlGWDEvVGFwZV9Db2xvcgAwAEZYX1RPTTMvTXVsdGlGWDEvVGFwZV9FbmFibGUAMABGWF9UT00zL011bHRpRlgxL1RyYW5zaWVudF9BdHRhY2sAMC41AEZYX1RPTTMvTXVsdGlGWDEvVHJhbnNpZW50X0RlY2F5ADAuNQBGWF9UT00zL011bHRpRlgxL1RyYW5zaWVudF9FbmFibGUAMABGWF9UT00zL011bHRpRlgyL0NvbXBfQXR0YWNrADAuMjAwMDAwMDAzAEZYX1RPTTMvTXVsdGlGWDIvQ29tcF9FbmFibGUAMABGWF9UT00zL011bHRpRlgyL0NvbXBfUmF0aW8AMC41AEZYX1RPTTMvTXVsdGlGWDIvQ29tcF9SZWxlYXNlADAuMjAwMDAwMDAzAEZYX1RPTTMvTXVsdGlGWDIvQ29tcF9UaHJlc2hvbGQAMC41AEZYX1RPTTMvTXVsdGlGWDIvQ3VycmVudFNlbGVjdGlvbgBNYXN0ZXIARlhfVE9NMy9NdWx0aUZYMi9EaXN0X0Ftb3VudAAwLjUARlhfVE9NMy9NdWx0aUZYMi9EaXN0X0VuYWJsZQAwAEZYX1RPTTMvTXVsdGlGWDIvRGlzdF9GcmVxSGkAMQBGWF9UT00zL011bHRpRlgyL0Rpc3RfRnJlcUxvADAARlhfVE9NMy9NdWx0aUZYMi9EaXN0X01peAAwLjUARlhfVE9NMy9NdWx0aUZYMi9EaXN0X1R5cGUANQBGWF9UT00zL011bHRpRlgyL0VuYWJsZQAxAEZYX1RPTTMvTXVsdGlGWDIvTGltaXRlcl9FbmFibGUAMABGWF9UT00zL011bHRpRlgyL0xpbWl0ZXJfVGhyZXNob2xkADAuNQBGWF9UT00zL011bHRpRlgyL1RhcGVfQW1vdW50ADAuMzQzNjA0MTE4AEZYX1RPTTMvTXVsdGlGWDIvVGFwZV9Db2xvcgAwLjA5MDIzNTc2MjMARlhfVE9NMy9NdWx0aUZYMi9UYXBlX0VuYWJsZQAxAEZYX1RPTTMvTXVsdGlGWDIvVHJhbnNpZW50X0F0dGFjawAwLjM3ODU3MTQyMQBGWF9UT00zL011bHRpRlgyL1RyYW5zaWVudF9EZWNheQAwLjg4NTcxNDI5MwBGWF9UT00zL011bHRpRlgyL1RyYW5zaWVudF9FbmFibGUAMQBGWF9UT00zL05vaXNlX0RlY2F5VGltZQAwLjUARlhfVE9NMy9Ob2lzZV9FbmFibGUAMABGWF9UT00zL05vaXNlX0dhdGVMZXZlbAAwLjQ0OTk5OTk4OABGWF9UT00zL05vaXNlX05vaXNlTGV2ZWwAMC41AEZYX1RPTTMvTm9pc2VfTm9pc2VUeXBlADAARlhfVE9NMy9PdXRMZXZlbAAwLjY0Njc0MjcwMgBGWF9UT00zL1Bhbl9QYW4AMC44MDc2OTIyODkARlhfVE9NMy9TZW5kMUxldmVsADAuNDMyNDUyNzA4AEZYX1RPTTMvU2VuZDJMZXZlbAAwAEZYX1RPTTMvU2VuZEJ1c0xldmVsADAARlhfVE9NMy9TZW5kc19FbmFibGUAMQBGWF9UT00zL1NlbmRzX0VuYWJsZV9JbnRlcm5hbAAxAEZYX1RPTTMvU2VwYXJhdGVPdXQAMABGWF9UT00zL1NlcGFyYXRlT3V0TW9kZQAxAEZYX1RPTTMvU2VwYXJhdGVPdXRNdXRlTWFzdGVyADAARlhfVE9NMy9TZXBhcmF0ZU91dFBvc3RGYWRlcgAwAEZYX1RPTTQvRVFfQ3V0SGlGcmVxADAuOTUxMjE5NTU5AEZYX1RPTTQvRVFfQ3V0SGlRADAuNzk0NzM2ODYyAEZYX1RPTTQvRVFfQ3V0TG9GcmVxADAARlhfVE9NNC9FUV9DdXRMb1EAMC41AEZYX1RPTTQvRVFfRW5hYmxlADEARlhfVE9NNC9FUV9IaTJGcmVxADAuNzMzNzk3OTA4AEZYX1RPTTQvRVFfSGkyR2FpbgAwLjc5NDczNjgwMwBGWF9UT000L0VRX0hpMlEAMC4zMDk5OTk5NzMARlhfVE9NNC9FUV9IaUZyZXEAMC44Mjk5NzAyNDEARlhfVE9NNC9FUV9IaUdhaW4AMC43MjEwNTI2NDcARlhfVE9NNC9FUV9IaVEAMC4zMjUyNTc1MQBGWF9UT000L0VRX0xvRnJlcQAwLjIzOTk1ODYxNABGWF9UT000L0VRX0xvR2FpbgAwLjU0NjMxNTc4OQBGWF9UT000L0VRX0xvUQAwLjMyNTI1NzUxAEZYX1RPTTQvRVFfTWlkRnJlcQAwLjQ0NDM3MjA4OABGWF9UT000L0VRX01pZEdhaW4AMC4xNjMxNTc4OTUARlhfVE9NNC9FUV9NaWRRADAuNDg1MjU3NTA2AEZYX1RPTTQvRW5hYmxlADEARlhfVE9NNC9FbmFibGVGWAAxAEZYX1RPTTQvR1VJTXV0ZQAwAEZYX1RPTTQvR1VJU29sbwAwAEZYX1RPTTQvSW52ZXJ0ADAARlhfVE9NNC9MZXZlbAAwLjc1ODIwNDUyAEZYX1RPTTQvTXVsdGlGWDEvQ29tcF9BdHRhY2sAMC42NjY3MDAwMDYARlhfVE9NNC9NdWx0aUZYMS9Db21wX0VuYWJsZQAwAEZYX1RPTTQvTXVsdGlGWDEvQ29tcF9SYXRpbwAwLjUARlhfVE9NNC9NdWx0aUZYMS9Db21wX1JlbGVhc2UAMC42MjQxOTk5ODYARlhfVE9NNC9NdWx0aUZYMS9Db21wX1RocmVzaG9sZAAwLjYyNQBGWF9UT000L011bHRpRlgxL0N1cnJlbnRTZWxlY3Rpb24AQ29tcABGWF9UT000L011bHRpRlgxL0Rpc3RfQW1vdW50ADAuMzM2Njg3MjY3AEZYX1RPTTQvTXVsdGlGWDEvRGlzdF9FbmFibGUAMQBGWF9UT000L011bHRpRlgxL0Rpc3RfRnJlcUhpADEARlhfVE9NNC9NdWx0aUZYMS9EaXN0X0ZyZXFMbwAwAEZYX1RPTTQvTXVsdGlGWDEvRGlzdF9NaXgAMQBGWF9UT000L011bHRpRlgxL0Rpc3RfVHlwZQA1AEZYX1RPTTQvTXVsdGlGWDEvRW5hYmxlADEARlhfVE9NNC9NdWx0aUZYMS9MaW1pdGVyX0VuYWJsZQAwAEZYX1RPTTQvTXVsdGlGWDEvTGltaXRlcl9UaHJlc2hvbGQAMC41AEZYX1RPTTQvTXVsdGlGWDEvVGFwZV9BbW91bnQAMC41AEZYX1RPTTQvTXVsdGlGWDEvVGFwZV9Db2xvcgAwAEZYX1RPTTQvTXVsdGlGWDEvVGFwZV9FbmFibGUAMABGWF9UT000L011bHRpRlgxL1RyYW5zaWVudF9BdHRhY2sAMC41AEZYX1RPTTQvTXVsdGlGWDEvVHJhbnNpZW50X0RlY2F5ADAuNQBGWF9UT000L011bHRpRlgxL1RyYW5zaWVudF9FbmFibGUAMABGWF9UT000L011bHRpRlgyL0NvbXBfQXR0YWNrADAuMjAwMDAwMDAzAEZYX1RPTTQvTXVsdGlGWDIvQ29tcF9FbmFibGUAMABGWF9UT000L011bHRpRlgyL0NvbXBfUmF0aW8AMC41AEZYX1RPTTQvTXVsdGlGWDIvQ29tcF9SZWxlYXNlADAuMjAwMDAwMDAzAEZYX1RPTTQvTXVsdGlGWDIvQ29tcF9UaHJlc2hvbGQAMC41AEZYX1RPTTQvTXVsdGlGWDIvQ3VycmVudFNlbGVjdGlvbgBNYXN0ZXIARlhfVE9NNC9NdWx0aUZYMi9EaXN0X0Ftb3VudAAwLjUARlhfVE9NNC9NdWx0aUZYMi9EaXN0X0VuYWJsZQAwAEZYX1RPTTQvTXVsdGlGWDIvRGlzdF9GcmVxSGkAMQBGWF9UT000L011bHRpRlgyL0Rpc3RfRnJlcUxvADAARlhfVE9NNC9NdWx0aUZYMi9EaXN0X01peAAwLjUARlhfVE9NNC9NdWx0aUZYMi9EaXN0X1R5cGUANQBGWF9UT000L011bHRpRlgyL0VuYWJsZQAxAEZYX1RPTTQvTXVsdGlGWDIvTGltaXRlcl9FbmFibGUAMABGWF9UT000L011bHRpRlgyL0xpbWl0ZXJfVGhyZXNob2xkADAuNQBGWF9UT000L011bHRpRlgyL1RhcGVfQW1vdW50ADAuMzQzNjA0MTE4AEZYX1RPTTQvTXVsdGlGWDIvVGFwZV9Db2xvcgAwLjA5MDIzNTc2MjMARlhfVE9NNC9NdWx0aUZYMi9UYXBlX0VuYWJsZQAxAEZYX1RPTTQvTXVsdGlGWDIvVHJhbnNpZW50X0F0dGFjawAwLjQwNTg2OTAwNwBGWF9UT000L011bHRpRlgyL1RyYW5zaWVudF9EZWNheQAxAEZYX1RPTTQvTXVsdGlGWDIvVHJhbnNpZW50X0VuYWJsZQAxAEZYX1RPTTQvTm9pc2VfRGVjYXlUaW1lADAuNQBGWF9UT000L05vaXNlX0VuYWJsZQAwAEZYX1RPTTQvTm9pc2VfR2F0ZUxldmVsADAuNDQ5OTk5OTg4AEZYX1RPTTQvTm9pc2VfTm9pc2VMZXZlbAAwLjUARlhfVE9NNC9Ob2lzZV9Ob2lzZVR5cGUAMABGWF9UT000L091dExldmVsADAuNjQ2NzQyNzAyAEZYX1RPTTQvUGFuX1BhbgAwLjgwNzY5MjI4OQBGWF9UT000L1NlbmQxTGV2ZWwAMC40MzI0NTI3MDgARlhfVE9NNC9TZW5kMkxldmVsADAARlhfVE9NNC9TZW5kQnVzTGV2ZWwAMABGWF9UT000L1NlbmRzX0VuYWJsZQAxAEZYX1RPTTQvU2VuZHNfRW5hYmxlX0ludGVybmFsADEARlhfVE9NNC9TZXBhcmF0ZU91dAAwAEZYX1RPTTQvU2VwYXJhdGVPdXRNb2RlADEARlhfVE9NNC9TZXBhcmF0ZU91dE11dGVNYXN0ZXIAMABGWF9UT000L1NlcGFyYXRlT3V0UG9zdEZhZGVyADAAR2FsbGVyeVBhZ2UAMQBHYWxsZXJ5U2hvd0FsbEV4cGxvcmVNYXBzADAAR2xvYmFsVmVsb2NpdHlSZXNwb25zZQAwLjUAR2xvYmFsVmVsb2NpdHlSZXNwb25zZU1heAAxAEdsb2JhbFZlbG9jaXR5UmVzcG9uc2VNaW4AMABIb3N0TWFya0ZpcnN0QmVhdAAwAEtQU1NlbGVjdGlvbgBGTFgxAExheWVyMS9CZWF0c19TZXNzaW9uX0Zhdm9yaXRlc19MaXN0AHt9AExheWVyMS9CZWF0c19UcmFuc2Zvcm1fQWNjZW50czE2dGgAMC41AExheWVyMS9CZWF0c19UcmFuc2Zvcm1fQWNjZW50czh0aAAwLjUATGF5ZXIxL0JlYXRzX1RyYW5zZm9ybV9BY2NlbnRzRW5hYmxlADEATGF5ZXIxL0JlYXRzX1RyYW5zZm9ybV9Db252ZXJ0TGVuZ3RoADAATGF5ZXIxL0JlYXRzX1RyYW5zZm9ybV9Db252ZXJ0U3BlZWQAMC41AExheWVyMS9CZWF0c19UcmFuc2Zvcm1fRW5hYmxlADEATGF5ZXIxL0JlYXRzX1RyYW5zZm9ybV9GaWx0ZXJFbmFibGUAMABMYXllcjEvQmVhdHNfVHJhbnNmb3JtX0ZpbHRlckhpADEATGF5ZXIxL0JlYXRzX1RyYW5zZm9ybV9GaWx0ZXJMbwAwAExheWVyMS9CZWF0c19UcmFuc2Zvcm1fSW50ZW5zaXR5QW1vdW50ADAuNQBMYXllcjEvQmVhdHNfVHJhbnNmb3JtX0ludGVuc2l0eUVuYWJsZQAxAExheWVyMS9CZWF0c19UcmFuc2Zvcm1fSW50ZW5zaXR5SGkAMC43NQBMYXllcjEvQmVhdHNfVHJhbnNmb3JtX0ludGVuc2l0eUxvADAuMjUATGF5ZXIxL0JlYXRzX1RyYW5zZm9ybV9LcEN0cmxzTWl4ZXJDeUFtdAAwLjUATGF5ZXIxL0JlYXRzX1RyYW5zZm9ybV9LcEN0cmxzTWl4ZXJDeU11dGUAMABMYXllcjEvQmVhdHNfVHJhbnNmb3JtX0twQ3RybHNNaXhlckN5U29sbwAwAExheWVyMS9CZWF0c19UcmFuc2Zvcm1fS3BDdHJsc01peGVyQ3lUcmFucwAwAExheWVyMS9CZWF0c19UcmFuc2Zvcm1fS3BDdHJsc01peGVyRW5hYmxlADEATGF5ZXIxL0JlYXRzX1RyYW5zZm9ybV9LcEN0cmxzTWl4ZXJIaUFtdAAwLjUATGF5ZXIxL0JlYXRzX1RyYW5zZm9ybV9LcEN0cmxzTWl4ZXJIaU11dGUAMABMYXllcjEvQmVhdHNfVHJhbnNmb3JtX0twQ3RybHNNaXhlckhpU29sbwAwAExheWVyMS9CZWF0c19UcmFuc2Zvcm1fS3BDdHJsc01peGVySGlUcmFucwAwAExheWVyMS9CZWF0c19UcmFuc2Zvcm1fS3BDdHJsc01peGVyS2lBbXQAMC41AExheWVyMS9CZWF0c19UcmFuc2Zvcm1fS3BDdHJsc01peGVyS2lNdXRlADAATGF5ZXIxL0JlYXRzX1RyYW5zZm9ybV9LcEN0cmxzTWl4ZXJLaVNvbG8AMABMYXllcjEvQmVhdHNfVHJhbnNmb3JtX0twQ3RybHNNaXhlcktpVHJhbnMAMABMYXllcjEvQmVhdHNfVHJhbnNmb3JtX0twQ3RybHNNaXhlclJpQW10ADAuNQBMYXllcjEvQmVhdHNfVHJhbnNmb3JtX0twQ3RybHNNaXhlclJpQ3Z0AC0ATGF5ZXIxL0JlYXRzX1RyYW5zZm9ybV9LcEN0cmxzTWl4ZXJSaU11dGUAMABMYXllcjEvQmVhdHNfVHJhbnNmb3JtX0twQ3RybHNNaXhlclJpU29sbwAwAExheWVyMS9CZWF0c19UcmFuc2Zvcm1fS3BDdHJsc01peGVyUmlUcmFucwAwAExheWVyMS9CZWF0c19UcmFuc2Zvcm1fS3BDdHJsc01peGVyU25BbXQAMC41AExheWVyMS9CZWF0c19UcmFuc2Zvcm1fS3BDdHJsc01peGVyU25DdnQALQBMYXllcjEvQmVhdHNfVHJhbnNmb3JtX0twQ3RybHNNaXhlclNuTXV0ZQAwAExheWVyMS9CZWF0c19UcmFuc2Zvcm1fS3BDdHJsc01peGVyU25Tb2xvADAATGF5ZXIxL0JlYXRzX1RyYW5zZm9ybV9LcEN0cmxzTWl4ZXJTblRyYW5zADAATGF5ZXIxL0JlYXRzX1RyYW5zZm9ybV9LcEN0cmxzTWl4ZXJUb0FtdAAwLjUATGF5ZXIxL0JlYXRzX1RyYW5zZm9ybV9LcEN0cmxzTWl4ZXJUb011dGUAMABMYXllcjEvQmVhdHNfVHJhbnNmb3JtX0twQ3RybHNNaXhlclRvU29sbwAwAExheWVyMS9CZWF0c19UcmFuc2Zvcm1fS3BDdHJsc01peGVyVG9UcmFucwAwAExheWVyMS9CZWF0c19UcmFuc2Zvcm1fUXVhbnRpemVBbW91bnQAMC41AExheWVyMS9CZWF0c19UcmFuc2Zvcm1fUXVhbnRpemVFbmFibGUAMABMYXllcjEvQmVhdHNfVHJhbnNmb3JtX1F1YW50aXplVGltZQBBdXRvAExheWVyMS9CZWF0c19UcmFuc2Zvcm1fU2xvcHB5RW5hYmxlADEATGF5ZXIxL0JlYXRzX1RyYW5zZm9ybV9TbG9wcHlTZWVkADAATGF5ZXIxL0JlYXRzX1RyYW5zZm9ybV9TbG9wcHlUaW1pbmcAMABMYXllcjEvQmVhdHNfVHJhbnNmb3JtX1Nsb3BweVZlbG9jaXR5ADAATGF5ZXIxL0JlYXRzX1RyYW5zZm9ybV9Td2luZ0Ftb3VudAAwLjUATGF5ZXIxL0JlYXRzX1RyYW5zZm9ybV9Td2luZ0VuYWJsZQAwAExheWVyMS9CZWF0c19XYW50ZWRfR3JpZEtLVmVsMAAxAExheWVyMS9CZWF0c19XYW50ZWRfR3JpZEtLVmVsMQAwAExheWVyMS9CZWF0c19XYW50ZWRfR3JpZEtLVmVsMgAwAExheWVyMS9CZWF0c19XYW50ZWRfR3JpZEtLVmVsMwAwAExheWVyMS9CZWF0c19XYW50ZWRfR3JpZEtLVmVsNAAwAExheWVyMS9CZWF0c19XYW50ZWRfR3JpZEtLVmVsNQAwAExheWVyMS9CZWF0c19XYW50ZWRfR3JpZEtLVmVsNgAwAExheWVyMS9CZWF0c19XYW50ZWRfR3JpZEtLVmVsNwAwAExheWVyMS9CZWF0c19XYW50ZWRfR3JpZEtLVmVsOAAxAExheWVyMS9CZWF0c19XYW50ZWRfR3JpZEtLVmVsOQAwAExheWVyMS9CZWF0c19XYW50ZWRfR3JpZEtLVmVsQQAwAExheWVyMS9CZWF0c19XYW50ZWRfR3JpZEtLVmVsQgAwAExheWVyMS9CZWF0c19XYW50ZWRfR3JpZEtLVmVsQwAwAExheWVyMS9CZWF0c19XYW50ZWRfR3JpZEtLVmVsRAAwAExheWVyMS9CZWF0c19XYW50ZWRfR3JpZEtLVmVsRQAwAExheWVyMS9CZWF0c19XYW50ZWRfR3JpZEtLVmVsRgAwAExheWVyMS9CZWF0c19XYW50ZWRfR3JpZFNOVmVsMAAwAExheWVyMS9CZWF0c19XYW50ZWRfR3JpZFNOVmVsMQAwAExheWVyMS9CZWF0c19XYW50ZWRfR3JpZFNOVmVsMgAwAExheWVyMS9CZWF0c19XYW50ZWRfR3JpZFNOVmVsMwAwAExheWVyMS9CZWF0c19XYW50ZWRfR3JpZFNOVmVsNAAxAExheWVyMS9CZWF0c19XYW50ZWRfR3JpZFNOVmVsNQAwAExheWVyMS9CZWF0c19XYW50ZWRfR3JpZFNOVmVsNgAwAExheWVyMS9CZWF0c19XYW50ZWRfR3JpZFNOVmVsNwAwAExheWVyMS9CZWF0c19XYW50ZWRfR3JpZFNOVmVsOAAwAExheWVyMS9CZWF0c19XYW50ZWRfR3JpZFNOVmVsOQAwAExheWVyMS9CZWF0c19XYW50ZWRfR3JpZFNOVmVsQQAwAExheWVyMS9CZWF0c19XYW50ZWRfR3JpZFNOVmVsQgAwAExheWVyMS9CZWF0c19XYW50ZWRfR3JpZFNOVmVsQwAxAExheWVyMS9CZWF0c19XYW50ZWRfR3JpZFNOVmVsRAAwAExheWVyMS9CZWF0c19XYW50ZWRfR3JpZFNOVmVsRQAwAExheWVyMS9CZWF0c19XYW50ZWRfR3JpZFNOVmVsRgAwAExheWVyMS9Ccm93c2VTZWxlY3Rpb24ARXhwbG9yZQBMYXllcjEvQ3VycmVudFByZXNldElkAGFwcF9fRmFpcmZheCBWb2wgMSAtIEd1aWRpbmcgSGVpZ2h0LkFEMlByZXNldABMYXllcjEvQ3VycmVudFByZXNldE5hbWUARmFpcmZheCBWb2wgMSAtIEd1aWRpbmcgSGVpZ2h0AExheWVyMS9QcmVzZXRNaWRpADRENTQ2ODY0MDAwMDAwMDYwMDAwMDAwMTAxRTA0RDU0NzI2QjAwMDAwMTEzMDBGRjAzMjc0ODY1NjE3Njc5MjA1MjZGNjM2QjIwNDI2NTYxNzQyMDMwMzAzODIwNDg0ODIwNTM2ODYxNjY3NDNFNDg2NTYxNzY3OTIwNTI2RjYzNkIwMEZGNTEwMzBDMEJFMTAwRkY1ODA0MDQwMjE4MDgwMDkwMjQ1MTAwMzQ0RDNBODAyNDQwMDAzNDQwODEzODkwMzQzNzNBODAzNDQwODEzNTkwMjY3MTAxMzQ0RDM5ODAyNjQwMDEzNDQwODEzNDkwMjQ1MjAxMzQ1MjM5ODAyNDQwMDEzNDQwODEyRjkwMzQzRTNBODAzNDQwNDI5MDI0NEUzQTgwMjQ0MDNBOTAzNDM3M0E4MDM0NDA4MTM0OTAyNjczMDQzNDUzMzY4MDI2NDAwNDM0NDA4MTM1OTAzNDNFM0E4MDM0NDA4MTM2OTAyNDQyMDIzNDUyMzg4MDI0NDAwMjM0NDAzODkwMjQ1NTNBODAyNDQwNDE5MDM0NDEzQTgwMzQ0MDgxMzQ5MDI2NzAwMjM0NTIzODgwMjY0MDAyMzQ0MDgxMzg5MDM0NTgwMjI0NDUzODgwMzQ0MDAyMjQ0MDgxMzA5MDM0NDIzQTgwMzQ0MDQ0OTAyNDREM0E4MDI0NDAzODkwMzQzNTNBODAzNDQwODEzOTkwMjY3MzAwMzQ1NTNBODAyNjQwMDAzNDQwODEzNTkwMzQzOTNBODAzNDQwODEzQ0ZGMkYwMABMYXllcjEvUHJlc2V0U2F2ZURlbW8AAExheWVyMS9QcmVzZXRTYXZlSW5mbwAATGF5ZXIxL1ByZXNldFNhdmVOYW1lAEZhaXJmYXggVm9sIDEgLSBHdWlkaW5nIEhlaWdodABMYXllcjEvVmlld1NlbGVjdGlvbgBFZGl0AExpbmtEYgB7IEtJQ0sgPSB7IH0sIFNOQVIgPSB7IA0KIHsgaXNTbmFyZVN5bmMgPSAwLCBub3RlID0gMTAxLCBzdHJva2VUeXBlSWQgPSA3Nywgc3Ryb2tlVHlwZU5hbWUgPSAiSGl0IEEiLCB0b1Nsb3QgPSAiRkxYMyJ9LCANCiB7IGlzU25hcmVTeW5jID0gZmFsc2UsIG5vdGUgPSA0Nywgc25hcmVTeW5jVHlwZSA9ICIiLCBzdHJva2VUeXBlSWQgPSA4LCBzdHJva2VUeXBlTmFtZSA9ICJIaXQgQSIsIHRvU2xvdCA9ICJGTFgxIn0sIA0KIHsgaXNTbmFyZVN5bmMgPSBmYWxzZSwgbm90ZSA9IDk2LCBzbmFyZVN5bmNUeXBlID0gIiIsIHN0cm9rZVR5cGVJZCA9IDczLCBzdHJva2VUeXBlTmFtZSA9ICJIaXQgQSIsIHRvU2xvdCA9ICJGTFgyIn19fQBNaWRpRmlsdGVyTWFwX01BUF9DQ0hpaGF0X0NoaWNrU2Vuc2l0aXZpdHkAMABNaWRpRmlsdGVyTWFwX01BUF9DQ0hpaGF0X1BlZGFsQ29udHJvbGxlck51bWJlcgA0AE1pZGlGaWx0ZXJNYXBfTUFQX0NDSGloYXRfUGVkYWxDb250cm9sbGVyTnVtYmVyMgAxAE1pZGlGaWx0ZXJNYXBfTUFQX0NDSGloYXRfUmV2ZXJzZUlucHV0ADAATWlkaUZpbHRlck1hcF9NQVBfQ0NIaWhhdF9TcGxhc2hTZW5zaXRpdml0eQAwAE1pZGlGaWx0ZXJNYXBfTUFQX0NDSGloYXRfVHJhbnNmb3JtWDEAMC4yNQBNaWRpRmlsdGVyTWFwX01BUF9DQ0hpaGF0X1RyYW5zZm9ybVgyADAuNQBNaWRpRmlsdGVyTWFwX01BUF9DQ0hpaGF0X1RyYW5zZm9ybVgzADAuNjI1AE1pZGlGaWx0ZXJNYXBfTUFQX0NDSGloYXRfVHJhbnNmb3JtWDQAMC43NQBNaWRpRmlsdGVyTWFwX01BUF9DQ0hpaGF0X1RyYW5zZm9ybVg1ADAuODc1AE1pZGlGaWx0ZXJNYXBfTUFQX0NDSGloYXRfVHJhbnNmb3JtWTEAMC4yNQBNaWRpRmlsdGVyTWFwX01BUF9DQ0hpaGF0X1RyYW5zZm9ybVkyADAuNQBNaWRpRmlsdGVyTWFwX01BUF9DQ0hpaGF0X1RyYW5zZm9ybVkzADAuNjI1AE1pZGlGaWx0ZXJNYXBfTUFQX0NDSGloYXRfVHJhbnNmb3JtWTQAMC43NQBNaWRpRmlsdGVyTWFwX01BUF9DQ0hpaGF0X1RyYW5zZm9ybVk1ADAuODc1AE1pZGlGaWx0ZXJNYXBfTUFQX0Nob2tlU3R5bGVfQ3ltMQAxAE1pZGlGaWx0ZXJNYXBfTUFQX0Nob2tlU3R5bGVfQ3ltMgAxAE1pZGlGaWx0ZXJNYXBfTUFQX0Nob2tlU3R5bGVfQ3ltMwAxAE1pZGlGaWx0ZXJNYXBfTUFQX0Nob2tlU3R5bGVfQ3ltNAAxAE1pZGlGaWx0ZXJNYXBfTUFQX0Nob2tlU3R5bGVfQ3ltNQAxAE1pZGlGaWx0ZXJNYXBfTUFQX0Nob2tlU3R5bGVfQ3ltNgAxAE1pZGlGaWx0ZXJNYXBfTUFQX0Nob2tlU3R5bGVfUmlkZTEAMQBNaWRpRmlsdGVyTWFwX01BUF9DaG9rZVN0eWxlX1JpZGUyADEATWlkaUZpbHRlck1hcF9NQVBfR2xvYmFsX1ZlbF9IaQAxAE1pZGlGaWx0ZXJNYXBfTUFQX0dsb2JhbF9WZWxfTG8AMABNaWRpRmlsdGVyTWFwX01BUF9LUFMwMV9UcmFuc2Zvcm1YMQAwLjI1AE1pZGlGaWx0ZXJNYXBfTUFQX0tQUzAxX1RyYW5zZm9ybVgyADAuNzUATWlkaUZpbHRlck1hcF9NQVBfS1BTMDFfVHJhbnNmb3JtWTEAMC4yNQBNaWRpRmlsdGVyTWFwX01BUF9LUFMwMV9UcmFuc2Zvcm1ZMgAwLjc1AE1pZGlGaWx0ZXJNYXBfTUFQX0tQUzAyX1RyYW5zZm9ybVgxADAuMjUATWlkaUZpbHRlck1hcF9NQVBfS1BTMDJfVHJhbnNmb3JtWDIAMC43NQBNaWRpRmlsdGVyTWFwX01BUF9LUFMwMl9UcmFuc2Zvcm1ZMQAwLjI1AE1pZGlGaWx0ZXJNYXBfTUFQX0tQUzAyX1RyYW5zZm9ybVkyADAuNzUATWlkaUZpbHRlck1hcF9NQVBfS1BTMDNfVHJhbnNmb3JtWDEAMC4yNQBNaWRpRmlsdGVyTWFwX01BUF9LUFMwM19UcmFuc2Zvcm1YMgAwLjc1AE1pZGlGaWx0ZXJNYXBfTUFQX0tQUzAzX1RyYW5zZm9ybVkxADAuMjUATWlkaUZpbHRlck1hcF9NQVBfS1BTMDNfVHJhbnNmb3JtWTIAMC43NQBNaWRpRmlsdGVyTWFwX01BUF9LUFMwNF9UcmFuc2Zvcm1YMQAwLjI1AE1pZGlGaWx0ZXJNYXBfTUFQX0tQUzA0X1RyYW5zZm9ybVgyADAuNzUATWlkaUZpbHRlck1hcF9NQVBfS1BTMDRfVHJhbnNmb3JtWTEAMC4yNQBNaWRpRmlsdGVyTWFwX01BUF9LUFMwNF9UcmFuc2Zvcm1ZMgAwLjc1AE1pZGlGaWx0ZXJNYXBfTUFQX0tQUzA1X1RyYW5zZm9ybVgxADAuMjUATWlkaUZpbHRlck1hcF9NQVBfS1BTMDVfVHJhbnNmb3JtWDIAMC43NQBNaWRpRmlsdGVyTWFwX01BUF9LUFMwNV9UcmFuc2Zvcm1ZMQAwLjI1AE1pZGlGaWx0ZXJNYXBfTUFQX0tQUzA1X1RyYW5zZm9ybVkyADAuNzUATWlkaUZpbHRlck1hcF9NQVBfS1BTMDZfVHJhbnNmb3JtWDEAMC4yNQBNaWRpRmlsdGVyTWFwX01BUF9LUFMwNl9UcmFuc2Zvcm1YMgAwLjc1AE1pZGlGaWx0ZXJNYXBfTUFQX0tQUzA2X1RyYW5zZm9ybVkxADAuMjUATWlkaUZpbHRlck1hcF9NQVBfS1BTMDZfVHJhbnNmb3JtWTIAMC43NQBNaWRpRmlsdGVyTWFwX01BUF9LUFMwN19UcmFuc2Zvcm1YMQAwLjI1AE1pZGlGaWx0ZXJNYXBfTUFQX0tQUzA3X1RyYW5zZm9ybVgyADAuNzUATWlkaUZpbHRlck1hcF9NQVBfS1BTMDdfVHJhbnNmb3JtWTEAMC4yNQBNaWRpRmlsdGVyTWFwX01BUF9LUFMwN19UcmFuc2Zvcm1ZMgAwLjc1AE1pZGlGaWx0ZXJNYXBfTUFQX0tQUzA4X1RyYW5zZm9ybVgxADAuMjUATWlkaUZpbHRlck1hcF9NQVBfS1BTMDhfVHJhbnNmb3JtWDIAMC43NQBNaWRpRmlsdGVyTWFwX01BUF9LUFMwOF9UcmFuc2Zvcm1ZMQAwLjI1AE1pZGlGaWx0ZXJNYXBfTUFQX0tQUzA4X1RyYW5zZm9ybVkyADAuNzUATWlkaUZpbHRlck1hcF9NQVBfS1BTMDlfVHJhbnNmb3JtWDEAMC4yNQBNaWRpRmlsdGVyTWFwX01BUF9LUFMwOV9UcmFuc2Zvcm1YMgAwLjc1AE1pZGlGaWx0ZXJNYXBfTUFQX0tQUzA5X1RyYW5zZm9ybVkxADAuMjUATWlkaUZpbHRlck1hcF9NQVBfS1BTMDlfVHJhbnNmb3JtWTIAMC43NQBNaWRpRmlsdGVyTWFwX01BUF9LUFMxMF9UcmFuc2Zvcm1YMQAwLjI1AE1pZGlGaWx0ZXJNYXBfTUFQX0tQUzEwX1RyYW5zZm9ybVgyADAuNzUATWlkaUZpbHRlck1hcF9NQVBfS1BTMTBfVHJhbnNmb3JtWTEAMC4yNQBNaWRpRmlsdGVyTWFwX01BUF9LUFMxMF9UcmFuc2Zvcm1ZMgAwLjc1AE1pZGlGaWx0ZXJNYXBfTUFQX0tQUzExX1RyYW5zZm9ybVgxADAuMjUATWlkaUZpbHRlck1hcF9NQVBfS1BTMTFfVHJhbnNmb3JtWDIAMC43NQBNaWRpRmlsdGVyTWFwX01BUF9LUFMxMV9UcmFuc2Zvcm1ZMQAwLjI1AE1pZGlGaWx0ZXJNYXBfTUFQX0tQUzExX1RyYW5zZm9ybVkyADAuNzUATWlkaUZpbHRlck1hcF9NQVBfS1BTMTJfVHJhbnNmb3JtWDEAMC4yNQBNaWRpRmlsdGVyTWFwX01BUF9LUFMxMl9UcmFuc2Zvcm1YMgAwLjc1AE1pZGlGaWx0ZXJNYXBfTUFQX0tQUzEyX1RyYW5zZm9ybVkxADAuMjUATWlkaUZpbHRlck1hcF9NQVBfS1BTMTJfVHJhbnNmb3JtWTIAMC43NQBNaWRpRmlsdGVyTWFwX01BUF9LUFMxM19UcmFuc2Zvcm1YMQAwLjI1AE1pZGlGaWx0ZXJNYXBfTUFQX0tQUzEzX1RyYW5zZm9ybVgyADAuNzUATWlkaUZpbHRlck1hcF9NQVBfS1BTMTNfVHJhbnNmb3JtWTEAMC4yNQBNaWRpRmlsdGVyTWFwX01BUF9LUFMxM19UcmFuc2Zvcm1ZMgAwLjc1AE1pZGlGaWx0ZXJNYXBfTUFQX0tQUzE0X1RyYW5zZm9ybVgxADAuMjUATWlkaUZpbHRlck1hcF9NQVBfS1BTMTRfVHJhbnNmb3JtWDIAMC43NQBNaWRpRmlsdGVyTWFwX01BUF9LUFMxNF9UcmFuc2Zvcm1ZMQAwLjI1AE1pZGlGaWx0ZXJNYXBfTUFQX0tQUzE0X1RyYW5zZm9ybVkyADAuNzUATWlkaUZpbHRlck1hcF9NQVBfS1BTMTVfVHJhbnNmb3JtWDEAMC4yNQBNaWRpRmlsdGVyTWFwX01BUF9LUFMxNV9UcmFuc2Zvcm1YMgAwLjc1AE1pZGlGaWx0ZXJNYXBfTUFQX0tQUzE1X1RyYW5zZm9ybVkxADAuMjUATWlkaUZpbHRlck1hcF9NQVBfS1BTMTVfVHJhbnNmb3JtWTIAMC43NQBNaWRpRmlsdGVyTWFwX01BUF9LUFMxNl9UcmFuc2Zvcm1YMQAwLjI1AE1pZGlGaWx0ZXJNYXBfTUFQX0tQUzE2X1RyYW5zZm9ybVgyADAuNzUATWlkaUZpbHRlck1hcF9NQVBfS1BTMTZfVHJhbnNmb3JtWTEAMC4yNQBNaWRpRmlsdGVyTWFwX01BUF9LUFMxNl9UcmFuc2Zvcm1ZMgAwLjc1AE1pZGlGaWx0ZXJNYXBfTUFQX0tQUzE3X1RyYW5zZm9ybVgxADAuMjUATWlkaUZpbHRlck1hcF9NQVBfS1BTMTdfVHJhbnNmb3JtWDIAMC43NQBNaWRpRmlsdGVyTWFwX01BUF9LUFMxN19UcmFuc2Zvcm1ZMQAwLjI1AE1pZGlGaWx0ZXJNYXBfTUFQX0tQUzE3X1RyYW5zZm9ybVkyADAuNzUATWlkaUZpbHRlck1hcF9NQVBfS1BTMThfVHJhbnNmb3JtWDEAMC4yNQBNaWRpRmlsdGVyTWFwX01BUF9LUFMxOF9UcmFuc2Zvcm1YMgAwLjc1AE1pZGlGaWx0ZXJNYXBfTUFQX0tQUzE4X1RyYW5zZm9ybVkxADAuMjUATWlkaUZpbHRlck1hcF9NQVBfS1BTMThfVHJhbnNmb3JtWTIAMC43NQBNaWRpRmlsdGVyTWFwX01BUF9LZXlNYXBfMDAwADAATWlkaUZpbHRlck1hcF9NQVBfS2V5TWFwXzAwMQAwAE1pZGlGaWx0ZXJNYXBfTUFQX0tleU1hcF8wMDIAMABNaWRpRmlsdGVyTWFwX01BUF9LZXlNYXBfMDAzADY2AE1pZGlGaWx0ZXJNYXBfTUFQX0tleU1hcF8wMDQANDQATWlkaUZpbHRlck1hcF9NQVBfS2V5TWFwXzAwNQA0MwBNaWRpRmlsdGVyTWFwX01BUF9LZXlNYXBfMDA2ADQyAE1pZGlGaWx0ZXJNYXBfTUFQX0tleU1hcF8wMDcANDcATWlkaUZpbHRlck1hcF9NQVBfS2V5TWFwXzAwOAA0OABNaWRpRmlsdGVyTWFwX01BUF9LZXlNYXBfMDA5ADQ2AE1pZGlGaWx0ZXJNYXBfTUFQX0tleU1hcF8wMTAAMABNaWRpRmlsdGVyTWFwX01BUF9LZXlNYXBfMDExADAATWlkaUZpbHRlck1hcF9NQVBfS2V5TWFwXzAxMgAwAE1pZGlGaWx0ZXJNYXBfTUFQX0tleU1hcF8wMTMAMABNaWRpRmlsdGVyTWFwX01BUF9LZXlNYXBfMDE0ADAATWlkaUZpbHRlck1hcF9NQVBfS2V5TWFwXzAxNQAwAE1pZGlGaWx0ZXJNYXBfTUFQX0tleU1hcF8wMTYAMABNaWRpRmlsdGVyTWFwX01BUF9LZXlNYXBfMDE3ADAATWlkaUZpbHRlck1hcF9NQVBfS2V5TWFwXzAxOAAwAE1pZGlGaWx0ZXJNYXBfTUFQX0tleU1hcF8wMTkAMABNaWRpRmlsdGVyTWFwX01BUF9LZXlNYXBfMDIwADAATWlkaUZpbHRlck1hcF9NQVBfS2V5TWFwXzAyMQAwAE1pZGlGaWx0ZXJNYXBfTUFQX0tleU1hcF8wMjIAMABNaWRpRmlsdGVyTWFwX01BUF9LZXlNYXBfMDIzADAATWlkaUZpbHRlck1hcF9NQVBfS2V5TWFwXzAyNAAwAE1pZGlGaWx0ZXJNYXBfTUFQX0tleU1hcF8wMjUAMABNaWRpRmlsdGVyTWFwX01BUF9LZXlNYXBfMDI2ADU4AE1pZGlGaWx0ZXJNYXBfTUFQX0tleU1hcF8wMjcAMABNaWRpRmlsdGVyTWFwX01BUF9LZXlNYXBfMDI4ADU3AE1pZGlGaWx0ZXJNYXBfTUFQX0tleU1hcF8wMjkANTYATWlkaUZpbHRlck1hcF9NQVBfS2V5TWFwXzAzMAA1NQBNaWRpRmlsdGVyTWFwX01BUF9LZXlNYXBfMDMxADU0AE1pZGlGaWx0ZXJNYXBfTUFQX0tleU1hcF8wMzIANTMATWlkaUZpbHRlck1hcF9NQVBfS2V5TWFwXzAzMwA1MgBNaWRpRmlsdGVyTWFwX01BUF9LZXlNYXBfMDM0ADUxAE1pZGlGaWx0ZXJNYXBfTUFQX0tleU1hcF8wMzUANTAATWlkaUZpbHRlck1hcF9NQVBfS2V5TWFwXzAzNgAxAE1pZGlGaWx0ZXJNYXBfTUFQX0tleU1hcF8wMzcAMgBNaWRpRmlsdGVyTWFwX01BUF9LZXlNYXBfMDM4ADMATWlkaUZpbHRlck1hcF9NQVBfS2V5TWFwXzAzOQA0MABNaWRpRmlsdGVyTWFwX01BUF9LZXlNYXBfMDQwADQxAE1pZGlGaWx0ZXJNYXBfTUFQX0tleU1hcF8wNDEANABNaWRpRmlsdGVyTWFwX01BUF9LZXlNYXBfMDQyADUATWlkaUZpbHRlck1hcF9NQVBfS2V5TWFwXzA0MwA2AE1pZGlGaWx0ZXJNYXBfTUFQX0tleU1hcF8wNDQANwBNaWRpRmlsdGVyTWFwX01BUF9LZXlNYXBfMDQ1ADIxAE1pZGlGaWx0ZXJNYXBfTUFQX0tleU1hcF8wNDYAMzQATWlkaUZpbHRlck1hcF9NQVBfS2V5TWFwXzA0NwA4AE1pZGlGaWx0ZXJNYXBfTUFQX0tleU1hcF8wNDgAOQBNaWRpRmlsdGVyTWFwX01BUF9LZXlNYXBfMDQ5ADEwAE1pZGlGaWx0ZXJNYXBfTUFQX0tleU1hcF8wNTAAMTEATWlkaUZpbHRlck1hcF9NQVBfS2V5TWFwXzA1MQAxMgBNaWRpRmlsdGVyTWFwX01BUF9LZXlNYXBfMDUyADEzAE1pZGlGaWx0ZXJNYXBfTUFQX0tleU1hcF8wNTMAMTQATWlkaUZpbHRlck1hcF9NQVBfS2V5TWFwXzA1NAAxNQBNaWRpRmlsdGVyTWFwX01BUF9LZXlNYXBfMDU1ADE2AE1pZGlGaWx0ZXJNYXBfTUFQX0tleU1hcF8wNTYAMTcATWlkaUZpbHRlck1hcF9NQVBfS2V5TWFwXzA1NwAxOABNaWRpRmlsdGVyTWFwX01BUF9LZXlNYXBfMDU4ADE5AE1pZGlGaWx0ZXJNYXBfTUFQX0tleU1hcF8wNTkAMjAATWlkaUZpbHRlck1hcF9NQVBfS2V5TWFwXzA2MAAyMQBNaWRpRmlsdGVyTWFwX01BUF9LZXlNYXBfMDYxADIyAE1pZGlGaWx0ZXJNYXBfTUFQX0tleU1hcF8wNjIAMjMATWlkaUZpbHRlck1hcF9NQVBfS2V5TWFwXzA2MwAyNABNaWRpRmlsdGVyTWFwX01BUF9LZXlNYXBfMDY0ADAATWlkaUZpbHRlck1hcF9NQVBfS2V5TWFwXzA2NQAyNQBNaWRpRmlsdGVyTWFwX01BUF9LZXlNYXBfMDY2ADI2AE1pZGlGaWx0ZXJNYXBfTUFQX0tleU1hcF8wNjcAMjcATWlkaUZpbHRlck1hcF9NQVBfS2V5TWFwXzA2OAAyOABNaWRpRmlsdGVyTWFwX01BUF9LZXlNYXBfMDY5ADI5AE1pZGlGaWx0ZXJNYXBfTUFQX0tleU1hcF8wNzAAMzAATWlkaUZpbHRlck1hcF9NQVBfS2V5TWFwXzA3MQAzMQBNaWRpRmlsdGVyTWFwX01BUF9LZXlNYXBfMDcyADMyAE1pZGlGaWx0ZXJNYXBfTUFQX0tleU1hcF8wNzMANTkATWlkaUZpbHRlck1hcF9NQVBfS2V5TWFwXzA3NAA2MABNaWRpRmlsdGVyTWFwX01BUF9LZXlNYXBfMDc1ADMzAE1pZGlGaWx0ZXJNYXBfTUFQX0tleU1hcF8wNzYANjEATWlkaUZpbHRlck1hcF9NQVBfS2V5TWFwXzA3NwAzNABNaWRpRmlsdGVyTWFwX01BUF9LZXlNYXBfMDc4ADM1AE1pZGlGaWx0ZXJNYXBfTUFQX0tleU1hcF8wNzkAMzYATWlkaUZpbHRlck1hcF9NQVBfS2V5TWFwXzA4MAAzNwBNaWRpRmlsdGVyTWFwX01BUF9LZXlNYXBfMDgxADM4AE1pZGlGaWx0ZXJNYXBfTUFQX0tleU1hcF8wODIAMzkATWlkaUZpbHRlck1hcF9NQVBfS2V5TWFwXzA4MwAwAE1pZGlGaWx0ZXJNYXBfTUFQX0tleU1hcF8wODQANjIATWlkaUZpbHRlck1hcF9NQVBfS2V5TWFwXzA4NQA2MwBNaWRpRmlsdGVyTWFwX01BUF9LZXlNYXBfMDg2ADY0AE1pZGlGaWx0ZXJNYXBfTUFQX0tleU1hcF8wODcANjUATWlkaUZpbHRlck1hcF9NQVBfS2V5TWFwXzA4OAAwAE1pZGlGaWx0ZXJNYXBfTUFQX0tleU1hcF8wODkANjcATWlkaUZpbHRlck1hcF9NQVBfS2V5TWFwXzA5MAA2OABNaWRpRmlsdGVyTWFwX01BUF9LZXlNYXBfMDkxADY5AE1pZGlGaWx0ZXJNYXBfTUFQX0tleU1hcF8wOTIANzAATWlkaUZpbHRlck1hcF9NQVBfS2V5TWFwXzA5MwA3MQBNaWRpRmlsdGVyTWFwX01BUF9LZXlNYXBfMDk0ADcyAE1pZGlGaWx0ZXJNYXBfTUFQX0tleU1hcF8wOTUAMABNaWRpRmlsdGVyTWFwX01BUF9LZXlNYXBfMDk2ADczAE1pZGlGaWx0ZXJNYXBfTUFQX0tleU1hcF8wOTcANzQATWlkaUZpbHRlck1hcF9NQVBfS2V5TWFwXzA5OAA3NQBNaWRpRmlsdGVyTWFwX01BUF9LZXlNYXBfMDk5ADc2AE1pZGlGaWx0ZXJNYXBfTUFQX0tleU1hcF8xMDAAMABNaWRpRmlsdGVyTWFwX01BUF9LZXlNYXBfMTAxADc3AE1pZGlGaWx0ZXJNYXBfTUFQX0tleU1hcF8xMDIANzgATWlkaUZpbHRlck1hcF9NQVBfS2V5TWFwXzEwMwA3OQBNaWRpRmlsdGVyTWFwX01BUF9LZXlNYXBfMTA0ADgwAE1pZGlGaWx0ZXJNYXBfTUFQX0tleU1hcF8xMDUAMABNaWRpRmlsdGVyTWFwX01BUF9LZXlNYXBfMTA2ADAATWlkaUZpbHRlck1hcF9NQVBfS2V5TWFwXzEwNwAwAE1pZGlGaWx0ZXJNYXBfTUFQX0tleU1hcF8xMDgAMABNaWRpRmlsdGVyTWFwX01BUF9LZXlNYXBfMTA5ADAATWlkaUZpbHRlck1hcF9NQVBfS2V5TWFwXzExMAAwAE1pZGlGaWx0ZXJNYXBfTUFQX0tleU1hcF8xMTEAMABNaWRpRmlsdGVyTWFwX01BUF9LZXlNYXBfMTEyADAATWlkaUZpbHRlck1hcF9NQVBfS2V5TWFwXzExMwAwAE1pZGlGaWx0ZXJNYXBfTUFQX0tleU1hcF8xMTQAMABNaWRpRmlsdGVyTWFwX01BUF9LZXlNYXBfMTE1ADAATWlkaUZpbHRlck1hcF9NQVBfS2V5TWFwXzExNgAwAE1pZGlGaWx0ZXJNYXBfTUFQX0tleU1hcF8xMTcAMABNaWRpRmlsdGVyTWFwX01BUF9LZXlNYXBfMTE4ADAATWlkaUZpbHRlck1hcF9NQVBfS2V5TWFwXzExOQAwAE1pZGlGaWx0ZXJNYXBfTUFQX0tleU1hcF8xMjAAMABNaWRpRmlsdGVyTWFwX01BUF9LZXlNYXBfMTIxADAATWlkaUZpbHRlck1hcF9NQVBfS2V5TWFwXzEyMgAwAE1pZGlGaWx0ZXJNYXBfTUFQX0tleU1hcF8xMjMAMABNaWRpRmlsdGVyTWFwX01BUF9LZXlNYXBfMTI0ADAATWlkaUZpbHRlck1hcF9NQVBfS2V5TWFwXzEyNQAwAE1pZGlGaWx0ZXJNYXBfTUFQX0tleU1hcF8xMjYAMABNaWRpRmlsdGVyTWFwX01BUF9LZXlNYXBfMTI3ADAATWlkaUZpbHRlck1hcF9NQVBfUG9zUmlkZTFfQ29udHJvbGxlck51bWJlcgAxNwBNaWRpRmlsdGVyTWFwX01BUF9Qb3NSaWRlMV9SZXZlcnNlSW5wdXQAMABNaWRpRmlsdGVyTWFwX01BUF9Qb3NSaWRlMV9UcmFuc2l0aW9uUmFuZ2VIaQAxAE1pZGlGaWx0ZXJNYXBfTUFQX1Bvc1JpZGUxX1RyYW5zaXRpb25SYW5nZUxvADAATWlkaUZpbHRlck1hcF9NQVBfUG9zUmlkZTFfVmVsQ29tcAAwLjUATWlkaUZpbHRlck1hcF9NQVBfUG9zUmlkZTJfQ29udHJvbGxlck51bWJlcgAxOABNaWRpRmlsdGVyTWFwX01BUF9Qb3NSaWRlMl9SZXZlcnNlSW5wdXQAMABNaWRpRmlsdGVyTWFwX01BUF9Qb3NSaWRlMl9UcmFuc2l0aW9uUmFuZ2VIaQAxAE1pZGlGaWx0ZXJNYXBfTUFQX1Bvc1JpZGUyX1RyYW5zaXRpb25SYW5nZUxvADAATWlkaUZpbHRlck1hcF9NQVBfUG9zUmlkZTJfVmVsQ29tcAAwLjUATWlkaUZpbHRlck1hcF9NQVBfUG9zU25hcmVfQ29udHJvbGxlck51bWJlcgAxNgBNaWRpRmlsdGVyTWFwX01BUF9Qb3NTbmFyZV9SZXZlcnNlSW5wdXQAMABNaWRpRmlsdGVyTWFwX01BUF9Qb3NTbmFyZV9UcmFuc2l0aW9uUmFuZ2VIaQAxAE1pZGlGaWx0ZXJNYXBfTUFQX1Bvc1NuYXJlX1RyYW5zaXRpb25SYW5nZUxvADAATWlkaUZpbHRlck1hcF9NQVBfUG9zU25hcmVfVmVsQ29tcAAwLjUATWlkaUZpbHRlck1hcF9NQVBfU1QwMDBfVmVsX01vZGlmaWVyADAATWlkaUZpbHRlck1hcF9NQVBfU1QwMDFfVmVsX01vZGlmaWVyADAuNQBNaWRpRmlsdGVyTWFwX01BUF9TVDAwMl9WZWxfTW9kaWZpZXIAMC41AE1pZGlGaWx0ZXJNYXBfTUFQX1NUMDAzX1ZlbF9Nb2RpZmllcgAwLjUATWlkaUZpbHRlck1hcF9NQVBfU1QwMDRfVmVsX01vZGlmaWVyADAuNQBNaWRpRmlsdGVyTWFwX01BUF9TVDAwNV9WZWxfTW9kaWZpZXIAMC41AE1pZGlGaWx0ZXJNYXBfTUFQX1NUMDA2X1ZlbF9Nb2RpZmllcgAwLjUATWlkaUZpbHRlck1hcF9NQVBfU1QwMDdfVmVsX01vZGlmaWVyADAuNQBNaWRpRmlsdGVyTWFwX01BUF9TVDAwOF9WZWxfTW9kaWZpZXIAMC41AE1pZGlGaWx0ZXJNYXBfTUFQX1NUMDA5X1ZlbF9Nb2RpZmllcgAwLjUATWlkaUZpbHRlck1hcF9NQVBfU1QwMTBfVmVsX01vZGlmaWVyADAuNQBNaWRpRmlsdGVyTWFwX01BUF9TVDAxMV9WZWxfTW9kaWZpZXIAMC41AE1pZGlGaWx0ZXJNYXBfTUFQX1NUMDEyX1ZlbF9Nb2RpZmllcgAwLjUATWlkaUZpbHRlck1hcF9NQVBfU1QwMTNfVmVsX01vZGlmaWVyADAuNQBNaWRpRmlsdGVyTWFwX01BUF9TVDAxNF9WZWxfTW9kaWZpZXIAMC41AE1pZGlGaWx0ZXJNYXBfTUFQX1NUMDE1X1ZlbF9Nb2RpZmllcgAwLjUATWlkaUZpbHRlck1hcF9NQVBfU1QwMTZfVmVsX01vZGlmaWVyADAuNQBNaWRpRmlsdGVyTWFwX01BUF9TVDAxN19WZWxfTW9kaWZpZXIAMC41AE1pZGlGaWx0ZXJNYXBfTUFQX1NUMDE4X1ZlbF9Nb2RpZmllcgAwLjUATWlkaUZpbHRlck1hcF9NQVBfU1QwMTlfVmVsX01vZGlmaWVyADAuNQBNaWRpRmlsdGVyTWFwX01BUF9TVDAyMF9WZWxfTW9kaWZpZXIAMC41AE1pZGlGaWx0ZXJNYXBfTUFQX1NUMDIxX1ZlbF9Nb2RpZmllcgAwLjUATWlkaUZpbHRlck1hcF9NQVBfU1QwMjJfVmVsX01vZGlmaWVyADAuNQBNaWRpRmlsdGVyTWFwX01BUF9TVDAyM19WZWxfTW9kaWZpZXIAMC41AE1pZGlGaWx0ZXJNYXBfTUFQX1NUMDI0X1ZlbF9Nb2RpZmllcgAwLjUATWlkaUZpbHRlck1hcF9NQVBfU1QwMjVfVmVsX01vZGlmaWVyADAuNQBNaWRpRmlsdGVyTWFwX01BUF9TVDAyNl9WZWxfTW9kaWZpZXIAMC41AE1pZGlGaWx0ZXJNYXBfTUFQX1NUMDI3X1ZlbF9Nb2RpZmllcgAwLjUATWlkaUZpbHRlck1hcF9NQVBfU1QwMjhfVmVsX01vZGlmaWVyADAuNQBNaWRpRmlsdGVyTWFwX01BUF9TVDAyOV9WZWxfTW9kaWZpZXIAMC41AE1pZGlGaWx0ZXJNYXBfTUFQX1NUMDMwX1ZlbF9Nb2RpZmllcgAwLjUATWlkaUZpbHRlck1hcF9NQVBfU1QwMzFfVmVsX01vZGlmaWVyADAuNQBNaWRpRmlsdGVyTWFwX01BUF9TVDAzMl9WZWxfTW9kaWZpZXIAMC41AE1pZGlGaWx0ZXJNYXBfTUFQX1NUMDMzX1ZlbF9Nb2RpZmllcgAwLjUATWlkaUZpbHRlck1hcF9NQVBfU1QwMzRfVmVsX01vZGlmaWVyADAuNQBNaWRpRmlsdGVyTWFwX01BUF9TVDAzNV9WZWxfTW9kaWZpZXIAMC41AE1pZGlGaWx0ZXJNYXBfTUFQX1NUMDM2X1ZlbF9Nb2RpZmllcgAwLjUATWlkaUZpbHRlck1hcF9NQVBfU1QwMzdfVmVsX01vZGlmaWVyADAuNQBNaWRpRmlsdGVyTWFwX01BUF9TVDAzOF9WZWxfTW9kaWZpZXIAMC41AE1pZGlGaWx0ZXJNYXBfTUFQX1NUMDM5X1ZlbF9Nb2RpZmllcgAwLjUATWlkaUZpbHRlck1hcF9NQVBfU1QwNDBfVmVsX01vZGlmaWVyADAuNQBNaWRpRmlsdGVyTWFwX01BUF9TVDA0MV9WZWxfTW9kaWZpZXIAMC41AE1pZGlGaWx0ZXJNYXBfTUFQX1NUMDQyX1ZlbF9Nb2RpZmllcgAwLjUATWlkaUZpbHRlck1hcF9NQVBfU1QwNDNfVmVsX01vZGlmaWVyADAuNQBNaWRpRmlsdGVyTWFwX01BUF9TVDA0NF9WZWxfTW9kaWZpZXIAMC41AE1pZGlGaWx0ZXJNYXBfTUFQX1NUMDQ1X1ZlbF9Nb2RpZmllcgAwLjUATWlkaUZpbHRlck1hcF9NQVBfU1QwNDZfVmVsX01vZGlmaWVyADAuNQBNaWRpRmlsdGVyTWFwX01BUF9TVDA0N19WZWxfTW9kaWZpZXIAMC41AE1pZGlGaWx0ZXJNYXBfTUFQX1NUMDQ4X1ZlbF9Nb2RpZmllcgAwLjUATWlkaUZpbHRlck1hcF9NQVBfU1QwNDlfVmVsX01vZGlmaWVyADAuNQBNaWRpRmlsdGVyTWFwX01BUF9TVDA1MF9WZWxfTW9kaWZpZXIAMC41AE1pZGlGaWx0ZXJNYXBfTUFQX1NUMDUxX1ZlbF9Nb2RpZmllcgAwLjUATWlkaUZpbHRlck1hcF9NQVBfU1QwNTJfVmVsX01vZGlmaWVyADAuNQBNaWRpRmlsdGVyTWFwX01BUF9TVDA1M19WZWxfTW9kaWZpZXIAMC41AE1pZGlGaWx0ZXJNYXBfTUFQX1NUMDU0X1ZlbF9Nb2RpZmllcgAwLjUATWlkaUZpbHRlck1hcF9NQVBfU1QwNTVfVmVsX01vZGlmaWVyADAuNQBNaWRpRmlsdGVyTWFwX01BUF9TVDA1Nl9WZWxfTW9kaWZpZXIAMC41AE1pZGlGaWx0ZXJNYXBfTUFQX1NUMDU3X1ZlbF9Nb2RpZmllcgAwLjUATWlkaUZpbHRlck1hcF9NQVBfU1QwNThfVmVsX01vZGlmaWVyADAuNQBNaWRpRmlsdGVyTWFwX01BUF9TVDA1OV9WZWxfTW9kaWZpZXIAMC41AE1pZGlGaWx0ZXJNYXBfTUFQX1NUMDYwX1ZlbF9Nb2RpZmllcgAwLjUATWlkaUZpbHRlck1hcF9NQVBfU1QwNjFfVmVsX01vZGlmaWVyADAuNQBNaWRpRmlsdGVyTWFwX01BUF9TVDA2Ml9WZWxfTW9kaWZpZXIAMC41AE1pZGlGaWx0ZXJNYXBfTUFQX1NUMDYzX1ZlbF9Nb2RpZmllcgAwLjUATWlkaUZpbHRlck1hcF9NQVBfU1QwNjRfVmVsX01vZGlmaWVyADAuNQBNaWRpRmlsdGVyTWFwX01BUF9TVDA2NV9WZWxfTW9kaWZpZXIAMC41AE1pZGlGaWx0ZXJNYXBfTUFQX1NUMDY2X1ZlbF9Nb2RpZmllcgAwLjUATWlkaUZpbHRlck1hcF9NQVBfU1QwNjdfVmVsX01vZGlmaWVyADAuNQBNaWRpRmlsdGVyTWFwX01BUF9TVDA2OF9WZWxfTW9kaWZpZXIAMC41AE1pZGlGaWx0ZXJNYXBfTUFQX1NUMDY5X1ZlbF9Nb2RpZmllcgAwLjUATWlkaUZpbHRlck1hcF9NQVBfU1QwNzBfVmVsX01vZGlmaWVyADAuNQBNaWRpRmlsdGVyTWFwX01BUF9TVDA3MV9WZWxfTW9kaWZpZXIAMC41AE1pZGlGaWx0ZXJNYXBfTUFQX1NUMDcyX1ZlbF9Nb2RpZmllcgAwLjUATWlkaUZpbHRlck1hcF9NQVBfU1QwNzNfVmVsX01vZGlmaWVyADAuNQBNaWRpRmlsdGVyTWFwX01BUF9TVDA3NF9WZWxfTW9kaWZpZXIAMC41AE1pZGlGaWx0ZXJNYXBfTUFQX1NUMDc1X1ZlbF9Nb2RpZmllcgAwLjUATWlkaUZpbHRlck1hcF9NQVBfU1QwNzZfVmVsX01vZGlmaWVyADAuNQBNaWRpRmlsdGVyTWFwX01BUF9TVDA3N19WZWxfTW9kaWZpZXIAMC41AE1pZGlGaWx0ZXJNYXBfTUFQX1NUMDc4X1ZlbF9Nb2RpZmllcgAwLjUATWlkaUZpbHRlck1hcF9NQVBfU1QwNzlfVmVsX01vZGlmaWVyADAuNQBNaWRpRmlsdGVyTWFwX01BUF9TVDA4MF9WZWxfTW9kaWZpZXIAMC41AE1pZGlQbGF5ZXJIb3N0U3luY1N0YXJ0U3RvcEdVSQAwAFByZXNldEJyb3dzZXJGaWx0ZXIAQWxsIFByZXNldHMAUHJlc2V0QnJvd3NlckZpbHRlclRleHQAAFByZXNldEJyb3dzZXJTb3J0T3JkZXIAMABQcmVzZXRDYXRlZ29yeVNhdmUAQWNvdXN0aWMAU2FtcGxlcl9DWU0xX0FtcEVudl9BdHRhY2sAMABTYW1wbGVyX0NZTTFfQW1wRW52X0F0dGFja0N1cnZlADAuNQBTYW1wbGVyX0NZTTFfQW1wRW52X0RlY2F5ADAAU2FtcGxlcl9DWU0xX0FtcEVudl9EZWNheUN1cnZlADAuMDMxMTIyOABTYW1wbGVyX0NZTTFfQW1wRW52X0VuYWJsZQAwAFNhbXBsZXJfQ1lNMV9BbXBFbnZfUmVsZWFzZQAwLjY5MzcwODY1OABTYW1wbGVyX0NZTTFfQW1wRW52X1JlbGVhc2VDdXJ2ZQAwLjAzMTEyMjgAU2FtcGxlcl9DWU0xX0FtcEVudl9TdXN0YWluSG9sZAAwLjkwNjk5NDQwMgBTYW1wbGVyX0NZTTFfQW1wRW52X1N1c3RhaW5MZXZlbAAxAFNhbXBsZXJfQ1lNMV9BbXBFbnZfVmVsMkF0dGFjawAwAFNhbXBsZXJfQ1lNMV9DdXJyZW50RW52RW5hYmxlADEAU2FtcGxlcl9DWU0xX0N1cnJlbnRFbnZTZWxlY3Rpb24AUGl0Y2hFbnYAU2FtcGxlcl9DWU0xX0VRX0Vudl9DdXJ2ZQAwLjAzMTEyMjgAU2FtcGxlcl9DWU0xX0VRX0Vudl9Jbml0aWFsTGV2ZWwAMC43MTQyODU3MzEAU2FtcGxlcl9DWU0xX0VRX0Vudl9SZWxlYXNlTGV2ZWwAMC43MTQyODU3MzEAU2FtcGxlcl9DWU0xX0VRX0Vudl9SZWxlYXNlVGltZQAwAFNhbXBsZXJfQ1lNMV9FbnZGaWx0ZXJzRW5hYmxlADEAU2FtcGxlcl9DWU0xX0ZpbHRlckhpTG9fRW5hYmxlADAAU2FtcGxlcl9DWU0xX0ZpbHRlckhpTG9fSGlGcmVxADEAU2FtcGxlcl9DWU0xX0ZpbHRlckhpTG9fTG9GcmVxADAAU2FtcGxlcl9DWU0xX0tpdFBpZWNlU2VsZWN0aW9uADEwMDkwNABTYW1wbGVyX0NZTTFfTGV2ZWwAMC43NTc5ODIzMTQAU2FtcGxlcl9DWU0xX01pY0JhbGFuY2UAMC41AFNhbXBsZXJfQ1lNMV9NdXRlADAAU2FtcGxlcl9DWU0xX09IX0ludmVydAAwAFNhbXBsZXJfQ1lNMV9PSF9MZXZlbAAwLjM5NTU0OTIzOABTYW1wbGVyX0NZTTFfT0hfUGFuADAuNQBTYW1wbGVyX0NZTTFfT0hfV2lkdGgAMQBTYW1wbGVyX0NZTTFfUGl0Y2hFbnZfQ3VydmUAMC4wMzExMjI4AFNhbXBsZXJfQ1lNMV9QaXRjaEVudl9Ib2xkADAAU2FtcGxlcl9DWU0xX1BpdGNoRW52X09mZnNldExldmVsADAuNQBTYW1wbGVyX0NZTTFfUGl0Y2hFbnZfUmVsZWFzZQAwAFNhbXBsZXJfQ1lNMV9QaXRjaEVudl9WZWxTZW5zADAAU2FtcGxlcl9DWU0xX1BpdGNoX0NvdXJzZQAwLjUzMjIxNjc4NwBTYW1wbGVyX0NZTTFfUGl0Y2hfRW5hYmxlADEAU2FtcGxlcl9DWU0xX1BpdGNoX09IUm9vbU9mZnNldAAwLjUzMjIyNDY1NQBTYW1wbGVyX0NZTTFfUmVzcG9uc2VFbmFibGUAMQBTYW1wbGVyX0NZTTFfUm9vbV9JbnZlcnQAMABTYW1wbGVyX0NZTTFfUm9vbV9MZXZlbAAwLjIwOTIxNDg5NgBTYW1wbGVyX0NZTTFfUm9vbV9QYW4AMC41AFNhbXBsZXJfQ1lNMV9Sb29tX1dpZHRoADEAU2FtcGxlcl9DWU0xX1NvbG8AMABTYW1wbGVyX0NZTTFfVXNlQWx0cwAxAFNhbXBsZXJfQ1lNMV9WZWxUb0ZsdAAwAFNhbXBsZXJfQ1lNMV9WZWxUb1NhbXBsZUhpADEAU2FtcGxlcl9DWU0xX1ZlbFRvU2FtcGxlTG8AMC4xNTAwMDAwMDYAU2FtcGxlcl9DWU0xX1ZlbFRvVm9sADAuNQBTYW1wbGVyX0NZTTJfQW1wRW52X0F0dGFjawAwAFNhbXBsZXJfQ1lNMl9BbXBFbnZfQXR0YWNrQ3VydmUAMC41AFNhbXBsZXJfQ1lNMl9BbXBFbnZfRGVjYXkAMABTYW1wbGVyX0NZTTJfQW1wRW52X0RlY2F5Q3VydmUAMC4wMzExMjI4AFNhbXBsZXJfQ1lNMl9BbXBFbnZfRW5hYmxlADAAU2FtcGxlcl9DWU0yX0FtcEVudl9SZWxlYXNlADAuNjkzNzA4NjU4AFNhbXBsZXJfQ1lNMl9BbXBFbnZfUmVsZWFzZUN1cnZlADAuMDMxMTIyOABTYW1wbGVyX0NZTTJfQW1wRW52X1N1c3RhaW5Ib2xkADAuOTA2OTk0NDAyAFNhbXBsZXJfQ1lNMl9BbXBFbnZfU3VzdGFpbkxldmVsADEAU2FtcGxlcl9DWU0yX0FtcEVudl9WZWwyQXR0YWNrADAAU2FtcGxlcl9DWU0yX0N1cnJlbnRFbnZFbmFibGUAMABTYW1wbGVyX0NZTTJfQ3VycmVudEVudlNlbGVjdGlvbgBQaXRjaEVudgBTYW1wbGVyX0NZTTJfRVFfRW52X0N1cnZlADAuMDMxMTIyOABTYW1wbGVyX0NZTTJfRVFfRW52X0luaXRpYWxMZXZlbAAwLjcxNDI4NTczMQBTYW1wbGVyX0NZTTJfRVFfRW52X1JlbGVhc2VMZXZlbAAwLjcxNDI4NTczMQBTYW1wbGVyX0NZTTJfRVFfRW52X1JlbGVhc2VUaW1lADAAU2FtcGxlcl9DWU0yX0VudkZpbHRlcnNFbmFibGUAMQBTYW1wbGVyX0NZTTJfRmlsdGVySGlMb19FbmFibGUAMABTYW1wbGVyX0NZTTJfRmlsdGVySGlMb19IaUZyZXEAMQBTYW1wbGVyX0NZTTJfRmlsdGVySGlMb19Mb0ZyZXEAMABTYW1wbGVyX0NZTTJfS2l0UGllY2VTZWxlY3Rpb24AMABTYW1wbGVyX0NZTTJfTGV2ZWwAMC43NTc5ODIzMTQAU2FtcGxlcl9DWU0yX01pY0JhbGFuY2UAMC41AFNhbXBsZXJfQ1lNMl9NdXRlADAAU2FtcGxlcl9DWU0yX09IX0ludmVydAAwAFNhbXBsZXJfQ1lNMl9PSF9MZXZlbAAwLjM5NTU0OTIzOABTYW1wbGVyX0NZTTJfT0hfUGFuADAuNQBTYW1wbGVyX0NZTTJfT0hfV2lkdGgAMQBTYW1wbGVyX0NZTTJfUGl0Y2hFbnZfQ3VydmUAMC4wMzExMjI4AFNhbXBsZXJfQ1lNMl9QaXRjaEVudl9Ib2xkADAAU2FtcGxlcl9DWU0yX1BpdGNoRW52X09mZnNldExldmVsADAuNQBTYW1wbGVyX0NZTTJfUGl0Y2hFbnZfUmVsZWFzZQAwAFNhbXBsZXJfQ1lNMl9QaXRjaEVudl9WZWxTZW5zADAAU2FtcGxlcl9DWU0yX1BpdGNoX0NvdXJzZQAwLjUAU2FtcGxlcl9DWU0yX1BpdGNoX0VuYWJsZQAwAFNhbXBsZXJfQ1lNMl9QaXRjaF9PSFJvb21PZmZzZXQAMC41AFNhbXBsZXJfQ1lNMl9SZXNwb25zZUVuYWJsZQAxAFNhbXBsZXJfQ1lNMl9Sb29tX0ludmVydAAwAFNhbXBsZXJfQ1lNMl9Sb29tX0xldmVsADAuMjA5MjE0ODk2AFNhbXBsZXJfQ1lNMl9Sb29tX1BhbgAwLjUAU2FtcGxlcl9DWU0yX1Jvb21fV2lkdGgAMQBTYW1wbGVyX0NZTTJfU29sbwAwAFNhbXBsZXJfQ1lNMl9Vc2VBbHRzADEAU2FtcGxlcl9DWU0yX1ZlbFRvRmx0ADAAU2FtcGxlcl9DWU0yX1ZlbFRvU2FtcGxlSGkAMQBTYW1wbGVyX0NZTTJfVmVsVG9TYW1wbGVMbwAwLjE1MDAwMDAwNgBTYW1wbGVyX0NZTTJfVmVsVG9Wb2wAMC41AFNhbXBsZXJfQ1lNM19BbXBFbnZfQXR0YWNrADAAU2FtcGxlcl9DWU0zX0FtcEVudl9BdHRhY2tDdXJ2ZQAwLjUAU2FtcGxlcl9DWU0zX0FtcEVudl9EZWNheQAwAFNhbXBsZXJfQ1lNM19BbXBFbnZfRGVjYXlDdXJ2ZQAwLjAzMTEyMjgAU2FtcGxlcl9DWU0zX0FtcEVudl9FbmFibGUAMABTYW1wbGVyX0NZTTNfQW1wRW52X1JlbGVhc2UAMC42OTM3MDg2NTgAU2FtcGxlcl9DWU0zX0FtcEVudl9SZWxlYXNlQ3VydmUAMC4wMzExMjI4AFNhbXBsZXJfQ1lNM19BbXBFbnZfU3VzdGFpbkhvbGQAMC45MDY5OTQ0MDIAU2FtcGxlcl9DWU0zX0FtcEVudl9TdXN0YWluTGV2ZWwAMQBTYW1wbGVyX0NZTTNfQW1wRW52X1ZlbDJBdHRhY2sAMABTYW1wbGVyX0NZTTNfQ3VycmVudEVudkVuYWJsZQAwAFNhbXBsZXJfQ1lNM19DdXJyZW50RW52U2VsZWN0aW9uAFBpdGNoRW52AFNhbXBsZXJfQ1lNM19FUV9FbnZfQ3VydmUAMC4wMzExMjI4AFNhbXBsZXJfQ1lNM19FUV9FbnZfSW5pdGlhbExldmVsADAuNzE0Mjg1NzMxAFNhbXBsZXJfQ1lNM19FUV9FbnZfUmVsZWFzZUxldmVsADAuNzE0Mjg1NzMxAFNhbXBsZXJfQ1lNM19FUV9FbnZfUmVsZWFzZVRpbWUAMABTYW1wbGVyX0NZTTNfRW52RmlsdGVyc0VuYWJsZQAxAFNhbXBsZXJfQ1lNM19GaWx0ZXJIaUxvX0VuYWJsZQAwAFNhbXBsZXJfQ1lNM19GaWx0ZXJIaUxvX0hpRnJlcQAxAFNhbXBsZXJfQ1lNM19GaWx0ZXJIaUxvX0xvRnJlcQAwAFNhbXBsZXJfQ1lNM19LaXRQaWVjZVNlbGVjdGlvbgAwAFNhbXBsZXJfQ1lNM19MZXZlbAAwLjc1Nzk4MjMxNABTYW1wbGVyX0NZTTNfTWljQmFsYW5jZQAwLjUAU2FtcGxlcl9DWU0zX011dGUAMABTYW1wbGVyX0NZTTNfT0hfSW52ZXJ0ADAAU2FtcGxlcl9DWU0zX09IX0xldmVsADAuMzk1NTQ5MjM4AFNhbXBsZXJfQ1lNM19PSF9QYW4AMC41AFNhbXBsZXJfQ1lNM19PSF9XaWR0aAAxAFNhbXBsZXJfQ1lNM19QaXRjaEVudl9DdXJ2ZQAwLjAzMTEyMjgAU2FtcGxlcl9DWU0zX1BpdGNoRW52X0hvbGQAMABTYW1wbGVyX0NZTTNfUGl0Y2hFbnZfT2Zmc2V0TGV2ZWwAMC41AFNhbXBsZXJfQ1lNM19QaXRjaEVudl9SZWxlYXNlADAAU2FtcGxlcl9DWU0zX1BpdGNoRW52X1ZlbFNlbnMAMABTYW1wbGVyX0NZTTNfUGl0Y2hfQ291cnNlADAuNQBTYW1wbGVyX0NZTTNfUGl0Y2hfRW5hYmxlADAAU2FtcGxlcl9DWU0zX1BpdGNoX09IUm9vbU9mZnNldAAwLjUAU2FtcGxlcl9DWU0zX1Jlc3BvbnNlRW5hYmxlADEAU2FtcGxlcl9DWU0zX1Jvb21fSW52ZXJ0ADAAU2FtcGxlcl9DWU0zX1Jvb21fTGV2ZWwAMC4yMDkyMTQ4OTYAU2FtcGxlcl9DWU0zX1Jvb21fUGFuADAuNQBTYW1wbGVyX0NZTTNfUm9vbV9XaWR0aAAxAFNhbXBsZXJfQ1lNM19Tb2xvADAAU2FtcGxlcl9DWU0zX1VzZUFsdHMAMQBTYW1wbGVyX0NZTTNfVmVsVG9GbHQAMABTYW1wbGVyX0NZTTNfVmVsVG9TYW1wbGVIaQAxAFNhbXBsZXJfQ1lNM19WZWxUb1NhbXBsZUxvADAuMTUwMDAwMDA2AFNhbXBsZXJfQ1lNM19WZWxUb1ZvbAAwLjUAU2FtcGxlcl9DWU00X0FtcEVudl9BdHRhY2sAMABTYW1wbGVyX0NZTTRfQW1wRW52X0F0dGFja0N1cnZlADAuNQBTYW1wbGVyX0NZTTRfQW1wRW52X0RlY2F5ADAAU2FtcGxlcl9DWU00X0FtcEVudl9EZWNheUN1cnZlADAuMDMxMTIyOABTYW1wbGVyX0NZTTRfQW1wRW52X0VuYWJsZQAwAFNhbXBsZXJfQ1lNNF9BbXBFbnZfUmVsZWFzZQAxAFNhbXBsZXJfQ1lNNF9BbXBFbnZfUmVsZWFzZUN1cnZlADAuMDMxMTIyOABTYW1wbGVyX0NZTTRfQW1wRW52X1N1c3RhaW5Ib2xkADEAU2FtcGxlcl9DWU00X0FtcEVudl9TdXN0YWluTGV2ZWwAMQBTYW1wbGVyX0NZTTRfQW1wRW52X1ZlbDJBdHRhY2sAMABTYW1wbGVyX0NZTTRfQ3VycmVudEVudkVuYWJsZQAwAFNhbXBsZXJfQ1lNNF9DdXJyZW50RW52U2VsZWN0aW9uAFBpdGNoRW52AFNhbXBsZXJfQ1lNNF9FUV9FbnZfQ3VydmUAMC4wMzExMjI4AFNhbXBsZXJfQ1lNNF9FUV9FbnZfSW5pdGlhbExldmVsADAuNzE0Mjg1NzMxAFNhbXBsZXJfQ1lNNF9FUV9FbnZfUmVsZWFzZUxldmVsADAuNzE0Mjg1NzMxAFNhbXBsZXJfQ1lNNF9FUV9FbnZfUmVsZWFzZVRpbWUAMABTYW1wbGVyX0NZTTRfRW52RmlsdGVyc0VuYWJsZQAxAFNhbXBsZXJfQ1lNNF9GaWx0ZXJIaUxvX0VuYWJsZQAwAFNhbXBsZXJfQ1lNNF9GaWx0ZXJIaUxvX0hpRnJlcQAxAFNhbXBsZXJfQ1lNNF9GaWx0ZXJIaUxvX0xvRnJlcQAwAFNhbXBsZXJfQ1lNNF9LaXRQaWVjZVNlbGVjdGlvbgAwAFNhbXBsZXJfQ1lNNF9MZXZlbAAwLjgwMDAwMDAxMgBTYW1wbGVyX0NZTTRfTWljQmFsYW5jZQAwLjUAU2FtcGxlcl9DWU00X011dGUAMABTYW1wbGVyX0NZTTRfT0hfSW52ZXJ0ADAAU2FtcGxlcl9DWU00X09IX0xldmVsADAuNQBTYW1wbGVyX0NZTTRfT0hfUGFuADAuNQBTYW1wbGVyX0NZTTRfT0hfV2lkdGgAMQBTYW1wbGVyX0NZTTRfUGl0Y2hFbnZfQ3VydmUAMC4wMzExMjI4AFNhbXBsZXJfQ1lNNF9QaXRjaEVudl9Ib2xkADAAU2FtcGxlcl9DWU00X1BpdGNoRW52X09mZnNldExldmVsADAuNQBTYW1wbGVyX0NZTTRfUGl0Y2hFbnZfUmVsZWFzZQAwAFNhbXBsZXJfQ1lNNF9QaXRjaEVudl9WZWxTZW5zADAAU2FtcGxlcl9DWU00X1BpdGNoX0NvdXJzZQAwLjUAU2FtcGxlcl9DWU00X1BpdGNoX0VuYWJsZQAwAFNhbXBsZXJfQ1lNNF9QaXRjaF9PSFJvb21PZmZzZXQAMC41AFNhbXBsZXJfQ1lNNF9SZXNwb25zZUVuYWJsZQAxAFNhbXBsZXJfQ1lNNF9Sb29tX0ludmVydAAwAFNhbXBsZXJfQ1lNNF9Sb29tX0xldmVsADAuNQBTYW1wbGVyX0NZTTRfUm9vbV9QYW4AMC41AFNhbXBsZXJfQ1lNNF9Sb29tX1dpZHRoADEAU2FtcGxlcl9DWU00X1NvbG8AMABTYW1wbGVyX0NZTTRfVXNlQWx0cwAxAFNhbXBsZXJfQ1lNNF9WZWxUb0ZsdAAwAFNhbXBsZXJfQ1lNNF9WZWxUb1NhbXBsZUhpADEAU2FtcGxlcl9DWU00X1ZlbFRvU2FtcGxlTG8AMC4xNTAwMDAwMDYAU2FtcGxlcl9DWU00X1ZlbFRvVm9sADAuNQBTYW1wbGVyX0NZTTVfQW1wRW52X0F0dGFjawAwAFNhbXBsZXJfQ1lNNV9BbXBFbnZfQXR0YWNrQ3VydmUAMC41AFNhbXBsZXJfQ1lNNV9BbXBFbnZfRGVjYXkAMABTYW1wbGVyX0NZTTVfQW1wRW52X0RlY2F5Q3VydmUAMC4wMzExMjI4AFNhbXBsZXJfQ1lNNV9BbXBFbnZfRW5hYmxlADAAU2FtcGxlcl9DWU01X0FtcEVudl9SZWxlYXNlADEAU2FtcGxlcl9DWU01X0FtcEVudl9SZWxlYXNlQ3VydmUAMC4wMzExMjI4AFNhbXBsZXJfQ1lNNV9BbXBFbnZfU3VzdGFpbkhvbGQAMQBTYW1wbGVyX0NZTTVfQW1wRW52X1N1c3RhaW5MZXZlbAAxAFNhbXBsZXJfQ1lNNV9BbXBFbnZfVmVsMkF0dGFjawAwAFNhbXBsZXJfQ1lNNV9DdXJyZW50RW52RW5hYmxlADAAU2FtcGxlcl9DWU01X0N1cnJlbnRFbnZTZWxlY3Rpb24AUGl0Y2hFbnYAU2FtcGxlcl9DWU01X0VRX0Vudl9DdXJ2ZQAwLjAzMTEyMjgAU2FtcGxlcl9DWU01X0VRX0Vudl9Jbml0aWFsTGV2ZWwAMC43MTQyODU3MzEAU2FtcGxlcl9DWU01X0VRX0Vudl9SZWxlYXNlTGV2ZWwAMC43MTQyODU3MzEAU2FtcGxlcl9DWU01X0VRX0Vudl9SZWxlYXNlVGltZQAwAFNhbXBsZXJfQ1lNNV9FbnZGaWx0ZXJzRW5hYmxlADEAU2FtcGxlcl9DWU01X0ZpbHRlckhpTG9fRW5hYmxlADAAU2FtcGxlcl9DWU01X0ZpbHRlckhpTG9fSGlGcmVxADEAU2FtcGxlcl9DWU01X0ZpbHRlckhpTG9fTG9GcmVxADAAU2FtcGxlcl9DWU01X0tpdFBpZWNlU2VsZWN0aW9uADAAU2FtcGxlcl9DWU01X0xldmVsADAuODAwMDAwMDEyAFNhbXBsZXJfQ1lNNV9NaWNCYWxhbmNlADAuNQBTYW1wbGVyX0NZTTVfTXV0ZQAwAFNhbXBsZXJfQ1lNNV9PSF9JbnZlcnQAMABTYW1wbGVyX0NZTTVfT0hfTGV2ZWwAMC41AFNhbXBsZXJfQ1lNNV9PSF9QYW4AMC41AFNhbXBsZXJfQ1lNNV9PSF9XaWR0aAAxAFNhbXBsZXJfQ1lNNV9QaXRjaEVudl9DdXJ2ZQAwLjAzMTEyMjgAU2FtcGxlcl9DWU01X1BpdGNoRW52X0hvbGQAMABTYW1wbGVyX0NZTTVfUGl0Y2hFbnZfT2Zmc2V0TGV2ZWwAMC41AFNhbXBsZXJfQ1lNNV9QaXRjaEVudl9SZWxlYXNlADAAU2FtcGxlcl9DWU01X1BpdGNoRW52X1ZlbFNlbnMAMABTYW1wbGVyX0NZTTVfUGl0Y2hfQ291cnNlADAuNQBTYW1wbGVyX0NZTTVfUGl0Y2hfRW5hYmxlADAAU2FtcGxlcl9DWU01X1BpdGNoX09IUm9vbU9mZnNldAAwLjUAU2FtcGxlcl9DWU01X1Jlc3BvbnNlRW5hYmxlADEAU2FtcGxlcl9DWU01X1Jvb21fSW52ZXJ0ADAAU2FtcGxlcl9DWU01X1Jvb21fTGV2ZWwAMC41AFNhbXBsZXJfQ1lNNV9Sb29tX1BhbgAwLjUAU2FtcGxlcl9DWU01X1Jvb21fV2lkdGgAMQBTYW1wbGVyX0NZTTVfU29sbwAwAFNhbXBsZXJfQ1lNNV9Vc2VBbHRzADEAU2FtcGxlcl9DWU01X1ZlbFRvRmx0ADAAU2FtcGxlcl9DWU01X1ZlbFRvU2FtcGxlSGkAMQBTYW1wbGVyX0NZTTVfVmVsVG9TYW1wbGVMbwAwLjE1MDAwMDAwNgBTYW1wbGVyX0NZTTVfVmVsVG9Wb2wAMC41AFNhbXBsZXJfQ1lNNl9BbXBFbnZfQXR0YWNrADAAU2FtcGxlcl9DWU02X0FtcEVudl9BdHRhY2tDdXJ2ZQAwLjUAU2FtcGxlcl9DWU02X0FtcEVudl9EZWNheQAwAFNhbXBsZXJfQ1lNNl9BbXBFbnZfRGVjYXlDdXJ2ZQAwLjAzMTEyMjgAU2FtcGxlcl9DWU02X0FtcEVudl9FbmFibGUAMABTYW1wbGVyX0NZTTZfQW1wRW52X1JlbGVhc2UAMQBTYW1wbGVyX0NZTTZfQW1wRW52X1JlbGVhc2VDdXJ2ZQAwLjAzMTEyMjgAU2FtcGxlcl9DWU02X0FtcEVudl9TdXN0YWluSG9sZAAxAFNhbXBsZXJfQ1lNNl9BbXBFbnZfU3VzdGFpbkxldmVsADEAU2FtcGxlcl9DWU02X0FtcEVudl9WZWwyQXR0YWNrADAAU2FtcGxlcl9DWU02X0N1cnJlbnRFbnZFbmFibGUAMABTYW1wbGVyX0NZTTZfQ3VycmVudEVudlNlbGVjdGlvbgBQaXRjaEVudgBTYW1wbGVyX0NZTTZfRVFfRW52X0N1cnZlADAuMDMxMTIyOABTYW1wbGVyX0NZTTZfRVFfRW52X0luaXRpYWxMZXZlbAAwLjcxNDI4NTczMQBTYW1wbGVyX0NZTTZfRVFfRW52X1JlbGVhc2VMZXZlbAAwLjcxNDI4NTczMQBTYW1wbGVyX0NZTTZfRVFfRW52X1JlbGVhc2VUaW1lADAAU2FtcGxlcl9DWU02X0VudkZpbHRlcnNFbmFibGUAMQBTYW1wbGVyX0NZTTZfRmlsdGVySGlMb19FbmFibGUAMABTYW1wbGVyX0NZTTZfRmlsdGVySGlMb19IaUZyZXEAMQBTYW1wbGVyX0NZTTZfRmlsdGVySGlMb19Mb0ZyZXEAMABTYW1wbGVyX0NZTTZfS2l0UGllY2VTZWxlY3Rpb24AMABTYW1wbGVyX0NZTTZfTGV2ZWwAMC44MDAwMDAwMTIAU2FtcGxlcl9DWU02X01pY0JhbGFuY2UAMC41AFNhbXBsZXJfQ1lNNl9NdXRlADAAU2FtcGxlcl9DWU02X09IX0ludmVydAAwAFNhbXBsZXJfQ1lNNl9PSF9MZXZlbAAwLjUAU2FtcGxlcl9DWU02X09IX1BhbgAwLjUAU2FtcGxlcl9DWU02X09IX1dpZHRoADEAU2FtcGxlcl9DWU02X1BpdGNoRW52X0N1cnZlADAuMDMxMTIyOABTYW1wbGVyX0NZTTZfUGl0Y2hFbnZfSG9sZAAwAFNhbXBsZXJfQ1lNNl9QaXRjaEVudl9PZmZzZXRMZXZlbAAwLjUAU2FtcGxlcl9DWU02X1BpdGNoRW52X1JlbGVhc2UAMABTYW1wbGVyX0NZTTZfUGl0Y2hFbnZfVmVsU2VucwAwAFNhbXBsZXJfQ1lNNl9QaXRjaF9Db3Vyc2UAMC41AFNhbXBsZXJfQ1lNNl9QaXRjaF9FbmFibGUAMABTYW1wbGVyX0NZTTZfUGl0Y2hfT0hSb29tT2Zmc2V0ADAuNQBTYW1wbGVyX0NZTTZfUmVzcG9uc2VFbmFibGUAMQBTYW1wbGVyX0NZTTZfUm9vbV9JbnZlcnQAMABTYW1wbGVyX0NZTTZfUm9vbV9MZXZlbAAwLjUAU2FtcGxlcl9DWU02X1Jvb21fUGFuADAuNQBTYW1wbGVyX0NZTTZfUm9vbV9XaWR0aAAxAFNhbXBsZXJfQ1lNNl9Tb2xvADAAU2FtcGxlcl9DWU02X1VzZUFsdHMAMQBTYW1wbGVyX0NZTTZfVmVsVG9GbHQAMABTYW1wbGVyX0NZTTZfVmVsVG9TYW1wbGVIaQAxAFNhbXBsZXJfQ1lNNl9WZWxUb1NhbXBsZUxvADAuMTUwMDAwMDA2AFNhbXBsZXJfQ1lNNl9WZWxUb1ZvbAAwLjUAU2FtcGxlcl9GTFgxX0FtcEVudl9BdHRhY2sAMABTYW1wbGVyX0ZMWDFfQW1wRW52X0F0dGFja0N1cnZlADAuNQBTYW1wbGVyX0ZMWDFfQW1wRW52X0RlY2F5ADAAU2FtcGxlcl9GTFgxX0FtcEVudl9EZWNheUN1cnZlADAuMDMxMTIyOABTYW1wbGVyX0ZMWDFfQW1wRW52X0VuYWJsZQAxAFNhbXBsZXJfRkxYMV9BbXBFbnZfUmVsZWFzZQAwLjIzMjYxMDIxMQBTYW1wbGVyX0ZMWDFfQW1wRW52X1JlbGVhc2VDdXJ2ZQAwLjAzMTEyMjgAU2FtcGxlcl9GTFgxX0FtcEVudl9TdXN0YWluSG9sZAAwAFNhbXBsZXJfRkxYMV9BbXBFbnZfU3VzdGFpbkxldmVsADEAU2FtcGxlcl9GTFgxX0FtcEVudl9WZWwyQXR0YWNrADAAU2FtcGxlcl9GTFgxX0N1cnJlbnRFbnZFbmFibGUAMQBTYW1wbGVyX0ZMWDFfQ3VycmVudEVudlNlbGVjdGlvbgBQaXRjaEVudgBTYW1wbGVyX0ZMWDFfRVFfRW52X0N1cnZlADAuMDMxMTIyOABTYW1wbGVyX0ZMWDFfRVFfRW52X0luaXRpYWxMZXZlbAAwLjcxNDI4NTczMQBTYW1wbGVyX0ZMWDFfRVFfRW52X1JlbGVhc2VMZXZlbAAwLjcxNDI4NTczMQBTYW1wbGVyX0ZMWDFfRVFfRW52X1JlbGVhc2VUaW1lADAAU2FtcGxlcl9GTFgxX0VudkZpbHRlcnNFbmFibGUAMQBTYW1wbGVyX0ZMWDFfRmlsdGVySGlMb19FbmFibGUAMQBTYW1wbGVyX0ZMWDFfRmlsdGVySGlMb19IaUZyZXEAMQBTYW1wbGVyX0ZMWDFfRmlsdGVySGlMb19Mb0ZyZXEAMC4zNDAyNTYzNjMAU2FtcGxlcl9GTFgxX0tpdFBpZWNlU2VsZWN0aW9uADk4MTg0MQBTYW1wbGVyX0ZMWDFfTGV2ZWwAMC43NTc5ODIzMTQAU2FtcGxlcl9GTFgxX01pY0JhbGFuY2UAMC41AFNhbXBsZXJfRkxYMV9NdXRlADAAU2FtcGxlcl9GTFgxX09IX0ludmVydAAwAFNhbXBsZXJfRkxYMV9PSF9MZXZlbAAwLjY4OTMwOTAwMQBTYW1wbGVyX0ZMWDFfT0hfUGFuADAuNQBTYW1wbGVyX0ZMWDFfT0hfV2lkdGgAMQBTYW1wbGVyX0ZMWDFfUGl0Y2hFbnZfQ3VydmUAMC4wMzExMjI4AFNhbXBsZXJfRkxYMV9QaXRjaEVudl9Ib2xkADAAU2FtcGxlcl9GTFgxX1BpdGNoRW52X09mZnNldExldmVsADAuMzk5OTk5OTE3AFNhbXBsZXJfRkxYMV9QaXRjaEVudl9SZWxlYXNlADEAU2FtcGxlcl9GTFgxX1BpdGNoRW52X1ZlbFNlbnMAMABTYW1wbGVyX0ZMWDFfUGl0Y2hfQ291cnNlADAuNQBTYW1wbGVyX0ZMWDFfUGl0Y2hfRW5hYmxlADAAU2FtcGxlcl9GTFgxX1BpdGNoX09IUm9vbU9mZnNldAAwLjUAU2FtcGxlcl9GTFgxX1Jlc3BvbnNlRW5hYmxlADEAU2FtcGxlcl9GTFgxX1Jvb21fSW52ZXJ0ADAAU2FtcGxlcl9GTFgxX1Jvb21fTGV2ZWwAMC4yMjc3NDc5MzIAU2FtcGxlcl9GTFgxX1Jvb21fUGFuADAuNQBTYW1wbGVyX0ZMWDFfUm9vbV9XaWR0aAAxAFNhbXBsZXJfRkxYMV9Tb2xvADAAU2FtcGxlcl9GTFgxX1VzZUFsdHMAMQBTYW1wbGVyX0ZMWDFfVmVsVG9GbHQAMABTYW1wbGVyX0ZMWDFfVmVsVG9TYW1wbGVIaQAxAFNhbXBsZXJfRkxYMV9WZWxUb1NhbXBsZUxvADAuMTUwMDAwMDA2AFNhbXBsZXJfRkxYMV9WZWxUb1ZvbAAwLjUAU2FtcGxlcl9GTFgyX0FtcEVudl9BdHRhY2sAMABTYW1wbGVyX0ZMWDJfQW1wRW52X0F0dGFja0N1cnZlADAuNQBTYW1wbGVyX0ZMWDJfQW1wRW52X0RlY2F5ADAAU2FtcGxlcl9GTFgyX0FtcEVudl9EZWNheUN1cnZlADAuMDMxMTIyOABTYW1wbGVyX0ZMWDJfQW1wRW52X0VuYWJsZQAwAFNhbXBsZXJfRkxYMl9BbXBFbnZfUmVsZWFzZQAxAFNhbXBsZXJfRkxYMl9BbXBFbnZfUmVsZWFzZUN1cnZlADAuMDMxMTIyOABTYW1wbGVyX0ZMWDJfQW1wRW52X1N1c3RhaW5Ib2xkADEAU2FtcGxlcl9GTFgyX0FtcEVudl9TdXN0YWluTGV2ZWwAMQBTYW1wbGVyX0ZMWDJfQW1wRW52X1ZlbDJBdHRhY2sAMABTYW1wbGVyX0ZMWDJfQ3VycmVudEVudkVuYWJsZQAwAFNhbXBsZXJfRkxYMl9DdXJyZW50RW52U2VsZWN0aW9uAFBpdGNoRW52AFNhbXBsZXJfRkxYMl9FUV9FbnZfQ3VydmUAMC4wMzExMjI4AFNhbXBsZXJfRkxYMl9FUV9FbnZfSW5pdGlhbExldmVsADAuNzE0Mjg1NzMxAFNhbXBsZXJfRkxYMl9FUV9FbnZfUmVsZWFzZUxldmVsADAuNzE0Mjg1NzMxAFNhbXBsZXJfRkxYMl9FUV9FbnZfUmVsZWFzZVRpbWUAMABTYW1wbGVyX0ZMWDJfRW52RmlsdGVyc0VuYWJsZQAxAFNhbXBsZXJfRkxYMl9GaWx0ZXJIaUxvX0VuYWJsZQAwAFNhbXBsZXJfRkxYMl9GaWx0ZXJIaUxvX0hpRnJlcQAxAFNhbXBsZXJfRkxYMl9GaWx0ZXJIaUxvX0xvRnJlcQAwAFNhbXBsZXJfRkxYMl9LaXRQaWVjZVNlbGVjdGlvbgA5ODE4NDEAU2FtcGxlcl9GTFgyX0xldmVsADAuODAwMDAwMDEyAFNhbXBsZXJfRkxYMl9NaWNCYWxhbmNlADAuNQBTYW1wbGVyX0ZMWDJfTXV0ZQAwAFNhbXBsZXJfRkxYMl9PSF9JbnZlcnQAMABTYW1wbGVyX0ZMWDJfT0hfTGV2ZWwAMABTYW1wbGVyX0ZMWDJfT0hfUGFuADAuNQBTYW1wbGVyX0ZMWDJfT0hfV2lkdGgAMQBTYW1wbGVyX0ZMWDJfUGl0Y2hFbnZfQ3VydmUAMC4wMzExMjI4AFNhbXBsZXJfRkxYMl9QaXRjaEVudl9Ib2xkADAAU2FtcGxlcl9GTFgyX1BpdGNoRW52X09mZnNldExldmVsADAuNQBTYW1wbGVyX0ZMWDJfUGl0Y2hFbnZfUmVsZWFzZQAwAFNhbXBsZXJfRkxYMl9QaXRjaEVudl9WZWxTZW5zADAAU2FtcGxlcl9GTFgyX1BpdGNoX0NvdXJzZQAwLjUAU2FtcGxlcl9GTFgyX1BpdGNoX0VuYWJsZQAwAFNhbXBsZXJfRkxYMl9QaXRjaF9PSFJvb21PZmZzZXQAMC41AFNhbXBsZXJfRkxYMl9SZXNwb25zZUVuYWJsZQAxAFNhbXBsZXJfRkxYMl9Sb29tX0ludmVydAAwAFNhbXBsZXJfRkxYMl9Sb29tX0xldmVsADAAU2FtcGxlcl9GTFgyX1Jvb21fUGFuADAuNQBTYW1wbGVyX0ZMWDJfUm9vbV9XaWR0aAAxAFNhbXBsZXJfRkxYMl9Tb2xvADAAU2FtcGxlcl9GTFgyX1VzZUFsdHMAMQBTYW1wbGVyX0ZMWDJfVmVsVG9GbHQAMABTYW1wbGVyX0ZMWDJfVmVsVG9TYW1wbGVIaQAxAFNhbXBsZXJfRkxYMl9WZWxUb1NhbXBsZUxvADAuMTUwMDAwMDA2AFNhbXBsZXJfRkxYMl9WZWxUb1ZvbAAwLjUAU2FtcGxlcl9GTFgzX0FtcEVudl9BdHRhY2sAMABTYW1wbGVyX0ZMWDNfQW1wRW52X0F0dGFja0N1cnZlADAuNQBTYW1wbGVyX0ZMWDNfQW1wRW52X0RlY2F5ADAAU2FtcGxlcl9GTFgzX0FtcEVudl9EZWNheUN1cnZlADAuMDMxMTIyOABTYW1wbGVyX0ZMWDNfQW1wRW52X0VuYWJsZQAxAFNhbXBsZXJfRkxYM19BbXBFbnZfUmVsZWFzZQAwLjY5MzcwODY1OABTYW1wbGVyX0ZMWDNfQW1wRW52X1JlbGVhc2VDdXJ2ZQAwAFNhbXBsZXJfRkxYM19BbXBFbnZfU3VzdGFpbkhvbGQAMABTYW1wbGVyX0ZMWDNfQW1wRW52X1N1c3RhaW5MZXZlbAAxAFNhbXBsZXJfRkxYM19BbXBFbnZfVmVsMkF0dGFjawAwAFNhbXBsZXJfRkxYM19DdXJyZW50RW52RW5hYmxlADAAU2FtcGxlcl9GTFgzX0N1cnJlbnRFbnZTZWxlY3Rpb24AUGl0Y2hFbnYAU2FtcGxlcl9GTFgzX0VRX0Vudl9DdXJ2ZQAwLjAzMTEyMjgAU2FtcGxlcl9GTFgzX0VRX0Vudl9Jbml0aWFsTGV2ZWwAMC43MTQyODU3MzEAU2FtcGxlcl9GTFgzX0VRX0Vudl9SZWxlYXNlTGV2ZWwAMC43MTQyODU3MzEAU2FtcGxlcl9GTFgzX0VRX0Vudl9SZWxlYXNlVGltZQAwAFNhbXBsZXJfRkxYM19FbnZGaWx0ZXJzRW5hYmxlADEAU2FtcGxlcl9GTFgzX0ZpbHRlckhpTG9fRW5hYmxlADAAU2FtcGxlcl9GTFgzX0ZpbHRlckhpTG9fSGlGcmVxADAuNjI4NTcxNDUxAFNhbXBsZXJfRkxYM19GaWx0ZXJIaUxvX0xvRnJlcQAwAFNhbXBsZXJfRkxYM19LaXRQaWVjZVNlbGVjdGlvbgA5ODE4NDIAU2FtcGxlcl9GTFgzX0xldmVsADAuODAwMDAwMDEyAFNhbXBsZXJfRkxYM19NaWNCYWxhbmNlADAuNQBTYW1wbGVyX0ZMWDNfTXV0ZQAwAFNhbXBsZXJfRkxYM19PSF9JbnZlcnQAMABTYW1wbGVyX0ZMWDNfT0hfTGV2ZWwAMABTYW1wbGVyX0ZMWDNfT0hfUGFuADAuNQBTYW1wbGVyX0ZMWDNfT0hfV2lkdGgAMQBTYW1wbGVyX0ZMWDNfUGl0Y2hFbnZfQ3VydmUAMC4wMzExMjI4AFNhbXBsZXJfRkxYM19QaXRjaEVudl9Ib2xkADAAU2FtcGxlcl9GTFgzX1BpdGNoRW52X09mZnNldExldmVsADAuNQBTYW1wbGVyX0ZMWDNfUGl0Y2hFbnZfUmVsZWFzZQAwAFNhbXBsZXJfRkxYM19QaXRjaEVudl9WZWxTZW5zADAAU2FtcGxlcl9GTFgzX1BpdGNoX0NvdXJzZQAwLjUAU2FtcGxlcl9GTFgzX1BpdGNoX0VuYWJsZQAwAFNhbXBsZXJfRkxYM19QaXRjaF9PSFJvb21PZmZzZXQAMC41AFNhbXBsZXJfRkxYM19SZXNwb25zZUVuYWJsZQAxAFNhbXBsZXJfRkxYM19Sb29tX0ludmVydAAwAFNhbXBsZXJfRkxYM19Sb29tX0xldmVsADAAU2FtcGxlcl9GTFgzX1Jvb21fUGFuADAuNQBTYW1wbGVyX0ZMWDNfUm9vbV9XaWR0aAAxAFNhbXBsZXJfRkxYM19Tb2xvADAAU2FtcGxlcl9GTFgzX1VzZUFsdHMAMQBTYW1wbGVyX0ZMWDNfVmVsVG9GbHQAMABTYW1wbGVyX0ZMWDNfVmVsVG9TYW1wbGVIaQAxAFNhbXBsZXJfRkxYM19WZWxUb1NhbXBsZUxvADAuMTUwMDAwMDA2AFNhbXBsZXJfRkxYM19WZWxUb1ZvbAAwLjUAU2FtcGxlcl9ISEFUX0FtcEVudl9BdHRhY2sAMABTYW1wbGVyX0hIQVRfQW1wRW52X0F0dGFja0N1cnZlADAuNQBTYW1wbGVyX0hIQVRfQW1wRW52X0RlY2F5ADAAU2FtcGxlcl9ISEFUX0FtcEVudl9EZWNheUN1cnZlADAuMDMxMTIyOABTYW1wbGVyX0hIQVRfQW1wRW52X0VuYWJsZQAwAFNhbXBsZXJfSEhBVF9BbXBFbnZfUmVsZWFzZQAwLjY5MzcwODY1OABTYW1wbGVyX0hIQVRfQW1wRW52X1JlbGVhc2VDdXJ2ZQAwLjAzMTEyMjgAU2FtcGxlcl9ISEFUX0FtcEVudl9TdXN0YWluSG9sZAAwLjkwNjk5NDQwMgBTYW1wbGVyX0hIQVRfQW1wRW52X1N1c3RhaW5MZXZlbAAxAFNhbXBsZXJfSEhBVF9BbXBFbnZfVmVsMkF0dGFjawAwAFNhbXBsZXJfSEhBVF9DdXJyZW50RW52RW5hYmxlADAAU2FtcGxlcl9ISEFUX0N1cnJlbnRFbnZTZWxlY3Rpb24AUGl0Y2hFbnYAU2FtcGxlcl9ISEFUX0VRX0Vudl9DdXJ2ZQAwLjAzMTEyMjgAU2FtcGxlcl9ISEFUX0VRX0Vudl9Jbml0aWFsTGV2ZWwAMC43MTQyODU3MzEAU2FtcGxlcl9ISEFUX0VRX0Vudl9SZWxlYXNlTGV2ZWwAMC43MTQyODU3MzEAU2FtcGxlcl9ISEFUX0VRX0Vudl9SZWxlYXNlVGltZQAwAFNhbXBsZXJfSEhBVF9FbnZGaWx0ZXJzRW5hYmxlADEAU2FtcGxlcl9ISEFUX0ZpbHRlckhpTG9fRW5hYmxlADAAU2FtcGxlcl9ISEFUX0ZpbHRlckhpTG9fSGlGcmVxADEAU2FtcGxlcl9ISEFUX0ZpbHRlckhpTG9fTG9GcmVxADAAU2FtcGxlcl9ISEFUX0tpdFBpZWNlU2VsZWN0aW9uADEwMDMwMgBTYW1wbGVyX0hIQVRfTGV2ZWwAMC43NTc5ODIzMTQAU2FtcGxlcl9ISEFUX01pY0JhbGFuY2UAMC41AFNhbXBsZXJfSEhBVF9NdXRlADAAU2FtcGxlcl9ISEFUX09IX0ludmVydAAwAFNhbXBsZXJfSEhBVF9PSF9MZXZlbAAwLjUAU2FtcGxlcl9ISEFUX09IX1BhbgAwLjUAU2FtcGxlcl9ISEFUX09IX1dpZHRoADEAU2FtcGxlcl9ISEFUX1BpdGNoRW52X0N1cnZlADAuMDMxMTIyOABTYW1wbGVyX0hIQVRfUGl0Y2hFbnZfSG9sZAAwAFNhbXBsZXJfSEhBVF9QaXRjaEVudl9PZmZzZXRMZXZlbAAwLjUAU2FtcGxlcl9ISEFUX1BpdGNoRW52X1JlbGVhc2UAMABTYW1wbGVyX0hIQVRfUGl0Y2hFbnZfVmVsU2VucwAwAFNhbXBsZXJfSEhBVF9QaXRjaF9Db3Vyc2UAMC41AFNhbXBsZXJfSEhBVF9QaXRjaF9FbmFibGUAMABTYW1wbGVyX0hIQVRfUGl0Y2hfT0hSb29tT2Zmc2V0ADAuNQBTYW1wbGVyX0hIQVRfUmVzcG9uc2VFbmFibGUAMQBTYW1wbGVyX0hIQVRfUm9vbV9JbnZlcnQAMABTYW1wbGVyX0hIQVRfUm9vbV9MZXZlbAAwLjEyMDU2MjkzMwBTYW1wbGVyX0hIQVRfUm9vbV9QYW4AMC41AFNhbXBsZXJfSEhBVF9Sb29tX1dpZHRoADEAU2FtcGxlcl9ISEFUX1NvbG8AMABTYW1wbGVyX0hIQVRfVXNlQWx0cwAxAFNhbXBsZXJfSEhBVF9WZWxUb0ZsdAAwAFNhbXBsZXJfSEhBVF9WZWxUb1NhbXBsZUhpADEAU2FtcGxlcl9ISEFUX1ZlbFRvU2FtcGxlTG8AMC4xNTAwMDAwMDYAU2FtcGxlcl9ISEFUX1ZlbFRvVm9sADAuNQBTYW1wbGVyX0tJQ0tfQW1wRW52X0F0dGFjawAwAFNhbXBsZXJfS0lDS19BbXBFbnZfQXR0YWNrQ3VydmUAMC41AFNhbXBsZXJfS0lDS19BbXBFbnZfRGVjYXkAMABTYW1wbGVyX0tJQ0tfQW1wRW52X0RlY2F5Q3VydmUAMC4wMzExMjI4AFNhbXBsZXJfS0lDS19BbXBFbnZfRW5hYmxlADEAU2FtcGxlcl9LSUNLX0FtcEVudl9SZWxlYXNlADAuNjkzNzA4NjU4AFNhbXBsZXJfS0lDS19BbXBFbnZfUmVsZWFzZUN1cnZlADAuMDMxMTIyOABTYW1wbGVyX0tJQ0tfQW1wRW52X1N1c3RhaW5Ib2xkADAuOTA2OTk0NDAyAFNhbXBsZXJfS0lDS19BbXBFbnZfU3VzdGFpbkxldmVsADEAU2FtcGxlcl9LSUNLX0FtcEVudl9WZWwyQXR0YWNrADAAU2FtcGxlcl9LSUNLX0N1cnJlbnRFbnZFbmFibGUAMQBTYW1wbGVyX0tJQ0tfQ3VycmVudEVudlNlbGVjdGlvbgBPVERlc2lnbgBTYW1wbGVyX0tJQ0tfRVFfRW52X0N1cnZlADAuMDMxMTIyOABTYW1wbGVyX0tJQ0tfRVFfRW52X0luaXRpYWxMZXZlbAAwLjM4MDk1MjQxOABTYW1wbGVyX0tJQ0tfRVFfRW52X1JlbGVhc2VMZXZlbAAwLjQ5MjA2MzUyMgBTYW1wbGVyX0tJQ0tfRVFfRW52X1JlbGVhc2VUaW1lADAuNDQ4NDg0ODM4AFNhbXBsZXJfS0lDS19FbnZGaWx0ZXJzRW5hYmxlADEAU2FtcGxlcl9LSUNLX0ZpbHRlckhpTG9fRW5hYmxlADAAU2FtcGxlcl9LSUNLX0ZpbHRlckhpTG9fSGlGcmVxADEAU2FtcGxlcl9LSUNLX0ZpbHRlckhpTG9fTG9GcmVxADAAU2FtcGxlcl9LSUNLX0tpdFBpZWNlU2VsZWN0aW9uADEwMDEwMgBTYW1wbGVyX0tJQ0tfTGV2ZWwAMC43NTc5ODIzMTQAU2FtcGxlcl9LSUNLX01pY0JhbGFuY2UAMC4yMjUzNTIxMDgAU2FtcGxlcl9LSUNLX011dGUAMABTYW1wbGVyX0tJQ0tfT0hfSW52ZXJ0ADAAU2FtcGxlcl9LSUNLX09IX0xldmVsADAuNQBTYW1wbGVyX0tJQ0tfT0hfUGFuADAuNQBTYW1wbGVyX0tJQ0tfT0hfV2lkdGgAMQBTYW1wbGVyX0tJQ0tfUGl0Y2hFbnZfQ3VydmUAMC4wMzExMjI4AFNhbXBsZXJfS0lDS19QaXRjaEVudl9Ib2xkADAAU2FtcGxlcl9LSUNLX1BpdGNoRW52X09mZnNldExldmVsADAuNQBTYW1wbGVyX0tJQ0tfUGl0Y2hFbnZfUmVsZWFzZQAwAFNhbXBsZXJfS0lDS19QaXRjaEVudl9WZWxTZW5zADAAU2FtcGxlcl9LSUNLX1BpdGNoX0NvdXJzZQAwLjUAU2FtcGxlcl9LSUNLX1BpdGNoX0VuYWJsZQAwAFNhbXBsZXJfS0lDS19QaXRjaF9PSFJvb21PZmZzZXQAMC41AFNhbXBsZXJfS0lDS19SZXNwb25zZUVuYWJsZQAxAFNhbXBsZXJfS0lDS19Sb29tX0ludmVydAAwAFNhbXBsZXJfS0lDS19Sb29tX0xldmVsADAuMTUxODMxOTcAU2FtcGxlcl9LSUNLX1Jvb21fUGFuADAuNQBTYW1wbGVyX0tJQ0tfUm9vbV9XaWR0aAAxAFNhbXBsZXJfS0lDS19Tb2xvADAAU2FtcGxlcl9LSUNLX1VzZUFsdHMAMQBTYW1wbGVyX0tJQ0tfVmVsVG9GbHQAMABTYW1wbGVyX0tJQ0tfVmVsVG9TYW1wbGVIaQAxAFNhbXBsZXJfS0lDS19WZWxUb1NhbXBsZUxvADAuMTUwMDAwMDA2AFNhbXBsZXJfS0lDS19WZWxUb1ZvbAAwLjUAU2FtcGxlcl9QaXRjaEJlbmRSYW5nZURvd24ALTIAU2FtcGxlcl9QaXRjaEJlbmRSYW5nZVVwADIAU2FtcGxlcl9SSUQxX0FtcEVudl9BdHRhY2sAMABTYW1wbGVyX1JJRDFfQW1wRW52X0F0dGFja0N1cnZlADAuNQBTYW1wbGVyX1JJRDFfQW1wRW52X0RlY2F5ADAAU2FtcGxlcl9SSUQxX0FtcEVudl9EZWNheUN1cnZlADAuMDMxMTIyOABTYW1wbGVyX1JJRDFfQW1wRW52X0VuYWJsZQAwAFNhbXBsZXJfUklEMV9BbXBFbnZfUmVsZWFzZQAwLjY5MzcwODY1OABTYW1wbGVyX1JJRDFfQW1wRW52X1JlbGVhc2VDdXJ2ZQAwLjAzMTEyMjgAU2FtcGxlcl9SSUQxX0FtcEVudl9TdXN0YWluSG9sZAAwLjkwNjk5NDQwMgBTYW1wbGVyX1JJRDFfQW1wRW52X1N1c3RhaW5MZXZlbAAxAFNhbXBsZXJfUklEMV9BbXBFbnZfVmVsMkF0dGFjawAwAFNhbXBsZXJfUklEMV9DdXJyZW50RW52RW5hYmxlADAAU2FtcGxlcl9SSUQxX0N1cnJlbnRFbnZTZWxlY3Rpb24AUGl0Y2hFbnYAU2FtcGxlcl9SSUQxX0VRX0Vudl9DdXJ2ZQAwLjAzMTEyMjgAU2FtcGxlcl9SSUQxX0VRX0Vudl9Jbml0aWFsTGV2ZWwAMC43MTQyODU3MzEAU2FtcGxlcl9SSUQxX0VRX0Vudl9SZWxlYXNlTGV2ZWwAMC43MTQyODU3MzEAU2FtcGxlcl9SSUQxX0VRX0Vudl9SZWxlYXNlVGltZQAwAFNhbXBsZXJfUklEMV9FbnZGaWx0ZXJzRW5hYmxlADEAU2FtcGxlcl9SSUQxX0ZpbHRlckhpTG9fRW5hYmxlADAAU2FtcGxlcl9SSUQxX0ZpbHRlckhpTG9fSGlGcmVxADEAU2FtcGxlcl9SSUQxX0ZpbHRlckhpTG9fTG9GcmVxADAAU2FtcGxlcl9SSUQxX0tpdFBpZWNlU2VsZWN0aW9uADAAU2FtcGxlcl9SSUQxX0xldmVsADAuNzU3OTgyMzE0AFNhbXBsZXJfUklEMV9NaWNCYWxhbmNlADAuNQBTYW1wbGVyX1JJRDFfTXV0ZQAwAFNhbXBsZXJfUklEMV9PSF9JbnZlcnQAMABTYW1wbGVyX1JJRDFfT0hfTGV2ZWwAMC41AFNhbXBsZXJfUklEMV9PSF9QYW4AMC41AFNhbXBsZXJfUklEMV9PSF9XaWR0aAAxAFNhbXBsZXJfUklEMV9QaXRjaEVudl9DdXJ2ZQAwLjAzMTEyMjgAU2FtcGxlcl9SSUQxX1BpdGNoRW52X0hvbGQAMABTYW1wbGVyX1JJRDFfUGl0Y2hFbnZfT2Zmc2V0TGV2ZWwAMC41AFNhbXBsZXJfUklEMV9QaXRjaEVudl9SZWxlYXNlADAAU2FtcGxlcl9SSUQxX1BpdGNoRW52X1ZlbFNlbnMAMABTYW1wbGVyX1JJRDFfUGl0Y2hfQ291cnNlADAuNQBTYW1wbGVyX1JJRDFfUGl0Y2hfRW5hYmxlADAAU2FtcGxlcl9SSUQxX1BpdGNoX09IUm9vbU9mZnNldAAwLjUAU2FtcGxlcl9SSUQxX1Jlc3BvbnNlRW5hYmxlADEAU2FtcGxlcl9SSUQxX1Jvb21fSW52ZXJ0ADAAU2FtcGxlcl9SSUQxX1Jvb21fTGV2ZWwAMC4xMzQyNTI5MDYAU2FtcGxlcl9SSUQxX1Jvb21fUGFuADAuNQBTYW1wbGVyX1JJRDFfUm9vbV9XaWR0aAAxAFNhbXBsZXJfUklEMV9Tb2xvADAAU2FtcGxlcl9SSUQxX1VzZUFsdHMAMQBTYW1wbGVyX1JJRDFfVmVsVG9GbHQAMABTYW1wbGVyX1JJRDFfVmVsVG9TYW1wbGVIaQAxAFNhbXBsZXJfUklEMV9WZWxUb1NhbXBsZUxvADAuMTUwMDAwMDA2AFNhbXBsZXJfUklEMV9WZWxUb1ZvbAAwLjUAU2FtcGxlcl9SSUQyX0FtcEVudl9BdHRhY2sAMABTYW1wbGVyX1JJRDJfQW1wRW52X0F0dGFja0N1cnZlADAuNQBTYW1wbGVyX1JJRDJfQW1wRW52X0RlY2F5ADAAU2FtcGxlcl9SSUQyX0FtcEVudl9EZWNheUN1cnZlADAuMDMxMTIyOABTYW1wbGVyX1JJRDJfQW1wRW52X0VuYWJsZQAwAFNhbXBsZXJfUklEMl9BbXBFbnZfUmVsZWFzZQAxAFNhbXBsZXJfUklEMl9BbXBFbnZfUmVsZWFzZUN1cnZlADAuMDMxMTIyOABTYW1wbGVyX1JJRDJfQW1wRW52X1N1c3RhaW5Ib2xkADEAU2FtcGxlcl9SSUQyX0FtcEVudl9TdXN0YWluTGV2ZWwAMQBTYW1wbGVyX1JJRDJfQW1wRW52X1ZlbDJBdHRhY2sAMABTYW1wbGVyX1JJRDJfQ3VycmVudEVudkVuYWJsZQAwAFNhbXBsZXJfUklEMl9DdXJyZW50RW52U2VsZWN0aW9uAFBpdGNoRW52AFNhbXBsZXJfUklEMl9FUV9FbnZfQ3VydmUAMC4wMzExMjI4AFNhbXBsZXJfUklEMl9FUV9FbnZfSW5pdGlhbExldmVsADAuNzE0Mjg1NzMxAFNhbXBsZXJfUklEMl9FUV9FbnZfUmVsZWFzZUxldmVsADAuNzE0Mjg1NzMxAFNhbXBsZXJfUklEMl9FUV9FbnZfUmVsZWFzZVRpbWUAMABTYW1wbGVyX1JJRDJfRW52RmlsdGVyc0VuYWJsZQAxAFNhbXBsZXJfUklEMl9GaWx0ZXJIaUxvX0VuYWJsZQAwAFNhbXBsZXJfUklEMl9GaWx0ZXJIaUxvX0hpRnJlcQAxAFNhbXBsZXJfUklEMl9GaWx0ZXJIaUxvX0xvRnJlcQAwAFNhbXBsZXJfUklEMl9LaXRQaWVjZVNlbGVjdGlvbgAwAFNhbXBsZXJfUklEMl9MZXZlbAAwLjgwMDAwMDAxMgBTYW1wbGVyX1JJRDJfTWljQmFsYW5jZQAwLjUAU2FtcGxlcl9SSUQyX011dGUAMABTYW1wbGVyX1JJRDJfT0hfSW52ZXJ0ADAAU2FtcGxlcl9SSUQyX09IX0xldmVsADAuNQBTYW1wbGVyX1JJRDJfT0hfUGFuADAuNQBTYW1wbGVyX1JJRDJfT0hfV2lkdGgAMQBTYW1wbGVyX1JJRDJfUGl0Y2hFbnZfQ3VydmUAMC4wMzExMjI4AFNhbXBsZXJfUklEMl9QaXRjaEVudl9Ib2xkADAAU2FtcGxlcl9SSUQyX1BpdGNoRW52X09mZnNldExldmVsADAuNQBTYW1wbGVyX1JJRDJfUGl0Y2hFbnZfUmVsZWFzZQAwAFNhbXBsZXJfUklEMl9QaXRjaEVudl9WZWxTZW5zADAAU2FtcGxlcl9SSUQyX1BpdGNoX0NvdXJzZQAwLjUAU2FtcGxlcl9SSUQyX1BpdGNoX0VuYWJsZQAwAFNhbXBsZXJfUklEMl9QaXRjaF9PSFJvb21PZmZzZXQAMC41AFNhbXBsZXJfUklEMl9SZXNwb25zZUVuYWJsZQAxAFNhbXBsZXJfUklEMl9Sb29tX0ludmVydAAwAFNhbXBsZXJfUklEMl9Sb29tX0xldmVsADAuNQBTYW1wbGVyX1JJRDJfUm9vbV9QYW4AMC41AFNhbXBsZXJfUklEMl9Sb29tX1dpZHRoADEAU2FtcGxlcl9SSUQyX1NvbG8AMABTYW1wbGVyX1JJRDJfVXNlQWx0cwAxAFNhbXBsZXJfUklEMl9WZWxUb0ZsdAAwAFNhbXBsZXJfUklEMl9WZWxUb1NhbXBsZUhpADEAU2FtcGxlcl9SSUQyX1ZlbFRvU2FtcGxlTG8AMC4xNTAwMDAwMDYAU2FtcGxlcl9SSUQyX1ZlbFRvVm9sADAuNQBTYW1wbGVyX1NOQVJfQW1wRW52X0F0dGFjawAwAFNhbXBsZXJfU05BUl9BbXBFbnZfQXR0YWNrQ3VydmUAMC41AFNhbXBsZXJfU05BUl9BbXBFbnZfRGVjYXkAMABTYW1wbGVyX1NOQVJfQW1wRW52X0RlY2F5Q3VydmUAMC4wMzExMjI4AFNhbXBsZXJfU05BUl9BbXBFbnZfRW5hYmxlADEAU2FtcGxlcl9TTkFSX0FtcEVudl9SZWxlYXNlADAuMzkwNjg1Njc4AFNhbXBsZXJfU05BUl9BbXBFbnZfUmVsZWFzZUN1cnZlADAuMDMxMTIyOABTYW1wbGVyX1NOQVJfQW1wRW52X1N1c3RhaW5Ib2xkADAAU2FtcGxlcl9TTkFSX0FtcEVudl9TdXN0YWluTGV2ZWwAMQBTYW1wbGVyX1NOQVJfQW1wRW52X1ZlbDJBdHRhY2sAMABTYW1wbGVyX1NOQVJfQ3VycmVudEVudkVuYWJsZQAxAFNhbXBsZXJfU05BUl9DdXJyZW50RW52U2VsZWN0aW9uAE9URGVzaWduAFNhbXBsZXJfU05BUl9FUV9FbnZfQ3VydmUAMC4wMzExMjI4AFNhbXBsZXJfU05BUl9FUV9FbnZfSW5pdGlhbExldmVsADAuNjUwNzkzNjcyAFNhbXBsZXJfU05BUl9FUV9FbnZfUmVsZWFzZUxldmVsADEAU2FtcGxlcl9TTkFSX0VRX0Vudl9SZWxlYXNlVGltZQAxAFNhbXBsZXJfU05BUl9FbnZGaWx0ZXJzRW5hYmxlADEAU2FtcGxlcl9TTkFSX0ZpbHRlckhpTG9fRW5hYmxlADAAU2FtcGxlcl9TTkFSX0ZpbHRlckhpTG9fSGlGcmVxADEAU2FtcGxlcl9TTkFSX0ZpbHRlckhpTG9fTG9GcmVxADAAU2FtcGxlcl9TTkFSX0tpdFBpZWNlU2VsZWN0aW9uADEwMDIwMwBTYW1wbGVyX1NOQVJfTGV2ZWwAMC43NTc5ODIzMTQAU2FtcGxlcl9TTkFSX01pY0JhbGFuY2UAMC4zODAyODE2ODcAU2FtcGxlcl9TTkFSX011dGUAMABTYW1wbGVyX1NOQVJfT0hfSW52ZXJ0ADAAU2FtcGxlcl9TTkFSX09IX0xldmVsADAuNQBTYW1wbGVyX1NOQVJfT0hfUGFuADAuNQBTYW1wbGVyX1NOQVJfT0hfV2lkdGgAMQBTYW1wbGVyX1NOQVJfUGl0Y2hFbnZfQ3VydmUAMC4wMzExMjI4AFNhbXBsZXJfU05BUl9QaXRjaEVudl9Ib2xkADAAU2FtcGxlcl9TTkFSX1BpdGNoRW52X09mZnNldExldmVsADAuNQBTYW1wbGVyX1NOQVJfUGl0Y2hFbnZfUmVsZWFzZQAwAFNhbXBsZXJfU05BUl9QaXRjaEVudl9WZWxTZW5zADAAU2FtcGxlcl9TTkFSX1BpdGNoX0NvdXJzZQAwLjUAU2FtcGxlcl9TTkFSX1BpdGNoX0VuYWJsZQAwAFNhbXBsZXJfU05BUl9QaXRjaF9PSFJvb21PZmZzZXQAMC41AFNhbXBsZXJfU05BUl9SZXNwb25zZUVuYWJsZQAxAFNhbXBsZXJfU05BUl9Sb29tX0ludmVydAAwAFNhbXBsZXJfU05BUl9Sb29tX0xldmVsADAuMTUzMDE5MzY5AFNhbXBsZXJfU05BUl9Sb29tX1BhbgAwLjUAU2FtcGxlcl9TTkFSX1Jvb21fV2lkdGgAMQBTYW1wbGVyX1NOQVJfU29sbwAwAFNhbXBsZXJfU05BUl9Vc2VBbHRzADEAU2FtcGxlcl9TTkFSX1ZlbFRvRmx0ADAAU2FtcGxlcl9TTkFSX1ZlbFRvU2FtcGxlSGkAMQBTYW1wbGVyX1NOQVJfVmVsVG9TYW1wbGVMbwAwLjE1MDAwMDAwNgBTYW1wbGVyX1NOQVJfVmVsVG9Wb2wAMC41AFNhbXBsZXJfVE9NMV9BbXBFbnZfQXR0YWNrADAAU2FtcGxlcl9UT00xX0FtcEVudl9BdHRhY2tDdXJ2ZQAwLjUAU2FtcGxlcl9UT00xX0FtcEVudl9EZWNheQAwAFNhbXBsZXJfVE9NMV9BbXBFbnZfRGVjYXlDdXJ2ZQAwLjAzMTEyMjgAU2FtcGxlcl9UT00xX0FtcEVudl9FbmFibGUAMABTYW1wbGVyX1RPTTFfQW1wRW52X1JlbGVhc2UAMC42OTM3MDg2NTgAU2FtcGxlcl9UT00xX0FtcEVudl9SZWxlYXNlQ3VydmUAMC4wMzExMjI4AFNhbXBsZXJfVE9NMV9BbXBFbnZfU3VzdGFpbkhvbGQAMC45MDY5OTQ0MDIAU2FtcGxlcl9UT00xX0FtcEVudl9TdXN0YWluTGV2ZWwAMQBTYW1wbGVyX1RPTTFfQW1wRW52X1ZlbDJBdHRhY2sAMABTYW1wbGVyX1RPTTFfQ3VycmVudEVudkVuYWJsZQAwAFNhbXBsZXJfVE9NMV9DdXJyZW50RW52U2VsZWN0aW9uAFBpdGNoRW52AFNhbXBsZXJfVE9NMV9FUV9FbnZfQ3VydmUAMC4wMzExMjI4AFNhbXBsZXJfVE9NMV9FUV9FbnZfSW5pdGlhbExldmVsADAuNzE0Mjg1NzMxAFNhbXBsZXJfVE9NMV9FUV9FbnZfUmVsZWFzZUxldmVsADAuNzE0Mjg1NzMxAFNhbXBsZXJfVE9NMV9FUV9FbnZfUmVsZWFzZVRpbWUAMABTYW1wbGVyX1RPTTFfRW52RmlsdGVyc0VuYWJsZQAxAFNhbXBsZXJfVE9NMV9GaWx0ZXJIaUxvX0VuYWJsZQAwAFNhbXBsZXJfVE9NMV9GaWx0ZXJIaUxvX0hpRnJlcQAxAFNhbXBsZXJfVE9NMV9GaWx0ZXJIaUxvX0xvRnJlcQAwAFNhbXBsZXJfVE9NMV9LaXRQaWVjZVNlbGVjdGlvbgAwAFNhbXBsZXJfVE9NMV9MZXZlbAAwLjY1NDY0MjcwMQBTYW1wbGVyX1RPTTFfTWljQmFsYW5jZQAwLjUAU2FtcGxlcl9UT00xX011dGUAMABTYW1wbGVyX1RPTTFfT0hfSW52ZXJ0ADAAU2FtcGxlcl9UT00xX09IX0xldmVsADAuNQBTYW1wbGVyX1RPTTFfT0hfUGFuADAuNQBTYW1wbGVyX1RPTTFfT0hfV2lkdGgAMQBTYW1wbGVyX1RPTTFfUGl0Y2hFbnZfQ3VydmUAMC4wMzExMjI4AFNhbXBsZXJfVE9NMV9QaXRjaEVudl9Ib2xkADAAU2FtcGxlcl9UT00xX1BpdGNoRW52X09mZnNldExldmVsADAuNQBTYW1wbGVyX1RPTTFfUGl0Y2hFbnZfUmVsZWFzZQAwAFNhbXBsZXJfVE9NMV9QaXRjaEVudl9WZWxTZW5zADAAU2FtcGxlcl9UT00xX1BpdGNoX0NvdXJzZQAwLjUAU2FtcGxlcl9UT00xX1BpdGNoX0VuYWJsZQAwAFNhbXBsZXJfVE9NMV9QaXRjaF9PSFJvb21PZmZzZXQAMC41AFNhbXBsZXJfVE9NMV9SZXNwb25zZUVuYWJsZQAxAFNhbXBsZXJfVE9NMV9Sb29tX0ludmVydAAwAFNhbXBsZXJfVE9NMV9Sb29tX0xldmVsADAuMTg0MTU2Mzg4AFNhbXBsZXJfVE9NMV9Sb29tX1BhbgAwLjUAU2FtcGxlcl9UT00xX1Jvb21fV2lkdGgAMQBTYW1wbGVyX1RPTTFfU29sbwAwAFNhbXBsZXJfVE9NMV9Vc2VBbHRzADEAU2FtcGxlcl9UT00xX1ZlbFRvRmx0ADAAU2FtcGxlcl9UT00xX1ZlbFRvU2FtcGxlSGkAMQBTYW1wbGVyX1RPTTFfVmVsVG9TYW1wbGVMbwAwLjE1MDAwMDAwNgBTYW1wbGVyX1RPTTFfVmVsVG9Wb2wAMC41AFNhbXBsZXJfVE9NMl9BbXBFbnZfQXR0YWNrADAAU2FtcGxlcl9UT00yX0FtcEVudl9BdHRhY2tDdXJ2ZQAwLjUAU2FtcGxlcl9UT00yX0FtcEVudl9EZWNheQAwAFNhbXBsZXJfVE9NMl9BbXBFbnZfRGVjYXlDdXJ2ZQAwLjAzMTEyMjgAU2FtcGxlcl9UT00yX0FtcEVudl9FbmFibGUAMABTYW1wbGVyX1RPTTJfQW1wRW52X1JlbGVhc2UAMC42OTM3MDg2NTgAU2FtcGxlcl9UT00yX0FtcEVudl9SZWxlYXNlQ3VydmUAMC4wMzExMjI4AFNhbXBsZXJfVE9NMl9BbXBFbnZfU3VzdGFpbkhvbGQAMC45MDY5OTQ0MDIAU2FtcGxlcl9UT00yX0FtcEVudl9TdXN0YWluTGV2ZWwAMQBTYW1wbGVyX1RPTTJfQW1wRW52X1ZlbDJBdHRhY2sAMABTYW1wbGVyX1RPTTJfQ3VycmVudEVudkVuYWJsZQAwAFNhbXBsZXJfVE9NMl9DdXJyZW50RW52U2VsZWN0aW9uAFBpdGNoRW52AFNhbXBsZXJfVE9NMl9FUV9FbnZfQ3VydmUAMC4wMzExMjI4AFNhbXBsZXJfVE9NMl9FUV9FbnZfSW5pdGlhbExldmVsADAuNzE0Mjg1NzMxAFNhbXBsZXJfVE9NMl9FUV9FbnZfUmVsZWFzZUxldmVsADAuNzE0Mjg1NzMxAFNhbXBsZXJfVE9NMl9FUV9FbnZfUmVsZWFzZVRpbWUAMABTYW1wbGVyX1RPTTJfRW52RmlsdGVyc0VuYWJsZQAxAFNhbXBsZXJfVE9NMl9GaWx0ZXJIaUxvX0VuYWJsZQAwAFNhbXBsZXJfVE9NMl9GaWx0ZXJIaUxvX0hpRnJlcQAxAFNhbXBsZXJfVE9NMl9GaWx0ZXJIaUxvX0xvRnJlcQAwAFNhbXBsZXJfVE9NMl9LaXRQaWVjZVNlbGVjdGlvbgAwAFNhbXBsZXJfVE9NMl9MZXZlbAAwLjY2MDc1NDI2MwBTYW1wbGVyX1RPTTJfTWljQmFsYW5jZQAwLjUAU2FtcGxlcl9UT00yX011dGUAMABTYW1wbGVyX1RPTTJfT0hfSW52ZXJ0ADAAU2FtcGxlcl9UT00yX09IX0xldmVsADAuNQBTYW1wbGVyX1RPTTJfT0hfUGFuADAuNQBTYW1wbGVyX1RPTTJfT0hfV2lkdGgAMQBTYW1wbGVyX1RPTTJfUGl0Y2hFbnZfQ3VydmUAMC4wMzExMjI4AFNhbXBsZXJfVE9NMl9QaXRjaEVudl9Ib2xkADAAU2FtcGxlcl9UT00yX1BpdGNoRW52X09mZnNldExldmVsADAuNQBTYW1wbGVyX1RPTTJfUGl0Y2hFbnZfUmVsZWFzZQAwAFNhbXBsZXJfVE9NMl9QaXRjaEVudl9WZWxTZW5zADAAU2FtcGxlcl9UT00yX1BpdGNoX0NvdXJzZQAwLjUAU2FtcGxlcl9UT00yX1BpdGNoX0VuYWJsZQAwAFNhbXBsZXJfVE9NMl9QaXRjaF9PSFJvb21PZmZzZXQAMC41AFNhbXBsZXJfVE9NMl9SZXNwb25zZUVuYWJsZQAxAFNhbXBsZXJfVE9NMl9Sb29tX0ludmVydAAwAFNhbXBsZXJfVE9NMl9Sb29tX0xldmVsADAuMTg0MDk2MzM2AFNhbXBsZXJfVE9NMl9Sb29tX1BhbgAwLjUAU2FtcGxlcl9UT00yX1Jvb21fV2lkdGgAMQBTYW1wbGVyX1RPTTJfU29sbwAwAFNhbXBsZXJfVE9NMl9Vc2VBbHRzADEAU2FtcGxlcl9UT00yX1ZlbFRvRmx0ADAAU2FtcGxlcl9UT00yX1ZlbFRvU2FtcGxlSGkAMQBTYW1wbGVyX1RPTTJfVmVsVG9TYW1wbGVMbwAwLjE1MDAwMDAwNgBTYW1wbGVyX1RPTTJfVmVsVG9Wb2wAMC41AFNhbXBsZXJfVE9NM19BbXBFbnZfQXR0YWNrADAAU2FtcGxlcl9UT00zX0FtcEVudl9BdHRhY2tDdXJ2ZQAwLjUAU2FtcGxlcl9UT00zX0FtcEVudl9EZWNheQAwAFNhbXBsZXJfVE9NM19BbXBFbnZfRGVjYXlDdXJ2ZQAwLjAzMTEyMjgAU2FtcGxlcl9UT00zX0FtcEVudl9FbmFibGUAMABTYW1wbGVyX1RPTTNfQW1wRW52X1JlbGVhc2UAMC42OTM3MDg2NTgAU2FtcGxlcl9UT00zX0FtcEVudl9SZWxlYXNlQ3VydmUAMC4wMzExMjI4AFNhbXBsZXJfVE9NM19BbXBFbnZfU3VzdGFpbkhvbGQAMC4zMDQ4NTk1NDkAU2FtcGxlcl9UT00zX0FtcEVudl9TdXN0YWluTGV2ZWwAMQBTYW1wbGVyX1RPTTNfQW1wRW52X1ZlbDJBdHRhY2sAMABTYW1wbGVyX1RPTTNfQ3VycmVudEVudkVuYWJsZQAwAFNhbXBsZXJfVE9NM19DdXJyZW50RW52U2VsZWN0aW9uAFBpdGNoRW52AFNhbXBsZXJfVE9NM19FUV9FbnZfQ3VydmUAMC4wMzExMjI4AFNhbXBsZXJfVE9NM19FUV9FbnZfSW5pdGlhbExldmVsADAuNzE0Mjg1NzMxAFNhbXBsZXJfVE9NM19FUV9FbnZfUmVsZWFzZUxldmVsADAuNzE0Mjg1NzMxAFNhbXBsZXJfVE9NM19FUV9FbnZfUmVsZWFzZVRpbWUAMABTYW1wbGVyX1RPTTNfRW52RmlsdGVyc0VuYWJsZQAxAFNhbXBsZXJfVE9NM19GaWx0ZXJIaUxvX0VuYWJsZQAwAFNhbXBsZXJfVE9NM19GaWx0ZXJIaUxvX0hpRnJlcQAxAFNhbXBsZXJfVE9NM19GaWx0ZXJIaUxvX0xvRnJlcQAwAFNhbXBsZXJfVE9NM19LaXRQaWVjZVNlbGVjdGlvbgAwAFNhbXBsZXJfVE9NM19MZXZlbAAwLjc1Nzk4MjMxNABTYW1wbGVyX1RPTTNfTWljQmFsYW5jZQAwLjUAU2FtcGxlcl9UT00zX011dGUAMABTYW1wbGVyX1RPTTNfT0hfSW52ZXJ0ADAAU2FtcGxlcl9UT00zX09IX0xldmVsADAuNQBTYW1wbGVyX1RPTTNfT0hfUGFuADAuNQBTYW1wbGVyX1RPTTNfT0hfV2lkdGgAMQBTYW1wbGVyX1RPTTNfUGl0Y2hFbnZfQ3VydmUAMC4wMzExMjI4AFNhbXBsZXJfVE9NM19QaXRjaEVudl9Ib2xkADAAU2FtcGxlcl9UT00zX1BpdGNoRW52X09mZnNldExldmVsADAuNTU4ODIzNTI2AFNhbXBsZXJfVE9NM19QaXRjaEVudl9SZWxlYXNlADAuNDY1NzUzNDY2AFNhbXBsZXJfVE9NM19QaXRjaEVudl9WZWxTZW5zADAAU2FtcGxlcl9UT00zX1BpdGNoX0NvdXJzZQAwLjM5ODI4NjQwMgBTYW1wbGVyX1RPTTNfUGl0Y2hfRW5hYmxlADEAU2FtcGxlcl9UT00zX1BpdGNoX09IUm9vbU9mZnNldAAwLjM5ODI4NjQwMgBTYW1wbGVyX1RPTTNfUmVzcG9uc2VFbmFibGUAMQBTYW1wbGVyX1RPTTNfUm9vbV9JbnZlcnQAMABTYW1wbGVyX1RPTTNfUm9vbV9MZXZlbAAwLjE4Mzk2ODQyNQBTYW1wbGVyX1RPTTNfUm9vbV9QYW4AMC41AFNhbXBsZXJfVE9NM19Sb29tX1dpZHRoADEAU2FtcGxlcl9UT00zX1NvbG8AMABTYW1wbGVyX1RPTTNfVXNlQWx0cwAxAFNhbXBsZXJfVE9NM19WZWxUb0ZsdAAwAFNhbXBsZXJfVE9NM19WZWxUb1NhbXBsZUhpADEAU2FtcGxlcl9UT00zX1ZlbFRvU2FtcGxlTG8AMC4xNTAwMDAwMDYAU2FtcGxlcl9UT00zX1ZlbFRvVm9sADAuNQBTYW1wbGVyX1RPTTRfQW1wRW52X0F0dGFjawAwAFNhbXBsZXJfVE9NNF9BbXBFbnZfQXR0YWNrQ3VydmUAMC41AFNhbXBsZXJfVE9NNF9BbXBFbnZfRGVjYXkAMABTYW1wbGVyX1RPTTRfQW1wRW52X0RlY2F5Q3VydmUAMC4wMzExMjI4AFNhbXBsZXJfVE9NNF9BbXBFbnZfRW5hYmxlADAAU2FtcGxlcl9UT000X0FtcEVudl9SZWxlYXNlADAuNjkzNzA4NjU4AFNhbXBsZXJfVE9NNF9BbXBFbnZfUmVsZWFzZUN1cnZlADAuMDMxMTIyOABTYW1wbGVyX1RPTTRfQW1wRW52X1N1c3RhaW5Ib2xkADAuMzA0ODU5NTQ5AFNhbXBsZXJfVE9NNF9BbXBFbnZfU3VzdGFpbkxldmVsADEAU2FtcGxlcl9UT000X0FtcEVudl9WZWwyQXR0YWNrADAAU2FtcGxlcl9UT000X0N1cnJlbnRFbnZFbmFibGUAMABTYW1wbGVyX1RPTTRfQ3VycmVudEVudlNlbGVjdGlvbgBQaXRjaEVudgBTYW1wbGVyX1RPTTRfRVFfRW52X0N1cnZlADAuMDMxMTIyOABTYW1wbGVyX1RPTTRfRVFfRW52X0luaXRpYWxMZXZlbAAwLjcxNDI4NTczMQBTYW1wbGVyX1RPTTRfRVFfRW52X1JlbGVhc2VMZXZlbAAwLjcxNDI4NTczMQBTYW1wbGVyX1RPTTRfRVFfRW52X1JlbGVhc2VUaW1lADAAU2FtcGxlcl9UT000X0VudkZpbHRlcnNFbmFibGUAMQBTYW1wbGVyX1RPTTRfRmlsdGVySGlMb19FbmFibGUAMABTYW1wbGVyX1RPTTRfRmlsdGVySGlMb19IaUZyZXEAMQBTYW1wbGVyX1RPTTRfRmlsdGVySGlMb19Mb0ZyZXEAMABTYW1wbGVyX1RPTTRfS2l0UGllY2VTZWxlY3Rpb24AMABTYW1wbGVyX1RPTTRfTGV2ZWwAMC43NTc5ODIzMTQAU2FtcGxlcl9UT000X01pY0JhbGFuY2UAMC41AFNhbXBsZXJfVE9NNF9NdXRlADAAU2FtcGxlcl9UT000X09IX0ludmVydAAwAFNhbXBsZXJfVE9NNF9PSF9MZXZlbAAwLjUAU2FtcGxlcl9UT000X09IX1BhbgAwLjUAU2FtcGxlcl9UT000X09IX1dpZHRoADEAU2FtcGxlcl9UT000X1BpdGNoRW52X0N1cnZlADAuMDMxMTIyOABTYW1wbGVyX1RPTTRfUGl0Y2hFbnZfSG9sZAAwAFNhbXBsZXJfVE9NNF9QaXRjaEVudl9PZmZzZXRMZXZlbAAwLjUwOTgwMzg5MQBTYW1wbGVyX1RPTTRfUGl0Y2hFbnZfUmVsZWFzZQAwLjQ3NDg4NTg4MQBTYW1wbGVyX1RPTTRfUGl0Y2hFbnZfVmVsU2VucwAwAFNhbXBsZXJfVE9NNF9QaXRjaF9Db3Vyc2UAMC40MDQxMjYwNzgAU2FtcGxlcl9UT000X1BpdGNoX0VuYWJsZQAxAFNhbXBsZXJfVE9NNF9QaXRjaF9PSFJvb21PZmZzZXQAMC40MDQxMjYwNDgAU2FtcGxlcl9UT000X1Jlc3BvbnNlRW5hYmxlADEAU2FtcGxlcl9UT000X1Jvb21fSW52ZXJ0ADAAU2FtcGxlcl9UT000X1Jvb21fTGV2ZWwAMC4xODQ1Mzk3NjUAU2FtcGxlcl9UT000X1Jvb21fUGFuADAuNQBTYW1wbGVyX1RPTTRfUm9vbV9XaWR0aAAxAFNhbXBsZXJfVE9NNF9Tb2xvADAAU2FtcGxlcl9UT000X1VzZUFsdHMAMQBTYW1wbGVyX1RPTTRfVmVsVG9GbHQAMABTYW1wbGVyX1RPTTRfVmVsVG9TYW1wbGVIaQAxAFNhbXBsZXJfVE9NNF9WZWxUb1NhbXBsZUxvADAuMTUwMDAwMDA2AFNhbXBsZXJfVE9NNF9WZWxUb1ZvbAAwLjUAU2F2ZWRXaXRoQUQyVmVyc2lvbgAyLjEuMTQAU25hcmVCdXp6QW1vdW50ADAuNTA3MDQyMjI5AFNuYXJlQnV6ekFtb3VudEZMWDEAMC43NTc5ODIzMTQAU25hcmVCdXp6QW1vdW50RkxYMgAwLjc1Nzk4MjMxNABTbmFyZUJ1enpBbW91bnRGTFgzADAuNzU3OTgyMzE0AFNvdW5kSWRlYWxTYXZlADAuMjI4NDQ4MjcyAFN0YXRlQ29tcGF0aWJsZVByb2R1Y3RzAEFkZGljdGl2ZSBEcnVtcyAyLEtvbmdvAFN0YXRlSW5zdGFuY2VVVUlEADhlOGUyM2QwMDA1ZDRmOTU4ODNjMmRhMzVkYzc1MTc0AFN0YXRlUHJvZHVjdE5hbWUAQWRkaWN0aXZlIERydW1zIDIAVXNlSG9zdFRlbXBvR1NPZmYAMABVc2VIb3N0VGVtcG9HU09uADEAVXNlSG9zdFRlbXBvR1VJADAAVmVsb2NpdHlSYW5nZUJ5TWlkaUNDTnVtYmVyADE3AFZlbG9jaXR5UmFuZ2VCeU1pZGlDQ051bWJlckVuYWJsZQAwAFZvbHVtZUJ5TWlkaUNDTnVtYmVyADcAVm9sdW1lQnlNaWRpQ0NOdW1iZXJFbmFibGUAMABrZXlNYXBDdXJyZW50U2VsZWN0aW9uAEFEMiBTdGFuZGFyZC5BRDJNYXAAa2V5TWFwT3ZlcnJpZGVTZWxlY3Rpb25UZXh0AAA="/>
          </instrument>
          <eldata ftype="0" fcut="14000" fwet="0" fres="0.5">
            <elvol sustain="0.5" lpdel="0" userwavefile="" lshp="0" lspd_denominator="4" ctlenvamt="0" lspd_numerator="4" rel="0.1" lspd_syncmode="0" amt="0" dec="0.5" x100="0" lspd="0.1" latt="0" att="0" lamt="0" hold="0.5" pdel="0"/>
            <elcut sustain="0.5" lpdel="0" userwavefile="" lshp="0" lspd_denominator="4" ctlenvamt="0" lspd_numerator="4" rel="0.1" lspd_syncmode="0" amt="0" dec="0.5" x100="0" lspd="0.1" latt="0" att="0" lamt="0" hold="0.5" pdel="0"/>
            <elres sustain="0.5" lpdel="0" userwavefile="" lshp="0" lspd_denominator="4" ctlenvamt="0" lspd_numerator="4" rel="0.1" lspd_syncmode="0" amt="0" dec="0.5" x100="0" lspd="0.1" latt="0" att="0" lamt="0" hold="0.5" pdel="0"/>
          </eldata>
          <chordcreator chord-enabled="0" chord="0" chordrange="1"/>
          <arpeggiator arprange="1" arpskip="0" arptime_numerator="4" arpgate="100" arpmiss="0" arpdir="0" arpmode="0" arp="0" arptime_syncmode="0" arptime="200" arpcycle="0" arptime_denominator="4" arp-enabled="0"/>
          <midiport writable="0" inputcontroller="0" readable="0" inputchannel="0" fixedoutputnote="-1" outputprogram="1" fixedinputvelocity="-1" basevelocity="63" fixedoutputvelocity="-1" outputcontroller="0" outputchannel="1"/>
          <fxchain numofeffects="1" enabled="1">
            <effect autoquit_numerator="4" gate="0" wet="1" on="1" autoquit="1" name="ladspaeffect" autoquit_syncmode="0" autoquit_denominator="4">
              <ladspacontrols ports="4" link="1">
                <port00 link="1">
                  <data id="50788" value="10000" scale_type="log"/>
                </port00>
                <port01 data="0.761437" link="1"/>
                <port10>
                  <data id="50802" value="10000" scale_type="log"/>
                </port10>
                <port11 data="0.761437"/>
              </ladspacontrols>
              <key>
                <attribute value="butterworth_1902" name="file"/>
                <attribute value="buttlow_iir" name="plugin"/>
              </key>
            </effect>
          </fxchain>
        </instrumenttrack>
        <pattern steps="16" type="1" name="Snare drum" pos="0" muted="0">
          <note pan="0" vol="133" key="38" len="12" pos="48"/>
          <note pan="0" vol="133" key="36" len="12" pos="48"/>
          <note pan="0" vol="143" key="38" len="12" pos="144"/>
          <note pan="0" vol="143" key="36" len="12" pos="144"/>
        </pattern>
        <pattern steps="16" type="1" name="Snare drum" pos="12288" muted="0">
          <note pan="0" vol="100" key="38" len="12" pos="0"/>
          <note pan="0" vol="100" key="36" len="12" pos="0"/>
          <note pan="0" vol="129" key="38" len="12" pos="168"/>
          <note pan="0" vol="129" key="36" len="12" pos="168"/>
          <note pan="0" vol="129" key="38" len="12" pos="192"/>
          <note pan="0" vol="129" key="36" len="12" pos="192"/>
          <note pan="0" vol="129" key="38" len="12" pos="360"/>
          <note pan="0" vol="129" key="36" len="12" pos="360"/>
          <note pan="0" vol="129" key="38" len="12" pos="372"/>
          <note pan="0" vol="129" key="36" len="12" pos="372"/>
          <note pan="0" vol="129" key="38" len="12" pos="384"/>
          <note pan="0" vol="129" key="36" len="12" pos="384"/>
        </pattern>
        <pattern steps="16" type="1" name="Snare drum" pos="192" muted="0">
          <note pan="0" vol="133" key="38" len="12" pos="48"/>
          <note pan="0" vol="133" key="36" len="12" pos="48"/>
          <note pan="0" vol="143" key="38" len="12" pos="144"/>
          <note pan="0" vol="143" key="36" len="12" pos="144"/>
        </pattern>
        <pattern steps="16" type="1" name="Snare drum" pos="384" muted="0">
          <note pan="0" vol="133" key="38" len="12" pos="48"/>
          <note pan="0" vol="133" key="36" len="12" pos="48"/>
          <note pan="0" vol="143" key="38" len="12" pos="144"/>
          <note pan="0" vol="143" key="36" len="12" pos="144"/>
        </pattern>
        <pattern steps="16" type="1" name="Snare drum" pos="576" muted="0">
          <note pan="0" vol="133" key="38" len="12" pos="48"/>
          <note pan="0" vol="133" key="36" len="12" pos="48"/>
          <note pan="0" vol="143" key="38" len="12" pos="144"/>
          <note pan="0" vol="143" key="36" len="12" pos="144"/>
        </pattern>
        <pattern steps="16" type="1" name="Snare drum" pos="768" muted="0">
          <note pan="0" vol="133" key="38" len="12" pos="48"/>
          <note pan="0" vol="133" key="36" len="12" pos="48"/>
          <note pan="0" vol="143" key="38" len="12" pos="144"/>
          <note pan="0" vol="143" key="36" len="12" pos="144"/>
        </pattern>
        <pattern steps="16" type="1" name="Snare drum" pos="960" muted="0">
          <note pan="0" vol="133" key="38" len="12" pos="48"/>
          <note pan="0" vol="133" key="36" len="12" pos="48"/>
          <note pan="0" vol="143" key="38" len="12" pos="144"/>
          <note pan="0" vol="143" key="36" len="12" pos="144"/>
        </pattern>
        <pattern steps="16" type="1" name="Snare drum" pos="1152" muted="0">
          <note pan="0" vol="133" key="38" len="12" pos="48"/>
          <note pan="0" vol="133" key="36" len="12" pos="48"/>
          <note pan="0" vol="143" key="38" len="12" pos="144"/>
          <note pan="0" vol="143" key="36" len="12" pos="144"/>
        </pattern>
        <pattern steps="16" type="1" name="Snare drum" pos="1344" muted="0">
          <note pan="0" vol="133" key="38" len="12" pos="48"/>
          <note pan="0" vol="133" key="36" len="12" pos="48"/>
          <note pan="0" vol="143" key="38" len="12" pos="144"/>
          <note pan="0" vol="143" key="36" len="12" pos="144"/>
        </pattern>
        <pattern steps="16" type="1" name="Snare drum" pos="1536" muted="0">
          <note pan="0" vol="133" key="38" len="12" pos="48"/>
          <note pan="0" vol="133" key="36" len="12" pos="48"/>
          <note pan="0" vol="143" key="38" len="12" pos="144"/>
          <note pan="0" vol="143" key="36" len="12" pos="144"/>
        </pattern>
        <pattern steps="16" type="1" name="Snare drum" pos="1728" muted="0">
          <note pan="0" vol="133" key="38" len="12" pos="48"/>
          <note pan="0" vol="133" key="36" len="12" pos="48"/>
          <note pan="0" vol="143" key="38" len="12" pos="144"/>
          <note pan="0" vol="143" key="36" len="12" pos="144"/>
        </pattern>
        <pattern steps="16" type="1" name="Snare drum" pos="2112" muted="0">
          <note pan="0" vol="133" key="38" len="12" pos="48"/>
          <note pan="0" vol="133" key="36" len="12" pos="48"/>
          <note pan="0" vol="143" key="38" len="12" pos="144"/>
          <note pan="0" vol="143" key="36" len="12" pos="144"/>
        </pattern>
        <pattern steps="16" type="1" name="Snare drum" pos="1920" muted="0">
          <note pan="0" vol="133" key="38" len="12" pos="48"/>
          <note pan="0" vol="133" key="36" len="12" pos="48"/>
          <note pan="0" vol="143" key="38" len="12" pos="144"/>
          <note pan="0" vol="143" key="36" len="12" pos="144"/>
        </pattern>
        <pattern steps="16" type="1" name="Snare drum" pos="2304" muted="0">
          <note pan="0" vol="133" key="38" len="12" pos="48"/>
          <note pan="0" vol="133" key="36" len="12" pos="48"/>
          <note pan="0" vol="143" key="38" len="12" pos="144"/>
          <note pan="0" vol="143" key="36" len="12" pos="144"/>
        </pattern>
        <pattern steps="16" type="1" name="Snare drum" pos="2496" muted="0">
          <note pan="0" vol="133" key="38" len="12" pos="48"/>
          <note pan="0" vol="133" key="36" len="12" pos="48"/>
          <note pan="0" vol="143" key="38" len="12" pos="144"/>
          <note pan="0" vol="143" key="36" len="12" pos="144"/>
        </pattern>
        <pattern steps="16" type="1" name="Snare drum" pos="2880" muted="0">
          <note pan="0" vol="133" key="38" len="12" pos="48"/>
          <note pan="0" vol="133" key="36" len="12" pos="48"/>
          <note pan="0" vol="143" key="38" len="12" pos="144"/>
          <note pan="0" vol="143" key="36" len="12" pos="144"/>
        </pattern>
        <pattern steps="16" type="1" name="Snare drum" pos="2688" muted="0">
          <note pan="0" vol="133" key="38" len="12" pos="48"/>
          <note pan="0" vol="133" key="36" len="12" pos="48"/>
          <note pan="0" vol="143" key="38" len="12" pos="144"/>
          <note pan="0" vol="143" key="36" len="12" pos="144"/>
        </pattern>
        <pattern steps="16" type="1" name="Snare drum" pos="3072" muted="0">
          <note pan="0" vol="133" key="38" len="12" pos="48"/>
          <note pan="0" vol="133" key="36" len="12" pos="48"/>
          <note pan="0" vol="143" key="38" len="12" pos="144"/>
          <note pan="0" vol="143" key="36" len="12" pos="144"/>
        </pattern>
        <pattern steps="16" type="1" name="Snare drum" pos="3264" muted="0">
          <note pan="0" vol="133" key="38" len="12" pos="48"/>
          <note pan="0" vol="133" key="36" len="12" pos="48"/>
          <note pan="0" vol="143" key="38" len="12" pos="144"/>
          <note pan="0" vol="143" key="36" len="12" pos="144"/>
        </pattern>
        <pattern steps="16" type="1" name="Snare drum" pos="3456" muted="0">
          <note pan="0" vol="133" key="38" len="12" pos="48"/>
          <note pan="0" vol="133" key="36" len="12" pos="48"/>
          <note pan="0" vol="143" key="38" len="12" pos="144"/>
          <note pan="0" vol="143" key="36" len="12" pos="144"/>
        </pattern>
        <pattern steps="16" type="1" name="Snare drum" pos="3648" muted="0">
          <note pan="0" vol="133" key="38" len="12" pos="48"/>
          <note pan="0" vol="133" key="36" len="12" pos="48"/>
          <note pan="0" vol="143" key="38" len="12" pos="144"/>
          <note pan="0" vol="143" key="36" len="12" pos="144"/>
        </pattern>
        <pattern steps="16" type="1" name="Snare drum" pos="3840" muted="0">
          <note pan="0" vol="133" key="38" len="12" pos="48"/>
          <note pan="0" vol="133" key="36" len="12" pos="48"/>
          <note pan="0" vol="143" key="38" len="12" pos="144"/>
          <note pan="0" vol="143" key="36" len="12" pos="144"/>
        </pattern>
        <pattern steps="16" type="1" name="Snare drum" pos="4032" muted="0">
          <note pan="0" vol="133" key="38" len="12" pos="48"/>
          <note pan="0" vol="133" key="36" len="12" pos="48"/>
          <note pan="0" vol="143" key="38" len="12" pos="144"/>
          <note pan="0" vol="143" key="36" len="12" pos="144"/>
        </pattern>
        <pattern steps="16" type="1" name="Snare drum" pos="4224" muted="0">
          <note pan="0" vol="133" key="38" len="12" pos="48"/>
          <note pan="0" vol="133" key="36" len="12" pos="48"/>
          <note pan="0" vol="143" key="38" len="12" pos="144"/>
          <note pan="0" vol="143" key="36" len="12" pos="144"/>
        </pattern>
        <pattern steps="16" type="1" name="Snare drum" pos="4416" muted="0">
          <note pan="0" vol="133" key="38" len="12" pos="48"/>
          <note pan="0" vol="133" key="36" len="12" pos="48"/>
          <note pan="0" vol="143" key="38" len="12" pos="144"/>
          <note pan="0" vol="143" key="36" len="12" pos="144"/>
        </pattern>
        <pattern steps="16" type="1" name="Snare drum" pos="4800" muted="0">
          <note pan="0" vol="133" key="38" len="12" pos="48"/>
          <note pan="0" vol="133" key="36" len="12" pos="48"/>
          <note pan="0" vol="143" key="38" len="12" pos="144"/>
          <note pan="0" vol="143" key="36" len="12" pos="144"/>
        </pattern>
        <pattern steps="16" type="1" name="Snare drum" pos="4608" muted="0">
          <note pan="0" vol="133" key="38" len="12" pos="48"/>
          <note pan="0" vol="133" key="36" len="12" pos="48"/>
          <note pan="0" vol="143" key="38" len="12" pos="144"/>
          <note pan="0" vol="143" key="36" len="12" pos="144"/>
        </pattern>
        <pattern steps="16" type="1" name="Snare drum" pos="4992" muted="0">
          <note pan="0" vol="133" key="38" len="12" pos="48"/>
          <note pan="0" vol="133" key="36" len="12" pos="48"/>
          <note pan="0" vol="143" key="38" len="12" pos="144"/>
          <note pan="0" vol="143" key="36" len="12" pos="144"/>
        </pattern>
        <pattern steps="16" type="1" name="Snare drum" pos="5376" muted="0">
          <note pan="0" vol="133" key="38" len="12" pos="48"/>
          <note pan="0" vol="133" key="36" len="12" pos="48"/>
          <note pan="0" vol="143" key="38" len="12" pos="144"/>
          <note pan="0" vol="143" key="36" len="12" pos="144"/>
        </pattern>
        <pattern steps="16" type="1" name="Snare drum" pos="5184" muted="0">
          <note pan="0" vol="133" key="38" len="12" pos="48"/>
          <note pan="0" vol="133" key="36" len="12" pos="48"/>
          <note pan="0" vol="143" key="38" len="12" pos="144"/>
          <note pan="0" vol="143" key="36" len="12" pos="144"/>
        </pattern>
        <pattern steps="16" type="1" name="Snare drum" pos="5568" muted="0">
          <note pan="0" vol="133" key="38" len="12" pos="48"/>
          <note pan="0" vol="133" key="36" len="12" pos="48"/>
          <note pan="0" vol="143" key="38" len="12" pos="144"/>
          <note pan="0" vol="143" key="36" len="12" pos="144"/>
        </pattern>
        <pattern steps="16" type="1" name="Snare drum" pos="5760" muted="0">
          <note pan="0" vol="133" key="38" len="12" pos="48"/>
          <note pan="0" vol="133" key="36" len="12" pos="48"/>
          <note pan="0" vol="143" key="38" len="12" pos="144"/>
          <note pan="0" vol="143" key="36" len="12" pos="144"/>
        </pattern>
        <pattern steps="16" type="1" name="Snare drum" pos="5952" muted="0">
          <note pan="0" vol="133" key="38" len="12" pos="48"/>
          <note pan="0" vol="133" key="36" len="12" pos="48"/>
          <note pan="0" vol="143" key="38" len="12" pos="144"/>
          <note pan="0" vol="143" key="36" len="12" pos="144"/>
        </pattern>
        <pattern steps="16" type="1" name="Snare drum" pos="6144" muted="0">
          <note pan="0" vol="133" key="38" len="12" pos="48"/>
          <note pan="0" vol="133" key="36" len="12" pos="48"/>
          <note pan="0" vol="143" key="38" len="12" pos="144"/>
          <note pan="0" vol="143" key="36" len="12" pos="144"/>
        </pattern>
        <pattern steps="16" type="1" name="Snare drum" pos="6336" muted="0">
          <note pan="0" vol="133" key="38" len="12" pos="48"/>
          <note pan="0" vol="133" key="36" len="12" pos="48"/>
          <note pan="0" vol="143" key="38" len="12" pos="144"/>
          <note pan="0" vol="143" key="36" len="12" pos="144"/>
        </pattern>
        <pattern steps="16" type="1" name="Snare drum" pos="6720" muted="0">
          <note pan="0" vol="133" key="38" len="12" pos="48"/>
          <note pan="0" vol="133" key="36" len="12" pos="48"/>
          <note pan="0" vol="143" key="38" len="12" pos="144"/>
          <note pan="0" vol="143" key="36" len="12" pos="144"/>
        </pattern>
        <pattern steps="16" type="1" name="Snare drum" pos="6528" muted="0">
          <note pan="0" vol="133" key="38" len="12" pos="48"/>
          <note pan="0" vol="133" key="36" len="12" pos="48"/>
          <note pan="0" vol="143" key="38" len="12" pos="144"/>
          <note pan="0" vol="143" key="36" len="12" pos="144"/>
        </pattern>
        <pattern steps="16" type="1" name="Snare drum" pos="6912" muted="0">
          <note pan="0" vol="133" key="38" len="12" pos="48"/>
          <note pan="0" vol="133" key="36" len="12" pos="48"/>
          <note pan="0" vol="143" key="38" len="12" pos="144"/>
          <note pan="0" vol="143" key="36" len="12" pos="144"/>
        </pattern>
        <pattern steps="16" type="1" name="Snare drum" pos="7296" muted="0">
          <note pan="0" vol="133" key="38" len="12" pos="48"/>
          <note pan="0" vol="133" key="36" len="12" pos="48"/>
          <note pan="0" vol="143" key="38" len="12" pos="144"/>
          <note pan="0" vol="143" key="36" len="12" pos="144"/>
        </pattern>
        <pattern steps="16" type="1" name="Snare drum" pos="7104" muted="0">
          <note pan="0" vol="133" key="38" len="12" pos="48"/>
          <note pan="0" vol="133" key="36" len="12" pos="48"/>
          <note pan="0" vol="143" key="38" len="12" pos="144"/>
          <note pan="0" vol="143" key="36" len="12" pos="144"/>
        </pattern>
        <pattern steps="16" type="1" name="Snare drum" pos="7488" muted="0">
          <note pan="0" vol="133" key="38" len="12" pos="48"/>
          <note pan="0" vol="133" key="36" len="12" pos="48"/>
          <note pan="0" vol="143" key="38" len="12" pos="144"/>
          <note pan="0" vol="143" key="36" len="12" pos="144"/>
        </pattern>
        <pattern steps="16" type="1" name="Snare drum" pos="7680" muted="0">
          <note pan="0" vol="133" key="38" len="12" pos="48"/>
          <note pan="0" vol="133" key="36" len="12" pos="48"/>
          <note pan="0" vol="143" key="38" len="12" pos="144"/>
          <note pan="0" vol="143" key="36" len="12" pos="144"/>
        </pattern>
        <pattern steps="16" type="1" name="Snare drum" pos="7872" muted="0">
          <note pan="0" vol="133" key="38" len="12" pos="48"/>
          <note pan="0" vol="133" key="36" len="12" pos="48"/>
          <note pan="0" vol="143" key="38" len="12" pos="144"/>
          <note pan="0" vol="143" key="36" len="12" pos="144"/>
        </pattern>
        <pattern steps="16" type="1" name="Snare drum" pos="8256" muted="0">
          <note pan="0" vol="133" key="38" len="12" pos="48"/>
          <note pan="0" vol="133" key="36" len="12" pos="48"/>
          <note pan="0" vol="143" key="38" len="12" pos="144"/>
          <note pan="0" vol="143" key="36" len="12" pos="144"/>
        </pattern>
        <pattern steps="16" type="1" name="Snare drum" pos="8064" muted="0">
          <note pan="0" vol="133" key="38" len="12" pos="48"/>
          <note pan="0" vol="133" key="36" len="12" pos="48"/>
          <note pan="0" vol="143" key="38" len="12" pos="144"/>
          <note pan="0" vol="143" key="36" len="12" pos="144"/>
        </pattern>
        <pattern steps="16" type="1" name="Snare drum" pos="8448" muted="0">
          <note pan="0" vol="133" key="38" len="12" pos="48"/>
          <note pan="0" vol="133" key="36" len="12" pos="48"/>
          <note pan="0" vol="143" key="38" len="12" pos="144"/>
          <note pan="0" vol="143" key="36" len="12" pos="144"/>
        </pattern>
        <pattern steps="16" type="1" name="Snare drum" pos="8640" muted="0">
          <note pan="0" vol="133" key="38" len="12" pos="48"/>
          <note pan="0" vol="133" key="36" len="12" pos="48"/>
          <note pan="0" vol="143" key="38" len="12" pos="144"/>
          <note pan="0" vol="143" key="36" len="12" pos="144"/>
        </pattern>
        <pattern steps="16" type="1" name="Snare drum" pos="8832" muted="0">
          <note pan="0" vol="133" key="38" len="12" pos="48"/>
          <note pan="0" vol="133" key="36" len="12" pos="48"/>
          <note pan="0" vol="143" key="38" len="12" pos="144"/>
          <note pan="0" vol="143" key="36" len="12" pos="144"/>
        </pattern>
        <pattern steps="16" type="1" name="Snare drum" pos="9024" muted="0">
          <note pan="0" vol="133" key="38" len="12" pos="48"/>
          <note pan="0" vol="133" key="36" len="12" pos="48"/>
          <note pan="0" vol="143" key="38" len="12" pos="144"/>
          <note pan="0" vol="143" key="36" len="12" pos="144"/>
        </pattern>
        <pattern steps="16" type="1" name="Snare drum" pos="9216" muted="0">
          <note pan="0" vol="133" key="38" len="12" pos="48"/>
          <note pan="0" vol="133" key="36" len="12" pos="48"/>
          <note pan="0" vol="143" key="38" len="12" pos="144"/>
          <note pan="0" vol="143" key="36" len="12" pos="144"/>
        </pattern>
        <pattern steps="16" type="1" name="Snare drum" pos="9408" muted="0">
          <note pan="0" vol="133" key="38" len="12" pos="48"/>
          <note pan="0" vol="133" key="36" len="12" pos="48"/>
          <note pan="0" vol="143" key="38" len="12" pos="144"/>
          <note pan="0" vol="143" key="36" len="12" pos="144"/>
        </pattern>
        <pattern steps="16" type="1" name="Snare drum" pos="9600" muted="0">
          <note pan="0" vol="133" key="38" len="12" pos="48"/>
          <note pan="0" vol="133" key="36" len="12" pos="48"/>
          <note pan="0" vol="143" key="38" len="12" pos="144"/>
          <note pan="0" vol="143" key="36" len="12" pos="144"/>
        </pattern>
        <pattern steps="16" type="1" name="Snare drum" pos="9792" muted="0">
          <note pan="0" vol="133" key="38" len="12" pos="48"/>
          <note pan="0" vol="133" key="36" len="12" pos="48"/>
          <note pan="0" vol="143" key="38" len="12" pos="144"/>
          <note pan="0" vol="143" key="36" len="12" pos="144"/>
        </pattern>
        <pattern steps="16" type="1" name="Snare drum" pos="9984" muted="0">
          <note pan="0" vol="133" key="38" len="12" pos="48"/>
          <note pan="0" vol="133" key="36" len="12" pos="48"/>
          <note pan="0" vol="143" key="38" len="12" pos="144"/>
          <note pan="0" vol="143" key="36" len="12" pos="144"/>
        </pattern>
        <pattern steps="16" type="1" name="Snare drum" pos="10176" muted="0">
          <note pan="0" vol="133" key="38" len="12" pos="48"/>
          <note pan="0" vol="133" key="36" len="12" pos="48"/>
          <note pan="0" vol="143" key="38" len="12" pos="144"/>
          <note pan="0" vol="143" key="36" len="12" pos="144"/>
        </pattern>
        <pattern steps="16" type="1" name="Snare drum" pos="10368" muted="0">
          <note pan="0" vol="133" key="38" len="12" pos="48"/>
          <note pan="0" vol="133" key="36" len="12" pos="48"/>
          <note pan="0" vol="143" key="38" len="12" pos="144"/>
          <note pan="0" vol="143" key="36" len="12" pos="144"/>
        </pattern>
        <pattern steps="16" type="1" name="Snare drum" pos="10560" muted="0">
          <note pan="0" vol="133" key="38" len="12" pos="48"/>
          <note pan="0" vol="133" key="36" len="12" pos="48"/>
          <note pan="0" vol="143" key="38" len="12" pos="144"/>
          <note pan="0" vol="143" key="36" len="12" pos="144"/>
        </pattern>
        <pattern steps="16" type="1" name="Snare drum" pos="10752" muted="0">
          <note pan="0" vol="133" key="38" len="12" pos="48"/>
          <note pan="0" vol="133" key="36" len="12" pos="48"/>
          <note pan="0" vol="143" key="38" len="12" pos="144"/>
          <note pan="0" vol="143" key="36" len="12" pos="144"/>
        </pattern>
        <pattern steps="16" type="1" name="Snare drum" pos="10944" muted="0">
          <note pan="0" vol="133" key="38" len="12" pos="48"/>
          <note pan="0" vol="133" key="36" len="12" pos="48"/>
          <note pan="0" vol="143" key="38" len="12" pos="144"/>
          <note pan="0" vol="143" key="36" len="12" pos="144"/>
        </pattern>
        <pattern steps="16" type="1" name="Snare drum" pos="11136" muted="0">
          <note pan="0" vol="133" key="38" len="12" pos="48"/>
          <note pan="0" vol="133" key="36" len="12" pos="48"/>
          <note pan="0" vol="143" key="38" len="12" pos="144"/>
          <note pan="0" vol="143" key="36" len="12" pos="144"/>
        </pattern>
        <pattern steps="16" type="1" name="Snare drum" pos="11328" muted="0">
          <note pan="0" vol="133" key="38" len="12" pos="48"/>
          <note pan="0" vol="133" key="36" len="12" pos="48"/>
          <note pan="0" vol="143" key="38" len="12" pos="144"/>
          <note pan="0" vol="143" key="36" len="12" pos="144"/>
        </pattern>
        <pattern steps="16" type="1" name="Snare drum" pos="11520" muted="0">
          <note pan="0" vol="133" key="38" len="12" pos="48"/>
          <note pan="0" vol="133" key="36" len="12" pos="48"/>
          <note pan="0" vol="143" key="38" len="12" pos="144"/>
          <note pan="0" vol="143" key="36" len="12" pos="144"/>
        </pattern>
        <pattern steps="16" type="1" name="Snare drum" pos="11712" muted="0">
          <note pan="0" vol="133" key="38" len="12" pos="48"/>
          <note pan="0" vol="133" key="36" len="12" pos="48"/>
          <note pan="0" vol="143" key="38" len="12" pos="144"/>
          <note pan="0" vol="143" key="36" len="12" pos="144"/>
        </pattern>
        <pattern steps="16" type="1" name="Snare drum" pos="11904" muted="0">
          <note pan="0" vol="133" key="38" len="12" pos="48"/>
          <note pan="0" vol="133" key="36" len="12" pos="48"/>
          <note pan="0" vol="143" key="38" len="12" pos="144"/>
          <note pan="0" vol="143" key="36" len="12" pos="144"/>
        </pattern>
        <pattern steps="16" type="1" name="Snare drum" pos="12096" muted="0">
          <note pan="0" vol="133" key="38" len="12" pos="48"/>
          <note pan="0" vol="133" key="36" len="12" pos="48"/>
          <note pan="0" vol="143" key="38" len="12" pos="144"/>
          <note pan="0" vol="143" key="36" len="12" pos="144"/>
        </pattern>
      </track>
    </trackcontainer>
    <track solo="0" type="6" name="Automation track" muted="0">
      <automationtrack/>
      <automationpattern tens="1" name="Numerator" mute="0" pos="0" len="192" prog="0"/>
      <automationpattern tens="1" name="Denominator" mute="0" pos="0" len="192" prog="0"/>
      <automationpattern tens="1" name="Tempo" mute="0" pos="0" len="192" prog="0"/>
      <automationpattern tens="1" name="Master volume" mute="0" pos="0" len="192" prog="0"/>
      <automationpattern tens="1" name="Master pitch" mute="0" pos="0" len="192" prog="0"/>
      <automationpattern tens="1" name="Numerator" mute="0" pos="0" len="192" prog="0"/>
      <automationpattern tens="1" name="Denominator" mute="0" pos="0" len="192" prog="0"/>
      <automationpattern tens="1" name="Tempo" mute="0" pos="0" len="192" prog="0"/>
      <automationpattern tens="1" name="Master volume" mute="0" pos="0" len="192" prog="0"/>
      <automationpattern tens="1" name="Master pitch" mute="0" pos="0" len="192" prog="0"/>
      <automationpattern tens="1" name="Numerator" mute="0" pos="0" len="0" prog="0">
        <time value="4" pos="0"/>
        <object id="7824"/>
      </automationpattern>
      <automationpattern tens="1" name="Denominator" mute="0" pos="0" len="0" prog="0">
        <time value="4" pos="0"/>
        <object id="19574"/>
      </automationpattern>
      <automationpattern tens="1" name="Tempo" mute="0" pos="0" len="0" prog="0">
        <time value="105" pos="0"/>
        <object id="24925"/>
      </automationpattern>
    </track>
    <fxmixer y="552" visible="0" maximized="0" x="479" height="333" width="561" minimized="0">
      <fxchannel num="0" soloed="0" name="Master" volume="1" muted="0">
        <fxchain numofeffects="4" enabled="1">
          <effect autoquit_numerator="4" gate="0" wet="1" on="1" autoquit="1" name="ladspaeffect" autoquit_syncmode="0" autoquit_denominator="4">
            <ladspacontrols ports="4" link="1">
              <port00 link="1">
                <data id="12154" value="20" scale_type="log"/>
              </port00>
              <port01 data="0.755" link="1"/>
              <port10>
                <data id="28525" value="20" scale_type="log"/>
              </port10>
              <port11 data="0.755"/>
            </ladspacontrols>
            <key>
              <attribute value="butterworth_1902" name="file"/>
              <attribute value="butthigh_iir" name="plugin"/>
            </key>
          </effect>
          <effect autoquit_numerator="4" gate="0" wet="1" on="1" autoquit="1" name="ladspaeffect" autoquit_syncmode="0" autoquit_denominator="4">
            <ladspacontrols ports="4" link="1">
              <port00 link="1">
                <data id="11155" value="4.41" scale_type="log"/>
              </port00>
              <port01 data="1" link="1"/>
              <port10>
                <data id="20975" value="4.41" scale_type="log"/>
              </port10>
              <port11 data="1"/>
            </ladspacontrols>
            <key>
              <attribute value="highpass_iir_1890" name="file"/>
              <attribute value="highpass_iir" name="plugin"/>
            </key>
          </effect>
          <effect autoquit_numerator="4" gate="0" wet="1" on="1" autoquit="1" name="amplifier" autoquit_syncmode="0" autoquit_denominator="4">
            <AmplifierControls pan="0" right="100" left="100">
              <volume id="13233" value="98.6" scale_type="linear"/>
            </AmplifierControls>
            <key/>
          </effect>
          <effect autoquit_numerator="4" gate="0" wet="1" on="0" autoquit="1" name="ladspaeffect" autoquit_syncmode="0" autoquit_denominator="4">
            <ladspacontrols ports="8">
              <port04 data="0"/>
              <port05 data="3.92"/>
              <port06 data="1.2"/>
              <port015 data="1"/>
              <port016 data="5.7915"/>
              <port017>
                <data id="785" value="72.927" scale_type="log"/>
              </port017>
              <port019 data="1"/>
              <port021 data="0.5"/>
            </ladspacontrols>
            <key>
              <attribute value="calf" name="file"/>
              <attribute value="Limiter" name="plugin"/>
            </key>
          </effect>
        </fxchain>
      </fxchannel>
    </fxmixer>
    <ControllerRackView y="407" visible="1" maximized="0" x="836" height="200" width="350" minimized="0"/>
    <pianoroll y="437" visible="0" maximized="1" x="951" height="734" width="860" minimized="0"/>
    <automationeditor y="410" visible="0" maximized="1" x="648" height="682" width="1165" minimized="0"/>
    <projectnotes y="1" visible="0" maximized="0" x="1" height="400" width="686" minimized="0"><![CDATA[<!DOCTYPE HTML PUBLIC "-//W3C//DTD HTML 4.0//EN" "http://www.w3.org/TR/REC-html40/strict.dtd">
<html><head><meta name="qrichtext" content="1" /><style type="text/css">
p, li { white-space: pre-wrap; }
</style></head><body style=" font-family:'MS Shell Dlg 2'; font-size:8.25pt; font-weight:400; font-style:normal;">
<p style=" margin-top:0px; margin-bottom:0px; margin-left:0px; margin-right:0px; -qt-block-indent:0; text-indent:0px;"><span style=" color:#e0e0e0;">Title: Bust a Move</span></p>
<p style=" margin-top:0px; margin-bottom:0px; margin-left:0px; margin-right:0px; -qt-block-indent:0; text-indent:0px;"><span style=" color:#e0e0e0;">Composer: Martin Gulliksson</span></p>
<p style=" margin-top:0px; margin-bottom:0px; margin-left:0px; margin-right:0px; -qt-block-indent:0; text-indent:0px;"><span style=" color:#e0e0e0;">Year: 2021</span></p>
<p style=" margin-top:0px; margin-bottom:0px; margin-left:0px; margin-right:0px; -qt-block-indent:0; text-indent:0px;"><span style=" color:#e0e0e0;">License: CC BY-SA 4.0</span></p></body></html>]]></projectnotes>
    <timeline lp1pos="192" lp0pos="0" lpstate="0"/>
    <controllers/>
  </song>
</lmms-project>
