<?xml version="1.0"?>
<!DOCTYPE lmms-project>
<lmms-project creator="LMMS" type="song" version="1.0" creatorversion="1.2.2">
  <head mastervol="100" masterpitch="0">
    <bpm id="24925" scale_type="linear" value="92"/>
    <timesig_numerator id="7824" scale_type="linear" value="4"/>
    <timesig_denominator id="19574" scale_type="linear" value="4"/>
  </head>
  <song>
    <trackcontainer minimized="0" height="459" type="song" visible="1" x="172" maximized="1" y="658" width="910">
      <track type="0" muted="0" solo="0" name="Lead 1">
        <instrumenttrack basenote="57" pitch="0" pitchrange="2" fxch="2" vol="166.4" pan="0" usemasterpitch="1">
          <instrument name="vestige">
            <vestige chunk="VkMyIe8YAAA8TGFicz48TUVUQSBmYW1pbHk9Ik1hbmRvbGluIiBuYW1lPSJQaWNrZWQgRW5zZW1ibGUiIHByb2R1Y3RNb2RlPSIwIiB2ZXJzaW9uPSIxLjAuMCIgdGFncz0iMTA0MDEwMDpBY291c3RpYyBHdWl0YXIiIG1vZGlmaWVkPSIxIi8+PFVJIHVpc2l6ZT0iMSIgdWljb2xsYXBzZWQ9IjEiLz48QVJUSUNTPjxTRVRUSU5HIGlkPSJwX3N5bmNUb1RlbXBvIiB2YWx1ZT0iMSIvPjxTRVRUSU5HIGlkPSJwX2R5bmFtaWNzVmVsb2NpdHlNb2RlIiB2YWx1ZT0iQ09NUFJFU1NFRCBWRUxPQ0lUWSBISUdIIi8+PFNFVFRJTkcgaWQ9InBfc2hvcnRSVE1vZGUiIHZhbHVlPSItMiIvPjxTRVRUSU5HIGlkPSJwX3ZlbG9jaXR5Q3VydmUiIHZhbHVlPSJMSU5FQVIgVkVMT0NJVFkiLz48U0VUVElORyBpZD0icF9xdWFudGlzZU1vZGUiIHZhbHVlPSIiLz48U0VUVElORyBpZD0icF9taXhlckFkdmFuY2VkIiB2YWx1ZT0iMSIvPjxTRVRUSU5HIGlkPSJwX21peGVyR2xvYmFsIiB2YWx1ZT0iMSIvPjxTRVRUSU5HIGlkPSJwX21peGVyTG9jayIgdmFsdWU9IjAiLz48U0VUVElORyBpZD0icF9taXhlclBhZ2UiIHZhbHVlPSIiLz48U0VUVElORyBpZD0icF9hcnRpY0xvY2siIHZhbHVlPSIwIi8+PFNFVFRJTkcgaWQ9InBfYXJ0aWNQYWdlIiB2YWx1ZT0iIi8+PFNFVFRJTkcgaWQ9InBfbGFzdFNlbGVjdGVkUHJpbWFyeUFydGljIiB2YWx1ZT0iMCIvPjxTRVRUSU5HIGlkPSJwX21pZGlDaGFubmVsIiB2YWx1ZT0iMCIvPjxTRVRUSU5HIGlkPSJwX3NlbGVjdGVkVGFncyIgdmFsdWU9IkFjb3VzdGljIEd1aXRhciIvPjxTRVRUSU5HIGlkPSJwX2ZpbHRlclBvcyIgdmFsdWU9IlswLCAwXSIvPjxTRVRUSU5HIGlkPSJwX3ByZXNldFBvcyIgdmFsdWU9IlswLCAzODBdIi8+PFNFVFRJTkcgaWQ9InBfZXZvQ29udGFpbmVyUG9zIiB2YWx1ZT0iW10iLz48U0VUVElORyBpZD0icF9vY3RhdmUiIHZhbHVlPSIwIi8+PFNFVFRJTkcgaWQ9InBfb2Rlc3RJbmRpY2VzIiB2YWx1ZT0iMCwxLDIsMyw0LDUsNiw3LDgsOSwxMCwxMSwxMiwxMywxNCwxNSwxNiwxNywxOCwxOSwyMCwyMSwyMiwyMywyNCwyNSwyNiwyNywyOCwyOSwzMCwzMSwzMiwzMywzNCwzNSwzNiwzNywzOCwzOSw0MCw0MSw0Miw0Myw0NCw0NSw0Niw0Nyw0OCw0OSw1MCw1MSw1Miw1Myw1NCw1NSw1Niw1Nyw1OCw1OSw2MCw2MSw2Miw2Myw2NCw2NSw2Niw2Nyw2OCw2OSw3MCw3MSw3Miw3Myw3NCw3NSw3Niw3Nyw3OCw3OSw4MCw4MSw4Miw4Myw4NCw4NSw4Niw4Nyw4OCw4OSw5MCw5MSw5Miw5Myw5NCw5NSw5Niw5Nyw5OCw5OSwxMDAsMTAxLDEwMiwxMDMsMTA0LDEwNSwxMDYsMTA3LDEwOCwxMDksMTEwLDExMSwxMTIsMTEzLDExNCwxMTUsMTE2LDExNywxMTgsMTE5LDEyMCwxMjEsMTIyLDEyMywxMjQsMTI1LDEyNiwxMjcsMTI4LDEyOSwxMzAsMTMxLDEzMiwxMzMsMTM0LDEzNSwxMzYsMTM3LDEzOCwxMzksMTQwLDE0MSwxNDIsMTQzLDE0NCwxNDUsMTQ2LDE0NywxNDgsMTQ5LDE1MCwxNTEsMTUyLDE1MywxNTQsMTU1LDE1NiwxNTcsMTU4LDE1OSwxNjAsMTYxLDE2MiwxNjMsMTY0LDE2NSwxNjYsMTY3LDE2OCwxNjksMTcwLDE3MSwxNzIsMTczLDE3NCwxNzUsMTc2LDE3NywxNzgsMTc5LDE4MCwxODEsMTgyLDE4MywxODQsMTg1LDE4NiwxODcsMTg4LDE4OSwxOTAsMTkxLDE5MiwxOTMsMTk0LDE5NSwxOTYsMTk3LDE5OCwxOTksMjAwLDIwMSwyMDIsMjAzLDIwNCwyMDUsMjA2LDIwNywyMDgsMjA5LDIxMCwyMTEsMjEyLDIxMywyMTQsMjE1LDIxNiwyMTcsMjE4LDIxOSwyMjAsMjIxLDIyMiwyMjMsMjI0LDIyNSwyMjYsMjI3LDIyOCwyMjksMjMwLDIzMSwyMzIsMjMzLDIzNCwyMzUsMjM2LDIzNywyMzgsMjM5LDI0MCwyNDEsMjQyLDI0MywyNDQsMjQ1LDI0NiwyNDcsMjQ4LDI0OSwyNTAsMjUxLDI1MiwyNTMsMjU0LDI1NSwyNTYsMjU3LDI1OCwyNTksMjYwLDI2MSwyNjIsMjYzLDI2NCIvPjxBUlRJQz48U0VUVElORyBpZD0iYV9uYW1lIiB2YWx1ZT0iTEFCU19QaWNrZWRfRW5zZW1ibGUiLz48U0VUVElORyBpZD0iYV92ZXJzaW9uIiB2YWx1ZT0iMTY3NzcyMTYiLz48U0VUVElORyBpZD0iYV90ZW1wbGF0ZUlkeCIgdmFsdWU9IjAiLz48U0VUVElORyBpZD0iYV9vZGVzdCIgdmFsdWU9IlJFVkVSQiIvPjxTRVRUSU5HIGlkPSJhX2FjdGl2ZSIgdmFsdWU9IjIiLz48U0VUVElORyBpZD0iYV90d29IYW5kZWQiIHZhbHVlPSIwIi8+PFNFVFRJTkcgaWQ9ImFfYXV0b01ha2VVcCIgdmFsdWU9IjAiLz48U0VUVElORyBpZD0idF90eXBlIiB2YWx1ZT0iMSIvPjxTRVRUSU5HIGlkPSJ0X2VuYWJsZWQiIHZhbHVlPSIxIi8+PFNFVFRJTkcgaWQ9InRfbGF0Y2giIHZhbHVlPSIwIi8+PFNFVFRJTkcgaWQ9InRfa2V5c3dpdGNoIiB2YWx1ZT0iMCIvPjxTRVRUSU5HIGlkPSJ0X21pZGlDaGFubmVsIiB2YWx1ZT0iMSIvPjxTRVRUSU5HIGlkPSJ0X3ZlbEZyb20iIHZhbHVlPSIxIi8+PFNFVFRJTkcgaWQ9InRfdmVsVG8iIHZhbHVlPSIxMjciLz48U0VUVElORyBpZD0idF9jYyIgdmFsdWU9IjMyIi8+PFNFVFRJTkcgaWQ9InRfY2NWYWx1ZUZyb20iIHZhbHVlPSIwIi8+PFNFVFRJTkcgaWQ9InRfY2NWYWx1ZVRvIiB2YWx1ZT0iMTI3Ii8+PFNFVFRJTkcgaWQ9InRfc3BlZWRGcm9tIiB2YWx1ZT0iMCIvPjxTRVRUSU5HIGlkPSJ0X3NwZWVkVG8iIHZhbHVlPSIwLjUiLz48U0VUVElORyBpZD0idF9wcm9ncmFtQ2hhbmdlIiB2YWx1ZT0iMCIvPjxTRVRUSU5HIGlkPSJycl90aW1lb3V0IiB2YWx1ZT0iLTEiLz48U0VUVElORyBpZD0icnJfbmVpZ2hib3VyTWluIiB2YWx1ZT0iNDgiLz48U0VUVElORyBpZD0icnJfbmVpZ2hib3VyTWF4IiB2YWx1ZT0iOTYiLz48U0VUVElORyBpZD0icnJfdXNlTmVpZ2hib3VyIiB2YWx1ZT0iMCIvPjxTRVRUSU5HIGlkPSJycl9jb3VudCIgdmFsdWU9IjMiLz48U0VUVElORyBpZD0icnJfaW5jIiB2YWx1ZT0iMSIvPjxTRVRUSU5HIGlkPSJycl9sYXllcnMiIHZhbHVlPSIxIi8+PFNFVFRJTkcgaWQ9InJyX2dhaW4iIHZhbHVlPSIxIi8+PFNFVFRJTkcgaWQ9InJyX3N0YXJ0IiB2YWx1ZT0iMCIvPjxTRVRUSU5HIGlkPSJycl9zeW5jIiB2YWx1ZT0iMCIvPjxTRVRUSU5HIGlkPSJycl9wbGF5IiB2YWx1ZT0iMCIvPjxTRVRUSU5HIGlkPSJycl9rZXlzd2l0Y2hGcm9tIiB2YWx1ZT0iLTEiLz48U0VUVElORyBpZD0icnJfa2V5c3dpdGNoVG8iIHZhbHVlPSItMSIvPjxTRVRUSU5HIGlkPSJycl9rZXlzd2l0Y2hUbyIgdmFsdWU9Ii0xIi8+PFNFVFRJTkcgaWQ9InJyX21vZGUiIHZhbHVlPSIwIi8+PFNFVFRJTkcgaWQ9InJfbWlkaUNoYW5uZWwiIHZhbHVlPSIwIi8+PFNFVFRJTkcgaWQ9InJfdHJhbnNwb3NlIiB2YWx1ZT0iMCIvPjxTRVRUSU5HIGlkPSJyX2xheWVyVHJhbnNwb3NlIiB2YWx1ZT0iMCIvPjxTRVRUSU5HIGlkPSJpX2V4cHJlc3Npb24iIHZhbHVlPSIxIi8+PFNFVFRJTkcgaWQ9ImlfZHluYW1pY3MiIHZhbHVlPSIwLjEwMTUwMzc1OTYyMjU3MzkiLz48U0VUVElORyBpZD0iaV9yZXZlcmIiIHZhbHVlPSIwLjgwMjkwMzM1NDE2NzkzODIiLz48U0VUVElORyBpZD0iaV9yZWxlYXNlIiB2YWx1ZT0iMC41Ii8+PFNFVFRJTkcgaWQ9ImlfdGlnaHQiIHZhbHVlPSIwLjUwMzkzNzAwNTk5NjcwNDEiLz48U0VUVElORyBpZD0iaV92aWJyYXRvIiB2YWx1ZT0iMSIvPjxTRVRUSU5HIGlkPSJpX3ZhcmlhdGlvbiIgdmFsdWU9IjAiLz48U0VUVElORyBpZD0ic19wYW4iIHZhbHVlPSIwLjUiLz48U0VUVElORyBpZD0ic193aWR0aCIgdmFsdWU9IjAuNSIvPjxTRVRUSU5HIGlkPSJzX2ZsaXAiIHZhbHVlPSIwIi8+PE1JWD48U0VUVElORyBpZD0ibV9tYWluIiB2YWx1ZT0iMSIgbWljSWQ9IjEiLz48U0VUVElORyBpZD0iZV9tYWluIiB2YWx1ZT0iMSIgbWljSWQ9IjEiLz48U0VUVElORyBpZD0iYl9tYWluIiB2YWx1ZT0iMCIgbWljSWQ9IjEiLz48U0VUVElORyBpZD0ibV9hbHQxIiB2YWx1ZT0iMCIgbWljSWQ9IjIiLz48U0VUVElORyBpZD0iZV9hbHQxIiB2YWx1ZT0iMCIgbWljSWQ9IjIiLz48U0VUVElORyBpZD0iYl9hbHQxIiB2YWx1ZT0iMCIgbWljSWQ9IjIiLz48U0VUVElORyBpZD0ibV9hbHQyIiB2YWx1ZT0iMCIgbWljSWQ9IjMiLz48U0VUVElORyBpZD0iZV9hbHQyIiB2YWx1ZT0iMCIgbWljSWQ9IjMiLz48U0VUVElORyBpZD0iYl9hbHQyIiB2YWx1ZT0iMCIgbWljSWQ9IjMiLz48U0VUVElORyBpZD0ibV9hbHQzIiB2YWx1ZT0iMCIgbWljSWQ9IjQiLz48U0VUVElORyBpZD0iZV9hbHQzIiB2YWx1ZT0iMCIgbWljSWQ9IjQiLz48U0VUVElORyBpZD0iYl9hbHQzIiB2YWx1ZT0iMCIgbWljSWQ9IjQiLz48L01JWD48L0FSVElDPjwvQVJUSUNTPjxQQVJBTUVURVJTPjxQQVJBTSBpZD0iZ19nYWluIiB2YWx1ZT0iMSIgY2M9IjciLz48UEFSQU0gaWQ9ImdfcGFuIiB2YWx1ZT0iMC41IiBjYz0iMTAiLz48UEFSQU0gaWQ9ImdfdHVuZSIgdmFsdWU9IjAiIGNjPSItMSIvPjxQQVJBTSBpZD0iaV9yZXZlcmIiIHZhbHVlPSIwLjgwMjkwMzM1NDE2NzkzODIiIGNjPSIxOSIvPjxQQVJBTSBpZD0iaV90aWdodCIgdmFsdWU9IjAuNTAzOTM3MDA1OTk2NzA0MSIgY2M9IjE4Ii8+PFBBUkFNIGlkPSJpX3NwZWVkIiB2YWx1ZT0iMCIgY2M9Ii0xIi8+PFBBUkFNIGlkPSJpX3JlbGVhc2UiIHZhbHVlPSIwLjUiIGNjPSIxNyIvPjxQQVJBTSBpZD0iaV9leHByZXNzaW9uIiB2YWx1ZT0iMSIgY2M9IjExIi8+PFBBUkFNIGlkPSJpX2R5bmFtaWNzIiB2YWx1ZT0iMC4xMDE1MDM3NTk2MjI1NzM5IiBjYz0iMSIvPjxQQVJBTSBpZD0iaV92YXJpYXRpb24iIHZhbHVlPSIwIiBjYz0iMjAiLz48UEFSQU0gaWQ9ImlfdmlicmF0byIgdmFsdWU9IjEiIGNjPSIyMSIvPjxQQVJBTSBpZD0iaV9lbnZhdHQiIHZhbHVlPSIwLjA5OTk5OTk4NjU4ODk1NDkzIiBjYz0iLTEiLz48UEFSQU0gaWQ9ImlfZW52ZGVjIiB2YWx1ZT0iMC4wOTk5OTk5OTQwMzk1MzU1MiIgY2M9Ii0xIi8+PFBBUkFNIGlkPSJpX2VudnN1cyIgdmFsdWU9IjEiIGNjPSItMSIvPjxQQVJBTSBpZD0iaV9lbnZyZWwiIHZhbHVlPSIyIiBjYz0iLTEiLz48UEFSQU0gaWQ9ImlfbWl4c2ltcGxlIiB2YWx1ZT0iMC41IiBjYz0iLTEiLz48UEFSQU0gaWQ9InNfZmxpcCIgdmFsdWU9IjAiIGNjPSItMSIvPjxQQVJBTSBpZD0ic193aWR0aCIgdmFsdWU9IjAuNSIgY2M9Ii0xIi8+PFBBUkFNIGlkPSJzX3BhbiIgdmFsdWU9IjAuNSIgY2M9Ii0xIi8+PFBBUkFNIGlkPSJpX2RlbGF5IiB2YWx1ZT0iMCIgY2M9Ii0xIi8+PFBBUkFNIGlkPSJpX2Ftb3VudCIgdmFsdWU9IjAiIGNjPSItMSIvPjxQQVJBTSBpZD0iaV9kaXN0b3J0IiB2YWx1ZT0iMCIgY2M9Ii0xIi8+PFBBUkFNIGlkPSJpX2x1c2hWZXJiIiB2YWx1ZT0iMCIgY2M9Ii0xIi8+PFBBUkFNIGlkPSJpX3BlZHZvbCIgdmFsdWU9IjAuNSIgY2M9Ii0xIi8+PFBBUkFNIGlkPSJpX3BlZER5biIgdmFsdWU9IjAuNSIgY2M9Ii0xIi8+PFBBUkFNIGlkPSJpX2xlbmd0aCIgdmFsdWU9IjAiIGNjPSItMSIvPjxQQVJBTSBpZD0iaV90aW1lTWFjaGluZSIgdmFsdWU9IjAiIGNjPSItMSIvPjxQQVJBTSBpZD0iaV9zdHJldGNoIiB2YWx1ZT0iMCIgY2M9Ii0xIi8+PFBBUkFNIGlkPSJpX3NvZnRQZWRhbCIgdmFsdWU9IjAiIGNjPSItMSIvPjxQQVJBTSBpZD0iaV9yZXNwb25zZSIgdmFsdWU9IjAiIGNjPSItMSIvPjxQQVJBTSBpZD0iaV9tYWxsZXQiIHZhbHVlPSIwIiBjYz0iLTEiLz48UEFSQU0gaWQ9Imlfc3RvcGVNdXRlIiB2YWx1ZT0iMCIgY2M9Ii0xIi8+PFBBUkFNIGlkPSJpX2RpcmVjdGlvbiIgdmFsdWU9IjAiIGNjPSItMSIvPjxQQVJBTSBpZD0iaV9scEZpbHRlciIgdmFsdWU9IjAiIGNjPSItMSIvPjxQQVJBTSBpZD0iaV9wb3J0YW1lbnRvIiB2YWx1ZT0iMCIgY2M9Ii0xIi8+PFBBUkFNIGlkPSJpX21ldGFbMThdIiB2YWx1ZT0iMCIgY2M9Ii0xIi8+PFBBUkFNIGlkPSJpX21ldGFbMTldIiB2YWx1ZT0iMCIgY2M9Ii0xIi8+PFBBUkFNIGlkPSJpX21ldGFbMjBdIiB2YWx1ZT0iMCIgY2M9Ii0xIi8+PFBBUkFNIGlkPSJpX21ldGFbMjFdIiB2YWx1ZT0iMCIgY2M9Ii0xIi8+PFBBUkFNIGlkPSJpX21ldGFbMjJdIiB2YWx1ZT0iMCIgY2M9Ii0xIi8+PFBBUkFNIGlkPSJpX21ldGFbMjNdIiB2YWx1ZT0iMCIgY2M9Ii0xIi8+PFBBUkFNIGlkPSJpX21ldGFbMjRdIiB2YWx1ZT0iMCIgY2M9Ii0xIi8+PFBBUkFNIGlkPSJpX21ldGFbMjVdIiB2YWx1ZT0iMCIgY2M9Ii0xIi8+PFBBUkFNIGlkPSJpX21ldGFbMjZdIiB2YWx1ZT0iMCIgY2M9Ii0xIi8+PFBBUkFNIGlkPSJtX21haW4iIHZhbHVlPSIxIiBjYz0iMjIiLz48UEFSQU0gaWQ9Im1fYWx0MSIgdmFsdWU9IjAiIGNjPSIyMyIvPjxQQVJBTSBpZD0ibV9hbHQyIiB2YWx1ZT0iMCIgY2M9IjI0Ii8+PFBBUkFNIGlkPSJtX2FsdDMiIHZhbHVlPSIwIiBjYz0iMjUiLz48L1BBUkFNRVRFUlM+PC9MYWJzPgA=" program="0" plugin="C:/Program Files/VstPlugins/LABS (64 Bit).dll" guivisible="0"/>
          </instrument>
          <eldata fres="0.5" fwet="0" ftype="0" fcut="14000">
            <elvol x100="0" amt="0" lpdel="0" lshp="0" lspd_numerator="4" att="0" rel="0.1" userwavefile="" lspd_denominator="4" sustain="0.5" pdel="0" ctlenvamt="0" dec="0.5" latt="0" hold="0.5" lspd="0.1" lamt="0" lspd_syncmode="0"/>
            <elcut x100="0" amt="0" lpdel="0" lshp="0" lspd_numerator="4" att="0" rel="0.1" userwavefile="" lspd_denominator="4" sustain="0.5" pdel="0" ctlenvamt="0" dec="0.5" latt="0" hold="0.5" lspd="0.1" lamt="0" lspd_syncmode="0"/>
            <elres x100="0" amt="0" lpdel="0" lshp="0" lspd_numerator="4" att="0" rel="0.1" userwavefile="" lspd_denominator="4" sustain="0.5" pdel="0" ctlenvamt="0" dec="0.5" latt="0" hold="0.5" lspd="0.1" lamt="0" lspd_syncmode="0"/>
          </eldata>
          <chordcreator chord-enabled="0" chordrange="1" chord="0"/>
          <arpeggiator arptime_syncmode="0" arpmiss="0" arptime_numerator="4" arprange="1" arp-enabled="0" arpdir="0" arpcycle="0" arptime_denominator="4" arpskip="0" arpmode="0" arp="0" arptime="200" arpgate="100"/>
          <midiport basevelocity="63" outputcontroller="0" fixedoutputvelocity="-1" readable="0" outputprogram="1" inputcontroller="0" inputchannel="0" fixedoutputnote="-1" writable="0" fixedinputvelocity="-1" outputchannel="1"/>
          <fxchain enabled="0" numofeffects="0"/>
        </instrumenttrack>
        <pattern type="1" muted="0" steps="16" pos="6144" name="Lead 1">
          <note len="191" key="76" pos="0" vol="55" pan="0"/>
          <note len="167" key="69" pos="0" vol="55" pan="0"/>
          <note len="24" key="69" pos="168" vol="55" pan="0"/>
          <note len="192" key="71" pos="192" vol="55" pan="0"/>
          <note len="192" key="64" pos="192" vol="55" pan="0"/>
          <note len="192" key="73" pos="384" vol="55" pan="0"/>
          <note len="192" key="66" pos="384" vol="55" pan="0"/>
          <note len="24" key="76" pos="552" vol="55" pan="0"/>
          <note len="192" key="74" pos="576" vol="55" pan="0"/>
          <note len="192" key="69" pos="576" vol="55" pan="0"/>
          <note len="191" key="76" pos="768" vol="55" pan="0"/>
          <note len="167" key="69" pos="768" vol="55" pan="0"/>
          <note len="24" key="69" pos="936" vol="55" pan="0"/>
          <note len="192" key="71" pos="960" vol="55" pan="0"/>
          <note len="192" key="64" pos="960" vol="55" pan="0"/>
          <note len="192" key="73" pos="1152" vol="55" pan="0"/>
          <note len="192" key="66" pos="1152" vol="55" pan="0"/>
          <note len="24" key="76" pos="1320" vol="55" pan="0"/>
          <note len="192" key="74" pos="1344" vol="55" pan="0"/>
          <note len="192" key="69" pos="1344" vol="55" pan="0"/>
          <note len="95" key="76" pos="1536" vol="55" pan="0"/>
          <note len="143" key="69" pos="1536" vol="55" pan="0"/>
          <note len="96" key="76" pos="1632" vol="55" pan="0"/>
          <note len="48" key="69" pos="1680" vol="55" pan="0"/>
          <note len="192" key="76" pos="1728" vol="51" pan="0"/>
          <note len="144" key="71" pos="1728" vol="55" pan="0"/>
          <note len="96" key="69" pos="1824" vol="55" pan="0"/>
          <note len="48" key="71" pos="1872" vol="55" pan="0"/>
          <note len="144" key="73" pos="1920" vol="55" pan="0"/>
          <note len="192" key="66" pos="1920" vol="47" pan="0"/>
          <note len="96" key="74" pos="2016" vol="55" pan="0"/>
          <note len="48" key="73" pos="2064" vol="55" pan="0"/>
          <note len="192" key="74" pos="2112" vol="47" pan="0"/>
          <note len="96" key="69" pos="2112" vol="47" pan="0"/>
          <note len="96" key="69" pos="2208" vol="55" pan="0"/>
          <note len="48" key="71" pos="2256" vol="55" pan="0"/>
          <note len="95" key="76" pos="2304" vol="55" pan="0"/>
          <note len="143" key="69" pos="2304" vol="55" pan="0"/>
          <note len="96" key="76" pos="2400" vol="55" pan="0"/>
          <note len="48" key="69" pos="2448" vol="55" pan="0"/>
          <note len="192" key="76" pos="2496" vol="51" pan="0"/>
          <note len="144" key="71" pos="2496" vol="55" pan="0"/>
          <note len="96" key="69" pos="2592" vol="55" pan="0"/>
          <note len="48" key="71" pos="2640" vol="55" pan="0"/>
          <note len="144" key="73" pos="2688" vol="55" pan="0"/>
          <note len="192" key="66" pos="2688" vol="47" pan="0"/>
          <note len="96" key="74" pos="2784" vol="55" pan="0"/>
          <note len="48" key="73" pos="2832" vol="55" pan="0"/>
          <note len="192" key="74" pos="2880" vol="47" pan="0"/>
          <note len="96" key="69" pos="2880" vol="47" pan="0"/>
          <note len="96" key="69" pos="2976" vol="55" pan="0"/>
          <note len="48" key="71" pos="3024" vol="55" pan="0"/>
          <note len="23" key="69" pos="3072" vol="47" pan="0"/>
          <note len="48" key="69" pos="3096" vol="47" pan="0"/>
          <note len="24" key="73" pos="3108" vol="47" pan="0"/>
          <note len="72" key="71" pos="3120" vol="47" pan="0"/>
          <note len="48" key="73" pos="3132" vol="47" pan="0"/>
          <note len="24" key="69" pos="3144" vol="47" pan="0"/>
          <note len="48" key="69" pos="3168" vol="47" pan="0"/>
          <note len="24" key="73" pos="3180" vol="47" pan="0"/>
          <note len="72" key="71" pos="3192" vol="47" pan="0"/>
          <note len="36" key="73" pos="3204" vol="47" pan="0"/>
          <note len="12" key="69" pos="3216" vol="47" pan="0"/>
          <note len="24" key="69" pos="3228" vol="47" pan="0"/>
          <note len="60" key="73" pos="3240" vol="47" pan="0"/>
          <note len="12" key="69" pos="3252" vol="47" pan="0"/>
          <note len="24" key="71" pos="3264" vol="40" pan="0"/>
          <note len="24" key="69" pos="3264" vol="47" pan="0"/>
          <note len="24" key="71" pos="3288" vol="40" pan="0"/>
          <note len="48" key="69" pos="3288" vol="47" pan="0"/>
          <note len="24" key="73" pos="3300" vol="47" pan="0"/>
          <note len="72" key="71" pos="3312" vol="47" pan="0"/>
          <note len="48" key="73" pos="3324" vol="47" pan="0"/>
          <note len="24" key="69" pos="3336" vol="47" pan="0"/>
          <note len="48" key="69" pos="3360" vol="47" pan="0"/>
          <note len="24" key="73" pos="3372" vol="47" pan="0"/>
          <note len="120" key="71" pos="3384" vol="47" pan="0"/>
          <note len="36" key="73" pos="3396" vol="47" pan="0"/>
          <note len="12" key="69" pos="3408" vol="47" pan="0"/>
          <note len="24" key="69" pos="3420" vol="47" pan="0"/>
          <note len="60" key="73" pos="3432" vol="47" pan="0"/>
          <note len="12" key="69" pos="3444" vol="47" pan="0"/>
          <note len="24" key="69" pos="3456" vol="47" pan="0"/>
          <note len="48" key="69" pos="3480" vol="47" pan="0"/>
          <note len="24" key="73" pos="3492" vol="47" pan="0"/>
          <note len="72" key="71" pos="3504" vol="47" pan="0"/>
          <note len="48" key="73" pos="3516" vol="47" pan="0"/>
          <note len="24" key="69" pos="3528" vol="47" pan="0"/>
          <note len="48" key="69" pos="3552" vol="47" pan="0"/>
          <note len="24" key="73" pos="3564" vol="47" pan="0"/>
          <note len="120" key="71" pos="3576" vol="47" pan="0"/>
          <note len="36" key="73" pos="3588" vol="47" pan="0"/>
          <note len="12" key="69" pos="3600" vol="47" pan="0"/>
          <note len="24" key="69" pos="3612" vol="47" pan="0"/>
          <note len="60" key="73" pos="3624" vol="47" pan="0"/>
          <note len="12" key="69" pos="3636" vol="47" pan="0"/>
          <note len="24" key="74" pos="3648" vol="40" pan="0"/>
          <note len="24" key="69" pos="3648" vol="47" pan="0"/>
          <note len="24" key="74" pos="3672" vol="40" pan="0"/>
          <note len="48" key="69" pos="3672" vol="47" pan="0"/>
          <note len="24" key="73" pos="3684" vol="47" pan="0"/>
          <note len="72" key="71" pos="3696" vol="47" pan="0"/>
          <note len="48" key="73" pos="3708" vol="47" pan="0"/>
          <note len="24" key="69" pos="3720" vol="47" pan="0"/>
          <note len="48" key="69" pos="3744" vol="47" pan="0"/>
          <note len="24" key="73" pos="3756" vol="47" pan="0"/>
          <note len="120" key="71" pos="3768" vol="47" pan="0"/>
          <note len="36" key="73" pos="3780" vol="47" pan="0"/>
          <note len="12" key="69" pos="3792" vol="47" pan="0"/>
          <note len="24" key="69" pos="3804" vol="47" pan="0"/>
          <note len="60" key="73" pos="3816" vol="47" pan="0"/>
          <note len="12" key="69" pos="3828" vol="47" pan="0"/>
          <note len="23" key="69" pos="3840" vol="47" pan="0"/>
          <note len="48" key="69" pos="3864" vol="47" pan="0"/>
          <note len="24" key="73" pos="3876" vol="47" pan="0"/>
          <note len="72" key="71" pos="3888" vol="47" pan="0"/>
          <note len="48" key="73" pos="3900" vol="47" pan="0"/>
          <note len="24" key="69" pos="3912" vol="47" pan="0"/>
          <note len="48" key="69" pos="3936" vol="47" pan="0"/>
          <note len="24" key="73" pos="3948" vol="47" pan="0"/>
          <note len="72" key="71" pos="3960" vol="47" pan="0"/>
          <note len="36" key="73" pos="3972" vol="47" pan="0"/>
          <note len="12" key="69" pos="3984" vol="47" pan="0"/>
          <note len="24" key="69" pos="3996" vol="47" pan="0"/>
          <note len="60" key="73" pos="4008" vol="47" pan="0"/>
          <note len="12" key="69" pos="4020" vol="47" pan="0"/>
          <note len="24" key="71" pos="4032" vol="40" pan="0"/>
          <note len="24" key="69" pos="4032" vol="47" pan="0"/>
          <note len="24" key="71" pos="4056" vol="40" pan="0"/>
          <note len="48" key="69" pos="4056" vol="47" pan="0"/>
          <note len="24" key="73" pos="4068" vol="47" pan="0"/>
          <note len="72" key="71" pos="4080" vol="47" pan="0"/>
          <note len="48" key="73" pos="4092" vol="47" pan="0"/>
          <note len="24" key="69" pos="4104" vol="47" pan="0"/>
          <note len="48" key="69" pos="4128" vol="47" pan="0"/>
          <note len="24" key="73" pos="4140" vol="47" pan="0"/>
          <note len="120" key="71" pos="4152" vol="47" pan="0"/>
          <note len="36" key="73" pos="4164" vol="47" pan="0"/>
          <note len="12" key="69" pos="4176" vol="47" pan="0"/>
          <note len="24" key="69" pos="4188" vol="47" pan="0"/>
          <note len="60" key="73" pos="4200" vol="47" pan="0"/>
          <note len="12" key="69" pos="4212" vol="47" pan="0"/>
          <note len="24" key="69" pos="4224" vol="47" pan="0"/>
          <note len="48" key="69" pos="4248" vol="47" pan="0"/>
          <note len="24" key="73" pos="4260" vol="47" pan="0"/>
          <note len="72" key="71" pos="4272" vol="47" pan="0"/>
          <note len="48" key="73" pos="4284" vol="47" pan="0"/>
          <note len="24" key="69" pos="4296" vol="47" pan="0"/>
          <note len="48" key="69" pos="4320" vol="47" pan="0"/>
          <note len="24" key="73" pos="4332" vol="47" pan="0"/>
          <note len="120" key="71" pos="4344" vol="47" pan="0"/>
          <note len="36" key="73" pos="4356" vol="47" pan="0"/>
          <note len="12" key="69" pos="4368" vol="47" pan="0"/>
          <note len="24" key="69" pos="4380" vol="47" pan="0"/>
          <note len="60" key="73" pos="4392" vol="47" pan="0"/>
          <note len="12" key="69" pos="4404" vol="47" pan="0"/>
          <note len="24" key="74" pos="4416" vol="40" pan="0"/>
          <note len="24" key="69" pos="4416" vol="47" pan="0"/>
          <note len="24" key="74" pos="4440" vol="40" pan="0"/>
          <note len="48" key="69" pos="4440" vol="47" pan="0"/>
          <note len="24" key="73" pos="4452" vol="47" pan="0"/>
          <note len="72" key="71" pos="4464" vol="47" pan="0"/>
          <note len="48" key="73" pos="4476" vol="47" pan="0"/>
          <note len="24" key="69" pos="4488" vol="47" pan="0"/>
          <note len="48" key="69" pos="4512" vol="47" pan="0"/>
          <note len="24" key="73" pos="4524" vol="47" pan="0"/>
          <note len="72" key="71" pos="4536" vol="47" pan="0"/>
          <note len="36" key="73" pos="4548" vol="47" pan="0"/>
          <note len="12" key="69" pos="4560" vol="47" pan="0"/>
          <note len="24" key="69" pos="4572" vol="47" pan="0"/>
          <note len="24" key="73" pos="4584" vol="47" pan="0"/>
          <note len="12" key="69" pos="4596" vol="47" pan="0"/>
        </pattern>
      </track>
      <track type="0" muted="0" solo="0" name="Lead 2">
        <instrumenttrack basenote="57" pitch="0" pitchrange="1" fxch="0" vol="100" pan="0" usemasterpitch="1">
          <instrument name="vestige">
            <vestige chunk="U3RlZWwgR3VpdGFyLmRzawCIWAEAiFgBAAEAAAABAAAAAQAAAAEAAAAgAAAAIAAAAAIAAAAAAAAAAAAAAAAAAAC3863BAAAAAAAAAAABAAAAAQAAAAAAQEAAAAAA9P3UPQAAAAAAAAAAAAAAAAAAAAAAAAAAAAAAAAAAAAAAAAAAAAAAAAAAAAAAAAAAAAAAAAAAAAAAAAAAAAAAAAAAAAAAAAAAAAAAAAAAAAAAAAAAAAAAAAAAAAAAAAAAAAAAAAAAAAAAAAAAAAAAAAAAAAAAAAAAAAAAAAAAAAAAAAAAAAAAAAAAAAAAAAAAAAAAAAAAAAAAAAAAAAAAAAAAAAAAAAAAAAAAAAAAAAAAAAAAAAAAAAAAAAAAAAAAAAAAAAAAAAAAAAAAAAAAAAAAAAAAAAAAAAAAAAAAAAAAAAAAAAAAAAAAAAAAAAAAAAAAAAAAAAAAAAAAAAAAAAAAAAAAAAAAAAAAAAAAAAAAAAAAAAAAAAAAAAAAAAAAAAAAAAAAAAAAAAAAAAAAAAAAAAAAAAAAAAAAAAAAAAAAAAAAAAAAAAAAAAAAAAAAAAAAAAAAAAAAAAAAAAAAAAAAAAAAAAAAAAAAAAAAAAAAAAAAAAAAAAAAAAAAAAAAAAAAAAAAAAAAAAAAAAAAAAAAAAAAAAAAAAAAAAAAAAAAAAAAAAAAAAAAAAAAAAAAAAAAAAAAAAAAAAAAAAAAAAAAAAAAAAAAAAAAAAAAAAAAAAAAAAAAAAAAAAAAAAAAAAAAAAAAAAAAAAAAAAAAAAAAAAAAAAAAAAAAAAAAAAAAAAAAAgAAAAAAAAAAAAAAAAAAAAAAAAABAAAAAAAAAAAAAAAAAAAAAAAAAAAAAAAAAAAAAAAAAAAAekQAAAAAfwAAAH8AAAAAAAAAAAAAAAAAAAAAAAAAAAAAAAAAAAAAAAAAAAAAAAAAAAAAAAAAAAAAAAAAAAAAAAAAAAAAAAAAAAAAAAAAAAAAAAAAAAAAAAAAAAAAAAAAAAAAAAAAAAAAAAAAAAAAAAAAAAAAAAAAAAAAAAAAAAAAAAAAAAAAAAAAAAAAAAAAAAAAAAAAAAAAAAAAAAAAAAAAAAAAAAAAAAAAAAAAAAAAAAAAAAAAAAAAAAAAAAAAAAAAAAAAAAAAAAAAAAAAAAAAAAAAAAAAAAAAAAAAAAAAAAAAAAAAAAAAAAAAAAAAAAAAAAAAAAAAAAAAAAAAAAAAAAAAAAAAAAAAAAAAAAAAAAAAAAAAAAAAAAAAAAAAAAAAAAAAAAAAAAAAAAAAAAAAAAAAAAAAAAAAAAAAAAAAAAAAAAAAAAAAAAAAAAAAAAAAAAAAAAAAAAAAAAAAAAAAAAAAAAAAAAAAAAAAAAAAAAAAAAAAAAAAAAAAAAAAAAAAAAAAAAAAAAAAAAAAAAAAAAAAAAAAAAAAAAAAAAAAAAAAAAAAAAAAAAAAAAAAAAAAAAAAAAAAAAAAAAAAAAAAAAAAAAAAAAAAAAAAAAAAAAAAAAAAAAAAAAAAAAAAAAAAAAAAAAAAAAAAAAAAAAAAAAAAAAAAAAAAAAAAAAAAAAAAAAAAAAAAAAAAAAAAAAAAAAAAAAAAAAAAAAAAAAAAAQAAAAAAAAAAAAAAAAAAAAAAAAAAAAAAAAAAAAAAAAAAAAAAAAAAAH8AAAB/AAAAAAAAAAAAAAAAAAAAAAAAAAAAAAAAAAAAAAAAAAAAAAAAAAAAAAAAAAAAAAAAAAAAAAAAAAAAAAAAAAAAAAAAAAAAAAAAAAAAAAAAAAAAAAAAAAAAAAAAAAAAAAAAAAAAAAAAAAAAAAAAAAAAAAAAAAAAAAAAAAAAAAAAAAAAAAAAAAAAAAAAAAAAAAAAAAAAAAAAAAAAAAAAAAAAAAAAAAAAAAAAAAAAAAAAAAAAAAAAAAAAAAAAAAAAAAAAAAAAAAAAAAAAAAAAAAAAAAAAAAAAAAAAAAAAAAAAAAAAAAAAAAAAAAAAAAAAAAAAAAAAAAAAAAAAAAAAAAAAAAAAAAAAAAAAAAAAAAAAAAAAAAAAAAAAAAAAAAAAAAAAAAAAAAAAAAAAAAAAAAAAAAAAAAAAAAAAAAAAAAAAAAAAAAAAAAAAAAAAAAAAAAAAAAAAAAAAAAAAAAAAAAAAAAAAAAAAAAAAAAAAAAAAAAAAAAAAAAAAAAAAAAAAAAAAAAAAAAAAAAAAAAAAAAAAAAAAAAAAAAAAAAAAAAAAAAAAAAAAAAAAAAAAAAAAAAAAAAAAAAAAAAAAAAAAAAAAAAAAAAAAAAAAAAAAAAAAAAAAAAAAAAAAAAAAAAAAAAAAAAAAAAAAAAAAAAAAAAAAAAAAAAAAAAAAAAAAAAAAAAAAAAAAAAAAAAAAAA==" program="2" plugin="C:/Program Files/VstPlugins/DSK Dynamic Guitars.dll" guivisible="0"/>
          </instrument>
          <eldata fres="0.5" fwet="0" ftype="0" fcut="14000">
            <elvol x100="0" amt="0" lpdel="0" lshp="0" lspd_numerator="4" att="0" rel="0.1" userwavefile="" lspd_denominator="4" sustain="0.5" pdel="0" ctlenvamt="0" dec="0.5" latt="0" hold="0.5" lspd="0.1" lamt="0" lspd_syncmode="0"/>
            <elcut x100="0" amt="0" lpdel="0" lshp="0" lspd_numerator="4" att="0" rel="0.1" userwavefile="" lspd_denominator="4" sustain="0.5" pdel="0" ctlenvamt="0" dec="0.5" latt="0" hold="0.5" lspd="0.1" lamt="0" lspd_syncmode="0"/>
            <elres x100="0" amt="0" lpdel="0" lshp="0" lspd_numerator="4" att="0" rel="0.1" userwavefile="" lspd_denominator="4" sustain="0.5" pdel="0" ctlenvamt="0" dec="0.5" latt="0" hold="0.5" lspd="0.1" lamt="0" lspd_syncmode="0"/>
          </eldata>
          <chordcreator chord-enabled="0" chordrange="1" chord="0"/>
          <arpeggiator arptime_syncmode="0" arpmiss="0" arptime_numerator="4" arprange="1" arp-enabled="0" arpdir="0" arpcycle="0" arptime_denominator="4" arpskip="0" arpmode="0" arp="0" arptime="200" arpgate="100"/>
          <midiport basevelocity="63" outputcontroller="0" fixedoutputvelocity="-1" readable="0" outputprogram="1" inputcontroller="0" inputchannel="0" fixedoutputnote="-1" writable="0" fixedinputvelocity="-1" outputchannel="1"/>
          <fxchain enabled="0" numofeffects="0"/>
        </instrumenttrack>
        <pattern type="1" muted="0" steps="16" pos="16896" name="Lead 2">
          <note len="167" key="57" pos="0" vol="55" pan="0"/>
          <note len="24" key="57" pos="168" vol="55" pan="0"/>
          <note len="192" key="59" pos="192" vol="55" pan="0"/>
          <note len="192" key="52" pos="192" vol="55" pan="0"/>
          <note len="192" key="61" pos="384" vol="55" pan="0"/>
          <note len="192" key="54" pos="384" vol="55" pan="0"/>
          <note len="192" key="62" pos="576" vol="55" pan="0"/>
          <note len="192" key="57" pos="576" vol="55" pan="0"/>
          <note len="167" key="57" pos="768" vol="55" pan="0"/>
          <note len="24" key="57" pos="936" vol="55" pan="0"/>
          <note len="192" key="59" pos="960" vol="55" pan="0"/>
          <note len="192" key="52" pos="960" vol="55" pan="0"/>
          <note len="192" key="61" pos="1152" vol="55" pan="0"/>
          <note len="192" key="54" pos="1152" vol="55" pan="0"/>
          <note len="192" key="62" pos="1344" vol="55" pan="0"/>
          <note len="192" key="57" pos="1344" vol="55" pan="0"/>
          <note len="143" key="57" pos="1536" vol="55" pan="0"/>
          <note len="48" key="57" pos="1680" vol="55" pan="0"/>
          <note len="144" key="59" pos="1728" vol="55" pan="0"/>
          <note len="96" key="57" pos="1824" vol="55" pan="0"/>
          <note len="48" key="59" pos="1872" vol="55" pan="0"/>
          <note len="144" key="61" pos="1920" vol="55" pan="0"/>
          <note len="192" key="54" pos="1920" vol="47" pan="0"/>
          <note len="96" key="62" pos="2016" vol="55" pan="0"/>
          <note len="48" key="61" pos="2064" vol="55" pan="0"/>
          <note len="192" key="62" pos="2112" vol="47" pan="0"/>
          <note len="96" key="57" pos="2112" vol="47" pan="0"/>
          <note len="96" key="57" pos="2208" vol="55" pan="0"/>
          <note len="48" key="59" pos="2256" vol="55" pan="0"/>
          <note len="143" key="57" pos="2304" vol="55" pan="0"/>
          <note len="48" key="57" pos="2448" vol="55" pan="0"/>
          <note len="144" key="59" pos="2496" vol="55" pan="0"/>
          <note len="96" key="57" pos="2592" vol="55" pan="0"/>
          <note len="48" key="59" pos="2640" vol="55" pan="0"/>
          <note len="144" key="61" pos="2688" vol="55" pan="0"/>
          <note len="192" key="54" pos="2688" vol="47" pan="0"/>
          <note len="96" key="62" pos="2784" vol="55" pan="0"/>
          <note len="48" key="61" pos="2832" vol="55" pan="0"/>
          <note len="192" key="62" pos="2880" vol="47" pan="0"/>
          <note len="96" key="57" pos="2880" vol="47" pan="0"/>
          <note len="96" key="57" pos="2976" vol="55" pan="0"/>
          <note len="48" key="59" pos="3024" vol="55" pan="0"/>
          <note len="23" key="57" pos="3072" vol="47" pan="0"/>
          <note len="48" key="57" pos="3096" vol="47" pan="0"/>
          <note len="24" key="61" pos="3108" vol="47" pan="0"/>
          <note len="72" key="59" pos="3120" vol="47" pan="0"/>
          <note len="48" key="61" pos="3132" vol="47" pan="0"/>
          <note len="24" key="57" pos="3144" vol="47" pan="0"/>
          <note len="48" key="57" pos="3168" vol="47" pan="0"/>
          <note len="24" key="61" pos="3180" vol="47" pan="0"/>
          <note len="72" key="59" pos="3192" vol="47" pan="0"/>
          <note len="36" key="61" pos="3204" vol="47" pan="0"/>
          <note len="12" key="57" pos="3216" vol="47" pan="0"/>
          <note len="24" key="57" pos="3228" vol="47" pan="0"/>
          <note len="60" key="61" pos="3240" vol="47" pan="0"/>
          <note len="12" key="57" pos="3252" vol="47" pan="0"/>
          <note len="24" key="59" pos="3264" vol="40" pan="0"/>
          <note len="24" key="57" pos="3264" vol="47" pan="0"/>
          <note len="24" key="59" pos="3288" vol="40" pan="0"/>
          <note len="48" key="57" pos="3288" vol="47" pan="0"/>
          <note len="24" key="61" pos="3300" vol="47" pan="0"/>
          <note len="72" key="59" pos="3312" vol="47" pan="0"/>
          <note len="48" key="61" pos="3324" vol="47" pan="0"/>
          <note len="24" key="57" pos="3336" vol="47" pan="0"/>
          <note len="48" key="57" pos="3360" vol="47" pan="0"/>
          <note len="24" key="61" pos="3372" vol="47" pan="0"/>
          <note len="120" key="59" pos="3384" vol="47" pan="0"/>
          <note len="36" key="61" pos="3396" vol="47" pan="0"/>
          <note len="12" key="57" pos="3408" vol="47" pan="0"/>
          <note len="24" key="57" pos="3420" vol="47" pan="0"/>
          <note len="60" key="61" pos="3432" vol="47" pan="0"/>
          <note len="12" key="57" pos="3444" vol="47" pan="0"/>
          <note len="24" key="57" pos="3456" vol="47" pan="0"/>
          <note len="48" key="57" pos="3480" vol="47" pan="0"/>
          <note len="24" key="61" pos="3492" vol="47" pan="0"/>
          <note len="72" key="59" pos="3504" vol="47" pan="0"/>
          <note len="48" key="61" pos="3516" vol="47" pan="0"/>
          <note len="24" key="57" pos="3528" vol="47" pan="0"/>
          <note len="48" key="57" pos="3552" vol="47" pan="0"/>
          <note len="24" key="61" pos="3564" vol="47" pan="0"/>
          <note len="120" key="59" pos="3576" vol="47" pan="0"/>
          <note len="36" key="61" pos="3588" vol="47" pan="0"/>
          <note len="12" key="57" pos="3600" vol="47" pan="0"/>
          <note len="24" key="57" pos="3612" vol="47" pan="0"/>
          <note len="60" key="61" pos="3624" vol="47" pan="0"/>
          <note len="12" key="57" pos="3636" vol="47" pan="0"/>
          <note len="24" key="62" pos="3648" vol="40" pan="0"/>
          <note len="24" key="57" pos="3648" vol="47" pan="0"/>
          <note len="24" key="62" pos="3672" vol="40" pan="0"/>
          <note len="48" key="57" pos="3672" vol="47" pan="0"/>
          <note len="24" key="61" pos="3684" vol="47" pan="0"/>
          <note len="72" key="59" pos="3696" vol="47" pan="0"/>
          <note len="48" key="61" pos="3708" vol="47" pan="0"/>
          <note len="24" key="57" pos="3720" vol="47" pan="0"/>
          <note len="48" key="57" pos="3744" vol="47" pan="0"/>
          <note len="24" key="61" pos="3756" vol="47" pan="0"/>
          <note len="120" key="59" pos="3768" vol="47" pan="0"/>
          <note len="36" key="61" pos="3780" vol="47" pan="0"/>
          <note len="12" key="57" pos="3792" vol="47" pan="0"/>
          <note len="24" key="57" pos="3804" vol="47" pan="0"/>
          <note len="60" key="61" pos="3816" vol="47" pan="0"/>
          <note len="12" key="57" pos="3828" vol="47" pan="0"/>
          <note len="23" key="57" pos="3840" vol="47" pan="0"/>
          <note len="48" key="57" pos="3864" vol="47" pan="0"/>
          <note len="24" key="61" pos="3876" vol="47" pan="0"/>
          <note len="72" key="59" pos="3888" vol="47" pan="0"/>
          <note len="48" key="61" pos="3900" vol="47" pan="0"/>
          <note len="24" key="57" pos="3912" vol="47" pan="0"/>
          <note len="48" key="57" pos="3936" vol="47" pan="0"/>
          <note len="24" key="61" pos="3948" vol="47" pan="0"/>
          <note len="72" key="59" pos="3960" vol="47" pan="0"/>
          <note len="36" key="61" pos="3972" vol="47" pan="0"/>
          <note len="12" key="57" pos="3984" vol="47" pan="0"/>
          <note len="24" key="57" pos="3996" vol="47" pan="0"/>
          <note len="60" key="61" pos="4008" vol="47" pan="0"/>
          <note len="12" key="57" pos="4020" vol="47" pan="0"/>
          <note len="24" key="59" pos="4032" vol="40" pan="0"/>
          <note len="24" key="57" pos="4032" vol="47" pan="0"/>
          <note len="24" key="59" pos="4056" vol="40" pan="0"/>
          <note len="48" key="57" pos="4056" vol="47" pan="0"/>
          <note len="24" key="61" pos="4068" vol="47" pan="0"/>
          <note len="72" key="59" pos="4080" vol="47" pan="0"/>
          <note len="48" key="61" pos="4092" vol="47" pan="0"/>
          <note len="24" key="57" pos="4104" vol="47" pan="0"/>
          <note len="48" key="57" pos="4128" vol="47" pan="0"/>
          <note len="24" key="61" pos="4140" vol="47" pan="0"/>
          <note len="120" key="59" pos="4152" vol="47" pan="0"/>
          <note len="36" key="61" pos="4164" vol="47" pan="0"/>
          <note len="12" key="57" pos="4176" vol="47" pan="0"/>
          <note len="24" key="57" pos="4188" vol="47" pan="0"/>
          <note len="60" key="61" pos="4200" vol="47" pan="0"/>
          <note len="12" key="57" pos="4212" vol="47" pan="0"/>
          <note len="24" key="57" pos="4224" vol="47" pan="0"/>
          <note len="48" key="57" pos="4248" vol="47" pan="0"/>
          <note len="24" key="61" pos="4260" vol="47" pan="0"/>
          <note len="72" key="59" pos="4272" vol="47" pan="0"/>
          <note len="48" key="61" pos="4284" vol="47" pan="0"/>
          <note len="24" key="57" pos="4296" vol="47" pan="0"/>
          <note len="48" key="57" pos="4320" vol="47" pan="0"/>
          <note len="24" key="61" pos="4332" vol="47" pan="0"/>
          <note len="120" key="59" pos="4344" vol="47" pan="0"/>
          <note len="36" key="61" pos="4356" vol="47" pan="0"/>
          <note len="12" key="57" pos="4368" vol="47" pan="0"/>
          <note len="24" key="57" pos="4380" vol="47" pan="0"/>
          <note len="60" key="61" pos="4392" vol="47" pan="0"/>
          <note len="12" key="57" pos="4404" vol="47" pan="0"/>
          <note len="24" key="62" pos="4416" vol="40" pan="0"/>
          <note len="24" key="57" pos="4416" vol="47" pan="0"/>
          <note len="24" key="62" pos="4440" vol="40" pan="0"/>
          <note len="48" key="57" pos="4440" vol="47" pan="0"/>
          <note len="24" key="61" pos="4452" vol="47" pan="0"/>
          <note len="72" key="59" pos="4464" vol="47" pan="0"/>
          <note len="48" key="61" pos="4476" vol="47" pan="0"/>
          <note len="24" key="57" pos="4488" vol="47" pan="0"/>
          <note len="48" key="57" pos="4512" vol="47" pan="0"/>
          <note len="24" key="61" pos="4524" vol="47" pan="0"/>
          <note len="72" key="59" pos="4536" vol="47" pan="0"/>
          <note len="36" key="61" pos="4548" vol="47" pan="0"/>
          <note len="12" key="57" pos="4560" vol="47" pan="0"/>
          <note len="24" key="57" pos="4572" vol="47" pan="0"/>
          <note len="24" key="61" pos="4584" vol="47" pan="0"/>
          <note len="12" key="57" pos="4596" vol="47" pan="0"/>
        </pattern>
      </track>
      <track type="0" muted="0" solo="0" name="Lead 2.1">
        <instrumenttrack basenote="57" pitch="0" pitchrange="1" fxch="0" vol="70" pan="0" usemasterpitch="1">
          <instrument name="vestige">
            <vestige chunk="U3RlZWwgR3VpdGFyLmRzawCIWAEAiFgBAAEAAAABAAAAAQAAAAEAAAAgAAAAIAAAAAIAAAAAAAAAAAAAAAAAAAC3863BAAAAAAAAAAABAAAAAQAAAAAAQEAAAAAAMQisPQAAAAAAAAAAAAAAAAAAAAAAAAAAAAAAAAAAAAAAAAAAAAAAAAAAAAAAAAAAAAAAAAAAAAAAAAAAAAAAAAAAAAAAAAAAAAAAAAAAAAAAAAAAAAAAAAAAAAAAAAAAAAAAAAAAAAAAAAAAAAAAAAAAAAAAAAAAAAAAAAAAAAAAAAAAAAAAAAAAAAAAAAAAAAAAAAAAAAAAAAAAAAAAAAAAAAAAAAAAAAAAAAAAAAAAAAAAAAAAAAAAAAAAAAAAAAAAAAAAAAAAAAAAAAAAAAAAAAAAAAAAAAAAAAAAAAAAAAAAAAAAAAAAAAAAAAAAAAAAAAAAAAAAAAAAAAAAAAAAAAAAAAAAAAAAAAAAAAAAAAAAAAAAAAAAAAAAAAAAAAAAAAAAAAAAAAAAAAAAAAAAAAAAAAAAAAAAAAAAAAAAAAAAAAAAAAAAAAAAAAAAAAAAAAAAAAAAAAAAAAAAAAAAAAAAAAAAAAAAAAAAAAAAAAAAAAAAAAAAAAAAAAAAAAAAAAAAAAAAAAAAAAAAAAAAAAAAAAAAAAAAAAAAAAAAAAAAAAAAAAAAAAAAAAAAAAAAAAAAAAAAAAAAAAAAAAAAAAAAAAAAAAAAAAAAAAAAAAAAAAAAAAAAAAAAAAAAAAAAAAAAAAAAAAAAAAAAAAAAAAAAAAAAAAAAAAAAAAAAAAAAAgAAAAAAAAAAAAAAAAAAAAAAAAABAAAAAAAAAAAAAAAAAAAAAAAAAAAAAAAAAAAAAAAAAAAAekQAAAAAfwAAAH8AAAAAAAAAAAAAAAAAAAAAAAAAAAAAAAAAAAAAAAAAAAAAAAAAAAAAAAAAAAAAAAAAAAAAAAAAAAAAAAAAAAAAAAAAAAAAAAAAAAAAAAAAAAAAAAAAAAAAAAAAAAAAAAAAAAAAAAAAAAAAAAAAAAAAAAAAAAAAAAAAAAAAAAAAAAAAAAAAAAAAAAAAAAAAAAAAAAAAAAAAAAAAAAAAAAAAAAAAAAAAAAAAAAAAAAAAAAAAAAAAAAAAAAAAAAAAAAAAAAAAAAAAAAAAAAAAAAAAAAAAAAAAAAAAAAAAAAAAAAAAAAAAAAAAAAAAAAAAAAAAAAAAAAAAAAAAAAAAAAAAAAAAAAAAAAAAAAAAAAAAAAAAAAAAAAAAAAAAAAAAAAAAAAAAAAAAAAAAAAAAAAAAAAAAAAAAAAAAAAAAAAAAAAAAAAAAAAAAAAAAAAAAAAAAAAAAAAAAAAAAAAAAAAAAAAAAAAAAAAAAAAAAAAAAAAAAAAAAAAAAAAAAAAAAAAAAAAAAAAAAAAAAAAAAAAAAAAAAAAAAAAAAAAAAAAAAAAAAAAAAAAAAAAAAAAAAAAAAAAAAAAAAAAAAAAAAAAAAAAAAAAAAAAAAAAAAAAAAAAAAAAAAAAAAAAAAAAAAAAAAAAAAAAAAAAAAAAAAAAAAAAAAAAAAAAAAAAAAAAAAAAAAAAAAAAAAAAAAAAAAAAAAAAAAAAAAAQAAAAAAAAAAAAAAAAAAAAAAAAAAAAAAAAAAAAAAAAAAAAAAAAAAAH8AAAB/AAAAAAAAAAAAAAAAAAAAAAAAAAAAAAAAAAAAAAAAAAAAAAAAAAAAAAAAAAAAAAAAAAAAAAAAAAAAAAAAAAAAAAAAAAAAAAAAAAAAAAAAAAAAAAAAAAAAAAAAAAAAAAAAAAAAAAAAAAAAAAAAAAAAAAAAAAAAAAAAAAAAAAAAAAAAAAAAAAAAAAAAAAAAAAAAAAAAAAAAAAAAAAAAAAAAAAAAAAAAAAAAAAAAAAAAAAAAAAAAAAAAAAAAAAAAAAAAAAAAAAAAAAAAAAAAAAAAAAAAAAAAAAAAAAAAAAAAAAAAAAAAAAAAAAAAAAAAAAAAAAAAAAAAAAAAAAAAAAAAAAAAAAAAAAAAAAAAAAAAAAAAAAAAAAAAAAAAAAAAAAAAAAAAAAAAAAAAAAAAAAAAAAAAAAAAAAAAAAAAAAAAAAAAAAAAAAAAAAAAAAAAAAAAAAAAAAAAAAAAAAAAAAAAAAAAAAAAAAAAAAAAAAAAAAAAAAAAAAAAAAAAAAAAAAAAAAAAAAAAAAAAAAAAAAAAAAAAAAAAAAAAAAAAAAAAAAAAAAAAAAAAAAAAAAAAAAAAAAAAAAAAAAAAAAAAAAAAAAAAAAAAAAAAAAAAAAAAAAAAAAAAAAAAAAAAAAAAAAAAAAAAAAAAAAAAAAAAAAAAAAAAAAAAAAAAAAAAAAAAAAAAAAAAAAAAAAAAAA==" program="2" plugin="C:/Program Files/VstPlugins/DSK Dynamic Guitars.dll" guivisible="0"/>
          </instrument>
          <eldata fres="0.5" fwet="0" ftype="0" fcut="14000">
            <elvol x100="0" amt="0" lpdel="0" lshp="0" lspd_numerator="4" att="0" rel="0.1" userwavefile="" lspd_denominator="4" sustain="0.5" pdel="0" ctlenvamt="0" dec="0.5" latt="0" hold="0.5" lspd="0.1" lamt="0" lspd_syncmode="0"/>
            <elcut x100="0" amt="0" lpdel="0" lshp="0" lspd_numerator="4" att="0" rel="0.1" userwavefile="" lspd_denominator="4" sustain="0.5" pdel="0" ctlenvamt="0" dec="0.5" latt="0" hold="0.5" lspd="0.1" lamt="0" lspd_syncmode="0"/>
            <elres x100="0" amt="0" lpdel="0" lshp="0" lspd_numerator="4" att="0" rel="0.1" userwavefile="" lspd_denominator="4" sustain="0.5" pdel="0" ctlenvamt="0" dec="0.5" latt="0" hold="0.5" lspd="0.1" lamt="0" lspd_syncmode="0"/>
          </eldata>
          <chordcreator chord-enabled="0" chordrange="1" chord="0"/>
          <arpeggiator arptime_syncmode="0" arpmiss="0" arptime_numerator="4" arprange="1" arp-enabled="0" arpdir="0" arpcycle="0" arptime_denominator="4" arpskip="0" arpmode="0" arp="0" arptime="200" arpgate="100"/>
          <midiport basevelocity="63" outputcontroller="0" fixedoutputvelocity="-1" readable="0" outputprogram="1" inputcontroller="0" inputchannel="0" fixedoutputnote="-1" writable="0" fixedinputvelocity="-1" outputchannel="1"/>
          <fxchain enabled="0" numofeffects="0"/>
        </instrumenttrack>
        <pattern type="1" muted="0" steps="16" pos="16896" name="Lead 2.1">
          <note len="191" key="64" pos="0" vol="55" pan="0"/>
          <note len="24" key="64" pos="552" vol="55" pan="0"/>
          <note len="191" key="64" pos="768" vol="55" pan="0"/>
          <note len="24" key="64" pos="1320" vol="55" pan="0"/>
          <note len="95" key="64" pos="1536" vol="55" pan="0"/>
          <note len="96" key="64" pos="1632" vol="55" pan="0"/>
          <note len="192" key="64" pos="1728" vol="51" pan="0"/>
          <note len="95" key="64" pos="2304" vol="55" pan="0"/>
          <note len="96" key="64" pos="2400" vol="55" pan="0"/>
          <note len="192" key="64" pos="2496" vol="51" pan="0"/>
        </pattern>
      </track>
      <track type="0" muted="0" solo="0" name="Constant">
        <instrumenttrack basenote="57" pitch="0" pitchrange="2" fxch="3" vol="10" pan="20" usemasterpitch="1">
          <instrument name="vestige">
            <vestige chunk="TWFyaW1iYXBob25pYy5tc2UARKwAAESsAAAAAAAAAAAAAAAAAAAAAAAAIAAAACAAAAACAAAAAAAAAAAAAAAAAAAA9/8/wAAAAAAAAAAAAQAAAAEAAAAAAEBAAAAAAKabRD7W////AAAAAAAAAAAAAAAAAAAAAAAAAAAAAAAAAAAAAAAAAAAAAAAAAAAAAAAAAAAAAAAAAAAAAAAAAAAAAAAAAAAAAAAAAAAAAAAAAAAAAAAAAAAAAAAAAAAAAAAAAAAAAAAAAAAAAAAAAAAAAAAAAAAAAAAAAAAAAAAAAAAAAAAAAAAAAAAAAAAAAAAAAAAAAAAAAAAAAAAAAAAAAAAAAAAAAAAAAAAAAAAAAAAAAAAAAAAAAAAAAAAAAAAAAAAAAAAAAAAAAAAAAAAAAAAAAAAAAAAAAAAAAAAAAAAAAAAAAAAAAAAAAAAAAAAAAAAAAAAAAAAAAAAAAAAAAAAAAAAAAAAAAAAAAAAAAAAAAAAAAAAAAAAAAAAAAAAAAAAAAAAAAAAAAAAAAAAAAAAAAAAAAAAAAAAAAAAAAAAAAAAAAAAAAAAAAAAAAAAAAAAAAAAAAAAAAAAAAAAAAAAAAAAAAAAAAAAAAAAAAAAAAAAAAAAAAAAAAAAAAAAAAAAAAAAAAAAAAAAAAAAAAAAAAAAAAAAAAAAAAAAAAAAAAAAAAAAAAAAAAAAAAAAAAAAAAAAAAAAAAAAAAAAAAAAAAAAAAAAAAAAAAAAAAAAAAAAAAAAAAAAAAAAAAAAAAAAAAAAAAAAAAAAAAAAAAAAAAAAAAAAAAAAAAAAAAAAAAAEAAAAAAAAAAAAAAAAAAAAAAAAAAQAAAAAAAAAAAAAAAAAAAAAAAAAAAAAAAAAAAAAAAAAAQJxFAAAAAH8AAAB/AAAAAAAAAAAAAAAAAAAAAAAAAAAAAAAAAAAAAAAAAAAAAAAAAAAAAAAAAAAAAAAAAAAAAAAAAAAAAAAAAAAAAAAAAAAAAAAAAAAAAAAAAAAAAAAAAAAAAAAAAAAAAAAAAAAAAAAAAAAAAAAAAAAAAAAAAAAAAAAAAAAAAAAAAAAAAAAAAAAAAAAAAAAAAAAAAAAAAAAAAAAAAAAAAAAAAAAAAAAAAAAAAAAAAAAAAAAAAAAAAAAAAAAAAAAAAAAAAAAAAAAAAAAAAAAAAAAAAAAAAAAAAAAAAAAAAAAAAAAAAAAAAAAAAAAAAAAAAAAAAAAAAAAAAAAAAAAAAAAAAAAAAAAAAAAAAAAAAAAAAAAAAAAAAAAAAAAAAAAAAAAAAAAAAAAAAAAAAAAAAAAAAAAAAAAAAAAAAAAAAAAAAAAAAAAAAAAAAAAAAAAAAAAAAAAAAAAAAAAAAAAAAAAAAAAAAAAAAAAAAAAAAAAAAAAAAAAAAAAAAAAAAAAAAAAAAAAAAAAAAAAAAAAAAAAAAAAAAAAAAAAAAAAAAAAAAAAAAAAAAAAAAAAAAAAAAAAAAAAAAAAAAAAAAAAAAAAAAAAAAAAAAAAAAAAAAAAAAAAAAAAAAAAAAAAAAAAAAAAAAAAAAAAAAAAAAAAAAAAAAAAAAAAAAAAAAAAAAAAAAAAAAAAAAAAAAAAAAA==" program="0" plugin="C:/Program Files/VstPlugins/Marimbaphonic.dll" guivisible="0"/>
          </instrument>
          <eldata fres="0.5" fwet="0" ftype="0" fcut="14000">
            <elvol x100="0" amt="0" lpdel="0" lshp="0" lspd_numerator="4" att="0" rel="0.1" userwavefile="" lspd_denominator="4" sustain="0.5" pdel="0" ctlenvamt="0" dec="0.5" latt="0" hold="0.5" lspd="0.1" lamt="0" lspd_syncmode="0"/>
            <elcut x100="0" amt="0" lpdel="0" lshp="0" lspd_numerator="4" att="0" rel="0.1" userwavefile="" lspd_denominator="4" sustain="0.5" pdel="0" ctlenvamt="0" dec="0.5" latt="0" hold="0.5" lspd="0.1" lamt="0" lspd_syncmode="0"/>
            <elres x100="0" amt="0" lpdel="0" lshp="0" lspd_numerator="4" att="0" rel="0.1" userwavefile="" lspd_denominator="4" sustain="0.5" pdel="0" ctlenvamt="0" dec="0.5" latt="0" hold="0.5" lspd="0.1" lamt="0" lspd_syncmode="0"/>
          </eldata>
          <chordcreator chord-enabled="0" chordrange="1" chord="0"/>
          <arpeggiator arptime_syncmode="0" arpmiss="0" arptime_numerator="4" arprange="1" arp-enabled="0" arpdir="0" arpcycle="0" arptime_denominator="4" arpskip="0" arpmode="0" arp="0" arptime="200" arpgate="100"/>
          <midiport basevelocity="63" outputcontroller="0" fixedoutputvelocity="-1" readable="0" outputprogram="1" inputcontroller="0" inputchannel="0" fixedoutputnote="-1" writable="0" fixedinputvelocity="-1" outputchannel="1"/>
          <fxchain enabled="0" numofeffects="0"/>
        </instrumenttrack>
        <pattern type="1" muted="0" steps="16" pos="1536" name="Constant">
          <note len="11" key="81" pos="0" vol="55" pan="0"/>
          <note len="12" key="81" pos="24" vol="55" pan="0"/>
          <note len="12" key="85" pos="36" vol="55" pan="0"/>
          <note len="12" key="83" pos="48" vol="55" pan="0"/>
          <note len="12" key="85" pos="60" vol="55" pan="0"/>
          <note len="12" key="81" pos="72" vol="55" pan="0"/>
          <note len="12" key="81" pos="96" vol="55" pan="0"/>
          <note len="12" key="85" pos="108" vol="55" pan="0"/>
          <note len="12" key="83" pos="120" vol="55" pan="0"/>
          <note len="12" key="85" pos="132" vol="55" pan="0"/>
          <note len="12" key="81" pos="144" vol="55" pan="0"/>
          <note len="12" key="81" pos="156" vol="55" pan="0"/>
          <note len="12" key="85" pos="168" vol="55" pan="0"/>
          <note len="12" key="81" pos="180" vol="55" pan="0"/>
          <note len="12" key="81" pos="192" vol="55" pan="0"/>
          <note len="12" key="81" pos="216" vol="55" pan="0"/>
          <note len="12" key="85" pos="228" vol="55" pan="0"/>
          <note len="12" key="83" pos="240" vol="55" pan="0"/>
          <note len="12" key="85" pos="252" vol="55" pan="0"/>
          <note len="12" key="81" pos="264" vol="55" pan="0"/>
          <note len="12" key="81" pos="288" vol="55" pan="0"/>
          <note len="12" key="85" pos="300" vol="55" pan="0"/>
          <note len="12" key="83" pos="312" vol="55" pan="0"/>
          <note len="12" key="85" pos="324" vol="55" pan="0"/>
          <note len="12" key="81" pos="336" vol="55" pan="0"/>
          <note len="12" key="81" pos="348" vol="55" pan="0"/>
          <note len="12" key="85" pos="360" vol="55" pan="0"/>
          <note len="12" key="81" pos="372" vol="55" pan="0"/>
          <note len="12" key="81" pos="384" vol="55" pan="0"/>
          <note len="12" key="81" pos="408" vol="55" pan="0"/>
          <note len="12" key="85" pos="420" vol="55" pan="0"/>
          <note len="12" key="83" pos="432" vol="55" pan="0"/>
          <note len="12" key="85" pos="444" vol="55" pan="0"/>
          <note len="12" key="81" pos="456" vol="55" pan="0"/>
          <note len="12" key="81" pos="480" vol="55" pan="0"/>
          <note len="12" key="85" pos="492" vol="55" pan="0"/>
          <note len="12" key="83" pos="504" vol="55" pan="0"/>
          <note len="12" key="85" pos="516" vol="55" pan="0"/>
          <note len="12" key="81" pos="528" vol="55" pan="0"/>
          <note len="12" key="81" pos="540" vol="55" pan="0"/>
          <note len="12" key="85" pos="552" vol="55" pan="0"/>
          <note len="12" key="81" pos="564" vol="55" pan="0"/>
          <note len="12" key="81" pos="576" vol="55" pan="0"/>
          <note len="12" key="81" pos="600" vol="55" pan="0"/>
          <note len="12" key="85" pos="612" vol="55" pan="0"/>
          <note len="12" key="83" pos="624" vol="55" pan="0"/>
          <note len="12" key="85" pos="636" vol="55" pan="0"/>
          <note len="12" key="81" pos="648" vol="55" pan="0"/>
          <note len="12" key="81" pos="672" vol="55" pan="0"/>
          <note len="12" key="85" pos="684" vol="55" pan="0"/>
          <note len="12" key="83" pos="696" vol="55" pan="0"/>
          <note len="12" key="85" pos="708" vol="55" pan="0"/>
          <note len="12" key="81" pos="720" vol="55" pan="0"/>
          <note len="12" key="81" pos="732" vol="55" pan="0"/>
          <note len="12" key="85" pos="744" vol="55" pan="0"/>
          <note len="12" key="81" pos="756" vol="55" pan="0"/>
          <note len="11" key="81" pos="768" vol="55" pan="0"/>
          <note len="12" key="81" pos="792" vol="55" pan="0"/>
          <note len="12" key="85" pos="804" vol="55" pan="0"/>
          <note len="12" key="83" pos="816" vol="55" pan="0"/>
          <note len="12" key="85" pos="828" vol="55" pan="0"/>
          <note len="12" key="81" pos="840" vol="55" pan="0"/>
          <note len="12" key="81" pos="864" vol="55" pan="0"/>
          <note len="12" key="85" pos="876" vol="55" pan="0"/>
          <note len="12" key="83" pos="888" vol="55" pan="0"/>
          <note len="12" key="85" pos="900" vol="55" pan="0"/>
          <note len="12" key="81" pos="912" vol="55" pan="0"/>
          <note len="12" key="81" pos="924" vol="55" pan="0"/>
          <note len="12" key="85" pos="936" vol="55" pan="0"/>
          <note len="12" key="81" pos="948" vol="55" pan="0"/>
          <note len="12" key="81" pos="960" vol="55" pan="0"/>
          <note len="12" key="81" pos="984" vol="55" pan="0"/>
          <note len="12" key="85" pos="996" vol="55" pan="0"/>
          <note len="12" key="83" pos="1008" vol="55" pan="0"/>
          <note len="12" key="85" pos="1020" vol="55" pan="0"/>
          <note len="12" key="81" pos="1032" vol="55" pan="0"/>
          <note len="12" key="81" pos="1056" vol="55" pan="0"/>
          <note len="12" key="85" pos="1068" vol="55" pan="0"/>
          <note len="12" key="83" pos="1080" vol="55" pan="0"/>
          <note len="12" key="85" pos="1092" vol="55" pan="0"/>
          <note len="12" key="81" pos="1104" vol="55" pan="0"/>
          <note len="12" key="81" pos="1116" vol="55" pan="0"/>
          <note len="12" key="85" pos="1128" vol="55" pan="0"/>
          <note len="12" key="81" pos="1140" vol="55" pan="0"/>
          <note len="12" key="81" pos="1152" vol="55" pan="0"/>
          <note len="12" key="81" pos="1176" vol="55" pan="0"/>
          <note len="12" key="85" pos="1188" vol="55" pan="0"/>
          <note len="12" key="83" pos="1200" vol="55" pan="0"/>
          <note len="12" key="85" pos="1212" vol="55" pan="0"/>
          <note len="12" key="81" pos="1224" vol="55" pan="0"/>
          <note len="12" key="81" pos="1248" vol="55" pan="0"/>
          <note len="12" key="85" pos="1260" vol="55" pan="0"/>
          <note len="12" key="83" pos="1272" vol="55" pan="0"/>
          <note len="12" key="85" pos="1284" vol="55" pan="0"/>
          <note len="12" key="81" pos="1296" vol="55" pan="0"/>
          <note len="12" key="81" pos="1308" vol="55" pan="0"/>
          <note len="12" key="85" pos="1320" vol="55" pan="0"/>
          <note len="12" key="81" pos="1332" vol="55" pan="0"/>
          <note len="12" key="81" pos="1344" vol="55" pan="0"/>
          <note len="12" key="81" pos="1368" vol="55" pan="0"/>
          <note len="12" key="85" pos="1380" vol="55" pan="0"/>
          <note len="12" key="83" pos="1392" vol="55" pan="0"/>
          <note len="12" key="85" pos="1404" vol="55" pan="0"/>
          <note len="12" key="81" pos="1416" vol="55" pan="0"/>
          <note len="12" key="81" pos="1440" vol="55" pan="0"/>
          <note len="12" key="85" pos="1452" vol="55" pan="0"/>
          <note len="12" key="83" pos="1464" vol="55" pan="0"/>
          <note len="12" key="85" pos="1476" vol="55" pan="0"/>
          <note len="12" key="81" pos="1488" vol="55" pan="0"/>
          <note len="12" key="81" pos="1500" vol="55" pan="0"/>
          <note len="12" key="85" pos="1512" vol="55" pan="0"/>
          <note len="12" key="81" pos="1524" vol="55" pan="0"/>
          <note len="11" key="81" pos="1536" vol="55" pan="0"/>
          <note len="12" key="81" pos="1560" vol="55" pan="0"/>
          <note len="12" key="85" pos="1572" vol="55" pan="0"/>
          <note len="12" key="83" pos="1584" vol="55" pan="0"/>
          <note len="12" key="85" pos="1596" vol="55" pan="0"/>
          <note len="12" key="81" pos="1608" vol="55" pan="0"/>
          <note len="12" key="81" pos="1632" vol="55" pan="0"/>
          <note len="12" key="85" pos="1644" vol="55" pan="0"/>
          <note len="12" key="83" pos="1656" vol="55" pan="0"/>
          <note len="12" key="85" pos="1668" vol="55" pan="0"/>
          <note len="12" key="81" pos="1680" vol="55" pan="0"/>
          <note len="12" key="81" pos="1692" vol="55" pan="0"/>
          <note len="12" key="85" pos="1704" vol="55" pan="0"/>
          <note len="12" key="81" pos="1716" vol="55" pan="0"/>
          <note len="12" key="81" pos="1728" vol="55" pan="0"/>
          <note len="12" key="81" pos="1752" vol="55" pan="0"/>
          <note len="12" key="85" pos="1764" vol="55" pan="0"/>
          <note len="12" key="83" pos="1776" vol="55" pan="0"/>
          <note len="12" key="85" pos="1788" vol="55" pan="0"/>
          <note len="12" key="81" pos="1800" vol="55" pan="0"/>
          <note len="12" key="81" pos="1824" vol="55" pan="0"/>
          <note len="12" key="85" pos="1836" vol="55" pan="0"/>
          <note len="12" key="83" pos="1848" vol="55" pan="0"/>
          <note len="12" key="85" pos="1860" vol="55" pan="0"/>
          <note len="12" key="81" pos="1872" vol="55" pan="0"/>
          <note len="12" key="81" pos="1884" vol="55" pan="0"/>
          <note len="12" key="85" pos="1896" vol="55" pan="0"/>
          <note len="12" key="81" pos="1908" vol="55" pan="0"/>
          <note len="12" key="81" pos="1920" vol="55" pan="0"/>
          <note len="12" key="81" pos="1944" vol="55" pan="0"/>
          <note len="12" key="85" pos="1956" vol="55" pan="0"/>
          <note len="12" key="83" pos="1968" vol="55" pan="0"/>
          <note len="12" key="85" pos="1980" vol="55" pan="0"/>
          <note len="12" key="81" pos="1992" vol="55" pan="0"/>
          <note len="12" key="81" pos="2016" vol="55" pan="0"/>
          <note len="12" key="85" pos="2028" vol="55" pan="0"/>
          <note len="12" key="83" pos="2040" vol="55" pan="0"/>
          <note len="12" key="85" pos="2052" vol="55" pan="0"/>
          <note len="12" key="81" pos="2064" vol="55" pan="0"/>
          <note len="12" key="81" pos="2076" vol="55" pan="0"/>
          <note len="12" key="85" pos="2088" vol="55" pan="0"/>
          <note len="12" key="81" pos="2100" vol="55" pan="0"/>
          <note len="12" key="81" pos="2112" vol="55" pan="0"/>
          <note len="12" key="81" pos="2136" vol="55" pan="0"/>
          <note len="12" key="85" pos="2148" vol="55" pan="0"/>
          <note len="12" key="83" pos="2160" vol="55" pan="0"/>
          <note len="12" key="85" pos="2172" vol="55" pan="0"/>
          <note len="12" key="81" pos="2184" vol="55" pan="0"/>
          <note len="12" key="81" pos="2208" vol="55" pan="0"/>
          <note len="12" key="85" pos="2220" vol="55" pan="0"/>
          <note len="12" key="83" pos="2232" vol="55" pan="0"/>
          <note len="12" key="85" pos="2244" vol="55" pan="0"/>
          <note len="12" key="81" pos="2256" vol="55" pan="0"/>
          <note len="12" key="81" pos="2268" vol="55" pan="0"/>
          <note len="12" key="85" pos="2280" vol="55" pan="0"/>
          <note len="12" key="81" pos="2292" vol="55" pan="0"/>
          <note len="11" key="81" pos="2304" vol="55" pan="0"/>
          <note len="12" key="81" pos="2328" vol="55" pan="0"/>
          <note len="12" key="85" pos="2340" vol="55" pan="0"/>
          <note len="12" key="83" pos="2352" vol="55" pan="0"/>
          <note len="12" key="85" pos="2364" vol="55" pan="0"/>
          <note len="12" key="81" pos="2376" vol="55" pan="0"/>
          <note len="12" key="81" pos="2400" vol="55" pan="0"/>
          <note len="12" key="85" pos="2412" vol="55" pan="0"/>
          <note len="12" key="83" pos="2424" vol="55" pan="0"/>
          <note len="12" key="85" pos="2436" vol="55" pan="0"/>
          <note len="12" key="81" pos="2448" vol="55" pan="0"/>
          <note len="12" key="81" pos="2460" vol="55" pan="0"/>
          <note len="12" key="85" pos="2472" vol="55" pan="0"/>
          <note len="12" key="81" pos="2484" vol="55" pan="0"/>
          <note len="12" key="81" pos="2496" vol="55" pan="0"/>
          <note len="12" key="81" pos="2520" vol="55" pan="0"/>
          <note len="12" key="85" pos="2532" vol="55" pan="0"/>
          <note len="12" key="83" pos="2544" vol="55" pan="0"/>
          <note len="12" key="85" pos="2556" vol="55" pan="0"/>
          <note len="12" key="81" pos="2568" vol="55" pan="0"/>
          <note len="12" key="81" pos="2592" vol="55" pan="0"/>
          <note len="12" key="85" pos="2604" vol="55" pan="0"/>
          <note len="12" key="83" pos="2616" vol="55" pan="0"/>
          <note len="12" key="85" pos="2628" vol="55" pan="0"/>
          <note len="12" key="81" pos="2640" vol="55" pan="0"/>
          <note len="12" key="81" pos="2652" vol="55" pan="0"/>
          <note len="12" key="85" pos="2664" vol="55" pan="0"/>
          <note len="12" key="81" pos="2676" vol="55" pan="0"/>
          <note len="12" key="81" pos="2688" vol="55" pan="0"/>
          <note len="12" key="81" pos="2712" vol="55" pan="0"/>
          <note len="12" key="85" pos="2724" vol="55" pan="0"/>
          <note len="12" key="83" pos="2736" vol="55" pan="0"/>
          <note len="12" key="85" pos="2748" vol="55" pan="0"/>
          <note len="12" key="81" pos="2760" vol="55" pan="0"/>
          <note len="12" key="81" pos="2784" vol="55" pan="0"/>
          <note len="12" key="85" pos="2796" vol="55" pan="0"/>
          <note len="12" key="83" pos="2808" vol="55" pan="0"/>
          <note len="12" key="85" pos="2820" vol="55" pan="0"/>
          <note len="12" key="81" pos="2832" vol="55" pan="0"/>
          <note len="12" key="81" pos="2844" vol="55" pan="0"/>
          <note len="12" key="85" pos="2856" vol="55" pan="0"/>
          <note len="12" key="81" pos="2868" vol="55" pan="0"/>
          <note len="12" key="81" pos="2880" vol="55" pan="0"/>
          <note len="12" key="81" pos="2904" vol="55" pan="0"/>
          <note len="12" key="85" pos="2916" vol="55" pan="0"/>
          <note len="12" key="83" pos="2928" vol="55" pan="0"/>
          <note len="12" key="85" pos="2940" vol="55" pan="0"/>
          <note len="12" key="81" pos="2952" vol="55" pan="0"/>
          <note len="12" key="81" pos="2976" vol="55" pan="0"/>
          <note len="12" key="85" pos="2988" vol="55" pan="0"/>
          <note len="12" key="83" pos="3000" vol="55" pan="0"/>
          <note len="12" key="85" pos="3012" vol="55" pan="0"/>
          <note len="12" key="81" pos="3024" vol="55" pan="0"/>
          <note len="12" key="81" pos="3036" vol="55" pan="0"/>
          <note len="12" key="85" pos="3048" vol="55" pan="0"/>
          <note len="12" key="81" pos="3060" vol="55" pan="0"/>
          <note len="11" key="81" pos="3072" vol="55" pan="0"/>
          <note len="12" key="81" pos="3096" vol="55" pan="0"/>
          <note len="12" key="85" pos="3108" vol="55" pan="0"/>
          <note len="12" key="83" pos="3120" vol="55" pan="0"/>
          <note len="12" key="85" pos="3132" vol="55" pan="0"/>
          <note len="12" key="81" pos="3144" vol="55" pan="0"/>
          <note len="12" key="81" pos="3168" vol="55" pan="0"/>
          <note len="12" key="85" pos="3180" vol="55" pan="0"/>
          <note len="12" key="83" pos="3192" vol="55" pan="0"/>
          <note len="12" key="85" pos="3204" vol="55" pan="0"/>
          <note len="12" key="81" pos="3216" vol="55" pan="0"/>
          <note len="12" key="81" pos="3228" vol="55" pan="0"/>
          <note len="12" key="85" pos="3240" vol="55" pan="0"/>
          <note len="12" key="81" pos="3252" vol="55" pan="0"/>
          <note len="12" key="81" pos="3264" vol="55" pan="0"/>
          <note len="12" key="81" pos="3288" vol="55" pan="0"/>
          <note len="12" key="85" pos="3300" vol="55" pan="0"/>
          <note len="12" key="83" pos="3312" vol="55" pan="0"/>
          <note len="12" key="85" pos="3324" vol="55" pan="0"/>
          <note len="12" key="81" pos="3336" vol="55" pan="0"/>
          <note len="12" key="81" pos="3360" vol="55" pan="0"/>
          <note len="12" key="85" pos="3372" vol="55" pan="0"/>
          <note len="12" key="83" pos="3384" vol="55" pan="0"/>
          <note len="12" key="85" pos="3396" vol="55" pan="0"/>
          <note len="12" key="81" pos="3408" vol="55" pan="0"/>
          <note len="12" key="81" pos="3420" vol="55" pan="0"/>
          <note len="12" key="85" pos="3432" vol="55" pan="0"/>
          <note len="12" key="81" pos="3444" vol="55" pan="0"/>
          <note len="12" key="81" pos="3456" vol="55" pan="0"/>
          <note len="12" key="81" pos="3480" vol="55" pan="0"/>
          <note len="12" key="85" pos="3492" vol="55" pan="0"/>
          <note len="12" key="83" pos="3504" vol="55" pan="0"/>
          <note len="12" key="85" pos="3516" vol="55" pan="0"/>
          <note len="12" key="81" pos="3528" vol="55" pan="0"/>
          <note len="12" key="81" pos="3552" vol="55" pan="0"/>
          <note len="12" key="85" pos="3564" vol="55" pan="0"/>
          <note len="12" key="83" pos="3576" vol="55" pan="0"/>
          <note len="12" key="85" pos="3588" vol="55" pan="0"/>
          <note len="12" key="81" pos="3600" vol="55" pan="0"/>
          <note len="12" key="81" pos="3612" vol="55" pan="0"/>
          <note len="12" key="85" pos="3624" vol="55" pan="0"/>
          <note len="12" key="81" pos="3636" vol="55" pan="0"/>
          <note len="12" key="81" pos="3648" vol="55" pan="0"/>
          <note len="12" key="81" pos="3672" vol="55" pan="0"/>
          <note len="12" key="85" pos="3684" vol="55" pan="0"/>
          <note len="12" key="83" pos="3696" vol="55" pan="0"/>
          <note len="12" key="85" pos="3708" vol="55" pan="0"/>
          <note len="12" key="81" pos="3720" vol="55" pan="0"/>
          <note len="12" key="81" pos="3744" vol="55" pan="0"/>
          <note len="12" key="85" pos="3756" vol="55" pan="0"/>
          <note len="12" key="83" pos="3768" vol="55" pan="0"/>
          <note len="12" key="85" pos="3780" vol="55" pan="0"/>
          <note len="12" key="81" pos="3792" vol="55" pan="0"/>
          <note len="12" key="81" pos="3804" vol="55" pan="0"/>
          <note len="12" key="85" pos="3816" vol="55" pan="0"/>
          <note len="12" key="81" pos="3828" vol="55" pan="0"/>
          <note len="11" key="81" pos="3840" vol="55" pan="0"/>
          <note len="12" key="81" pos="3864" vol="55" pan="0"/>
          <note len="12" key="85" pos="3876" vol="55" pan="0"/>
          <note len="12" key="83" pos="3888" vol="55" pan="0"/>
          <note len="12" key="85" pos="3900" vol="55" pan="0"/>
          <note len="12" key="81" pos="3912" vol="55" pan="0"/>
          <note len="12" key="81" pos="3936" vol="55" pan="0"/>
          <note len="12" key="85" pos="3948" vol="55" pan="0"/>
          <note len="12" key="83" pos="3960" vol="55" pan="0"/>
          <note len="12" key="85" pos="3972" vol="55" pan="0"/>
          <note len="12" key="81" pos="3984" vol="55" pan="0"/>
          <note len="12" key="81" pos="3996" vol="55" pan="0"/>
          <note len="12" key="85" pos="4008" vol="55" pan="0"/>
          <note len="12" key="81" pos="4020" vol="55" pan="0"/>
          <note len="12" key="81" pos="4032" vol="55" pan="0"/>
          <note len="12" key="81" pos="4056" vol="55" pan="0"/>
          <note len="12" key="85" pos="4068" vol="55" pan="0"/>
          <note len="12" key="83" pos="4080" vol="55" pan="0"/>
          <note len="12" key="85" pos="4092" vol="55" pan="0"/>
          <note len="12" key="81" pos="4104" vol="55" pan="0"/>
          <note len="12" key="81" pos="4128" vol="55" pan="0"/>
          <note len="12" key="85" pos="4140" vol="55" pan="0"/>
          <note len="12" key="83" pos="4152" vol="55" pan="0"/>
          <note len="12" key="85" pos="4164" vol="55" pan="0"/>
          <note len="12" key="81" pos="4176" vol="55" pan="0"/>
          <note len="12" key="81" pos="4188" vol="55" pan="0"/>
          <note len="12" key="85" pos="4200" vol="55" pan="0"/>
          <note len="12" key="81" pos="4212" vol="55" pan="0"/>
          <note len="12" key="81" pos="4224" vol="55" pan="0"/>
          <note len="12" key="81" pos="4248" vol="55" pan="0"/>
          <note len="12" key="85" pos="4260" vol="55" pan="0"/>
          <note len="12" key="83" pos="4272" vol="55" pan="0"/>
          <note len="12" key="85" pos="4284" vol="55" pan="0"/>
          <note len="12" key="81" pos="4296" vol="55" pan="0"/>
          <note len="12" key="81" pos="4320" vol="55" pan="0"/>
          <note len="12" key="85" pos="4332" vol="55" pan="0"/>
          <note len="12" key="83" pos="4344" vol="55" pan="0"/>
          <note len="12" key="85" pos="4356" vol="55" pan="0"/>
          <note len="12" key="81" pos="4368" vol="55" pan="0"/>
          <note len="12" key="81" pos="4380" vol="55" pan="0"/>
          <note len="12" key="85" pos="4392" vol="55" pan="0"/>
          <note len="12" key="81" pos="4404" vol="55" pan="0"/>
          <note len="12" key="81" pos="4416" vol="55" pan="0"/>
          <note len="12" key="81" pos="4440" vol="55" pan="0"/>
          <note len="12" key="85" pos="4452" vol="55" pan="0"/>
          <note len="12" key="83" pos="4464" vol="55" pan="0"/>
          <note len="12" key="85" pos="4476" vol="55" pan="0"/>
          <note len="12" key="81" pos="4488" vol="55" pan="0"/>
          <note len="12" key="81" pos="4512" vol="55" pan="0"/>
          <note len="12" key="85" pos="4524" vol="55" pan="0"/>
          <note len="12" key="83" pos="4536" vol="55" pan="0"/>
          <note len="12" key="85" pos="4548" vol="55" pan="0"/>
          <note len="12" key="81" pos="4560" vol="55" pan="0"/>
          <note len="12" key="81" pos="4572" vol="55" pan="0"/>
          <note len="12" key="85" pos="4584" vol="55" pan="0"/>
          <note len="12" key="81" pos="4596" vol="55" pan="0"/>
          <note len="11" key="81" pos="4608" vol="55" pan="0"/>
          <note len="12" key="81" pos="4632" vol="55" pan="0"/>
          <note len="12" key="85" pos="4644" vol="55" pan="0"/>
          <note len="12" key="83" pos="4656" vol="55" pan="0"/>
          <note len="12" key="85" pos="4668" vol="55" pan="0"/>
          <note len="12" key="81" pos="4680" vol="55" pan="0"/>
          <note len="12" key="81" pos="4704" vol="55" pan="0"/>
          <note len="12" key="85" pos="4716" vol="55" pan="0"/>
          <note len="12" key="83" pos="4728" vol="55" pan="0"/>
          <note len="12" key="85" pos="4740" vol="55" pan="0"/>
          <note len="12" key="81" pos="4752" vol="55" pan="0"/>
          <note len="12" key="81" pos="4764" vol="55" pan="0"/>
          <note len="12" key="85" pos="4776" vol="55" pan="0"/>
          <note len="12" key="81" pos="4788" vol="55" pan="0"/>
          <note len="12" key="81" pos="4800" vol="55" pan="0"/>
          <note len="12" key="81" pos="4824" vol="55" pan="0"/>
          <note len="12" key="85" pos="4836" vol="55" pan="0"/>
          <note len="12" key="83" pos="4848" vol="55" pan="0"/>
          <note len="12" key="85" pos="4860" vol="55" pan="0"/>
          <note len="12" key="81" pos="4872" vol="55" pan="0"/>
          <note len="12" key="81" pos="4896" vol="55" pan="0"/>
          <note len="12" key="85" pos="4908" vol="55" pan="0"/>
          <note len="12" key="83" pos="4920" vol="55" pan="0"/>
          <note len="12" key="85" pos="4932" vol="55" pan="0"/>
          <note len="12" key="81" pos="4944" vol="55" pan="0"/>
          <note len="12" key="81" pos="4956" vol="55" pan="0"/>
          <note len="12" key="85" pos="4968" vol="55" pan="0"/>
          <note len="12" key="81" pos="4980" vol="55" pan="0"/>
          <note len="12" key="81" pos="4992" vol="55" pan="0"/>
          <note len="12" key="81" pos="5016" vol="55" pan="0"/>
          <note len="12" key="85" pos="5028" vol="55" pan="0"/>
          <note len="12" key="83" pos="5040" vol="55" pan="0"/>
          <note len="12" key="85" pos="5052" vol="55" pan="0"/>
          <note len="12" key="81" pos="5064" vol="55" pan="0"/>
          <note len="12" key="81" pos="5088" vol="55" pan="0"/>
          <note len="12" key="85" pos="5100" vol="55" pan="0"/>
          <note len="12" key="83" pos="5112" vol="55" pan="0"/>
          <note len="12" key="85" pos="5124" vol="55" pan="0"/>
          <note len="12" key="81" pos="5136" vol="55" pan="0"/>
          <note len="12" key="81" pos="5148" vol="55" pan="0"/>
          <note len="12" key="85" pos="5160" vol="55" pan="0"/>
          <note len="12" key="81" pos="5172" vol="55" pan="0"/>
          <note len="12" key="81" pos="5184" vol="55" pan="0"/>
          <note len="12" key="81" pos="5208" vol="55" pan="0"/>
          <note len="12" key="85" pos="5220" vol="55" pan="0"/>
          <note len="12" key="83" pos="5232" vol="55" pan="0"/>
          <note len="12" key="85" pos="5244" vol="55" pan="0"/>
          <note len="12" key="81" pos="5256" vol="55" pan="0"/>
          <note len="12" key="81" pos="5280" vol="55" pan="0"/>
          <note len="12" key="85" pos="5292" vol="55" pan="0"/>
          <note len="12" key="83" pos="5304" vol="55" pan="0"/>
          <note len="12" key="85" pos="5316" vol="55" pan="0"/>
          <note len="12" key="81" pos="5328" vol="55" pan="0"/>
          <note len="12" key="81" pos="5340" vol="55" pan="0"/>
          <note len="12" key="85" pos="5352" vol="55" pan="0"/>
          <note len="12" key="81" pos="5364" vol="55" pan="0"/>
          <note len="11" key="81" pos="5376" vol="55" pan="0"/>
          <note len="12" key="81" pos="5400" vol="55" pan="0"/>
          <note len="12" key="85" pos="5412" vol="55" pan="0"/>
          <note len="12" key="83" pos="5424" vol="55" pan="0"/>
          <note len="12" key="85" pos="5436" vol="55" pan="0"/>
          <note len="12" key="81" pos="5448" vol="55" pan="0"/>
          <note len="12" key="81" pos="5472" vol="55" pan="0"/>
          <note len="12" key="85" pos="5484" vol="55" pan="0"/>
          <note len="12" key="83" pos="5496" vol="55" pan="0"/>
          <note len="12" key="85" pos="5508" vol="55" pan="0"/>
          <note len="12" key="81" pos="5520" vol="55" pan="0"/>
          <note len="12" key="81" pos="5532" vol="55" pan="0"/>
          <note len="12" key="85" pos="5544" vol="55" pan="0"/>
          <note len="12" key="81" pos="5556" vol="55" pan="0"/>
          <note len="12" key="81" pos="5568" vol="55" pan="0"/>
          <note len="12" key="81" pos="5592" vol="55" pan="0"/>
          <note len="12" key="85" pos="5604" vol="55" pan="0"/>
          <note len="12" key="83" pos="5616" vol="55" pan="0"/>
          <note len="12" key="85" pos="5628" vol="55" pan="0"/>
          <note len="12" key="81" pos="5640" vol="55" pan="0"/>
          <note len="12" key="81" pos="5664" vol="55" pan="0"/>
          <note len="12" key="85" pos="5676" vol="55" pan="0"/>
          <note len="12" key="83" pos="5688" vol="55" pan="0"/>
          <note len="12" key="85" pos="5700" vol="55" pan="0"/>
          <note len="12" key="81" pos="5712" vol="55" pan="0"/>
          <note len="12" key="81" pos="5724" vol="55" pan="0"/>
          <note len="12" key="85" pos="5736" vol="55" pan="0"/>
          <note len="12" key="81" pos="5748" vol="55" pan="0"/>
          <note len="12" key="81" pos="5760" vol="55" pan="0"/>
          <note len="12" key="81" pos="5784" vol="55" pan="0"/>
          <note len="12" key="85" pos="5796" vol="55" pan="0"/>
          <note len="12" key="83" pos="5808" vol="55" pan="0"/>
          <note len="12" key="85" pos="5820" vol="55" pan="0"/>
          <note len="12" key="81" pos="5832" vol="55" pan="0"/>
          <note len="12" key="81" pos="5856" vol="55" pan="0"/>
          <note len="12" key="85" pos="5868" vol="55" pan="0"/>
          <note len="12" key="83" pos="5880" vol="55" pan="0"/>
          <note len="12" key="85" pos="5892" vol="55" pan="0"/>
          <note len="12" key="81" pos="5904" vol="55" pan="0"/>
          <note len="12" key="81" pos="5916" vol="55" pan="0"/>
          <note len="12" key="85" pos="5928" vol="55" pan="0"/>
          <note len="12" key="81" pos="5940" vol="55" pan="0"/>
          <note len="12" key="81" pos="5952" vol="55" pan="0"/>
          <note len="12" key="81" pos="5976" vol="55" pan="0"/>
          <note len="12" key="85" pos="5988" vol="55" pan="0"/>
          <note len="12" key="83" pos="6000" vol="55" pan="0"/>
          <note len="12" key="85" pos="6012" vol="55" pan="0"/>
          <note len="12" key="81" pos="6024" vol="55" pan="0"/>
          <note len="12" key="81" pos="6048" vol="55" pan="0"/>
          <note len="12" key="85" pos="6060" vol="55" pan="0"/>
          <note len="12" key="83" pos="6072" vol="55" pan="0"/>
          <note len="12" key="85" pos="6084" vol="55" pan="0"/>
          <note len="12" key="81" pos="6096" vol="55" pan="0"/>
          <note len="12" key="81" pos="6108" vol="55" pan="0"/>
          <note len="12" key="85" pos="6120" vol="55" pan="0"/>
          <note len="12" key="81" pos="6132" vol="55" pan="0"/>
          <note len="11" key="81" pos="6144" vol="55" pan="0"/>
          <note len="12" key="81" pos="6168" vol="55" pan="0"/>
          <note len="12" key="85" pos="6180" vol="55" pan="0"/>
          <note len="12" key="83" pos="6192" vol="55" pan="0"/>
          <note len="12" key="85" pos="6204" vol="55" pan="0"/>
          <note len="12" key="81" pos="6216" vol="55" pan="0"/>
          <note len="12" key="81" pos="6240" vol="55" pan="0"/>
          <note len="12" key="85" pos="6252" vol="55" pan="0"/>
          <note len="12" key="83" pos="6264" vol="55" pan="0"/>
          <note len="12" key="85" pos="6276" vol="55" pan="0"/>
          <note len="12" key="81" pos="6288" vol="55" pan="0"/>
          <note len="12" key="81" pos="6300" vol="55" pan="0"/>
          <note len="12" key="85" pos="6312" vol="55" pan="0"/>
          <note len="12" key="81" pos="6324" vol="55" pan="0"/>
          <note len="12" key="81" pos="6336" vol="55" pan="0"/>
          <note len="12" key="81" pos="6360" vol="55" pan="0"/>
          <note len="12" key="85" pos="6372" vol="55" pan="0"/>
          <note len="12" key="83" pos="6384" vol="55" pan="0"/>
          <note len="12" key="85" pos="6396" vol="55" pan="0"/>
          <note len="12" key="81" pos="6408" vol="55" pan="0"/>
          <note len="12" key="81" pos="6432" vol="55" pan="0"/>
          <note len="12" key="85" pos="6444" vol="55" pan="0"/>
          <note len="12" key="83" pos="6456" vol="55" pan="0"/>
          <note len="12" key="85" pos="6468" vol="55" pan="0"/>
          <note len="12" key="81" pos="6480" vol="55" pan="0"/>
          <note len="12" key="81" pos="6492" vol="55" pan="0"/>
          <note len="12" key="85" pos="6504" vol="55" pan="0"/>
          <note len="12" key="81" pos="6516" vol="55" pan="0"/>
          <note len="12" key="81" pos="6528" vol="55" pan="0"/>
          <note len="12" key="81" pos="6552" vol="55" pan="0"/>
          <note len="12" key="85" pos="6564" vol="55" pan="0"/>
          <note len="12" key="83" pos="6576" vol="55" pan="0"/>
          <note len="12" key="85" pos="6588" vol="55" pan="0"/>
          <note len="12" key="81" pos="6600" vol="55" pan="0"/>
          <note len="12" key="81" pos="6624" vol="55" pan="0"/>
          <note len="12" key="85" pos="6636" vol="55" pan="0"/>
          <note len="12" key="83" pos="6648" vol="55" pan="0"/>
          <note len="12" key="85" pos="6660" vol="55" pan="0"/>
          <note len="12" key="81" pos="6672" vol="55" pan="0"/>
          <note len="12" key="81" pos="6684" vol="55" pan="0"/>
          <note len="12" key="85" pos="6696" vol="55" pan="0"/>
          <note len="12" key="81" pos="6708" vol="55" pan="0"/>
          <note len="12" key="81" pos="6720" vol="55" pan="0"/>
          <note len="12" key="81" pos="6744" vol="55" pan="0"/>
          <note len="12" key="85" pos="6756" vol="55" pan="0"/>
          <note len="12" key="83" pos="6768" vol="55" pan="0"/>
          <note len="12" key="85" pos="6780" vol="55" pan="0"/>
          <note len="12" key="81" pos="6792" vol="55" pan="0"/>
          <note len="12" key="81" pos="6816" vol="55" pan="0"/>
          <note len="12" key="85" pos="6828" vol="55" pan="0"/>
          <note len="12" key="83" pos="6840" vol="55" pan="0"/>
          <note len="12" key="85" pos="6852" vol="55" pan="0"/>
          <note len="12" key="81" pos="6864" vol="55" pan="0"/>
          <note len="12" key="81" pos="6876" vol="55" pan="0"/>
          <note len="12" key="85" pos="6888" vol="55" pan="0"/>
          <note len="12" key="81" pos="6900" vol="55" pan="0"/>
          <note len="11" key="81" pos="6912" vol="55" pan="0"/>
          <note len="12" key="81" pos="6936" vol="55" pan="0"/>
          <note len="12" key="85" pos="6948" vol="55" pan="0"/>
          <note len="12" key="83" pos="6960" vol="55" pan="0"/>
          <note len="12" key="85" pos="6972" vol="55" pan="0"/>
          <note len="12" key="81" pos="6984" vol="55" pan="0"/>
          <note len="12" key="81" pos="7008" vol="55" pan="0"/>
          <note len="12" key="85" pos="7020" vol="55" pan="0"/>
          <note len="12" key="83" pos="7032" vol="55" pan="0"/>
          <note len="12" key="85" pos="7044" vol="55" pan="0"/>
          <note len="12" key="81" pos="7056" vol="55" pan="0"/>
          <note len="12" key="81" pos="7068" vol="55" pan="0"/>
          <note len="12" key="85" pos="7080" vol="55" pan="0"/>
          <note len="12" key="81" pos="7092" vol="55" pan="0"/>
          <note len="12" key="81" pos="7104" vol="55" pan="0"/>
          <note len="12" key="81" pos="7128" vol="55" pan="0"/>
          <note len="12" key="85" pos="7140" vol="55" pan="0"/>
          <note len="12" key="83" pos="7152" vol="55" pan="0"/>
          <note len="12" key="85" pos="7164" vol="55" pan="0"/>
          <note len="12" key="81" pos="7176" vol="55" pan="0"/>
          <note len="12" key="81" pos="7200" vol="55" pan="0"/>
          <note len="12" key="85" pos="7212" vol="55" pan="0"/>
          <note len="12" key="83" pos="7224" vol="55" pan="0"/>
          <note len="12" key="85" pos="7236" vol="55" pan="0"/>
          <note len="12" key="81" pos="7248" vol="55" pan="0"/>
          <note len="12" key="81" pos="7260" vol="55" pan="0"/>
          <note len="12" key="85" pos="7272" vol="55" pan="0"/>
          <note len="12" key="81" pos="7284" vol="55" pan="0"/>
          <note len="12" key="81" pos="7296" vol="55" pan="0"/>
          <note len="12" key="81" pos="7320" vol="55" pan="0"/>
          <note len="12" key="85" pos="7332" vol="55" pan="0"/>
          <note len="12" key="83" pos="7344" vol="55" pan="0"/>
          <note len="12" key="85" pos="7356" vol="55" pan="0"/>
          <note len="12" key="81" pos="7368" vol="55" pan="0"/>
          <note len="12" key="81" pos="7392" vol="55" pan="0"/>
          <note len="12" key="85" pos="7404" vol="55" pan="0"/>
          <note len="12" key="83" pos="7416" vol="55" pan="0"/>
          <note len="12" key="85" pos="7428" vol="55" pan="0"/>
          <note len="12" key="81" pos="7440" vol="55" pan="0"/>
          <note len="12" key="81" pos="7452" vol="55" pan="0"/>
          <note len="12" key="85" pos="7464" vol="55" pan="0"/>
          <note len="12" key="81" pos="7476" vol="55" pan="0"/>
          <note len="12" key="81" pos="7488" vol="55" pan="0"/>
          <note len="12" key="81" pos="7512" vol="55" pan="0"/>
          <note len="12" key="85" pos="7524" vol="55" pan="0"/>
          <note len="12" key="83" pos="7536" vol="55" pan="0"/>
          <note len="12" key="85" pos="7548" vol="55" pan="0"/>
          <note len="12" key="81" pos="7560" vol="55" pan="0"/>
          <note len="12" key="81" pos="7584" vol="55" pan="0"/>
          <note len="12" key="85" pos="7596" vol="55" pan="0"/>
          <note len="12" key="83" pos="7608" vol="55" pan="0"/>
          <note len="12" key="85" pos="7620" vol="55" pan="0"/>
          <note len="12" key="81" pos="7632" vol="55" pan="0"/>
          <note len="12" key="81" pos="7644" vol="55" pan="0"/>
          <note len="12" key="85" pos="7656" vol="55" pan="0"/>
          <note len="12" key="81" pos="7668" vol="55" pan="0"/>
          <note len="11" key="81" pos="7680" vol="55" pan="0"/>
          <note len="12" key="81" pos="7704" vol="55" pan="0"/>
          <note len="12" key="85" pos="7716" vol="55" pan="0"/>
          <note len="12" key="83" pos="7728" vol="55" pan="0"/>
          <note len="12" key="85" pos="7740" vol="55" pan="0"/>
          <note len="12" key="81" pos="7752" vol="55" pan="0"/>
          <note len="12" key="81" pos="7776" vol="55" pan="0"/>
          <note len="12" key="85" pos="7788" vol="55" pan="0"/>
          <note len="12" key="83" pos="7800" vol="55" pan="0"/>
          <note len="12" key="85" pos="7812" vol="55" pan="0"/>
          <note len="12" key="81" pos="7824" vol="55" pan="0"/>
          <note len="12" key="81" pos="7836" vol="55" pan="0"/>
          <note len="12" key="85" pos="7848" vol="55" pan="0"/>
          <note len="12" key="81" pos="7860" vol="55" pan="0"/>
          <note len="12" key="81" pos="7872" vol="55" pan="0"/>
          <note len="12" key="81" pos="7896" vol="55" pan="0"/>
          <note len="12" key="85" pos="7908" vol="55" pan="0"/>
          <note len="12" key="83" pos="7920" vol="55" pan="0"/>
          <note len="12" key="85" pos="7932" vol="55" pan="0"/>
          <note len="12" key="81" pos="7944" vol="55" pan="0"/>
          <note len="12" key="81" pos="7968" vol="55" pan="0"/>
          <note len="12" key="85" pos="7980" vol="55" pan="0"/>
          <note len="12" key="83" pos="7992" vol="55" pan="0"/>
          <note len="12" key="85" pos="8004" vol="55" pan="0"/>
          <note len="12" key="81" pos="8016" vol="55" pan="0"/>
          <note len="12" key="81" pos="8028" vol="55" pan="0"/>
          <note len="12" key="85" pos="8040" vol="55" pan="0"/>
          <note len="12" key="81" pos="8052" vol="55" pan="0"/>
          <note len="12" key="81" pos="8064" vol="55" pan="0"/>
          <note len="12" key="81" pos="8088" vol="55" pan="0"/>
          <note len="12" key="85" pos="8100" vol="55" pan="0"/>
          <note len="12" key="83" pos="8112" vol="55" pan="0"/>
          <note len="12" key="85" pos="8124" vol="55" pan="0"/>
          <note len="12" key="81" pos="8136" vol="55" pan="0"/>
          <note len="12" key="81" pos="8160" vol="55" pan="0"/>
          <note len="12" key="85" pos="8172" vol="55" pan="0"/>
          <note len="12" key="83" pos="8184" vol="55" pan="0"/>
          <note len="12" key="85" pos="8196" vol="55" pan="0"/>
          <note len="12" key="81" pos="8208" vol="55" pan="0"/>
          <note len="12" key="81" pos="8220" vol="55" pan="0"/>
          <note len="12" key="85" pos="8232" vol="55" pan="0"/>
          <note len="12" key="81" pos="8244" vol="55" pan="0"/>
          <note len="12" key="81" pos="8256" vol="55" pan="0"/>
          <note len="12" key="81" pos="8280" vol="55" pan="0"/>
          <note len="12" key="85" pos="8292" vol="55" pan="0"/>
          <note len="12" key="83" pos="8304" vol="55" pan="0"/>
          <note len="12" key="85" pos="8316" vol="55" pan="0"/>
          <note len="12" key="81" pos="8328" vol="55" pan="0"/>
          <note len="12" key="81" pos="8352" vol="55" pan="0"/>
          <note len="12" key="85" pos="8364" vol="55" pan="0"/>
          <note len="12" key="83" pos="8376" vol="55" pan="0"/>
          <note len="12" key="85" pos="8388" vol="55" pan="0"/>
          <note len="12" key="81" pos="8400" vol="55" pan="0"/>
          <note len="12" key="81" pos="8412" vol="55" pan="0"/>
          <note len="12" key="85" pos="8424" vol="55" pan="0"/>
          <note len="12" key="81" pos="8436" vol="55" pan="0"/>
          <note len="11" key="81" pos="8448" vol="55" pan="0"/>
          <note len="12" key="81" pos="8472" vol="55" pan="0"/>
          <note len="12" key="85" pos="8484" vol="55" pan="0"/>
          <note len="12" key="83" pos="8496" vol="55" pan="0"/>
          <note len="12" key="85" pos="8508" vol="55" pan="0"/>
          <note len="12" key="81" pos="8520" vol="55" pan="0"/>
          <note len="12" key="81" pos="8544" vol="55" pan="0"/>
          <note len="12" key="85" pos="8556" vol="55" pan="0"/>
          <note len="12" key="83" pos="8568" vol="55" pan="0"/>
          <note len="12" key="85" pos="8580" vol="55" pan="0"/>
          <note len="12" key="81" pos="8592" vol="55" pan="0"/>
          <note len="12" key="81" pos="8604" vol="55" pan="0"/>
          <note len="12" key="85" pos="8616" vol="55" pan="0"/>
          <note len="12" key="81" pos="8628" vol="55" pan="0"/>
          <note len="12" key="81" pos="8640" vol="55" pan="0"/>
          <note len="12" key="81" pos="8664" vol="55" pan="0"/>
          <note len="12" key="85" pos="8676" vol="55" pan="0"/>
          <note len="12" key="83" pos="8688" vol="55" pan="0"/>
          <note len="12" key="85" pos="8700" vol="55" pan="0"/>
          <note len="12" key="81" pos="8712" vol="55" pan="0"/>
          <note len="12" key="81" pos="8736" vol="55" pan="0"/>
          <note len="12" key="85" pos="8748" vol="55" pan="0"/>
          <note len="12" key="83" pos="8760" vol="55" pan="0"/>
          <note len="12" key="85" pos="8772" vol="55" pan="0"/>
          <note len="12" key="81" pos="8784" vol="55" pan="0"/>
          <note len="12" key="81" pos="8796" vol="55" pan="0"/>
          <note len="12" key="85" pos="8808" vol="55" pan="0"/>
          <note len="12" key="81" pos="8820" vol="55" pan="0"/>
          <note len="12" key="81" pos="8832" vol="55" pan="0"/>
          <note len="12" key="81" pos="8856" vol="55" pan="0"/>
          <note len="12" key="85" pos="8868" vol="55" pan="0"/>
          <note len="12" key="83" pos="8880" vol="55" pan="0"/>
          <note len="12" key="85" pos="8892" vol="55" pan="0"/>
          <note len="12" key="81" pos="8904" vol="55" pan="0"/>
          <note len="12" key="81" pos="8928" vol="55" pan="0"/>
          <note len="12" key="85" pos="8940" vol="55" pan="0"/>
          <note len="12" key="83" pos="8952" vol="55" pan="0"/>
          <note len="12" key="85" pos="8964" vol="55" pan="0"/>
          <note len="12" key="81" pos="8976" vol="55" pan="0"/>
          <note len="12" key="81" pos="8988" vol="55" pan="0"/>
          <note len="12" key="85" pos="9000" vol="55" pan="0"/>
          <note len="12" key="81" pos="9012" vol="55" pan="0"/>
          <note len="12" key="81" pos="9024" vol="55" pan="0"/>
          <note len="12" key="81" pos="9048" vol="55" pan="0"/>
          <note len="12" key="85" pos="9060" vol="55" pan="0"/>
          <note len="12" key="83" pos="9072" vol="55" pan="0"/>
          <note len="12" key="85" pos="9084" vol="55" pan="0"/>
          <note len="12" key="81" pos="9096" vol="55" pan="0"/>
          <note len="12" key="81" pos="9120" vol="55" pan="0"/>
          <note len="12" key="85" pos="9132" vol="55" pan="0"/>
          <note len="12" key="83" pos="9144" vol="55" pan="0"/>
          <note len="12" key="85" pos="9156" vol="55" pan="0"/>
          <note len="12" key="81" pos="9168" vol="55" pan="0"/>
          <note len="12" key="81" pos="9180" vol="55" pan="0"/>
          <note len="12" key="85" pos="9192" vol="55" pan="0"/>
          <note len="12" key="81" pos="9204" vol="55" pan="0"/>
          <note len="11" key="81" pos="9216" vol="55" pan="0"/>
          <note len="12" key="81" pos="9240" vol="55" pan="0"/>
          <note len="12" key="85" pos="9252" vol="55" pan="0"/>
          <note len="12" key="83" pos="9264" vol="55" pan="0"/>
          <note len="12" key="85" pos="9276" vol="55" pan="0"/>
          <note len="12" key="81" pos="9288" vol="55" pan="0"/>
          <note len="12" key="81" pos="9312" vol="55" pan="0"/>
          <note len="12" key="85" pos="9324" vol="55" pan="0"/>
          <note len="12" key="83" pos="9336" vol="55" pan="0"/>
          <note len="12" key="85" pos="9348" vol="55" pan="0"/>
          <note len="12" key="81" pos="9360" vol="55" pan="0"/>
          <note len="12" key="81" pos="9372" vol="55" pan="0"/>
          <note len="12" key="85" pos="9384" vol="55" pan="0"/>
          <note len="12" key="81" pos="9396" vol="55" pan="0"/>
          <note len="12" key="81" pos="9408" vol="55" pan="0"/>
          <note len="12" key="81" pos="9432" vol="55" pan="0"/>
          <note len="12" key="85" pos="9444" vol="55" pan="0"/>
          <note len="12" key="83" pos="9456" vol="55" pan="0"/>
          <note len="12" key="85" pos="9468" vol="55" pan="0"/>
          <note len="12" key="81" pos="9480" vol="55" pan="0"/>
          <note len="12" key="81" pos="9504" vol="55" pan="0"/>
          <note len="12" key="85" pos="9516" vol="55" pan="0"/>
          <note len="12" key="83" pos="9528" vol="55" pan="0"/>
          <note len="12" key="85" pos="9540" vol="55" pan="0"/>
          <note len="12" key="81" pos="9552" vol="55" pan="0"/>
          <note len="12" key="81" pos="9564" vol="55" pan="0"/>
          <note len="12" key="85" pos="9576" vol="55" pan="0"/>
          <note len="12" key="81" pos="9588" vol="55" pan="0"/>
          <note len="12" key="81" pos="9600" vol="55" pan="0"/>
          <note len="12" key="81" pos="9624" vol="55" pan="0"/>
          <note len="12" key="85" pos="9636" vol="55" pan="0"/>
          <note len="12" key="83" pos="9648" vol="55" pan="0"/>
          <note len="12" key="85" pos="9660" vol="55" pan="0"/>
          <note len="12" key="81" pos="9672" vol="55" pan="0"/>
          <note len="12" key="81" pos="9696" vol="55" pan="0"/>
          <note len="12" key="85" pos="9708" vol="55" pan="0"/>
          <note len="12" key="83" pos="9720" vol="55" pan="0"/>
          <note len="12" key="85" pos="9732" vol="55" pan="0"/>
          <note len="12" key="81" pos="9744" vol="55" pan="0"/>
          <note len="12" key="81" pos="9756" vol="55" pan="0"/>
          <note len="12" key="85" pos="9768" vol="55" pan="0"/>
          <note len="12" key="81" pos="9780" vol="55" pan="0"/>
          <note len="12" key="81" pos="9792" vol="55" pan="0"/>
          <note len="12" key="81" pos="9816" vol="55" pan="0"/>
          <note len="12" key="85" pos="9828" vol="55" pan="0"/>
          <note len="12" key="83" pos="9840" vol="55" pan="0"/>
          <note len="12" key="85" pos="9852" vol="55" pan="0"/>
          <note len="12" key="81" pos="9864" vol="55" pan="0"/>
          <note len="12" key="81" pos="9888" vol="55" pan="0"/>
          <note len="12" key="85" pos="9900" vol="55" pan="0"/>
          <note len="12" key="83" pos="9912" vol="55" pan="0"/>
          <note len="12" key="85" pos="9924" vol="55" pan="0"/>
          <note len="12" key="81" pos="9936" vol="55" pan="0"/>
          <note len="12" key="81" pos="9948" vol="55" pan="0"/>
          <note len="12" key="85" pos="9960" vol="55" pan="0"/>
          <note len="12" key="81" pos="9972" vol="55" pan="0"/>
          <note len="11" key="81" pos="9984" vol="55" pan="0"/>
          <note len="12" key="81" pos="10008" vol="55" pan="0"/>
          <note len="12" key="85" pos="10020" vol="55" pan="0"/>
          <note len="12" key="83" pos="10032" vol="55" pan="0"/>
          <note len="12" key="85" pos="10044" vol="55" pan="0"/>
          <note len="12" key="81" pos="10056" vol="55" pan="0"/>
          <note len="12" key="81" pos="10080" vol="55" pan="0"/>
          <note len="12" key="85" pos="10092" vol="55" pan="0"/>
          <note len="12" key="83" pos="10104" vol="55" pan="0"/>
          <note len="12" key="85" pos="10116" vol="55" pan="0"/>
          <note len="12" key="81" pos="10128" vol="55" pan="0"/>
          <note len="12" key="81" pos="10140" vol="55" pan="0"/>
          <note len="12" key="85" pos="10152" vol="55" pan="0"/>
          <note len="12" key="81" pos="10164" vol="55" pan="0"/>
          <note len="12" key="81" pos="10176" vol="55" pan="0"/>
          <note len="12" key="81" pos="10200" vol="55" pan="0"/>
          <note len="12" key="85" pos="10212" vol="55" pan="0"/>
          <note len="12" key="83" pos="10224" vol="55" pan="0"/>
          <note len="12" key="85" pos="10236" vol="55" pan="0"/>
          <note len="12" key="81" pos="10248" vol="55" pan="0"/>
          <note len="12" key="81" pos="10272" vol="55" pan="0"/>
          <note len="12" key="85" pos="10284" vol="55" pan="0"/>
          <note len="12" key="83" pos="10296" vol="55" pan="0"/>
          <note len="12" key="85" pos="10308" vol="55" pan="0"/>
          <note len="12" key="81" pos="10320" vol="55" pan="0"/>
          <note len="12" key="81" pos="10332" vol="55" pan="0"/>
          <note len="12" key="85" pos="10344" vol="55" pan="0"/>
          <note len="12" key="81" pos="10356" vol="55" pan="0"/>
          <note len="12" key="81" pos="10368" vol="55" pan="0"/>
          <note len="12" key="81" pos="10392" vol="55" pan="0"/>
          <note len="12" key="85" pos="10404" vol="55" pan="0"/>
          <note len="12" key="83" pos="10416" vol="55" pan="0"/>
          <note len="12" key="85" pos="10428" vol="55" pan="0"/>
          <note len="12" key="81" pos="10440" vol="55" pan="0"/>
          <note len="12" key="81" pos="10464" vol="55" pan="0"/>
          <note len="12" key="85" pos="10476" vol="55" pan="0"/>
          <note len="12" key="83" pos="10488" vol="55" pan="0"/>
          <note len="12" key="85" pos="10500" vol="55" pan="0"/>
          <note len="12" key="81" pos="10512" vol="55" pan="0"/>
          <note len="12" key="81" pos="10524" vol="55" pan="0"/>
          <note len="12" key="85" pos="10536" vol="55" pan="0"/>
          <note len="12" key="81" pos="10548" vol="55" pan="0"/>
          <note len="12" key="81" pos="10560" vol="55" pan="0"/>
          <note len="12" key="81" pos="10584" vol="55" pan="0"/>
          <note len="12" key="85" pos="10596" vol="55" pan="0"/>
          <note len="12" key="83" pos="10608" vol="55" pan="0"/>
          <note len="12" key="85" pos="10620" vol="55" pan="0"/>
          <note len="12" key="81" pos="10632" vol="55" pan="0"/>
          <note len="12" key="81" pos="10656" vol="55" pan="0"/>
          <note len="12" key="85" pos="10668" vol="55" pan="0"/>
          <note len="12" key="83" pos="10680" vol="55" pan="0"/>
          <note len="12" key="85" pos="10692" vol="55" pan="0"/>
          <note len="12" key="81" pos="10704" vol="55" pan="0"/>
          <note len="12" key="81" pos="10716" vol="55" pan="0"/>
          <note len="12" key="85" pos="10728" vol="55" pan="0"/>
          <note len="12" key="81" pos="10740" vol="55" pan="0"/>
          <note len="11" key="81" pos="10752" vol="55" pan="0"/>
          <note len="12" key="81" pos="10776" vol="55" pan="0"/>
          <note len="12" key="85" pos="10788" vol="55" pan="0"/>
          <note len="12" key="83" pos="10800" vol="55" pan="0"/>
          <note len="12" key="85" pos="10812" vol="55" pan="0"/>
          <note len="12" key="81" pos="10824" vol="55" pan="0"/>
          <note len="12" key="81" pos="10848" vol="55" pan="0"/>
          <note len="12" key="85" pos="10860" vol="55" pan="0"/>
          <note len="12" key="83" pos="10872" vol="55" pan="0"/>
          <note len="12" key="85" pos="10884" vol="55" pan="0"/>
          <note len="12" key="81" pos="10896" vol="55" pan="0"/>
          <note len="12" key="81" pos="10908" vol="55" pan="0"/>
          <note len="12" key="85" pos="10920" vol="55" pan="0"/>
          <note len="12" key="81" pos="10932" vol="55" pan="0"/>
          <note len="12" key="81" pos="10944" vol="55" pan="0"/>
          <note len="12" key="81" pos="10968" vol="55" pan="0"/>
          <note len="12" key="85" pos="10980" vol="55" pan="0"/>
          <note len="12" key="83" pos="10992" vol="55" pan="0"/>
          <note len="12" key="85" pos="11004" vol="55" pan="0"/>
          <note len="12" key="81" pos="11016" vol="55" pan="0"/>
          <note len="12" key="81" pos="11040" vol="55" pan="0"/>
          <note len="12" key="85" pos="11052" vol="55" pan="0"/>
          <note len="12" key="83" pos="11064" vol="55" pan="0"/>
          <note len="12" key="85" pos="11076" vol="55" pan="0"/>
          <note len="12" key="81" pos="11088" vol="55" pan="0"/>
          <note len="12" key="81" pos="11100" vol="55" pan="0"/>
          <note len="12" key="85" pos="11112" vol="55" pan="0"/>
          <note len="12" key="81" pos="11124" vol="55" pan="0"/>
          <note len="12" key="81" pos="11136" vol="55" pan="0"/>
          <note len="12" key="81" pos="11160" vol="55" pan="0"/>
          <note len="12" key="85" pos="11172" vol="55" pan="0"/>
          <note len="12" key="83" pos="11184" vol="55" pan="0"/>
          <note len="12" key="85" pos="11196" vol="55" pan="0"/>
          <note len="12" key="81" pos="11208" vol="55" pan="0"/>
          <note len="12" key="81" pos="11232" vol="55" pan="0"/>
          <note len="12" key="85" pos="11244" vol="55" pan="0"/>
          <note len="12" key="83" pos="11256" vol="55" pan="0"/>
          <note len="12" key="85" pos="11268" vol="55" pan="0"/>
          <note len="12" key="81" pos="11280" vol="55" pan="0"/>
          <note len="12" key="81" pos="11292" vol="55" pan="0"/>
          <note len="12" key="85" pos="11304" vol="55" pan="0"/>
          <note len="12" key="81" pos="11316" vol="55" pan="0"/>
          <note len="12" key="81" pos="11328" vol="55" pan="0"/>
          <note len="12" key="81" pos="11352" vol="55" pan="0"/>
          <note len="12" key="85" pos="11364" vol="55" pan="0"/>
          <note len="12" key="83" pos="11376" vol="55" pan="0"/>
          <note len="12" key="85" pos="11388" vol="55" pan="0"/>
          <note len="12" key="81" pos="11400" vol="55" pan="0"/>
          <note len="12" key="81" pos="11424" vol="55" pan="0"/>
          <note len="12" key="85" pos="11436" vol="55" pan="0"/>
          <note len="12" key="83" pos="11448" vol="55" pan="0"/>
          <note len="12" key="85" pos="11460" vol="55" pan="0"/>
          <note len="12" key="81" pos="11472" vol="55" pan="0"/>
          <note len="12" key="81" pos="11484" vol="55" pan="0"/>
          <note len="12" key="85" pos="11496" vol="55" pan="0"/>
          <note len="12" key="81" pos="11508" vol="55" pan="0"/>
          <note len="11" key="81" pos="11520" vol="55" pan="0"/>
          <note len="12" key="81" pos="11544" vol="55" pan="0"/>
          <note len="12" key="85" pos="11556" vol="55" pan="0"/>
          <note len="12" key="83" pos="11568" vol="55" pan="0"/>
          <note len="12" key="85" pos="11580" vol="55" pan="0"/>
          <note len="12" key="81" pos="11592" vol="55" pan="0"/>
          <note len="12" key="81" pos="11616" vol="55" pan="0"/>
          <note len="12" key="85" pos="11628" vol="55" pan="0"/>
          <note len="12" key="83" pos="11640" vol="55" pan="0"/>
          <note len="12" key="85" pos="11652" vol="55" pan="0"/>
          <note len="12" key="81" pos="11664" vol="55" pan="0"/>
          <note len="12" key="81" pos="11676" vol="55" pan="0"/>
          <note len="12" key="85" pos="11688" vol="55" pan="0"/>
          <note len="12" key="81" pos="11700" vol="55" pan="0"/>
          <note len="12" key="81" pos="11712" vol="55" pan="0"/>
          <note len="12" key="81" pos="11736" vol="55" pan="0"/>
          <note len="12" key="85" pos="11748" vol="55" pan="0"/>
          <note len="12" key="83" pos="11760" vol="55" pan="0"/>
          <note len="12" key="85" pos="11772" vol="55" pan="0"/>
          <note len="12" key="81" pos="11784" vol="55" pan="0"/>
          <note len="12" key="81" pos="11808" vol="55" pan="0"/>
          <note len="12" key="85" pos="11820" vol="55" pan="0"/>
          <note len="12" key="83" pos="11832" vol="55" pan="0"/>
          <note len="12" key="85" pos="11844" vol="55" pan="0"/>
          <note len="12" key="81" pos="11856" vol="55" pan="0"/>
          <note len="12" key="81" pos="11868" vol="55" pan="0"/>
          <note len="12" key="85" pos="11880" vol="55" pan="0"/>
          <note len="12" key="81" pos="11892" vol="55" pan="0"/>
          <note len="12" key="81" pos="11904" vol="55" pan="0"/>
          <note len="12" key="81" pos="11928" vol="55" pan="0"/>
          <note len="12" key="85" pos="11940" vol="55" pan="0"/>
          <note len="12" key="83" pos="11952" vol="55" pan="0"/>
          <note len="12" key="85" pos="11964" vol="55" pan="0"/>
          <note len="12" key="81" pos="11976" vol="55" pan="0"/>
          <note len="12" key="81" pos="12000" vol="55" pan="0"/>
          <note len="12" key="85" pos="12012" vol="55" pan="0"/>
          <note len="12" key="83" pos="12024" vol="55" pan="0"/>
          <note len="12" key="85" pos="12036" vol="55" pan="0"/>
          <note len="12" key="81" pos="12048" vol="55" pan="0"/>
          <note len="12" key="81" pos="12060" vol="55" pan="0"/>
          <note len="12" key="85" pos="12072" vol="55" pan="0"/>
          <note len="12" key="81" pos="12084" vol="55" pan="0"/>
          <note len="12" key="81" pos="12096" vol="55" pan="0"/>
          <note len="12" key="81" pos="12120" vol="55" pan="0"/>
          <note len="12" key="85" pos="12132" vol="55" pan="0"/>
          <note len="12" key="83" pos="12144" vol="55" pan="0"/>
          <note len="12" key="85" pos="12156" vol="55" pan="0"/>
          <note len="12" key="81" pos="12168" vol="55" pan="0"/>
          <note len="12" key="81" pos="12192" vol="55" pan="0"/>
          <note len="12" key="85" pos="12204" vol="55" pan="0"/>
          <note len="12" key="83" pos="12216" vol="55" pan="0"/>
          <note len="12" key="85" pos="12228" vol="55" pan="0"/>
          <note len="12" key="81" pos="12240" vol="55" pan="0"/>
          <note len="12" key="81" pos="12252" vol="55" pan="0"/>
          <note len="12" key="85" pos="12264" vol="55" pan="0"/>
          <note len="12" key="81" pos="12276" vol="55" pan="0"/>
          <note len="11" key="81" pos="12288" vol="55" pan="0"/>
          <note len="12" key="81" pos="12312" vol="55" pan="0"/>
          <note len="12" key="85" pos="12324" vol="55" pan="0"/>
          <note len="12" key="83" pos="12336" vol="55" pan="0"/>
          <note len="12" key="85" pos="12348" vol="55" pan="0"/>
          <note len="12" key="81" pos="12360" vol="55" pan="0"/>
          <note len="12" key="81" pos="12384" vol="55" pan="0"/>
          <note len="12" key="85" pos="12396" vol="55" pan="0"/>
          <note len="12" key="83" pos="12408" vol="55" pan="0"/>
          <note len="12" key="85" pos="12420" vol="55" pan="0"/>
          <note len="12" key="81" pos="12432" vol="55" pan="0"/>
          <note len="12" key="81" pos="12444" vol="55" pan="0"/>
          <note len="12" key="85" pos="12456" vol="55" pan="0"/>
          <note len="12" key="81" pos="12468" vol="55" pan="0"/>
          <note len="12" key="81" pos="12480" vol="55" pan="0"/>
          <note len="12" key="81" pos="12504" vol="55" pan="0"/>
          <note len="12" key="85" pos="12516" vol="55" pan="0"/>
          <note len="12" key="83" pos="12528" vol="55" pan="0"/>
          <note len="12" key="85" pos="12540" vol="55" pan="0"/>
          <note len="12" key="81" pos="12552" vol="55" pan="0"/>
          <note len="12" key="81" pos="12576" vol="55" pan="0"/>
          <note len="12" key="85" pos="12588" vol="55" pan="0"/>
          <note len="12" key="83" pos="12600" vol="55" pan="0"/>
          <note len="12" key="85" pos="12612" vol="55" pan="0"/>
          <note len="12" key="81" pos="12624" vol="55" pan="0"/>
          <note len="12" key="81" pos="12636" vol="55" pan="0"/>
          <note len="12" key="85" pos="12648" vol="55" pan="0"/>
          <note len="12" key="81" pos="12660" vol="55" pan="0"/>
          <note len="12" key="81" pos="12672" vol="55" pan="0"/>
          <note len="12" key="81" pos="12696" vol="55" pan="0"/>
          <note len="12" key="85" pos="12708" vol="55" pan="0"/>
          <note len="12" key="83" pos="12720" vol="55" pan="0"/>
          <note len="12" key="85" pos="12732" vol="55" pan="0"/>
          <note len="12" key="81" pos="12744" vol="55" pan="0"/>
          <note len="12" key="81" pos="12768" vol="55" pan="0"/>
          <note len="12" key="85" pos="12780" vol="55" pan="0"/>
          <note len="12" key="83" pos="12792" vol="55" pan="0"/>
          <note len="12" key="85" pos="12804" vol="55" pan="0"/>
          <note len="12" key="81" pos="12816" vol="55" pan="0"/>
          <note len="12" key="81" pos="12828" vol="55" pan="0"/>
          <note len="12" key="85" pos="12840" vol="55" pan="0"/>
          <note len="12" key="81" pos="12852" vol="55" pan="0"/>
          <note len="12" key="81" pos="12864" vol="55" pan="0"/>
          <note len="12" key="81" pos="12888" vol="55" pan="0"/>
          <note len="12" key="85" pos="12900" vol="55" pan="0"/>
          <note len="12" key="83" pos="12912" vol="55" pan="0"/>
          <note len="12" key="85" pos="12924" vol="55" pan="0"/>
          <note len="12" key="81" pos="12936" vol="55" pan="0"/>
          <note len="12" key="81" pos="12960" vol="55" pan="0"/>
          <note len="12" key="85" pos="12972" vol="55" pan="0"/>
          <note len="12" key="83" pos="12984" vol="55" pan="0"/>
          <note len="12" key="85" pos="12996" vol="55" pan="0"/>
          <note len="12" key="81" pos="13008" vol="55" pan="0"/>
          <note len="12" key="81" pos="13020" vol="55" pan="0"/>
          <note len="12" key="85" pos="13032" vol="55" pan="0"/>
          <note len="12" key="81" pos="13044" vol="55" pan="0"/>
          <note len="11" key="81" pos="13056" vol="55" pan="0"/>
          <note len="12" key="81" pos="13080" vol="55" pan="0"/>
          <note len="12" key="85" pos="13092" vol="55" pan="0"/>
          <note len="12" key="83" pos="13104" vol="55" pan="0"/>
          <note len="12" key="85" pos="13116" vol="55" pan="0"/>
          <note len="12" key="81" pos="13128" vol="55" pan="0"/>
          <note len="12" key="81" pos="13152" vol="55" pan="0"/>
          <note len="12" key="85" pos="13164" vol="55" pan="0"/>
          <note len="12" key="83" pos="13176" vol="55" pan="0"/>
          <note len="12" key="85" pos="13188" vol="55" pan="0"/>
          <note len="12" key="81" pos="13200" vol="55" pan="0"/>
          <note len="12" key="81" pos="13212" vol="55" pan="0"/>
          <note len="12" key="85" pos="13224" vol="55" pan="0"/>
          <note len="12" key="81" pos="13236" vol="55" pan="0"/>
          <note len="12" key="81" pos="13248" vol="55" pan="0"/>
          <note len="12" key="81" pos="13272" vol="55" pan="0"/>
          <note len="12" key="85" pos="13284" vol="55" pan="0"/>
          <note len="12" key="83" pos="13296" vol="55" pan="0"/>
          <note len="12" key="85" pos="13308" vol="55" pan="0"/>
          <note len="12" key="81" pos="13320" vol="55" pan="0"/>
          <note len="12" key="81" pos="13344" vol="55" pan="0"/>
          <note len="12" key="85" pos="13356" vol="55" pan="0"/>
          <note len="12" key="83" pos="13368" vol="55" pan="0"/>
          <note len="12" key="85" pos="13380" vol="55" pan="0"/>
          <note len="12" key="81" pos="13392" vol="55" pan="0"/>
          <note len="12" key="81" pos="13404" vol="55" pan="0"/>
          <note len="12" key="85" pos="13416" vol="55" pan="0"/>
          <note len="12" key="81" pos="13428" vol="55" pan="0"/>
          <note len="12" key="81" pos="13440" vol="55" pan="0"/>
          <note len="12" key="81" pos="13464" vol="55" pan="0"/>
          <note len="12" key="85" pos="13476" vol="55" pan="0"/>
          <note len="12" key="83" pos="13488" vol="55" pan="0"/>
          <note len="12" key="85" pos="13500" vol="55" pan="0"/>
          <note len="12" key="81" pos="13512" vol="55" pan="0"/>
          <note len="12" key="81" pos="13536" vol="55" pan="0"/>
          <note len="12" key="85" pos="13548" vol="55" pan="0"/>
          <note len="12" key="83" pos="13560" vol="55" pan="0"/>
          <note len="12" key="85" pos="13572" vol="55" pan="0"/>
          <note len="12" key="81" pos="13584" vol="55" pan="0"/>
          <note len="12" key="81" pos="13596" vol="55" pan="0"/>
          <note len="12" key="85" pos="13608" vol="55" pan="0"/>
          <note len="12" key="81" pos="13620" vol="55" pan="0"/>
          <note len="12" key="81" pos="13632" vol="55" pan="0"/>
          <note len="12" key="81" pos="13656" vol="55" pan="0"/>
          <note len="12" key="85" pos="13668" vol="55" pan="0"/>
          <note len="12" key="83" pos="13680" vol="55" pan="0"/>
          <note len="12" key="85" pos="13692" vol="55" pan="0"/>
          <note len="12" key="81" pos="13704" vol="55" pan="0"/>
          <note len="12" key="81" pos="13728" vol="55" pan="0"/>
          <note len="12" key="85" pos="13740" vol="55" pan="0"/>
          <note len="12" key="83" pos="13752" vol="55" pan="0"/>
          <note len="12" key="85" pos="13764" vol="55" pan="0"/>
          <note len="12" key="81" pos="13776" vol="55" pan="0"/>
          <note len="12" key="81" pos="13788" vol="55" pan="0"/>
          <note len="12" key="85" pos="13800" vol="55" pan="0"/>
          <note len="12" key="81" pos="13812" vol="55" pan="0"/>
          <note len="11" key="81" pos="13824" vol="55" pan="0"/>
          <note len="12" key="81" pos="13848" vol="55" pan="0"/>
          <note len="12" key="85" pos="13860" vol="55" pan="0"/>
          <note len="12" key="83" pos="13872" vol="55" pan="0"/>
          <note len="12" key="85" pos="13884" vol="55" pan="0"/>
          <note len="12" key="81" pos="13896" vol="55" pan="0"/>
          <note len="12" key="81" pos="13920" vol="55" pan="0"/>
          <note len="12" key="85" pos="13932" vol="55" pan="0"/>
          <note len="12" key="83" pos="13944" vol="55" pan="0"/>
          <note len="12" key="85" pos="13956" vol="55" pan="0"/>
          <note len="12" key="81" pos="13968" vol="55" pan="0"/>
          <note len="12" key="81" pos="13980" vol="55" pan="0"/>
          <note len="12" key="85" pos="13992" vol="55" pan="0"/>
          <note len="12" key="81" pos="14004" vol="55" pan="0"/>
          <note len="12" key="81" pos="14016" vol="55" pan="0"/>
          <note len="12" key="81" pos="14040" vol="55" pan="0"/>
          <note len="12" key="85" pos="14052" vol="55" pan="0"/>
          <note len="12" key="83" pos="14064" vol="55" pan="0"/>
          <note len="12" key="85" pos="14076" vol="55" pan="0"/>
          <note len="12" key="81" pos="14088" vol="55" pan="0"/>
          <note len="12" key="81" pos="14112" vol="55" pan="0"/>
          <note len="12" key="85" pos="14124" vol="55" pan="0"/>
          <note len="12" key="83" pos="14136" vol="55" pan="0"/>
          <note len="12" key="85" pos="14148" vol="55" pan="0"/>
          <note len="12" key="81" pos="14160" vol="55" pan="0"/>
          <note len="12" key="81" pos="14172" vol="55" pan="0"/>
          <note len="12" key="85" pos="14184" vol="55" pan="0"/>
          <note len="12" key="81" pos="14196" vol="55" pan="0"/>
          <note len="12" key="81" pos="14208" vol="55" pan="0"/>
          <note len="12" key="81" pos="14232" vol="55" pan="0"/>
          <note len="12" key="85" pos="14244" vol="55" pan="0"/>
          <note len="12" key="83" pos="14256" vol="55" pan="0"/>
          <note len="12" key="85" pos="14268" vol="55" pan="0"/>
          <note len="12" key="81" pos="14280" vol="55" pan="0"/>
          <note len="12" key="81" pos="14304" vol="55" pan="0"/>
          <note len="12" key="85" pos="14316" vol="55" pan="0"/>
          <note len="12" key="83" pos="14328" vol="55" pan="0"/>
          <note len="12" key="85" pos="14340" vol="55" pan="0"/>
          <note len="12" key="81" pos="14352" vol="55" pan="0"/>
          <note len="12" key="81" pos="14364" vol="55" pan="0"/>
          <note len="12" key="85" pos="14376" vol="55" pan="0"/>
          <note len="12" key="81" pos="14388" vol="55" pan="0"/>
          <note len="12" key="81" pos="14400" vol="55" pan="0"/>
          <note len="12" key="81" pos="14424" vol="55" pan="0"/>
          <note len="12" key="85" pos="14436" vol="55" pan="0"/>
          <note len="12" key="83" pos="14448" vol="55" pan="0"/>
          <note len="12" key="85" pos="14460" vol="55" pan="0"/>
          <note len="12" key="81" pos="14472" vol="55" pan="0"/>
          <note len="12" key="81" pos="14496" vol="55" pan="0"/>
          <note len="12" key="85" pos="14508" vol="55" pan="0"/>
          <note len="12" key="83" pos="14520" vol="55" pan="0"/>
          <note len="12" key="85" pos="14532" vol="55" pan="0"/>
          <note len="12" key="81" pos="14544" vol="55" pan="0"/>
          <note len="12" key="81" pos="14556" vol="55" pan="0"/>
          <note len="12" key="85" pos="14568" vol="55" pan="0"/>
          <note len="12" key="81" pos="14580" vol="55" pan="0"/>
          <note len="11" key="81" pos="14592" vol="55" pan="0"/>
          <note len="12" key="81" pos="14616" vol="55" pan="0"/>
          <note len="12" key="85" pos="14628" vol="55" pan="0"/>
          <note len="12" key="83" pos="14640" vol="55" pan="0"/>
          <note len="12" key="85" pos="14652" vol="55" pan="0"/>
          <note len="12" key="81" pos="14664" vol="55" pan="0"/>
          <note len="12" key="81" pos="14688" vol="55" pan="0"/>
          <note len="12" key="85" pos="14700" vol="55" pan="0"/>
          <note len="12" key="83" pos="14712" vol="55" pan="0"/>
          <note len="12" key="85" pos="14724" vol="55" pan="0"/>
          <note len="12" key="81" pos="14736" vol="55" pan="0"/>
          <note len="12" key="81" pos="14748" vol="55" pan="0"/>
          <note len="12" key="85" pos="14760" vol="55" pan="0"/>
          <note len="12" key="81" pos="14772" vol="55" pan="0"/>
          <note len="12" key="81" pos="14784" vol="55" pan="0"/>
          <note len="12" key="81" pos="14808" vol="55" pan="0"/>
          <note len="12" key="85" pos="14820" vol="55" pan="0"/>
          <note len="12" key="83" pos="14832" vol="55" pan="0"/>
          <note len="12" key="85" pos="14844" vol="55" pan="0"/>
          <note len="12" key="81" pos="14856" vol="55" pan="0"/>
          <note len="12" key="81" pos="14880" vol="55" pan="0"/>
          <note len="12" key="85" pos="14892" vol="55" pan="0"/>
          <note len="12" key="83" pos="14904" vol="55" pan="0"/>
          <note len="12" key="85" pos="14916" vol="55" pan="0"/>
          <note len="12" key="81" pos="14928" vol="55" pan="0"/>
          <note len="12" key="81" pos="14940" vol="55" pan="0"/>
          <note len="12" key="85" pos="14952" vol="55" pan="0"/>
          <note len="12" key="81" pos="14964" vol="55" pan="0"/>
          <note len="12" key="81" pos="14976" vol="55" pan="0"/>
          <note len="12" key="81" pos="15000" vol="55" pan="0"/>
          <note len="12" key="85" pos="15012" vol="55" pan="0"/>
          <note len="12" key="83" pos="15024" vol="55" pan="0"/>
          <note len="12" key="85" pos="15036" vol="55" pan="0"/>
          <note len="12" key="81" pos="15048" vol="55" pan="0"/>
          <note len="12" key="81" pos="15072" vol="55" pan="0"/>
          <note len="12" key="85" pos="15084" vol="55" pan="0"/>
          <note len="12" key="83" pos="15096" vol="55" pan="0"/>
          <note len="12" key="85" pos="15108" vol="55" pan="0"/>
          <note len="12" key="81" pos="15120" vol="55" pan="0"/>
          <note len="12" key="81" pos="15132" vol="55" pan="0"/>
          <note len="12" key="85" pos="15144" vol="55" pan="0"/>
          <note len="12" key="81" pos="15156" vol="55" pan="0"/>
          <note len="12" key="81" pos="15168" vol="55" pan="0"/>
          <note len="12" key="81" pos="15192" vol="55" pan="0"/>
          <note len="12" key="85" pos="15204" vol="55" pan="0"/>
          <note len="12" key="83" pos="15216" vol="55" pan="0"/>
          <note len="12" key="85" pos="15228" vol="55" pan="0"/>
          <note len="12" key="81" pos="15240" vol="55" pan="0"/>
          <note len="12" key="81" pos="15264" vol="55" pan="0"/>
          <note len="12" key="85" pos="15276" vol="55" pan="0"/>
          <note len="12" key="83" pos="15288" vol="55" pan="0"/>
          <note len="12" key="85" pos="15300" vol="55" pan="0"/>
          <note len="12" key="81" pos="15312" vol="55" pan="0"/>
          <note len="12" key="81" pos="15324" vol="55" pan="0"/>
          <note len="12" key="85" pos="15336" vol="55" pan="0"/>
          <note len="12" key="81" pos="15348" vol="55" pan="0"/>
          <note len="11" key="81" pos="15360" vol="55" pan="0"/>
          <note len="12" key="81" pos="15384" vol="55" pan="0"/>
          <note len="12" key="85" pos="15396" vol="55" pan="0"/>
          <note len="12" key="83" pos="15408" vol="55" pan="0"/>
          <note len="12" key="85" pos="15420" vol="55" pan="0"/>
          <note len="12" key="81" pos="15432" vol="55" pan="0"/>
          <note len="12" key="81" pos="15456" vol="55" pan="0"/>
          <note len="12" key="85" pos="15468" vol="55" pan="0"/>
          <note len="12" key="83" pos="15480" vol="55" pan="0"/>
          <note len="12" key="85" pos="15492" vol="55" pan="0"/>
          <note len="12" key="81" pos="15504" vol="55" pan="0"/>
          <note len="12" key="81" pos="15516" vol="55" pan="0"/>
          <note len="12" key="85" pos="15528" vol="55" pan="0"/>
          <note len="12" key="81" pos="15540" vol="55" pan="0"/>
          <note len="12" key="81" pos="15552" vol="55" pan="0"/>
          <note len="12" key="81" pos="15576" vol="55" pan="0"/>
          <note len="12" key="85" pos="15588" vol="55" pan="0"/>
          <note len="12" key="83" pos="15600" vol="55" pan="0"/>
          <note len="12" key="85" pos="15612" vol="55" pan="0"/>
          <note len="12" key="81" pos="15624" vol="55" pan="0"/>
          <note len="12" key="81" pos="15648" vol="55" pan="0"/>
          <note len="12" key="85" pos="15660" vol="55" pan="0"/>
          <note len="12" key="83" pos="15672" vol="55" pan="0"/>
          <note len="12" key="85" pos="15684" vol="55" pan="0"/>
          <note len="12" key="81" pos="15696" vol="55" pan="0"/>
          <note len="12" key="81" pos="15708" vol="55" pan="0"/>
          <note len="12" key="85" pos="15720" vol="55" pan="0"/>
          <note len="12" key="81" pos="15732" vol="55" pan="0"/>
          <note len="12" key="81" pos="15744" vol="55" pan="0"/>
          <note len="12" key="81" pos="15768" vol="55" pan="0"/>
          <note len="12" key="85" pos="15780" vol="55" pan="0"/>
          <note len="12" key="83" pos="15792" vol="55" pan="0"/>
          <note len="12" key="85" pos="15804" vol="55" pan="0"/>
          <note len="12" key="81" pos="15816" vol="55" pan="0"/>
          <note len="12" key="81" pos="15840" vol="55" pan="0"/>
          <note len="12" key="85" pos="15852" vol="55" pan="0"/>
          <note len="12" key="83" pos="15864" vol="55" pan="0"/>
          <note len="12" key="85" pos="15876" vol="55" pan="0"/>
          <note len="12" key="81" pos="15888" vol="55" pan="0"/>
          <note len="12" key="81" pos="15900" vol="55" pan="0"/>
          <note len="12" key="85" pos="15912" vol="55" pan="0"/>
          <note len="12" key="81" pos="15924" vol="55" pan="0"/>
          <note len="12" key="81" pos="15936" vol="55" pan="0"/>
          <note len="12" key="81" pos="15960" vol="55" pan="0"/>
          <note len="12" key="85" pos="15972" vol="55" pan="0"/>
          <note len="12" key="83" pos="15984" vol="55" pan="0"/>
          <note len="12" key="85" pos="15996" vol="55" pan="0"/>
          <note len="12" key="81" pos="16008" vol="55" pan="0"/>
          <note len="12" key="81" pos="16032" vol="55" pan="0"/>
          <note len="12" key="85" pos="16044" vol="55" pan="0"/>
          <note len="12" key="83" pos="16056" vol="55" pan="0"/>
          <note len="12" key="85" pos="16068" vol="55" pan="0"/>
          <note len="12" key="81" pos="16080" vol="55" pan="0"/>
          <note len="12" key="81" pos="16092" vol="55" pan="0"/>
          <note len="12" key="85" pos="16104" vol="55" pan="0"/>
          <note len="12" key="81" pos="16116" vol="55" pan="0"/>
          <note len="11" key="81" pos="16128" vol="55" pan="0"/>
          <note len="12" key="81" pos="16152" vol="55" pan="0"/>
          <note len="12" key="85" pos="16164" vol="55" pan="0"/>
          <note len="12" key="83" pos="16176" vol="55" pan="0"/>
          <note len="12" key="85" pos="16188" vol="55" pan="0"/>
          <note len="12" key="81" pos="16200" vol="55" pan="0"/>
          <note len="12" key="81" pos="16224" vol="55" pan="0"/>
          <note len="12" key="85" pos="16236" vol="55" pan="0"/>
          <note len="12" key="83" pos="16248" vol="55" pan="0"/>
          <note len="12" key="85" pos="16260" vol="55" pan="0"/>
          <note len="12" key="81" pos="16272" vol="55" pan="0"/>
          <note len="12" key="81" pos="16284" vol="55" pan="0"/>
          <note len="12" key="85" pos="16296" vol="55" pan="0"/>
          <note len="12" key="81" pos="16308" vol="55" pan="0"/>
          <note len="12" key="81" pos="16320" vol="55" pan="0"/>
          <note len="12" key="81" pos="16344" vol="55" pan="0"/>
          <note len="12" key="85" pos="16356" vol="55" pan="0"/>
          <note len="12" key="83" pos="16368" vol="55" pan="0"/>
          <note len="12" key="85" pos="16380" vol="55" pan="0"/>
          <note len="12" key="81" pos="16392" vol="55" pan="0"/>
          <note len="12" key="81" pos="16416" vol="55" pan="0"/>
          <note len="12" key="85" pos="16428" vol="55" pan="0"/>
          <note len="12" key="83" pos="16440" vol="55" pan="0"/>
          <note len="12" key="85" pos="16452" vol="55" pan="0"/>
          <note len="12" key="81" pos="16464" vol="55" pan="0"/>
          <note len="12" key="81" pos="16476" vol="55" pan="0"/>
          <note len="12" key="85" pos="16488" vol="55" pan="0"/>
          <note len="12" key="81" pos="16500" vol="55" pan="0"/>
          <note len="12" key="81" pos="16512" vol="55" pan="0"/>
          <note len="12" key="81" pos="16536" vol="55" pan="0"/>
          <note len="12" key="85" pos="16548" vol="55" pan="0"/>
          <note len="12" key="83" pos="16560" vol="55" pan="0"/>
          <note len="12" key="85" pos="16572" vol="55" pan="0"/>
          <note len="12" key="81" pos="16584" vol="55" pan="0"/>
          <note len="12" key="81" pos="16608" vol="55" pan="0"/>
          <note len="12" key="85" pos="16620" vol="55" pan="0"/>
          <note len="12" key="83" pos="16632" vol="55" pan="0"/>
          <note len="12" key="85" pos="16644" vol="55" pan="0"/>
          <note len="12" key="81" pos="16656" vol="55" pan="0"/>
          <note len="12" key="81" pos="16668" vol="55" pan="0"/>
          <note len="12" key="85" pos="16680" vol="55" pan="0"/>
          <note len="12" key="81" pos="16692" vol="55" pan="0"/>
          <note len="12" key="81" pos="16704" vol="55" pan="0"/>
          <note len="12" key="81" pos="16728" vol="55" pan="0"/>
          <note len="12" key="85" pos="16740" vol="55" pan="0"/>
          <note len="12" key="83" pos="16752" vol="55" pan="0"/>
          <note len="12" key="85" pos="16764" vol="55" pan="0"/>
          <note len="12" key="81" pos="16776" vol="55" pan="0"/>
          <note len="12" key="81" pos="16800" vol="55" pan="0"/>
          <note len="12" key="85" pos="16812" vol="55" pan="0"/>
          <note len="12" key="83" pos="16824" vol="55" pan="0"/>
          <note len="12" key="85" pos="16836" vol="55" pan="0"/>
          <note len="12" key="81" pos="16848" vol="55" pan="0"/>
          <note len="12" key="81" pos="16860" vol="55" pan="0"/>
          <note len="12" key="85" pos="16872" vol="55" pan="0"/>
          <note len="12" key="81" pos="16884" vol="55" pan="0"/>
          <note len="11" key="81" pos="16896" vol="55" pan="0"/>
          <note len="12" key="81" pos="16920" vol="55" pan="0"/>
          <note len="12" key="85" pos="16932" vol="55" pan="0"/>
          <note len="12" key="83" pos="16944" vol="55" pan="0"/>
          <note len="12" key="85" pos="16956" vol="55" pan="0"/>
          <note len="12" key="81" pos="16968" vol="55" pan="0"/>
          <note len="12" key="81" pos="16992" vol="55" pan="0"/>
          <note len="12" key="85" pos="17004" vol="55" pan="0"/>
          <note len="12" key="83" pos="17016" vol="55" pan="0"/>
          <note len="12" key="85" pos="17028" vol="55" pan="0"/>
          <note len="12" key="81" pos="17040" vol="55" pan="0"/>
          <note len="12" key="81" pos="17052" vol="55" pan="0"/>
          <note len="12" key="85" pos="17064" vol="55" pan="0"/>
          <note len="12" key="81" pos="17076" vol="55" pan="0"/>
          <note len="12" key="81" pos="17088" vol="55" pan="0"/>
          <note len="12" key="81" pos="17112" vol="55" pan="0"/>
          <note len="12" key="85" pos="17124" vol="55" pan="0"/>
          <note len="12" key="83" pos="17136" vol="55" pan="0"/>
          <note len="12" key="85" pos="17148" vol="55" pan="0"/>
          <note len="12" key="81" pos="17160" vol="55" pan="0"/>
          <note len="12" key="81" pos="17184" vol="55" pan="0"/>
          <note len="12" key="85" pos="17196" vol="55" pan="0"/>
          <note len="12" key="83" pos="17208" vol="55" pan="0"/>
          <note len="12" key="85" pos="17220" vol="55" pan="0"/>
          <note len="12" key="81" pos="17232" vol="55" pan="0"/>
          <note len="12" key="81" pos="17244" vol="55" pan="0"/>
          <note len="12" key="85" pos="17256" vol="55" pan="0"/>
          <note len="12" key="81" pos="17268" vol="55" pan="0"/>
          <note len="12" key="81" pos="17280" vol="55" pan="0"/>
          <note len="12" key="81" pos="17304" vol="55" pan="0"/>
          <note len="12" key="85" pos="17316" vol="55" pan="0"/>
          <note len="12" key="83" pos="17328" vol="55" pan="0"/>
          <note len="12" key="85" pos="17340" vol="55" pan="0"/>
          <note len="12" key="81" pos="17352" vol="55" pan="0"/>
          <note len="12" key="81" pos="17376" vol="55" pan="0"/>
          <note len="12" key="85" pos="17388" vol="55" pan="0"/>
          <note len="12" key="83" pos="17400" vol="55" pan="0"/>
          <note len="12" key="85" pos="17412" vol="55" pan="0"/>
          <note len="12" key="81" pos="17424" vol="55" pan="0"/>
          <note len="12" key="81" pos="17436" vol="55" pan="0"/>
          <note len="12" key="85" pos="17448" vol="55" pan="0"/>
          <note len="12" key="81" pos="17460" vol="55" pan="0"/>
          <note len="12" key="81" pos="17472" vol="55" pan="0"/>
          <note len="12" key="81" pos="17496" vol="55" pan="0"/>
          <note len="12" key="85" pos="17508" vol="55" pan="0"/>
          <note len="12" key="83" pos="17520" vol="55" pan="0"/>
          <note len="12" key="85" pos="17532" vol="55" pan="0"/>
          <note len="12" key="81" pos="17544" vol="55" pan="0"/>
          <note len="12" key="81" pos="17568" vol="55" pan="0"/>
          <note len="12" key="85" pos="17580" vol="55" pan="0"/>
          <note len="12" key="83" pos="17592" vol="55" pan="0"/>
          <note len="12" key="85" pos="17604" vol="55" pan="0"/>
          <note len="12" key="81" pos="17616" vol="55" pan="0"/>
          <note len="12" key="81" pos="17628" vol="55" pan="0"/>
          <note len="12" key="85" pos="17640" vol="55" pan="0"/>
          <note len="12" key="81" pos="17652" vol="55" pan="0"/>
          <note len="11" key="81" pos="17664" vol="55" pan="0"/>
          <note len="12" key="81" pos="17688" vol="55" pan="0"/>
          <note len="12" key="85" pos="17700" vol="55" pan="0"/>
          <note len="12" key="83" pos="17712" vol="55" pan="0"/>
          <note len="12" key="85" pos="17724" vol="55" pan="0"/>
          <note len="12" key="81" pos="17736" vol="55" pan="0"/>
          <note len="12" key="81" pos="17760" vol="55" pan="0"/>
          <note len="12" key="85" pos="17772" vol="55" pan="0"/>
          <note len="12" key="83" pos="17784" vol="55" pan="0"/>
          <note len="12" key="85" pos="17796" vol="55" pan="0"/>
          <note len="12" key="81" pos="17808" vol="55" pan="0"/>
          <note len="12" key="81" pos="17820" vol="55" pan="0"/>
          <note len="12" key="85" pos="17832" vol="55" pan="0"/>
          <note len="12" key="81" pos="17844" vol="55" pan="0"/>
          <note len="12" key="81" pos="17856" vol="55" pan="0"/>
          <note len="12" key="81" pos="17880" vol="55" pan="0"/>
          <note len="12" key="85" pos="17892" vol="55" pan="0"/>
          <note len="12" key="83" pos="17904" vol="55" pan="0"/>
          <note len="12" key="85" pos="17916" vol="55" pan="0"/>
          <note len="12" key="81" pos="17928" vol="55" pan="0"/>
          <note len="12" key="81" pos="17952" vol="55" pan="0"/>
          <note len="12" key="85" pos="17964" vol="55" pan="0"/>
          <note len="12" key="83" pos="17976" vol="55" pan="0"/>
          <note len="12" key="85" pos="17988" vol="55" pan="0"/>
          <note len="12" key="81" pos="18000" vol="55" pan="0"/>
          <note len="12" key="81" pos="18012" vol="55" pan="0"/>
          <note len="12" key="85" pos="18024" vol="55" pan="0"/>
          <note len="12" key="81" pos="18036" vol="55" pan="0"/>
          <note len="12" key="81" pos="18048" vol="55" pan="0"/>
          <note len="12" key="81" pos="18072" vol="55" pan="0"/>
          <note len="12" key="85" pos="18084" vol="55" pan="0"/>
          <note len="12" key="83" pos="18096" vol="55" pan="0"/>
          <note len="12" key="85" pos="18108" vol="55" pan="0"/>
          <note len="12" key="81" pos="18120" vol="55" pan="0"/>
          <note len="12" key="81" pos="18144" vol="55" pan="0"/>
          <note len="12" key="85" pos="18156" vol="55" pan="0"/>
          <note len="12" key="83" pos="18168" vol="55" pan="0"/>
          <note len="12" key="85" pos="18180" vol="55" pan="0"/>
          <note len="12" key="81" pos="18192" vol="55" pan="0"/>
          <note len="12" key="81" pos="18204" vol="55" pan="0"/>
          <note len="12" key="85" pos="18216" vol="55" pan="0"/>
          <note len="12" key="81" pos="18228" vol="55" pan="0"/>
          <note len="12" key="81" pos="18240" vol="55" pan="0"/>
          <note len="12" key="81" pos="18264" vol="55" pan="0"/>
          <note len="12" key="85" pos="18276" vol="55" pan="0"/>
          <note len="12" key="83" pos="18288" vol="55" pan="0"/>
          <note len="12" key="85" pos="18300" vol="55" pan="0"/>
          <note len="12" key="81" pos="18312" vol="55" pan="0"/>
          <note len="12" key="81" pos="18336" vol="55" pan="0"/>
          <note len="12" key="85" pos="18348" vol="55" pan="0"/>
          <note len="12" key="83" pos="18360" vol="55" pan="0"/>
          <note len="12" key="85" pos="18372" vol="55" pan="0"/>
          <note len="12" key="81" pos="18384" vol="55" pan="0"/>
          <note len="12" key="81" pos="18396" vol="55" pan="0"/>
          <note len="12" key="85" pos="18408" vol="55" pan="0"/>
          <note len="12" key="81" pos="18420" vol="55" pan="0"/>
          <note len="11" key="81" pos="18432" vol="55" pan="0"/>
          <note len="12" key="81" pos="18456" vol="55" pan="0"/>
          <note len="12" key="85" pos="18468" vol="55" pan="0"/>
          <note len="12" key="83" pos="18480" vol="55" pan="0"/>
          <note len="12" key="85" pos="18492" vol="55" pan="0"/>
          <note len="12" key="81" pos="18504" vol="55" pan="0"/>
          <note len="12" key="81" pos="18528" vol="55" pan="0"/>
          <note len="12" key="85" pos="18540" vol="55" pan="0"/>
          <note len="12" key="83" pos="18552" vol="55" pan="0"/>
          <note len="12" key="85" pos="18564" vol="55" pan="0"/>
          <note len="12" key="81" pos="18576" vol="55" pan="0"/>
          <note len="12" key="81" pos="18588" vol="55" pan="0"/>
          <note len="12" key="85" pos="18600" vol="55" pan="0"/>
          <note len="12" key="81" pos="18612" vol="55" pan="0"/>
          <note len="12" key="81" pos="18624" vol="55" pan="0"/>
          <note len="12" key="81" pos="18648" vol="55" pan="0"/>
          <note len="12" key="85" pos="18660" vol="55" pan="0"/>
          <note len="12" key="83" pos="18672" vol="55" pan="0"/>
          <note len="12" key="85" pos="18684" vol="55" pan="0"/>
          <note len="12" key="81" pos="18696" vol="55" pan="0"/>
          <note len="12" key="81" pos="18720" vol="55" pan="0"/>
          <note len="12" key="85" pos="18732" vol="55" pan="0"/>
          <note len="12" key="83" pos="18744" vol="55" pan="0"/>
          <note len="12" key="85" pos="18756" vol="55" pan="0"/>
          <note len="12" key="81" pos="18768" vol="55" pan="0"/>
          <note len="12" key="81" pos="18780" vol="55" pan="0"/>
          <note len="12" key="85" pos="18792" vol="55" pan="0"/>
          <note len="12" key="81" pos="18804" vol="55" pan="0"/>
          <note len="12" key="81" pos="18816" vol="55" pan="0"/>
          <note len="12" key="81" pos="18840" vol="55" pan="0"/>
          <note len="12" key="85" pos="18852" vol="55" pan="0"/>
          <note len="12" key="83" pos="18864" vol="55" pan="0"/>
          <note len="12" key="85" pos="18876" vol="55" pan="0"/>
          <note len="12" key="81" pos="18888" vol="55" pan="0"/>
          <note len="12" key="81" pos="18912" vol="55" pan="0"/>
          <note len="12" key="85" pos="18924" vol="55" pan="0"/>
          <note len="12" key="83" pos="18936" vol="55" pan="0"/>
          <note len="12" key="85" pos="18948" vol="55" pan="0"/>
          <note len="12" key="81" pos="18960" vol="55" pan="0"/>
          <note len="12" key="81" pos="18972" vol="55" pan="0"/>
          <note len="12" key="85" pos="18984" vol="55" pan="0"/>
          <note len="12" key="81" pos="18996" vol="55" pan="0"/>
          <note len="12" key="81" pos="19008" vol="55" pan="0"/>
          <note len="12" key="81" pos="19032" vol="55" pan="0"/>
          <note len="12" key="85" pos="19044" vol="55" pan="0"/>
          <note len="12" key="83" pos="19056" vol="55" pan="0"/>
          <note len="12" key="85" pos="19068" vol="55" pan="0"/>
          <note len="12" key="81" pos="19080" vol="55" pan="0"/>
          <note len="12" key="81" pos="19104" vol="55" pan="0"/>
          <note len="12" key="85" pos="19116" vol="55" pan="0"/>
          <note len="12" key="83" pos="19128" vol="55" pan="0"/>
          <note len="12" key="85" pos="19140" vol="55" pan="0"/>
          <note len="12" key="81" pos="19152" vol="55" pan="0"/>
          <note len="12" key="81" pos="19164" vol="55" pan="0"/>
          <note len="12" key="85" pos="19176" vol="55" pan="0"/>
          <note len="12" key="81" pos="19188" vol="55" pan="0"/>
          <note len="11" key="81" pos="19200" vol="55" pan="0"/>
          <note len="12" key="81" pos="19224" vol="55" pan="0"/>
          <note len="12" key="85" pos="19236" vol="55" pan="0"/>
          <note len="12" key="83" pos="19248" vol="55" pan="0"/>
          <note len="12" key="85" pos="19260" vol="55" pan="0"/>
          <note len="12" key="81" pos="19272" vol="55" pan="0"/>
          <note len="12" key="81" pos="19296" vol="55" pan="0"/>
          <note len="12" key="85" pos="19308" vol="55" pan="0"/>
          <note len="12" key="83" pos="19320" vol="55" pan="0"/>
          <note len="12" key="85" pos="19332" vol="55" pan="0"/>
          <note len="12" key="81" pos="19344" vol="55" pan="0"/>
          <note len="12" key="81" pos="19356" vol="55" pan="0"/>
          <note len="12" key="85" pos="19368" vol="55" pan="0"/>
          <note len="12" key="81" pos="19380" vol="55" pan="0"/>
          <note len="12" key="81" pos="19392" vol="55" pan="0"/>
          <note len="12" key="81" pos="19416" vol="55" pan="0"/>
          <note len="12" key="85" pos="19428" vol="55" pan="0"/>
          <note len="12" key="83" pos="19440" vol="55" pan="0"/>
          <note len="12" key="85" pos="19452" vol="55" pan="0"/>
          <note len="12" key="81" pos="19464" vol="55" pan="0"/>
          <note len="12" key="81" pos="19488" vol="55" pan="0"/>
          <note len="12" key="85" pos="19500" vol="55" pan="0"/>
          <note len="12" key="83" pos="19512" vol="55" pan="0"/>
          <note len="12" key="85" pos="19524" vol="55" pan="0"/>
          <note len="12" key="81" pos="19536" vol="55" pan="0"/>
          <note len="12" key="81" pos="19548" vol="55" pan="0"/>
          <note len="12" key="85" pos="19560" vol="55" pan="0"/>
          <note len="12" key="81" pos="19572" vol="55" pan="0"/>
          <note len="12" key="81" pos="19584" vol="55" pan="0"/>
          <note len="12" key="81" pos="19608" vol="55" pan="0"/>
          <note len="12" key="85" pos="19620" vol="55" pan="0"/>
          <note len="12" key="83" pos="19632" vol="55" pan="0"/>
          <note len="12" key="85" pos="19644" vol="55" pan="0"/>
          <note len="12" key="81" pos="19656" vol="55" pan="0"/>
          <note len="12" key="81" pos="19680" vol="55" pan="0"/>
          <note len="12" key="85" pos="19692" vol="55" pan="0"/>
          <note len="12" key="83" pos="19704" vol="55" pan="0"/>
          <note len="12" key="85" pos="19716" vol="55" pan="0"/>
          <note len="12" key="81" pos="19728" vol="55" pan="0"/>
          <note len="12" key="81" pos="19740" vol="55" pan="0"/>
          <note len="12" key="85" pos="19752" vol="55" pan="0"/>
          <note len="12" key="81" pos="19764" vol="55" pan="0"/>
          <note len="12" key="81" pos="19776" vol="55" pan="0"/>
          <note len="12" key="81" pos="19800" vol="55" pan="0"/>
          <note len="12" key="85" pos="19812" vol="55" pan="0"/>
          <note len="12" key="83" pos="19824" vol="55" pan="0"/>
          <note len="12" key="85" pos="19836" vol="55" pan="0"/>
          <note len="12" key="81" pos="19848" vol="55" pan="0"/>
          <note len="12" key="81" pos="19872" vol="55" pan="0"/>
          <note len="12" key="85" pos="19884" vol="55" pan="0"/>
          <note len="12" key="83" pos="19896" vol="55" pan="0"/>
          <note len="12" key="85" pos="19908" vol="55" pan="0"/>
          <note len="12" key="81" pos="19920" vol="55" pan="0"/>
          <note len="12" key="81" pos="19932" vol="55" pan="0"/>
          <note len="12" key="85" pos="19944" vol="55" pan="0"/>
          <note len="12" key="81" pos="19956" vol="55" pan="0"/>
          <note len="11" key="81" pos="19968" vol="55" pan="0"/>
          <note len="12" key="81" pos="19992" vol="55" pan="0"/>
          <note len="12" key="85" pos="20004" vol="55" pan="0"/>
          <note len="12" key="83" pos="20016" vol="55" pan="0"/>
          <note len="12" key="85" pos="20028" vol="55" pan="0"/>
          <note len="12" key="81" pos="20040" vol="55" pan="0"/>
          <note len="12" key="81" pos="20064" vol="55" pan="0"/>
          <note len="12" key="85" pos="20076" vol="55" pan="0"/>
          <note len="12" key="83" pos="20088" vol="55" pan="0"/>
          <note len="12" key="85" pos="20100" vol="55" pan="0"/>
          <note len="12" key="81" pos="20112" vol="55" pan="0"/>
          <note len="12" key="81" pos="20124" vol="55" pan="0"/>
          <note len="12" key="85" pos="20136" vol="55" pan="0"/>
          <note len="12" key="81" pos="20148" vol="55" pan="0"/>
          <note len="12" key="81" pos="20160" vol="55" pan="0"/>
          <note len="12" key="81" pos="20184" vol="55" pan="0"/>
          <note len="12" key="85" pos="20196" vol="55" pan="0"/>
          <note len="12" key="83" pos="20208" vol="55" pan="0"/>
          <note len="12" key="85" pos="20220" vol="55" pan="0"/>
          <note len="12" key="81" pos="20232" vol="55" pan="0"/>
          <note len="12" key="81" pos="20256" vol="55" pan="0"/>
          <note len="12" key="85" pos="20268" vol="55" pan="0"/>
          <note len="12" key="83" pos="20280" vol="55" pan="0"/>
          <note len="12" key="85" pos="20292" vol="55" pan="0"/>
          <note len="12" key="81" pos="20304" vol="55" pan="0"/>
          <note len="12" key="81" pos="20316" vol="55" pan="0"/>
          <note len="12" key="85" pos="20328" vol="55" pan="0"/>
          <note len="12" key="81" pos="20340" vol="55" pan="0"/>
          <note len="12" key="81" pos="20352" vol="55" pan="0"/>
          <note len="12" key="81" pos="20376" vol="55" pan="0"/>
          <note len="12" key="85" pos="20388" vol="55" pan="0"/>
          <note len="12" key="83" pos="20400" vol="55" pan="0"/>
          <note len="12" key="85" pos="20412" vol="55" pan="0"/>
          <note len="12" key="81" pos="20424" vol="55" pan="0"/>
          <note len="12" key="81" pos="20448" vol="55" pan="0"/>
          <note len="12" key="85" pos="20460" vol="55" pan="0"/>
          <note len="12" key="83" pos="20472" vol="55" pan="0"/>
          <note len="12" key="85" pos="20484" vol="55" pan="0"/>
          <note len="12" key="81" pos="20496" vol="55" pan="0"/>
          <note len="12" key="81" pos="20508" vol="55" pan="0"/>
          <note len="12" key="85" pos="20520" vol="55" pan="0"/>
          <note len="12" key="81" pos="20532" vol="55" pan="0"/>
          <note len="12" key="81" pos="20544" vol="55" pan="0"/>
          <note len="12" key="81" pos="20568" vol="55" pan="0"/>
          <note len="12" key="85" pos="20580" vol="55" pan="0"/>
          <note len="12" key="83" pos="20592" vol="55" pan="0"/>
          <note len="12" key="85" pos="20604" vol="55" pan="0"/>
          <note len="12" key="81" pos="20616" vol="55" pan="0"/>
          <note len="12" key="81" pos="20640" vol="55" pan="0"/>
          <note len="12" key="85" pos="20652" vol="55" pan="0"/>
          <note len="12" key="83" pos="20664" vol="55" pan="0"/>
          <note len="12" key="85" pos="20676" vol="55" pan="0"/>
          <note len="12" key="81" pos="20688" vol="55" pan="0"/>
          <note len="12" key="81" pos="20700" vol="55" pan="0"/>
          <note len="12" key="85" pos="20712" vol="55" pan="0"/>
          <note len="12" key="81" pos="20724" vol="55" pan="0"/>
          <note len="11" key="81" pos="20736" vol="55" pan="0"/>
          <note len="12" key="81" pos="20760" vol="55" pan="0"/>
          <note len="12" key="85" pos="20772" vol="55" pan="0"/>
          <note len="12" key="83" pos="20784" vol="55" pan="0"/>
          <note len="12" key="85" pos="20796" vol="55" pan="0"/>
          <note len="12" key="81" pos="20808" vol="55" pan="0"/>
          <note len="12" key="81" pos="20832" vol="55" pan="0"/>
          <note len="12" key="85" pos="20844" vol="55" pan="0"/>
          <note len="12" key="83" pos="20856" vol="55" pan="0"/>
          <note len="12" key="85" pos="20868" vol="55" pan="0"/>
          <note len="12" key="81" pos="20880" vol="55" pan="0"/>
          <note len="12" key="81" pos="20892" vol="55" pan="0"/>
          <note len="12" key="85" pos="20904" vol="55" pan="0"/>
          <note len="12" key="81" pos="20916" vol="55" pan="0"/>
          <note len="12" key="81" pos="20928" vol="55" pan="0"/>
          <note len="12" key="81" pos="20952" vol="55" pan="0"/>
          <note len="12" key="85" pos="20964" vol="55" pan="0"/>
          <note len="12" key="83" pos="20976" vol="55" pan="0"/>
          <note len="12" key="85" pos="20988" vol="55" pan="0"/>
          <note len="12" key="81" pos="21000" vol="55" pan="0"/>
          <note len="12" key="81" pos="21024" vol="55" pan="0"/>
          <note len="12" key="85" pos="21036" vol="55" pan="0"/>
          <note len="12" key="83" pos="21048" vol="55" pan="0"/>
          <note len="12" key="85" pos="21060" vol="55" pan="0"/>
          <note len="12" key="81" pos="21072" vol="55" pan="0"/>
          <note len="12" key="81" pos="21084" vol="55" pan="0"/>
          <note len="12" key="85" pos="21096" vol="55" pan="0"/>
          <note len="12" key="81" pos="21108" vol="55" pan="0"/>
          <note len="12" key="81" pos="21120" vol="55" pan="0"/>
          <note len="12" key="81" pos="21144" vol="55" pan="0"/>
          <note len="12" key="85" pos="21156" vol="55" pan="0"/>
          <note len="12" key="83" pos="21168" vol="55" pan="0"/>
          <note len="12" key="85" pos="21180" vol="55" pan="0"/>
          <note len="12" key="81" pos="21192" vol="55" pan="0"/>
          <note len="12" key="81" pos="21216" vol="55" pan="0"/>
          <note len="12" key="85" pos="21228" vol="55" pan="0"/>
          <note len="12" key="83" pos="21240" vol="55" pan="0"/>
          <note len="12" key="85" pos="21252" vol="55" pan="0"/>
          <note len="12" key="81" pos="21264" vol="55" pan="0"/>
          <note len="12" key="81" pos="21276" vol="55" pan="0"/>
          <note len="12" key="85" pos="21288" vol="55" pan="0"/>
          <note len="12" key="81" pos="21300" vol="55" pan="0"/>
          <note len="12" key="81" pos="21312" vol="55" pan="0"/>
          <note len="12" key="81" pos="21336" vol="55" pan="0"/>
          <note len="12" key="85" pos="21348" vol="55" pan="0"/>
          <note len="12" key="83" pos="21360" vol="55" pan="0"/>
          <note len="12" key="85" pos="21372" vol="55" pan="0"/>
          <note len="12" key="81" pos="21384" vol="55" pan="0"/>
          <note len="12" key="81" pos="21408" vol="55" pan="0"/>
          <note len="12" key="85" pos="21420" vol="55" pan="0"/>
          <note len="12" key="83" pos="21432" vol="55" pan="0"/>
          <note len="12" key="85" pos="21444" vol="55" pan="0"/>
          <note len="12" key="81" pos="21456" vol="55" pan="0"/>
          <note len="12" key="81" pos="21468" vol="55" pan="0"/>
          <note len="12" key="85" pos="21480" vol="55" pan="0"/>
          <note len="12" key="81" pos="21492" vol="55" pan="0"/>
          <note len="11" key="81" pos="21504" vol="55" pan="0"/>
          <note len="12" key="81" pos="21528" vol="55" pan="0"/>
          <note len="12" key="85" pos="21540" vol="55" pan="0"/>
          <note len="12" key="83" pos="21552" vol="55" pan="0"/>
          <note len="12" key="85" pos="21564" vol="55" pan="0"/>
          <note len="12" key="81" pos="21576" vol="55" pan="0"/>
          <note len="12" key="81" pos="21600" vol="55" pan="0"/>
          <note len="12" key="85" pos="21612" vol="55" pan="0"/>
          <note len="12" key="83" pos="21624" vol="55" pan="0"/>
          <note len="12" key="85" pos="21636" vol="55" pan="0"/>
          <note len="12" key="81" pos="21648" vol="55" pan="0"/>
          <note len="12" key="81" pos="21660" vol="55" pan="0"/>
          <note len="12" key="85" pos="21672" vol="55" pan="0"/>
          <note len="12" key="81" pos="21684" vol="55" pan="0"/>
          <note len="12" key="81" pos="21696" vol="55" pan="0"/>
          <note len="12" key="81" pos="21720" vol="55" pan="0"/>
          <note len="12" key="85" pos="21732" vol="55" pan="0"/>
          <note len="12" key="83" pos="21744" vol="55" pan="0"/>
          <note len="12" key="85" pos="21756" vol="55" pan="0"/>
          <note len="12" key="81" pos="21768" vol="55" pan="0"/>
          <note len="12" key="81" pos="21792" vol="55" pan="0"/>
          <note len="12" key="85" pos="21804" vol="55" pan="0"/>
          <note len="12" key="83" pos="21816" vol="55" pan="0"/>
          <note len="12" key="85" pos="21828" vol="55" pan="0"/>
          <note len="12" key="81" pos="21840" vol="55" pan="0"/>
          <note len="12" key="81" pos="21852" vol="55" pan="0"/>
          <note len="12" key="85" pos="21864" vol="55" pan="0"/>
          <note len="12" key="81" pos="21876" vol="55" pan="0"/>
          <note len="192" key="81" pos="21888" vol="55" pan="0"/>
        </pattern>
      </track>
      <track height="32" type="0" muted="0" solo="0" name="Rhythm">
        <instrumenttrack basenote="57" pitch="0" pitchrange="2" fxch="2" vol="52" pan="0" usemasterpitch="1">
          <instrument name="vestige">
            <vestige chunk="VkMyIdkYAAA8TGFicz48TUVUQSBmYW1pbHk9Ik1vbm9jaG9yZCIgbmFtZT0iUGx1Y2tzIiBwcm9kdWN0TW9kZT0iMCIgdmVyc2lvbj0iMS4wLjEiIHRhZ3M9IjMwMTAwMDA6RXhwZXJpbWVudGFsIiBtb2RpZmllZD0iMSIvPjxVSSB1aXNpemU9IjEiIHVpY29sbGFwc2VkPSIxIi8+PEFSVElDUz48U0VUVElORyBpZD0icF9zeW5jVG9UZW1wbyIgdmFsdWU9IjEiLz48U0VUVElORyBpZD0icF9keW5hbWljc1ZlbG9jaXR5TW9kZSIgdmFsdWU9IkNPTVBSRVNTRUQgVkVMT0NJVFkgSElHSCIvPjxTRVRUSU5HIGlkPSJwX3Nob3J0UlRNb2RlIiB2YWx1ZT0iLTIiLz48U0VUVElORyBpZD0icF92ZWxvY2l0eUN1cnZlIiB2YWx1ZT0iTElORUFSIFZFTE9DSVRZIi8+PFNFVFRJTkcgaWQ9InBfcXVhbnRpc2VNb2RlIiB2YWx1ZT0iIi8+PFNFVFRJTkcgaWQ9InBfbWl4ZXJBZHZhbmNlZCIgdmFsdWU9IjEiLz48U0VUVElORyBpZD0icF9taXhlckdsb2JhbCIgdmFsdWU9IjEiLz48U0VUVElORyBpZD0icF9taXhlckxvY2siIHZhbHVlPSIwIi8+PFNFVFRJTkcgaWQ9InBfbWl4ZXJQYWdlIiB2YWx1ZT0iIi8+PFNFVFRJTkcgaWQ9InBfYXJ0aWNMb2NrIiB2YWx1ZT0iMCIvPjxTRVRUSU5HIGlkPSJwX2FydGljUGFnZSIgdmFsdWU9IiIvPjxTRVRUSU5HIGlkPSJwX2xhc3RTZWxlY3RlZFByaW1hcnlBcnRpYyIgdmFsdWU9IjAiLz48U0VUVElORyBpZD0icF9taWRpQ2hhbm5lbCIgdmFsdWU9IjAiLz48U0VUVElORyBpZD0icF9zZWxlY3RlZFRhZ3MiIHZhbHVlPSJFeHBlcmltZW50YWwiLz48U0VUVElORyBpZD0icF9maWx0ZXJQb3MiIHZhbHVlPSJbMCwgMjM5XSIvPjxTRVRUSU5HIGlkPSJwX3ByZXNldFBvcyIgdmFsdWU9IlswLCAxMjk2XSIvPjxTRVRUSU5HIGlkPSJwX2V2b0NvbnRhaW5lclBvcyIgdmFsdWU9IltdIi8+PFNFVFRJTkcgaWQ9InBfb2N0YXZlIiB2YWx1ZT0iMCIvPjxTRVRUSU5HIGlkPSJwX29kZXN0SW5kaWNlcyIgdmFsdWU9IjAsMSwyLDMsNCw1LDYsNyw4LDksMTAsMTEsMTIsMTMsMTQsMTUsMTYsMTcsMTgsMTksMjAsMjEsMjIsMjMsMjQsMjUsMjYsMjcsMjgsMjksMzAsMzEsMzIsMzMsMzQsMzUsMzYsMzcsMzgsMzksNDAsNDEsNDIsNDMsNDQsNDUsNDYsNDcsNDgsNDksNTAsNTEsNTIsNTMsNTQsNTUsNTYsNTcsNTgsNTksNjAsNjEsNjIsNjMsNjQsNjUsNjYsNjcsNjgsNjksNzAsNzEsNzIsNzMsNzQsNzUsNzYsNzcsNzgsNzksODAsODEsODIsODMsODQsODUsODYsODcsODgsODksOTAsOTEsOTIsOTMsOTQsOTUsOTYsOTcsOTgsOTksMTAwLDEwMSwxMDIsMTAzLDEwNCwxMDUsMTA2LDEwNywxMDgsMTA5LDExMCwxMTEsMTEyLDExMywxMTQsMTE1LDExNiwxMTcsMTE4LDExOSwxMjAsMTIxLDEyMiwxMjMsMTI0LDEyNSwxMjYsMTI3LDEyOCwxMjksMTMwLDEzMSwxMzIsMTMzLDEzNCwxMzUsMTM2LDEzNywxMzgsMTM5LDE0MCwxNDEsMTQyLDE0MywxNDQsMTQ1LDE0NiwxNDcsMTQ4LDE0OSwxNTAsMTUxLDE1MiwxNTMsMTU0LDE1NSwxNTYsMTU3LDE1OCwxNTksMTYwLDE2MSwxNjIsMTYzLDE2NCwxNjUsMTY2LDE2NywxNjgsMTY5LDE3MCwxNzEsMTcyLDE3MywxNzQsMTc1LDE3NiwxNzcsMTc4LDE3OSwxODAsMTgxLDE4MiwxODMsMTg0LDE4NSwxODYsMTg3LDE4OCwxODksMTkwLDE5MSwxOTIsMTkzLDE5NCwxOTUsMTk2LDE5NywxOTgsMTk5LDIwMCwyMDEsMjAyLDIwMywyMDQsMjA1LDIwNiwyMDcsMjA4LDIwOSwyMTAsMjExLDIxMiwyMTMsMjE0LDIxNSwyMTYsMjE3LDIxOCwyMTksMjIwLDIyMSwyMjIsMjIzLDIyNCwyMjUsMjI2LDIyNywyMjgsMjI5LDIzMCwyMzEsMjMyLDIzMywyMzQsMjM1LDIzNiwyMzcsMjM4LDIzOSwyNDAsMjQxLDI0MiwyNDMsMjQ0LDI0NSwyNDYsMjQ3LDI0OCwyNDksMjUwLDI1MSwyNTIsMjUzLDI1NCwyNTUsMjU2LDI1NywyNTgsMjU5LDI2MCwyNjEsMjYyLDI2MywyNjQiLz48QVJUSUM+PFNFVFRJTkcgaWQ9ImFfbmFtZSIgdmFsdWU9IkxBQlNfUGx1Y2tzIi8+PFNFVFRJTkcgaWQ9ImFfdmVyc2lvbiIgdmFsdWU9IjE2Nzc3NDcyIi8+PFNFVFRJTkcgaWQ9ImFfdGVtcGxhdGVJZHgiIHZhbHVlPSIwIi8+PFNFVFRJTkcgaWQ9ImFfb2Rlc3QiIHZhbHVlPSJSRVZFUkIiLz48U0VUVElORyBpZD0iYV9hY3RpdmUiIHZhbHVlPSIyIi8+PFNFVFRJTkcgaWQ9ImFfdHdvSGFuZGVkIiB2YWx1ZT0iMCIvPjxTRVRUSU5HIGlkPSJhX2F1dG9NYWtlVXAiIHZhbHVlPSIwIi8+PFNFVFRJTkcgaWQ9InRfdHlwZSIgdmFsdWU9IjEiLz48U0VUVElORyBpZD0idF9lbmFibGVkIiB2YWx1ZT0iMSIvPjxTRVRUSU5HIGlkPSJ0X2xhdGNoIiB2YWx1ZT0iMCIvPjxTRVRUSU5HIGlkPSJ0X2tleXN3aXRjaCIgdmFsdWU9IjAiLz48U0VUVElORyBpZD0idF9taWRpQ2hhbm5lbCIgdmFsdWU9IjEiLz48U0VUVElORyBpZD0idF92ZWxGcm9tIiB2YWx1ZT0iMSIvPjxTRVRUSU5HIGlkPSJ0X3ZlbFRvIiB2YWx1ZT0iMTI3Ii8+PFNFVFRJTkcgaWQ9InRfY2MiIHZhbHVlPSIzMiIvPjxTRVRUSU5HIGlkPSJ0X2NjVmFsdWVGcm9tIiB2YWx1ZT0iMCIvPjxTRVRUSU5HIGlkPSJ0X2NjVmFsdWVUbyIgdmFsdWU9IjEyNyIvPjxTRVRUSU5HIGlkPSJ0X3NwZWVkRnJvbSIgdmFsdWU9IjAiLz48U0VUVElORyBpZD0idF9zcGVlZFRvIiB2YWx1ZT0iMC41Ii8+PFNFVFRJTkcgaWQ9InRfcHJvZ3JhbUNoYW5nZSIgdmFsdWU9IjAiLz48U0VUVElORyBpZD0icnJfdGltZW91dCIgdmFsdWU9Ii0xIi8+PFNFVFRJTkcgaWQ9InJyX25laWdoYm91ck1pbiIgdmFsdWU9IjM2Ii8+PFNFVFRJTkcgaWQ9InJyX25laWdoYm91ck1heCIgdmFsdWU9IjYwIi8+PFNFVFRJTkcgaWQ9InJyX3VzZU5laWdoYm91ciIgdmFsdWU9IjAiLz48U0VUVElORyBpZD0icnJfY291bnQiIHZhbHVlPSIzIi8+PFNFVFRJTkcgaWQ9InJyX2luYyIgdmFsdWU9IjEiLz48U0VUVElORyBpZD0icnJfbGF5ZXJzIiB2YWx1ZT0iMSIvPjxTRVRUSU5HIGlkPSJycl9nYWluIiB2YWx1ZT0iMSIvPjxTRVRUSU5HIGlkPSJycl9zdGFydCIgdmFsdWU9IjAiLz48U0VUVElORyBpZD0icnJfc3luYyIgdmFsdWU9IjAiLz48U0VUVElORyBpZD0icnJfcGxheSIgdmFsdWU9IjAiLz48U0VUVElORyBpZD0icnJfa2V5c3dpdGNoRnJvbSIgdmFsdWU9Ii0xIi8+PFNFVFRJTkcgaWQ9InJyX2tleXN3aXRjaFRvIiB2YWx1ZT0iLTEiLz48U0VUVElORyBpZD0icnJfa2V5c3dpdGNoVG8iIHZhbHVlPSItMSIvPjxTRVRUSU5HIGlkPSJycl9tb2RlIiB2YWx1ZT0iMCIvPjxTRVRUSU5HIGlkPSJyX21pZGlDaGFubmVsIiB2YWx1ZT0iMCIvPjxTRVRUSU5HIGlkPSJyX3RyYW5zcG9zZSIgdmFsdWU9IjAiLz48U0VUVElORyBpZD0icl9sYXllclRyYW5zcG9zZSIgdmFsdWU9IjAiLz48U0VUVElORyBpZD0iaV9leHByZXNzaW9uIiB2YWx1ZT0iMC4xOTkyNDgxMjAxODg3MTMxIi8+PFNFVFRJTkcgaWQ9ImlfZHluYW1pY3MiIHZhbHVlPSIxIi8+PFNFVFRJTkcgaWQ9ImlfcmV2ZXJiIiB2YWx1ZT0iMC44MDM5MzAyMjI5ODgxMjg3Ii8+PFNFVFRJTkcgaWQ9ImlfcmVsZWFzZSIgdmFsdWU9IjAuNSIvPjxTRVRUSU5HIGlkPSJpX3RpZ2h0IiB2YWx1ZT0iMC41MDM5MzcwMDU5OTY3MDQxIi8+PFNFVFRJTkcgaWQ9ImlfdmlicmF0byIgdmFsdWU9IjEiLz48U0VUVElORyBpZD0iaV92YXJpYXRpb24iIHZhbHVlPSIwIi8+PFNFVFRJTkcgaWQ9InNfcGFuIiB2YWx1ZT0iMC41Ii8+PFNFVFRJTkcgaWQ9InNfd2lkdGgiIHZhbHVlPSIwLjUiLz48U0VUVElORyBpZD0ic19mbGlwIiB2YWx1ZT0iMCIvPjxNSVg+PFNFVFRJTkcgaWQ9Im1fbWFpbiIgdmFsdWU9IjEiIG1pY0lkPSIxIi8+PFNFVFRJTkcgaWQ9ImVfbWFpbiIgdmFsdWU9IjEiIG1pY0lkPSIxIi8+PFNFVFRJTkcgaWQ9ImJfbWFpbiIgdmFsdWU9IjAiIG1pY0lkPSIxIi8+PFNFVFRJTkcgaWQ9Im1fYWx0MSIgdmFsdWU9IjAiIG1pY0lkPSIyIi8+PFNFVFRJTkcgaWQ9ImVfYWx0MSIgdmFsdWU9IjAiIG1pY0lkPSIyIi8+PFNFVFRJTkcgaWQ9ImJfYWx0MSIgdmFsdWU9IjAiIG1pY0lkPSIyIi8+PFNFVFRJTkcgaWQ9Im1fYWx0MiIgdmFsdWU9IjAiIG1pY0lkPSIzIi8+PFNFVFRJTkcgaWQ9ImVfYWx0MiIgdmFsdWU9IjAiIG1pY0lkPSIzIi8+PFNFVFRJTkcgaWQ9ImJfYWx0MiIgdmFsdWU9IjAiIG1pY0lkPSIzIi8+PFNFVFRJTkcgaWQ9Im1fYWx0MyIgdmFsdWU9IjAiIG1pY0lkPSI0Ii8+PFNFVFRJTkcgaWQ9ImVfYWx0MyIgdmFsdWU9IjAiIG1pY0lkPSI0Ii8+PFNFVFRJTkcgaWQ9ImJfYWx0MyIgdmFsdWU9IjAiIG1pY0lkPSI0Ii8+PC9NSVg+PC9BUlRJQz48L0FSVElDUz48UEFSQU1FVEVSUz48UEFSQU0gaWQ9ImdfZ2FpbiIgdmFsdWU9IjEiIGNjPSI3Ii8+PFBBUkFNIGlkPSJnX3BhbiIgdmFsdWU9IjAuNSIgY2M9IjEwIi8+PFBBUkFNIGlkPSJnX3R1bmUiIHZhbHVlPSIwIiBjYz0iLTEiLz48UEFSQU0gaWQ9ImlfcmV2ZXJiIiB2YWx1ZT0iMC44MDM5MzAyMjI5ODgxMjg3IiBjYz0iMTkiLz48UEFSQU0gaWQ9ImlfdGlnaHQiIHZhbHVlPSIwLjUwMzkzNzAwNTk5NjcwNDEiIGNjPSIxOCIvPjxQQVJBTSBpZD0iaV9zcGVlZCIgdmFsdWU9IjAiIGNjPSItMSIvPjxQQVJBTSBpZD0iaV9yZWxlYXNlIiB2YWx1ZT0iMC41IiBjYz0iMTciLz48UEFSQU0gaWQ9ImlfZXhwcmVzc2lvbiIgdmFsdWU9IjAuMTk5MjQ4MTIwMTg4NzEzMSIgY2M9IjExIi8+PFBBUkFNIGlkPSJpX2R5bmFtaWNzIiB2YWx1ZT0iMSIgY2M9IjEiLz48UEFSQU0gaWQ9ImlfdmFyaWF0aW9uIiB2YWx1ZT0iMCIgY2M9IjIwIi8+PFBBUkFNIGlkPSJpX3ZpYnJhdG8iIHZhbHVlPSIxIiBjYz0iMjEiLz48UEFSQU0gaWQ9ImlfZW52YXR0IiB2YWx1ZT0iMi45OTk5OTk3NjE1ODE0MjEiIGNjPSItMSIvPjxQQVJBTSBpZD0iaV9lbnZkZWMiIHZhbHVlPSIwLjA5OTk5OTk5NDAzOTUzNTUyIiBjYz0iLTEiLz48UEFSQU0gaWQ9ImlfZW52c3VzIiB2YWx1ZT0iMSIgY2M9Ii0xIi8+PFBBUkFNIGlkPSJpX2VudnJlbCIgdmFsdWU9IjMiIGNjPSItMSIvPjxQQVJBTSBpZD0iaV9taXhzaW1wbGUiIHZhbHVlPSIwLjUiIGNjPSItMSIvPjxQQVJBTSBpZD0ic19mbGlwIiB2YWx1ZT0iMCIgY2M9Ii0xIi8+PFBBUkFNIGlkPSJzX3dpZHRoIiB2YWx1ZT0iMC41IiBjYz0iLTEiLz48UEFSQU0gaWQ9InNfcGFuIiB2YWx1ZT0iMC41IiBjYz0iLTEiLz48UEFSQU0gaWQ9ImlfZGVsYXkiIHZhbHVlPSIwIiBjYz0iLTEiLz48UEFSQU0gaWQ9ImlfYW1vdW50IiB2YWx1ZT0iMCIgY2M9Ii0xIi8+PFBBUkFNIGlkPSJpX2Rpc3RvcnQiIHZhbHVlPSIwIiBjYz0iLTEiLz48UEFSQU0gaWQ9ImlfbHVzaFZlcmIiIHZhbHVlPSIwIiBjYz0iLTEiLz48UEFSQU0gaWQ9ImlfcGVkdm9sIiB2YWx1ZT0iMC41IiBjYz0iLTEiLz48UEFSQU0gaWQ9ImlfcGVkRHluIiB2YWx1ZT0iMC41IiBjYz0iLTEiLz48UEFSQU0gaWQ9ImlfbGVuZ3RoIiB2YWx1ZT0iMCIgY2M9Ii0xIi8+PFBBUkFNIGlkPSJpX3RpbWVNYWNoaW5lIiB2YWx1ZT0iMCIgY2M9Ii0xIi8+PFBBUkFNIGlkPSJpX3N0cmV0Y2giIHZhbHVlPSIwIiBjYz0iLTEiLz48UEFSQU0gaWQ9Imlfc29mdFBlZGFsIiB2YWx1ZT0iMCIgY2M9Ii0xIi8+PFBBUkFNIGlkPSJpX3Jlc3BvbnNlIiB2YWx1ZT0iMCIgY2M9Ii0xIi8+PFBBUkFNIGlkPSJpX21hbGxldCIgdmFsdWU9IjAiIGNjPSItMSIvPjxQQVJBTSBpZD0iaV9zdG9wZU11dGUiIHZhbHVlPSIwIiBjYz0iLTEiLz48UEFSQU0gaWQ9ImlfZGlyZWN0aW9uIiB2YWx1ZT0iMCIgY2M9Ii0xIi8+PFBBUkFNIGlkPSJpX2xwRmlsdGVyIiB2YWx1ZT0iMCIgY2M9Ii0xIi8+PFBBUkFNIGlkPSJpX3BvcnRhbWVudG8iIHZhbHVlPSIwIiBjYz0iLTEiLz48UEFSQU0gaWQ9ImlfbWV0YVsxOF0iIHZhbHVlPSIwIiBjYz0iLTEiLz48UEFSQU0gaWQ9ImlfbWV0YVsxOV0iIHZhbHVlPSIwIiBjYz0iLTEiLz48UEFSQU0gaWQ9ImlfbWV0YVsyMF0iIHZhbHVlPSIwIiBjYz0iLTEiLz48UEFSQU0gaWQ9ImlfbWV0YVsyMV0iIHZhbHVlPSIwIiBjYz0iLTEiLz48UEFSQU0gaWQ9ImlfbWV0YVsyMl0iIHZhbHVlPSIwIiBjYz0iLTEiLz48UEFSQU0gaWQ9ImlfbWV0YVsyM10iIHZhbHVlPSIwIiBjYz0iLTEiLz48UEFSQU0gaWQ9ImlfbWV0YVsyNF0iIHZhbHVlPSIwIiBjYz0iLTEiLz48UEFSQU0gaWQ9ImlfbWV0YVsyNV0iIHZhbHVlPSIwIiBjYz0iLTEiLz48UEFSQU0gaWQ9ImlfbWV0YVsyNl0iIHZhbHVlPSIwIiBjYz0iLTEiLz48UEFSQU0gaWQ9Im1fbWFpbiIgdmFsdWU9IjEiIGNjPSIyMiIvPjxQQVJBTSBpZD0ibV9hbHQxIiB2YWx1ZT0iMCIgY2M9IjIzIi8+PFBBUkFNIGlkPSJtX2FsdDIiIHZhbHVlPSIwIiBjYz0iMjQiLz48UEFSQU0gaWQ9Im1fYWx0MyIgdmFsdWU9IjAiIGNjPSIyNSIvPjwvUEFSQU1FVEVSUz48L0xhYnM+AA==" program="0" plugin="C:/Program Files/VstPlugins/LABS (64 Bit).dll" guivisible="0"/>
          </instrument>
          <eldata fres="0.5" fwet="0" ftype="0" fcut="14000">
            <elvol x100="0" amt="0" lpdel="0" lshp="0" lspd_numerator="4" att="0" rel="0.1" userwavefile="" lspd_denominator="4" sustain="0.5" pdel="0" ctlenvamt="0" dec="0.5" latt="0" hold="0.5" lspd="0.1" lamt="0" lspd_syncmode="0"/>
            <elcut x100="0" amt="0" lpdel="0" lshp="0" lspd_numerator="4" att="0" rel="0.1" userwavefile="" lspd_denominator="4" sustain="0.5" pdel="0" ctlenvamt="0" dec="0.5" latt="0" hold="0.5" lspd="0.1" lamt="0" lspd_syncmode="0"/>
            <elres x100="0" amt="0" lpdel="0" lshp="0" lspd_numerator="4" att="0" rel="0.1" userwavefile="" lspd_denominator="4" sustain="0.5" pdel="0" ctlenvamt="0" dec="0.5" latt="0" hold="0.5" lspd="0.1" lamt="0" lspd_syncmode="0"/>
          </eldata>
          <chordcreator chord-enabled="0" chordrange="1" chord="0"/>
          <arpeggiator arptime_syncmode="0" arpmiss="0" arptime_numerator="4" arprange="1" arp-enabled="0" arpdir="0" arpcycle="0" arptime_denominator="4" arpskip="0" arpmode="0" arp="0" arptime="200" arpgate="100"/>
          <midiport basevelocity="63" outputcontroller="0" fixedoutputvelocity="-1" readable="0" outputprogram="1" inputcontroller="0" inputchannel="0" fixedoutputnote="-1" writable="0" fixedinputvelocity="-1" outputchannel="1"/>
          <fxchain enabled="0" numofeffects="0"/>
        </instrumenttrack>
        <pattern type="1" muted="0" steps="16" pos="0" name="Rhythm">
          <note len="11" key="45" pos="0" vol="61" pan="0"/>
          <note len="11" key="38" pos="0" vol="61" pan="0"/>
          <note len="12" key="45" pos="36" vol="61" pan="0"/>
          <note len="12" key="45" pos="72" vol="61" pan="0"/>
          <note len="12" key="38" pos="72" vol="61" pan="0"/>
          <note len="12" key="45" pos="108" vol="61" pan="0"/>
          <note len="12" key="45" pos="144" vol="61" pan="0"/>
          <note len="12" key="38" pos="144" vol="61" pan="0"/>
          <note len="12" key="45" pos="168" vol="61" pan="0"/>
          <note len="12" key="45" pos="180" vol="61" pan="0"/>
          <note len="12" key="45" pos="192" vol="61" pan="0"/>
          <note len="12" key="38" pos="192" vol="61" pan="0"/>
          <note len="12" key="45" pos="228" vol="61" pan="0"/>
          <note len="12" key="45" pos="264" vol="61" pan="0"/>
          <note len="12" key="38" pos="264" vol="61" pan="0"/>
          <note len="12" key="45" pos="300" vol="61" pan="0"/>
          <note len="12" key="45" pos="336" vol="61" pan="0"/>
          <note len="12" key="38" pos="336" vol="61" pan="0"/>
          <note len="12" key="45" pos="360" vol="61" pan="0"/>
          <note len="12" key="45" pos="384" vol="61" pan="0"/>
          <note len="12" key="38" pos="384" vol="61" pan="0"/>
          <note len="12" key="45" pos="420" vol="61" pan="0"/>
          <note len="12" key="45" pos="456" vol="61" pan="0"/>
          <note len="12" key="38" pos="456" vol="61" pan="0"/>
          <note len="12" key="45" pos="492" vol="61" pan="0"/>
          <note len="12" key="45" pos="528" vol="61" pan="0"/>
          <note len="12" key="38" pos="528" vol="61" pan="0"/>
          <note len="12" key="45" pos="552" vol="61" pan="0"/>
          <note len="12" key="45" pos="564" vol="61" pan="0"/>
          <note len="12" key="45" pos="576" vol="61" pan="0"/>
          <note len="12" key="38" pos="576" vol="61" pan="0"/>
          <note len="12" key="45" pos="612" vol="61" pan="0"/>
          <note len="12" key="45" pos="648" vol="61" pan="0"/>
          <note len="12" key="38" pos="648" vol="61" pan="0"/>
          <note len="12" key="45" pos="684" vol="61" pan="0"/>
          <note len="12" key="45" pos="720" vol="61" pan="0"/>
          <note len="12" key="38" pos="720" vol="61" pan="0"/>
          <note len="12" key="45" pos="744" vol="61" pan="0"/>
          <note len="11" key="45" pos="768" vol="61" pan="0"/>
          <note len="11" key="38" pos="768" vol="61" pan="0"/>
          <note len="12" key="45" pos="804" vol="61" pan="0"/>
          <note len="12" key="45" pos="840" vol="61" pan="0"/>
          <note len="12" key="38" pos="840" vol="61" pan="0"/>
          <note len="12" key="45" pos="876" vol="61" pan="0"/>
          <note len="12" key="45" pos="912" vol="61" pan="0"/>
          <note len="12" key="38" pos="912" vol="61" pan="0"/>
          <note len="12" key="45" pos="936" vol="61" pan="0"/>
          <note len="12" key="45" pos="948" vol="61" pan="0"/>
          <note len="12" key="45" pos="960" vol="61" pan="0"/>
          <note len="12" key="38" pos="960" vol="61" pan="0"/>
          <note len="12" key="45" pos="996" vol="61" pan="0"/>
          <note len="12" key="45" pos="1032" vol="61" pan="0"/>
          <note len="12" key="38" pos="1032" vol="61" pan="0"/>
          <note len="12" key="45" pos="1068" vol="61" pan="0"/>
          <note len="12" key="45" pos="1104" vol="61" pan="0"/>
          <note len="12" key="38" pos="1104" vol="61" pan="0"/>
          <note len="12" key="45" pos="1128" vol="61" pan="0"/>
          <note len="12" key="45" pos="1152" vol="61" pan="0"/>
          <note len="12" key="38" pos="1152" vol="61" pan="0"/>
          <note len="12" key="45" pos="1188" vol="61" pan="0"/>
          <note len="12" key="45" pos="1224" vol="61" pan="0"/>
          <note len="12" key="38" pos="1224" vol="61" pan="0"/>
          <note len="12" key="45" pos="1260" vol="61" pan="0"/>
          <note len="12" key="45" pos="1296" vol="61" pan="0"/>
          <note len="12" key="38" pos="1296" vol="61" pan="0"/>
          <note len="12" key="45" pos="1320" vol="61" pan="0"/>
          <note len="12" key="45" pos="1332" vol="61" pan="0"/>
          <note len="12" key="45" pos="1344" vol="61" pan="0"/>
          <note len="12" key="38" pos="1344" vol="61" pan="0"/>
          <note len="12" key="45" pos="1380" vol="61" pan="0"/>
          <note len="12" key="45" pos="1416" vol="61" pan="0"/>
          <note len="12" key="38" pos="1416" vol="61" pan="0"/>
          <note len="12" key="45" pos="1452" vol="61" pan="0"/>
          <note len="12" key="45" pos="1488" vol="61" pan="0"/>
          <note len="12" key="38" pos="1488" vol="61" pan="0"/>
          <note len="12" key="45" pos="1512" vol="61" pan="0"/>
          <note len="11" key="45" pos="1536" vol="61" pan="0"/>
          <note len="11" key="38" pos="1536" vol="61" pan="0"/>
          <note len="12" key="45" pos="1572" vol="61" pan="0"/>
          <note len="12" key="45" pos="1608" vol="61" pan="0"/>
          <note len="12" key="38" pos="1608" vol="61" pan="0"/>
          <note len="12" key="45" pos="1644" vol="61" pan="0"/>
          <note len="12" key="45" pos="1680" vol="61" pan="0"/>
          <note len="12" key="38" pos="1680" vol="61" pan="0"/>
          <note len="12" key="45" pos="1704" vol="61" pan="0"/>
          <note len="12" key="45" pos="1716" vol="61" pan="0"/>
          <note len="12" key="45" pos="1728" vol="61" pan="0"/>
          <note len="12" key="38" pos="1728" vol="61" pan="0"/>
          <note len="12" key="45" pos="1764" vol="61" pan="0"/>
          <note len="12" key="45" pos="1800" vol="61" pan="0"/>
          <note len="12" key="38" pos="1800" vol="61" pan="0"/>
          <note len="12" key="45" pos="1836" vol="61" pan="0"/>
          <note len="12" key="45" pos="1872" vol="61" pan="0"/>
          <note len="12" key="38" pos="1872" vol="61" pan="0"/>
          <note len="12" key="45" pos="1896" vol="61" pan="0"/>
          <note len="12" key="45" pos="1920" vol="61" pan="0"/>
          <note len="12" key="38" pos="1920" vol="61" pan="0"/>
          <note len="12" key="45" pos="1956" vol="61" pan="0"/>
          <note len="12" key="45" pos="1992" vol="61" pan="0"/>
          <note len="12" key="38" pos="1992" vol="61" pan="0"/>
          <note len="12" key="45" pos="2028" vol="61" pan="0"/>
          <note len="12" key="45" pos="2064" vol="61" pan="0"/>
          <note len="12" key="38" pos="2064" vol="61" pan="0"/>
          <note len="12" key="45" pos="2088" vol="61" pan="0"/>
          <note len="12" key="45" pos="2100" vol="61" pan="0"/>
          <note len="12" key="45" pos="2112" vol="61" pan="0"/>
          <note len="12" key="38" pos="2112" vol="61" pan="0"/>
          <note len="12" key="45" pos="2148" vol="61" pan="0"/>
          <note len="12" key="45" pos="2184" vol="61" pan="0"/>
          <note len="12" key="38" pos="2184" vol="61" pan="0"/>
          <note len="12" key="45" pos="2220" vol="61" pan="0"/>
          <note len="12" key="45" pos="2256" vol="61" pan="0"/>
          <note len="12" key="38" pos="2256" vol="61" pan="0"/>
          <note len="12" key="45" pos="2280" vol="61" pan="0"/>
          <note len="11" key="45" pos="2304" vol="61" pan="0"/>
          <note len="11" key="38" pos="2304" vol="61" pan="0"/>
          <note len="12" key="45" pos="2340" vol="61" pan="0"/>
          <note len="12" key="45" pos="2376" vol="61" pan="0"/>
          <note len="12" key="38" pos="2376" vol="61" pan="0"/>
          <note len="12" key="45" pos="2412" vol="61" pan="0"/>
          <note len="12" key="45" pos="2448" vol="61" pan="0"/>
          <note len="12" key="38" pos="2448" vol="61" pan="0"/>
          <note len="12" key="45" pos="2472" vol="61" pan="0"/>
          <note len="12" key="45" pos="2484" vol="61" pan="0"/>
          <note len="12" key="45" pos="2496" vol="61" pan="0"/>
          <note len="12" key="38" pos="2496" vol="61" pan="0"/>
          <note len="12" key="45" pos="2532" vol="61" pan="0"/>
          <note len="12" key="45" pos="2568" vol="61" pan="0"/>
          <note len="12" key="38" pos="2568" vol="61" pan="0"/>
          <note len="12" key="45" pos="2604" vol="61" pan="0"/>
          <note len="12" key="45" pos="2640" vol="61" pan="0"/>
          <note len="12" key="38" pos="2640" vol="61" pan="0"/>
          <note len="12" key="45" pos="2664" vol="61" pan="0"/>
          <note len="12" key="45" pos="2688" vol="61" pan="0"/>
          <note len="12" key="38" pos="2688" vol="61" pan="0"/>
          <note len="12" key="45" pos="2724" vol="61" pan="0"/>
          <note len="12" key="45" pos="2760" vol="61" pan="0"/>
          <note len="12" key="38" pos="2760" vol="61" pan="0"/>
          <note len="12" key="45" pos="2796" vol="61" pan="0"/>
          <note len="12" key="45" pos="2832" vol="61" pan="0"/>
          <note len="12" key="38" pos="2832" vol="61" pan="0"/>
          <note len="12" key="45" pos="2856" vol="61" pan="0"/>
          <note len="12" key="45" pos="2868" vol="61" pan="0"/>
          <note len="12" key="45" pos="2880" vol="61" pan="0"/>
          <note len="12" key="38" pos="2880" vol="61" pan="0"/>
          <note len="12" key="45" pos="2916" vol="61" pan="0"/>
          <note len="12" key="45" pos="2952" vol="61" pan="0"/>
          <note len="12" key="38" pos="2952" vol="61" pan="0"/>
          <note len="12" key="45" pos="2988" vol="61" pan="0"/>
          <note len="12" key="45" pos="3024" vol="61" pan="0"/>
          <note len="12" key="38" pos="3024" vol="61" pan="0"/>
          <note len="12" key="45" pos="3048" vol="61" pan="0"/>
          <note len="11" key="45" pos="3072" vol="61" pan="0"/>
          <note len="11" key="38" pos="3072" vol="61" pan="0"/>
          <note len="12" key="45" pos="3108" vol="61" pan="0"/>
          <note len="12" key="45" pos="3144" vol="61" pan="0"/>
          <note len="12" key="38" pos="3144" vol="61" pan="0"/>
          <note len="12" key="45" pos="3180" vol="61" pan="0"/>
          <note len="12" key="45" pos="3216" vol="61" pan="0"/>
          <note len="12" key="38" pos="3216" vol="61" pan="0"/>
          <note len="12" key="45" pos="3240" vol="61" pan="0"/>
          <note len="12" key="45" pos="3252" vol="61" pan="0"/>
          <note len="12" key="45" pos="3264" vol="61" pan="0"/>
          <note len="12" key="38" pos="3264" vol="61" pan="0"/>
          <note len="12" key="45" pos="3300" vol="61" pan="0"/>
          <note len="12" key="45" pos="3336" vol="61" pan="0"/>
          <note len="12" key="38" pos="3336" vol="61" pan="0"/>
          <note len="12" key="45" pos="3372" vol="61" pan="0"/>
          <note len="12" key="45" pos="3408" vol="61" pan="0"/>
          <note len="12" key="38" pos="3408" vol="61" pan="0"/>
          <note len="12" key="45" pos="3432" vol="61" pan="0"/>
          <note len="12" key="45" pos="3456" vol="61" pan="0"/>
          <note len="12" key="38" pos="3456" vol="61" pan="0"/>
          <note len="12" key="45" pos="3492" vol="61" pan="0"/>
          <note len="12" key="45" pos="3528" vol="61" pan="0"/>
          <note len="12" key="38" pos="3528" vol="61" pan="0"/>
          <note len="12" key="45" pos="3564" vol="61" pan="0"/>
          <note len="12" key="45" pos="3600" vol="61" pan="0"/>
          <note len="12" key="38" pos="3600" vol="61" pan="0"/>
          <note len="12" key="45" pos="3624" vol="61" pan="0"/>
          <note len="12" key="45" pos="3636" vol="61" pan="0"/>
          <note len="12" key="45" pos="3648" vol="61" pan="0"/>
          <note len="12" key="38" pos="3648" vol="61" pan="0"/>
          <note len="12" key="45" pos="3684" vol="61" pan="0"/>
          <note len="12" key="45" pos="3720" vol="61" pan="0"/>
          <note len="12" key="38" pos="3720" vol="61" pan="0"/>
          <note len="12" key="45" pos="3756" vol="61" pan="0"/>
          <note len="12" key="45" pos="3792" vol="61" pan="0"/>
          <note len="12" key="38" pos="3792" vol="61" pan="0"/>
          <note len="12" key="45" pos="3816" vol="61" pan="0"/>
          <note len="11" key="45" pos="3840" vol="61" pan="0"/>
          <note len="11" key="38" pos="3840" vol="61" pan="0"/>
          <note len="12" key="45" pos="3876" vol="61" pan="0"/>
          <note len="12" key="45" pos="3912" vol="61" pan="0"/>
          <note len="12" key="38" pos="3912" vol="61" pan="0"/>
          <note len="12" key="45" pos="3948" vol="61" pan="0"/>
          <note len="12" key="45" pos="3984" vol="61" pan="0"/>
          <note len="12" key="38" pos="3984" vol="61" pan="0"/>
          <note len="12" key="45" pos="4008" vol="61" pan="0"/>
          <note len="12" key="45" pos="4020" vol="61" pan="0"/>
          <note len="12" key="45" pos="4032" vol="61" pan="0"/>
          <note len="12" key="38" pos="4032" vol="61" pan="0"/>
          <note len="12" key="45" pos="4068" vol="61" pan="0"/>
          <note len="12" key="45" pos="4104" vol="61" pan="0"/>
          <note len="12" key="38" pos="4104" vol="61" pan="0"/>
          <note len="12" key="45" pos="4140" vol="61" pan="0"/>
          <note len="12" key="45" pos="4176" vol="61" pan="0"/>
          <note len="12" key="38" pos="4176" vol="61" pan="0"/>
          <note len="12" key="45" pos="4200" vol="61" pan="0"/>
          <note len="12" key="45" pos="4224" vol="61" pan="0"/>
          <note len="12" key="38" pos="4224" vol="61" pan="0"/>
          <note len="12" key="45" pos="4260" vol="61" pan="0"/>
          <note len="12" key="45" pos="4296" vol="61" pan="0"/>
          <note len="12" key="38" pos="4296" vol="61" pan="0"/>
          <note len="12" key="45" pos="4332" vol="61" pan="0"/>
          <note len="12" key="45" pos="4368" vol="61" pan="0"/>
          <note len="12" key="38" pos="4368" vol="61" pan="0"/>
          <note len="12" key="45" pos="4392" vol="61" pan="0"/>
          <note len="12" key="45" pos="4404" vol="61" pan="0"/>
          <note len="12" key="45" pos="4416" vol="61" pan="0"/>
          <note len="12" key="38" pos="4416" vol="61" pan="0"/>
          <note len="12" key="45" pos="4452" vol="61" pan="0"/>
          <note len="12" key="45" pos="4488" vol="61" pan="0"/>
          <note len="12" key="38" pos="4488" vol="61" pan="0"/>
          <note len="12" key="45" pos="4524" vol="61" pan="0"/>
          <note len="12" key="45" pos="4560" vol="61" pan="0"/>
          <note len="12" key="38" pos="4560" vol="61" pan="0"/>
          <note len="12" key="45" pos="4584" vol="61" pan="0"/>
          <note len="11" key="45" pos="4608" vol="61" pan="0"/>
          <note len="11" key="38" pos="4608" vol="61" pan="0"/>
          <note len="12" key="45" pos="4644" vol="61" pan="0"/>
          <note len="12" key="45" pos="4680" vol="61" pan="0"/>
          <note len="12" key="38" pos="4680" vol="61" pan="0"/>
          <note len="12" key="45" pos="4716" vol="61" pan="0"/>
          <note len="12" key="45" pos="4752" vol="61" pan="0"/>
          <note len="12" key="38" pos="4752" vol="61" pan="0"/>
          <note len="12" key="45" pos="4776" vol="61" pan="0"/>
          <note len="12" key="45" pos="4788" vol="61" pan="0"/>
          <note len="12" key="45" pos="4800" vol="61" pan="0"/>
          <note len="12" key="38" pos="4800" vol="61" pan="0"/>
          <note len="12" key="45" pos="4836" vol="61" pan="0"/>
          <note len="12" key="45" pos="4872" vol="61" pan="0"/>
          <note len="12" key="38" pos="4872" vol="61" pan="0"/>
          <note len="12" key="45" pos="4908" vol="61" pan="0"/>
          <note len="12" key="45" pos="4944" vol="61" pan="0"/>
          <note len="12" key="38" pos="4944" vol="61" pan="0"/>
          <note len="12" key="45" pos="4968" vol="61" pan="0"/>
          <note len="12" key="45" pos="4992" vol="61" pan="0"/>
          <note len="12" key="38" pos="4992" vol="61" pan="0"/>
          <note len="12" key="45" pos="5028" vol="61" pan="0"/>
          <note len="12" key="45" pos="5064" vol="61" pan="0"/>
          <note len="12" key="38" pos="5064" vol="61" pan="0"/>
          <note len="12" key="45" pos="5100" vol="61" pan="0"/>
          <note len="12" key="45" pos="5136" vol="61" pan="0"/>
          <note len="12" key="38" pos="5136" vol="61" pan="0"/>
          <note len="12" key="45" pos="5160" vol="61" pan="0"/>
          <note len="12" key="45" pos="5172" vol="61" pan="0"/>
          <note len="12" key="45" pos="5184" vol="61" pan="0"/>
          <note len="12" key="38" pos="5184" vol="61" pan="0"/>
          <note len="12" key="45" pos="5220" vol="61" pan="0"/>
          <note len="12" key="45" pos="5256" vol="61" pan="0"/>
          <note len="12" key="38" pos="5256" vol="61" pan="0"/>
          <note len="12" key="45" pos="5292" vol="61" pan="0"/>
          <note len="12" key="45" pos="5328" vol="61" pan="0"/>
          <note len="12" key="38" pos="5328" vol="61" pan="0"/>
          <note len="12" key="45" pos="5352" vol="61" pan="0"/>
          <note len="11" key="45" pos="5376" vol="61" pan="0"/>
          <note len="11" key="38" pos="5376" vol="61" pan="0"/>
          <note len="12" key="45" pos="5412" vol="61" pan="0"/>
          <note len="12" key="45" pos="5448" vol="61" pan="0"/>
          <note len="12" key="38" pos="5448" vol="61" pan="0"/>
          <note len="12" key="45" pos="5484" vol="61" pan="0"/>
          <note len="12" key="45" pos="5520" vol="61" pan="0"/>
          <note len="12" key="38" pos="5520" vol="61" pan="0"/>
          <note len="12" key="45" pos="5544" vol="61" pan="0"/>
          <note len="12" key="45" pos="5556" vol="61" pan="0"/>
          <note len="12" key="45" pos="5568" vol="61" pan="0"/>
          <note len="12" key="38" pos="5568" vol="61" pan="0"/>
          <note len="12" key="45" pos="5604" vol="61" pan="0"/>
          <note len="12" key="45" pos="5640" vol="61" pan="0"/>
          <note len="12" key="38" pos="5640" vol="61" pan="0"/>
          <note len="12" key="45" pos="5676" vol="61" pan="0"/>
          <note len="12" key="45" pos="5712" vol="61" pan="0"/>
          <note len="12" key="38" pos="5712" vol="61" pan="0"/>
          <note len="12" key="45" pos="5736" vol="61" pan="0"/>
          <note len="12" key="45" pos="5760" vol="61" pan="0"/>
          <note len="12" key="38" pos="5760" vol="61" pan="0"/>
          <note len="12" key="45" pos="5796" vol="61" pan="0"/>
          <note len="12" key="45" pos="5832" vol="61" pan="0"/>
          <note len="12" key="38" pos="5832" vol="61" pan="0"/>
          <note len="12" key="45" pos="5868" vol="61" pan="0"/>
          <note len="12" key="45" pos="5904" vol="61" pan="0"/>
          <note len="12" key="38" pos="5904" vol="61" pan="0"/>
          <note len="12" key="45" pos="5928" vol="61" pan="0"/>
          <note len="12" key="45" pos="5940" vol="61" pan="0"/>
          <note len="12" key="45" pos="5952" vol="61" pan="0"/>
          <note len="12" key="38" pos="5952" vol="61" pan="0"/>
          <note len="12" key="45" pos="5988" vol="61" pan="0"/>
          <note len="12" key="45" pos="6024" vol="61" pan="0"/>
          <note len="12" key="38" pos="6024" vol="61" pan="0"/>
          <note len="12" key="45" pos="6060" vol="61" pan="0"/>
          <note len="12" key="45" pos="6096" vol="61" pan="0"/>
          <note len="12" key="38" pos="6096" vol="61" pan="0"/>
          <note len="12" key="45" pos="6120" vol="61" pan="0"/>
          <note len="11" key="45" pos="6144" vol="61" pan="0"/>
          <note len="11" key="38" pos="6144" vol="61" pan="0"/>
          <note len="12" key="45" pos="6180" vol="61" pan="0"/>
          <note len="12" key="45" pos="6216" vol="61" pan="0"/>
          <note len="12" key="38" pos="6216" vol="61" pan="0"/>
          <note len="12" key="45" pos="6252" vol="61" pan="0"/>
          <note len="12" key="45" pos="6288" vol="61" pan="0"/>
          <note len="12" key="38" pos="6288" vol="61" pan="0"/>
          <note len="12" key="45" pos="6312" vol="61" pan="0"/>
          <note len="12" key="45" pos="6324" vol="61" pan="0"/>
          <note len="12" key="45" pos="6336" vol="61" pan="0"/>
          <note len="12" key="38" pos="6336" vol="61" pan="0"/>
          <note len="12" key="45" pos="6372" vol="61" pan="0"/>
          <note len="12" key="45" pos="6408" vol="61" pan="0"/>
          <note len="12" key="38" pos="6408" vol="61" pan="0"/>
          <note len="12" key="45" pos="6444" vol="61" pan="0"/>
          <note len="12" key="45" pos="6480" vol="61" pan="0"/>
          <note len="12" key="38" pos="6480" vol="61" pan="0"/>
          <note len="12" key="45" pos="6504" vol="61" pan="0"/>
          <note len="12" key="45" pos="6528" vol="61" pan="0"/>
          <note len="12" key="38" pos="6528" vol="61" pan="0"/>
          <note len="12" key="45" pos="6564" vol="61" pan="0"/>
          <note len="12" key="45" pos="6600" vol="61" pan="0"/>
          <note len="12" key="38" pos="6600" vol="61" pan="0"/>
          <note len="12" key="45" pos="6636" vol="61" pan="0"/>
          <note len="12" key="45" pos="6672" vol="61" pan="0"/>
          <note len="12" key="38" pos="6672" vol="61" pan="0"/>
          <note len="12" key="45" pos="6696" vol="61" pan="0"/>
          <note len="12" key="45" pos="6708" vol="61" pan="0"/>
          <note len="12" key="45" pos="6720" vol="61" pan="0"/>
          <note len="12" key="38" pos="6720" vol="61" pan="0"/>
          <note len="12" key="45" pos="6756" vol="61" pan="0"/>
          <note len="12" key="45" pos="6792" vol="61" pan="0"/>
          <note len="12" key="38" pos="6792" vol="61" pan="0"/>
          <note len="12" key="45" pos="6828" vol="61" pan="0"/>
          <note len="12" key="45" pos="6864" vol="61" pan="0"/>
          <note len="12" key="38" pos="6864" vol="61" pan="0"/>
          <note len="12" key="45" pos="6888" vol="61" pan="0"/>
          <note len="11" key="45" pos="6912" vol="61" pan="0"/>
          <note len="11" key="38" pos="6912" vol="61" pan="0"/>
          <note len="12" key="45" pos="6948" vol="61" pan="0"/>
          <note len="12" key="45" pos="6984" vol="61" pan="0"/>
          <note len="12" key="38" pos="6984" vol="61" pan="0"/>
          <note len="12" key="45" pos="7020" vol="61" pan="0"/>
          <note len="12" key="45" pos="7056" vol="61" pan="0"/>
          <note len="12" key="38" pos="7056" vol="61" pan="0"/>
          <note len="12" key="45" pos="7080" vol="61" pan="0"/>
          <note len="12" key="45" pos="7092" vol="61" pan="0"/>
          <note len="12" key="45" pos="7104" vol="61" pan="0"/>
          <note len="12" key="38" pos="7104" vol="61" pan="0"/>
          <note len="12" key="45" pos="7140" vol="61" pan="0"/>
          <note len="12" key="45" pos="7176" vol="61" pan="0"/>
          <note len="12" key="38" pos="7176" vol="61" pan="0"/>
          <note len="12" key="45" pos="7212" vol="61" pan="0"/>
          <note len="12" key="45" pos="7248" vol="61" pan="0"/>
          <note len="12" key="38" pos="7248" vol="61" pan="0"/>
          <note len="12" key="45" pos="7272" vol="61" pan="0"/>
          <note len="12" key="45" pos="7296" vol="61" pan="0"/>
          <note len="12" key="38" pos="7296" vol="61" pan="0"/>
          <note len="12" key="45" pos="7332" vol="61" pan="0"/>
          <note len="12" key="45" pos="7368" vol="61" pan="0"/>
          <note len="12" key="38" pos="7368" vol="61" pan="0"/>
          <note len="12" key="45" pos="7404" vol="61" pan="0"/>
          <note len="12" key="45" pos="7440" vol="61" pan="0"/>
          <note len="12" key="38" pos="7440" vol="61" pan="0"/>
          <note len="12" key="45" pos="7464" vol="61" pan="0"/>
          <note len="12" key="45" pos="7476" vol="61" pan="0"/>
          <note len="12" key="45" pos="7488" vol="61" pan="0"/>
          <note len="12" key="38" pos="7488" vol="61" pan="0"/>
          <note len="12" key="45" pos="7524" vol="61" pan="0"/>
          <note len="12" key="45" pos="7560" vol="61" pan="0"/>
          <note len="12" key="38" pos="7560" vol="61" pan="0"/>
          <note len="12" key="45" pos="7596" vol="61" pan="0"/>
          <note len="12" key="45" pos="7632" vol="61" pan="0"/>
          <note len="12" key="38" pos="7632" vol="61" pan="0"/>
          <note len="12" key="45" pos="7656" vol="61" pan="0"/>
          <note len="11" key="45" pos="7680" vol="61" pan="0"/>
          <note len="11" key="38" pos="7680" vol="61" pan="0"/>
          <note len="12" key="45" pos="7716" vol="61" pan="0"/>
          <note len="12" key="45" pos="7752" vol="61" pan="0"/>
          <note len="12" key="38" pos="7752" vol="61" pan="0"/>
          <note len="12" key="45" pos="7788" vol="61" pan="0"/>
          <note len="12" key="45" pos="7824" vol="61" pan="0"/>
          <note len="12" key="38" pos="7824" vol="61" pan="0"/>
          <note len="12" key="45" pos="7848" vol="61" pan="0"/>
          <note len="12" key="45" pos="7860" vol="61" pan="0"/>
          <note len="12" key="45" pos="7872" vol="61" pan="0"/>
          <note len="12" key="38" pos="7872" vol="61" pan="0"/>
          <note len="12" key="45" pos="7908" vol="61" pan="0"/>
          <note len="12" key="45" pos="7944" vol="61" pan="0"/>
          <note len="12" key="38" pos="7944" vol="61" pan="0"/>
          <note len="12" key="45" pos="7980" vol="61" pan="0"/>
          <note len="12" key="45" pos="8016" vol="61" pan="0"/>
          <note len="12" key="38" pos="8016" vol="61" pan="0"/>
          <note len="12" key="45" pos="8040" vol="61" pan="0"/>
          <note len="12" key="45" pos="8064" vol="61" pan="0"/>
          <note len="12" key="38" pos="8064" vol="61" pan="0"/>
          <note len="12" key="45" pos="8100" vol="61" pan="0"/>
          <note len="12" key="45" pos="8136" vol="61" pan="0"/>
          <note len="12" key="38" pos="8136" vol="61" pan="0"/>
          <note len="12" key="45" pos="8172" vol="61" pan="0"/>
          <note len="12" key="45" pos="8208" vol="61" pan="0"/>
          <note len="12" key="38" pos="8208" vol="61" pan="0"/>
          <note len="12" key="45" pos="8232" vol="61" pan="0"/>
          <note len="12" key="45" pos="8244" vol="61" pan="0"/>
          <note len="12" key="45" pos="8256" vol="61" pan="0"/>
          <note len="12" key="38" pos="8256" vol="61" pan="0"/>
          <note len="12" key="45" pos="8292" vol="61" pan="0"/>
          <note len="12" key="45" pos="8328" vol="61" pan="0"/>
          <note len="12" key="38" pos="8328" vol="61" pan="0"/>
          <note len="12" key="45" pos="8364" vol="61" pan="0"/>
          <note len="12" key="45" pos="8400" vol="61" pan="0"/>
          <note len="12" key="38" pos="8400" vol="61" pan="0"/>
          <note len="12" key="45" pos="8424" vol="61" pan="0"/>
          <note len="11" key="45" pos="8448" vol="61" pan="0"/>
          <note len="11" key="38" pos="8448" vol="61" pan="0"/>
          <note len="12" key="45" pos="8484" vol="61" pan="0"/>
          <note len="12" key="45" pos="8520" vol="61" pan="0"/>
          <note len="12" key="38" pos="8520" vol="61" pan="0"/>
          <note len="12" key="45" pos="8556" vol="61" pan="0"/>
          <note len="12" key="45" pos="8592" vol="61" pan="0"/>
          <note len="12" key="38" pos="8592" vol="61" pan="0"/>
          <note len="12" key="45" pos="8616" vol="61" pan="0"/>
          <note len="12" key="45" pos="8628" vol="61" pan="0"/>
          <note len="12" key="45" pos="8640" vol="61" pan="0"/>
          <note len="12" key="38" pos="8640" vol="61" pan="0"/>
          <note len="12" key="45" pos="8676" vol="61" pan="0"/>
          <note len="12" key="45" pos="8712" vol="61" pan="0"/>
          <note len="12" key="38" pos="8712" vol="61" pan="0"/>
          <note len="12" key="45" pos="8748" vol="61" pan="0"/>
          <note len="12" key="45" pos="8784" vol="61" pan="0"/>
          <note len="12" key="38" pos="8784" vol="61" pan="0"/>
          <note len="12" key="45" pos="8808" vol="61" pan="0"/>
          <note len="12" key="45" pos="8832" vol="61" pan="0"/>
          <note len="12" key="38" pos="8832" vol="61" pan="0"/>
          <note len="12" key="45" pos="8868" vol="61" pan="0"/>
          <note len="12" key="45" pos="8904" vol="61" pan="0"/>
          <note len="12" key="38" pos="8904" vol="61" pan="0"/>
          <note len="12" key="45" pos="8940" vol="61" pan="0"/>
          <note len="12" key="45" pos="8976" vol="61" pan="0"/>
          <note len="12" key="38" pos="8976" vol="61" pan="0"/>
          <note len="12" key="45" pos="9000" vol="61" pan="0"/>
          <note len="12" key="45" pos="9012" vol="61" pan="0"/>
          <note len="12" key="45" pos="9024" vol="61" pan="0"/>
          <note len="12" key="38" pos="9024" vol="61" pan="0"/>
          <note len="12" key="45" pos="9060" vol="61" pan="0"/>
          <note len="12" key="45" pos="9096" vol="61" pan="0"/>
          <note len="12" key="38" pos="9096" vol="61" pan="0"/>
          <note len="12" key="45" pos="9132" vol="61" pan="0"/>
          <note len="12" key="45" pos="9168" vol="61" pan="0"/>
          <note len="12" key="38" pos="9168" vol="61" pan="0"/>
          <note len="12" key="45" pos="9192" vol="61" pan="0"/>
          <note len="11" key="45" pos="9216" vol="61" pan="0"/>
          <note len="11" key="38" pos="9216" vol="61" pan="0"/>
          <note len="12" key="45" pos="9252" vol="61" pan="0"/>
          <note len="12" key="45" pos="9288" vol="61" pan="0"/>
          <note len="12" key="38" pos="9288" vol="61" pan="0"/>
          <note len="12" key="45" pos="9324" vol="61" pan="0"/>
          <note len="12" key="45" pos="9360" vol="61" pan="0"/>
          <note len="12" key="38" pos="9360" vol="61" pan="0"/>
          <note len="12" key="45" pos="9384" vol="61" pan="0"/>
          <note len="12" key="45" pos="9396" vol="61" pan="0"/>
          <note len="12" key="45" pos="9408" vol="61" pan="0"/>
          <note len="12" key="38" pos="9408" vol="61" pan="0"/>
          <note len="12" key="45" pos="9444" vol="61" pan="0"/>
          <note len="12" key="45" pos="9480" vol="61" pan="0"/>
          <note len="12" key="38" pos="9480" vol="61" pan="0"/>
          <note len="12" key="45" pos="9516" vol="61" pan="0"/>
          <note len="12" key="45" pos="9552" vol="61" pan="0"/>
          <note len="12" key="38" pos="9552" vol="61" pan="0"/>
          <note len="12" key="45" pos="9576" vol="61" pan="0"/>
          <note len="12" key="45" pos="9600" vol="61" pan="0"/>
          <note len="12" key="38" pos="9600" vol="61" pan="0"/>
          <note len="12" key="45" pos="9636" vol="61" pan="0"/>
          <note len="12" key="45" pos="9672" vol="61" pan="0"/>
          <note len="12" key="38" pos="9672" vol="61" pan="0"/>
          <note len="12" key="45" pos="9708" vol="61" pan="0"/>
          <note len="12" key="45" pos="9744" vol="61" pan="0"/>
          <note len="12" key="38" pos="9744" vol="61" pan="0"/>
          <note len="12" key="45" pos="9768" vol="61" pan="0"/>
          <note len="12" key="45" pos="9780" vol="61" pan="0"/>
          <note len="12" key="45" pos="9792" vol="61" pan="0"/>
          <note len="12" key="38" pos="9792" vol="61" pan="0"/>
          <note len="12" key="45" pos="9828" vol="61" pan="0"/>
          <note len="12" key="45" pos="9864" vol="61" pan="0"/>
          <note len="12" key="38" pos="9864" vol="61" pan="0"/>
          <note len="12" key="45" pos="9900" vol="61" pan="0"/>
          <note len="12" key="45" pos="9936" vol="61" pan="0"/>
          <note len="12" key="38" pos="9936" vol="61" pan="0"/>
          <note len="12" key="45" pos="9960" vol="61" pan="0"/>
          <note len="11" key="45" pos="9984" vol="61" pan="0"/>
          <note len="11" key="38" pos="9984" vol="61" pan="0"/>
          <note len="12" key="45" pos="10020" vol="61" pan="0"/>
          <note len="12" key="45" pos="10056" vol="61" pan="0"/>
          <note len="12" key="38" pos="10056" vol="61" pan="0"/>
          <note len="12" key="45" pos="10092" vol="61" pan="0"/>
          <note len="12" key="45" pos="10128" vol="61" pan="0"/>
          <note len="12" key="38" pos="10128" vol="61" pan="0"/>
          <note len="12" key="45" pos="10152" vol="61" pan="0"/>
          <note len="12" key="45" pos="10164" vol="61" pan="0"/>
          <note len="12" key="45" pos="10176" vol="61" pan="0"/>
          <note len="12" key="38" pos="10176" vol="61" pan="0"/>
          <note len="12" key="45" pos="10212" vol="61" pan="0"/>
          <note len="12" key="45" pos="10248" vol="61" pan="0"/>
          <note len="12" key="38" pos="10248" vol="61" pan="0"/>
          <note len="12" key="45" pos="10284" vol="61" pan="0"/>
          <note len="12" key="45" pos="10320" vol="61" pan="0"/>
          <note len="12" key="38" pos="10320" vol="61" pan="0"/>
          <note len="12" key="45" pos="10344" vol="61" pan="0"/>
          <note len="12" key="45" pos="10368" vol="61" pan="0"/>
          <note len="12" key="38" pos="10368" vol="61" pan="0"/>
          <note len="12" key="45" pos="10404" vol="61" pan="0"/>
          <note len="12" key="45" pos="10440" vol="61" pan="0"/>
          <note len="12" key="38" pos="10440" vol="61" pan="0"/>
          <note len="12" key="45" pos="10476" vol="61" pan="0"/>
          <note len="12" key="45" pos="10512" vol="61" pan="0"/>
          <note len="12" key="38" pos="10512" vol="61" pan="0"/>
          <note len="12" key="45" pos="10536" vol="61" pan="0"/>
          <note len="12" key="45" pos="10548" vol="61" pan="0"/>
          <note len="12" key="45" pos="10560" vol="61" pan="0"/>
          <note len="12" key="38" pos="10560" vol="61" pan="0"/>
          <note len="12" key="45" pos="10596" vol="61" pan="0"/>
          <note len="12" key="45" pos="10632" vol="61" pan="0"/>
          <note len="12" key="38" pos="10632" vol="61" pan="0"/>
          <note len="12" key="45" pos="10668" vol="61" pan="0"/>
          <note len="12" key="45" pos="10704" vol="61" pan="0"/>
          <note len="12" key="38" pos="10704" vol="61" pan="0"/>
          <note len="12" key="45" pos="10728" vol="61" pan="0"/>
          <note len="11" key="45" pos="10752" vol="61" pan="0"/>
          <note len="11" key="38" pos="10752" vol="61" pan="0"/>
          <note len="12" key="45" pos="10788" vol="61" pan="0"/>
          <note len="12" key="45" pos="10824" vol="61" pan="0"/>
          <note len="12" key="38" pos="10824" vol="61" pan="0"/>
          <note len="12" key="45" pos="10860" vol="61" pan="0"/>
          <note len="12" key="45" pos="10896" vol="61" pan="0"/>
          <note len="12" key="38" pos="10896" vol="61" pan="0"/>
          <note len="12" key="45" pos="10920" vol="61" pan="0"/>
          <note len="12" key="45" pos="10932" vol="61" pan="0"/>
          <note len="12" key="45" pos="10944" vol="61" pan="0"/>
          <note len="12" key="38" pos="10944" vol="61" pan="0"/>
          <note len="12" key="45" pos="10980" vol="61" pan="0"/>
          <note len="12" key="45" pos="11016" vol="61" pan="0"/>
          <note len="12" key="38" pos="11016" vol="61" pan="0"/>
          <note len="12" key="45" pos="11052" vol="61" pan="0"/>
          <note len="12" key="45" pos="11088" vol="61" pan="0"/>
          <note len="12" key="38" pos="11088" vol="61" pan="0"/>
          <note len="12" key="45" pos="11112" vol="61" pan="0"/>
          <note len="12" key="45" pos="11136" vol="61" pan="0"/>
          <note len="12" key="38" pos="11136" vol="61" pan="0"/>
          <note len="12" key="45" pos="11172" vol="61" pan="0"/>
          <note len="12" key="45" pos="11208" vol="61" pan="0"/>
          <note len="12" key="38" pos="11208" vol="61" pan="0"/>
          <note len="12" key="45" pos="11244" vol="61" pan="0"/>
          <note len="12" key="45" pos="11280" vol="61" pan="0"/>
          <note len="12" key="38" pos="11280" vol="61" pan="0"/>
          <note len="12" key="45" pos="11304" vol="61" pan="0"/>
          <note len="12" key="45" pos="11316" vol="61" pan="0"/>
          <note len="12" key="45" pos="11328" vol="61" pan="0"/>
          <note len="12" key="38" pos="11328" vol="61" pan="0"/>
          <note len="12" key="45" pos="11364" vol="61" pan="0"/>
          <note len="12" key="45" pos="11400" vol="61" pan="0"/>
          <note len="12" key="38" pos="11400" vol="61" pan="0"/>
          <note len="12" key="45" pos="11436" vol="61" pan="0"/>
          <note len="12" key="45" pos="11472" vol="61" pan="0"/>
          <note len="12" key="38" pos="11472" vol="61" pan="0"/>
          <note len="12" key="45" pos="11496" vol="61" pan="0"/>
          <note len="11" key="45" pos="11520" vol="61" pan="0"/>
          <note len="11" key="38" pos="11520" vol="61" pan="0"/>
          <note len="12" key="45" pos="11556" vol="61" pan="0"/>
          <note len="12" key="45" pos="11592" vol="61" pan="0"/>
          <note len="12" key="38" pos="11592" vol="61" pan="0"/>
          <note len="12" key="45" pos="11628" vol="61" pan="0"/>
          <note len="12" key="45" pos="11664" vol="61" pan="0"/>
          <note len="12" key="38" pos="11664" vol="61" pan="0"/>
          <note len="12" key="45" pos="11688" vol="61" pan="0"/>
          <note len="12" key="45" pos="11700" vol="61" pan="0"/>
          <note len="12" key="45" pos="11712" vol="61" pan="0"/>
          <note len="12" key="38" pos="11712" vol="61" pan="0"/>
          <note len="12" key="45" pos="11748" vol="61" pan="0"/>
          <note len="12" key="45" pos="11784" vol="61" pan="0"/>
          <note len="12" key="38" pos="11784" vol="61" pan="0"/>
          <note len="12" key="45" pos="11820" vol="61" pan="0"/>
          <note len="12" key="45" pos="11856" vol="61" pan="0"/>
          <note len="12" key="38" pos="11856" vol="61" pan="0"/>
          <note len="12" key="45" pos="11880" vol="61" pan="0"/>
          <note len="12" key="45" pos="11904" vol="61" pan="0"/>
          <note len="12" key="38" pos="11904" vol="61" pan="0"/>
          <note len="12" key="45" pos="11940" vol="61" pan="0"/>
          <note len="12" key="45" pos="11976" vol="61" pan="0"/>
          <note len="12" key="38" pos="11976" vol="61" pan="0"/>
          <note len="12" key="45" pos="12012" vol="61" pan="0"/>
          <note len="12" key="45" pos="12048" vol="61" pan="0"/>
          <note len="12" key="38" pos="12048" vol="61" pan="0"/>
          <note len="12" key="45" pos="12072" vol="61" pan="0"/>
          <note len="12" key="45" pos="12084" vol="61" pan="0"/>
          <note len="12" key="45" pos="12096" vol="61" pan="0"/>
          <note len="12" key="38" pos="12096" vol="61" pan="0"/>
          <note len="12" key="45" pos="12132" vol="61" pan="0"/>
          <note len="12" key="45" pos="12168" vol="61" pan="0"/>
          <note len="12" key="38" pos="12168" vol="61" pan="0"/>
          <note len="12" key="45" pos="12204" vol="61" pan="0"/>
          <note len="12" key="45" pos="12240" vol="61" pan="0"/>
          <note len="12" key="38" pos="12240" vol="61" pan="0"/>
          <note len="12" key="45" pos="12264" vol="61" pan="0"/>
        </pattern>
      </track>
      <track type="0" muted="0" solo="0" name="Piano 1">
        <instrumenttrack basenote="57" pitch="0" pitchrange="2" fxch="0" vol="50" pan="0" usemasterpitch="1">
          <instrument name="vestige">
            <vestige chunk="Q09UVEFLU3RhdGVWZXJzaW9uADIAQWR2YW5jZWRHVUlFbmFibGUAMABBdWRpb1BsYXllcl9HYWluADEAQXVkaW9QbGF5ZXJfTG9vcAAwAEF1ZGlvUGxheWVyX1BsYXkAMABEb0xvYWREZWZhdWx0UHJlc2V0ADAARXhwbG9yZUZpbGVBbmRQYXJhbXMAeyBFeHBsb3JlRmlsZSA9ICJTdEdyYW5kUHJvZHVjZXIuRXhwbG9yZSIsIFBhcmFtcyA9IHsgRHluYW1pY3JhbmdlID0gMCwgRnggPSAwLjE3NzQxOTM2NDQ1MjM2LCBSYXRlc2hpZnQgPSAwLjUsIFRvbmUgPSAwLjU0NzEyNTk5NTE1OTE1fX0ARXhwbG9yZVdhcm5pbmdWaXNpYmxlADAARlhMYXllcjEvQ2hNYS9FUV9JbnNfRVFfQ3V0SGlGcmVxADEARlhMYXllcjEvQ2hNYS9FUV9JbnNfRVFfQ3V0SGlRADAuNQBGWExheWVyMS9DaE1hL0VRX0luc19FUV9DdXRMb0ZyZXEAMABGWExheWVyMS9DaE1hL0VRX0luc19FUV9DdXRMb1EAMC41AEZYTGF5ZXIxL0NoTWEvRVFfSW5zX0VRX0VuYWJsZQAxAEZYTGF5ZXIxL0NoTWEvRVFfSW5zX0VRX0hpRnJlcQAwLjg1ODIwNDg0MgBGWExheWVyMS9DaE1hL0VRX0luc19FUV9IaUdhaW4AMC41NDcxMjU5OTUARlhMYXllcjEvQ2hNYS9FUV9JbnNfRVFfSGlRADAuMjAxMDAwMDA1AEZYTGF5ZXIxL0NoTWEvRVFfSW5zX0VRX0xvRnJlcQAwLjIyOTA1ODg5MgBGWExheWVyMS9DaE1hL0VRX0luc19FUV9Mb0dhaW4AMC41NzM2ODQyMTYARlhMYXllcjEvQ2hNYS9FUV9JbnNfRVFfTG9RADAuNTIyMjIyMjIxAEZYTGF5ZXIxL0NoTWEvRVFfSW5zX0VRX01pZEZyZXEAMC4zODc1OTg2MzQARlhMYXllcjEvQ2hNYS9FUV9JbnNfRVFfTWlkR2FpbgAwLjM3NDA4NTQ1NgBGWExheWVyMS9DaE1hL0VRX0luc19FUV9NaWRRADAuNTE5OTk5OTgxAEZYTGF5ZXIxL0NoTWEvRmlsdGVyX0luc19GaWx0ZXJfRW5hYmxlADAARlhMYXllcjEvQ2hNYS9GaWx0ZXJfSW5zX0ZpbHRlcl9IaQAxAEZYTGF5ZXIxL0NoTWEvRmlsdGVyX0luc19GaWx0ZXJfTG8AMABGWExheWVyMS9DaE1hL0dVSU11dGUAMABGWExheWVyMS9DaE1hL0dVSVNvbG8AMABGWExheWVyMS9DaE1hL0xldmVsU2xpZGVyADAuNjU1OTQxNDI3AEZYTGF5ZXIxL0NoTWEvTXVsdGlGWC9DaG9ydXNfQWx0ZXJuYXRlADAARlhMYXllcjEvQ2hNYS9NdWx0aUZYL0Nob3J1c19EZXB0aAAwLjUARlhMYXllcjEvQ2hNYS9NdWx0aUZYL0Nob3J1c19FbmFibGUAMQBGWExheWVyMS9DaE1hL011bHRpRlgvQ2hvcnVzX0ZpbHRlckhpADEARlhMYXllcjEvQ2hNYS9NdWx0aUZYL0Nob3J1c19GaWx0ZXJMbwAwAEZYTGF5ZXIxL0NoTWEvTXVsdGlGWC9DaG9ydXNfTWl4ADAuNQBGWExheWVyMS9DaE1hL011bHRpRlgvQ2hvcnVzX1JhdGUAMC41AEZYTGF5ZXIxL0NoTWEvTXVsdGlGWC9DaG9ydXNfU3RlcmVvV2lkdGgAMC41AEZYTGF5ZXIxL0NoTWEvTXVsdGlGWC9DaG9ydXNfVm9pY2VzADUARlhMYXllcjEvQ2hNYS9NdWx0aUZYL0Nob3J1c19YTW9kMk1peAAwLjUARlhMYXllcjEvQ2hNYS9NdWx0aUZYL0NvbXBEaXN0X0NvbXBfQXR0YWNrADAuMjAzMjk2NzA2AEZYTGF5ZXIxL0NoTWEvTXVsdGlGWC9Db21wRGlzdF9Db21wX0VuYWJsZQAxAEZYTGF5ZXIxL0NoTWEvTXVsdGlGWC9Db21wRGlzdF9Db21wX1JhdGlvADAuNTA4NTc1MDIyAEZYTGF5ZXIxL0NoTWEvTXVsdGlGWC9Db21wRGlzdF9Db21wX1JlbGVhc2UAMC4yNDY4MzczMDMARlhMYXllcjEvQ2hNYS9NdWx0aUZYL0NvbXBEaXN0X0NvbXBfVGhyZXNob2xkADAuNzc5OTk5OTcxAEZYTGF5ZXIxL0NoTWEvTXVsdGlGWC9Db21wRGlzdF9EaXN0X0Ftb3VudAAwLjUARlhMYXllcjEvQ2hNYS9NdWx0aUZYL0NvbXBEaXN0X0Rpc3RfRW5hYmxlADAARlhMYXllcjEvQ2hNYS9NdWx0aUZYL0NvbXBEaXN0X0Rpc3RfRnJlcUhpADEARlhMYXllcjEvQ2hNYS9NdWx0aUZYL0NvbXBEaXN0X0Rpc3RfRnJlcUxvADAARlhMYXllcjEvQ2hNYS9NdWx0aUZYL0NvbXBEaXN0X0Rpc3RfTWl4ADAuNQBGWExheWVyMS9DaE1hL011bHRpRlgvQ29tcERpc3RfRGlzdF9UeXBlADUARlhMYXllcjEvQ2hNYS9NdWx0aUZYL0N1cnJlbnRTZWxlY3Rpb24AQ29tcABGWExheWVyMS9DaE1hL011bHRpRlgvRW5hYmxlADEARlhMYXllcjEvQ2hNYS9NdWx0aUZYL1BoYXNlcl9FbmFibGUAMQBGWExheWVyMS9DaE1hL011bHRpRlgvUGhhc2VyX0ZlZWRiYWNrADAuNQBGWExheWVyMS9DaE1hL011bHRpRlgvUGhhc2VyX0xldmVsADAuNQBGWExheWVyMS9DaE1hL011bHRpRlgvUGhhc2VyX01vZERlcHRoADAuNQBGWExheWVyMS9DaE1hL011bHRpRlgvUGhhc2VyX01vZFJhdGUAMC41AEZYTGF5ZXIxL0NoTWEvTXVsdGlGWC9QaGFzZXJfTW9kU2hhcGUAMABGWExheWVyMS9DaE1hL011bHRpRlgvUGhhc2VyX01vZFNoYXBlSW52ZXJ0ADAARlhMYXllcjEvQ2hNYS9NdWx0aUZYL1BoYXNlcl9Nb2RTdGVyZW8AMQBGWExheWVyMS9DaE1hL011bHRpRlgvUGhhc2VyX1BoYXNlADAuNQBGWExheWVyMS9DaE1hL011bHRpRlgvUGhhc2VyX1N0YWdlcwAxMgBGWExheWVyMS9DaE1hL011bHRpRlgvUGhhc2VyX1RlbXBvU3luYwAwAEZYTGF5ZXIxL0NoTWEvTXVsdGlGWC9QaGFzZXJfWE1vZDJGZWVkYmFjawAwLjUARlhMYXllcjEvQ2hNYS9NdWx0aUZYL1BoYXNlcl9YTW9kMkxldmVsADAuNQBGWExheWVyMS9DaE1hL011bHRpRlgvVHJlbW9sb19EZXB0aAAwLjUARlhMYXllcjEvQ2hNYS9NdWx0aUZYL1RyZW1vbG9fRW5hYmxlADEARlhMYXllcjEvQ2hNYS9NdWx0aUZYL1RyZW1vbG9fRmlsdGVyQ3V0b2ZmADAuNQBGWExheWVyMS9DaE1hL011bHRpRlgvVHJlbW9sb19GaWx0ZXJEZXB0aAAwLjUARlhMYXllcjEvQ2hNYS9NdWx0aUZYL1RyZW1vbG9fRmlsdGVyRW5hYmxlADAARlhMYXllcjEvQ2hNYS9NdWx0aUZYL1RyZW1vbG9fUGFubmVyRGVwdGgAMC41AEZYTGF5ZXIxL0NoTWEvTXVsdGlGWC9UcmVtb2xvX1JhdGUAMC40MDAwMDAwMDYARlhMYXllcjEvQ2hNYS9NdWx0aUZYL1RyZW1vbG9fU2hhcGUAMABGWExheWVyMS9DaE1hL011bHRpRlgvVHJlbW9sb19TaGFwZUludmVydAAwAEZYTGF5ZXIxL0NoTWEvTXVsdGlGWC9UcmVtb2xvX1RlbXBvU3luYwAwAEZYTGF5ZXIxL0NoTWEvTXVsdGlGWC9UcmVtb2xvX1hNb2QyRGVwdGgAMC41AEZYTGF5ZXIxL0NoTWEvTXVsdGlGWC9UcmVtb2xvX1hNb2QyRmlsdGVyQ3V0b2ZmADAuNQBGWExheWVyMS9DaE1hL011bHRpRlgvVHJlbW9sb19YTW9kMkZpbHRlckRlcHRoADAuNQBGWExheWVyMS9DaE1hL011bHRpRlgvVHJlbW9sb19YTW9kMlBhbm5lckRlcHRoADAuNQBGWExheWVyMS9DaE1hL011bHRpRlhQcmUvQ2hvcnVzX0FsdGVybmF0ZQAwAEZYTGF5ZXIxL0NoTWEvTXVsdGlGWFByZS9DaG9ydXNfRGVwdGgAMC41AEZYTGF5ZXIxL0NoTWEvTXVsdGlGWFByZS9DaG9ydXNfRW5hYmxlADEARlhMYXllcjEvQ2hNYS9NdWx0aUZYUHJlL0Nob3J1c19GaWx0ZXJIaQAxAEZYTGF5ZXIxL0NoTWEvTXVsdGlGWFByZS9DaG9ydXNfRmlsdGVyTG8AMABGWExheWVyMS9DaE1hL011bHRpRlhQcmUvQ2hvcnVzX01peAAwLjUARlhMYXllcjEvQ2hNYS9NdWx0aUZYUHJlL0Nob3J1c19SYXRlADAuNQBGWExheWVyMS9DaE1hL011bHRpRlhQcmUvQ2hvcnVzX1N0ZXJlb1dpZHRoADAuNQBGWExheWVyMS9DaE1hL011bHRpRlhQcmUvQ2hvcnVzX1ZvaWNlcwA1AEZYTGF5ZXIxL0NoTWEvTXVsdGlGWFByZS9DaG9ydXNfWE1vZDJNaXgAMC41AEZYTGF5ZXIxL0NoTWEvTXVsdGlGWFByZS9Db21wRGlzdF9Db21wX0F0dGFjawAwLjIwMDAwMDAwMwBGWExheWVyMS9DaE1hL011bHRpRlhQcmUvQ29tcERpc3RfQ29tcF9FbmFibGUAMABGWExheWVyMS9DaE1hL011bHRpRlhQcmUvQ29tcERpc3RfQ29tcF9SYXRpbwAwLjUARlhMYXllcjEvQ2hNYS9NdWx0aUZYUHJlL0NvbXBEaXN0X0NvbXBfUmVsZWFzZQAwLjIwMDAwMDAwMwBGWExheWVyMS9DaE1hL011bHRpRlhQcmUvQ29tcERpc3RfQ29tcF9UaHJlc2hvbGQAMC41AEZYTGF5ZXIxL0NoTWEvTXVsdGlGWFByZS9Db21wRGlzdF9EaXN0X0Ftb3VudAAwLjUARlhMYXllcjEvQ2hNYS9NdWx0aUZYUHJlL0NvbXBEaXN0X0Rpc3RfRW5hYmxlADAARlhMYXllcjEvQ2hNYS9NdWx0aUZYUHJlL0NvbXBEaXN0X0Rpc3RfRnJlcUhpADEARlhMYXllcjEvQ2hNYS9NdWx0aUZYUHJlL0NvbXBEaXN0X0Rpc3RfRnJlcUxvADAARlhMYXllcjEvQ2hNYS9NdWx0aUZYUHJlL0NvbXBEaXN0X0Rpc3RfTWl4ADAuNQBGWExheWVyMS9DaE1hL011bHRpRlhQcmUvQ29tcERpc3RfRGlzdF9UeXBlADUARlhMYXllcjEvQ2hNYS9NdWx0aUZYUHJlL0N1cnJlbnRTZWxlY3Rpb24AUGhhc2VyAEZYTGF5ZXIxL0NoTWEvTXVsdGlGWFByZS9FbmFibGUAMABGWExheWVyMS9DaE1hL011bHRpRlhQcmUvUGhhc2VyX0VuYWJsZQAxAEZYTGF5ZXIxL0NoTWEvTXVsdGlGWFByZS9QaGFzZXJfRmVlZGJhY2sAMC41AEZYTGF5ZXIxL0NoTWEvTXVsdGlGWFByZS9QaGFzZXJfTGV2ZWwAMC41AEZYTGF5ZXIxL0NoTWEvTXVsdGlGWFByZS9QaGFzZXJfTW9kRGVwdGgAMC41AEZYTGF5ZXIxL0NoTWEvTXVsdGlGWFByZS9QaGFzZXJfTW9kUmF0ZQAwLjUARlhMYXllcjEvQ2hNYS9NdWx0aUZYUHJlL1BoYXNlcl9Nb2RTaGFwZQAwAEZYTGF5ZXIxL0NoTWEvTXVsdGlGWFByZS9QaGFzZXJfTW9kU2hhcGVJbnZlcnQAMABGWExheWVyMS9DaE1hL011bHRpRlhQcmUvUGhhc2VyX01vZFN0ZXJlbwAxAEZYTGF5ZXIxL0NoTWEvTXVsdGlGWFByZS9QaGFzZXJfUGhhc2UAMC41AEZYTGF5ZXIxL0NoTWEvTXVsdGlGWFByZS9QaGFzZXJfU3RhZ2VzADEyAEZYTGF5ZXIxL0NoTWEvTXVsdGlGWFByZS9QaGFzZXJfVGVtcG9TeW5jADAARlhMYXllcjEvQ2hNYS9NdWx0aUZYUHJlL1BoYXNlcl9YTW9kMkZlZWRiYWNrADAuNQBGWExheWVyMS9DaE1hL011bHRpRlhQcmUvUGhhc2VyX1hNb2QyTGV2ZWwAMC41AEZYTGF5ZXIxL0NoTWEvTXVsdGlGWFByZS9UcmVtb2xvX0RlcHRoADAuNQBGWExheWVyMS9DaE1hL011bHRpRlhQcmUvVHJlbW9sb19FbmFibGUAMQBGWExheWVyMS9DaE1hL011bHRpRlhQcmUvVHJlbW9sb19GaWx0ZXJDdXRvZmYAMC41AEZYTGF5ZXIxL0NoTWEvTXVsdGlGWFByZS9UcmVtb2xvX0ZpbHRlckRlcHRoADAuNQBGWExheWVyMS9DaE1hL011bHRpRlhQcmUvVHJlbW9sb19GaWx0ZXJFbmFibGUAMABGWExheWVyMS9DaE1hL011bHRpRlhQcmUvVHJlbW9sb19QYW5uZXJEZXB0aAAwLjUARlhMYXllcjEvQ2hNYS9NdWx0aUZYUHJlL1RyZW1vbG9fUmF0ZQAwLjQwMDAwMDAwNgBGWExheWVyMS9DaE1hL011bHRpRlhQcmUvVHJlbW9sb19TaGFwZQAwAEZYTGF5ZXIxL0NoTWEvTXVsdGlGWFByZS9UcmVtb2xvX1NoYXBlSW52ZXJ0ADAARlhMYXllcjEvQ2hNYS9NdWx0aUZYUHJlL1RyZW1vbG9fVGVtcG9TeW5jADAARlhMYXllcjEvQ2hNYS9NdWx0aUZYUHJlL1RyZW1vbG9fWE1vZDJEZXB0aAAwLjUARlhMYXllcjEvQ2hNYS9NdWx0aUZYUHJlL1RyZW1vbG9fWE1vZDJGaWx0ZXJDdXRvZmYAMC41AEZYTGF5ZXIxL0NoTWEvTXVsdGlGWFByZS9UcmVtb2xvX1hNb2QyRmlsdGVyRGVwdGgAMC41AEZYTGF5ZXIxL0NoTWEvTXVsdGlGWFByZS9UcmVtb2xvX1hNb2QyUGFubmVyRGVwdGgAMC41AEZYTGF5ZXIxL0NoTWEvTm9pc2VfRGVjYXlUaW1lADAuNQBGWExheWVyMS9DaE1hL05vaXNlX0VuYWJsZQAwAEZYTGF5ZXIxL0NoTWEvTm9pc2VfR2F0ZUxldmVsADAuNDQ5OTk5OTg4AEZYTGF5ZXIxL0NoTWEvTm9pc2VfTWlkaVRyaWdnZXIAMQBGWExheWVyMS9DaE1hL05vaXNlX05vaXNlTGV2ZWwAMC41AEZYTGF5ZXIxL0NoTWEvTm9pc2VfTm9pc2VUeXBlADAARlhMYXllcjEvQ2hNYS9QYW5fUGFuADAuNQBGWExheWVyMS9DaE1hL1Bhbl9XaWR0aAAwAEZYTGF5ZXIxL0ZYMS9FUV9JbnNfRVFfQ3V0SGlGcmVxADEARlhMYXllcjEvRlgxL0VRX0luc19FUV9DdXRIaVEAMC41AEZYTGF5ZXIxL0ZYMS9FUV9JbnNfRVFfQ3V0TG9GcmVxADAARlhMYXllcjEvRlgxL0VRX0luc19FUV9DdXRMb1EAMC41AEZYTGF5ZXIxL0ZYMS9FUV9JbnNfRVFfRW5hYmxlADEARlhMYXllcjEvRlgxL0VRX0luc19FUV9IaUZyZXEAMC44MDEyMDQ4MDEARlhMYXllcjEvRlgxL0VRX0luc19FUV9IaUdhaW4AMC41AEZYTGF5ZXIxL0ZYMS9FUV9JbnNfRVFfSGlRADAuNjk5OTk5OTg4AEZYTGF5ZXIxL0ZYMS9FUV9JbnNfRVFfTG9GcmVxADAuMTY3NTkwMzUARlhMYXllcjEvRlgxL0VRX0luc19FUV9Mb0dhaW4AMC4yMzk5OTk5OTUARlhMYXllcjEvRlgxL0VRX0luc19FUV9Mb1EAMC40MDk5OTk5OTYARlhMYXllcjEvRlgxL0VRX0luc19FUV9NaWRGcmVxADAuMzA4NDAxNjc0AEZYTGF5ZXIxL0ZYMS9FUV9JbnNfRVFfTWlkR2FpbgAwLjYyODAwMDAyMQBGWExheWVyMS9GWDEvRVFfSW5zX0VRX01pZFEAMC4yNDk5OTk5ODUARlhMYXllcjEvRlgxL0dVSU11dGUAMABGWExheWVyMS9GWDEvR1VJU29sbwAwAEZYTGF5ZXIxL0ZYMS9MZXZlbFNsaWRlcgAxAEZYTGF5ZXIxL0ZYMS9NdWx0aUZYL0Nob3J1c19BbHRlcm5hdGUAMABGWExheWVyMS9GWDEvTXVsdGlGWC9DaG9ydXNfRGVwdGgAMC41AEZYTGF5ZXIxL0ZYMS9NdWx0aUZYL0Nob3J1c19FbmFibGUAMQBGWExheWVyMS9GWDEvTXVsdGlGWC9DaG9ydXNfRmlsdGVySGkAMQBGWExheWVyMS9GWDEvTXVsdGlGWC9DaG9ydXNfRmlsdGVyTG8AMABGWExheWVyMS9GWDEvTXVsdGlGWC9DaG9ydXNfTWl4ADAuNQBGWExheWVyMS9GWDEvTXVsdGlGWC9DaG9ydXNfUmF0ZQAwLjUARlhMYXllcjEvRlgxL011bHRpRlgvQ2hvcnVzX1N0ZXJlb1dpZHRoADAuNQBGWExheWVyMS9GWDEvTXVsdGlGWC9DaG9ydXNfVm9pY2VzADUARlhMYXllcjEvRlgxL011bHRpRlgvQ2hvcnVzX1hNb2QyTWl4ADAuNQBGWExheWVyMS9GWDEvTXVsdGlGWC9Db21wRGlzdF9Db21wX0F0dGFjawAwLjIwMDAwMDAwMwBGWExheWVyMS9GWDEvTXVsdGlGWC9Db21wRGlzdF9Db21wX0VuYWJsZQAwAEZYTGF5ZXIxL0ZYMS9NdWx0aUZYL0NvbXBEaXN0X0NvbXBfUmF0aW8AMC41AEZYTGF5ZXIxL0ZYMS9NdWx0aUZYL0NvbXBEaXN0X0NvbXBfUmVsZWFzZQAwLjIwMDAwMDAwMwBGWExheWVyMS9GWDEvTXVsdGlGWC9Db21wRGlzdF9Db21wX1RocmVzaG9sZAAwLjUARlhMYXllcjEvRlgxL011bHRpRlgvQ29tcERpc3RfRGlzdF9BbW91bnQAMC41AEZYTGF5ZXIxL0ZYMS9NdWx0aUZYL0NvbXBEaXN0X0Rpc3RfRW5hYmxlADAARlhMYXllcjEvRlgxL011bHRpRlgvQ29tcERpc3RfRGlzdF9GcmVxSGkAMQBGWExheWVyMS9GWDEvTXVsdGlGWC9Db21wRGlzdF9EaXN0X0ZyZXFMbwAwAEZYTGF5ZXIxL0ZYMS9NdWx0aUZYL0NvbXBEaXN0X0Rpc3RfTWl4ADAuNQBGWExheWVyMS9GWDEvTXVsdGlGWC9Db21wRGlzdF9EaXN0X1R5cGUANQBGWExheWVyMS9GWDEvTXVsdGlGWC9DdXJyZW50U2VsZWN0aW9uAENob3J1cwBGWExheWVyMS9GWDEvTXVsdGlGWC9FbmFibGUAMABGWExheWVyMS9GWDEvTXVsdGlGWC9QaGFzZXJfRW5hYmxlADEARlhMYXllcjEvRlgxL011bHRpRlgvUGhhc2VyX0ZlZWRiYWNrADAuNQBGWExheWVyMS9GWDEvTXVsdGlGWC9QaGFzZXJfTGV2ZWwAMC41AEZYTGF5ZXIxL0ZYMS9NdWx0aUZYL1BoYXNlcl9Nb2REZXB0aAAwLjUARlhMYXllcjEvRlgxL011bHRpRlgvUGhhc2VyX01vZFJhdGUAMC41AEZYTGF5ZXIxL0ZYMS9NdWx0aUZYL1BoYXNlcl9Nb2RTaGFwZQAwAEZYTGF5ZXIxL0ZYMS9NdWx0aUZYL1BoYXNlcl9Nb2RTaGFwZUludmVydAAwAEZYTGF5ZXIxL0ZYMS9NdWx0aUZYL1BoYXNlcl9Nb2RTdGVyZW8AMQBGWExheWVyMS9GWDEvTXVsdGlGWC9QaGFzZXJfUGhhc2UAMC41AEZYTGF5ZXIxL0ZYMS9NdWx0aUZYL1BoYXNlcl9TdGFnZXMAMTIARlhMYXllcjEvRlgxL011bHRpRlgvUGhhc2VyX1RlbXBvU3luYwAwAEZYTGF5ZXIxL0ZYMS9NdWx0aUZYL1BoYXNlcl9YTW9kMkZlZWRiYWNrADAuNQBGWExheWVyMS9GWDEvTXVsdGlGWC9QaGFzZXJfWE1vZDJMZXZlbAAwLjUARlhMYXllcjEvRlgxL011bHRpRlgvVHJlbW9sb19EZXB0aAAwLjUARlhMYXllcjEvRlgxL011bHRpRlgvVHJlbW9sb19FbmFibGUAMQBGWExheWVyMS9GWDEvTXVsdGlGWC9UcmVtb2xvX0ZpbHRlckN1dG9mZgAwLjUARlhMYXllcjEvRlgxL011bHRpRlgvVHJlbW9sb19GaWx0ZXJEZXB0aAAwLjUARlhMYXllcjEvRlgxL011bHRpRlgvVHJlbW9sb19GaWx0ZXJFbmFibGUAMABGWExheWVyMS9GWDEvTXVsdGlGWC9UcmVtb2xvX1Bhbm5lckRlcHRoADAuNQBGWExheWVyMS9GWDEvTXVsdGlGWC9UcmVtb2xvX1JhdGUAMC40MDAwMDAwMDYARlhMYXllcjEvRlgxL011bHRpRlgvVHJlbW9sb19TaGFwZQAwAEZYTGF5ZXIxL0ZYMS9NdWx0aUZYL1RyZW1vbG9fU2hhcGVJbnZlcnQAMABGWExheWVyMS9GWDEvTXVsdGlGWC9UcmVtb2xvX1RlbXBvU3luYwAwAEZYTGF5ZXIxL0ZYMS9NdWx0aUZYL1RyZW1vbG9fWE1vZDJEZXB0aAAwLjUARlhMYXllcjEvRlgxL011bHRpRlgvVHJlbW9sb19YTW9kMkZpbHRlckN1dG9mZgAwLjUARlhMYXllcjEvRlgxL011bHRpRlgvVHJlbW9sb19YTW9kMkZpbHRlckRlcHRoADAuNQBGWExheWVyMS9GWDEvTXVsdGlGWC9UcmVtb2xvX1hNb2QyUGFubmVyRGVwdGgAMC41AEZYTGF5ZXIxL0ZYMS9NdWx0aUZYSW5zdHIvQ3VycmVudFNlbGVjdGlvbgBSZXNvMTIARlhMYXllcjEvRlgxL011bHRpRlhJbnN0ci9FbmFibGUAMQBGWExheWVyMS9GWDEvTXVsdGlGWFByZS9DaG9ydXNfQWx0ZXJuYXRlADAARlhMYXllcjEvRlgxL011bHRpRlhQcmUvQ2hvcnVzX0RlcHRoADAuNQBGWExheWVyMS9GWDEvTXVsdGlGWFByZS9DaG9ydXNfRW5hYmxlADEARlhMYXllcjEvRlgxL011bHRpRlhQcmUvQ2hvcnVzX0ZpbHRlckhpADEARlhMYXllcjEvRlgxL011bHRpRlhQcmUvQ2hvcnVzX0ZpbHRlckxvADAARlhMYXllcjEvRlgxL011bHRpRlhQcmUvQ2hvcnVzX01peAAwLjUARlhMYXllcjEvRlgxL011bHRpRlhQcmUvQ2hvcnVzX1JhdGUAMC41AEZYTGF5ZXIxL0ZYMS9NdWx0aUZYUHJlL0Nob3J1c19TdGVyZW9XaWR0aAAwLjUARlhMYXllcjEvRlgxL011bHRpRlhQcmUvQ2hvcnVzX1ZvaWNlcwA1AEZYTGF5ZXIxL0ZYMS9NdWx0aUZYUHJlL0Nob3J1c19YTW9kMk1peAAwLjUARlhMYXllcjEvRlgxL011bHRpRlhQcmUvQ29tcERpc3RfQ29tcF9BdHRhY2sAMC4yMDAwMDAwMDMARlhMYXllcjEvRlgxL011bHRpRlhQcmUvQ29tcERpc3RfQ29tcF9FbmFibGUAMABGWExheWVyMS9GWDEvTXVsdGlGWFByZS9Db21wRGlzdF9Db21wX1JhdGlvADAuNQBGWExheWVyMS9GWDEvTXVsdGlGWFByZS9Db21wRGlzdF9Db21wX1JlbGVhc2UAMC4yMDAwMDAwMDMARlhMYXllcjEvRlgxL011bHRpRlhQcmUvQ29tcERpc3RfQ29tcF9UaHJlc2hvbGQAMC41AEZYTGF5ZXIxL0ZYMS9NdWx0aUZYUHJlL0NvbXBEaXN0X0Rpc3RfQW1vdW50ADAuNQBGWExheWVyMS9GWDEvTXVsdGlGWFByZS9Db21wRGlzdF9EaXN0X0VuYWJsZQAwAEZYTGF5ZXIxL0ZYMS9NdWx0aUZYUHJlL0NvbXBEaXN0X0Rpc3RfRnJlcUhpADEARlhMYXllcjEvRlgxL011bHRpRlhQcmUvQ29tcERpc3RfRGlzdF9GcmVxTG8AMABGWExheWVyMS9GWDEvTXVsdGlGWFByZS9Db21wRGlzdF9EaXN0X01peAAwLjUARlhMYXllcjEvRlgxL011bHRpRlhQcmUvQ29tcERpc3RfRGlzdF9UeXBlADUARlhMYXllcjEvRlgxL011bHRpRlhQcmUvQ3VycmVudFNlbGVjdGlvbgBUcmVtb2xvAEZYTGF5ZXIxL0ZYMS9NdWx0aUZYUHJlL0VuYWJsZQAwAEZYTGF5ZXIxL0ZYMS9NdWx0aUZYUHJlL1BoYXNlcl9FbmFibGUAMQBGWExheWVyMS9GWDEvTXVsdGlGWFByZS9QaGFzZXJfRmVlZGJhY2sAMC41AEZYTGF5ZXIxL0ZYMS9NdWx0aUZYUHJlL1BoYXNlcl9MZXZlbAAwLjUARlhMYXllcjEvRlgxL011bHRpRlhQcmUvUGhhc2VyX01vZERlcHRoADAuNQBGWExheWVyMS9GWDEvTXVsdGlGWFByZS9QaGFzZXJfTW9kUmF0ZQAwLjUARlhMYXllcjEvRlgxL011bHRpRlhQcmUvUGhhc2VyX01vZFNoYXBlADAARlhMYXllcjEvRlgxL011bHRpRlhQcmUvUGhhc2VyX01vZFNoYXBlSW52ZXJ0ADAARlhMYXllcjEvRlgxL011bHRpRlhQcmUvUGhhc2VyX01vZFN0ZXJlbwAxAEZYTGF5ZXIxL0ZYMS9NdWx0aUZYUHJlL1BoYXNlcl9QaGFzZQAwLjUARlhMYXllcjEvRlgxL011bHRpRlhQcmUvUGhhc2VyX1N0YWdlcwAxMgBGWExheWVyMS9GWDEvTXVsdGlGWFByZS9QaGFzZXJfVGVtcG9TeW5jADAARlhMYXllcjEvRlgxL011bHRpRlhQcmUvUGhhc2VyX1hNb2QyRmVlZGJhY2sAMC41AEZYTGF5ZXIxL0ZYMS9NdWx0aUZYUHJlL1BoYXNlcl9YTW9kMkxldmVsADAuNQBGWExheWVyMS9GWDEvTXVsdGlGWFByZS9UcmVtb2xvX0RlcHRoADAuNQBGWExheWVyMS9GWDEvTXVsdGlGWFByZS9UcmVtb2xvX0VuYWJsZQAxAEZYTGF5ZXIxL0ZYMS9NdWx0aUZYUHJlL1RyZW1vbG9fRmlsdGVyQ3V0b2ZmADAuNQBGWExheWVyMS9GWDEvTXVsdGlGWFByZS9UcmVtb2xvX0ZpbHRlckRlcHRoADAuNQBGWExheWVyMS9GWDEvTXVsdGlGWFByZS9UcmVtb2xvX0ZpbHRlckVuYWJsZQAwAEZYTGF5ZXIxL0ZYMS9NdWx0aUZYUHJlL1RyZW1vbG9fUGFubmVyRGVwdGgAMC41AEZYTGF5ZXIxL0ZYMS9NdWx0aUZYUHJlL1RyZW1vbG9fUmF0ZQAwLjQwMDAwMDAwNgBGWExheWVyMS9GWDEvTXVsdGlGWFByZS9UcmVtb2xvX1NoYXBlADAARlhMYXllcjEvRlgxL011bHRpRlhQcmUvVHJlbW9sb19TaGFwZUludmVydAAwAEZYTGF5ZXIxL0ZYMS9NdWx0aUZYUHJlL1RyZW1vbG9fVGVtcG9TeW5jADAARlhMYXllcjEvRlgxL011bHRpRlhQcmUvVHJlbW9sb19YTW9kMkRlcHRoADAuNQBGWExheWVyMS9GWDEvTXVsdGlGWFByZS9UcmVtb2xvX1hNb2QyRmlsdGVyQ3V0b2ZmADAuNQBGWExheWVyMS9GWDEvTXVsdGlGWFByZS9UcmVtb2xvX1hNb2QyRmlsdGVyRGVwdGgAMC41AEZYTGF5ZXIxL0ZYMS9NdWx0aUZYUHJlL1RyZW1vbG9fWE1vZDJQYW5uZXJEZXB0aAAwLjUARlhMYXllcjEvRlgxL05vaXNlX0RlY2F5VGltZQAwLjUARlhMYXllcjEvRlgxL05vaXNlX0VuYWJsZQAwAEZYTGF5ZXIxL0ZYMS9Ob2lzZV9HYXRlTGV2ZWwAMC40NDk5OTk5ODgARlhMYXllcjEvRlgxL05vaXNlX01pZGlUcmlnZ2VyADEARlhMYXllcjEvRlgxL05vaXNlX05vaXNlTGV2ZWwAMC41AEZYTGF5ZXIxL0ZYMS9Ob2lzZV9Ob2lzZVR5cGUAMABGWExheWVyMS9GWDEvUGFuX1BhbgAwLjUARlhMYXllcjEvRlgxL1Bhbl9XaWR0aAAwAEZYTGF5ZXIxL0ZYMS9TZW5kMUtub2IAMABGWExheWVyMS9GWDEvU2VuZDJLbm9iADAuNTA2MDkyNDI5AEZYTGF5ZXIxL0ZYMS9Tb3VyY2VDaGFubmVsADEARlhMYXllcjEvRlgyL0VRX0luc19FUV9DdXRIaUZyZXEAMQBGWExheWVyMS9GWDIvRVFfSW5zX0VRX0N1dEhpUQAwLjUARlhMYXllcjEvRlgyL0VRX0luc19FUV9DdXRMb0ZyZXEAMABGWExheWVyMS9GWDIvRVFfSW5zX0VRX0N1dExvUQAwLjUARlhMYXllcjEvRlgyL0VRX0luc19FUV9FbmFibGUAMABGWExheWVyMS9GWDIvRVFfSW5zX0VRX0hpRnJlcQAwLjgwMTIwNDgwMQBGWExheWVyMS9GWDIvRVFfSW5zX0VRX0hpR2FpbgAwLjUARlhMYXllcjEvRlgyL0VRX0luc19FUV9IaVEAMC42OTk5OTk5ODgARlhMYXllcjEvRlgyL0VRX0luc19FUV9Mb0ZyZXEAMC4xOTc1OTAzNTEARlhMYXllcjEvRlgyL0VRX0luc19FUV9Mb0dhaW4AMC41AEZYTGF5ZXIxL0ZYMi9FUV9JbnNfRVFfTG9RADAuNjk5OTk5OTg4AEZYTGF5ZXIxL0ZYMi9FUV9JbnNfRVFfTWlkRnJlcQAwLjUwMDQwMTY3NgBGWExheWVyMS9GWDIvRVFfSW5zX0VRX01pZEdhaW4AMC41AEZYTGF5ZXIxL0ZYMi9FUV9JbnNfRVFfTWlkUQAwLjY5OTk5OTk4OABGWExheWVyMS9GWDIvR1VJTXV0ZQAwAEZYTGF5ZXIxL0ZYMi9HVUlTb2xvADAARlhMYXllcjEvRlgyL0xldmVsU2xpZGVyADAuODA2MTIyNDIyAEZYTGF5ZXIxL0ZYMi9NdWx0aUZYL0Nob3J1c19BbHRlcm5hdGUAMABGWExheWVyMS9GWDIvTXVsdGlGWC9DaG9ydXNfRGVwdGgAMC41AEZYTGF5ZXIxL0ZYMi9NdWx0aUZYL0Nob3J1c19FbmFibGUAMQBGWExheWVyMS9GWDIvTXVsdGlGWC9DaG9ydXNfRmlsdGVySGkAMQBGWExheWVyMS9GWDIvTXVsdGlGWC9DaG9ydXNfRmlsdGVyTG8AMABGWExheWVyMS9GWDIvTXVsdGlGWC9DaG9ydXNfTWl4ADAuNQBGWExheWVyMS9GWDIvTXVsdGlGWC9DaG9ydXNfUmF0ZQAwLjUARlhMYXllcjEvRlgyL011bHRpRlgvQ2hvcnVzX1N0ZXJlb1dpZHRoADAuNQBGWExheWVyMS9GWDIvTXVsdGlGWC9DaG9ydXNfVm9pY2VzADUARlhMYXllcjEvRlgyL011bHRpRlgvQ2hvcnVzX1hNb2QyTWl4ADAuNQBGWExheWVyMS9GWDIvTXVsdGlGWC9Db21wRGlzdF9Db21wX0F0dGFjawAwLjIwMDAwMDAwMwBGWExheWVyMS9GWDIvTXVsdGlGWC9Db21wRGlzdF9Db21wX0VuYWJsZQAwAEZYTGF5ZXIxL0ZYMi9NdWx0aUZYL0NvbXBEaXN0X0NvbXBfUmF0aW8AMC41AEZYTGF5ZXIxL0ZYMi9NdWx0aUZYL0NvbXBEaXN0X0NvbXBfUmVsZWFzZQAwLjIwMDAwMDAwMwBGWExheWVyMS9GWDIvTXVsdGlGWC9Db21wRGlzdF9Db21wX1RocmVzaG9sZAAwLjUARlhMYXllcjEvRlgyL011bHRpRlgvQ29tcERpc3RfRGlzdF9BbW91bnQAMC41AEZYTGF5ZXIxL0ZYMi9NdWx0aUZYL0NvbXBEaXN0X0Rpc3RfRW5hYmxlADAARlhMYXllcjEvRlgyL011bHRpRlgvQ29tcERpc3RfRGlzdF9GcmVxSGkAMQBGWExheWVyMS9GWDIvTXVsdGlGWC9Db21wRGlzdF9EaXN0X0ZyZXFMbwAwAEZYTGF5ZXIxL0ZYMi9NdWx0aUZYL0NvbXBEaXN0X0Rpc3RfTWl4ADAuNQBGWExheWVyMS9GWDIvTXVsdGlGWC9Db21wRGlzdF9EaXN0X1R5cGUANQBGWExheWVyMS9GWDIvTXVsdGlGWC9DdXJyZW50U2VsZWN0aW9uAENob3J1cwBGWExheWVyMS9GWDIvTXVsdGlGWC9FbmFibGUAMABGWExheWVyMS9GWDIvTXVsdGlGWC9QaGFzZXJfRW5hYmxlADEARlhMYXllcjEvRlgyL011bHRpRlgvUGhhc2VyX0ZlZWRiYWNrADAuNQBGWExheWVyMS9GWDIvTXVsdGlGWC9QaGFzZXJfTGV2ZWwAMC41AEZYTGF5ZXIxL0ZYMi9NdWx0aUZYL1BoYXNlcl9Nb2REZXB0aAAwLjUARlhMYXllcjEvRlgyL011bHRpRlgvUGhhc2VyX01vZFJhdGUAMC41AEZYTGF5ZXIxL0ZYMi9NdWx0aUZYL1BoYXNlcl9Nb2RTaGFwZQAwAEZYTGF5ZXIxL0ZYMi9NdWx0aUZYL1BoYXNlcl9Nb2RTaGFwZUludmVydAAwAEZYTGF5ZXIxL0ZYMi9NdWx0aUZYL1BoYXNlcl9Nb2RTdGVyZW8AMQBGWExheWVyMS9GWDIvTXVsdGlGWC9QaGFzZXJfUGhhc2UAMC41AEZYTGF5ZXIxL0ZYMi9NdWx0aUZYL1BoYXNlcl9TdGFnZXMAMTIARlhMYXllcjEvRlgyL011bHRpRlgvUGhhc2VyX1RlbXBvU3luYwAwAEZYTGF5ZXIxL0ZYMi9NdWx0aUZYL1BoYXNlcl9YTW9kMkZlZWRiYWNrADAuNQBGWExheWVyMS9GWDIvTXVsdGlGWC9QaGFzZXJfWE1vZDJMZXZlbAAwLjUARlhMYXllcjEvRlgyL011bHRpRlgvVHJlbW9sb19EZXB0aAAwLjUARlhMYXllcjEvRlgyL011bHRpRlgvVHJlbW9sb19FbmFibGUAMQBGWExheWVyMS9GWDIvTXVsdGlGWC9UcmVtb2xvX0ZpbHRlckN1dG9mZgAwLjUARlhMYXllcjEvRlgyL011bHRpRlgvVHJlbW9sb19GaWx0ZXJEZXB0aAAwLjUARlhMYXllcjEvRlgyL011bHRpRlgvVHJlbW9sb19GaWx0ZXJFbmFibGUAMABGWExheWVyMS9GWDIvTXVsdGlGWC9UcmVtb2xvX1Bhbm5lckRlcHRoADAuNQBGWExheWVyMS9GWDIvTXVsdGlGWC9UcmVtb2xvX1JhdGUAMC40MDAwMDAwMDYARlhMYXllcjEvRlgyL011bHRpRlgvVHJlbW9sb19TaGFwZQAwAEZYTGF5ZXIxL0ZYMi9NdWx0aUZYL1RyZW1vbG9fU2hhcGVJbnZlcnQAMABGWExheWVyMS9GWDIvTXVsdGlGWC9UcmVtb2xvX1RlbXBvU3luYwAwAEZYTGF5ZXIxL0ZYMi9NdWx0aUZYL1RyZW1vbG9fWE1vZDJEZXB0aAAwLjUARlhMYXllcjEvRlgyL011bHRpRlgvVHJlbW9sb19YTW9kMkZpbHRlckN1dG9mZgAwLjUARlhMYXllcjEvRlgyL011bHRpRlgvVHJlbW9sb19YTW9kMkZpbHRlckRlcHRoADAuNQBGWExheWVyMS9GWDIvTXVsdGlGWC9UcmVtb2xvX1hNb2QyUGFubmVyRGVwdGgAMC41AEZYTGF5ZXIxL0ZYMi9NdWx0aUZYSW5zdHIvQ3VycmVudFNlbGVjdGlvbgBSZXNvMTIARlhMYXllcjEvRlgyL011bHRpRlhJbnN0ci9FbmFibGUAMQBGWExheWVyMS9GWDIvTXVsdGlGWFByZS9DaG9ydXNfQWx0ZXJuYXRlADAARlhMYXllcjEvRlgyL011bHRpRlhQcmUvQ2hvcnVzX0RlcHRoADAuNQBGWExheWVyMS9GWDIvTXVsdGlGWFByZS9DaG9ydXNfRW5hYmxlADEARlhMYXllcjEvRlgyL011bHRpRlhQcmUvQ2hvcnVzX0ZpbHRlckhpADEARlhMYXllcjEvRlgyL011bHRpRlhQcmUvQ2hvcnVzX0ZpbHRlckxvADAARlhMYXllcjEvRlgyL011bHRpRlhQcmUvQ2hvcnVzX01peAAwLjUARlhMYXllcjEvRlgyL011bHRpRlhQcmUvQ2hvcnVzX1JhdGUAMC41AEZYTGF5ZXIxL0ZYMi9NdWx0aUZYUHJlL0Nob3J1c19TdGVyZW9XaWR0aAAwLjUARlhMYXllcjEvRlgyL011bHRpRlhQcmUvQ2hvcnVzX1ZvaWNlcwA1AEZYTGF5ZXIxL0ZYMi9NdWx0aUZYUHJlL0Nob3J1c19YTW9kMk1peAAwLjUARlhMYXllcjEvRlgyL011bHRpRlhQcmUvQ29tcERpc3RfQ29tcF9BdHRhY2sAMC4yMDAwMDAwMDMARlhMYXllcjEvRlgyL011bHRpRlhQcmUvQ29tcERpc3RfQ29tcF9FbmFibGUAMABGWExheWVyMS9GWDIvTXVsdGlGWFByZS9Db21wRGlzdF9Db21wX1JhdGlvADAuNQBGWExheWVyMS9GWDIvTXVsdGlGWFByZS9Db21wRGlzdF9Db21wX1JlbGVhc2UAMC4yMDAwMDAwMDMARlhMYXllcjEvRlgyL011bHRpRlhQcmUvQ29tcERpc3RfQ29tcF9UaHJlc2hvbGQAMC41AEZYTGF5ZXIxL0ZYMi9NdWx0aUZYUHJlL0NvbXBEaXN0X0Rpc3RfQW1vdW50ADAuNQBGWExheWVyMS9GWDIvTXVsdGlGWFByZS9Db21wRGlzdF9EaXN0X0VuYWJsZQAwAEZYTGF5ZXIxL0ZYMi9NdWx0aUZYUHJlL0NvbXBEaXN0X0Rpc3RfRnJlcUhpADEARlhMYXllcjEvRlgyL011bHRpRlhQcmUvQ29tcERpc3RfRGlzdF9GcmVxTG8AMABGWExheWVyMS9GWDIvTXVsdGlGWFByZS9Db21wRGlzdF9EaXN0X01peAAwLjUARlhMYXllcjEvRlgyL011bHRpRlhQcmUvQ29tcERpc3RfRGlzdF9UeXBlADUARlhMYXllcjEvRlgyL011bHRpRlhQcmUvQ3VycmVudFNlbGVjdGlvbgBUcmVtb2xvAEZYTGF5ZXIxL0ZYMi9NdWx0aUZYUHJlL0VuYWJsZQAwAEZYTGF5ZXIxL0ZYMi9NdWx0aUZYUHJlL1BoYXNlcl9FbmFibGUAMQBGWExheWVyMS9GWDIvTXVsdGlGWFByZS9QaGFzZXJfRmVlZGJhY2sAMC41AEZYTGF5ZXIxL0ZYMi9NdWx0aUZYUHJlL1BoYXNlcl9MZXZlbAAwLjUARlhMYXllcjEvRlgyL011bHRpRlhQcmUvUGhhc2VyX01vZERlcHRoADAuNQBGWExheWVyMS9GWDIvTXVsdGlGWFByZS9QaGFzZXJfTW9kUmF0ZQAwLjUARlhMYXllcjEvRlgyL011bHRpRlhQcmUvUGhhc2VyX01vZFNoYXBlADAARlhMYXllcjEvRlgyL011bHRpRlhQcmUvUGhhc2VyX01vZFNoYXBlSW52ZXJ0ADAARlhMYXllcjEvRlgyL011bHRpRlhQcmUvUGhhc2VyX01vZFN0ZXJlbwAxAEZYTGF5ZXIxL0ZYMi9NdWx0aUZYUHJlL1BoYXNlcl9QaGFzZQAwLjUARlhMYXllcjEvRlgyL011bHRpRlhQcmUvUGhhc2VyX1N0YWdlcwAxMgBGWExheWVyMS9GWDIvTXVsdGlGWFByZS9QaGFzZXJfVGVtcG9TeW5jADAARlhMYXllcjEvRlgyL011bHRpRlhQcmUvUGhhc2VyX1hNb2QyRmVlZGJhY2sAMC41AEZYTGF5ZXIxL0ZYMi9NdWx0aUZYUHJlL1BoYXNlcl9YTW9kMkxldmVsADAuNQBGWExheWVyMS9GWDIvTXVsdGlGWFByZS9UcmVtb2xvX0RlcHRoADAuNQBGWExheWVyMS9GWDIvTXVsdGlGWFByZS9UcmVtb2xvX0VuYWJsZQAxAEZYTGF5ZXIxL0ZYMi9NdWx0aUZYUHJlL1RyZW1vbG9fRmlsdGVyQ3V0b2ZmADAuNQBGWExheWVyMS9GWDIvTXVsdGlGWFByZS9UcmVtb2xvX0ZpbHRlckRlcHRoADAuNQBGWExheWVyMS9GWDIvTXVsdGlGWFByZS9UcmVtb2xvX0ZpbHRlckVuYWJsZQAwAEZYTGF5ZXIxL0ZYMi9NdWx0aUZYUHJlL1RyZW1vbG9fUGFubmVyRGVwdGgAMC41AEZYTGF5ZXIxL0ZYMi9NdWx0aUZYUHJlL1RyZW1vbG9fUmF0ZQAwLjQwMDAwMDAwNgBGWExheWVyMS9GWDIvTXVsdGlGWFByZS9UcmVtb2xvX1NoYXBlADAARlhMYXllcjEvRlgyL011bHRpRlhQcmUvVHJlbW9sb19TaGFwZUludmVydAAwAEZYTGF5ZXIxL0ZYMi9NdWx0aUZYUHJlL1RyZW1vbG9fVGVtcG9TeW5jADAARlhMYXllcjEvRlgyL011bHRpRlhQcmUvVHJlbW9sb19YTW9kMkRlcHRoADAuNQBGWExheWVyMS9GWDIvTXVsdGlGWFByZS9UcmVtb2xvX1hNb2QyRmlsdGVyQ3V0b2ZmADAuNQBGWExheWVyMS9GWDIvTXVsdGlGWFByZS9UcmVtb2xvX1hNb2QyRmlsdGVyRGVwdGgAMC41AEZYTGF5ZXIxL0ZYMi9NdWx0aUZYUHJlL1RyZW1vbG9fWE1vZDJQYW5uZXJEZXB0aAAwLjUARlhMYXllcjEvRlgyL05vaXNlX0RlY2F5VGltZQAwLjUARlhMYXllcjEvRlgyL05vaXNlX0VuYWJsZQAwAEZYTGF5ZXIxL0ZYMi9Ob2lzZV9HYXRlTGV2ZWwAMC40NDk5OTk5ODgARlhMYXllcjEvRlgyL05vaXNlX01pZGlUcmlnZ2VyADEARlhMYXllcjEvRlgyL05vaXNlX05vaXNlTGV2ZWwAMC41AEZYTGF5ZXIxL0ZYMi9Ob2lzZV9Ob2lzZVR5cGUAMABGWExheWVyMS9GWDIvUGFuX1BhbgAwLjUARlhMYXllcjEvRlgyL1Bhbl9XaWR0aAAwAEZYTGF5ZXIxL0ZYMi9TZW5kMUtub2IAMABGWExheWVyMS9GWDIvU2VuZDJLbm9iADAuNDk5Nzg5OTIzAEZYTGF5ZXIxL0ZYMi9Tb3VyY2VDaGFubmVsADIARlhMYXllcjEvRlgzL0VRX0luc19FUV9DdXRIaUZyZXEAMQBGWExheWVyMS9GWDMvRVFfSW5zX0VRX0N1dEhpUQAwLjUARlhMYXllcjEvRlgzL0VRX0luc19FUV9DdXRMb0ZyZXEAMABGWExheWVyMS9GWDMvRVFfSW5zX0VRX0N1dExvUQAwLjUARlhMYXllcjEvRlgzL0VRX0luc19FUV9FbmFibGUAMABGWExheWVyMS9GWDMvRVFfSW5zX0VRX0hpRnJlcQAwLjg4ODYxNzM5NgBGWExheWVyMS9GWDMvRVFfSW5zX0VRX0hpR2FpbgAwLjUARlhMYXllcjEvRlgzL0VRX0luc19FUV9IaVEAMC4wODk5OTk5ODg3AEZYTGF5ZXIxL0ZYMy9FUV9JbnNfRVFfTG9GcmVxADAuMTk3NTkwMzUxAEZYTGF5ZXIxL0ZYMy9FUV9JbnNfRVFfTG9HYWluADAuNQBGWExheWVyMS9GWDMvRVFfSW5zX0VRX0xvUQAwLjY5OTk5OTk4OABGWExheWVyMS9GWDMvRVFfSW5zX0VRX01pZEZyZXEAMC41MDA0MDE2NzYARlhMYXllcjEvRlgzL0VRX0luc19FUV9NaWRHYWluADAuNQBGWExheWVyMS9GWDMvRVFfSW5zX0VRX01pZFEAMC42OTk5OTk5ODgARlhMYXllcjEvRlgzL0dVSU11dGUAMABGWExheWVyMS9GWDMvR1VJU29sbwAwAEZYTGF5ZXIxL0ZYMy9MZXZlbFNsaWRlcgAwLjc1Nzk4MjMxNABGWExheWVyMS9GWDMvTXVsdGlGWC9DaG9ydXNfQWx0ZXJuYXRlADAARlhMYXllcjEvRlgzL011bHRpRlgvQ2hvcnVzX0RlcHRoADAuNQBGWExheWVyMS9GWDMvTXVsdGlGWC9DaG9ydXNfRW5hYmxlADEARlhMYXllcjEvRlgzL011bHRpRlgvQ2hvcnVzX0ZpbHRlckhpADEARlhMYXllcjEvRlgzL011bHRpRlgvQ2hvcnVzX0ZpbHRlckxvADAARlhMYXllcjEvRlgzL011bHRpRlgvQ2hvcnVzX01peAAwLjUARlhMYXllcjEvRlgzL011bHRpRlgvQ2hvcnVzX1JhdGUAMC41AEZYTGF5ZXIxL0ZYMy9NdWx0aUZYL0Nob3J1c19TdGVyZW9XaWR0aAAwLjUARlhMYXllcjEvRlgzL011bHRpRlgvQ2hvcnVzX1ZvaWNlcwA1AEZYTGF5ZXIxL0ZYMy9NdWx0aUZYL0Nob3J1c19YTW9kMk1peAAwLjUARlhMYXllcjEvRlgzL011bHRpRlgvQ29tcERpc3RfQ29tcF9BdHRhY2sAMC4yMDAwMDAwMDMARlhMYXllcjEvRlgzL011bHRpRlgvQ29tcERpc3RfQ29tcF9FbmFibGUAMABGWExheWVyMS9GWDMvTXVsdGlGWC9Db21wRGlzdF9Db21wX1JhdGlvADAuNQBGWExheWVyMS9GWDMvTXVsdGlGWC9Db21wRGlzdF9Db21wX1JlbGVhc2UAMC4yMDAwMDAwMDMARlhMYXllcjEvRlgzL011bHRpRlgvQ29tcERpc3RfQ29tcF9UaHJlc2hvbGQAMC41AEZYTGF5ZXIxL0ZYMy9NdWx0aUZYL0NvbXBEaXN0X0Rpc3RfQW1vdW50ADAuNQBGWExheWVyMS9GWDMvTXVsdGlGWC9Db21wRGlzdF9EaXN0X0VuYWJsZQAwAEZYTGF5ZXIxL0ZYMy9NdWx0aUZYL0NvbXBEaXN0X0Rpc3RfRnJlcUhpADEARlhMYXllcjEvRlgzL011bHRpRlgvQ29tcERpc3RfRGlzdF9GcmVxTG8AMABGWExheWVyMS9GWDMvTXVsdGlGWC9Db21wRGlzdF9EaXN0X01peAAwLjUARlhMYXllcjEvRlgzL011bHRpRlgvQ29tcERpc3RfRGlzdF9UeXBlADUARlhMYXllcjEvRlgzL011bHRpRlgvQ3VycmVudFNlbGVjdGlvbgBDaG9ydXMARlhMYXllcjEvRlgzL011bHRpRlgvRW5hYmxlADAARlhMYXllcjEvRlgzL011bHRpRlgvUGhhc2VyX0VuYWJsZQAxAEZYTGF5ZXIxL0ZYMy9NdWx0aUZYL1BoYXNlcl9GZWVkYmFjawAwLjUARlhMYXllcjEvRlgzL011bHRpRlgvUGhhc2VyX0xldmVsADAuNQBGWExheWVyMS9GWDMvTXVsdGlGWC9QaGFzZXJfTW9kRGVwdGgAMC41AEZYTGF5ZXIxL0ZYMy9NdWx0aUZYL1BoYXNlcl9Nb2RSYXRlADAuNQBGWExheWVyMS9GWDMvTXVsdGlGWC9QaGFzZXJfTW9kU2hhcGUAMABGWExheWVyMS9GWDMvTXVsdGlGWC9QaGFzZXJfTW9kU2hhcGVJbnZlcnQAMABGWExheWVyMS9GWDMvTXVsdGlGWC9QaGFzZXJfTW9kU3RlcmVvADEARlhMYXllcjEvRlgzL011bHRpRlgvUGhhc2VyX1BoYXNlADAuNQBGWExheWVyMS9GWDMvTXVsdGlGWC9QaGFzZXJfU3RhZ2VzADEyAEZYTGF5ZXIxL0ZYMy9NdWx0aUZYL1BoYXNlcl9UZW1wb1N5bmMAMABGWExheWVyMS9GWDMvTXVsdGlGWC9QaGFzZXJfWE1vZDJGZWVkYmFjawAwLjUARlhMYXllcjEvRlgzL011bHRpRlgvUGhhc2VyX1hNb2QyTGV2ZWwAMC41AEZYTGF5ZXIxL0ZYMy9NdWx0aUZYL1RyZW1vbG9fRGVwdGgAMC41AEZYTGF5ZXIxL0ZYMy9NdWx0aUZYL1RyZW1vbG9fRW5hYmxlADEARlhMYXllcjEvRlgzL011bHRpRlgvVHJlbW9sb19GaWx0ZXJDdXRvZmYAMC41AEZYTGF5ZXIxL0ZYMy9NdWx0aUZYL1RyZW1vbG9fRmlsdGVyRGVwdGgAMC41AEZYTGF5ZXIxL0ZYMy9NdWx0aUZYL1RyZW1vbG9fRmlsdGVyRW5hYmxlADAARlhMYXllcjEvRlgzL011bHRpRlgvVHJlbW9sb19QYW5uZXJEZXB0aAAwLjUARlhMYXllcjEvRlgzL011bHRpRlgvVHJlbW9sb19SYXRlADAuNDAwMDAwMDA2AEZYTGF5ZXIxL0ZYMy9NdWx0aUZYL1RyZW1vbG9fU2hhcGUAMABGWExheWVyMS9GWDMvTXVsdGlGWC9UcmVtb2xvX1NoYXBlSW52ZXJ0ADAARlhMYXllcjEvRlgzL011bHRpRlgvVHJlbW9sb19UZW1wb1N5bmMAMABGWExheWVyMS9GWDMvTXVsdGlGWC9UcmVtb2xvX1hNb2QyRGVwdGgAMC41AEZYTGF5ZXIxL0ZYMy9NdWx0aUZYL1RyZW1vbG9fWE1vZDJGaWx0ZXJDdXRvZmYAMC41AEZYTGF5ZXIxL0ZYMy9NdWx0aUZYL1RyZW1vbG9fWE1vZDJGaWx0ZXJEZXB0aAAwLjUARlhMYXllcjEvRlgzL011bHRpRlgvVHJlbW9sb19YTW9kMlBhbm5lckRlcHRoADAuNQBGWExheWVyMS9GWDMvTXVsdGlGWEluc3RyL0N1cnJlbnRTZWxlY3Rpb24AUmVzbzEyAEZYTGF5ZXIxL0ZYMy9NdWx0aUZYSW5zdHIvRW5hYmxlADEARlhMYXllcjEvRlgzL011bHRpRlhQcmUvQ2hvcnVzX0FsdGVybmF0ZQAwAEZYTGF5ZXIxL0ZYMy9NdWx0aUZYUHJlL0Nob3J1c19EZXB0aAAwLjUARlhMYXllcjEvRlgzL011bHRpRlhQcmUvQ2hvcnVzX0VuYWJsZQAxAEZYTGF5ZXIxL0ZYMy9NdWx0aUZYUHJlL0Nob3J1c19GaWx0ZXJIaQAxAEZYTGF5ZXIxL0ZYMy9NdWx0aUZYUHJlL0Nob3J1c19GaWx0ZXJMbwAwAEZYTGF5ZXIxL0ZYMy9NdWx0aUZYUHJlL0Nob3J1c19NaXgAMC41AEZYTGF5ZXIxL0ZYMy9NdWx0aUZYUHJlL0Nob3J1c19SYXRlADAuNQBGWExheWVyMS9GWDMvTXVsdGlGWFByZS9DaG9ydXNfU3RlcmVvV2lkdGgAMC41AEZYTGF5ZXIxL0ZYMy9NdWx0aUZYUHJlL0Nob3J1c19Wb2ljZXMANQBGWExheWVyMS9GWDMvTXVsdGlGWFByZS9DaG9ydXNfWE1vZDJNaXgAMC41AEZYTGF5ZXIxL0ZYMy9NdWx0aUZYUHJlL0NvbXBEaXN0X0NvbXBfQXR0YWNrADAuMjAwMDAwMDAzAEZYTGF5ZXIxL0ZYMy9NdWx0aUZYUHJlL0NvbXBEaXN0X0NvbXBfRW5hYmxlADAARlhMYXllcjEvRlgzL011bHRpRlhQcmUvQ29tcERpc3RfQ29tcF9SYXRpbwAwLjUARlhMYXllcjEvRlgzL011bHRpRlhQcmUvQ29tcERpc3RfQ29tcF9SZWxlYXNlADAuMjAwMDAwMDAzAEZYTGF5ZXIxL0ZYMy9NdWx0aUZYUHJlL0NvbXBEaXN0X0NvbXBfVGhyZXNob2xkADAuNQBGWExheWVyMS9GWDMvTXVsdGlGWFByZS9Db21wRGlzdF9EaXN0X0Ftb3VudAAwLjUARlhMYXllcjEvRlgzL011bHRpRlhQcmUvQ29tcERpc3RfRGlzdF9FbmFibGUAMABGWExheWVyMS9GWDMvTXVsdGlGWFByZS9Db21wRGlzdF9EaXN0X0ZyZXFIaQAxAEZYTGF5ZXIxL0ZYMy9NdWx0aUZYUHJlL0NvbXBEaXN0X0Rpc3RfRnJlcUxvADAARlhMYXllcjEvRlgzL011bHRpRlhQcmUvQ29tcERpc3RfRGlzdF9NaXgAMC41AEZYTGF5ZXIxL0ZYMy9NdWx0aUZYUHJlL0NvbXBEaXN0X0Rpc3RfVHlwZQA1AEZYTGF5ZXIxL0ZYMy9NdWx0aUZYUHJlL0N1cnJlbnRTZWxlY3Rpb24AVHJlbW9sbwBGWExheWVyMS9GWDMvTXVsdGlGWFByZS9FbmFibGUAMABGWExheWVyMS9GWDMvTXVsdGlGWFByZS9QaGFzZXJfRW5hYmxlADEARlhMYXllcjEvRlgzL011bHRpRlhQcmUvUGhhc2VyX0ZlZWRiYWNrADAuNQBGWExheWVyMS9GWDMvTXVsdGlGWFByZS9QaGFzZXJfTGV2ZWwAMC41AEZYTGF5ZXIxL0ZYMy9NdWx0aUZYUHJlL1BoYXNlcl9Nb2REZXB0aAAwLjUARlhMYXllcjEvRlgzL011bHRpRlhQcmUvUGhhc2VyX01vZFJhdGUAMC41AEZYTGF5ZXIxL0ZYMy9NdWx0aUZYUHJlL1BoYXNlcl9Nb2RTaGFwZQAwAEZYTGF5ZXIxL0ZYMy9NdWx0aUZYUHJlL1BoYXNlcl9Nb2RTaGFwZUludmVydAAwAEZYTGF5ZXIxL0ZYMy9NdWx0aUZYUHJlL1BoYXNlcl9Nb2RTdGVyZW8AMQBGWExheWVyMS9GWDMvTXVsdGlGWFByZS9QaGFzZXJfUGhhc2UAMC41AEZYTGF5ZXIxL0ZYMy9NdWx0aUZYUHJlL1BoYXNlcl9TdGFnZXMAMTIARlhMYXllcjEvRlgzL011bHRpRlhQcmUvUGhhc2VyX1RlbXBvU3luYwAwAEZYTGF5ZXIxL0ZYMy9NdWx0aUZYUHJlL1BoYXNlcl9YTW9kMkZlZWRiYWNrADAuNQBGWExheWVyMS9GWDMvTXVsdGlGWFByZS9QaGFzZXJfWE1vZDJMZXZlbAAwLjUARlhMYXllcjEvRlgzL011bHRpRlhQcmUvVHJlbW9sb19EZXB0aAAwLjUARlhMYXllcjEvRlgzL011bHRpRlhQcmUvVHJlbW9sb19FbmFibGUAMQBGWExheWVyMS9GWDMvTXVsdGlGWFByZS9UcmVtb2xvX0ZpbHRlckN1dG9mZgAwLjUARlhMYXllcjEvRlgzL011bHRpRlhQcmUvVHJlbW9sb19GaWx0ZXJEZXB0aAAwLjUARlhMYXllcjEvRlgzL011bHRpRlhQcmUvVHJlbW9sb19GaWx0ZXJFbmFibGUAMABGWExheWVyMS9GWDMvTXVsdGlGWFByZS9UcmVtb2xvX1Bhbm5lckRlcHRoADAuNQBGWExheWVyMS9GWDMvTXVsdGlGWFByZS9UcmVtb2xvX1JhdGUAMC40MDAwMDAwMDYARlhMYXllcjEvRlgzL011bHRpRlhQcmUvVHJlbW9sb19TaGFwZQAwAEZYTGF5ZXIxL0ZYMy9NdWx0aUZYUHJlL1RyZW1vbG9fU2hhcGVJbnZlcnQAMABGWExheWVyMS9GWDMvTXVsdGlGWFByZS9UcmVtb2xvX1RlbXBvU3luYwAwAEZYTGF5ZXIxL0ZYMy9NdWx0aUZYUHJlL1RyZW1vbG9fWE1vZDJEZXB0aAAwLjUARlhMYXllcjEvRlgzL011bHRpRlhQcmUvVHJlbW9sb19YTW9kMkZpbHRlckN1dG9mZgAwLjUARlhMYXllcjEvRlgzL011bHRpRlhQcmUvVHJlbW9sb19YTW9kMkZpbHRlckRlcHRoADAuNQBGWExheWVyMS9GWDMvTXVsdGlGWFByZS9UcmVtb2xvX1hNb2QyUGFubmVyRGVwdGgAMC41AEZYTGF5ZXIxL0ZYMy9Ob2lzZV9EZWNheVRpbWUAMC41AEZYTGF5ZXIxL0ZYMy9Ob2lzZV9FbmFibGUAMABGWExheWVyMS9GWDMvTm9pc2VfR2F0ZUxldmVsADAuNDQ5OTk5OTg4AEZYTGF5ZXIxL0ZYMy9Ob2lzZV9NaWRpVHJpZ2dlcgAxAEZYTGF5ZXIxL0ZYMy9Ob2lzZV9Ob2lzZUxldmVsADAuNQBGWExheWVyMS9GWDMvTm9pc2VfTm9pc2VUeXBlADAARlhMYXllcjEvRlgzL1Bhbl9QYW4AMC41AEZYTGF5ZXIxL0ZYMy9QYW5fV2lkdGgAMABGWExheWVyMS9GWDMvU2VuZDFLbm9iADAARlhMYXllcjEvRlgzL1NlbmQyS25vYgAwAEZYTGF5ZXIxL0ZYMy9Tb3VyY2VDaGFubmVsAABGWExheWVyMS9TZW5kMS9EZWxheV9FbmFibGUAMQBGWExheWVyMS9TZW5kMS9EZWxheV9GaWx0ZXJfSGkAMQBGWExheWVyMS9TZW5kMS9EZWxheV9GaWx0ZXJfTG8AMABGWExheWVyMS9TZW5kMS9EZWxheV9MZXZlbAAwLjUARlhMYXllcjEvU2VuZDEvRGVsYXlfUGluZ1BvbmcAMC4zMDAwMDAwMTIARlhMYXllcjEvU2VuZDEvRGVsYXlfU3dpbmcAMC41AEZYTGF5ZXIxL1NlbmQxL0RlbGF5X1RlbXBvU3luYwAwAEZYTGF5ZXIxL1NlbmQxL0RlbGF5X1RpbWUAMC41AEZYTGF5ZXIxL1NlbmQxL0ZYRVFfQ3V0SGlGcmVxADEARlhMYXllcjEvU2VuZDEvRlhFUV9DdXRIaVEAMC41AEZYTGF5ZXIxL1NlbmQxL0ZYRVFfQ3V0TG9GcmVxADAARlhMYXllcjEvU2VuZDEvRlhFUV9DdXRMb1EAMC41AEZYTGF5ZXIxL1NlbmQxL0ZYRVFfRW5hYmxlADAARlhMYXllcjEvU2VuZDEvRlhFUV9IaUZyZXEAMC43NQBGWExheWVyMS9TZW5kMS9GWEVRX0hpR2FpbgAwLjUARlhMYXllcjEvU2VuZDEvRlhFUV9IaVEAMC41AEZYTGF5ZXIxL1NlbmQxL0ZYRVFfTG9GcmVxADAuMjUARlhMYXllcjEvU2VuZDEvRlhFUV9Mb0dhaW4AMC41AEZYTGF5ZXIxL1NlbmQxL0ZYRVFfTG9RADAuNQBGWExheWVyMS9TZW5kMS9GWEVRX01pZEZyZXEAMC41AEZYTGF5ZXIxL1NlbmQxL0ZYRVFfTWlkR2FpbgAwLjUARlhMYXllcjEvU2VuZDEvRlhFUV9NaWRRADAuNjg5OTk5OTk4AEZYTGF5ZXIxL1NlbmQxL0dVSU11dGUAMABGWExheWVyMS9TZW5kMS9HVUlTb2xvADAARlhMYXllcjEvU2VuZDEvTGV2ZWxTbGlkZXIAMC43NTc5ODIzMTQARlhMYXllcjEvU2VuZDEvTWFrcm9NaXhEZWxheVJldmVyYgAwAEZYTGF5ZXIxL1NlbmQxL1Bhbl9QYW4AMC41AEZYTGF5ZXIxL1NlbmQxL1Bhbl9XaWR0aAAwAEZYTGF5ZXIxL1NlbmQxL1JldmVyYl9EYW1wADAuNQBGWExheWVyMS9TZW5kMS9SZXZlcmJfRGVjYXkAMC41AEZYTGF5ZXIxL1NlbmQxL1JldmVyYl9FbmFibGUAMQBGWExheWVyMS9TZW5kMS9SZXZlcmJfUHJlRGVsYXkAMABGWExheWVyMS9TZW5kMS9SZXZlcmJfVHlwZQAwAEZYTGF5ZXIxL1NlbmQyL0RlbGF5X0VuYWJsZQAxAEZYTGF5ZXIxL1NlbmQyL0RlbGF5X0ZpbHRlcl9IaQAxAEZYTGF5ZXIxL1NlbmQyL0RlbGF5X0ZpbHRlcl9MbwAwAEZYTGF5ZXIxL1NlbmQyL0RlbGF5X0xldmVsADAuNQBGWExheWVyMS9TZW5kMi9EZWxheV9QaW5nUG9uZwAwLjMwMDAwMDAxMgBGWExheWVyMS9TZW5kMi9EZWxheV9Td2luZwAwLjUARlhMYXllcjEvU2VuZDIvRGVsYXlfVGVtcG9TeW5jADAARlhMYXllcjEvU2VuZDIvRGVsYXlfVGltZQAwLjUARlhMYXllcjEvU2VuZDIvRlhFUV9DdXRIaUZyZXEAMQBGWExheWVyMS9TZW5kMi9GWEVRX0N1dEhpUQAwLjUARlhMYXllcjEvU2VuZDIvRlhFUV9DdXRMb0ZyZXEAMABGWExheWVyMS9TZW5kMi9GWEVRX0N1dExvUQAwLjUARlhMYXllcjEvU2VuZDIvRlhFUV9FbmFibGUAMABGWExheWVyMS9TZW5kMi9GWEVRX0hpRnJlcQAwLjc1AEZYTGF5ZXIxL1NlbmQyL0ZYRVFfSGlHYWluADAuNQBGWExheWVyMS9TZW5kMi9GWEVRX0hpUQAwLjUARlhMYXllcjEvU2VuZDIvRlhFUV9Mb0ZyZXEAMC4yNQBGWExheWVyMS9TZW5kMi9GWEVRX0xvR2FpbgAwLjUARlhMYXllcjEvU2VuZDIvRlhFUV9Mb1EAMC41AEZYTGF5ZXIxL1NlbmQyL0ZYRVFfTWlkRnJlcQAwLjUARlhMYXllcjEvU2VuZDIvRlhFUV9NaWRHYWluADAuNQBGWExheWVyMS9TZW5kMi9GWEVRX01pZFEAMC42OTk5OTk5ODgARlhMYXllcjEvU2VuZDIvR1VJTXV0ZQAwAEZYTGF5ZXIxL1NlbmQyL0dVSVNvbG8AMABGWExheWVyMS9TZW5kMi9MZXZlbFNsaWRlcgAwLjE3NzQxOTM2NABGWExheWVyMS9TZW5kMi9NYWtyb01peERlbGF5UmV2ZXJiADEARlhMYXllcjEvU2VuZDIvUGFuX1BhbgAwLjUARlhMYXllcjEvU2VuZDIvUGFuX1dpZHRoADAARlhMYXllcjEvU2VuZDIvUmV2ZXJiX0RhbXAAMC4zMjExNDk3MDcARlhMYXllcjEvU2VuZDIvUmV2ZXJiX0RlY2F5ADAuNTU4ODg5MjEARlhMYXllcjEvU2VuZDIvUmV2ZXJiX0VuYWJsZQAxAEZYTGF5ZXIxL1NlbmQyL1JldmVyYl9QcmVEZWxheQAwLjA2NTQ3NjE5NABGWExheWVyMS9TZW5kMi9SZXZlcmJfVHlwZQAyAEdsb2JhbFZlbG9jaXR5UmVzcG9uc2UAMC41AEdsb2JhbFZlbG9jaXR5UmVzcG9uc2VNYXgAMQBHbG9iYWxWZWxvY2l0eVJlc3BvbnNlTWluADAASGlnaFZvaWNlQ291bnQAMABJMV9HdWlfQW1wRW52X0F0dGFjawAwAEkxX0d1aV9BbXBFbnZfQXR0YWNrQ3VydmUAMC41AEkxX0d1aV9BbXBFbnZfQXR0YWNrTGV2ZWwAMQBJMV9HdWlfQW1wRW52X0RlY2F5ADAuNQBJMV9HdWlfQW1wRW52X0RlY2F5Q3VydmUAMC4wMzExMjI4AEkxX0d1aV9BbXBFbnZfRGVjYXlMZXZlbAAxAEkxX0d1aV9BbXBFbnZfRW5hYmxlX0d1aQAwAEkxX0d1aV9BbXBFbnZfUmVsZWFzZQAwLjA1MDAwMDAwMDcASTFfR3VpX0FtcEVudl9SZWxlYXNlQ3VydmUAMC4wMzExMjI4AEkxX0d1aV9BbXBFbnZfU3VzdGFpbkN1cnZlADAuNQBJMV9HdWlfQW1wRW52X1N1c3RhaW5Ib2xkADAuNQBJMV9HdWlfQW1wRW52X1N1c3RhaW5MZXZlbAAxAEkxX0d1aV9BbXBFbnZfVmVsMkF0dGFjawAwAEkxX0d1aV9EZXR1bmUAMABJMV9HdWlfRHluYW1pY1JhbmdlADAuNTk3NTI3Mzg1AEkxX0d1aV9GaWx0ZXJFbnZfQW1vdW50ADAuNzcyMzIxNDAzAEkxX0d1aV9GaWx0ZXJFbnZfQXR0YWNrADAASTFfR3VpX0ZpbHRlckVudl9BdHRhY2tDdXJ2ZQAwLjUASTFfR3VpX0ZpbHRlckVudl9BdHRhY2tMZXZlbAAxAEkxX0d1aV9GaWx0ZXJFbnZfRGVjYXkAMQBJMV9HdWlfRmlsdGVyRW52X0RlY2F5Q3VydmUAMC4wNTAwMDAwMDA3AEkxX0d1aV9GaWx0ZXJFbnZfRGVjYXlMZXZlbAAxAEkxX0d1aV9GaWx0ZXJFbnZfRW5hYmxlADEASTFfR3VpX0ZpbHRlckVudl9SZWxlYXNlADEASTFfR3VpX0ZpbHRlckVudl9SZWxlYXNlQ3VydmUAMC4wMjk5OTk5OTkzAEkxX0d1aV9GaWx0ZXJFbnZfUmVsZWFzZUxldmVsADAuMDA5OTAwOTg5OTQASTFfR3VpX0ZpbHRlckVudl9TdGFydExldmVsADEASTFfR3VpX0ZpbHRlckVudl9TdXN0YWluQ3VydmUAMC41AEkxX0d1aV9GaWx0ZXJFbnZfU3VzdGFpbkhvbGQAMQBJMV9HdWlfRmlsdGVyRW52X1N1c3RhaW5MZXZlbAAxAEkxX0d1aV9GaWx0ZXJFbnZfVmVsMkFtb3VudAAxAEkxX0d1aV9GaWx0ZXJFbnZfVmVsMkF0dGFjawAwAEkxX0d1aV9GaWx0ZXJfQ3V0b2ZmADAuNTEzMzkyODY2AEkxX0d1aV9GaWx0ZXJfRHJpdmUAMABJMV9HdWlfRmlsdGVyX0VuYWJsZQAxAEkxX0d1aV9GaWx0ZXJfS2V5MkN1dG9mZgAwLjUASTFfR3VpX0ZpbHRlcl9SZXNvbmFuY2UAMABJMV9HdWlfRmlsdGVyX1R5cGUAMABJMV9HdWlfRmlsdGVyX1hNb2QyQ3V0b2ZmADAuNQBJMV9HdWlfS2V5MlZvbHVtZQAwLjUASTFfR3VpX05vdGVUcmFuc3Bvc2UAMABJMV9HdWlfUGl0Y2hFbnZfQ3VydmUAMC4wMjk5OTk5OTkzAEkxX0d1aV9QaXRjaEVudl9FbmFibGUAMABJMV9HdWlfUGl0Y2hFbnZfSG9sZAAwAEkxX0d1aV9QaXRjaEVudl9PZmZzZXRMZXZlbAAwLjUASTFfR3VpX1BpdGNoRW52X1JlbGVhc2UAMC4xMDAwMDAwMDEASTFfR3VpX1BpdGNoRW52X1ZlbFNlbnMAMABJMV9HdWlfUGl0Y2hfRW5hYmxlAC0xAEkxX0d1aV9SYXRlU2hpZnQAMC41AEkxX0d1aV9Vc2VSZWxlYXNlU2FtcGxlcwAxAEkxX0d1aV9WaWJyYXRvX0RlcHRoADAASTFfR3VpX1ZpYnJhdG9fUmF0ZQAwLjUASTFfR3VpX1ZpYnJhdG9fWE1vZAAwLjUASW5zdHJ1bWVudEdhbGxlcnlBbGxFeHBsb3JlTWFwcwAwAExheWVyMS9Ccm93c2VTZWxlY3Rpb24ARXhwbG9yZQBMYXllcjEvQ3VycmVudFByZXNldElkAGFwcF9fU3R1ZGlvIEdyYW5kIC0gU3R1ZGlvIEdyYW5kLkFLUHJlc2V0AExheWVyMS9JbnN0cnVtZW50VGFiU2VsZWN0aW9uAElkZW50aXR5AExheWVyMS9JbnN0cnVtZW50V2l0aFN0YXRlAHsgaW5zdHJ1bWVudElkID0gIlN0R3JhbmQiLCBzdGF0ZSA9IHsgQm9keVJlc29uYW5jZUxldmVsID0gMC41LCBCb2R5UmVzb25hbmNlTm9pc2VMZXZlbCA9IDAuNSwgRHluUmFuZ2VIaSA9IDAuMTk5OTk2OTQ4MjQyMTksIER5blJhbmdlTG8gPSAwLCBQZWRhbE5vaXNlTGV2ZWwgPSAwLjUsIFNvZnRQZWRhbEVmZmVjdCA9IDAuNX19AExheWVyMS9QcmVzZXRCcm93c2VyQWxsRG9tYWluADEATGF5ZXIxL1ByZXNldEJyb3dzZXJBbGxVc2VyVGFnADEATGF5ZXIxL1ByZXNldEJyb3dzZXJUYWdBbGxJbnN0cnVtZW50ADAATGF5ZXIxL1ByZXNldEJyb3dzZXJUYWdGYWN0b3J5ADAATGF5ZXIxL1ByZXNldEJyb3dzZXJUYWdMaWtlADAATGF5ZXIxL1ByZXNldEJyb3dzZXJUYWdVc2VyADAATGF5ZXIxL1ByZXNldEJyb3dzZXJUYWdXZWIAMABMYXllcjEvUHJlc2V0TWlkaQA0RDU0Njg2NDAwMDAwMDA2MDAwMDAwMDEwMUUwNEQ1NDcyNkIwMDAwMDFGRDAwRkYwMzAwMDBGRjUxMDMwN0ExMjAwMEZGNTgwNDA0MDIxODA4MDA5MDI1NEEwNDMxNjEwMjQ0NTYwNDNGNUExRTQxNTY1MkIwNDAyNjBBNDA0QTAzODAzRjAwMTBCMDQwN0Y4MTJCODAyNTAwNDYzMTAwNzY5MDM4MzU4MTA3ODAzODAwNjE5MDM1MkI4MjA1Mzg1NjgxNUQzRDQ5Mjk4MDQ0MDAxMjQxMDA4MTNFOTA0NDZGM0E4MDM1MDAxQTNEMDAwODM4MDA2RTQ0MDAwRDkwM0QyNjI1ODAzRDAwODE2NzkwNDQ2NTA2QjA0MDRBMDA5MDNENUEwMzM4NDIwMTJFMzcwMzNDNUYwMTM1NTgxOTgwMjU0MDAwMzE0MDAwM0Y0MDAwNDE0MDAxQjA0MDAwODE1RTQwNEEwMzgwM0MwMDE5QjA0MDdGODExRDgwM0QwMDBFOTAzQzM4MjE4MDQ0MDAwQzNDMDA4MTRCOTA0ODZGMUU4MDM4MDA4MTVBOTAzODMyNUE4MDQ4MDA4MTAxOTAzRDJDODEzNjgwM0QwMDM0OTA0ODZGMkQ4MDJFMDAwOTM1MDA0RTM4MDA4MjVDQjA0MDRBMDI5MDM4MUQwRDJBMUQwMTNEMjUwNTMxMjcwMTQ0MkEwRjgwMkU0MDAwMzU0MDAwM0M0MDAwQjA0MDAwODIyMzQwNEExMjgwM0QwMDA2QjA0MDdGODEwMzkwM0QxNjFGODAzMTAwMzgzODAwODEyMzkwMzEyMTI1ODA0ODAwMUY0NDAwMzczRDAwN0I5MDM4NEY4MTYwM0E0NTgxMjU4MDM4MDA1OTkwM0Q2MzFGODAzQTAwMTQzMTAwM0IyQTAwNkM5MDM2Mzg0MjgwMzYwMDgxMUU5MDM4NEYwQTMxNEQwMjJBNDMxMkIwNDA0QTBCOTAzQTRGMTI4MDM2NDAwMDQ0NDAwMDQ4NDAwMUIwNDAwMDNDODAzODAwN0VCMDQwNEExOTQwN0Y4MTRDODAyQTAwMUUzQTAwNDEzMTAwODEyMTkwMzE1MTA2Mzg2MTAzMjk1QjA2QjA0MDRBMjA4MDJBNDAwMDNBNDAwMEIwNDAwMDgxMzM0MDRBMTQ0MDdGN0Q4MDI5MDA4MjY0OTAzNjMwMDlCMDQwNEEwNDkwMjczNDFFODAyOTQwMDBCMDQwMDA4MTI3NDA0QTE2ODAyNzAwMDZCMDQwN0Y2MTgwMzYwMDgxMDJCMDQwNEExMjgwMjc0MDAwMzY0MDAxQjA0MDI2MEE0MDAwMkE5MDM1MkMwRDI1MjE4RjA5ODAzNTAwMUMzMTAwMTAzODAwMTQyNTAwMDAzRDAwMDBGRjJGMDAATGF5ZXIxL1ByZXNldFNhdmVBbGxUeXBlADAATGF5ZXIxL1ByZXNldFNhdmVEZW1vAABMYXllcjEvUHJlc2V0U2F2ZUluZm8AAExheWVyMS9QcmVzZXRTYXZlTmFtZQBTdHVkaW8gR3JhbmQgLSBTdHVkaW8gR3JhbmQATGF5ZXIxL1ByZXNldFNhdmVUYWdBY1BpYW5vADAATGF5ZXIxL1ByZXNldFNhdmVUYWdCYXNzADAATGF5ZXIxL1ByZXNldFNhdmVUYWdFbFBpYW5vADAATGF5ZXIxL1ByZXNldFNhdmVUYWdNYWxsZXRzADAATGF5ZXIxL1ByZXNldFNhdmVUYWdPcmdhbgAwAExheWVyMS9QcmVzZXRTYXZlVGFnUGFkADAATGF5ZXIxL1ByZXNldFNhdmVUYWdTdHJpbmdzADAATGF5ZXIxL1ByZXNldFNhdmVUYWdTeW50aAAwAExheWVyMS9QcmVzZXRTYXZlVGFnVW51c2VkADAATGF5ZXIxL1ZpZXdTZWxlY3Rpb24ARWRpdABQcmVzZXRCcm93c2VyRmlsdGVyVGV4dAAAUHJlc2V0QnJvd3Nlckluc3RydW1lbnRGaWx0ZXIAAFByZXNldEJyb3dzZXJNZW1vc1NvcnRPcmRlcgAyAFByZXNldEJyb3dzZXJTaG93RnJvbVByb2R1Y3RzADEAUHJlc2V0QnJvd3NlclNob3dNeVByZXNldHMAMQBQcmVzZXRCcm93c2VyU29ydE9yZGVyADAAUHJlc2V0TmFtZQAAU2FtcGxlcl9QaXRjaEJlbmRSYW5nZURvd24ALTIAU2FtcGxlcl9QaXRjaEJlbmRSYW5nZVVwADIAU2F2ZWRXaXRoQUtWZXJzaW9uADEuNC4yAFN0YXRlQ29tcGF0aWJsZVByb2R1Y3RzAEFkZGljdGl2ZSBLZXlzLFdpbGQgUGlhbm9zAFN0YXRlSW5zdGFuY2VVVUlEAGQyYjhiNzA0OGZkNTQ0NGJiYzIxMGIwNGU0Njc5N2Q1AFN0YXRlUHJvZHVjdE5hbWUAQWRkaWN0aXZlIEtleXMAU3RhdGVWZXJzaW9uADEAVGVtcG9Nb2QAMC41AFR1bmluZ19NYXN0ZXIAMC41AFR1bmluZ19TY2FsZUtleQBDAFR1bmluZ19TdHJldGNoADAAVHVuaW5nX1RlbXBlcmFtZW50AEFzIHJlY29yZGVkAFVzZUhvc3RUZW1wbwAxAFZlbG9jaXR5UmFuZ2VCeU1pZGlDQ051bWJlcgAxNwBWZWxvY2l0eVJhbmdlQnlNaWRpQ0NOdW1iZXJFbmFibGUAMABWaWV3RW52ZWxvcGVTZWxlY3Rpb24ARmlsdGVyRW52AFZpcnR1YWxNdXNpY2lhbkVuYWJsZQAxAFZpcnR1YWxNdXNpY2lhblN3aW5nTW9kADAuNQBWb2x1bWVCeU1pZGlDQ051bWJlcgA3AFZvbHVtZUJ5TWlkaUNDTnVtYmVyRW5hYmxlADAAWE1vZE1pZGlBZnRlcnRvdWNoRW5hYmxlADAAWE1vZE1pZGlDQ051bWJlcgAxMQBYTW9kTWlkaUNDTnVtYmVyRW5hYmxlADEAWE1vZE1pZGlNb2R1bGF0aW9uRW5hYmxlADEA" program="0" plugin="C:/Program Files/VstPlugins/Addictive Keys.dll" guivisible="0"/>
          </instrument>
          <eldata fres="0.5" fwet="0" ftype="0" fcut="14000">
            <elvol x100="0" amt="0" lpdel="0" lshp="0" lspd_numerator="4" att="0" rel="0.1" userwavefile="" lspd_denominator="4" sustain="0.5" pdel="0" ctlenvamt="0" dec="0.5" latt="0" hold="0.5" lspd="0.1" lamt="0" lspd_syncmode="0"/>
            <elcut x100="0" amt="0" lpdel="0" lshp="0" lspd_numerator="4" att="0" rel="0.1" userwavefile="" lspd_denominator="4" sustain="0.5" pdel="0" ctlenvamt="0" dec="0.5" latt="0" hold="0.5" lspd="0.1" lamt="0" lspd_syncmode="0"/>
            <elres x100="0" amt="0" lpdel="0" lshp="0" lspd_numerator="4" att="0" rel="0.1" userwavefile="" lspd_denominator="4" sustain="0.5" pdel="0" ctlenvamt="0" dec="0.5" latt="0" hold="0.5" lspd="0.1" lamt="0" lspd_syncmode="0"/>
          </eldata>
          <chordcreator chord-enabled="0" chordrange="1" chord="0"/>
          <arpeggiator arptime_syncmode="0" arpmiss="0" arptime_numerator="4" arprange="1" arp-enabled="0" arpdir="0" arpcycle="0" arptime_denominator="4" arpskip="0" arpmode="0" arp="0" arptime="200" arpgate="100"/>
          <midiport basevelocity="63" outputcontroller="0" fixedoutputvelocity="-1" readable="0" outputprogram="1" inputcontroller="0" inputchannel="0" fixedoutputnote="-1" writable="0" fixedinputvelocity="-1" outputchannel="1"/>
          <fxchain enabled="0" numofeffects="0"/>
        </instrumenttrack>
        <pattern type="1" muted="0" steps="16" pos="768" name="Piano 1">
          <note len="192" key="57" pos="0" vol="72" pan="0"/>
          <note len="192" key="49" pos="0" vol="72" pan="0"/>
          <note len="120" key="62" pos="72" vol="65" pan="0"/>
          <note len="48" key="61" pos="144" vol="65" pan="0"/>
          <note len="144" key="59" pos="192" vol="72" pan="0"/>
          <note len="192" key="50" pos="192" vol="72" pan="0"/>
          <note len="120" key="62" pos="264" vol="65" pan="0"/>
          <note len="48" key="59" pos="336" vol="65" pan="0"/>
          <note len="192" key="61" pos="384" vol="72" pan="0"/>
          <note len="192" key="52" pos="384" vol="72" pan="0"/>
          <note len="120" key="59" pos="456" vol="65" pan="0"/>
          <note len="48" key="54" pos="528" vol="65" pan="0"/>
          <note len="192" key="62" pos="576" vol="72" pan="0"/>
          <note len="192" key="54" pos="576" vol="72" pan="0"/>
          <note len="120" key="61" pos="648" vol="65" pan="0"/>
          <note len="48" key="59" pos="720" vol="65" pan="0"/>
          <note len="48" key="47" pos="720" vol="65" pan="0"/>
          <note len="192" key="57" pos="768" vol="72" pan="0"/>
          <note len="192" key="49" pos="768" vol="72" pan="0"/>
          <note len="120" key="62" pos="840" vol="65" pan="0"/>
          <note len="48" key="61" pos="912" vol="65" pan="0"/>
          <note len="144" key="59" pos="960" vol="72" pan="0"/>
          <note len="192" key="50" pos="960" vol="72" pan="0"/>
          <note len="120" key="62" pos="1032" vol="65" pan="0"/>
          <note len="48" key="59" pos="1104" vol="65" pan="0"/>
          <note len="192" key="61" pos="1152" vol="72" pan="0"/>
          <note len="192" key="52" pos="1152" vol="72" pan="0"/>
          <note len="120" key="59" pos="1224" vol="65" pan="0"/>
          <note len="48" key="54" pos="1296" vol="65" pan="0"/>
          <note len="192" key="62" pos="1344" vol="72" pan="0"/>
          <note len="192" key="54" pos="1344" vol="72" pan="0"/>
          <note len="120" key="61" pos="1416" vol="64" pan="0"/>
          <note len="48" key="59" pos="1488" vol="65" pan="0"/>
          <note len="48" key="47" pos="1488" vol="65" pan="0"/>
          <note len="192" key="57" pos="1536" vol="72" pan="0"/>
          <note len="192" key="49" pos="1536" vol="72" pan="0"/>
          <note len="120" key="62" pos="1608" vol="65" pan="0"/>
          <note len="48" key="61" pos="1680" vol="65" pan="0"/>
          <note len="144" key="59" pos="1728" vol="72" pan="0"/>
          <note len="192" key="50" pos="1728" vol="72" pan="0"/>
          <note len="120" key="62" pos="1800" vol="65" pan="0"/>
          <note len="48" key="59" pos="1872" vol="65" pan="0"/>
          <note len="192" key="61" pos="1920" vol="72" pan="0"/>
          <note len="192" key="52" pos="1920" vol="72" pan="0"/>
          <note len="120" key="59" pos="1992" vol="66" pan="0"/>
          <note len="48" key="54" pos="2064" vol="65" pan="0"/>
          <note len="192" key="62" pos="2112" vol="72" pan="0"/>
          <note len="192" key="54" pos="2112" vol="72" pan="0"/>
          <note len="120" key="61" pos="2184" vol="65" pan="0"/>
          <note len="48" key="59" pos="2256" vol="65" pan="0"/>
          <note len="240" key="47" pos="2256" vol="65" pan="0"/>
        </pattern>
        <pattern type="1" muted="0" steps="16" pos="12288" name="Piano 1">
          <note len="192" key="69" pos="0" vol="72" pan="0"/>
          <note len="192" key="61" pos="0" vol="72" pan="0"/>
          <note len="120" key="74" pos="72" vol="65" pan="0"/>
          <note len="48" key="73" pos="144" vol="65" pan="0"/>
          <note len="144" key="71" pos="192" vol="72" pan="0"/>
          <note len="192" key="62" pos="192" vol="72" pan="0"/>
          <note len="120" key="74" pos="264" vol="65" pan="0"/>
          <note len="48" key="71" pos="336" vol="65" pan="0"/>
          <note len="192" key="73" pos="384" vol="72" pan="0"/>
          <note len="192" key="64" pos="384" vol="72" pan="0"/>
          <note len="120" key="71" pos="456" vol="65" pan="0"/>
          <note len="48" key="66" pos="528" vol="65" pan="0"/>
          <note len="192" key="74" pos="576" vol="72" pan="0"/>
          <note len="192" key="66" pos="576" vol="72" pan="0"/>
          <note len="120" key="73" pos="648" vol="65" pan="0"/>
          <note len="48" key="71" pos="720" vol="65" pan="0"/>
          <note len="48" key="59" pos="720" vol="65" pan="0"/>
          <note len="192" key="69" pos="768" vol="72" pan="0"/>
          <note len="192" key="61" pos="768" vol="72" pan="0"/>
          <note len="120" key="74" pos="840" vol="65" pan="0"/>
          <note len="48" key="73" pos="912" vol="65" pan="0"/>
          <note len="144" key="71" pos="960" vol="72" pan="0"/>
          <note len="192" key="62" pos="960" vol="72" pan="0"/>
          <note len="120" key="74" pos="1032" vol="65" pan="0"/>
          <note len="48" key="71" pos="1104" vol="65" pan="0"/>
          <note len="192" key="73" pos="1152" vol="72" pan="0"/>
          <note len="192" key="64" pos="1152" vol="72" pan="0"/>
          <note len="120" key="71" pos="1224" vol="65" pan="0"/>
          <note len="48" key="66" pos="1296" vol="65" pan="0"/>
          <note len="192" key="74" pos="1344" vol="72" pan="0"/>
          <note len="192" key="66" pos="1344" vol="72" pan="0"/>
          <note len="120" key="73" pos="1416" vol="65" pan="0"/>
          <note len="48" key="71" pos="1488" vol="65" pan="0"/>
          <note len="240" key="59" pos="1488" vol="65" pan="0"/>
        </pattern>
      </track>
      <track type="0" muted="0" solo="0" name="Piano 2">
        <instrumenttrack basenote="57" pitch="0" pitchrange="2" fxch="0" vol="60.8" pan="0" usemasterpitch="1">
          <instrument name="vestige">
            <vestige chunk="VkMyIacYAAA8TGFicz48TUVUQSBmYW1pbHk9IlNvZnQgUGlhbm8iIG5hbWU9IlNvZnQgUGlhbm8iIHByb2R1Y3RNb2RlPSIwIiB2ZXJzaW9uPSIxLjAuNSIgdGFncz0iNTAxMDAwOlBpYW5vIiBtb2RpZmllZD0iMSIvPjxVSSB1aXNpemU9IjEiIHVpY29sbGFwc2VkPSIxIi8+PEFSVElDUz48U0VUVElORyBpZD0icF9zeW5jVG9UZW1wbyIgdmFsdWU9IjEiLz48U0VUVElORyBpZD0icF9keW5hbWljc1ZlbG9jaXR5TW9kZSIgdmFsdWU9IkNPTVBSRVNTRUQgVkVMT0NJVFkgSElHSCIvPjxTRVRUSU5HIGlkPSJwX3Nob3J0UlRNb2RlIiB2YWx1ZT0iLTIiLz48U0VUVElORyBpZD0icF92ZWxvY2l0eUN1cnZlIiB2YWx1ZT0iTElORUFSIFZFTE9DSVRZIi8+PFNFVFRJTkcgaWQ9InBfcXVhbnRpc2VNb2RlIiB2YWx1ZT0iIi8+PFNFVFRJTkcgaWQ9InBfbWl4ZXJBZHZhbmNlZCIgdmFsdWU9IjEiLz48U0VUVElORyBpZD0icF9taXhlckdsb2JhbCIgdmFsdWU9IjEiLz48U0VUVElORyBpZD0icF9taXhlckxvY2siIHZhbHVlPSIwIi8+PFNFVFRJTkcgaWQ9InBfbWl4ZXJQYWdlIiB2YWx1ZT0iIi8+PFNFVFRJTkcgaWQ9InBfYXJ0aWNMb2NrIiB2YWx1ZT0iMCIvPjxTRVRUSU5HIGlkPSJwX2FydGljUGFnZSIgdmFsdWU9IiIvPjxTRVRUSU5HIGlkPSJwX2xhc3RTZWxlY3RlZFByaW1hcnlBcnRpYyIgdmFsdWU9IjAiLz48U0VUVElORyBpZD0icF9taWRpQ2hhbm5lbCIgdmFsdWU9IjAiLz48U0VUVElORyBpZD0icF9zZWxlY3RlZFRhZ3MiIHZhbHVlPSIiLz48U0VUVElORyBpZD0icF9maWx0ZXJQb3MiIHZhbHVlPSJbXSIvPjxTRVRUSU5HIGlkPSJwX3ByZXNldFBvcyIgdmFsdWU9IltdIi8+PFNFVFRJTkcgaWQ9InBfZXZvQ29udGFpbmVyUG9zIiB2YWx1ZT0iW10iLz48U0VUVElORyBpZD0icF9vY3RhdmUiIHZhbHVlPSIwIi8+PFNFVFRJTkcgaWQ9InBfb2Rlc3RJbmRpY2VzIiB2YWx1ZT0iMCwxLDIsMyw0LDUsNiw3LDgsOSwxMCwxMSwxMiwxMywxNCwxNSwxNiwxNywxOCwxOSwyMCwyMSwyMiwyMywyNCwyNSwyNiwyNywyOCwyOSwzMCwzMSwzMiwzMywzNCwzNSwzNiwzNywzOCwzOSw0MCw0MSw0Miw0Myw0NCw0NSw0Niw0Nyw0OCw0OSw1MCw1MSw1Miw1Myw1NCw1NSw1Niw1Nyw1OCw1OSw2MCw2MSw2Miw2Myw2NCw2NSw2Niw2Nyw2OCw2OSw3MCw3MSw3Miw3Myw3NCw3NSw3Niw3Nyw3OCw3OSw4MCw4MSw4Miw4Myw4NCw4NSw4Niw4Nyw4OCw4OSw5MCw5MSw5Miw5Myw5NCw5NSw5Niw5Nyw5OCw5OSwxMDAsMTAxLDEwMiwxMDMsMTA0LDEwNSwxMDYsMTA3LDEwOCwxMDksMTEwLDExMSwxMTIsMTEzLDExNCwxMTUsMTE2LDExNywxMTgsMTE5LDEyMCwxMjEsMTIyLDEyMywxMjQsMTI1LDEyNiwxMjcsMTI4LDEyOSwxMzAsMTMxLDEzMiwxMzMsMTM0LDEzNSwxMzYsMTM3LDEzOCwxMzksMTQwLDE0MSwxNDIsMTQzLDE0NCwxNDUsMTQ2LDE0NywxNDgsMTQ5LDE1MCwxNTEsMTUyLDE1MywxNTQsMTU1LDE1NiwxNTcsMTU4LDE1OSwxNjAsMTYxLDE2MiwxNjMsMTY0LDE2NSwxNjYsMTY3LDE2OCwxNjksMTcwLDE3MSwxNzIsMTczLDE3NCwxNzUsMTc2LDE3NywxNzgsMTc5LDE4MCwxODEsMTgyLDE4MywxODQsMTg1LDE4NiwxODcsMTg4LDE4OSwxOTAsMTkxLDE5MiwxOTMsMTk0LDE5NSwxOTYsMTk3LDE5OCwxOTksMjAwLDIwMSwyMDIsMjAzLDIwNCwyMDUsMjA2LDIwNywyMDgsMjA5LDIxMCwyMTEsMjEyLDIxMywyMTQsMjE1LDIxNiwyMTcsMjE4LDIxOSwyMjAsMjIxLDIyMiwyMjMsMjI0LDIyNSwyMjYsMjI3LDIyOCwyMjksMjMwLDIzMSwyMzIsMjMzLDIzNCwyMzUsMjM2LDIzNywyMzgsMjM5LDI0MCwyNDEsMjQyLDI0MywyNDQsMjQ1LDI0NiwyNDcsMjQ4LDI0OSwyNTAsMjUxLDI1MiwyNTMsMjU0LDI1NSwyNTYsMjU3LDI1OCwyNTksMjYwLDI2MSwyNjIsMjYzLDI2NCIvPjxBUlRJQz48U0VUVElORyBpZD0iYV9uYW1lIiB2YWx1ZT0iTEFCU19Tb2Z0X1BpYW5vIi8+PFNFVFRJTkcgaWQ9ImFfdmVyc2lvbiIgdmFsdWU9IjE2Nzc4NDk2Ii8+PFNFVFRJTkcgaWQ9ImFfdGVtcGxhdGVJZHgiIHZhbHVlPSIwIi8+PFNFVFRJTkcgaWQ9ImFfb2Rlc3QiIHZhbHVlPSJSRVZFUkIiLz48U0VUVElORyBpZD0iYV9hY3RpdmUiIHZhbHVlPSIyIi8+PFNFVFRJTkcgaWQ9ImFfdHdvSGFuZGVkIiB2YWx1ZT0iMCIvPjxTRVRUSU5HIGlkPSJhX2F1dG9NYWtlVXAiIHZhbHVlPSIwIi8+PFNFVFRJTkcgaWQ9InRfdHlwZSIgdmFsdWU9IjAiLz48U0VUVElORyBpZD0idF9lbmFibGVkIiB2YWx1ZT0iMSIvPjxTRVRUSU5HIGlkPSJ0X2xhdGNoIiB2YWx1ZT0iMCIvPjxTRVRUSU5HIGlkPSJ0X2tleXN3aXRjaCIgdmFsdWU9IjAiLz48U0VUVElORyBpZD0idF9taWRpQ2hhbm5lbCIgdmFsdWU9IjEiLz48U0VUVElORyBpZD0idF92ZWxGcm9tIiB2YWx1ZT0iMSIvPjxTRVRUSU5HIGlkPSJ0X3ZlbFRvIiB2YWx1ZT0iMTI3Ii8+PFNFVFRJTkcgaWQ9InRfY2MiIHZhbHVlPSIzMiIvPjxTRVRUSU5HIGlkPSJ0X2NjVmFsdWVGcm9tIiB2YWx1ZT0iMCIvPjxTRVRUSU5HIGlkPSJ0X2NjVmFsdWVUbyIgdmFsdWU9IjEyNyIvPjxTRVRUSU5HIGlkPSJ0X3NwZWVkRnJvbSIgdmFsdWU9IjAiLz48U0VUVElORyBpZD0idF9zcGVlZFRvIiB2YWx1ZT0iMC41Ii8+PFNFVFRJTkcgaWQ9InRfcHJvZ3JhbUNoYW5nZSIgdmFsdWU9IjAiLz48U0VUVElORyBpZD0icnJfdGltZW91dCIgdmFsdWU9Ii0xIi8+PFNFVFRJTkcgaWQ9InJyX25laWdoYm91ck1pbiIgdmFsdWU9IjIxIi8+PFNFVFRJTkcgaWQ9InJyX25laWdoYm91ck1heCIgdmFsdWU9IjEwOCIvPjxTRVRUSU5HIGlkPSJycl91c2VOZWlnaGJvdXIiIHZhbHVlPSIxIi8+PFNFVFRJTkcgaWQ9InJyX2NvdW50IiB2YWx1ZT0iLTMiLz48U0VUVElORyBpZD0icnJfaW5jIiB2YWx1ZT0iMSIvPjxTRVRUSU5HIGlkPSJycl9sYXllcnMiIHZhbHVlPSIxIi8+PFNFVFRJTkcgaWQ9InJyX2dhaW4iIHZhbHVlPSIxIi8+PFNFVFRJTkcgaWQ9InJyX3N0YXJ0IiB2YWx1ZT0iMCIvPjxTRVRUSU5HIGlkPSJycl9zeW5jIiB2YWx1ZT0iMCIvPjxTRVRUSU5HIGlkPSJycl9wbGF5IiB2YWx1ZT0iMCIvPjxTRVRUSU5HIGlkPSJycl9rZXlzd2l0Y2hGcm9tIiB2YWx1ZT0iLTEiLz48U0VUVElORyBpZD0icnJfa2V5c3dpdGNoVG8iIHZhbHVlPSItMSIvPjxTRVRUSU5HIGlkPSJycl9rZXlzd2l0Y2hUbyIgdmFsdWU9Ii0xIi8+PFNFVFRJTkcgaWQ9InJyX21vZGUiIHZhbHVlPSIxIi8+PFNFVFRJTkcgaWQ9InJfbWlkaUNoYW5uZWwiIHZhbHVlPSIwIi8+PFNFVFRJTkcgaWQ9InJfdHJhbnNwb3NlIiB2YWx1ZT0iMCIvPjxTRVRUSU5HIGlkPSJyX2xheWVyVHJhbnNwb3NlIiB2YWx1ZT0iMCIvPjxTRVRUSU5HIGlkPSJpX2V4cHJlc3Npb24iIHZhbHVlPSIwLjI0ODEyMDMwNzkyMjM2MzMiLz48U0VUVElORyBpZD0iaV9keW5hbWljcyIgdmFsdWU9IjEiLz48U0VUVElORyBpZD0iaV9yZXZlcmIiIHZhbHVlPSIwLjE5Nzk2MTAzMjM5MDU5NDUiLz48U0VUVElORyBpZD0iaV9yZWxlYXNlIiB2YWx1ZT0iMC41Ii8+PFNFVFRJTkcgaWQ9ImlfdGlnaHQiIHZhbHVlPSIwLjUiLz48U0VUVElORyBpZD0iaV92aWJyYXRvIiB2YWx1ZT0iMSIvPjxTRVRUSU5HIGlkPSJpX3ZhcmlhdGlvbiIgdmFsdWU9IjAiLz48U0VUVElORyBpZD0ic19wYW4iIHZhbHVlPSIwLjUiLz48U0VUVElORyBpZD0ic193aWR0aCIgdmFsdWU9IjAuNSIvPjxTRVRUSU5HIGlkPSJzX2ZsaXAiIHZhbHVlPSIwIi8+PE1JWD48U0VUVElORyBpZD0ibV9tYWluIiB2YWx1ZT0iMSIgbWljSWQ9IjEiLz48U0VUVElORyBpZD0iZV9tYWluIiB2YWx1ZT0iMSIgbWljSWQ9IjEiLz48U0VUVElORyBpZD0iYl9tYWluIiB2YWx1ZT0iMCIgbWljSWQ9IjEiLz48U0VUVElORyBpZD0ibV9hbHQxIiB2YWx1ZT0iMCIgbWljSWQ9IjIiLz48U0VUVElORyBpZD0iZV9hbHQxIiB2YWx1ZT0iMCIgbWljSWQ9IjIiLz48U0VUVElORyBpZD0iYl9hbHQxIiB2YWx1ZT0iMCIgbWljSWQ9IjIiLz48U0VUVElORyBpZD0ibV9hbHQyIiB2YWx1ZT0iMCIgbWljSWQ9IjMiLz48U0VUVElORyBpZD0iZV9hbHQyIiB2YWx1ZT0iMCIgbWljSWQ9IjMiLz48U0VUVElORyBpZD0iYl9hbHQyIiB2YWx1ZT0iMCIgbWljSWQ9IjMiLz48U0VUVElORyBpZD0ibV9hbHQzIiB2YWx1ZT0iMCIgbWljSWQ9IjQiLz48U0VUVElORyBpZD0iZV9hbHQzIiB2YWx1ZT0iMCIgbWljSWQ9IjQiLz48U0VUVElORyBpZD0iYl9hbHQzIiB2YWx1ZT0iMCIgbWljSWQ9IjQiLz48L01JWD48L0FSVElDPjwvQVJUSUNTPjxQQVJBTUVURVJTPjxQQVJBTSBpZD0iZ19nYWluIiB2YWx1ZT0iMSIgY2M9IjciLz48UEFSQU0gaWQ9ImdfcGFuIiB2YWx1ZT0iMC41IiBjYz0iMTAiLz48UEFSQU0gaWQ9ImdfdHVuZSIgdmFsdWU9IjAiIGNjPSItMSIvPjxQQVJBTSBpZD0iaV9yZXZlcmIiIHZhbHVlPSIwLjE5Nzk2MTAzMjM5MDU5NDUiIGNjPSIxOSIvPjxQQVJBTSBpZD0iaV90aWdodCIgdmFsdWU9IjAuNSIgY2M9IjE4Ii8+PFBBUkFNIGlkPSJpX3NwZWVkIiB2YWx1ZT0iMCIgY2M9Ii0xIi8+PFBBUkFNIGlkPSJpX3JlbGVhc2UiIHZhbHVlPSIwLjUiIGNjPSIxNyIvPjxQQVJBTSBpZD0iaV9leHByZXNzaW9uIiB2YWx1ZT0iMC4yNDgxMjAzMDc5MjIzNjMzIiBjYz0iMTEiLz48UEFSQU0gaWQ9ImlfZHluYW1pY3MiIHZhbHVlPSIxIiBjYz0iMSIvPjxQQVJBTSBpZD0iaV92YXJpYXRpb24iIHZhbHVlPSIwIiBjYz0iMjAiLz48UEFSQU0gaWQ9ImlfdmlicmF0byIgdmFsdWU9IjEiIGNjPSIyMSIvPjxQQVJBTSBpZD0iaV9lbnZhdHQiIHZhbHVlPSIwLjA5OTk5OTk4NjU4ODk1NDkzIiBjYz0iLTEiLz48UEFSQU0gaWQ9ImlfZW52ZGVjIiB2YWx1ZT0iMC4wOTk5OTk5OTQwMzk1MzU1MiIgY2M9Ii0xIi8+PFBBUkFNIGlkPSJpX2VudnN1cyIgdmFsdWU9IjEiIGNjPSItMSIvPjxQQVJBTSBpZD0iaV9lbnZyZWwiIHZhbHVlPSIyIiBjYz0iLTEiLz48UEFSQU0gaWQ9ImlfbWl4c2ltcGxlIiB2YWx1ZT0iMC41IiBjYz0iLTEiLz48UEFSQU0gaWQ9InNfZmxpcCIgdmFsdWU9IjAiIGNjPSItMSIvPjxQQVJBTSBpZD0ic193aWR0aCIgdmFsdWU9IjAuNSIgY2M9Ii0xIi8+PFBBUkFNIGlkPSJzX3BhbiIgdmFsdWU9IjAuNSIgY2M9Ii0xIi8+PFBBUkFNIGlkPSJpX2RlbGF5IiB2YWx1ZT0iMCIgY2M9Ii0xIi8+PFBBUkFNIGlkPSJpX2Ftb3VudCIgdmFsdWU9IjAiIGNjPSItMSIvPjxQQVJBTSBpZD0iaV9kaXN0b3J0IiB2YWx1ZT0iMCIgY2M9Ii0xIi8+PFBBUkFNIGlkPSJpX2x1c2hWZXJiIiB2YWx1ZT0iMCIgY2M9Ii0xIi8+PFBBUkFNIGlkPSJpX3BlZHZvbCIgdmFsdWU9IjAuNSIgY2M9Ii0xIi8+PFBBUkFNIGlkPSJpX3BlZER5biIgdmFsdWU9IjAuNSIgY2M9Ii0xIi8+PFBBUkFNIGlkPSJpX2xlbmd0aCIgdmFsdWU9IjAiIGNjPSItMSIvPjxQQVJBTSBpZD0iaV90aW1lTWFjaGluZSIgdmFsdWU9IjAiIGNjPSItMSIvPjxQQVJBTSBpZD0iaV9zdHJldGNoIiB2YWx1ZT0iMCIgY2M9Ii0xIi8+PFBBUkFNIGlkPSJpX3NvZnRQZWRhbCIgdmFsdWU9IjAiIGNjPSItMSIvPjxQQVJBTSBpZD0iaV9yZXNwb25zZSIgdmFsdWU9IjAiIGNjPSItMSIvPjxQQVJBTSBpZD0iaV9tYWxsZXQiIHZhbHVlPSIwIiBjYz0iLTEiLz48UEFSQU0gaWQ9Imlfc3RvcGVNdXRlIiB2YWx1ZT0iMCIgY2M9Ii0xIi8+PFBBUkFNIGlkPSJpX2RpcmVjdGlvbiIgdmFsdWU9IjAiIGNjPSItMSIvPjxQQVJBTSBpZD0iaV9scEZpbHRlciIgdmFsdWU9IjAiIGNjPSItMSIvPjxQQVJBTSBpZD0iaV9wb3J0YW1lbnRvIiB2YWx1ZT0iMCIgY2M9Ii0xIi8+PFBBUkFNIGlkPSJpX21ldGFbMThdIiB2YWx1ZT0iMCIgY2M9Ii0xIi8+PFBBUkFNIGlkPSJpX21ldGFbMTldIiB2YWx1ZT0iMCIgY2M9Ii0xIi8+PFBBUkFNIGlkPSJpX21ldGFbMjBdIiB2YWx1ZT0iMCIgY2M9Ii0xIi8+PFBBUkFNIGlkPSJpX21ldGFbMjFdIiB2YWx1ZT0iMCIgY2M9Ii0xIi8+PFBBUkFNIGlkPSJpX21ldGFbMjJdIiB2YWx1ZT0iMCIgY2M9Ii0xIi8+PFBBUkFNIGlkPSJpX21ldGFbMjNdIiB2YWx1ZT0iMCIgY2M9Ii0xIi8+PFBBUkFNIGlkPSJpX21ldGFbMjRdIiB2YWx1ZT0iMCIgY2M9Ii0xIi8+PFBBUkFNIGlkPSJpX21ldGFbMjVdIiB2YWx1ZT0iMCIgY2M9Ii0xIi8+PFBBUkFNIGlkPSJpX21ldGFbMjZdIiB2YWx1ZT0iMCIgY2M9Ii0xIi8+PFBBUkFNIGlkPSJtX21haW4iIHZhbHVlPSIxIiBjYz0iMjIiLz48UEFSQU0gaWQ9Im1fYWx0MSIgdmFsdWU9IjAiIGNjPSIyMyIvPjxQQVJBTSBpZD0ibV9hbHQyIiB2YWx1ZT0iMCIgY2M9IjI0Ii8+PFBBUkFNIGlkPSJtX2FsdDMiIHZhbHVlPSIwIiBjYz0iMjUiLz48L1BBUkFNRVRFUlM+PC9MYWJzPgA=" program="0" plugin="C:/Program Files/VstPlugins/LABS (64 Bit).dll" guivisible="0"/>
          </instrument>
          <eldata fres="0.5" fwet="0" ftype="0" fcut="14000">
            <elvol x100="0" amt="0" lpdel="0" lshp="0" lspd_numerator="4" att="0" rel="0.1" userwavefile="" lspd_denominator="4" sustain="0.5" pdel="0" ctlenvamt="0" dec="0.5" latt="0" hold="0.5" lspd="0.1" lamt="0" lspd_syncmode="0"/>
            <elcut x100="0" amt="0" lpdel="0" lshp="0" lspd_numerator="4" att="0" rel="0.1" userwavefile="" lspd_denominator="4" sustain="0.5" pdel="0" ctlenvamt="0" dec="0.5" latt="0" hold="0.5" lspd="0.1" lamt="0" lspd_syncmode="0"/>
            <elres x100="0" amt="0" lpdel="0" lshp="0" lspd_numerator="4" att="0" rel="0.1" userwavefile="" lspd_denominator="4" sustain="0.5" pdel="0" ctlenvamt="0" dec="0.5" latt="0" hold="0.5" lspd="0.1" lamt="0" lspd_syncmode="0"/>
          </eldata>
          <chordcreator chord-enabled="0" chordrange="1" chord="0"/>
          <arpeggiator arptime_syncmode="0" arpmiss="0" arptime_numerator="4" arprange="1" arp-enabled="0" arpdir="0" arpcycle="0" arptime_denominator="4" arpskip="0" arpmode="0" arp="0" arptime="200" arpgate="100"/>
          <midiport basevelocity="63" outputcontroller="0" fixedoutputvelocity="-1" readable="0" outputprogram="1" inputcontroller="0" inputchannel="0" fixedoutputnote="-1" writable="0" fixedinputvelocity="-1" outputchannel="1"/>
          <fxchain enabled="0" numofeffects="0"/>
        </instrumenttrack>
        <pattern type="1" muted="0" steps="16" pos="10752" name="Piano 2">
          <note len="192" key="57" pos="0" vol="83" pan="0"/>
          <note len="192" key="49" pos="0" vol="83" pan="0"/>
          <note len="120" key="62" pos="72" vol="75" pan="0"/>
          <note len="48" key="61" pos="144" vol="75" pan="0"/>
          <note len="144" key="59" pos="192" vol="83" pan="0"/>
          <note len="192" key="50" pos="192" vol="83" pan="0"/>
          <note len="120" key="62" pos="264" vol="75" pan="0"/>
          <note len="48" key="59" pos="336" vol="75" pan="0"/>
          <note len="192" key="61" pos="384" vol="83" pan="0"/>
          <note len="192" key="52" pos="384" vol="83" pan="0"/>
          <note len="120" key="59" pos="456" vol="75" pan="0"/>
          <note len="48" key="54" pos="528" vol="75" pan="0"/>
          <note len="192" key="62" pos="576" vol="83" pan="0"/>
          <note len="192" key="54" pos="576" vol="83" pan="0"/>
          <note len="120" key="61" pos="648" vol="75" pan="0"/>
          <note len="48" key="59" pos="720" vol="75" pan="0"/>
          <note len="48" key="47" pos="720" vol="75" pan="0"/>
          <note len="192" key="57" pos="768" vol="83" pan="0"/>
          <note len="192" key="49" pos="768" vol="83" pan="0"/>
          <note len="120" key="62" pos="840" vol="75" pan="0"/>
          <note len="48" key="61" pos="912" vol="75" pan="0"/>
          <note len="144" key="59" pos="960" vol="83" pan="0"/>
          <note len="192" key="50" pos="960" vol="83" pan="0"/>
          <note len="120" key="62" pos="1032" vol="75" pan="0"/>
          <note len="48" key="59" pos="1104" vol="75" pan="0"/>
          <note len="192" key="61" pos="1152" vol="83" pan="0"/>
          <note len="192" key="52" pos="1152" vol="83" pan="0"/>
          <note len="120" key="59" pos="1224" vol="75" pan="0"/>
          <note len="48" key="54" pos="1296" vol="75" pan="0"/>
          <note len="192" key="62" pos="1344" vol="83" pan="0"/>
          <note len="192" key="54" pos="1344" vol="83" pan="0"/>
          <note len="120" key="61" pos="1416" vol="75" pan="0"/>
          <note len="48" key="59" pos="1488" vol="75" pan="0"/>
          <note len="48" key="47" pos="1488" vol="75" pan="0"/>
        </pattern>
        <pattern type="1" muted="0" steps="16" pos="21504" name="Piano 2">
          <note len="192" key="57" pos="0" vol="83" pan="0"/>
          <note len="192" key="49" pos="0" vol="83" pan="0"/>
          <note len="120" key="62" pos="72" vol="75" pan="0"/>
          <note len="48" key="61" pos="144" vol="75" pan="0"/>
          <note len="144" key="59" pos="192" vol="83" pan="0"/>
          <note len="192" key="50" pos="192" vol="83" pan="0"/>
          <note len="120" key="62" pos="264" vol="75" pan="0"/>
          <note len="48" key="59" pos="336" vol="75" pan="0"/>
          <note len="192" key="61" pos="384" vol="83" pan="0"/>
          <note len="192" key="52" pos="384" vol="83" pan="0"/>
          <note len="120" key="59" pos="456" vol="75" pan="0"/>
          <note len="48" key="54" pos="528" vol="75" pan="0"/>
          <note len="192" key="62" pos="576" vol="83" pan="0"/>
          <note len="192" key="54" pos="576" vol="83" pan="0"/>
          <note len="120" key="61" pos="648" vol="75" pan="0"/>
          <note len="48" key="59" pos="720" vol="75" pan="0"/>
          <note len="48" key="47" pos="720" vol="75" pan="0"/>
          <note len="192" key="57" pos="768" vol="83" pan="0"/>
          <note len="192" key="49" pos="768" vol="83" pan="0"/>
          <note len="120" key="62" pos="840" vol="75" pan="0"/>
          <note len="48" key="61" pos="912" vol="75" pan="0"/>
          <note len="144" key="59" pos="960" vol="83" pan="0"/>
          <note len="192" key="50" pos="960" vol="83" pan="0"/>
          <note len="120" key="62" pos="1032" vol="75" pan="0"/>
          <note len="48" key="59" pos="1104" vol="75" pan="0"/>
          <note len="192" key="61" pos="1152" vol="83" pan="0"/>
          <note len="192" key="52" pos="1152" vol="83" pan="0"/>
          <note len="120" key="59" pos="1224" vol="75" pan="0"/>
          <note len="48" key="54" pos="1296" vol="75" pan="0"/>
          <note len="192" key="62" pos="1344" vol="83" pan="0"/>
          <note len="192" key="54" pos="1344" vol="83" pan="0"/>
          <note len="120" key="61" pos="1416" vol="75" pan="0"/>
          <note len="48" key="59" pos="1488" vol="75" pan="0"/>
          <note len="48" key="47" pos="1488" vol="75" pan="0"/>
          <note len="768" key="69" pos="1536" vol="83" pan="0"/>
          <note len="768" key="57" pos="1536" vol="83" pan="0"/>
          <note len="768" key="49" pos="1536" vol="83" pan="0"/>
        </pattern>
      </track>
      <track type="0" muted="0" solo="0" name="Pad 1">
        <instrumenttrack basenote="57" pitch="0" pitchrange="2" fxch="1" vol="50" pan="20" usemasterpitch="1">
          <instrument name="vestige">
            <vestige chunk="VkMyIaUYAAA8TGFicz48TUVUQSBmYW1pbHk9IlN5bnRoIFBhZHMiIG5hbWU9IlBhZCAjMDAwMSIgcHJvZHVjdE1vZGU9IjAiIHZlcnNpb249IjEuMC42IiB0YWdzPSIxMDMwMjAwOlN5bnRoIiBtb2RpZmllZD0iMSIvPjxVSSB1aXNpemU9IjEiIHVpY29sbGFwc2VkPSIxIi8+PEFSVElDUz48U0VUVElORyBpZD0icF9zeW5jVG9UZW1wbyIgdmFsdWU9IjEiLz48U0VUVElORyBpZD0icF9keW5hbWljc1ZlbG9jaXR5TW9kZSIgdmFsdWU9IkZVTEwgVkVMT0NJVFkgUkFOR0UiLz48U0VUVElORyBpZD0icF9zaG9ydFJUTW9kZSIgdmFsdWU9Ii0yIi8+PFNFVFRJTkcgaWQ9InBfdmVsb2NpdHlDdXJ2ZSIgdmFsdWU9IkxJTkVBUiBWRUxPQ0lUWSIvPjxTRVRUSU5HIGlkPSJwX3F1YW50aXNlTW9kZSIgdmFsdWU9IiIvPjxTRVRUSU5HIGlkPSJwX21peGVyQWR2YW5jZWQiIHZhbHVlPSIxIi8+PFNFVFRJTkcgaWQ9InBfbWl4ZXJHbG9iYWwiIHZhbHVlPSIxIi8+PFNFVFRJTkcgaWQ9InBfbWl4ZXJMb2NrIiB2YWx1ZT0iMCIvPjxTRVRUSU5HIGlkPSJwX21peGVyUGFnZSIgdmFsdWU9IiIvPjxTRVRUSU5HIGlkPSJwX2FydGljTG9jayIgdmFsdWU9IjAiLz48U0VUVElORyBpZD0icF9hcnRpY1BhZ2UiIHZhbHVlPSIiLz48U0VUVElORyBpZD0icF9sYXN0U2VsZWN0ZWRQcmltYXJ5QXJ0aWMiIHZhbHVlPSIwIi8+PFNFVFRJTkcgaWQ9InBfbWlkaUNoYW5uZWwiIHZhbHVlPSIwIi8+PFNFVFRJTkcgaWQ9InBfc2VsZWN0ZWRUYWdzIiB2YWx1ZT0iU3ludGgiLz48U0VUVElORyBpZD0icF9maWx0ZXJQb3MiIHZhbHVlPSJbMCwgODNdIi8+PFNFVFRJTkcgaWQ9InBfcHJlc2V0UG9zIiB2YWx1ZT0iWzAsIDE2NjldIi8+PFNFVFRJTkcgaWQ9InBfZXZvQ29udGFpbmVyUG9zIiB2YWx1ZT0iW10iLz48U0VUVElORyBpZD0icF9vY3RhdmUiIHZhbHVlPSIwIi8+PFNFVFRJTkcgaWQ9InBfb2Rlc3RJbmRpY2VzIiB2YWx1ZT0iMCwxLDIsMyw0LDUsNiw3LDgsOSwxMCwxMSwxMiwxMywxNCwxNSwxNiwxNywxOCwxOSwyMCwyMSwyMiwyMywyNCwyNSwyNiwyNywyOCwyOSwzMCwzMSwzMiwzMywzNCwzNSwzNiwzNywzOCwzOSw0MCw0MSw0Miw0Myw0NCw0NSw0Niw0Nyw0OCw0OSw1MCw1MSw1Miw1Myw1NCw1NSw1Niw1Nyw1OCw1OSw2MCw2MSw2Miw2Myw2NCw2NSw2Niw2Nyw2OCw2OSw3MCw3MSw3Miw3Myw3NCw3NSw3Niw3Nyw3OCw3OSw4MCw4MSw4Miw4Myw4NCw4NSw4Niw4Nyw4OCw4OSw5MCw5MSw5Miw5Myw5NCw5NSw5Niw5Nyw5OCw5OSwxMDAsMTAxLDEwMiwxMDMsMTA0LDEwNSwxMDYsMTA3LDEwOCwxMDksMTEwLDExMSwxMTIsMTEzLDExNCwxMTUsMTE2LDExNywxMTgsMTE5LDEyMCwxMjEsMTIyLDEyMywxMjQsMTI1LDEyNiwxMjcsMTI4LDEyOSwxMzAsMTMxLDEzMiwxMzMsMTM0LDEzNSwxMzYsMTM3LDEzOCwxMzksMTQwLDE0MSwxNDIsMTQzLDE0NCwxNDUsMTQ2LDE0NywxNDgsMTQ5LDE1MCwxNTEsMTUyLDE1MywxNTQsMTU1LDE1NiwxNTcsMTU4LDE1OSwxNjAsMTYxLDE2MiwxNjMsMTY0LDE2NSwxNjYsMTY3LDE2OCwxNjksMTcwLDE3MSwxNzIsMTczLDE3NCwxNzUsMTc2LDE3NywxNzgsMTc5LDE4MCwxODEsMTgyLDE4MywxODQsMTg1LDE4NiwxODcsMTg4LDE4OSwxOTAsMTkxLDE5MiwxOTMsMTk0LDE5NSwxOTYsMTk3LDE5OCwxOTksMjAwLDIwMSwyMDIsMjAzLDIwNCwyMDUsMjA2LDIwNywyMDgsMjA5LDIxMCwyMTEsMjEyLDIxMywyMTQsMjE1LDIxNiwyMTcsMjE4LDIxOSwyMjAsMjIxLDIyMiwyMjMsMjI0LDIyNSwyMjYsMjI3LDIyOCwyMjksMjMwLDIzMSwyMzIsMjMzLDIzNCwyMzUsMjM2LDIzNywyMzgsMjM5LDI0MCwyNDEsMjQyLDI0MywyNDQsMjQ1LDI0NiwyNDcsMjQ4LDI0OSwyNTAsMjUxLDI1MiwyNTMsMjU0LDI1NSwyNTYsMjU3LDI1OCwyNTksMjYwLDI2MSwyNjIsMjYzLDI2NCIvPjxBUlRJQz48U0VUVElORyBpZD0iYV9uYW1lIiB2YWx1ZT0iTEFCU19TeW50aF9QYWRfIzAwMDEiLz48U0VUVElORyBpZD0iYV92ZXJzaW9uIiB2YWx1ZT0iMTY3Nzg3NTIiLz48U0VUVElORyBpZD0iYV90ZW1wbGF0ZUlkeCIgdmFsdWU9IjAiLz48U0VUVElORyBpZD0iYV9vZGVzdCIgdmFsdWU9IlJFVkVSQiIvPjxTRVRUSU5HIGlkPSJhX2FjdGl2ZSIgdmFsdWU9IjIiLz48U0VUVElORyBpZD0iYV90d29IYW5kZWQiIHZhbHVlPSIwIi8+PFNFVFRJTkcgaWQ9ImFfYXV0b01ha2VVcCIgdmFsdWU9IjAiLz48U0VUVElORyBpZD0idF90eXBlIiB2YWx1ZT0iMCIvPjxTRVRUSU5HIGlkPSJ0X2VuYWJsZWQiIHZhbHVlPSIxIi8+PFNFVFRJTkcgaWQ9InRfbGF0Y2giIHZhbHVlPSIwIi8+PFNFVFRJTkcgaWQ9InRfa2V5c3dpdGNoIiB2YWx1ZT0iMCIvPjxTRVRUSU5HIGlkPSJ0X21pZGlDaGFubmVsIiB2YWx1ZT0iMSIvPjxTRVRUSU5HIGlkPSJ0X3ZlbEZyb20iIHZhbHVlPSIxIi8+PFNFVFRJTkcgaWQ9InRfdmVsVG8iIHZhbHVlPSIxMjciLz48U0VUVElORyBpZD0idF9jYyIgdmFsdWU9IjMyIi8+PFNFVFRJTkcgaWQ9InRfY2NWYWx1ZUZyb20iIHZhbHVlPSIwIi8+PFNFVFRJTkcgaWQ9InRfY2NWYWx1ZVRvIiB2YWx1ZT0iMTI3Ii8+PFNFVFRJTkcgaWQ9InRfc3BlZWRGcm9tIiB2YWx1ZT0iMCIvPjxTRVRUSU5HIGlkPSJ0X3NwZWVkVG8iIHZhbHVlPSIwLjUiLz48U0VUVElORyBpZD0idF9wcm9ncmFtQ2hhbmdlIiB2YWx1ZT0iMCIvPjxTRVRUSU5HIGlkPSJycl90aW1lb3V0IiB2YWx1ZT0iLTEiLz48U0VUVElORyBpZD0icnJfbmVpZ2hib3VyTWluIiB2YWx1ZT0iMjQiLz48U0VUVElORyBpZD0icnJfbmVpZ2hib3VyTWF4IiB2YWx1ZT0iOTYiLz48U0VUVElORyBpZD0icnJfdXNlTmVpZ2hib3VyIiB2YWx1ZT0iMCIvPjxTRVRUSU5HIGlkPSJycl9jb3VudCIgdmFsdWU9Ii0xIi8+PFNFVFRJTkcgaWQ9InJyX2luYyIgdmFsdWU9IjEiLz48U0VUVElORyBpZD0icnJfbGF5ZXJzIiB2YWx1ZT0iMSIvPjxTRVRUSU5HIGlkPSJycl9nYWluIiB2YWx1ZT0iMSIvPjxTRVRUSU5HIGlkPSJycl9zdGFydCIgdmFsdWU9IjAiLz48U0VUVElORyBpZD0icnJfc3luYyIgdmFsdWU9IjAiLz48U0VUVElORyBpZD0icnJfcGxheSIgdmFsdWU9IjAiLz48U0VUVElORyBpZD0icnJfa2V5c3dpdGNoRnJvbSIgdmFsdWU9Ii0xIi8+PFNFVFRJTkcgaWQ9InJyX2tleXN3aXRjaFRvIiB2YWx1ZT0iLTEiLz48U0VUVElORyBpZD0icnJfa2V5c3dpdGNoVG8iIHZhbHVlPSItMSIvPjxTRVRUSU5HIGlkPSJycl9tb2RlIiB2YWx1ZT0iMCIvPjxTRVRUSU5HIGlkPSJyX21pZGlDaGFubmVsIiB2YWx1ZT0iMCIvPjxTRVRUSU5HIGlkPSJyX3RyYW5zcG9zZSIgdmFsdWU9IjAiLz48U0VUVElORyBpZD0icl9sYXllclRyYW5zcG9zZSIgdmFsdWU9IjAiLz48U0VUVElORyBpZD0iaV9leHByZXNzaW9uIiB2YWx1ZT0iMSIvPjxTRVRUSU5HIGlkPSJpX2R5bmFtaWNzIiB2YWx1ZT0iMSIvPjxTRVRUSU5HIGlkPSJpX3JldmVyYiIgdmFsdWU9IjAuNjQ1NjY4OTgzNDU5NDcyNyIvPjxTRVRUSU5HIGlkPSJpX3JlbGVhc2UiIHZhbHVlPSIwLjUiLz48U0VUVElORyBpZD0iaV90aWdodCIgdmFsdWU9IjAuNSIvPjxTRVRUSU5HIGlkPSJpX3ZpYnJhdG8iIHZhbHVlPSIxIi8+PFNFVFRJTkcgaWQ9ImlfdmFyaWF0aW9uIiB2YWx1ZT0iMC40OTY3NjU0MzQ3NDE5NzM5Ii8+PFNFVFRJTkcgaWQ9InNfcGFuIiB2YWx1ZT0iMC41Ii8+PFNFVFRJTkcgaWQ9InNfd2lkdGgiIHZhbHVlPSIwLjUiLz48U0VUVElORyBpZD0ic19mbGlwIiB2YWx1ZT0iMCIvPjxNSVg+PFNFVFRJTkcgaWQ9Im1fbWFpbiIgdmFsdWU9IjEiIG1pY0lkPSIxIi8+PFNFVFRJTkcgaWQ9ImVfbWFpbiIgdmFsdWU9IjEiIG1pY0lkPSIxIi8+PFNFVFRJTkcgaWQ9ImJfbWFpbiIgdmFsdWU9IjAiIG1pY0lkPSIxIi8+PFNFVFRJTkcgaWQ9Im1fYWx0MSIgdmFsdWU9IjAiIG1pY0lkPSIyIi8+PFNFVFRJTkcgaWQ9ImVfYWx0MSIgdmFsdWU9IjAiIG1pY0lkPSIyIi8+PFNFVFRJTkcgaWQ9ImJfYWx0MSIgdmFsdWU9IjAiIG1pY0lkPSIyIi8+PFNFVFRJTkcgaWQ9Im1fYWx0MiIgdmFsdWU9IjAiIG1pY0lkPSIzIi8+PFNFVFRJTkcgaWQ9ImVfYWx0MiIgdmFsdWU9IjAiIG1pY0lkPSIzIi8+PFNFVFRJTkcgaWQ9ImJfYWx0MiIgdmFsdWU9IjAiIG1pY0lkPSIzIi8+PFNFVFRJTkcgaWQ9Im1fYWx0MyIgdmFsdWU9IjAiIG1pY0lkPSI0Ii8+PFNFVFRJTkcgaWQ9ImVfYWx0MyIgdmFsdWU9IjAiIG1pY0lkPSI0Ii8+PFNFVFRJTkcgaWQ9ImJfYWx0MyIgdmFsdWU9IjAiIG1pY0lkPSI0Ii8+PC9NSVg+PC9BUlRJQz48L0FSVElDUz48UEFSQU1FVEVSUz48UEFSQU0gaWQ9ImdfZ2FpbiIgdmFsdWU9IjEiIGNjPSI3Ii8+PFBBUkFNIGlkPSJnX3BhbiIgdmFsdWU9IjAuNSIgY2M9IjEwIi8+PFBBUkFNIGlkPSJnX3R1bmUiIHZhbHVlPSIwIiBjYz0iLTEiLz48UEFSQU0gaWQ9ImlfcmV2ZXJiIiB2YWx1ZT0iMC42NDU2Njg5ODM0NTk0NzI3IiBjYz0iMTkiLz48UEFSQU0gaWQ9ImlfdGlnaHQiIHZhbHVlPSIwLjUiIGNjPSIxOCIvPjxQQVJBTSBpZD0iaV9zcGVlZCIgdmFsdWU9IjAiIGNjPSItMSIvPjxQQVJBTSBpZD0iaV9yZWxlYXNlIiB2YWx1ZT0iMC41IiBjYz0iMTciLz48UEFSQU0gaWQ9ImlfZXhwcmVzc2lvbiIgdmFsdWU9IjEiIGNjPSIxMSIvPjxQQVJBTSBpZD0iaV9keW5hbWljcyIgdmFsdWU9IjEiIGNjPSIxIi8+PFBBUkFNIGlkPSJpX3ZhcmlhdGlvbiIgdmFsdWU9IjAuNDk2NzY1NDM0NzQxOTczOSIgY2M9IjIwIi8+PFBBUkFNIGlkPSJpX3ZpYnJhdG8iIHZhbHVlPSIxIiBjYz0iMjEiLz48UEFSQU0gaWQ9ImlfZW52YXR0IiB2YWx1ZT0iMC43NDk5OTk5NDAzOTUzNTUyIiBjYz0iLTEiLz48UEFSQU0gaWQ9ImlfZW52ZGVjIiB2YWx1ZT0iMjUiIGNjPSItMSIvPjxQQVJBTSBpZD0iaV9lbnZzdXMiIHZhbHVlPSIxIiBjYz0iLTEiLz48UEFSQU0gaWQ9ImlfZW52cmVsIiB2YWx1ZT0iMiIgY2M9Ii0xIi8+PFBBUkFNIGlkPSJpX21peHNpbXBsZSIgdmFsdWU9IjAuNSIgY2M9Ii0xIi8+PFBBUkFNIGlkPSJzX2ZsaXAiIHZhbHVlPSIwIiBjYz0iLTEiLz48UEFSQU0gaWQ9InNfd2lkdGgiIHZhbHVlPSIwLjUiIGNjPSItMSIvPjxQQVJBTSBpZD0ic19wYW4iIHZhbHVlPSIwLjUiIGNjPSItMSIvPjxQQVJBTSBpZD0iaV9kZWxheSIgdmFsdWU9IjAiIGNjPSItMSIvPjxQQVJBTSBpZD0iaV9hbW91bnQiIHZhbHVlPSIwIiBjYz0iLTEiLz48UEFSQU0gaWQ9ImlfZGlzdG9ydCIgdmFsdWU9IjAiIGNjPSItMSIvPjxQQVJBTSBpZD0iaV9sdXNoVmVyYiIgdmFsdWU9IjAiIGNjPSItMSIvPjxQQVJBTSBpZD0iaV9wZWR2b2wiIHZhbHVlPSIwLjUiIGNjPSItMSIvPjxQQVJBTSBpZD0iaV9wZWREeW4iIHZhbHVlPSIwLjUiIGNjPSItMSIvPjxQQVJBTSBpZD0iaV9sZW5ndGgiIHZhbHVlPSIwIiBjYz0iLTEiLz48UEFSQU0gaWQ9ImlfdGltZU1hY2hpbmUiIHZhbHVlPSIwIiBjYz0iLTEiLz48UEFSQU0gaWQ9Imlfc3RyZXRjaCIgdmFsdWU9IjAiIGNjPSItMSIvPjxQQVJBTSBpZD0iaV9zb2Z0UGVkYWwiIHZhbHVlPSIwIiBjYz0iLTEiLz48UEFSQU0gaWQ9ImlfcmVzcG9uc2UiIHZhbHVlPSIwIiBjYz0iLTEiLz48UEFSQU0gaWQ9ImlfbWFsbGV0IiB2YWx1ZT0iMCIgY2M9Ii0xIi8+PFBBUkFNIGlkPSJpX3N0b3BlTXV0ZSIgdmFsdWU9IjAiIGNjPSItMSIvPjxQQVJBTSBpZD0iaV9kaXJlY3Rpb24iIHZhbHVlPSIwIiBjYz0iLTEiLz48UEFSQU0gaWQ9ImlfbHBGaWx0ZXIiIHZhbHVlPSIwIiBjYz0iLTEiLz48UEFSQU0gaWQ9ImlfcG9ydGFtZW50byIgdmFsdWU9IjAiIGNjPSItMSIvPjxQQVJBTSBpZD0iaV9tZXRhWzE4XSIgdmFsdWU9IjAiIGNjPSItMSIvPjxQQVJBTSBpZD0iaV9tZXRhWzE5XSIgdmFsdWU9IjAiIGNjPSItMSIvPjxQQVJBTSBpZD0iaV9tZXRhWzIwXSIgdmFsdWU9IjAiIGNjPSItMSIvPjxQQVJBTSBpZD0iaV9tZXRhWzIxXSIgdmFsdWU9IjAiIGNjPSItMSIvPjxQQVJBTSBpZD0iaV9tZXRhWzIyXSIgdmFsdWU9IjAiIGNjPSItMSIvPjxQQVJBTSBpZD0iaV9tZXRhWzIzXSIgdmFsdWU9IjAiIGNjPSItMSIvPjxQQVJBTSBpZD0iaV9tZXRhWzI0XSIgdmFsdWU9IjAiIGNjPSItMSIvPjxQQVJBTSBpZD0iaV9tZXRhWzI1XSIgdmFsdWU9IjAiIGNjPSItMSIvPjxQQVJBTSBpZD0iaV9tZXRhWzI2XSIgdmFsdWU9IjAiIGNjPSItMSIvPjxQQVJBTSBpZD0ibV9tYWluIiB2YWx1ZT0iMSIgY2M9IjIyIi8+PFBBUkFNIGlkPSJtX2FsdDEiIHZhbHVlPSIwIiBjYz0iMjMiLz48UEFSQU0gaWQ9Im1fYWx0MiIgdmFsdWU9IjAiIGNjPSIyNCIvPjxQQVJBTSBpZD0ibV9hbHQzIiB2YWx1ZT0iMCIgY2M9IjI1Ii8+PC9QQVJBTUVURVJTPjwvTGFicz4A" program="0" plugin="C:/Program Files/VstPlugins/LABS (64 Bit).dll" guivisible="0"/>
          </instrument>
          <eldata fres="0.5" fwet="0" ftype="0" fcut="14000">
            <elvol x100="0" amt="0" lpdel="0" lshp="0" lspd_numerator="4" att="0" rel="0.1" userwavefile="" lspd_denominator="4" sustain="0.5" pdel="0" ctlenvamt="0" dec="0.5" latt="0" hold="0.5" lspd="0.1" lamt="0" lspd_syncmode="0"/>
            <elcut x100="0" amt="0" lpdel="0" lshp="0" lspd_numerator="4" att="0" rel="0.1" userwavefile="" lspd_denominator="4" sustain="0.5" pdel="0" ctlenvamt="0" dec="0.5" latt="0" hold="0.5" lspd="0.1" lamt="0" lspd_syncmode="0"/>
            <elres x100="0" amt="0" lpdel="0" lshp="0" lspd_numerator="4" att="0" rel="0.1" userwavefile="" lspd_denominator="4" sustain="0.5" pdel="0" ctlenvamt="0" dec="0.5" latt="0" hold="0.5" lspd="0.1" lamt="0" lspd_syncmode="0"/>
          </eldata>
          <chordcreator chord-enabled="0" chordrange="1" chord="0"/>
          <arpeggiator arptime_syncmode="0" arpmiss="0" arptime_numerator="4" arprange="1" arp-enabled="0" arpdir="0" arpcycle="0" arptime_denominator="4" arpskip="0" arpmode="0" arp="0" arptime="200" arpgate="100"/>
          <midiport basevelocity="63" outputcontroller="0" fixedoutputvelocity="-1" readable="0" outputprogram="1" inputcontroller="0" inputchannel="0" fixedoutputnote="-1" writable="0" fixedinputvelocity="-1" outputchannel="1"/>
          <fxchain enabled="0" numofeffects="0"/>
        </instrumenttrack>
        <pattern type="1" muted="0" steps="16" pos="2880" name="Pad 1">
          <note len="48" key="62" pos="144" vol="25" pan="0"/>
          <note len="48" key="50" pos="144" vol="25" pan="0"/>
          <note len="767" key="64" pos="192" vol="39" pan="0"/>
          <note len="191" key="57" pos="192" vol="39" pan="0"/>
          <note len="767" key="52" pos="192" vol="39" pan="0"/>
          <note len="192" key="59" pos="384" vol="39" pan="0"/>
          <note len="192" key="61" pos="576" vol="39" pan="0"/>
          <note len="192" key="62" pos="768" vol="39" pan="0"/>
          <note len="767" key="64" pos="960" vol="39" pan="0"/>
          <note len="191" key="57" pos="960" vol="39" pan="0"/>
          <note len="767" key="52" pos="960" vol="39" pan="0"/>
          <note len="192" key="59" pos="1152" vol="39" pan="0"/>
          <note len="192" key="61" pos="1344" vol="39" pan="0"/>
          <note len="192" key="62" pos="1536" vol="39" pan="0"/>
          <note len="767" key="64" pos="1728" vol="39" pan="0"/>
          <note len="191" key="57" pos="1728" vol="39" pan="0"/>
          <note len="767" key="52" pos="1728" vol="39" pan="0"/>
          <note len="192" key="59" pos="1920" vol="39" pan="0"/>
          <note len="192" key="61" pos="2112" vol="39" pan="0"/>
          <note len="192" key="62" pos="2304" vol="39" pan="0"/>
          <note len="767" key="64" pos="2496" vol="39" pan="0"/>
          <note len="191" key="57" pos="2496" vol="39" pan="0"/>
          <note len="767" key="52" pos="2496" vol="39" pan="0"/>
          <note len="192" key="59" pos="2688" vol="39" pan="0"/>
          <note len="192" key="61" pos="2880" vol="39" pan="0"/>
          <note len="192" key="62" pos="3072" vol="39" pan="0"/>
          <note len="767" key="64" pos="3264" vol="39" pan="0"/>
          <note len="191" key="57" pos="3264" vol="39" pan="0"/>
          <note len="767" key="52" pos="3264" vol="39" pan="0"/>
          <note len="192" key="59" pos="3456" vol="39" pan="0"/>
          <note len="192" key="61" pos="3648" vol="39" pan="0"/>
          <note len="192" key="62" pos="3840" vol="39" pan="0"/>
          <note len="767" key="64" pos="4032" vol="39" pan="0"/>
          <note len="191" key="57" pos="4032" vol="39" pan="0"/>
          <note len="767" key="52" pos="4032" vol="39" pan="0"/>
          <note len="192" key="59" pos="4224" vol="39" pan="0"/>
          <note len="192" key="61" pos="4416" vol="39" pan="0"/>
          <note len="192" key="62" pos="4608" vol="39" pan="0"/>
          <note len="767" key="64" pos="4800" vol="39" pan="0"/>
          <note len="191" key="57" pos="4800" vol="39" pan="0"/>
          <note len="767" key="52" pos="4800" vol="39" pan="0"/>
          <note len="192" key="59" pos="4992" vol="39" pan="0"/>
          <note len="192" key="61" pos="5184" vol="39" pan="0"/>
          <note len="192" key="62" pos="5376" vol="39" pan="0"/>
          <note len="767" key="64" pos="5568" vol="39" pan="0"/>
          <note len="191" key="57" pos="5568" vol="39" pan="0"/>
          <note len="767" key="52" pos="5568" vol="39" pan="0"/>
          <note len="192" key="59" pos="5760" vol="39" pan="0"/>
          <note len="192" key="61" pos="5952" vol="39" pan="0"/>
          <note len="192" key="62" pos="6144" vol="39" pan="0"/>
          <note len="767" key="64" pos="6336" vol="39" pan="0"/>
          <note len="191" key="57" pos="6336" vol="39" pan="0"/>
          <note len="767" key="52" pos="6336" vol="39" pan="0"/>
          <note len="192" key="59" pos="6528" vol="39" pan="0"/>
          <note len="192" key="61" pos="6720" vol="39" pan="0"/>
          <note len="192" key="62" pos="6912" vol="39" pan="0"/>
          <note len="767" key="64" pos="7104" vol="39" pan="0"/>
          <note len="191" key="57" pos="7104" vol="39" pan="0"/>
          <note len="767" key="52" pos="7104" vol="39" pan="0"/>
          <note len="192" key="59" pos="7296" vol="39" pan="0"/>
          <note len="192" key="61" pos="7488" vol="39" pan="0"/>
          <note len="192" key="62" pos="7680" vol="39" pan="0"/>
        </pattern>
        <pattern type="1" muted="0" steps="16" pos="13632" name="Pad 1">
          <note len="48" key="62" pos="144" vol="25" pan="0"/>
          <note len="48" key="50" pos="144" vol="25" pan="0"/>
          <note len="767" key="64" pos="192" vol="39" pan="0"/>
          <note len="191" key="57" pos="192" vol="39" pan="0"/>
          <note len="767" key="52" pos="192" vol="39" pan="0"/>
          <note len="192" key="59" pos="384" vol="39" pan="0"/>
          <note len="192" key="61" pos="576" vol="39" pan="0"/>
          <note len="192" key="62" pos="768" vol="39" pan="0"/>
          <note len="767" key="64" pos="960" vol="39" pan="0"/>
          <note len="191" key="57" pos="960" vol="39" pan="0"/>
          <note len="767" key="52" pos="960" vol="39" pan="0"/>
          <note len="192" key="59" pos="1152" vol="39" pan="0"/>
          <note len="192" key="61" pos="1344" vol="39" pan="0"/>
          <note len="192" key="62" pos="1536" vol="39" pan="0"/>
          <note len="767" key="64" pos="1728" vol="39" pan="0"/>
          <note len="191" key="57" pos="1728" vol="39" pan="0"/>
          <note len="767" key="52" pos="1728" vol="39" pan="0"/>
          <note len="192" key="59" pos="1920" vol="39" pan="0"/>
          <note len="192" key="61" pos="2112" vol="39" pan="0"/>
          <note len="192" key="62" pos="2304" vol="39" pan="0"/>
          <note len="767" key="64" pos="2496" vol="39" pan="0"/>
          <note len="191" key="57" pos="2496" vol="39" pan="0"/>
          <note len="767" key="52" pos="2496" vol="39" pan="0"/>
          <note len="192" key="59" pos="2688" vol="39" pan="0"/>
          <note len="192" key="61" pos="2880" vol="39" pan="0"/>
          <note len="192" key="62" pos="3072" vol="39" pan="0"/>
          <note len="767" key="64" pos="3264" vol="39" pan="0"/>
          <note len="191" key="57" pos="3264" vol="39" pan="0"/>
          <note len="767" key="52" pos="3264" vol="39" pan="0"/>
          <note len="192" key="59" pos="3456" vol="39" pan="0"/>
          <note len="192" key="61" pos="3648" vol="39" pan="0"/>
          <note len="192" key="62" pos="3840" vol="39" pan="0"/>
          <note len="767" key="64" pos="4032" vol="39" pan="0"/>
          <note len="191" key="57" pos="4032" vol="39" pan="0"/>
          <note len="767" key="52" pos="4032" vol="39" pan="0"/>
          <note len="192" key="59" pos="4224" vol="39" pan="0"/>
          <note len="192" key="61" pos="4416" vol="39" pan="0"/>
          <note len="192" key="62" pos="4608" vol="39" pan="0"/>
          <note len="767" key="64" pos="4800" vol="39" pan="0"/>
          <note len="191" key="57" pos="4800" vol="39" pan="0"/>
          <note len="767" key="52" pos="4800" vol="39" pan="0"/>
          <note len="192" key="59" pos="4992" vol="39" pan="0"/>
          <note len="192" key="61" pos="5184" vol="39" pan="0"/>
          <note len="192" key="62" pos="5376" vol="39" pan="0"/>
          <note len="767" key="64" pos="5568" vol="39" pan="0"/>
          <note len="191" key="57" pos="5568" vol="39" pan="0"/>
          <note len="767" key="52" pos="5568" vol="39" pan="0"/>
          <note len="192" key="59" pos="5760" vol="39" pan="0"/>
          <note len="192" key="61" pos="5952" vol="39" pan="0"/>
          <note len="192" key="62" pos="6144" vol="39" pan="0"/>
          <note len="767" key="64" pos="6336" vol="39" pan="0"/>
          <note len="191" key="57" pos="6336" vol="39" pan="0"/>
          <note len="767" key="52" pos="6336" vol="39" pan="0"/>
          <note len="192" key="59" pos="6528" vol="39" pan="0"/>
          <note len="192" key="61" pos="6720" vol="39" pan="0"/>
          <note len="192" key="62" pos="6912" vol="39" pan="0"/>
          <note len="767" key="64" pos="7104" vol="39" pan="0"/>
          <note len="191" key="57" pos="7104" vol="39" pan="0"/>
          <note len="767" key="52" pos="7104" vol="39" pan="0"/>
          <note len="192" key="59" pos="7296" vol="39" pan="0"/>
          <note len="192" key="61" pos="7488" vol="39" pan="0"/>
          <note len="192" key="62" pos="7680" vol="39" pan="0"/>
        </pattern>
      </track>
      <track type="0" muted="0" solo="0" name="Pad 2">
        <instrumenttrack basenote="57" pitch="0" pitchrange="2" fxch="1" vol="10" pan="-20" usemasterpitch="1">
          <instrument name="vestige">
            <vestige chunk="VkMyISFVAAA8P3htbCB2ZXJzaW9uPSIxLjAiIGVuY29kaW5nPSJVVEYtOCI/PiA8U1BJVEZJUkVBVURJT19BVU5USUU+PE1FVEEgZmFtaWx5PSJTdHJpbmdzIiBuYW1lPSJEaXNjb3ZlciAtIFZpb2xhcyIgcHJvZHVjdE1vZGU9IjEwIiB2ZXJzaW9uPSIxLjIuMCIgdGFncz0iMTAwOlNlbGVjdGlvbiwyMDUwMDAwOlN0cmluZ3MsMjA1MDIwMDpWaW9sYXMsU3RyaW5ncyIgbW9kaWZpZWQ9IjEiLz48VUkgdWlzaXplPSIxLjAiIHVpY29sbGFwc2VkPSIwIi8+PEFSVElDUz48U0VUVElORyBpZD0icF9zeW5jVG9UZW1wbyIgdmFsdWU9IjEiLz48U0VUVElORyBpZD0icF9keW5hbWljc1ZlbG9jaXR5TW9kZSIgdmFsdWU9IkNPTVBSRVNTRUQgVkVMT0NJVFkgTE9XIi8+PFNFVFRJTkcgaWQ9InBfc2hvcnRSVE1vZGUiIHZhbHVlPSItMi4wIi8+PFNFVFRJTkcgaWQ9InBfdmVsb2NpdHlDdXJ2ZSIgdmFsdWU9IkxJTkVBUiBWRUxPQ0lUWSIvPjxTRVRUSU5HIGlkPSJwX3F1YW50aXNlTW9kZSIgdmFsdWU9IiIvPjxTRVRUSU5HIGlkPSJwX21peGVyQWR2YW5jZWQiIHZhbHVlPSIxIi8+PFNFVFRJTkcgaWQ9InBfbWl4ZXJHbG9iYWwiIHZhbHVlPSIxIi8+PFNFVFRJTkcgaWQ9InBfbWl4ZXJMb2NrIiB2YWx1ZT0iMCIvPjxTRVRUSU5HIGlkPSJwX21peGVyUGFnZSIgdmFsdWU9IiIvPjxTRVRUSU5HIGlkPSJwX2FydGljTG9jayIgdmFsdWU9IjAiLz48U0VUVElORyBpZD0icF9hcnRpY1BhZ2UiIHZhbHVlPSIvVHlwaG9uL0FydGljdWxhdGlvbk1hdHJpeFBhZ2VTZWxlY3Rvci8wIi8+PFNFVFRJTkcgaWQ9InBfbGFzdFNlbGVjdGVkUHJpbWFyeUFydGljIiB2YWx1ZT0iMCIvPjxTRVRUSU5HIGlkPSJwX21pZGlDaGFubmVsIiB2YWx1ZT0iMCIvPjxTRVRUSU5HIGlkPSJwX3NlbGVjdGVkVGFncyIgdmFsdWU9IiIvPjxTRVRUSU5HIGlkPSJwX2ZpbHRlclBvcyIgdmFsdWU9IltdIi8+PFNFVFRJTkcgaWQ9InBfcHJlc2V0UG9zIiB2YWx1ZT0iW10iLz48U0VUVElORyBpZD0icF9ldm9Db250YWluZXJQb3MiIHZhbHVlPSJbXSIvPjxTRVRUSU5HIGlkPSJwX29jdGF2ZSIgdmFsdWU9IjAiLz48U0VUVElORyBpZD0icF9vZGVzdEluZGljZXMiIHZhbHVlPSIwLDEsMiwzLDQsNSw2LDcsOCw5LDEwLDExLDEyLDEzLDE0LDE1LDE2LDE3LDE4LDE5LDIwLDIxLDIyLDIzLDI0LDI1LDI2LDI3LDI4LDI5LDMwLDMxLDMyLDMzLDM0LDM1LDM2LDM3LDM4LDM5LDQwLDQxLDQyLDQzLDQ0LDQ1LDQ2LDQ3LDQ4LDQ5LDUwLDUxLDUyLDUzLDU0LDU1LDU2LDU3LDU4LDU5LDYwLDYxLDYyLDYzLDY0LDY1LDY2LDY3LDY4LDY5LDcwLDcxLDcyLDczLDc0LDc1LDc2LDc3LDc4LDc5LDgwLDgxLDgyLDgzLDg0LDg1LDg2LDg3LDg4LDg5LDkwLDkxLDkyLDkzLDk0LDk1LDk2LDk3LDk4LDk5LDEwMCwxMDEsMTAyLDEwMywxMDQsMTA1LDEwNiwxMDcsMTA4LDEwOSwxMTAsMTExLDExMiwxMTMsMTE0LDExNSwxMTYsMTE3LDExOCwxMTksMTIwLDEyMSwxMjIsMTIzLDEyNCwxMjUsMTI2LDEyNywxMjgsMTI5LDEzMCwxMzEsMTMyLDEzMywxMzQsMTM1LDEzNiwxMzcsMTM4LDEzOSwxNDAsMTQxLDE0MiwxNDMsMTQ0LDE0NSwxNDYsMTQ3LDE0OCwxNDksMTUwLDE1MSwxNTIsMTUzLDE1NCwxNTUsMTU2LDE1NywxNTgsMTU5LDE2MCwxNjEsMTYyLDE2MywxNjQsMTY1LDE2NiwxNjcsMTY4LDE2OSwxNzAsMTcxLDE3MiwxNzMsMTc0LDE3NSwxNzYsMTc3LDE3OCwxNzksMTgwLDE4MSwxODIsMTgzLDE4NCwxODUsMTg2LDE4NywxODgsMTg5LDE5MCwxOTEsMTkyLDE5MywxOTQsMTk1LDE5NiwxOTcsMTk4LDE5OSwyMDAsMjAxLDIwMiwyMDMsMjA0LDIwNSwyMDYsMjA3LDIwOCwyMDksMjEwLDIxMSwyMTIsMjEzLDIxNCwyMTUsMjE2LDIxNywyMTgsMjE5LDIyMCwyMjEsMjIyLDIyMywyMjQsMjI1LDIyNiwyMjcsMjI4LDIyOSwyMzAsMjMxLDIzMiwyMzMsMjM0LDIzNSwyMzYsMjM3LDIzOCwyMzksMjQwLDI0MSwyNDIsMjQzLDI0NCwyNDUsMjQ2LDI0NywyNDgsMjQ5LDI1MCwyNTEsMjUyLDI1MywyNTQsMjU1LDI1NiwyNTcsMjU4LDI1OSwyNjAsMjYxLDI2MiwyNjMsMjY0Ii8+PEFSVElDPjxTRVRUSU5HIGlkPSJhX25hbWUiIHZhbHVlPSJmIC0gVmlvbGFzIC0gTG9uZyIvPjxTRVRUSU5HIGlkPSJhX3ZlcnNpb24iIHZhbHVlPSIxNjkwODI4OCIvPjxTRVRUSU5HIGlkPSJhX3RlbXBsYXRlSWR4IiB2YWx1ZT0iMCIvPjxTRVRUSU5HIGlkPSJhX29kZXN0IiB2YWx1ZT0iUkVWRVJCIi8+PFNFVFRJTkcgaWQ9ImFfYWN0aXZlIiB2YWx1ZT0iMiIvPjxTRVRUSU5HIGlkPSJhX2JhY2tBY3RpdmUiIHZhbHVlPSIwIi8+PFNFVFRJTkcgaWQ9ImFfdHdvSGFuZGVkIiB2YWx1ZT0iMCIvPjxTRVRUSU5HIGlkPSJhX2F1dG9NYWtlVXAiIHZhbHVlPSIwIi8+PFNFVFRJTkcgaWQ9InRfdHlwZSIgdmFsdWU9IjEiLz48U0VUVElORyBpZD0idF9lbmFibGVkIiB2YWx1ZT0iMSIvPjxTRVRUSU5HIGlkPSJ0X2xhdGNoIiB2YWx1ZT0iMCIvPjxTRVRUSU5HIGlkPSJ0X2tleXN3aXRjaCIgdmFsdWU9IjAiLz48U0VUVElORyBpZD0idF9taWRpQ2hhbm5lbCIgdmFsdWU9IjEiLz48U0VUVElORyBpZD0idF92ZWxGcm9tIiB2YWx1ZT0iMSIvPjxTRVRUSU5HIGlkPSJ0X3ZlbFRvIiB2YWx1ZT0iMTI3Ii8+PFNFVFRJTkcgaWQ9InRfY2MiIHZhbHVlPSIzMiIvPjxTRVRUSU5HIGlkPSJ0X2NjVmFsdWVGcm9tIiB2YWx1ZT0iMCIvPjxTRVRUSU5HIGlkPSJ0X2NjVmFsdWVUbyIgdmFsdWU9IjEyNyIvPjxTRVRUSU5HIGlkPSJ0X3NwZWVkRnJvbSIgdmFsdWU9IjAuMCIvPjxTRVRUSU5HIGlkPSJ0X3NwZWVkVG8iIHZhbHVlPSIwLjUiLz48U0VUVElORyBpZD0idF9wcm9ncmFtQ2hhbmdlIiB2YWx1ZT0iMCIvPjxTRVRUSU5HIGlkPSJycl90aW1lb3V0IiB2YWx1ZT0iLTEuMCIvPjxTRVRUSU5HIGlkPSJycl9uZWlnaGJvdXJNaW4iIHZhbHVlPSI0OCIvPjxTRVRUSU5HIGlkPSJycl9uZWlnaGJvdXJNYXgiIHZhbHVlPSI5MCIvPjxTRVRUSU5HIGlkPSJycl91c2VOZWlnaGJvdXIiIHZhbHVlPSIwIi8+PFNFVFRJTkcgaWQ9InJyX2NvdW50IiB2YWx1ZT0iLTEiLz48U0VUVElORyBpZD0icnJfaW5jIiB2YWx1ZT0iMSIvPjxTRVRUSU5HIGlkPSJycl9sYXllcnMiIHZhbHVlPSIxIi8+PFNFVFRJTkcgaWQ9InJyX2dhaW4iIHZhbHVlPSIxLjAiLz48U0VUVElORyBpZD0icnJfc3RhcnQiIHZhbHVlPSIwIi8+PFNFVFRJTkcgaWQ9InJyX3N5bmMiIHZhbHVlPSIwIi8+PFNFVFRJTkcgaWQ9InJyX3BsYXkiIHZhbHVlPSIxIi8+PFNFVFRJTkcgaWQ9InJyX2tleXN3aXRjaEZyb20iIHZhbHVlPSItMSIvPjxTRVRUSU5HIGlkPSJycl9rZXlzd2l0Y2hUbyIgdmFsdWU9Ii0xIi8+PFNFVFRJTkcgaWQ9InJyX2tleXN3aXRjaFRvIiB2YWx1ZT0iLTEiLz48U0VUVElORyBpZD0icnJfbW9kZSIgdmFsdWU9IjAiLz48U0VUVElORyBpZD0icl9taWRpQ2hhbm5lbCIgdmFsdWU9IjAiLz48U0VUVElORyBpZD0icl90cmFuc3Bvc2UiIHZhbHVlPSIwIi8+PFNFVFRJTkcgaWQ9InJfbGF5ZXJUcmFuc3Bvc2UiIHZhbHVlPSIwIi8+PFNFVFRJTkcgaWQ9ImlfZXhwcmVzc2lvbiIgdmFsdWU9IjEuMCIvPjxTRVRUSU5HIGlkPSJpX2R5bmFtaWNzIiB2YWx1ZT0iMS4wIi8+PFNFVFRJTkcgaWQ9ImlfcmV2ZXJiIiB2YWx1ZT0iMC4wIi8+PFNFVFRJTkcgaWQ9ImlfcmVsZWFzZSIgdmFsdWU9IjAuNSIvPjxTRVRUSU5HIGlkPSJpX3RpZ2h0IiB2YWx1ZT0iMC4wIi8+PFNFVFRJTkcgaWQ9ImlfdmlicmF0byIgdmFsdWU9IjEuMCIvPjxTRVRUSU5HIGlkPSJpX3ZhcmlhdGlvbiIgdmFsdWU9IjAuMCIvPjxTRVRUSU5HIGlkPSJzX3BhbiIgdmFsdWU9IjAuNSIvPjxTRVRUSU5HIGlkPSJzX3dpZHRoIiB2YWx1ZT0iMC41Ii8+PFNFVFRJTkcgaWQ9InNfZmxpcCIgdmFsdWU9IjAuMCIvPjxNSVg+PFNFVFRJTkcgaWQ9Im1fbW9ubyIgdmFsdWU9IjAuMCIgbWljSWQ9IjEiLz48U0VUVElORyBpZD0iZV9tb25vIiB2YWx1ZT0iMCIgbWljSWQ9IjEiLz48U0VUVElORyBpZD0iYl9tb25vIiB2YWx1ZT0iMCIgbWljSWQ9IjEiLz48U0VUVElORyBpZD0ibV90cmVlIiB2YWx1ZT0iMC4wIiBtaWNJZD0iMiIvPjxTRVRUSU5HIGlkPSJlX3RyZWUiIHZhbHVlPSIwIiBtaWNJZD0iMiIvPjxTRVRUSU5HIGlkPSJiX3RyZWUiIHZhbHVlPSIwIiBtaWNJZD0iMiIvPjxTRVRUSU5HIGlkPSJtX291dCIgdmFsdWU9IjAuMCIgbWljSWQ9IjMiLz48U0VUVElORyBpZD0iZV9vdXQiIHZhbHVlPSIwIiBtaWNJZD0iMyIvPjxTRVRUSU5HIGlkPSJiX291dCIgdmFsdWU9IjAiIG1pY0lkPSIzIi8+PFNFVFRJTkcgaWQ9Im1fYW1iIiB2YWx1ZT0iMC4wIiBtaWNJZD0iNCIvPjxTRVRUSU5HIGlkPSJlX2FtYiIgdmFsdWU9IjAiIG1pY0lkPSI0Ii8+PFNFVFRJTkcgaWQ9ImJfYW1iIiB2YWx1ZT0iMCIgbWljSWQ9IjQiLz48U0VUVElORyBpZD0ibV9iYWxjb255IiB2YWx1ZT0iMC4wIiBtaWNJZD0iNSIvPjxTRVRUSU5HIGlkPSJlX2JhbGNvbnkiIHZhbHVlPSIwIiBtaWNJZD0iNSIvPjxTRVRUSU5HIGlkPSJiX2JhbGNvbnkiIHZhbHVlPSIwIiBtaWNJZD0iNSIvPjxTRVRUSU5HIGlkPSJtX3NpZGVzIiB2YWx1ZT0iMC4wIiBtaWNJZD0iNiIvPjxTRVRUSU5HIGlkPSJlX3NpZGVzIiB2YWx1ZT0iMCIgbWljSWQ9IjYiLz48U0VUVElORyBpZD0iYl9zaWRlcyIgdmFsdWU9IjAiIG1pY0lkPSI2Ii8+PFNFVFRJTkcgaWQ9Im1fYXRtb3NmIiB2YWx1ZT0iMC4wIiBtaWNJZD0iNyIvPjxTRVRUSU5HIGlkPSJlX2F0bW9zZiIgdmFsdWU9IjAiIG1pY0lkPSI3Ii8+PFNFVFRJTkcgaWQ9ImJfYXRtb3NmIiB2YWx1ZT0iMCIgbWljSWQ9IjciLz48U0VUVElORyBpZD0ibV9hdG1vc3IiIHZhbHVlPSIwLjAiIG1pY0lkPSI4Ii8+PFNFVFRJTkcgaWQ9ImVfYXRtb3NyIiB2YWx1ZT0iMCIgbWljSWQ9IjgiLz48U0VUVElORyBpZD0iYl9hdG1vc3IiIHZhbHVlPSIwIiBtaWNJZD0iOCIvPjxTRVRUSU5HIGlkPSJtX21pZHMiIHZhbHVlPSIwLjAiIG1pY0lkPSI5Ii8+PFNFVFRJTkcgaWQ9ImVfbWlkcyIgdmFsdWU9IjAiIG1pY0lkPSI5Ii8+PFNFVFRJTkcgaWQ9ImJfbWlkcyIgdmFsdWU9IjAiIG1pY0lkPSI5Ii8+PFNFVFRJTkcgaWQ9Im1fc3RlcmVvIiB2YWx1ZT0iMC4wIiBtaWNJZD0iMTAiLz48U0VUVElORyBpZD0iZV9zdGVyZW8iIHZhbHVlPSIwIiBtaWNJZD0iMTAiLz48U0VUVElORyBpZD0iYl9zdGVyZW8iIHZhbHVlPSIwIiBtaWNJZD0iMTAiLz48U0VUVElORyBpZD0ibV9sZWFkZXIiIHZhbHVlPSIwLjAiIG1pY0lkPSIxMSIvPjxTRVRUSU5HIGlkPSJlX2xlYWRlciIgdmFsdWU9IjAiIG1pY0lkPSIxMSIvPjxTRVRUSU5HIGlkPSJiX2xlYWRlciIgdmFsdWU9IjAiIG1pY0lkPSIxMSIvPjxTRVRUSU5HIGlkPSJtX2Nsb3NlIiB2YWx1ZT0iMC4wIiBtaWNJZD0iMTIiLz48U0VUVElORyBpZD0iZV9jbG9zZSIgdmFsdWU9IjAiIG1pY0lkPSIxMiIvPjxTRVRUSU5HIGlkPSJiX2Nsb3NlIiB2YWx1ZT0iMCIgbWljSWQ9IjEyIi8+PFNFVFRJTkcgaWQ9Im1fY2x3ZHBhbiIgdmFsdWU9IjAuMCIgbWljSWQ9IjEzIi8+PFNFVFRJTkcgaWQ9ImVfY2x3ZHBhbiIgdmFsdWU9IjAiIG1pY0lkPSIxMyIvPjxTRVRUSU5HIGlkPSJiX2Nsd2RwYW4iIHZhbHVlPSIwIiBtaWNJZD0iMTMiLz48U0VUVElORyBpZD0ibV9zcGxsc3RyIiB2YWx1ZT0iMC4wIiBtaWNJZD0iMTQiLz48U0VUVElORyBpZD0iZV9zcGxsc3RyIiB2YWx1ZT0iMCIgbWljSWQ9IjE0Ii8+PFNFVFRJTkcgaWQ9ImJfc3BsbHN0ciIgdmFsdWU9IjAiIG1pY0lkPSIxNCIvPjxTRVRUSU5HIGlkPSJtX3NwbGx3bmQiIHZhbHVlPSIwLjAiIG1pY0lkPSIxNSIvPjxTRVRUSU5HIGlkPSJlX3NwbGx3bmQiIHZhbHVlPSIwIiBtaWNJZD0iMTUiLz48U0VUVElORyBpZD0iYl9zcGxsd25kIiB2YWx1ZT0iMCIgbWljSWQ9IjE1Ii8+PFNFVFRJTkcgaWQ9Im1fc3BsbGJyIiB2YWx1ZT0iMC4wIiBtaWNJZD0iMTYiLz48U0VUVElORyBpZD0iZV9zcGxsYnIiIHZhbHVlPSIwIiBtaWNJZD0iMTYiLz48U0VUVElORyBpZD0iYl9zcGxsYnIiIHZhbHVlPSIwIiBtaWNJZD0iMTYiLz48U0VUVElORyBpZD0ibV9zcGxscGVyIiB2YWx1ZT0iMC4wIiBtaWNJZD0iMTciLz48U0VUVElORyBpZD0iZV9zcGxscGVyIiB2YWx1ZT0iMCIgbWljSWQ9IjE3Ii8+PFNFVFRJTkcgaWQ9ImJfc3BsbHBlciIgdmFsdWU9IjAiIG1pY0lkPSIxNyIvPjxTRVRUSU5HIGlkPSJtX3NwbGxmbGwiIHZhbHVlPSIwLjAiIG1pY0lkPSIxOCIvPjxTRVRUSU5HIGlkPSJlX3NwbGxmbGwiIHZhbHVlPSIwIiBtaWNJZD0iMTgiLz48U0VUVElORyBpZD0iYl9zcGxsZmxsIiB2YWx1ZT0iMCIgbWljSWQ9IjE4Ii8+PFNFVFRJTkcgaWQ9Im1fZmxteHJsIiB2YWx1ZT0iMS4wIiBtaWNJZD0iMTkiLz48U0VUVElORyBpZD0iZV9mbG14cmwiIHZhbHVlPSIxIiBtaWNJZD0iMTkiLz48U0VUVElORyBpZD0iYl9mbG14cmwiIHZhbHVlPSIwIiBtaWNJZD0iMTkiLz48U0VUVElORyBpZD0ibV9mbG14amoiIHZhbHVlPSIwLjAiIG1pY0lkPSIyMCIvPjxTRVRUSU5HIGlkPSJlX2ZsbXhqaiIgdmFsdWU9IjAiIG1pY0lkPSIyMCIvPjxTRVRUSU5HIGlkPSJiX2ZsbXhqaiIgdmFsdWU9IjAiIG1pY0lkPSIyMCIvPjwvTUlYPjwvQVJUSUM+PEFSVElDPjxTRVRUSU5HIGlkPSJhX25hbWUiIHZhbHVlPSJmIC0gVmlvbGFzIC0gU2hvcnQgU3BpY2NhdG8iLz48U0VUVElORyBpZD0iYV92ZXJzaW9uIiB2YWx1ZT0iMTY5MDgyODgiLz48U0VUVElORyBpZD0iYV90ZW1wbGF0ZUlkeCIgdmFsdWU9IjAiLz48U0VUVElORyBpZD0iYV9vZGVzdCIgdmFsdWU9IlJFVkVSQiIvPjxTRVRUSU5HIGlkPSJhX2FjdGl2ZSIgdmFsdWU9IjAiLz48U0VUVElORyBpZD0iYV9iYWNrQWN0aXZlIiB2YWx1ZT0iMCIvPjxTRVRUSU5HIGlkPSJhX3R3b0hhbmRlZCIgdmFsdWU9IjAiLz48U0VUVElORyBpZD0iYV9hdXRvTWFrZVVwIiB2YWx1ZT0iMCIvPjxTRVRUSU5HIGlkPSJ0X3R5cGUiIHZhbHVlPSIxIi8+PFNFVFRJTkcgaWQ9InRfZW5hYmxlZCIgdmFsdWU9IjEiLz48U0VUVElORyBpZD0idF9sYXRjaCIgdmFsdWU9IjAiLz48U0VUVElORyBpZD0idF9rZXlzd2l0Y2giIHZhbHVlPSIxIi8+PFNFVFRJTkcgaWQ9InRfbWlkaUNoYW5uZWwiIHZhbHVlPSIxIi8+PFNFVFRJTkcgaWQ9InRfdmVsRnJvbSIgdmFsdWU9IjEiLz48U0VUVElORyBpZD0idF92ZWxUbyIgdmFsdWU9IjEyNyIvPjxTRVRUSU5HIGlkPSJ0X2NjIiB2YWx1ZT0iMzIiLz48U0VUVElORyBpZD0idF9jY1ZhbHVlRnJvbSIgdmFsdWU9IjAiLz48U0VUVElORyBpZD0idF9jY1ZhbHVlVG8iIHZhbHVlPSIxMjciLz48U0VUVElORyBpZD0idF9zcGVlZEZyb20iIHZhbHVlPSIwLjAiLz48U0VUVElORyBpZD0idF9zcGVlZFRvIiB2YWx1ZT0iMC41Ii8+PFNFVFRJTkcgaWQ9InRfcHJvZ3JhbUNoYW5nZSIgdmFsdWU9IjAiLz48U0VUVElORyBpZD0icnJfdGltZW91dCIgdmFsdWU9Ii0xLjAiLz48U0VUVElORyBpZD0icnJfbmVpZ2hib3VyTWluIiB2YWx1ZT0iNDgiLz48U0VUVElORyBpZD0icnJfbmVpZ2hib3VyTWF4IiB2YWx1ZT0iOTAiLz48U0VUVElORyBpZD0icnJfdXNlTmVpZ2hib3VyIiB2YWx1ZT0iMCIvPjxTRVRUSU5HIGlkPSJycl9jb3VudCIgdmFsdWU9Ii0xIi8+PFNFVFRJTkcgaWQ9InJyX2luYyIgdmFsdWU9IjEiLz48U0VUVElORyBpZD0icnJfbGF5ZXJzIiB2YWx1ZT0iMSIvPjxTRVRUSU5HIGlkPSJycl9nYWluIiB2YWx1ZT0iMS4wIi8+PFNFVFRJTkcgaWQ9InJyX3N0YXJ0IiB2YWx1ZT0iMCIvPjxTRVRUSU5HIGlkPSJycl9zeW5jIiB2YWx1ZT0iMCIvPjxTRVRUSU5HIGlkPSJycl9wbGF5IiB2YWx1ZT0iMSIvPjxTRVRUSU5HIGlkPSJycl9rZXlzd2l0Y2hGcm9tIiB2YWx1ZT0iLTEiLz48U0VUVElORyBpZD0icnJfa2V5c3dpdGNoVG8iIHZhbHVlPSItMSIvPjxTRVRUSU5HIGlkPSJycl9rZXlzd2l0Y2hUbyIgdmFsdWU9Ii0xIi8+PFNFVFRJTkcgaWQ9InJyX21vZGUiIHZhbHVlPSIwIi8+PFNFVFRJTkcgaWQ9InJfbWlkaUNoYW5uZWwiIHZhbHVlPSIwIi8+PFNFVFRJTkcgaWQ9InJfdHJhbnNwb3NlIiB2YWx1ZT0iMCIvPjxTRVRUSU5HIGlkPSJyX2xheWVyVHJhbnNwb3NlIiB2YWx1ZT0iMCIvPjxTRVRUSU5HIGlkPSJpX2V4cHJlc3Npb24iIHZhbHVlPSIxLjAiLz48U0VUVElORyBpZD0iaV9keW5hbWljcyIgdmFsdWU9IjEuMCIvPjxTRVRUSU5HIGlkPSJpX3JldmVyYiIgdmFsdWU9IjAuMCIvPjxTRVRUSU5HIGlkPSJpX3JlbGVhc2UiIHZhbHVlPSIwLjUiLz48U0VUVElORyBpZD0iaV90aWdodCIgdmFsdWU9IjAuMCIvPjxTRVRUSU5HIGlkPSJpX3ZpYnJhdG8iIHZhbHVlPSIxLjAiLz48U0VUVElORyBpZD0iaV92YXJpYXRpb24iIHZhbHVlPSIwLjAiLz48U0VUVElORyBpZD0ic19wYW4iIHZhbHVlPSIwLjUiLz48U0VUVElORyBpZD0ic193aWR0aCIgdmFsdWU9IjAuNSIvPjxTRVRUSU5HIGlkPSJzX2ZsaXAiIHZhbHVlPSIwLjAiLz48TUlYPjxTRVRUSU5HIGlkPSJtX21vbm8iIHZhbHVlPSIwLjAiIG1pY0lkPSIxIi8+PFNFVFRJTkcgaWQ9ImVfbW9ubyIgdmFsdWU9IjAiIG1pY0lkPSIxIi8+PFNFVFRJTkcgaWQ9ImJfbW9ubyIgdmFsdWU9IjAiIG1pY0lkPSIxIi8+PFNFVFRJTkcgaWQ9Im1fdHJlZSIgdmFsdWU9IjAuMCIgbWljSWQ9IjIiLz48U0VUVElORyBpZD0iZV90cmVlIiB2YWx1ZT0iMCIgbWljSWQ9IjIiLz48U0VUVElORyBpZD0iYl90cmVlIiB2YWx1ZT0iMCIgbWljSWQ9IjIiLz48U0VUVElORyBpZD0ibV9vdXQiIHZhbHVlPSIwLjAiIG1pY0lkPSIzIi8+PFNFVFRJTkcgaWQ9ImVfb3V0IiB2YWx1ZT0iMCIgbWljSWQ9IjMiLz48U0VUVElORyBpZD0iYl9vdXQiIHZhbHVlPSIwIiBtaWNJZD0iMyIvPjxTRVRUSU5HIGlkPSJtX2FtYiIgdmFsdWU9IjAuMCIgbWljSWQ9IjQiLz48U0VUVElORyBpZD0iZV9hbWIiIHZhbHVlPSIwIiBtaWNJZD0iNCIvPjxTRVRUSU5HIGlkPSJiX2FtYiIgdmFsdWU9IjAiIG1pY0lkPSI0Ii8+PFNFVFRJTkcgaWQ9Im1fYmFsY29ueSIgdmFsdWU9IjAuMCIgbWljSWQ9IjUiLz48U0VUVElORyBpZD0iZV9iYWxjb255IiB2YWx1ZT0iMCIgbWljSWQ9IjUiLz48U0VUVElORyBpZD0iYl9iYWxjb255IiB2YWx1ZT0iMCIgbWljSWQ9IjUiLz48U0VUVElORyBpZD0ibV9zaWRlcyIgdmFsdWU9IjAuMCIgbWljSWQ9IjYiLz48U0VUVElORyBpZD0iZV9zaWRlcyIgdmFsdWU9IjAiIG1pY0lkPSI2Ii8+PFNFVFRJTkcgaWQ9ImJfc2lkZXMiIHZhbHVlPSIwIiBtaWNJZD0iNiIvPjxTRVRUSU5HIGlkPSJtX2F0bW9zZiIgdmFsdWU9IjAuMCIgbWljSWQ9IjciLz48U0VUVElORyBpZD0iZV9hdG1vc2YiIHZhbHVlPSIwIiBtaWNJZD0iNyIvPjxTRVRUSU5HIGlkPSJiX2F0bW9zZiIgdmFsdWU9IjAiIG1pY0lkPSI3Ii8+PFNFVFRJTkcgaWQ9Im1fYXRtb3NyIiB2YWx1ZT0iMC4wIiBtaWNJZD0iOCIvPjxTRVRUSU5HIGlkPSJlX2F0bW9zciIgdmFsdWU9IjAiIG1pY0lkPSI4Ii8+PFNFVFRJTkcgaWQ9ImJfYXRtb3NyIiB2YWx1ZT0iMCIgbWljSWQ9IjgiLz48U0VUVElORyBpZD0ibV9taWRzIiB2YWx1ZT0iMC4wIiBtaWNJZD0iOSIvPjxTRVRUSU5HIGlkPSJlX21pZHMiIHZhbHVlPSIwIiBtaWNJZD0iOSIvPjxTRVRUSU5HIGlkPSJiX21pZHMiIHZhbHVlPSIwIiBtaWNJZD0iOSIvPjxTRVRUSU5HIGlkPSJtX3N0ZXJlbyIgdmFsdWU9IjAuMCIgbWljSWQ9IjEwIi8+PFNFVFRJTkcgaWQ9ImVfc3RlcmVvIiB2YWx1ZT0iMCIgbWljSWQ9IjEwIi8+PFNFVFRJTkcgaWQ9ImJfc3RlcmVvIiB2YWx1ZT0iMCIgbWljSWQ9IjEwIi8+PFNFVFRJTkcgaWQ9Im1fbGVhZGVyIiB2YWx1ZT0iMC4wIiBtaWNJZD0iMTEiLz48U0VUVElORyBpZD0iZV9sZWFkZXIiIHZhbHVlPSIwIiBtaWNJZD0iMTEiLz48U0VUVElORyBpZD0iYl9sZWFkZXIiIHZhbHVlPSIwIiBtaWNJZD0iMTEiLz48U0VUVElORyBpZD0ibV9jbG9zZSIgdmFsdWU9IjAuMCIgbWljSWQ9IjEyIi8+PFNFVFRJTkcgaWQ9ImVfY2xvc2UiIHZhbHVlPSIwIiBtaWNJZD0iMTIiLz48U0VUVElORyBpZD0iYl9jbG9zZSIgdmFsdWU9IjAiIG1pY0lkPSIxMiIvPjxTRVRUSU5HIGlkPSJtX2Nsd2RwYW4iIHZhbHVlPSIwLjAiIG1pY0lkPSIxMyIvPjxTRVRUSU5HIGlkPSJlX2Nsd2RwYW4iIHZhbHVlPSIwIiBtaWNJZD0iMTMiLz48U0VUVElORyBpZD0iYl9jbHdkcGFuIiB2YWx1ZT0iMCIgbWljSWQ9IjEzIi8+PFNFVFRJTkcgaWQ9Im1fc3BsbHN0ciIgdmFsdWU9IjAuMCIgbWljSWQ9IjE0Ii8+PFNFVFRJTkcgaWQ9ImVfc3BsbHN0ciIgdmFsdWU9IjAiIG1pY0lkPSIxNCIvPjxTRVRUSU5HIGlkPSJiX3NwbGxzdHIiIHZhbHVlPSIwIiBtaWNJZD0iMTQiLz48U0VUVElORyBpZD0ibV9zcGxsd25kIiB2YWx1ZT0iMC4wIiBtaWNJZD0iMTUiLz48U0VUVElORyBpZD0iZV9zcGxsd25kIiB2YWx1ZT0iMCIgbWljSWQ9IjE1Ii8+PFNFVFRJTkcgaWQ9ImJfc3BsbHduZCIgdmFsdWU9IjAiIG1pY0lkPSIxNSIvPjxTRVRUSU5HIGlkPSJtX3NwbGxiciIgdmFsdWU9IjAuMCIgbWljSWQ9IjE2Ii8+PFNFVFRJTkcgaWQ9ImVfc3BsbGJyIiB2YWx1ZT0iMCIgbWljSWQ9IjE2Ii8+PFNFVFRJTkcgaWQ9ImJfc3BsbGJyIiB2YWx1ZT0iMCIgbWljSWQ9IjE2Ii8+PFNFVFRJTkcgaWQ9Im1fc3BsbHBlciIgdmFsdWU9IjAuMCIgbWljSWQ9IjE3Ii8+PFNFVFRJTkcgaWQ9ImVfc3BsbHBlciIgdmFsdWU9IjAiIG1pY0lkPSIxNyIvPjxTRVRUSU5HIGlkPSJiX3NwbGxwZXIiIHZhbHVlPSIwIiBtaWNJZD0iMTciLz48U0VUVElORyBpZD0ibV9zcGxsZmxsIiB2YWx1ZT0iMC4wIiBtaWNJZD0iMTgiLz48U0VUVElORyBpZD0iZV9zcGxsZmxsIiB2YWx1ZT0iMCIgbWljSWQ9IjE4Ii8+PFNFVFRJTkcgaWQ9ImJfc3BsbGZsbCIgdmFsdWU9IjAiIG1pY0lkPSIxOCIvPjxTRVRUSU5HIGlkPSJtX2ZsbXhybCIgdmFsdWU9IjEuMCIgbWljSWQ9IjE5Ii8+PFNFVFRJTkcgaWQ9ImVfZmxteHJsIiB2YWx1ZT0iMSIgbWljSWQ9IjE5Ii8+PFNFVFRJTkcgaWQ9ImJfZmxteHJsIiB2YWx1ZT0iMCIgbWljSWQ9IjE5Ii8+PFNFVFRJTkcgaWQ9Im1fZmxteGpqIiB2YWx1ZT0iMC4wIiBtaWNJZD0iMjAiLz48U0VUVElORyBpZD0iZV9mbG14amoiIHZhbHVlPSIwIiBtaWNJZD0iMjAiLz48U0VUVElORyBpZD0iYl9mbG14amoiIHZhbHVlPSIwIiBtaWNJZD0iMjAiLz48L01JWD48L0FSVElDPjxBUlRJQz48U0VUVElORyBpZD0iYV9uYW1lIiB2YWx1ZT0iZiAtIFZpb2xhcyAtIFNob3J0IFBpenppY2F0byIvPjxTRVRUSU5HIGlkPSJhX3ZlcnNpb24iIHZhbHVlPSIxNjkwODI4OCIvPjxTRVRUSU5HIGlkPSJhX3RlbXBsYXRlSWR4IiB2YWx1ZT0iMCIvPjxTRVRUSU5HIGlkPSJhX29kZXN0IiB2YWx1ZT0iUkVWRVJCIi8+PFNFVFRJTkcgaWQ9ImFfYWN0aXZlIiB2YWx1ZT0iMCIvPjxTRVRUSU5HIGlkPSJhX2JhY2tBY3RpdmUiIHZhbHVlPSIwIi8+PFNFVFRJTkcgaWQ9ImFfdHdvSGFuZGVkIiB2YWx1ZT0iMCIvPjxTRVRUSU5HIGlkPSJhX2F1dG9NYWtlVXAiIHZhbHVlPSIwIi8+PFNFVFRJTkcgaWQ9InRfdHlwZSIgdmFsdWU9IjEiLz48U0VUVElORyBpZD0idF9lbmFibGVkIiB2YWx1ZT0iMSIvPjxTRVRUSU5HIGlkPSJ0X2xhdGNoIiB2YWx1ZT0iMCIvPjxTRVRUSU5HIGlkPSJ0X2tleXN3aXRjaCIgdmFsdWU9IjIiLz48U0VUVElORyBpZD0idF9taWRpQ2hhbm5lbCIgdmFsdWU9IjEiLz48U0VUVElORyBpZD0idF92ZWxGcm9tIiB2YWx1ZT0iMSIvPjxTRVRUSU5HIGlkPSJ0X3ZlbFRvIiB2YWx1ZT0iMTI3Ii8+PFNFVFRJTkcgaWQ9InRfY2MiIHZhbHVlPSIzMiIvPjxTRVRUSU5HIGlkPSJ0X2NjVmFsdWVGcm9tIiB2YWx1ZT0iMCIvPjxTRVRUSU5HIGlkPSJ0X2NjVmFsdWVUbyIgdmFsdWU9IjEyNyIvPjxTRVRUSU5HIGlkPSJ0X3NwZWVkRnJvbSIgdmFsdWU9IjAuMCIvPjxTRVRUSU5HIGlkPSJ0X3NwZWVkVG8iIHZhbHVlPSIwLjUiLz48U0VUVElORyBpZD0idF9wcm9ncmFtQ2hhbmdlIiB2YWx1ZT0iMCIvPjxTRVRUSU5HIGlkPSJycl90aW1lb3V0IiB2YWx1ZT0iLTEuMCIvPjxTRVRUSU5HIGlkPSJycl9uZWlnaGJvdXJNaW4iIHZhbHVlPSI0OCIvPjxTRVRUSU5HIGlkPSJycl9uZWlnaGJvdXJNYXgiIHZhbHVlPSI5MCIvPjxTRVRUSU5HIGlkPSJycl91c2VOZWlnaGJvdXIiIHZhbHVlPSIwIi8+PFNFVFRJTkcgaWQ9InJyX2NvdW50IiB2YWx1ZT0iLTEiLz48U0VUVElORyBpZD0icnJfaW5jIiB2YWx1ZT0iMSIvPjxTRVRUSU5HIGlkPSJycl9sYXllcnMiIHZhbHVlPSIxIi8+PFNFVFRJTkcgaWQ9InJyX2dhaW4iIHZhbHVlPSIxLjAiLz48U0VUVElORyBpZD0icnJfc3RhcnQiIHZhbHVlPSIwIi8+PFNFVFRJTkcgaWQ9InJyX3N5bmMiIHZhbHVlPSIwIi8+PFNFVFRJTkcgaWQ9InJyX3BsYXkiIHZhbHVlPSIxIi8+PFNFVFRJTkcgaWQ9InJyX2tleXN3aXRjaEZyb20iIHZhbHVlPSItMSIvPjxTRVRUSU5HIGlkPSJycl9rZXlzd2l0Y2hUbyIgdmFsdWU9Ii0xIi8+PFNFVFRJTkcgaWQ9InJyX2tleXN3aXRjaFRvIiB2YWx1ZT0iLTEiLz48U0VUVElORyBpZD0icnJfbW9kZSIgdmFsdWU9IjAiLz48U0VUVElORyBpZD0icl9taWRpQ2hhbm5lbCIgdmFsdWU9IjAiLz48U0VUVElORyBpZD0icl90cmFuc3Bvc2UiIHZhbHVlPSIwIi8+PFNFVFRJTkcgaWQ9InJfbGF5ZXJUcmFuc3Bvc2UiIHZhbHVlPSIwIi8+PFNFVFRJTkcgaWQ9ImlfZXhwcmVzc2lvbiIgdmFsdWU9IjEuMCIvPjxTRVRUSU5HIGlkPSJpX2R5bmFtaWNzIiB2YWx1ZT0iMS4wIi8+PFNFVFRJTkcgaWQ9ImlfcmV2ZXJiIiB2YWx1ZT0iMC4wIi8+PFNFVFRJTkcgaWQ9ImlfcmVsZWFzZSIgdmFsdWU9IjAuNSIvPjxTRVRUSU5HIGlkPSJpX3RpZ2h0IiB2YWx1ZT0iMC4wIi8+PFNFVFRJTkcgaWQ9ImlfdmlicmF0byIgdmFsdWU9IjEuMCIvPjxTRVRUSU5HIGlkPSJpX3ZhcmlhdGlvbiIgdmFsdWU9IjAuMCIvPjxTRVRUSU5HIGlkPSJzX3BhbiIgdmFsdWU9IjAuNSIvPjxTRVRUSU5HIGlkPSJzX3dpZHRoIiB2YWx1ZT0iMC41Ii8+PFNFVFRJTkcgaWQ9InNfZmxpcCIgdmFsdWU9IjAuMCIvPjxNSVg+PFNFVFRJTkcgaWQ9Im1fbW9ubyIgdmFsdWU9IjAuMCIgbWljSWQ9IjEiLz48U0VUVElORyBpZD0iZV9tb25vIiB2YWx1ZT0iMCIgbWljSWQ9IjEiLz48U0VUVElORyBpZD0iYl9tb25vIiB2YWx1ZT0iMCIgbWljSWQ9IjEiLz48U0VUVElORyBpZD0ibV90cmVlIiB2YWx1ZT0iMC4wIiBtaWNJZD0iMiIvPjxTRVRUSU5HIGlkPSJlX3RyZWUiIHZhbHVlPSIwIiBtaWNJZD0iMiIvPjxTRVRUSU5HIGlkPSJiX3RyZWUiIHZhbHVlPSIwIiBtaWNJZD0iMiIvPjxTRVRUSU5HIGlkPSJtX291dCIgdmFsdWU9IjAuMCIgbWljSWQ9IjMiLz48U0VUVElORyBpZD0iZV9vdXQiIHZhbHVlPSIwIiBtaWNJZD0iMyIvPjxTRVRUSU5HIGlkPSJiX291dCIgdmFsdWU9IjAiIG1pY0lkPSIzIi8+PFNFVFRJTkcgaWQ9Im1fYW1iIiB2YWx1ZT0iMC4wIiBtaWNJZD0iNCIvPjxTRVRUSU5HIGlkPSJlX2FtYiIgdmFsdWU9IjAiIG1pY0lkPSI0Ii8+PFNFVFRJTkcgaWQ9ImJfYW1iIiB2YWx1ZT0iMCIgbWljSWQ9IjQiLz48U0VUVElORyBpZD0ibV9iYWxjb255IiB2YWx1ZT0iMC4wIiBtaWNJZD0iNSIvPjxTRVRUSU5HIGlkPSJlX2JhbGNvbnkiIHZhbHVlPSIwIiBtaWNJZD0iNSIvPjxTRVRUSU5HIGlkPSJiX2JhbGNvbnkiIHZhbHVlPSIwIiBtaWNJZD0iNSIvPjxTRVRUSU5HIGlkPSJtX3NpZGVzIiB2YWx1ZT0iMC4wIiBtaWNJZD0iNiIvPjxTRVRUSU5HIGlkPSJlX3NpZGVzIiB2YWx1ZT0iMCIgbWljSWQ9IjYiLz48U0VUVElORyBpZD0iYl9zaWRlcyIgdmFsdWU9IjAiIG1pY0lkPSI2Ii8+PFNFVFRJTkcgaWQ9Im1fYXRtb3NmIiB2YWx1ZT0iMC4wIiBtaWNJZD0iNyIvPjxTRVRUSU5HIGlkPSJlX2F0bW9zZiIgdmFsdWU9IjAiIG1pY0lkPSI3Ii8+PFNFVFRJTkcgaWQ9ImJfYXRtb3NmIiB2YWx1ZT0iMCIgbWljSWQ9IjciLz48U0VUVElORyBpZD0ibV9hdG1vc3IiIHZhbHVlPSIwLjAiIG1pY0lkPSI4Ii8+PFNFVFRJTkcgaWQ9ImVfYXRtb3NyIiB2YWx1ZT0iMCIgbWljSWQ9IjgiLz48U0VUVElORyBpZD0iYl9hdG1vc3IiIHZhbHVlPSIwIiBtaWNJZD0iOCIvPjxTRVRUSU5HIGlkPSJtX21pZHMiIHZhbHVlPSIwLjAiIG1pY0lkPSI5Ii8+PFNFVFRJTkcgaWQ9ImVfbWlkcyIgdmFsdWU9IjAiIG1pY0lkPSI5Ii8+PFNFVFRJTkcgaWQ9ImJfbWlkcyIgdmFsdWU9IjAiIG1pY0lkPSI5Ii8+PFNFVFRJTkcgaWQ9Im1fc3RlcmVvIiB2YWx1ZT0iMC4wIiBtaWNJZD0iMTAiLz48U0VUVElORyBpZD0iZV9zdGVyZW8iIHZhbHVlPSIwIiBtaWNJZD0iMTAiLz48U0VUVElORyBpZD0iYl9zdGVyZW8iIHZhbHVlPSIwIiBtaWNJZD0iMTAiLz48U0VUVElORyBpZD0ibV9sZWFkZXIiIHZhbHVlPSIwLjAiIG1pY0lkPSIxMSIvPjxTRVRUSU5HIGlkPSJlX2xlYWRlciIgdmFsdWU9IjAiIG1pY0lkPSIxMSIvPjxTRVRUSU5HIGlkPSJiX2xlYWRlciIgdmFsdWU9IjAiIG1pY0lkPSIxMSIvPjxTRVRUSU5HIGlkPSJtX2Nsb3NlIiB2YWx1ZT0iMC4wIiBtaWNJZD0iMTIiLz48U0VUVElORyBpZD0iZV9jbG9zZSIgdmFsdWU9IjAiIG1pY0lkPSIxMiIvPjxTRVRUSU5HIGlkPSJiX2Nsb3NlIiB2YWx1ZT0iMCIgbWljSWQ9IjEyIi8+PFNFVFRJTkcgaWQ9Im1fY2x3ZHBhbiIgdmFsdWU9IjAuMCIgbWljSWQ9IjEzIi8+PFNFVFRJTkcgaWQ9ImVfY2x3ZHBhbiIgdmFsdWU9IjAiIG1pY0lkPSIxMyIvPjxTRVRUSU5HIGlkPSJiX2Nsd2RwYW4iIHZhbHVlPSIwIiBtaWNJZD0iMTMiLz48U0VUVElORyBpZD0ibV9zcGxsc3RyIiB2YWx1ZT0iMC4wIiBtaWNJZD0iMTQiLz48U0VUVElORyBpZD0iZV9zcGxsc3RyIiB2YWx1ZT0iMCIgbWljSWQ9IjE0Ii8+PFNFVFRJTkcgaWQ9ImJfc3BsbHN0ciIgdmFsdWU9IjAiIG1pY0lkPSIxNCIvPjxTRVRUSU5HIGlkPSJtX3NwbGx3bmQiIHZhbHVlPSIwLjAiIG1pY0lkPSIxNSIvPjxTRVRUSU5HIGlkPSJlX3NwbGx3bmQiIHZhbHVlPSIwIiBtaWNJZD0iMTUiLz48U0VUVElORyBpZD0iYl9zcGxsd25kIiB2YWx1ZT0iMCIgbWljSWQ9IjE1Ii8+PFNFVFRJTkcgaWQ9Im1fc3BsbGJyIiB2YWx1ZT0iMC4wIiBtaWNJZD0iMTYiLz48U0VUVElORyBpZD0iZV9zcGxsYnIiIHZhbHVlPSIwIiBtaWNJZD0iMTYiLz48U0VUVElORyBpZD0iYl9zcGxsYnIiIHZhbHVlPSIwIiBtaWNJZD0iMTYiLz48U0VUVElORyBpZD0ibV9zcGxscGVyIiB2YWx1ZT0iMC4wIiBtaWNJZD0iMTciLz48U0VUVElORyBpZD0iZV9zcGxscGVyIiB2YWx1ZT0iMCIgbWljSWQ9IjE3Ii8+PFNFVFRJTkcgaWQ9ImJfc3BsbHBlciIgdmFsdWU9IjAiIG1pY0lkPSIxNyIvPjxTRVRUSU5HIGlkPSJtX3NwbGxmbGwiIHZhbHVlPSIwLjAiIG1pY0lkPSIxOCIvPjxTRVRUSU5HIGlkPSJlX3NwbGxmbGwiIHZhbHVlPSIwIiBtaWNJZD0iMTgiLz48U0VUVElORyBpZD0iYl9zcGxsZmxsIiB2YWx1ZT0iMCIgbWljSWQ9IjE4Ii8+PFNFVFRJTkcgaWQ9Im1fZmxteHJsIiB2YWx1ZT0iMS4wIiBtaWNJZD0iMTkiLz48U0VUVElORyBpZD0iZV9mbG14cmwiIHZhbHVlPSIxIiBtaWNJZD0iMTkiLz48U0VUVElORyBpZD0iYl9mbG14cmwiIHZhbHVlPSIwIiBtaWNJZD0iMTkiLz48U0VUVElORyBpZD0ibV9mbG14amoiIHZhbHVlPSIwLjAiIG1pY0lkPSIyMCIvPjxTRVRUSU5HIGlkPSJlX2ZsbXhqaiIgdmFsdWU9IjAiIG1pY0lkPSIyMCIvPjxTRVRUSU5HIGlkPSJiX2ZsbXhqaiIgdmFsdWU9IjAiIG1pY0lkPSIyMCIvPjwvTUlYPjwvQVJUSUM+PEFSVElDPjxTRVRUSU5HIGlkPSJhX25hbWUiIHZhbHVlPSJmIC0gVmlvbGFzIC0gVHJlbW9sbyIvPjxTRVRUSU5HIGlkPSJhX3ZlcnNpb24iIHZhbHVlPSIxNjkwODI4OCIvPjxTRVRUSU5HIGlkPSJhX3RlbXBsYXRlSWR4IiB2YWx1ZT0iMCIvPjxTRVRUSU5HIGlkPSJhX29kZXN0IiB2YWx1ZT0iUkVWRVJCIi8+PFNFVFRJTkcgaWQ9ImFfYWN0aXZlIiB2YWx1ZT0iMCIvPjxTRVRUSU5HIGlkPSJhX2JhY2tBY3RpdmUiIHZhbHVlPSIwIi8+PFNFVFRJTkcgaWQ9ImFfdHdvSGFuZGVkIiB2YWx1ZT0iMCIvPjxTRVRUSU5HIGlkPSJhX2F1dG9NYWtlVXAiIHZhbHVlPSIwIi8+PFNFVFRJTkcgaWQ9InRfdHlwZSIgdmFsdWU9IjEiLz48U0VUVElORyBpZD0idF9lbmFibGVkIiB2YWx1ZT0iMSIvPjxTRVRUSU5HIGlkPSJ0X2xhdGNoIiB2YWx1ZT0iMCIvPjxTRVRUSU5HIGlkPSJ0X2tleXN3aXRjaCIgdmFsdWU9IjMiLz48U0VUVElORyBpZD0idF9taWRpQ2hhbm5lbCIgdmFsdWU9IjEiLz48U0VUVElORyBpZD0idF92ZWxGcm9tIiB2YWx1ZT0iMSIvPjxTRVRUSU5HIGlkPSJ0X3ZlbFRvIiB2YWx1ZT0iMTI3Ii8+PFNFVFRJTkcgaWQ9InRfY2MiIHZhbHVlPSIzMiIvPjxTRVRUSU5HIGlkPSJ0X2NjVmFsdWVGcm9tIiB2YWx1ZT0iMCIvPjxTRVRUSU5HIGlkPSJ0X2NjVmFsdWVUbyIgdmFsdWU9IjEyNyIvPjxTRVRUSU5HIGlkPSJ0X3NwZWVkRnJvbSIgdmFsdWU9IjAuMCIvPjxTRVRUSU5HIGlkPSJ0X3NwZWVkVG8iIHZhbHVlPSIwLjUiLz48U0VUVElORyBpZD0idF9wcm9ncmFtQ2hhbmdlIiB2YWx1ZT0iMCIvPjxTRVRUSU5HIGlkPSJycl90aW1lb3V0IiB2YWx1ZT0iLTEuMCIvPjxTRVRUSU5HIGlkPSJycl9uZWlnaGJvdXJNaW4iIHZhbHVlPSI0OCIvPjxTRVRUSU5HIGlkPSJycl9uZWlnaGJvdXJNYXgiIHZhbHVlPSI5MCIvPjxTRVRUSU5HIGlkPSJycl91c2VOZWlnaGJvdXIiIHZhbHVlPSIwIi8+PFNFVFRJTkcgaWQ9InJyX2NvdW50IiB2YWx1ZT0iLTEiLz48U0VUVElORyBpZD0icnJfaW5jIiB2YWx1ZT0iMSIvPjxTRVRUSU5HIGlkPSJycl9sYXllcnMiIHZhbHVlPSIxIi8+PFNFVFRJTkcgaWQ9InJyX2dhaW4iIHZhbHVlPSIxLjAiLz48U0VUVElORyBpZD0icnJfc3RhcnQiIHZhbHVlPSIwIi8+PFNFVFRJTkcgaWQ9InJyX3N5bmMiIHZhbHVlPSIwIi8+PFNFVFRJTkcgaWQ9InJyX3BsYXkiIHZhbHVlPSIxIi8+PFNFVFRJTkcgaWQ9InJyX2tleXN3aXRjaEZyb20iIHZhbHVlPSItMSIvPjxTRVRUSU5HIGlkPSJycl9rZXlzd2l0Y2hUbyIgdmFsdWU9Ii0xIi8+PFNFVFRJTkcgaWQ9InJyX2tleXN3aXRjaFRvIiB2YWx1ZT0iLTEiLz48U0VUVElORyBpZD0icnJfbW9kZSIgdmFsdWU9IjAiLz48U0VUVElORyBpZD0icl9taWRpQ2hhbm5lbCIgdmFsdWU9IjAiLz48U0VUVElORyBpZD0icl90cmFuc3Bvc2UiIHZhbHVlPSIwIi8+PFNFVFRJTkcgaWQ9InJfbGF5ZXJUcmFuc3Bvc2UiIHZhbHVlPSIwIi8+PFNFVFRJTkcgaWQ9ImlfZXhwcmVzc2lvbiIgdmFsdWU9IjEuMCIvPjxTRVRUSU5HIGlkPSJpX2R5bmFtaWNzIiB2YWx1ZT0iMS4wIi8+PFNFVFRJTkcgaWQ9ImlfcmV2ZXJiIiB2YWx1ZT0iMC4wIi8+PFNFVFRJTkcgaWQ9ImlfcmVsZWFzZSIgdmFsdWU9IjAuNSIvPjxTRVRUSU5HIGlkPSJpX3RpZ2h0IiB2YWx1ZT0iMC4wIi8+PFNFVFRJTkcgaWQ9ImlfdmlicmF0byIgdmFsdWU9IjEuMCIvPjxTRVRUSU5HIGlkPSJpX3ZhcmlhdGlvbiIgdmFsdWU9IjAuMCIvPjxTRVRUSU5HIGlkPSJzX3BhbiIgdmFsdWU9IjAuNSIvPjxTRVRUSU5HIGlkPSJzX3dpZHRoIiB2YWx1ZT0iMC41Ii8+PFNFVFRJTkcgaWQ9InNfZmxpcCIgdmFsdWU9IjAuMCIvPjxNSVg+PFNFVFRJTkcgaWQ9Im1fbW9ubyIgdmFsdWU9IjAuMCIgbWljSWQ9IjEiLz48U0VUVElORyBpZD0iZV9tb25vIiB2YWx1ZT0iMCIgbWljSWQ9IjEiLz48U0VUVElORyBpZD0iYl9tb25vIiB2YWx1ZT0iMCIgbWljSWQ9IjEiLz48U0VUVElORyBpZD0ibV90cmVlIiB2YWx1ZT0iMC4wIiBtaWNJZD0iMiIvPjxTRVRUSU5HIGlkPSJlX3RyZWUiIHZhbHVlPSIwIiBtaWNJZD0iMiIvPjxTRVRUSU5HIGlkPSJiX3RyZWUiIHZhbHVlPSIwIiBtaWNJZD0iMiIvPjxTRVRUSU5HIGlkPSJtX291dCIgdmFsdWU9IjAuMCIgbWljSWQ9IjMiLz48U0VUVElORyBpZD0iZV9vdXQiIHZhbHVlPSIwIiBtaWNJZD0iMyIvPjxTRVRUSU5HIGlkPSJiX291dCIgdmFsdWU9IjAiIG1pY0lkPSIzIi8+PFNFVFRJTkcgaWQ9Im1fYW1iIiB2YWx1ZT0iMC4wIiBtaWNJZD0iNCIvPjxTRVRUSU5HIGlkPSJlX2FtYiIgdmFsdWU9IjAiIG1pY0lkPSI0Ii8+PFNFVFRJTkcgaWQ9ImJfYW1iIiB2YWx1ZT0iMCIgbWljSWQ9IjQiLz48U0VUVElORyBpZD0ibV9iYWxjb255IiB2YWx1ZT0iMC4wIiBtaWNJZD0iNSIvPjxTRVRUSU5HIGlkPSJlX2JhbGNvbnkiIHZhbHVlPSIwIiBtaWNJZD0iNSIvPjxTRVRUSU5HIGlkPSJiX2JhbGNvbnkiIHZhbHVlPSIwIiBtaWNJZD0iNSIvPjxTRVRUSU5HIGlkPSJtX3NpZGVzIiB2YWx1ZT0iMC4wIiBtaWNJZD0iNiIvPjxTRVRUSU5HIGlkPSJlX3NpZGVzIiB2YWx1ZT0iMCIgbWljSWQ9IjYiLz48U0VUVElORyBpZD0iYl9zaWRlcyIgdmFsdWU9IjAiIG1pY0lkPSI2Ii8+PFNFVFRJTkcgaWQ9Im1fYXRtb3NmIiB2YWx1ZT0iMC4wIiBtaWNJZD0iNyIvPjxTRVRUSU5HIGlkPSJlX2F0bW9zZiIgdmFsdWU9IjAiIG1pY0lkPSI3Ii8+PFNFVFRJTkcgaWQ9ImJfYXRtb3NmIiB2YWx1ZT0iMCIgbWljSWQ9IjciLz48U0VUVElORyBpZD0ibV9hdG1vc3IiIHZhbHVlPSIwLjAiIG1pY0lkPSI4Ii8+PFNFVFRJTkcgaWQ9ImVfYXRtb3NyIiB2YWx1ZT0iMCIgbWljSWQ9IjgiLz48U0VUVElORyBpZD0iYl9hdG1vc3IiIHZhbHVlPSIwIiBtaWNJZD0iOCIvPjxTRVRUSU5HIGlkPSJtX21pZHMiIHZhbHVlPSIwLjAiIG1pY0lkPSI5Ii8+PFNFVFRJTkcgaWQ9ImVfbWlkcyIgdmFsdWU9IjAiIG1pY0lkPSI5Ii8+PFNFVFRJTkcgaWQ9ImJfbWlkcyIgdmFsdWU9IjAiIG1pY0lkPSI5Ii8+PFNFVFRJTkcgaWQ9Im1fc3RlcmVvIiB2YWx1ZT0iMC4wIiBtaWNJZD0iMTAiLz48U0VUVElORyBpZD0iZV9zdGVyZW8iIHZhbHVlPSIwIiBtaWNJZD0iMTAiLz48U0VUVElORyBpZD0iYl9zdGVyZW8iIHZhbHVlPSIwIiBtaWNJZD0iMTAiLz48U0VUVElORyBpZD0ibV9sZWFkZXIiIHZhbHVlPSIwLjAiIG1pY0lkPSIxMSIvPjxTRVRUSU5HIGlkPSJlX2xlYWRlciIgdmFsdWU9IjAiIG1pY0lkPSIxMSIvPjxTRVRUSU5HIGlkPSJiX2xlYWRlciIgdmFsdWU9IjAiIG1pY0lkPSIxMSIvPjxTRVRUSU5HIGlkPSJtX2Nsb3NlIiB2YWx1ZT0iMC4wIiBtaWNJZD0iMTIiLz48U0VUVElORyBpZD0iZV9jbG9zZSIgdmFsdWU9IjAiIG1pY0lkPSIxMiIvPjxTRVRUSU5HIGlkPSJiX2Nsb3NlIiB2YWx1ZT0iMCIgbWljSWQ9IjEyIi8+PFNFVFRJTkcgaWQ9Im1fY2x3ZHBhbiIgdmFsdWU9IjAuMCIgbWljSWQ9IjEzIi8+PFNFVFRJTkcgaWQ9ImVfY2x3ZHBhbiIgdmFsdWU9IjAiIG1pY0lkPSIxMyIvPjxTRVRUSU5HIGlkPSJiX2Nsd2RwYW4iIHZhbHVlPSIwIiBtaWNJZD0iMTMiLz48U0VUVElORyBpZD0ibV9zcGxsc3RyIiB2YWx1ZT0iMC4wIiBtaWNJZD0iMTQiLz48U0VUVElORyBpZD0iZV9zcGxsc3RyIiB2YWx1ZT0iMCIgbWljSWQ9IjE0Ii8+PFNFVFRJTkcgaWQ9ImJfc3BsbHN0ciIgdmFsdWU9IjAiIG1pY0lkPSIxNCIvPjxTRVRUSU5HIGlkPSJtX3NwbGx3bmQiIHZhbHVlPSIwLjAiIG1pY0lkPSIxNSIvPjxTRVRUSU5HIGlkPSJlX3NwbGx3bmQiIHZhbHVlPSIwIiBtaWNJZD0iMTUiLz48U0VUVElORyBpZD0iYl9zcGxsd25kIiB2YWx1ZT0iMCIgbWljSWQ9IjE1Ii8+PFNFVFRJTkcgaWQ9Im1fc3BsbGJyIiB2YWx1ZT0iMC4wIiBtaWNJZD0iMTYiLz48U0VUVElORyBpZD0iZV9zcGxsYnIiIHZhbHVlPSIwIiBtaWNJZD0iMTYiLz48U0VUVElORyBpZD0iYl9zcGxsYnIiIHZhbHVlPSIwIiBtaWNJZD0iMTYiLz48U0VUVElORyBpZD0ibV9zcGxscGVyIiB2YWx1ZT0iMC4wIiBtaWNJZD0iMTciLz48U0VUVElORyBpZD0iZV9zcGxscGVyIiB2YWx1ZT0iMCIgbWljSWQ9IjE3Ii8+PFNFVFRJTkcgaWQ9ImJfc3BsbHBlciIgdmFsdWU9IjAiIG1pY0lkPSIxNyIvPjxTRVRUSU5HIGlkPSJtX3NwbGxmbGwiIHZhbHVlPSIwLjAiIG1pY0lkPSIxOCIvPjxTRVRUSU5HIGlkPSJlX3NwbGxmbGwiIHZhbHVlPSIwIiBtaWNJZD0iMTgiLz48U0VUVElORyBpZD0iYl9zcGxsZmxsIiB2YWx1ZT0iMCIgbWljSWQ9IjE4Ii8+PFNFVFRJTkcgaWQ9Im1fZmxteHJsIiB2YWx1ZT0iMS4wIiBtaWNJZD0iMTkiLz48U0VUVElORyBpZD0iZV9mbG14cmwiIHZhbHVlPSIxIiBtaWNJZD0iMTkiLz48U0VUVElORyBpZD0iYl9mbG14cmwiIHZhbHVlPSIwIiBtaWNJZD0iMTkiLz48U0VUVElORyBpZD0ibV9mbG14amoiIHZhbHVlPSIwLjAiIG1pY0lkPSIyMCIvPjxTRVRUSU5HIGlkPSJlX2ZsbXhqaiIgdmFsdWU9IjAiIG1pY0lkPSIyMCIvPjxTRVRUSU5HIGlkPSJiX2ZsbXhqaiIgdmFsdWU9IjAiIG1pY0lkPSIyMCIvPjwvTUlYPjwvQVJUSUM+PC9BUlRJQ1M+PFBBUkFNRVRFUlM+PFBBUkFNIGlkPSJnX2dhaW4iIHZhbHVlPSIxLjAiIGNjPSI3Ii8+PFBBUkFNIGlkPSJnX3BhbiIgdmFsdWU9IjAuNSIgY2M9IjEwIi8+PFBBUkFNIGlkPSJnX3R1bmUiIHZhbHVlPSIwLjAiIGNjPSItMSIvPjxQQVJBTSBpZD0iaV9yZXZlcmIiIHZhbHVlPSIwLjAiIGNjPSIxOSIvPjxQQVJBTSBpZD0iaV90aWdodCIgdmFsdWU9IjAuMCIgY2M9IjE4Ii8+PFBBUkFNIGlkPSJpX3JlbGVhc2UiIHZhbHVlPSIwLjUiIGNjPSIxNyIvPjxQQVJBTSBpZD0iaV9leHByZXNzaW9uIiB2YWx1ZT0iMS4wIiBjYz0iMTEiLz48UEFSQU0gaWQ9ImlfZHluYW1pY3MiIHZhbHVlPSIxLjAiIGNjPSIxIi8+PFBBUkFNIGlkPSJpX3ZhcmlhdGlvbiIgdmFsdWU9IjAuMCIgY2M9IjIwIi8+PFBBUkFNIGlkPSJpX3ZpYnJhdG8iIHZhbHVlPSIxLjAiIGNjPSIyMSIvPjxQQVJBTSBpZD0iaV9kaXJlY3Rpb24iIHZhbHVlPSIwLjAiIGNjPSItMSIvPjxQQVJBTSBpZD0iaV9taXhzaW1wbGUiIHZhbHVlPSIwLjUiIGNjPSItMSIvPjxQQVJBTSBpZD0ic19mbGlwIiB2YWx1ZT0iMC4wIiBjYz0iLTEiLz48UEFSQU0gaWQ9InNfd2lkdGgiIHZhbHVlPSIwLjUiIGNjPSItMSIvPjxQQVJBTSBpZD0ic19wYW4iIHZhbHVlPSIwLjUiIGNjPSItMSIvPjxQQVJBTSBpZD0ibV9tb25vIiB2YWx1ZT0iMC4wIiBjYz0iMjgiLz48UEFSQU0gaWQ9Im1fdHJlZSIgdmFsdWU9IjAuMCIgY2M9IjI1Ii8+PFBBUkFNIGlkPSJtX291dCIgdmFsdWU9IjAuMCIgY2M9IjI2Ii8+PFBBUkFNIGlkPSJtX2FtYiIgdmFsdWU9IjAuMCIgY2M9IjI3Ii8+PFBBUkFNIGlkPSJtX2JhbGNvbnkiIHZhbHVlPSIwLjAiIGNjPSIzNSIvPjxQQVJBTSBpZD0ibV9zaWRlcyIgdmFsdWU9IjAuMCIgY2M9IjM0Ii8+PFBBUkFNIGlkPSJtX2F0bW9zZiIgdmFsdWU9IjAuMCIgY2M9IjQxIi8+PFBBUkFNIGlkPSJtX2F0bW9zciIgdmFsdWU9IjAuMCIgY2M9IjQyIi8+PFBBUkFNIGlkPSJtX21pZHMiIHZhbHVlPSIwLjAiIGNjPSIzMyIvPjxQQVJBTSBpZD0ibV9zdGVyZW8iIHZhbHVlPSIwLjAiIGNjPSIzMSIvPjxQQVJBTSBpZD0ibV9sZWFkZXIiIHZhbHVlPSIwLjAiIGNjPSIyOSIvPjxQQVJBTSBpZD0ibV9jbG9zZSIgdmFsdWU9IjAuMCIgY2M9IjI0Ii8+PFBBUkFNIGlkPSJtX2Nsd2RwYW4iIHZhbHVlPSIwLjAiIGNjPSIzMCIvPjxQQVJBTSBpZD0ibV9zcGxsc3RyIiB2YWx1ZT0iMC4wIiBjYz0iMzYiLz48UEFSQU0gaWQ9Im1fc3BsbHduZCIgdmFsdWU9IjAuMCIgY2M9IjM3Ii8+PFBBUkFNIGlkPSJtX3NwbGxiciIgdmFsdWU9IjAuMCIgY2M9IjM4Ii8+PFBBUkFNIGlkPSJtX3NwbGxwZXIiIHZhbHVlPSIwLjAiIGNjPSIzOSIvPjxQQVJBTSBpZD0ibV9zcGxsZmxsIiB2YWx1ZT0iMC4wIiBjYz0iNDAiLz48UEFSQU0gaWQ9Im1fZmxteHJsIiB2YWx1ZT0iMS4wIiBjYz0iMjIiLz48UEFSQU0gaWQ9Im1fZmxteGpqIiB2YWx1ZT0iMC4wIiBjYz0iMjMiLz48UEFSQU0gaWQ9Im1fdmlydCIgdmFsdWU9IjEuMCIgY2M9Ii0xIi8+PC9QQVJBTUVURVJTPjwvU1BJVEZJUkVBVURJT19BVU5USUU+AA==" program="0" plugin="C:/Program Files/VstPlugins/BBC Symphony Orchestra (64 Bit).dll" guivisible="0"/>
          </instrument>
          <eldata fres="0.5" fwet="0" ftype="0" fcut="14000">
            <elvol x100="0" amt="0" lpdel="0" lshp="0" lspd_numerator="4" att="0" rel="0.1" userwavefile="" lspd_denominator="4" sustain="0.5" pdel="0" ctlenvamt="0" dec="0.5" latt="0" hold="0.5" lspd="0.1" lamt="0" lspd_syncmode="0"/>
            <elcut x100="0" amt="0" lpdel="0" lshp="0" lspd_numerator="4" att="0" rel="0.1" userwavefile="" lspd_denominator="4" sustain="0.5" pdel="0" ctlenvamt="0" dec="0.5" latt="0" hold="0.5" lspd="0.1" lamt="0" lspd_syncmode="0"/>
            <elres x100="0" amt="0" lpdel="0" lshp="0" lspd_numerator="4" att="0" rel="0.1" userwavefile="" lspd_denominator="4" sustain="0.5" pdel="0" ctlenvamt="0" dec="0.5" latt="0" hold="0.5" lspd="0.1" lamt="0" lspd_syncmode="0"/>
          </eldata>
          <chordcreator chord-enabled="0" chordrange="1" chord="0"/>
          <arpeggiator arptime_syncmode="0" arpmiss="0" arptime_numerator="4" arprange="1" arp-enabled="0" arpdir="0" arpcycle="0" arptime_denominator="4" arpskip="0" arpmode="0" arp="0" arptime="200" arpgate="100"/>
          <midiport basevelocity="63" outputcontroller="0" fixedoutputvelocity="-1" readable="0" outputprogram="1" inputcontroller="0" inputchannel="0" fixedoutputnote="-1" writable="0" fixedinputvelocity="-1" outputchannel="1"/>
          <fxchain enabled="0" numofeffects="0"/>
        </instrumenttrack>
        <pattern type="1" muted="0" steps="16" pos="2880" name="Pad 2">
          <note len="48" key="62" pos="144" vol="36" pan="0"/>
          <note len="48" key="50" pos="144" vol="36" pan="0"/>
          <note len="767" key="64" pos="192" vol="55" pan="0"/>
          <note len="191" key="57" pos="192" vol="55" pan="0"/>
          <note len="767" key="52" pos="192" vol="55" pan="0"/>
          <note len="192" key="59" pos="384" vol="55" pan="0"/>
          <note len="192" key="61" pos="576" vol="55" pan="0"/>
          <note len="192" key="62" pos="768" vol="55" pan="0"/>
          <note len="767" key="64" pos="960" vol="55" pan="0"/>
          <note len="191" key="57" pos="960" vol="55" pan="0"/>
          <note len="767" key="52" pos="960" vol="55" pan="0"/>
          <note len="192" key="59" pos="1152" vol="55" pan="0"/>
          <note len="192" key="61" pos="1344" vol="55" pan="0"/>
          <note len="192" key="62" pos="1536" vol="55" pan="0"/>
          <note len="767" key="64" pos="1728" vol="55" pan="0"/>
          <note len="191" key="57" pos="1728" vol="55" pan="0"/>
          <note len="767" key="52" pos="1728" vol="55" pan="0"/>
          <note len="192" key="59" pos="1920" vol="55" pan="0"/>
          <note len="192" key="61" pos="2112" vol="55" pan="0"/>
          <note len="192" key="62" pos="2304" vol="55" pan="0"/>
          <note len="767" key="64" pos="2496" vol="55" pan="0"/>
          <note len="191" key="57" pos="2496" vol="55" pan="0"/>
          <note len="767" key="52" pos="2496" vol="55" pan="0"/>
          <note len="192" key="59" pos="2688" vol="55" pan="0"/>
          <note len="192" key="61" pos="2880" vol="55" pan="0"/>
          <note len="192" key="62" pos="3072" vol="55" pan="0"/>
          <note len="767" key="64" pos="3264" vol="55" pan="0"/>
          <note len="191" key="57" pos="3264" vol="55" pan="0"/>
          <note len="767" key="52" pos="3264" vol="55" pan="0"/>
          <note len="192" key="59" pos="3456" vol="55" pan="0"/>
          <note len="192" key="61" pos="3648" vol="55" pan="0"/>
          <note len="192" key="62" pos="3840" vol="55" pan="0"/>
          <note len="767" key="64" pos="4032" vol="55" pan="0"/>
          <note len="191" key="57" pos="4032" vol="55" pan="0"/>
          <note len="767" key="52" pos="4032" vol="55" pan="0"/>
          <note len="192" key="59" pos="4224" vol="55" pan="0"/>
          <note len="192" key="61" pos="4416" vol="55" pan="0"/>
          <note len="192" key="62" pos="4608" vol="55" pan="0"/>
          <note len="767" key="64" pos="4800" vol="55" pan="0"/>
          <note len="191" key="57" pos="4800" vol="55" pan="0"/>
          <note len="767" key="52" pos="4800" vol="55" pan="0"/>
          <note len="192" key="59" pos="4992" vol="55" pan="0"/>
          <note len="192" key="61" pos="5184" vol="55" pan="0"/>
          <note len="192" key="62" pos="5376" vol="55" pan="0"/>
          <note len="767" key="64" pos="5568" vol="55" pan="0"/>
          <note len="191" key="57" pos="5568" vol="55" pan="0"/>
          <note len="767" key="52" pos="5568" vol="55" pan="0"/>
          <note len="192" key="59" pos="5760" vol="55" pan="0"/>
          <note len="192" key="61" pos="5952" vol="55" pan="0"/>
          <note len="192" key="62" pos="6144" vol="55" pan="0"/>
          <note len="767" key="64" pos="6336" vol="55" pan="0"/>
          <note len="191" key="57" pos="6336" vol="55" pan="0"/>
          <note len="767" key="52" pos="6336" vol="55" pan="0"/>
          <note len="192" key="59" pos="6528" vol="55" pan="0"/>
          <note len="192" key="61" pos="6720" vol="55" pan="0"/>
          <note len="192" key="62" pos="6912" vol="55" pan="0"/>
          <note len="767" key="64" pos="7104" vol="55" pan="0"/>
          <note len="191" key="57" pos="7104" vol="55" pan="0"/>
          <note len="767" key="52" pos="7104" vol="55" pan="0"/>
          <note len="192" key="59" pos="7296" vol="55" pan="0"/>
          <note len="192" key="61" pos="7488" vol="55" pan="0"/>
          <note len="192" key="62" pos="7680" vol="55" pan="0"/>
        </pattern>
        <pattern type="1" muted="0" steps="16" pos="13632" name="Pad 2">
          <note len="48" key="62" pos="144" vol="36" pan="0"/>
          <note len="48" key="50" pos="144" vol="36" pan="0"/>
          <note len="767" key="64" pos="192" vol="55" pan="0"/>
          <note len="191" key="57" pos="192" vol="55" pan="0"/>
          <note len="767" key="52" pos="192" vol="55" pan="0"/>
          <note len="192" key="59" pos="384" vol="55" pan="0"/>
          <note len="192" key="61" pos="576" vol="55" pan="0"/>
          <note len="192" key="62" pos="768" vol="55" pan="0"/>
          <note len="767" key="64" pos="960" vol="55" pan="0"/>
          <note len="191" key="57" pos="960" vol="55" pan="0"/>
          <note len="767" key="52" pos="960" vol="55" pan="0"/>
          <note len="192" key="59" pos="1152" vol="55" pan="0"/>
          <note len="192" key="61" pos="1344" vol="55" pan="0"/>
          <note len="192" key="62" pos="1536" vol="55" pan="0"/>
          <note len="767" key="64" pos="1728" vol="55" pan="0"/>
          <note len="191" key="57" pos="1728" vol="55" pan="0"/>
          <note len="767" key="52" pos="1728" vol="55" pan="0"/>
          <note len="192" key="59" pos="1920" vol="55" pan="0"/>
          <note len="192" key="61" pos="2112" vol="55" pan="0"/>
          <note len="192" key="62" pos="2304" vol="55" pan="0"/>
          <note len="767" key="64" pos="2496" vol="55" pan="0"/>
          <note len="191" key="57" pos="2496" vol="55" pan="0"/>
          <note len="767" key="52" pos="2496" vol="55" pan="0"/>
          <note len="192" key="59" pos="2688" vol="55" pan="0"/>
          <note len="192" key="61" pos="2880" vol="55" pan="0"/>
          <note len="192" key="62" pos="3072" vol="55" pan="0"/>
          <note len="767" key="64" pos="3264" vol="55" pan="0"/>
          <note len="191" key="57" pos="3264" vol="55" pan="0"/>
          <note len="767" key="52" pos="3264" vol="55" pan="0"/>
          <note len="192" key="59" pos="3456" vol="55" pan="0"/>
          <note len="192" key="61" pos="3648" vol="55" pan="0"/>
          <note len="192" key="62" pos="3840" vol="55" pan="0"/>
          <note len="767" key="64" pos="4032" vol="55" pan="0"/>
          <note len="191" key="57" pos="4032" vol="55" pan="0"/>
          <note len="767" key="52" pos="4032" vol="55" pan="0"/>
          <note len="192" key="59" pos="4224" vol="55" pan="0"/>
          <note len="192" key="61" pos="4416" vol="55" pan="0"/>
          <note len="192" key="62" pos="4608" vol="55" pan="0"/>
          <note len="767" key="64" pos="4800" vol="55" pan="0"/>
          <note len="191" key="57" pos="4800" vol="55" pan="0"/>
          <note len="767" key="52" pos="4800" vol="55" pan="0"/>
          <note len="192" key="59" pos="4992" vol="55" pan="0"/>
          <note len="192" key="61" pos="5184" vol="55" pan="0"/>
          <note len="192" key="62" pos="5376" vol="55" pan="0"/>
          <note len="767" key="64" pos="5568" vol="55" pan="0"/>
          <note len="191" key="57" pos="5568" vol="55" pan="0"/>
          <note len="767" key="52" pos="5568" vol="55" pan="0"/>
          <note len="192" key="59" pos="5760" vol="55" pan="0"/>
          <note len="192" key="61" pos="5952" vol="55" pan="0"/>
          <note len="192" key="62" pos="6144" vol="55" pan="0"/>
          <note len="767" key="64" pos="6336" vol="55" pan="0"/>
          <note len="191" key="57" pos="6336" vol="55" pan="0"/>
          <note len="767" key="52" pos="6336" vol="55" pan="0"/>
          <note len="192" key="59" pos="6528" vol="55" pan="0"/>
          <note len="192" key="61" pos="6720" vol="55" pan="0"/>
          <note len="192" key="62" pos="6912" vol="55" pan="0"/>
          <note len="767" key="64" pos="7104" vol="55" pan="0"/>
          <note len="191" key="57" pos="7104" vol="55" pan="0"/>
          <note len="767" key="52" pos="7104" vol="55" pan="0"/>
          <note len="192" key="59" pos="7296" vol="55" pan="0"/>
          <note len="192" key="61" pos="7488" vol="55" pan="0"/>
          <note len="192" key="62" pos="7680" vol="55" pan="0"/>
        </pattern>
      </track>
      <track type="0" muted="0" solo="0" name="Pad 3">
        <instrumenttrack basenote="57" pitch="0" pitchrange="1" fxch="1" vol="15" pan="0" usemasterpitch="1">
          <instrument name="vestige">
            <vestige chunk="VkMyIYEYAAA8TGFicz48TUVUQSBmYW1pbHk9IlN5bnRoIFBhZHMiIG5hbWU9IlBhZCAjMDAwMSIgcHJvZHVjdE1vZGU9IjAiIHZlcnNpb249IjEuMC42IiB0YWdzPSIxMDMwMjAwOlN5bnRoIiBtb2RpZmllZD0iMSIvPjxVSSB1aXNpemU9IjEiIHVpY29sbGFwc2VkPSIxIi8+PEFSVElDUz48U0VUVElORyBpZD0icF9zeW5jVG9UZW1wbyIgdmFsdWU9IjEiLz48U0VUVElORyBpZD0icF9keW5hbWljc1ZlbG9jaXR5TW9kZSIgdmFsdWU9IkZVTEwgVkVMT0NJVFkgUkFOR0UiLz48U0VUVElORyBpZD0icF9zaG9ydFJUTW9kZSIgdmFsdWU9Ii0yIi8+PFNFVFRJTkcgaWQ9InBfdmVsb2NpdHlDdXJ2ZSIgdmFsdWU9IkxJTkVBUiBWRUxPQ0lUWSIvPjxTRVRUSU5HIGlkPSJwX3F1YW50aXNlTW9kZSIgdmFsdWU9IiIvPjxTRVRUSU5HIGlkPSJwX21peGVyQWR2YW5jZWQiIHZhbHVlPSIxIi8+PFNFVFRJTkcgaWQ9InBfbWl4ZXJHbG9iYWwiIHZhbHVlPSIxIi8+PFNFVFRJTkcgaWQ9InBfbWl4ZXJMb2NrIiB2YWx1ZT0iMCIvPjxTRVRUSU5HIGlkPSJwX21peGVyUGFnZSIgdmFsdWU9IiIvPjxTRVRUSU5HIGlkPSJwX2FydGljTG9jayIgdmFsdWU9IjAiLz48U0VUVElORyBpZD0icF9hcnRpY1BhZ2UiIHZhbHVlPSIiLz48U0VUVElORyBpZD0icF9sYXN0U2VsZWN0ZWRQcmltYXJ5QXJ0aWMiIHZhbHVlPSIwIi8+PFNFVFRJTkcgaWQ9InBfbWlkaUNoYW5uZWwiIHZhbHVlPSIwIi8+PFNFVFRJTkcgaWQ9InBfc2VsZWN0ZWRUYWdzIiB2YWx1ZT0iU3ludGgiLz48U0VUVElORyBpZD0icF9maWx0ZXJQb3MiIHZhbHVlPSJbMCwgMzFdIi8+PFNFVFRJTkcgaWQ9InBfcHJlc2V0UG9zIiB2YWx1ZT0iWzAsIDE2MjNdIi8+PFNFVFRJTkcgaWQ9InBfZXZvQ29udGFpbmVyUG9zIiB2YWx1ZT0iW10iLz48U0VUVElORyBpZD0icF9vY3RhdmUiIHZhbHVlPSIwIi8+PFNFVFRJTkcgaWQ9InBfb2Rlc3RJbmRpY2VzIiB2YWx1ZT0iMCwxLDIsMyw0LDUsNiw3LDgsOSwxMCwxMSwxMiwxMywxNCwxNSwxNiwxNywxOCwxOSwyMCwyMSwyMiwyMywyNCwyNSwyNiwyNywyOCwyOSwzMCwzMSwzMiwzMywzNCwzNSwzNiwzNywzOCwzOSw0MCw0MSw0Miw0Myw0NCw0NSw0Niw0Nyw0OCw0OSw1MCw1MSw1Miw1Myw1NCw1NSw1Niw1Nyw1OCw1OSw2MCw2MSw2Miw2Myw2NCw2NSw2Niw2Nyw2OCw2OSw3MCw3MSw3Miw3Myw3NCw3NSw3Niw3Nyw3OCw3OSw4MCw4MSw4Miw4Myw4NCw4NSw4Niw4Nyw4OCw4OSw5MCw5MSw5Miw5Myw5NCw5NSw5Niw5Nyw5OCw5OSwxMDAsMTAxLDEwMiwxMDMsMTA0LDEwNSwxMDYsMTA3LDEwOCwxMDksMTEwLDExMSwxMTIsMTEzLDExNCwxMTUsMTE2LDExNywxMTgsMTE5LDEyMCwxMjEsMTIyLDEyMywxMjQsMTI1LDEyNiwxMjcsMTI4LDEyOSwxMzAsMTMxLDEzMiwxMzMsMTM0LDEzNSwxMzYsMTM3LDEzOCwxMzksMTQwLDE0MSwxNDIsMTQzLDE0NCwxNDUsMTQ2LDE0NywxNDgsMTQ5LDE1MCwxNTEsMTUyLDE1MywxNTQsMTU1LDE1NiwxNTcsMTU4LDE1OSwxNjAsMTYxLDE2MiwxNjMsMTY0LDE2NSwxNjYsMTY3LDE2OCwxNjksMTcwLDE3MSwxNzIsMTczLDE3NCwxNzUsMTc2LDE3NywxNzgsMTc5LDE4MCwxODEsMTgyLDE4MywxODQsMTg1LDE4NiwxODcsMTg4LDE4OSwxOTAsMTkxLDE5MiwxOTMsMTk0LDE5NSwxOTYsMTk3LDE5OCwxOTksMjAwLDIwMSwyMDIsMjAzLDIwNCwyMDUsMjA2LDIwNywyMDgsMjA5LDIxMCwyMTEsMjEyLDIxMywyMTQsMjE1LDIxNiwyMTcsMjE4LDIxOSwyMjAsMjIxLDIyMiwyMjMsMjI0LDIyNSwyMjYsMjI3LDIyOCwyMjksMjMwLDIzMSwyMzIsMjMzLDIzNCwyMzUsMjM2LDIzNywyMzgsMjM5LDI0MCwyNDEsMjQyLDI0MywyNDQsMjQ1LDI0NiwyNDcsMjQ4LDI0OSwyNTAsMjUxLDI1MiwyNTMsMjU0LDI1NSwyNTYsMjU3LDI1OCwyNTksMjYwLDI2MSwyNjIsMjYzLDI2NCIvPjxBUlRJQz48U0VUVElORyBpZD0iYV9uYW1lIiB2YWx1ZT0iTEFCU19TeW50aF9QYWRfIzAwMDEiLz48U0VUVElORyBpZD0iYV92ZXJzaW9uIiB2YWx1ZT0iMTY3Nzg3NTIiLz48U0VUVElORyBpZD0iYV90ZW1wbGF0ZUlkeCIgdmFsdWU9IjAiLz48U0VUVElORyBpZD0iYV9vZGVzdCIgdmFsdWU9IlJFVkVSQiIvPjxTRVRUSU5HIGlkPSJhX2FjdGl2ZSIgdmFsdWU9IjIiLz48U0VUVElORyBpZD0iYV90d29IYW5kZWQiIHZhbHVlPSIwIi8+PFNFVFRJTkcgaWQ9ImFfYXV0b01ha2VVcCIgdmFsdWU9IjAiLz48U0VUVElORyBpZD0idF90eXBlIiB2YWx1ZT0iMCIvPjxTRVRUSU5HIGlkPSJ0X2VuYWJsZWQiIHZhbHVlPSIxIi8+PFNFVFRJTkcgaWQ9InRfbGF0Y2giIHZhbHVlPSIwIi8+PFNFVFRJTkcgaWQ9InRfa2V5c3dpdGNoIiB2YWx1ZT0iMCIvPjxTRVRUSU5HIGlkPSJ0X21pZGlDaGFubmVsIiB2YWx1ZT0iMSIvPjxTRVRUSU5HIGlkPSJ0X3ZlbEZyb20iIHZhbHVlPSIxIi8+PFNFVFRJTkcgaWQ9InRfdmVsVG8iIHZhbHVlPSIxMjciLz48U0VUVElORyBpZD0idF9jYyIgdmFsdWU9IjMyIi8+PFNFVFRJTkcgaWQ9InRfY2NWYWx1ZUZyb20iIHZhbHVlPSIwIi8+PFNFVFRJTkcgaWQ9InRfY2NWYWx1ZVRvIiB2YWx1ZT0iMTI3Ii8+PFNFVFRJTkcgaWQ9InRfc3BlZWRGcm9tIiB2YWx1ZT0iMCIvPjxTRVRUSU5HIGlkPSJ0X3NwZWVkVG8iIHZhbHVlPSIwLjUiLz48U0VUVElORyBpZD0idF9wcm9ncmFtQ2hhbmdlIiB2YWx1ZT0iMCIvPjxTRVRUSU5HIGlkPSJycl90aW1lb3V0IiB2YWx1ZT0iLTEiLz48U0VUVElORyBpZD0icnJfbmVpZ2hib3VyTWluIiB2YWx1ZT0iMjQiLz48U0VUVElORyBpZD0icnJfbmVpZ2hib3VyTWF4IiB2YWx1ZT0iOTYiLz48U0VUVElORyBpZD0icnJfdXNlTmVpZ2hib3VyIiB2YWx1ZT0iMCIvPjxTRVRUSU5HIGlkPSJycl9jb3VudCIgdmFsdWU9Ii0xIi8+PFNFVFRJTkcgaWQ9InJyX2luYyIgdmFsdWU9IjEiLz48U0VUVElORyBpZD0icnJfbGF5ZXJzIiB2YWx1ZT0iMSIvPjxTRVRUSU5HIGlkPSJycl9nYWluIiB2YWx1ZT0iMSIvPjxTRVRUSU5HIGlkPSJycl9zdGFydCIgdmFsdWU9IjAiLz48U0VUVElORyBpZD0icnJfc3luYyIgdmFsdWU9IjAiLz48U0VUVElORyBpZD0icnJfcGxheSIgdmFsdWU9IjAiLz48U0VUVElORyBpZD0icnJfa2V5c3dpdGNoRnJvbSIgdmFsdWU9Ii0xIi8+PFNFVFRJTkcgaWQ9InJyX2tleXN3aXRjaFRvIiB2YWx1ZT0iLTEiLz48U0VUVElORyBpZD0icnJfa2V5c3dpdGNoVG8iIHZhbHVlPSItMSIvPjxTRVRUSU5HIGlkPSJycl9tb2RlIiB2YWx1ZT0iMCIvPjxTRVRUSU5HIGlkPSJyX21pZGlDaGFubmVsIiB2YWx1ZT0iMCIvPjxTRVRUSU5HIGlkPSJyX3RyYW5zcG9zZSIgdmFsdWU9IjAiLz48U0VUVElORyBpZD0icl9sYXllclRyYW5zcG9zZSIgdmFsdWU9IjAiLz48U0VUVElORyBpZD0iaV9leHByZXNzaW9uIiB2YWx1ZT0iMSIvPjxTRVRUSU5HIGlkPSJpX2R5bmFtaWNzIiB2YWx1ZT0iMSIvPjxTRVRUSU5HIGlkPSJpX3JldmVyYiIgdmFsdWU9IjAuNjQ1NjY4OTgzNDU5NDcyNyIvPjxTRVRUSU5HIGlkPSJpX3JlbGVhc2UiIHZhbHVlPSIwLjUiLz48U0VUVElORyBpZD0iaV90aWdodCIgdmFsdWU9IjAuNSIvPjxTRVRUSU5HIGlkPSJpX3ZpYnJhdG8iIHZhbHVlPSIxIi8+PFNFVFRJTkcgaWQ9ImlfdmFyaWF0aW9uIiB2YWx1ZT0iMCIvPjxTRVRUSU5HIGlkPSJzX3BhbiIgdmFsdWU9IjAuNSIvPjxTRVRUSU5HIGlkPSJzX3dpZHRoIiB2YWx1ZT0iMC41Ii8+PFNFVFRJTkcgaWQ9InNfZmxpcCIgdmFsdWU9IjAiLz48TUlYPjxTRVRUSU5HIGlkPSJtX21haW4iIHZhbHVlPSIxIiBtaWNJZD0iMSIvPjxTRVRUSU5HIGlkPSJlX21haW4iIHZhbHVlPSIxIiBtaWNJZD0iMSIvPjxTRVRUSU5HIGlkPSJiX21haW4iIHZhbHVlPSIwIiBtaWNJZD0iMSIvPjxTRVRUSU5HIGlkPSJtX2FsdDEiIHZhbHVlPSIwIiBtaWNJZD0iMiIvPjxTRVRUSU5HIGlkPSJlX2FsdDEiIHZhbHVlPSIwIiBtaWNJZD0iMiIvPjxTRVRUSU5HIGlkPSJiX2FsdDEiIHZhbHVlPSIwIiBtaWNJZD0iMiIvPjxTRVRUSU5HIGlkPSJtX2FsdDIiIHZhbHVlPSIwIiBtaWNJZD0iMyIvPjxTRVRUSU5HIGlkPSJlX2FsdDIiIHZhbHVlPSIwIiBtaWNJZD0iMyIvPjxTRVRUSU5HIGlkPSJiX2FsdDIiIHZhbHVlPSIwIiBtaWNJZD0iMyIvPjxTRVRUSU5HIGlkPSJtX2FsdDMiIHZhbHVlPSIwIiBtaWNJZD0iNCIvPjxTRVRUSU5HIGlkPSJlX2FsdDMiIHZhbHVlPSIwIiBtaWNJZD0iNCIvPjxTRVRUSU5HIGlkPSJiX2FsdDMiIHZhbHVlPSIwIiBtaWNJZD0iNCIvPjwvTUlYPjwvQVJUSUM+PC9BUlRJQ1M+PFBBUkFNRVRFUlM+PFBBUkFNIGlkPSJnX2dhaW4iIHZhbHVlPSIxIiBjYz0iNyIvPjxQQVJBTSBpZD0iZ19wYW4iIHZhbHVlPSIwLjUiIGNjPSIxMCIvPjxQQVJBTSBpZD0iZ190dW5lIiB2YWx1ZT0iMCIgY2M9Ii0xIi8+PFBBUkFNIGlkPSJpX3JldmVyYiIgdmFsdWU9IjAuNjQ1NjY4OTgzNDU5NDcyNyIgY2M9IjE5Ii8+PFBBUkFNIGlkPSJpX3RpZ2h0IiB2YWx1ZT0iMC41IiBjYz0iMTgiLz48UEFSQU0gaWQ9Imlfc3BlZWQiIHZhbHVlPSIwIiBjYz0iLTEiLz48UEFSQU0gaWQ9ImlfcmVsZWFzZSIgdmFsdWU9IjAuNSIgY2M9IjE3Ii8+PFBBUkFNIGlkPSJpX2V4cHJlc3Npb24iIHZhbHVlPSIxIiBjYz0iMTEiLz48UEFSQU0gaWQ9ImlfZHluYW1pY3MiIHZhbHVlPSIxIiBjYz0iMSIvPjxQQVJBTSBpZD0iaV92YXJpYXRpb24iIHZhbHVlPSIwIiBjYz0iMjAiLz48UEFSQU0gaWQ9ImlfdmlicmF0byIgdmFsdWU9IjEiIGNjPSIyMSIvPjxQQVJBTSBpZD0iaV9lbnZhdHQiIHZhbHVlPSIzLjA0MzcyNTAxMzczMjkxIiBjYz0iLTEiLz48UEFSQU0gaWQ9ImlfZW52ZGVjIiB2YWx1ZT0iMjUiIGNjPSItMSIvPjxQQVJBTSBpZD0iaV9lbnZzdXMiIHZhbHVlPSIxIiBjYz0iLTEiLz48UEFSQU0gaWQ9ImlfZW52cmVsIiB2YWx1ZT0iMiIgY2M9Ii0xIi8+PFBBUkFNIGlkPSJpX21peHNpbXBsZSIgdmFsdWU9IjAuNSIgY2M9Ii0xIi8+PFBBUkFNIGlkPSJzX2ZsaXAiIHZhbHVlPSIwIiBjYz0iLTEiLz48UEFSQU0gaWQ9InNfd2lkdGgiIHZhbHVlPSIwLjUiIGNjPSItMSIvPjxQQVJBTSBpZD0ic19wYW4iIHZhbHVlPSIwLjUiIGNjPSItMSIvPjxQQVJBTSBpZD0iaV9kZWxheSIgdmFsdWU9IjAiIGNjPSItMSIvPjxQQVJBTSBpZD0iaV9hbW91bnQiIHZhbHVlPSIwIiBjYz0iLTEiLz48UEFSQU0gaWQ9ImlfZGlzdG9ydCIgdmFsdWU9IjAiIGNjPSItMSIvPjxQQVJBTSBpZD0iaV9sdXNoVmVyYiIgdmFsdWU9IjAiIGNjPSItMSIvPjxQQVJBTSBpZD0iaV9wZWR2b2wiIHZhbHVlPSIwLjUiIGNjPSItMSIvPjxQQVJBTSBpZD0iaV9wZWREeW4iIHZhbHVlPSIwLjUiIGNjPSItMSIvPjxQQVJBTSBpZD0iaV9sZW5ndGgiIHZhbHVlPSIwIiBjYz0iLTEiLz48UEFSQU0gaWQ9ImlfdGltZU1hY2hpbmUiIHZhbHVlPSIwIiBjYz0iLTEiLz48UEFSQU0gaWQ9Imlfc3RyZXRjaCIgdmFsdWU9IjAiIGNjPSItMSIvPjxQQVJBTSBpZD0iaV9zb2Z0UGVkYWwiIHZhbHVlPSIwIiBjYz0iLTEiLz48UEFSQU0gaWQ9ImlfcmVzcG9uc2UiIHZhbHVlPSIwIiBjYz0iLTEiLz48UEFSQU0gaWQ9ImlfbWFsbGV0IiB2YWx1ZT0iMCIgY2M9Ii0xIi8+PFBBUkFNIGlkPSJpX3N0b3BlTXV0ZSIgdmFsdWU9IjAiIGNjPSItMSIvPjxQQVJBTSBpZD0iaV9kaXJlY3Rpb24iIHZhbHVlPSIwIiBjYz0iLTEiLz48UEFSQU0gaWQ9ImlfbHBGaWx0ZXIiIHZhbHVlPSIwIiBjYz0iLTEiLz48UEFSQU0gaWQ9ImlfcG9ydGFtZW50byIgdmFsdWU9IjAiIGNjPSItMSIvPjxQQVJBTSBpZD0iaV9tZXRhWzE4XSIgdmFsdWU9IjAiIGNjPSItMSIvPjxQQVJBTSBpZD0iaV9tZXRhWzE5XSIgdmFsdWU9IjAiIGNjPSItMSIvPjxQQVJBTSBpZD0iaV9tZXRhWzIwXSIgdmFsdWU9IjAiIGNjPSItMSIvPjxQQVJBTSBpZD0iaV9tZXRhWzIxXSIgdmFsdWU9IjAiIGNjPSItMSIvPjxQQVJBTSBpZD0iaV9tZXRhWzIyXSIgdmFsdWU9IjAiIGNjPSItMSIvPjxQQVJBTSBpZD0iaV9tZXRhWzIzXSIgdmFsdWU9IjAiIGNjPSItMSIvPjxQQVJBTSBpZD0iaV9tZXRhWzI0XSIgdmFsdWU9IjAiIGNjPSItMSIvPjxQQVJBTSBpZD0iaV9tZXRhWzI1XSIgdmFsdWU9IjAiIGNjPSItMSIvPjxQQVJBTSBpZD0iaV9tZXRhWzI2XSIgdmFsdWU9IjAiIGNjPSItMSIvPjxQQVJBTSBpZD0ibV9tYWluIiB2YWx1ZT0iMSIgY2M9IjIyIi8+PFBBUkFNIGlkPSJtX2FsdDEiIHZhbHVlPSIwIiBjYz0iMjMiLz48UEFSQU0gaWQ9Im1fYWx0MiIgdmFsdWU9IjAiIGNjPSIyNCIvPjxQQVJBTSBpZD0ibV9hbHQzIiB2YWx1ZT0iMCIgY2M9IjI1Ii8+PC9QQVJBTUVURVJTPjwvTGFicz4A" program="0" plugin="C:/Program Files/VstPlugins/LABS (64 Bit).dll" guivisible="0"/>
          </instrument>
          <eldata fres="0.5" fwet="0" ftype="0" fcut="14000">
            <elvol x100="0" amt="0" lpdel="0" lshp="0" lspd_numerator="4" att="0" rel="0.1" userwavefile="" lspd_denominator="4" sustain="0.5" pdel="0" ctlenvamt="0" dec="0.5" latt="0" hold="0.5" lspd="0.1" lamt="0" lspd_syncmode="0"/>
            <elcut x100="0" amt="0" lpdel="0" lshp="0" lspd_numerator="4" att="0" rel="0.1" userwavefile="" lspd_denominator="4" sustain="0.5" pdel="0" ctlenvamt="0" dec="0.5" latt="0" hold="0.5" lspd="0.1" lamt="0" lspd_syncmode="0"/>
            <elres x100="0" amt="0" lpdel="0" lshp="0" lspd_numerator="4" att="0" rel="0.1" userwavefile="" lspd_denominator="4" sustain="0.5" pdel="0" ctlenvamt="0" dec="0.5" latt="0" hold="0.5" lspd="0.1" lamt="0" lspd_syncmode="0"/>
          </eldata>
          <chordcreator chord-enabled="0" chordrange="1" chord="0"/>
          <arpeggiator arptime_syncmode="0" arpmiss="0" arptime_numerator="4" arprange="1" arp-enabled="0" arpdir="0" arpcycle="0" arptime_denominator="4" arpskip="0" arpmode="0" arp="0" arptime="200" arpgate="100"/>
          <midiport basevelocity="63" outputcontroller="0" fixedoutputvelocity="-1" readable="0" outputprogram="1" inputcontroller="0" inputchannel="0" fixedoutputnote="-1" writable="0" fixedinputvelocity="-1" outputchannel="1"/>
          <fxchain enabled="0" numofeffects="0"/>
        </instrumenttrack>
        <pattern type="1" muted="0" steps="16" pos="2880" name="Pad 3">
          <note len="1535" key="74" pos="1727" vol="17" pan="0"/>
          <note len="1535" key="73" pos="1727" vol="22" pan="0"/>
          <note len="1535" key="71" pos="1727" vol="25" pan="0"/>
          <note len="1535" key="69" pos="1727" vol="29" pan="0"/>
          <note len="1535" key="74" pos="4799" vol="17" pan="0"/>
          <note len="1535" key="73" pos="4799" vol="22" pan="0"/>
          <note len="1535" key="71" pos="4799" vol="25" pan="0"/>
          <note len="1535" key="69" pos="4799" vol="29" pan="0"/>
        </pattern>
        <pattern type="1" muted="0" steps="16" pos="13632" name="Pad 3">
          <note len="1535" key="74" pos="1727" vol="17" pan="0"/>
          <note len="1535" key="73" pos="1727" vol="22" pan="0"/>
          <note len="1535" key="71" pos="1727" vol="25" pan="0"/>
          <note len="1535" key="69" pos="1727" vol="29" pan="0"/>
          <note len="1535" key="74" pos="4799" vol="17" pan="0"/>
          <note len="1535" key="73" pos="4799" vol="22" pan="0"/>
          <note len="1535" key="71" pos="4799" vol="25" pan="0"/>
          <note len="1535" key="69" pos="4799" vol="29" pan="0"/>
        </pattern>
      </track>
    </trackcontainer>
    <track type="6" muted="0" solo="0" name="Automation track">
      <automationtrack/>
      <automationpattern len="192" mute="0" prog="0" tens="1" pos="0" name="Numerator"/>
      <automationpattern len="192" mute="0" prog="0" tens="1" pos="0" name="Denominator"/>
      <automationpattern len="192" mute="0" prog="0" tens="1" pos="0" name="Tempo"/>
      <automationpattern len="192" mute="0" prog="0" tens="1" pos="0" name="Master volume"/>
      <automationpattern len="192" mute="0" prog="0" tens="1" pos="0" name="Master pitch"/>
      <automationpattern len="192" mute="0" prog="0" tens="1" pos="0" name="Numerator"/>
      <automationpattern len="192" mute="0" prog="0" tens="1" pos="0" name="Denominator"/>
      <automationpattern len="192" mute="0" prog="0" tens="1" pos="0" name="Tempo"/>
      <automationpattern len="192" mute="0" prog="0" tens="1" pos="0" name="Master volume"/>
      <automationpattern len="192" mute="0" prog="0" tens="1" pos="0" name="Master pitch"/>
      <automationpattern len="0" mute="0" prog="0" tens="1" pos="0" name="Numerator">
        <time pos="0" value="4"/>
        <object id="7824"/>
      </automationpattern>
      <automationpattern len="0" mute="0" prog="0" tens="1" pos="0" name="Denominator">
        <time pos="0" value="4"/>
        <object id="19574"/>
      </automationpattern>
      <automationpattern len="0" mute="0" prog="0" tens="1" pos="0" name="Tempo">
        <time pos="0" value="92"/>
        <object id="24925"/>
      </automationpattern>
    </track>
    <fxmixer minimized="0" height="333" visible="0" x="321" maximized="0" y="414" width="561">
      <fxchannel volume="2" muted="0" soloed="0" num="0" name="Master">
        <fxchain enabled="1" numofeffects="2">
          <effect autoquit_numerator="4" on="1" autoquit_syncmode="0" autoquit="1" autoquit_denominator="4" gate="0" wet="1" name="ladspaeffect">
            <ladspacontrols link="1" ports="4">
              <port00 link="1">
                <data id="8914" scale_type="log" value="20"/>
              </port00>
              <port01 link="1" data="0.755"/>
              <port10>
                <data id="27326" scale_type="log" value="20"/>
              </port10>
              <port11 data="0.755"/>
            </ladspacontrols>
            <key>
              <attribute name="file" value="butterworth_1902"/>
              <attribute name="plugin" value="butthigh_iir"/>
            </key>
          </effect>
          <effect autoquit_numerator="4" on="1" autoquit_syncmode="0" autoquit="1" autoquit_denominator="4" gate="0" wet="1" name="amplifier">
            <AmplifierControls volume="200" left="100" pan="0" right="100"/>
            <key/>
          </effect>
        </fxchain>
      </fxchannel>
      <fxchannel volume="1" muted="0" soloed="0" num="1" name="Pad">
        <fxchain enabled="1" numofeffects="1">
          <effect autoquit_numerator="4" on="1" autoquit_syncmode="0" autoquit="1" autoquit_denominator="4" gate="0" wet="1" name="ladspaeffect">
            <ladspacontrols link="1" ports="4">
              <port00 link="1">
                <data id="18726" scale_type="log" value="1000"/>
              </port00>
              <port01 link="1" data="1.41"/>
              <port10>
                <data id="18085" scale_type="log" value="1000"/>
              </port10>
              <port11 data="1.41"/>
            </ladspacontrols>
            <key>
              <attribute name="file" value="butterworth_1902"/>
              <attribute name="plugin" value="buttlow_iir"/>
            </key>
          </effect>
        </fxchain>
        <send channel="0" amount="1"/>
      </fxchannel>
      <fxchannel volume="1" muted="0" soloed="0" num="2" name="Mandolin">
        <fxchain enabled="1" numofeffects="1">
          <effect autoquit_numerator="4" on="1" autoquit_syncmode="0" autoquit="1" autoquit_denominator="4" gate="0" wet="1" name="ladspaeffect">
            <ladspacontrols link="1" ports="4">
              <port00 link="1">
                <data id="18217" scale_type="log" value="10000"/>
              </port00>
              <port01 link="1" data="0.755"/>
              <port10>
                <data id="32742" scale_type="log" value="10000"/>
              </port10>
              <port11 data="0.755"/>
            </ladspacontrols>
            <key>
              <attribute name="file" value="butterworth_1902"/>
              <attribute name="plugin" value="buttlow_iir"/>
            </key>
          </effect>
        </fxchain>
        <send channel="0" amount="1"/>
      </fxchannel>
      <fxchannel volume="1" muted="0" soloed="0" num="3" name="Constant">
        <fxchain enabled="1" numofeffects="2">
          <effect autoquit_numerator="4" on="1" autoquit_syncmode="0" autoquit="1" autoquit_denominator="4" gate="0" wet="1" name="ladspaeffect">
            <ladspacontrols link="1" ports="4">
              <port00 link="1">
                <data id="12365" scale_type="log" value="10000"/>
              </port00>
              <port01 link="1" data="0.755"/>
              <port10>
                <data id="18336" scale_type="log" value="10000"/>
              </port10>
              <port11 data="0.755"/>
            </ladspacontrols>
            <key>
              <attribute name="file" value="butterworth_1902"/>
              <attribute name="plugin" value="buttlow_iir"/>
            </key>
          </effect>
          <effect autoquit_numerator="4" on="1" autoquit_syncmode="0" autoquit="1" autoquit_denominator="4" gate="0" wet="0.1" name="reverbsc">
            <ReverbSCControls output_gain="0" input_gain="0" color="10000" size="0.89"/>
            <key/>
          </effect>
        </fxchain>
        <send channel="0" amount="1"/>
      </fxchannel>
    </fxmixer>
    <ControllerRackView minimized="0" height="200" visible="1" x="836" maximized="0" y="407" width="350"/>
    <pianoroll minimized="0" height="480" visible="0" x="526" maximized="1" y="409" width="860"/>
    <automationeditor minimized="0" height="400" visible="0" x="56" maximized="1" y="255" width="860"/>
    <projectnotes minimized="0" height="400" visible="0" x="1" maximized="0" y="1" width="686"><![CDATA[<!DOCTYPE HTML PUBLIC "-//W3C//DTD HTML 4.0//EN" "http://www.w3.org/TR/REC-html40/strict.dtd">
<html><head><meta name="qrichtext" content="1" /><style type="text/css">
p, li { white-space: pre-wrap; }
</style></head><body style=" font-family:'MS Shell Dlg 2'; font-size:8.25pt; font-weight:400; font-style:normal;">
<p style=" margin-top:0px; margin-bottom:0px; margin-left:0px; margin-right:0px; -qt-block-indent:0; text-indent:0px;"><span style=" color:#e0e0e0;">Title: Sea and Sky</span></p>
<p style=" margin-top:0px; margin-bottom:0px; margin-left:0px; margin-right:0px; -qt-block-indent:0; text-indent:0px;"><span style=" color:#e0e0e0;">Composer: Martin Gulliksson</span></p>
<p style=" margin-top:0px; margin-bottom:0px; margin-left:0px; margin-right:0px; -qt-block-indent:0; text-indent:0px;"><span style=" color:#e0e0e0;">Year: 2021</span></p>
<p style=" margin-top:0px; margin-bottom:0px; margin-left:0px; margin-right:0px; -qt-block-indent:0; text-indent:0px;"><span style=" color:#e0e0e0;">License: CC BY-SA 4.0</span></p></body></html>]]></projectnotes>
    <timeline lp1pos="192" lp0pos="0" lpstate="0"/>
    <controllers/>
  </song>
</lmms-project>
